<?xml version="1.0" standalone="no"?>
<!DOCTYPE svg PUBLIC "-//W3C//DTD SVG 1.1//EN"
"http://www.w3.org/Graphics/SVG/1.1/DTD/svg11.dtd">
<svg width="6161.54" height="3405.64" viewBox="0 0 6161.54 3405.64" version="1.1"
xmlns="http://www.w3.org/2000/svg"
xmlns:xlink="http://www.w3.org/1999/xlink">
<circle cx="597" cy="2447" r="15" style=""/>
<circle cx="1259" cy="2033" r="15" style=""/>
<circle cx="1350" cy="2078" r="15" style=""/>
<circle cx="1454" cy="2139" r="15" style=""/>
<circle cx="1528" cy="2216" r="15" style=""/>
<circle cx="1591" cy="2087" r="15" style=""/>
<circle cx="1558" cy="1838" r="15" style=""/>
<circle cx="1811" cy="1672" r="15" style=""/>
<circle cx="1996" cy="1673" r="15" style=""/>
<circle cx="2074" cy="1932" r="15" style=""/>
<circle cx="1862" cy="2115" r="15" style=""/>
<circle cx="1282" cy="1571" r="15" style=""/>
<circle cx="1179" cy="1644" r="15" style=""/>
<circle cx="1453" cy="1512" r="15" style=""/>
<circle cx="1783" cy="1334" r="15" style=""/>
<circle cx="1984" cy="1233" r="15" style=""/>
<circle cx="1999" cy="1400" r="15" style=""/>
<circle cx="2182" cy="1376" r="15" style=""/>
<circle cx="2338" cy="1219" r="15" style=""/>
<circle cx="2737" cy="1526" r="15" style=""/>
<circle cx="2800" cy="1680" r="15" style=""/>
<circle cx="3393" cy="2210" r="15" style=""/>
<circle cx="1904" cy="342" r="15" style=""/>
<circle cx="2147" cy="311" r="15" style=""/>
<circle cx="2269" cy="280" r="15" style=""/>
<circle cx="2388" cy="203" r="15" style=""/>
<circle cx="2414" cy="285" r="15" style=""/>
<circle cx="2520" cy="276" r="15" style=""/>
<circle cx="2574" cy="234" r="15" style=""/>
<circle cx="4119" cy="250" r="15" style=""/>
<circle cx="4204" cy="198" r="15" style=""/>
</svg>
