<?xml version="1.0" standalone="no"?>
<!DOCTYPE svg PUBLIC "-//W3C//DTD SVG 1.1//EN"
"http://www.w3.org/Graphics/SVG/1.1/DTD/svg11.dtd">
<svg width="6141" height="3385" viewBox="0 0 6141 3385" version="1.1"
xmlns="http://www.w3.org/2000/svg"
xmlns:xlink="http://www.w3.org/1999/xlink">
<g fill-rule="evenodd"><path d="M 6022,0 L 6045,2 L 6067,8 L 6088,19 L 6106,34 L 6120,52 L 6131,72 L 6138,95 L 6140,118 L 6140,3266 L 6138,3289 L 6131,3312 L 6120,3332 L 6106,3350 L 6088,3365 L 6067,3376 L 6045,3382 L 6022,3385 L 118,3385 L 95,3382 L 73,3376 L 52,3365 L 34,3350 L 20,3332 L 9,3312 L 2,3289 L 0,3266 L 0,118 L 2,95 L 9,72 L 20,52 L 34,34 L 52,19 L 73,8 L 95,2 L 118,0 L 6022,0 z " style="fill-opacity:1.000000;fill:rgb(103,198,105);stroke:rgb(0,0,0);stroke-width:2"/></g>
</svg>
