<?xml version="1.0" standalone="no"?>
<!DOCTYPE svg PUBLIC "-//W3C//DTD SVG 1.1//EN"
"http://www.w3.org/Graphics/SVG/1.1/DTD/svg11.dtd">
<svg width="5905" height="3149" viewBox="0 0 5905 3149" version="1.1"
xmlns="http://www.w3.org/2000/svg"
xmlns:xlink="http://www.w3.org/1999/xlink">
<g fill-rule="evenodd"><path d="M 3641,2850 L 3624,2867 L 3622,2868 L 3620,2869 L 3618,2870 L 3615,2870 L 3613,2870 L 3611,2869 L 3608,2867 L 3607,2866 L 3605,2864 L 3604,2861 L 3604,2859 L 3604,2856 L 3605,2854 L 3606,2852 L 3608,2850 L 3624,2833 L 3626,2832 L 3629,2830 L 3631,2830 L 3633,2830 L 3636,2830 L 3638,2831 L 3640,2832 L 3642,2834 L 3643,2836 L 3644,2838 L 3645,2841 L 3644,2843 L 3644,2846 L 3643,2848 L 3641,2850 z " style="fill-opacity:1.000000;fill:rgb(103,198,105);stroke:rgb(0,0,0);stroke-width:2"/></g>
<g fill-rule="evenodd"><path d="M 251,2944 L 251,2826 L 251,2823 L 252,2821 L 253,2819 L 255,2817 L 257,2816 L 259,2815 L 262,2814 L 264,2814 L 266,2815 L 269,2816 L 271,2817 L 272,2819 L 274,2821 L 274,2823 L 275,2826 L 275,2944 L 274,2946 L 274,2949 L 272,2951 L 271,2953 L 269,2954 L 266,2955 L 264,2956 L 262,2956 L 259,2955 L 257,2954 L 255,2953 L 253,2951 L 252,2949 L 251,2946 L 251,2944 z " style="fill-opacity:1.000000;fill:rgb(115,81,255);stroke:rgb(0,0,0);stroke-width:2"/></g>
<g fill-rule="evenodd"><path d="M 451,2829 L 434,2845 L 432,2847 L 430,2848 L 428,2849 L 425,2849 L 423,2849 L 421,2848 L 418,2846 L 417,2845 L 415,2842 L 414,2840 L 414,2838 L 414,2835 L 415,2833 L 416,2831 L 418,2829 L 434,2812 L 436,2810 L 439,2809 L 441,2809 L 443,2808 L 446,2809 L 448,2810 L 450,2811 L 452,2813 L 453,2815 L 454,2817 L 455,2820 L 454,2822 L 454,2824 L 453,2827 L 451,2829 z " style="fill-opacity:1.000000;fill:rgb(74,236,41);stroke:rgb(0,0,0);stroke-width:2"/></g>
<g fill-rule="evenodd"><path d="M 1106,2944 L 1106,2865 L 1106,2863 L 1107,2860 L 1108,2858 L 1110,2856 L 1112,2855 L 1114,2854 L 1116,2853 L 1119,2853 L 1121,2854 L 1123,2855 L 1125,2856 L 1127,2858 L 1128,2860 L 1129,2863 L 1129,2865 L 1129,2944 L 1129,2946 L 1128,2949 L 1127,2951 L 1125,2953 L 1123,2954 L 1121,2955 L 1119,2956 L 1116,2956 L 1114,2955 L 1112,2954 L 1110,2953 L 1108,2951 L 1107,2949 L 1106,2946 L 1106,2944 z " style="fill-opacity:1.000000;fill:rgb(205,186,171);stroke:rgb(0,0,0);stroke-width:2"/></g>
<g fill-rule="evenodd"><path d="M 1137,2829 L 1120,2845 L 1118,2847 L 1116,2848 L 1114,2849 L 1111,2849 L 1109,2849 L 1107,2848 L 1104,2846 L 1103,2845 L 1101,2842 L 1101,2840 L 1100,2838 L 1100,2835 L 1101,2833 L 1102,2831 L 1104,2829 L 1120,2812 L 1122,2810 L 1125,2809 L 1127,2809 L 1129,2808 L 1132,2809 L 1134,2810 L 1136,2811 L 1138,2813 L 1139,2815 L 1140,2817 L 1141,2820 L 1140,2822 L 1140,2824 L 1139,2827 L 1137,2829 z " style="fill-opacity:1.000000;fill:rgb(242,251,227);stroke:rgb(0,0,0);stroke-width:2"/></g>
<g fill-rule="evenodd"><path d="M 1851,2829 L 1834,2845 L 1833,2847 L 1830,2848 L 1828,2849 L 1825,2849 L 1823,2849 L 1821,2848 L 1819,2846 L 1817,2845 L 1816,2842 L 1815,2840 L 1814,2838 L 1814,2835 L 1815,2833 L 1816,2831 L 1818,2829 L 1835,2812 L 1837,2810 L 1839,2809 L 1841,2809 L 1844,2808 L 1846,2809 L 1848,2810 L 1850,2811 L 1852,2813 L 1853,2815 L 1854,2817 L 1855,2820 L 1855,2822 L 1854,2824 L 1853,2827 L 1851,2829 z " style="fill-opacity:1.000000;fill:rgb(70,124,194);stroke:rgb(0,0,0);stroke-width:2"/></g>
<g fill-rule="evenodd"><path d="M 336,2909 L 353,2861 L 354,2859 L 356,2857 L 357,2855 L 360,2854 L 362,2854 L 364,2853 L 367,2854 L 369,2855 L 371,2856 L 373,2858 L 374,2860 L 375,2862 L 376,2864 L 376,2867 L 375,2869 L 347,2948 L 346,2950 L 345,2952 L 343,2954 L 341,2955 L 338,2956 L 336,2956 L 334,2956 L 331,2955 L 329,2954 L 327,2952 L 326,2950 L 325,2948 L 297,2869 L 296,2867 L 296,2864 L 296,2862 L 297,2860 L 299,2858 L 301,2856 L 303,2855 L 305,2854 L 307,2853 L 310,2854 L 312,2854 L 314,2855 L 316,2857 L 318,2859 L 319,2861 L 336,2909 z " style="fill-opacity:1.000000;fill:rgb(84,248,27);stroke:rgb(0,0,0);stroke-width:2"/></g>
<g fill-rule="evenodd"><path d="M 1714,2882 L 1742,2821 L 1744,2819 L 1745,2817 L 1747,2816 L 1749,2815 L 1752,2814 L 1754,2814 L 1757,2815 L 1759,2816 L 1761,2817 L 1763,2819 L 1764,2821 L 1765,2823 L 1765,2826 L 1765,2944 L 1765,2946 L 1764,2949 L 1763,2951 L 1761,2953 L 1759,2954 L 1757,2955 L 1754,2956 L 1752,2956 L 1749,2955 L 1747,2954 L 1745,2953 L 1743,2951 L 1742,2949 L 1741,2946 L 1741,2944 L 1741,2879 L 1724,2915 L 1723,2917 L 1721,2919 L 1719,2920 L 1717,2921 L 1715,2922 L 1712,2922 L 1710,2921 L 1708,2920 L 1706,2919 L 1704,2917 L 1703,2915 L 1686,2879 L 1686,2944 L 1686,2946 L 1685,2949 L 1684,2951 L 1682,2953 L 1680,2954 L 1678,2955 L 1675,2956 L 1673,2956 L 1671,2955 L 1668,2954 L 1666,2953 L 1665,2951 L 1663,2949 L 1663,2946 L 1662,2944 L 1662,2826 L 1663,2823 L 1663,2821 L 1665,2819 L 1666,2817 L 1668,2816 L 1671,2815 L 1673,2814 L 1675,2814 L 1678,2815 L 1680,2816 L 1682,2817 L 1684,2819 L 1685,2821 L 1714,2882 z " style="fill-opacity:1.000000;fill:rgb(232,231,141);stroke:rgb(0,0,0);stroke-width:2"/></g>
<g fill-rule="evenodd"><path d="M 1213,2958 L 1213,2956 L 1191,2956 L 1187,2955 L 1174,2949 L 1171,2947 L 1164,2940 L 1157,2925 L 1156,2921 L 1156,2888 L 1157,2884 L 1158,2882 L 1164,2870 L 1171,2863 L 1174,2860 L 1187,2854 L 1191,2853 L 1213,2853 L 1217,2854 L 1219,2855 L 1221,2854 L 1223,2853 L 1226,2853 L 1228,2854 L 1230,2855 L 1232,2856 L 1234,2858 L 1235,2860 L 1236,2863 L 1236,2865 L 1236,2963 L 1235,2966 L 1229,2977 L 1227,2980 L 1220,2987 L 1205,2995 L 1202,2995 L 1185,2995 L 1181,2995 L 1169,2988 L 1166,2987 L 1165,2985 L 1163,2983 L 1162,2981 L 1162,2978 L 1162,2976 L 1163,2974 L 1164,2971 L 1165,2969 L 1167,2968 L 1169,2967 L 1172,2966 L 1174,2966 L 1177,2966 L 1179,2967 L 1188,2972 L 1199,2972 L 1206,2968 L 1209,2965 L 1213,2958M 1213,2931 L 1213,2878 L 1210,2877 L 1193,2877 L 1186,2881 L 1183,2883 L 1180,2891 L 1180,2919 L 1183,2926 L 1186,2929 L 1193,2932 L 1210,2932 L 1213,2931 z " style="fill-opacity:1.000000;fill:rgb(118,90,46);stroke:rgb(0,0,0);stroke-width:2"/></g>
<g fill-rule="evenodd"><path d="M 1319,2928 L 1319,2865 L 1320,2863 L 1320,2860 L 1322,2858 L 1323,2856 L 1325,2855 L 1328,2854 L 1330,2853 L 1332,2853 L 1335,2854 L 1337,2855 L 1339,2856 L 1341,2858 L 1342,2860 L 1343,2863 L 1343,2865 L 1343,2944 L 1343,2946 L 1342,2949 L 1341,2951 L 1339,2953 L 1337,2954 L 1335,2955 L 1332,2956 L 1330,2956 L 1328,2955 L 1325,2954 L 1323,2953 L 1320,2955 L 1316,2956 L 1297,2956 L 1294,2955 L 1292,2955 L 1281,2949 L 1278,2947 L 1276,2944 L 1270,2932 L 1269,2929 L 1269,2865 L 1269,2863 L 1270,2860 L 1271,2858 L 1273,2856 L 1275,2855 L 1277,2854 L 1279,2853 L 1282,2853 L 1284,2854 L 1287,2855 L 1289,2856 L 1290,2858 L 1291,2860 L 1292,2863 L 1292,2865 L 1292,2924 L 1295,2930 L 1300,2932 L 1312,2932 L 1319,2929 L 1319,2928 z " style="fill-opacity:1.000000;fill:rgb(99,51,159);stroke:rgb(0,0,0);stroke-width:2"/></g>
<g fill-rule="evenodd"><path d="M 1394,2914 L 1394,2924 L 1396,2930 L 1402,2932 L 1418,2932 L 1427,2928 L 1429,2927 L 1432,2927 L 1434,2927 L 1437,2927 L 1439,2928 L 1441,2930 L 1442,2932 L 1444,2934 L 1444,2937 L 1444,2939 L 1444,2941 L 1443,2944 L 1442,2946 L 1440,2948 L 1438,2949 L 1426,2955 L 1423,2956 L 1399,2956 L 1395,2955 L 1382,2949 L 1379,2947 L 1377,2944 L 1371,2932 L 1371,2931 L 1370,2927 L 1370,2880 L 1371,2877 L 1377,2866 L 1379,2863 L 1382,2860 L 1393,2855 L 1395,2854 L 1399,2853 L 1423,2854 L 1426,2855 L 1438,2860 L 1441,2863 L 1443,2866 L 1449,2877 L 1450,2880 L 1450,2893 L 1450,2896 L 1449,2898 L 1448,2900 L 1446,2902 L 1445,2903 L 1443,2904 L 1440,2905 L 1394,2914M 1394,2890 L 1426,2884 L 1424,2880 L 1418,2877 L 1401,2877 L 1396,2880 L 1394,2885 L 1394,2890 z " style="fill-opacity:1.000000;fill:rgb(201,154,102);stroke:rgb(0,0,0);stroke-width:2"/></g>
<g fill-rule="evenodd"><path d="M 1502,2932 L 1539,2932 L 1542,2932 L 1544,2933 L 1546,2934 L 1548,2936 L 1550,2938 L 1551,2940 L 1551,2943 L 1551,2945 L 1551,2948 L 1550,2950 L 1548,2952 L 1546,2954 L 1544,2955 L 1542,2956 L 1539,2956 L 1477,2956 L 1475,2956 L 1473,2955 L 1471,2954 L 1469,2952 L 1467,2950 L 1466,2948 L 1466,2946 L 1466,2943 L 1466,2941 L 1467,2939 L 1468,2937 L 1515,2877 L 1477,2877 L 1475,2877 L 1473,2876 L 1470,2875 L 1469,2873 L 1467,2871 L 1466,2869 L 1466,2866 L 1466,2864 L 1466,2862 L 1467,2859 L 1469,2857 L 1470,2856 L 1473,2854 L 1475,2854 L 1477,2853 L 1539,2853 L 1542,2854 L 1544,2854 L 1546,2856 L 1548,2857 L 1549,2859 L 1550,2861 L 1551,2863 L 1551,2866 L 1551,2868 L 1550,2871 L 1549,2873 L 1502,2932 z " style="fill-opacity:1.000000;fill:rgb(50,13,183);stroke:rgb(0,0,0);stroke-width:2"/></g>
<g fill-rule="evenodd"><path d="M 1815,2914 L 1815,2924 L 1818,2930 L 1823,2932 L 1840,2932 L 1849,2928 L 1851,2927 L 1854,2927 L 1856,2927 L 1859,2927 L 1861,2928 L 1863,2930 L 1864,2932 L 1865,2934 L 1866,2937 L 1866,2939 L 1866,2941 L 1865,2944 L 1863,2946 L 1862,2948 L 1859,2949 L 1848,2955 L 1845,2956 L 1820,2956 L 1817,2955 L 1804,2949 L 1801,2947 L 1799,2944 L 1793,2932 L 1792,2931 L 1792,2927 L 1792,2880 L 1793,2877 L 1799,2866 L 1801,2863 L 1804,2860 L 1815,2855 L 1817,2854 L 1820,2853 L 1845,2854 L 1848,2855 L 1859,2860 L 1863,2863 L 1865,2866 L 1870,2877 L 1871,2880 L 1872,2893 L 1871,2896 L 1871,2898 L 1870,2900 L 1868,2902 L 1866,2903 L 1864,2904 L 1862,2905 L 1815,2914M 1815,2890 L 1847,2884 L 1845,2880 L 1840,2877 L 1823,2877 L 1818,2880 L 1815,2885 L 1815,2890 z " style="fill-opacity:1.000000;fill:rgb(49,88,163);stroke:rgb(0,0,0);stroke-width:2"/></g>
<g fill-rule="evenodd"><path d="M 2130,2914 L 2130,2924 L 2133,2930 L 2138,2932 L 2155,2932 L 2164,2928 L 2166,2927 L 2169,2927 L 2171,2927 L 2173,2927 L 2176,2928 L 2178,2930 L 2179,2932 L 2180,2934 L 2181,2937 L 2181,2939 L 2180,2941 L 2180,2944 L 2178,2946 L 2176,2948 L 2174,2949 L 2163,2955 L 2160,2956 L 2135,2956 L 2132,2955 L 2119,2949 L 2116,2947 L 2114,2944 L 2108,2932 L 2107,2931 L 2107,2927 L 2107,2880 L 2108,2877 L 2114,2866 L 2116,2863 L 2119,2860 L 2130,2855 L 2132,2854 L 2135,2853 L 2160,2854 L 2163,2855 L 2174,2860 L 2177,2863 L 2180,2866 L 2185,2877 L 2186,2880 L 2187,2893 L 2186,2896 L 2186,2898 L 2185,2900 L 2183,2902 L 2181,2903 L 2179,2904 L 2177,2905 L 2130,2914M 2130,2890 L 2162,2884 L 2160,2880 L 2155,2877 L 2138,2877 L 2133,2880 L 2130,2885 L 2130,2890 z " style="fill-opacity:1.000000;fill:rgb(90,37,93);stroke:rgb(0,0,0);stroke-width:2"/></g>
<g fill-rule="evenodd"><path d="M 2238,2932 L 2276,2932 L 2278,2932 L 2281,2933 L 2283,2934 L 2285,2936 L 2286,2938 L 2287,2940 L 2288,2943 L 2288,2945 L 2287,2948 L 2286,2950 L 2285,2952 L 2283,2954 L 2281,2955 L 2278,2956 L 2276,2956 L 2214,2956 L 2212,2956 L 2209,2955 L 2207,2954 L 2206,2952 L 2204,2950 L 2203,2948 L 2202,2946 L 2202,2943 L 2203,2941 L 2204,2939 L 2205,2937 L 2252,2877 L 2214,2877 L 2212,2877 L 2209,2876 L 2207,2875 L 2205,2873 L 2204,2871 L 2203,2869 L 2202,2866 L 2202,2864 L 2203,2862 L 2204,2859 L 2205,2857 L 2207,2856 L 2209,2854 L 2212,2854 L 2214,2853 L 2276,2853 L 2278,2854 L 2281,2854 L 2283,2856 L 2285,2857 L 2286,2859 L 2287,2861 L 2288,2863 L 2288,2866 L 2287,2868 L 2287,2871 L 2285,2873 L 2238,2932 z " style="fill-opacity:1.000000;fill:rgb(5,23,88);stroke:rgb(0,0,0);stroke-width:2"/></g>
<g fill-rule="evenodd"><path d="M 1056,2891 L 1056,2944 L 1056,2946 L 1055,2949 L 1054,2951 L 1052,2953 L 1050,2954 L 1048,2955 L 1046,2956 L 1043,2956 L 1041,2955 L 1039,2954 L 1037,2953 L 1035,2951 L 1034,2949 L 1033,2946 L 1033,2944 L 1033,2865 L 1033,2863 L 1034,2860 L 1035,2858 L 1037,2856 L 1039,2855 L 1041,2854 L 1043,2853 L 1046,2853 L 1048,2854 L 1050,2855 L 1052,2856 L 1054,2858 L 1062,2855 L 1065,2854 L 1078,2853 L 1081,2854 L 1083,2854 L 1085,2856 L 1087,2857 L 1088,2859 L 1089,2862 L 1090,2864 L 1090,2866 L 1089,2869 L 1088,2871 L 1087,2873 L 1085,2875 L 1083,2876 L 1081,2877 L 1078,2877 L 1070,2877 L 1063,2881 L 1060,2883 L 1056,2891 z " style="fill-opacity:1.000000;fill:rgb(233,94,212);stroke:rgb(0,0,0);stroke-width:2"/></g>
<g fill-rule="evenodd"><path d="M 763,2898 L 790,2937 L 791,2939 L 792,2942 L 792,2944 L 792,2947 L 791,2949 L 790,2951 L 788,2953 L 786,2954 L 784,2955 L 781,2956 L 779,2956 L 776,2955 L 774,2954 L 772,2953 L 770,2951 L 735,2900 L 724,2900 L 724,2944 L 724,2946 L 723,2949 L 722,2951 L 721,2953 L 719,2954 L 716,2955 L 714,2956 L 711,2956 L 709,2955 L 707,2954 L 705,2953 L 703,2951 L 702,2949 L 701,2946 L 701,2944 L 701,2826 L 701,2824 L 702,2821 L 703,2819 L 704,2818 L 706,2816 L 708,2815 L 710,2814 L 713,2814 L 759,2814 L 763,2815 L 776,2822 L 784,2830 L 791,2843 L 792,2847 L 792,2865 L 791,2869 L 785,2882 L 783,2885 L 776,2892 L 763,2898M 724,2876 L 755,2876 L 762,2872 L 765,2869 L 768,2862 L 768,2851 L 765,2844 L 762,2841 L 755,2838 L 724,2838 L 724,2876 z " style="fill-opacity:1.000000;fill:rgb(171,178,205);stroke:rgb(0,0,0);stroke-width:2"/></g>
<g fill-rule="evenodd"><path d="M 448,2885 L 445,2880 L 440,2877 L 423,2877 L 414,2881 L 412,2882 L 410,2883 L 407,2883 L 405,2882 L 403,2881 L 401,2879 L 399,2877 L 398,2875 L 397,2873 L 397,2870 L 398,2868 L 399,2865 L 400,2863 L 402,2862 L 404,2860 L 415,2855 L 418,2854 L 445,2854 L 448,2855 L 459,2860 L 462,2863 L 465,2866 L 470,2877 L 471,2879 L 471,2882 L 471,2944 L 471,2946 L 470,2949 L 469,2951 L 468,2953 L 466,2954 L 463,2955 L 461,2956 L 458,2956 L 456,2955 L 454,2954 L 452,2955 L 448,2956 L 420,2956 L 417,2955 L 415,2955 L 402,2948 L 399,2945 L 398,2944 L 393,2932 L 392,2931 L 392,2927 L 392,2916 L 392,2912 L 399,2898 L 401,2896 L 404,2894 L 417,2888 L 420,2887 L 446,2887 L 448,2886 L 448,2885M 448,2911 L 423,2911 L 418,2913 L 415,2919 L 415,2924 L 418,2930 L 423,2932 L 446,2932 L 448,2931 L 448,2911 z " style="fill-opacity:1.000000;fill:rgb(198,155,180);stroke:rgb(0,0,0);stroke-width:2"/></g>
<g fill-rule="evenodd"><path d="M 528,2881 L 528,2944 L 527,2946 L 527,2949 L 525,2951 L 524,2953 L 522,2954 L 520,2955 L 517,2956 L 515,2956 L 512,2955 L 510,2954 L 508,2953 L 506,2951 L 505,2949 L 504,2946 L 504,2944 L 504,2865 L 504,2863 L 505,2860 L 506,2858 L 508,2856 L 510,2855 L 512,2854 L 515,2853 L 517,2853 L 520,2854 L 522,2855 L 524,2856 L 527,2855 L 531,2854 L 550,2853 L 553,2854 L 555,2855 L 566,2860 L 569,2863 L 571,2866 L 577,2877 L 578,2880 L 578,2944 L 578,2946 L 577,2949 L 576,2951 L 574,2953 L 572,2954 L 570,2955 L 568,2956 L 565,2956 L 563,2955 L 561,2954 L 559,2953 L 557,2951 L 556,2949 L 555,2946 L 555,2944 L 555,2885 L 552,2880 L 547,2877 L 536,2877 L 528,2881 L 528,2881 z " style="fill-opacity:1.000000;fill:rgb(84,17,14);stroke:rgb(0,0,0);stroke-width:2"/></g>
<g fill-rule="evenodd"><path d="M 976,2853 L 976,2826 L 977,2823 L 977,2821 L 979,2819 L 980,2817 L 982,2816 L 985,2815 L 987,2814 L 989,2814 L 992,2815 L 994,2816 L 996,2817 L 998,2819 L 999,2821 L 1000,2823 L 1000,2826 L 1000,2944 L 1000,2946 L 999,2949 L 998,2951 L 996,2953 L 994,2954 L 992,2955 L 989,2956 L 987,2956 L 985,2955 L 983,2954 L 981,2955 L 977,2956 L 954,2956 L 951,2955 L 938,2949 L 935,2947 L 928,2940 L 921,2927 L 921,2925 L 920,2921 L 920,2888 L 921,2884 L 928,2870 L 935,2863 L 938,2860 L 949,2855 L 953,2854 L 976,2853M 976,2931 L 976,2878 L 974,2877 L 957,2877 L 950,2881 L 947,2883 L 944,2891 L 944,2919 L 947,2926 L 950,2929 L 957,2932 L 974,2932 L 976,2931 z " style="fill-opacity:1.000000;fill:rgb(130,116,65);stroke:rgb(0,0,0);stroke-width:2"/></g>
<g fill-rule="evenodd"><path d="M 1922,2881 L 1922,2944 L 1922,2946 L 1921,2949 L 1920,2951 L 1918,2953 L 1916,2954 L 1914,2955 L 1912,2956 L 1909,2956 L 1907,2955 L 1905,2954 L 1903,2953 L 1901,2951 L 1900,2949 L 1899,2946 L 1899,2944 L 1899,2865 L 1899,2863 L 1900,2860 L 1901,2858 L 1903,2856 L 1905,2855 L 1907,2854 L 1909,2853 L 1912,2853 L 1914,2854 L 1916,2855 L 1918,2856 L 1922,2855 L 1925,2854 L 1944,2853 L 1948,2854 L 1949,2855 L 1961,2860 L 1964,2863 L 1966,2866 L 1972,2877 L 1973,2880 L 1973,2944 L 1973,2946 L 1972,2949 L 1971,2951 L 1969,2953 L 1967,2954 L 1965,2955 L 1962,2956 L 1960,2956 L 1957,2955 L 1955,2954 L 1953,2953 L 1951,2951 L 1950,2949 L 1949,2946 L 1949,2944 L 1949,2885 L 1947,2880 L 1941,2877 L 1930,2877 L 1923,2881 L 1922,2881 z " style="fill-opacity:1.000000;fill:rgb(33,61,220);stroke:rgb(0,0,0);stroke-width:2"/></g>
<g fill-rule="evenodd"><path d="M 2056,2853 L 2056,2826 L 2056,2823 L 2057,2821 L 2058,2819 L 2060,2817 L 2062,2816 L 2064,2815 L 2067,2814 L 2069,2814 L 2072,2815 L 2074,2816 L 2076,2817 L 2077,2819 L 2079,2821 L 2079,2823 L 2080,2826 L 2080,2944 L 2079,2946 L 2079,2949 L 2077,2951 L 2076,2953 L 2074,2954 L 2072,2955 L 2069,2956 L 2067,2956 L 2064,2955 L 2062,2954 L 2060,2955 L 2057,2956 L 2034,2956 L 2031,2955 L 2018,2949 L 2015,2947 L 2008,2940 L 2001,2927 L 2000,2925 L 2000,2921 L 2000,2888 L 2000,2884 L 2008,2870 L 2015,2863 L 2018,2860 L 2029,2855 L 2032,2854 L 2056,2853M 2056,2931 L 2056,2878 L 2054,2877 L 2037,2877 L 2030,2881 L 2027,2883 L 2023,2891 L 2023,2919 L 2027,2926 L 2030,2929 L 2037,2932 L 2054,2932 L 2056,2931 z " style="fill-opacity:1.000000;fill:rgb(135,112,233);stroke:rgb(0,0,0);stroke-width:2"/></g>
<g fill-rule="evenodd"><path d="M 847,2956 L 845,2956 L 843,2955 L 831,2949 L 828,2947 L 821,2940 L 815,2927 L 814,2925 L 813,2921 L 813,2886 L 815,2882 L 821,2870 L 829,2861 L 842,2855 L 846,2854 L 866,2854 L 870,2855 L 881,2860 L 884,2863 L 891,2870 L 898,2882 L 899,2886 L 899,2888 L 899,2923 L 898,2927 L 891,2940 L 883,2948 L 870,2955 L 866,2956 L 847,2956M 875,2919 L 875,2891 L 872,2883 L 869,2881 L 862,2877 L 850,2877 L 843,2881 L 840,2883 L 837,2891 L 837,2919 L 840,2926 L 843,2929 L 850,2932 L 862,2932 L 869,2929 L 872,2926 L 875,2919 z " style="fill-opacity:1.000000;fill:rgb(62,161,65);stroke:rgb(0,0,0);stroke-width:2"/></g>
<g fill-rule="evenodd"><path d="M 3498,2903 L 3526,2842 L 3528,2840 L 3529,2838 L 3531,2837 L 3534,2836 L 3536,2835 L 3538,2835 L 3541,2836 L 3543,2837 L 3545,2838 L 3547,2840 L 3548,2842 L 3549,2845 L 3549,2847 L 3549,2965 L 3549,2968 L 3548,2970 L 3547,2972 L 3545,2974 L 3543,2975 L 3541,2976 L 3538,2977 L 3536,2977 L 3533,2976 L 3531,2975 L 3529,2974 L 3528,2972 L 3526,2970 L 3526,2968 L 3525,2965 L 3525,2900 L 3508,2936 L 3507,2938 L 3506,2940 L 3504,2942 L 3501,2943 L 3499,2943 L 3497,2943 L 3494,2943 L 3492,2942 L 3490,2940 L 3488,2938 L 3487,2936 L 3470,2900 L 3470,2965 L 3470,2968 L 3469,2970 L 3468,2972 L 3466,2974 L 3464,2975 L 3462,2976 L 3460,2977 L 3457,2977 L 3455,2976 L 3453,2975 L 3451,2974 L 3449,2972 L 3448,2970 L 3447,2968 L 3447,2965 L 3447,2847 L 3447,2845 L 3448,2842 L 3449,2840 L 3450,2838 L 3452,2837 L 3455,2836 L 3457,2835 L 3460,2835 L 3462,2836 L 3464,2837 L 3466,2838 L 3468,2840 L 3469,2842 L 3498,2903 z " style="fill-opacity:1.000000;fill:rgb(225,252,103);stroke:rgb(0,0,0);stroke-width:2"/></g>
<g fill-rule="evenodd"><path d="M 4511,2903 L 4511,2965 L 4510,2968 L 4510,2970 L 4508,2972 L 4507,2974 L 4505,2975 L 4502,2976 L 4500,2977 L 4497,2977 L 4495,2976 L 4493,2975 L 4491,2974 L 4489,2972 L 4488,2970 L 4487,2968 L 4487,2965 L 4487,2886 L 4487,2884 L 4488,2882 L 4489,2879 L 4491,2878 L 4493,2876 L 4495,2875 L 4497,2875 L 4500,2875 L 4502,2875 L 4505,2876 L 4507,2878 L 4510,2876 L 4514,2875 L 4532,2875 L 4536,2875 L 4538,2876 L 4549,2881 L 4552,2884 L 4554,2887 L 4560,2898 L 4561,2901 L 4561,2965 L 4561,2968 L 4560,2970 L 4559,2972 L 4557,2974 L 4555,2975 L 4553,2976 L 4551,2977 L 4548,2977 L 4546,2976 L 4543,2975 L 4541,2974 L 4540,2972 L 4539,2970 L 4538,2968 L 4538,2965 L 4538,2906 L 4535,2901 L 4530,2898 L 4518,2898 L 4511,2902 L 4511,2903 z " style="fill-opacity:1.000000;fill:rgb(62,1,126);stroke:rgb(0,0,0);stroke-width:2"/></g>
<g fill-rule="evenodd"><path d="M 5280,2923 L 5303,2874 L 5304,2872 L 5306,2870 L 5308,2869 L 5310,2868 L 5313,2867 L 5315,2868 L 5318,2868 L 5320,2869 L 5322,2871 L 5323,2873 L 5324,2875 L 5325,2877 L 5325,2880 L 5325,2882 L 5324,2884 L 5286,2963 L 5285,2965 L 5283,2967 L 5281,2968 L 5279,2969 L 5277,2970 L 5274,2970 L 5272,2969 L 5270,2968 L 5268,2967 L 5266,2965 L 5265,2963 L 5264,2961 L 5246,2882 L 5245,2879 L 5246,2877 L 5246,2875 L 5248,2872 L 5249,2871 L 5251,2869 L 5253,2868 L 5256,2868 L 5258,2867 L 5261,2868 L 5263,2869 L 5265,2870 L 5267,2872 L 5268,2874 L 5269,2877 L 5280,2923 z " style="fill-opacity:1.000000;fill:rgb(151,234,220);stroke:rgb(0,0,0);stroke-width:2"/></g>
<g fill-rule="evenodd"><path d="M 3846,2949 L 3846,2886 L 3846,2884 L 3847,2882 L 3848,2879 L 3850,2878 L 3852,2876 L 3854,2875 L 3856,2875 L 3859,2875 L 3861,2875 L 3864,2876 L 3866,2878 L 3867,2879 L 3868,2882 L 3869,2884 L 3869,2886 L 3869,2965 L 3869,2968 L 3868,2970 L 3867,2972 L 3866,2974 L 3864,2975 L 3861,2976 L 3859,2977 L 3856,2977 L 3854,2976 L 3852,2975 L 3850,2974 L 3846,2976 L 3843,2977 L 3824,2977 L 3820,2976 L 3819,2976 L 3807,2970 L 3804,2968 L 3802,2965 L 3796,2954 L 3795,2950 L 3795,2886 L 3796,2884 L 3796,2882 L 3798,2879 L 3799,2878 L 3801,2876 L 3803,2875 L 3806,2875 L 3808,2875 L 3811,2875 L 3813,2876 L 3815,2878 L 3817,2879 L 3818,2882 L 3819,2884 L 3819,2886 L 3819,2945 L 3821,2951 L 3827,2953 L 3838,2953 L 3845,2950 L 3846,2949 z " style="fill-opacity:1.000000;fill:rgb(107,150,143);stroke:rgb(0,0,0);stroke-width:2"/></g>
<g fill-rule="evenodd"><path d="M 3926,2945 L 3928,2951 L 3936,2955 L 3938,2956 L 3940,2958 L 3941,2960 L 3942,2962 L 3943,2964 L 3942,2967 L 3942,2969 L 3941,2972 L 3939,2973 L 3937,2975 L 3935,2976 L 3933,2977 L 3930,2977 L 3928,2977 L 3925,2976 L 3914,2970 L 3911,2968 L 3909,2965 L 3903,2954 L 3902,2950 L 3902,2847 L 3902,2845 L 3903,2842 L 3904,2840 L 3906,2838 L 3908,2837 L 3910,2836 L 3913,2835 L 3915,2835 L 3918,2836 L 3920,2837 L 3922,2838 L 3923,2840 L 3925,2842 L 3925,2845 L 3926,2847 L 3926,2945 z " style="fill-opacity:1.000000;fill:rgb(56,92,42);stroke:rgb(0,0,0);stroke-width:2"/></g>
<g fill-rule="evenodd"><path d="M 4184,2921 L 4184,2965 L 4184,2968 L 4183,2970 L 4182,2972 L 4180,2974 L 4178,2975 L 4176,2976 L 4174,2977 L 4171,2977 L 4169,2976 L 4167,2975 L 4165,2974 L 4163,2972 L 4162,2970 L 4161,2968 L 4161,2965 L 4161,2847 L 4161,2845 L 4162,2843 L 4163,2841 L 4164,2839 L 4166,2837 L 4168,2836 L 4170,2835 L 4173,2835 L 4218,2835 L 4221,2836 L 4223,2837 L 4236,2843 L 4244,2851 L 4251,2864 L 4252,2868 L 4252,2888 L 4251,2892 L 4244,2905 L 4236,2913 L 4221,2920 L 4218,2921 L 4184,2921M 4184,2897 L 4215,2897 L 4222,2894 L 4225,2891 L 4228,2884 L 4228,2872 L 4225,2865 L 4222,2862 L 4215,2859 L 4184,2859 L 4184,2897 z " style="fill-opacity:1.000000;fill:rgb(236,176,59);stroke:rgb(0,0,0);stroke-width:2"/></g>
<g fill-rule="evenodd"><path d="M 4329,2949 L 4329,2886 L 4330,2884 L 4330,2882 L 4332,2879 L 4333,2878 L 4335,2876 L 4338,2875 L 4340,2875 L 4342,2875 L 4345,2875 L 4347,2876 L 4349,2878 L 4351,2879 L 4352,2882 L 4353,2884 L 4353,2886 L 4353,2965 L 4353,2968 L 4352,2970 L 4351,2972 L 4349,2974 L 4347,2975 L 4345,2976 L 4342,2977 L 4340,2977 L 4338,2976 L 4335,2975 L 4333,2974 L 4330,2976 L 4326,2977 L 4308,2977 L 4304,2976 L 4302,2976 L 4291,2970 L 4288,2968 L 4286,2965 L 4280,2954 L 4279,2950 L 4279,2886 L 4279,2884 L 4280,2882 L 4281,2879 L 4283,2878 L 4285,2876 L 4287,2875 L 4289,2875 L 4292,2875 L 4294,2875 L 4297,2876 L 4299,2878 L 4300,2879 L 4301,2882 L 4302,2884 L 4302,2886 L 4302,2945 L 4305,2951 L 4310,2953 L 4322,2953 L 4329,2950 L 4329,2949 z " style="fill-opacity:1.000000;fill:rgb(251,50,175);stroke:rgb(0,0,0);stroke-width:2"/></g>
<g fill-rule="evenodd"><path d="M 5095,2913 L 5117,2952 L 5118,2954 L 5119,2957 L 5119,2959 L 5118,2962 L 5117,2964 L 5116,2966 L 5114,2968 L 5112,2969 L 5109,2970 L 5107,2970 L 5104,2969 L 5102,2969 L 5100,2967 L 5098,2966 L 5097,2964 L 5068,2914 L 5057,2914 L 5051,2959 L 5051,2962 L 5050,2964 L 5048,2966 L 5046,2968 L 5044,2969 L 5042,2970 L 5039,2970 L 5037,2969 L 5034,2969 L 5032,2967 L 5030,2966 L 5029,2964 L 5028,2961 L 5028,2959 L 5028,2956 L 5042,2838 L 5043,2836 L 5044,2834 L 5045,2832 L 5047,2830 L 5049,2829 L 5052,2828 L 5054,2828 L 5101,2828 L 5105,2829 L 5117,2836 L 5125,2845 L 5130,2858 L 5131,2862 L 5128,2881 L 5128,2884 L 5119,2898 L 5111,2905 L 5108,2907 L 5095,2913M 5075,2890 L 5089,2890 L 5097,2886 L 5101,2883 L 5105,2875 L 5107,2864 L 5104,2857 L 5102,2855 L 5096,2852 L 5065,2852 L 5060,2890 L 5075,2890 z " style="fill-opacity:1.000000;fill:rgb(60,84,236);stroke:rgb(0,0,0);stroke-width:2"/></g>
<g fill-rule="evenodd"><path d="M 5145,2917 L 5148,2895 L 5149,2891 L 5157,2879 L 5158,2877 L 5160,2875 L 5162,2874 L 5174,2869 L 5177,2868 L 5201,2867 L 5205,2868 L 5207,2869 L 5217,2874 L 5219,2876 L 5222,2879 L 5227,2892 L 5228,2896 L 5226,2909 L 5226,2911 L 5225,2913 L 5223,2915 L 5221,2917 L 5219,2918 L 5217,2919 L 5167,2929 L 5166,2940 L 5168,2944 L 5172,2946 L 5189,2946 L 5198,2942 L 5200,2941 L 5203,2941 L 5205,2941 L 5208,2941 L 5210,2943 L 5212,2944 L 5213,2946 L 5214,2948 L 5215,2951 L 5215,2953 L 5214,2956 L 5214,2958 L 5212,2960 L 5210,2962 L 5208,2963 L 5196,2969 L 5193,2970 L 5169,2970 L 5167,2970 L 5163,2968 L 5151,2962 L 5149,2960 L 5147,2956 L 5142,2943 L 5142,2940 L 5145,2917M 5171,2904 L 5204,2897 L 5202,2893 L 5198,2891 L 5181,2891 L 5175,2894 L 5171,2900 L 5171,2904 z " style="fill-opacity:1.000000;fill:rgb(24,219,92);stroke:rgb(0,0,0);stroke-width:2"/></g>
<g fill-rule="evenodd"><path d="M 5456,2946 L 5465,2875 L 5462,2878 L 5461,2879 L 5449,2884 L 5446,2885 L 5444,2885 L 5441,2885 L 5439,2884 L 5437,2883 L 5435,2882 L 5433,2880 L 5432,2877 L 5432,2875 L 5432,2873 L 5432,2870 L 5433,2868 L 5435,2866 L 5436,2864 L 5439,2863 L 5449,2858 L 5460,2849 L 5472,2833 L 5474,2831 L 5476,2830 L 5478,2829 L 5480,2828 L 5483,2828 L 5485,2829 L 5487,2829 L 5489,2831 L 5491,2832 L 5492,2834 L 5493,2837 L 5493,2839 L 5493,2841 L 5480,2946 L 5501,2946 L 5503,2946 L 5505,2947 L 5507,2948 L 5509,2950 L 5511,2952 L 5512,2954 L 5512,2957 L 5512,2959 L 5512,2962 L 5511,2964 L 5509,2966 L 5507,2968 L 5505,2969 L 5503,2970 L 5501,2970 L 5433,2970 L 5431,2970 L 5428,2969 L 5426,2968 L 5424,2966 L 5423,2964 L 5422,2962 L 5421,2959 L 5421,2957 L 5422,2954 L 5423,2952 L 5424,2950 L 5426,2948 L 5428,2947 L 5431,2946 L 5433,2946 L 5456,2946 z " style="fill-opacity:1.000000;fill:rgb(2,26,254);stroke:rgb(0,0,0);stroke-width:2"/></g>
<g fill-rule="evenodd"><path d="M 4617,2945 L 4620,2951 L 4625,2953 L 4636,2954 L 4638,2954 L 4641,2956 L 4642,2957 L 4644,2959 L 4645,2962 L 4645,2964 L 4645,2966 L 4645,2969 L 4644,2971 L 4642,2973 L 4641,2975 L 4638,2976 L 4636,2977 L 4634,2977 L 4621,2977 L 4617,2976 L 4606,2970 L 4604,2969 L 4602,2966 L 4595,2954 L 4594,2950 L 4594,2898 L 4589,2898 L 4586,2898 L 4584,2897 L 4582,2896 L 4580,2894 L 4578,2892 L 4577,2890 L 4577,2888 L 4577,2885 L 4577,2883 L 4578,2881 L 4580,2879 L 4582,2877 L 4584,2876 L 4586,2875 L 4594,2875 L 4594,2847 L 4594,2845 L 4595,2842 L 4596,2840 L 4598,2838 L 4600,2837 L 4602,2836 L 4604,2835 L 4607,2835 L 4609,2836 L 4611,2837 L 4613,2838 L 4615,2840 L 4616,2842 L 4617,2845 L 4617,2847 L 4617,2875 L 4634,2875 L 4636,2875 L 4638,2876 L 4641,2877 L 4642,2879 L 4644,2881 L 4645,2883 L 4645,2885 L 4645,2888 L 4645,2890 L 4644,2892 L 4642,2894 L 4641,2896 L 4638,2897 L 4636,2898 L 4634,2898 L 4617,2898 L 4617,2945 z " style="fill-opacity:1.000000;fill:rgb(67,251,250);stroke:rgb(0,0,0);stroke-width:2"/></g>
<g fill-rule="evenodd"><path d="M 3739,2875 L 3739,2847 L 3739,2845 L 3740,2842 L 3741,2840 L 3743,2838 L 3745,2837 L 3747,2836 L 3750,2835 L 3752,2835 L 3754,2836 L 3757,2837 L 3759,2838 L 3760,2840 L 3762,2842 L 3762,2845 L 3763,2847 L 3763,2965 L 3762,2968 L 3762,2970 L 3760,2972 L 3759,2974 L 3757,2975 L 3754,2976 L 3752,2977 L 3750,2977 L 3747,2976 L 3745,2976 L 3743,2976 L 3740,2977 L 3717,2977 L 3713,2976 L 3701,2970 L 3697,2968 L 3691,2961 L 3684,2948 L 3683,2946 L 3683,2943 L 3683,2909 L 3683,2905 L 3691,2891 L 3697,2884 L 3701,2881 L 3712,2876 L 3715,2875 L 3739,2875M 3739,2899 L 3737,2898 L 3720,2898 L 3713,2902 L 3710,2905 L 3706,2912 L 3706,2940 L 3710,2947 L 3713,2950 L 3720,2953 L 3737,2953 L 3739,2952 L 3739,2899 z " style="fill-opacity:1.000000;fill:rgb(170,58,251);stroke:rgb(0,0,0);stroke-width:2"/></g>
<g fill-rule="evenodd"><path d="M 3610,2977 L 3608,2977 L 3605,2976 L 3594,2970 L 3591,2968 L 3584,2961 L 3577,2948 L 3577,2946 L 3576,2943 L 3576,2907 L 3577,2904 L 3584,2891 L 3592,2882 L 3605,2876 L 3608,2875 L 3629,2875 L 3632,2876 L 3644,2881 L 3647,2884 L 3654,2891 L 3660,2904 L 3661,2905 L 3661,2909 L 3661,2944 L 3660,2948 L 3654,2961 L 3645,2969 L 3632,2976 L 3629,2977 L 3610,2977M 3631,2902 L 3624,2898 L 3613,2898 L 3606,2902 L 3603,2905 L 3600,2912 L 3600,2940 L 3603,2947 L 3606,2950 L 3613,2953 L 3624,2953 L 3631,2950 L 3634,2947 L 3638,2940 L 3638,2912 L 3634,2905 L 3631,2902 z " style="fill-opacity:1.000000;fill:rgb(41,209,230);stroke:rgb(0,0,0);stroke-width:2"/></g>
<g fill-rule="evenodd"><path d="M 3992,2977 L 3990,2977 L 3988,2976 L 3976,2970 L 3973,2968 L 3966,2961 L 3960,2948 L 3959,2946 L 3958,2943 L 3958,2907 L 3960,2904 L 3966,2891 L 3974,2882 L 3987,2876 L 3991,2875 L 4011,2875 L 4015,2876 L 4026,2881 L 4029,2884 L 4036,2891 L 4043,2904 L 4043,2905 L 4044,2909 L 4044,2944 L 4043,2948 L 4036,2961 L 4028,2969 L 4015,2976 L 4011,2977 L 3992,2977M 3988,2902 L 3985,2905 L 3982,2912 L 3982,2940 L 3985,2947 L 3988,2950 L 3995,2953 L 4007,2953 L 4014,2950 L 4017,2947 L 4020,2940 L 4020,2912 L 4017,2905 L 4014,2902 L 4007,2898 L 3995,2898 L 3988,2902 z " style="fill-opacity:1.000000;fill:rgb(5,60,124);stroke:rgb(0,0,0);stroke-width:2"/></g>
<g fill-rule="evenodd"><path d="M 4406,2951 L 4412,2953 L 4428,2953 L 4437,2949 L 4440,2948 L 4442,2948 L 4444,2948 L 4447,2949 L 4449,2950 L 4451,2951 L 4452,2953 L 4454,2955 L 4454,2958 L 4454,2960 L 4454,2963 L 4453,2965 L 4452,2967 L 4450,2969 L 4448,2970 L 4435,2976 L 4431,2977 L 4407,2977 L 4403,2976 L 4392,2970 L 4389,2968 L 4387,2965 L 4381,2954 L 4380,2950 L 4380,2901 L 4381,2898 L 4388,2885 L 4389,2884 L 4392,2881 L 4403,2876 L 4407,2875 L 4431,2875 L 4435,2875 L 4449,2882 L 4452,2885 L 4453,2887 L 4459,2898 L 4460,2901 L 4460,2915 L 4460,2917 L 4459,2919 L 4458,2921 L 4456,2923 L 4455,2924 L 4453,2925 L 4450,2926 L 4404,2935 L 4404,2945 L 4406,2951M 4434,2901 L 4428,2898 L 4412,2898 L 4406,2901 L 4404,2906 L 4404,2911 L 4436,2905 L 4434,2901 z " style="fill-opacity:1.000000;fill:rgb(148,117,216);stroke:rgb(0,0,0);stroke-width:2"/></g>
<g fill-rule="evenodd"><path d="M 4682,2951 L 4687,2953 L 4704,2953 L 4713,2949 L 4715,2948 L 4717,2948 L 4720,2948 L 4722,2949 L 4725,2950 L 4726,2951 L 4728,2953 L 4729,2955 L 4730,2958 L 4730,2960 L 4729,2963 L 4728,2965 L 4727,2967 L 4725,2969 L 4723,2970 L 4710,2976 L 4707,2977 L 4682,2977 L 4679,2976 L 4668,2970 L 4665,2968 L 4662,2965 L 4657,2954 L 4656,2950 L 4656,2901 L 4657,2898 L 4663,2885 L 4665,2884 L 4668,2881 L 4679,2876 L 4682,2875 L 4707,2875 L 4710,2875 L 4725,2882 L 4728,2885 L 4729,2887 L 4734,2898 L 4735,2901 L 4735,2915 L 4735,2917 L 4735,2919 L 4733,2921 L 4732,2923 L 4730,2924 L 4728,2925 L 4726,2926 L 4679,2935 L 4679,2945 L 4682,2951M 4709,2901 L 4704,2898 L 4687,2898 L 4682,2901 L 4679,2906 L 4679,2911 L 4711,2905 L 4709,2901 z " style="fill-opacity:1.000000;fill:rgb(190,97,137);stroke:rgb(0,0,0);stroke-width:2"/></g>
<g fill-rule="evenodd"><path d="M 5558,2967 L 5556,2969 L 5553,2970 L 5548,2969 L 5546,2969 L 5544,2967 L 5542,2966 L 5537,2960 L 5536,2958 L 5535,2956 L 5534,2954 L 5534,2952 L 5535,2949 L 5536,2947 L 5537,2945 L 5545,2938 L 5547,2936 L 5549,2936 L 5553,2935 L 5555,2935 L 5557,2936 L 5560,2937 L 5566,2945 L 5568,2946 L 5569,2949 L 5569,2951 L 5569,2953 L 5569,2955 L 5568,2958 L 5567,2959 L 5565,2961 L 5558,2967 z " style="fill-opacity:1.000000;fill:rgb(249,92,187);stroke:rgb(0,0,0);stroke-width:2"/></g>
<g fill-rule="evenodd"><path d="M 5644,2828 L 5656,2828 L 5660,2829 L 5674,2836 L 5680,2843 L 5682,2847 L 5687,2860 L 5690,2883 L 5690,2886 L 5687,2914 L 5686,2917 L 5677,2940 L 5676,2942 L 5668,2954 L 5660,2962 L 5644,2969 L 5641,2970 L 5628,2970 L 5624,2968 L 5612,2962 L 5604,2953 L 5599,2938 L 5596,2914 L 5596,2912 L 5599,2882 L 5608,2858 L 5609,2856 L 5617,2843 L 5625,2837 L 5628,2835 L 5640,2829 L 5642,2828 L 5644,2828M 5619,2913 L 5622,2933 L 5625,2941 L 5627,2943 L 5633,2946 L 5638,2946 L 5646,2942 L 5650,2939 L 5656,2930 L 5663,2910 L 5666,2885 L 5664,2865 L 5661,2857 L 5659,2855 L 5653,2852 L 5647,2852 L 5639,2855 L 5635,2859 L 5630,2868 L 5622,2888 L 5619,2913 z " style="fill-opacity:1.000000;fill:rgb(168,153,15);stroke:rgb(0,0,0);stroke-width:2"/></g>
<g fill-rule="evenodd"><path d="M 271,1269 L 271,1254 L 334,1254 L 334,1269 L 271,1269 z " style="fill-opacity:1.000000;fill:rgb(149,177,235);stroke:rgb(0,0,0);stroke-width:2"/></g>
<g fill-rule="evenodd"><path d="M 271,1230 L 271,1214 L 334,1214 L 334,1230 L 271,1230 z " style="fill-opacity:1.000000;fill:rgb(241,179,5);stroke:rgb(0,0,0);stroke-width:2"/></g>
<g fill-rule="evenodd"><path d="M 271,1191 L 271,1175 L 334,1175 L 334,1191 L 271,1191 z " style="fill-opacity:1.000000;fill:rgb(239,247,0);stroke:rgb(0,0,0);stroke-width:2"/></g>
<g fill-rule="evenodd"><path d="M 271,1151 L 271,1136 L 334,1136 L 334,1151 L 271,1151 z " style="fill-opacity:1.000000;fill:rgb(233,161,58);stroke:rgb(0,0,0);stroke-width:2"/></g>
<g fill-rule="evenodd"><path d="M 271,1112 L 271,1096 L 334,1096 L 334,1112 L 271,1112 z " style="fill-opacity:1.000000;fill:rgb(229,202,11);stroke:rgb(0,0,0);stroke-width:2"/></g>
<g fill-rule="evenodd"><path d="M 1834,1113 L 1833,1110 L 1832,1105 L 1833,1100 L 1834,1095 L 1837,1091 L 1840,1087 L 1844,1084 L 1848,1082 L 1853,1081 L 1858,1081 L 1863,1082 L 1867,1084 L 1871,1087 L 1875,1091 L 1877,1095 L 1879,1100 L 1879,1105 L 1879,1110 L 1877,1114 L 1875,1119 L 1871,1122 L 1867,1125 L 1863,1127 L 1858,1128 L 1853,1128 L 1847,1127 L 1312,1662 L 1309,1664 L 1305,1665 L 303,1665 L 301,1665 L 299,1664 L 297,1663 L 271,1663 L 271,1647 L 297,1647 L 299,1646 L 301,1645 L 303,1645 L 1301,1645 L 1834,1113 z " style="fill-opacity:1.000000;fill:rgb(203,208,72);stroke:rgb(0,0,0);stroke-width:2"/></g>
<g fill-rule="evenodd"><path d="M 1633,1214 L 1632,1211 L 1631,1206 L 1632,1201 L 1633,1196 L 1636,1192 L 1639,1189 L 1643,1186 L 1648,1184 L 1652,1183 L 1657,1183 L 1662,1184 L 1667,1186 L 1671,1189 L 1674,1192 L 1676,1196 L 1678,1201 L 1679,1206 L 1678,1211 L 1676,1216 L 1674,1220 L 1671,1224 L 1667,1227 L 1662,1229 L 1657,1230 L 1652,1230 L 1647,1228 L 1252,1623 L 1249,1625 L 1247,1625 L 303,1626 L 301,1625 L 299,1625 L 297,1624 L 271,1624 L 271,1608 L 297,1608 L 299,1607 L 301,1606 L 303,1606 L 1241,1606 L 1633,1214 z " style="fill-opacity:1.000000;fill:rgb(71,100,189);stroke:rgb(0,0,0);stroke-width:2"/></g>
<g fill-rule="evenodd"><path d="M 1661,1552 L 1660,1549 L 1659,1544 L 1660,1539 L 1661,1534 L 1664,1530 L 1667,1526 L 1671,1523 L 1676,1521 L 1680,1520 L 1685,1520 L 1690,1521 L 1695,1523 L 1699,1526 L 1702,1530 L 1704,1534 L 1706,1539 L 1706,1544 L 1706,1549 L 1704,1553 L 1702,1557 L 1699,1561 L 1695,1564 L 1690,1566 L 1685,1567 L 1680,1567 L 1675,1566 L 1460,1780 L 1457,1782 L 1455,1783 L 303,1783 L 301,1783 L 299,1782 L 297,1781 L 271,1781 L 271,1765 L 297,1765 L 299,1764 L 301,1764 L 303,1763 L 1449,1763 L 1661,1552 z " style="fill-opacity:1.000000;fill:rgb(31,35,30);stroke:rgb(0,0,0);stroke-width:2"/></g>
<g fill-rule="evenodd"><path d="M 1378,2098 L 303,2098 L 301,2098 L 299,2097 L 297,2096 L 271,2096 L 271,2080 L 297,2080 L 299,2079 L 301,2078 L 303,2078 L 1378,2078 L 1381,2074 L 1384,2070 L 1388,2067 L 1392,2065 L 1397,2064 L 1402,2064 L 1407,2065 L 1412,2067 L 1416,2070 L 1419,2074 L 1421,2078 L 1423,2083 L 1423,2088 L 1423,2093 L 1421,2097 L 1419,2102 L 1416,2105 L 1412,2108 L 1407,2110 L 1402,2111 L 1397,2111 L 1392,2110 L 1388,2108 L 1384,2105 L 1381,2102 L 1378,2098 z " style="fill-opacity:1.000000;fill:rgb(168,28,123);stroke:rgb(0,0,0);stroke-width:2"/></g>
<g fill-rule="evenodd"><path d="M 297,2214 L 271,2214 L 271,2198 L 297,2198 L 299,2197 L 301,2197 L 303,2196 L 1229,2197 L 1231,2197 L 1234,2199 L 1496,2461 L 4339,2461 L 4818,1982 L 4818,276 L 4624,82 L 4097,82 L 4095,84 L 4092,88 L 4088,91 L 4083,93 L 4078,94 L 4074,94 L 4069,93 L 4064,91 L 4060,88 L 4057,84 L 4054,80 L 4053,75 L 4052,70 L 4053,65 L 4054,61 L 4057,56 L 4060,53 L 4064,50 L 4069,48 L 4074,47 L 4078,47 L 4083,48 L 4088,50 L 4092,53 L 4095,56 L 4098,61 L 4098,62 L 4630,62 L 4632,63 L 4635,65 L 4835,265 L 4837,268 L 4838,272 L 4838,1988 L 4837,1990 L 4835,1993 L 4350,2478 L 4347,2480 L 4343,2480 L 1492,2480 L 1488,2480 L 1485,2478 L 1223,2216 L 303,2216 L 301,2216 L 299,2215 L 297,2214 z " style="fill-opacity:1.000000;fill:rgb(100,197,20);stroke:rgb(0,0,0);stroke-width:2"/></g>
<g fill-rule="evenodd"><path d="M 297,2175 L 271,2175 L 271,2159 L 297,2159 L 299,2158 L 301,2157 L 303,2157 L 1286,2157 L 1288,2158 L 1291,2160 L 1526,2395 L 4303,2395 L 4758,1940 L 4758,298 L 4592,132 L 4013,132 L 4010,136 L 4007,139 L 4003,142 L 3999,144 L 3994,145 L 3989,145 L 3984,144 L 3979,142 L 3975,139 L 3972,136 L 3970,131 L 3968,127 L 3968,122 L 3968,117 L 3970,112 L 3972,108 L 3975,104 L 3979,101 L 3984,99 L 3989,98 L 3994,98 L 3999,99 L 4003,101 L 4007,104 L 4010,108 L 4013,112 L 4598,112 L 4600,113 L 4603,115 L 4775,286 L 4777,290 L 4778,293 L 4778,1946 L 4777,1948 L 4775,1951 L 4314,2412 L 4311,2414 L 4307,2415 L 1522,2415 L 1518,2414 L 1515,2412 L 1280,2177 L 303,2177 L 301,2176 L 299,2176 L 297,2175 z " style="fill-opacity:1.000000;fill:rgb(115,90,197);stroke:rgb(0,0,0);stroke-width:2"/></g>
<g fill-rule="evenodd"><path d="M 297,1978 L 271,1978 L 271,1962 L 297,1962 L 299,1961 L 301,1960 L 303,1960 L 1198,1960 L 1200,1958 L 1199,1955 L 1199,1950 L 1199,1945 L 1201,1940 L 1203,1936 L 1206,1932 L 1210,1929 L 1215,1927 L 1220,1926 L 1225,1926 L 1229,1927 L 1234,1929 L 1238,1932 L 1241,1936 L 1244,1940 L 1245,1945 L 1246,1950 L 1245,1955 L 1244,1960 L 1241,1964 L 1238,1967 L 1234,1970 L 1229,1972 L 1225,1973 L 1220,1973 L 1214,1972 L 1208,1978 L 1206,1979 L 1202,1980 L 303,1980 L 301,1980 L 299,1979 L 297,1978 z " style="fill-opacity:1.000000;fill:rgb(94,75,121);stroke:rgb(0,0,0);stroke-width:2"/></g>
<g fill-rule="evenodd"><path d="M 297,2057 L 271,2057 L 271,2041 L 297,2041 L 299,2040 L 301,2039 L 303,2039 L 1284,2039 L 1304,2019 L 1303,2016 L 1303,2011 L 1303,2006 L 1305,2001 L 1307,1997 L 1310,1993 L 1314,1990 L 1319,1988 L 1324,1987 L 1329,1987 L 1333,1988 L 1338,1990 L 1342,1993 L 1345,1997 L 1348,2001 L 1349,2006 L 1350,2011 L 1349,2016 L 1348,2020 L 1345,2025 L 1342,2028 L 1338,2031 L 1333,2033 L 1329,2034 L 1324,2034 L 1318,2033 L 1295,2056 L 1292,2058 L 1288,2059 L 303,2059 L 301,2058 L 299,2058 L 297,2057 z " style="fill-opacity:1.000000;fill:rgb(99,59,112);stroke:rgb(0,0,0);stroke-width:2"/></g>
<g fill-rule="evenodd"><path d="M 297,1860 L 271,1860 L 271,1844 L 297,1844 L 299,1843 L 301,1842 L 303,1842 L 1044,1842 L 1066,1820 L 1070,1818 L 1073,1817 L 1527,1817 L 1789,1554 L 1789,1440 L 1790,1437 L 1792,1433 L 1853,1373 L 1856,1372 L 1858,1372 L 2168,1372 L 2179,1361 L 2179,1172 L 2136,1147 L 2135,1145 L 2133,1144 L 2132,1142 L 2132,1140 L 2131,1138 L 2131,173 L 2129,172 L 2125,169 L 2122,166 L 2120,161 L 2118,157 L 2118,152 L 2118,147 L 2120,142 L 2122,138 L 2125,134 L 2129,131 L 2134,129 L 2139,128 L 2144,128 L 2148,129 L 2153,131 L 2157,134 L 2160,138 L 2163,142 L 2164,147 L 2165,152 L 2164,157 L 2163,161 L 2160,166 L 2157,169 L 2153,172 L 2151,173 L 2151,1133 L 2194,1158 L 2196,1160 L 2197,1161 L 2198,1163 L 2199,1165 L 2199,1167 L 2199,1365 L 2198,1369 L 2196,1372 L 2179,1389 L 2176,1391 L 2172,1391 L 1862,1391 L 1809,1444 L 1809,1558 L 1808,1562 L 1807,1564 L 1538,1834 L 1535,1836 L 1533,1836 L 1077,1837 L 1055,1859 L 1052,1861 L 1048,1862 L 303,1862 L 301,1862 L 299,1861 L 297,1860 z " style="fill-opacity:1.000000;fill:rgb(100,36,17);stroke:rgb(0,0,0);stroke-width:2"/></g>
<g fill-rule="evenodd"><path d="M 297,1938 L 271,1938 L 271,1923 L 297,1923 L 299,1922 L 301,1921 L 303,1921 L 1101,1921 L 1109,1913 L 1108,1910 L 1107,1905 L 1108,1900 L 1109,1895 L 1112,1891 L 1115,1887 L 1119,1884 L 1124,1882 L 1129,1881 L 1133,1881 L 1138,1882 L 1143,1884 L 1147,1887 L 1150,1891 L 1153,1895 L 1154,1900 L 1155,1905 L 1154,1910 L 1153,1914 L 1150,1919 L 1147,1922 L 1143,1925 L 1138,1927 L 1133,1928 L 1129,1928 L 1123,1927 L 1111,1939 L 1109,1940 L 1105,1940 L 303,1940 L 301,1940 L 299,1940 L 297,1938 z " style="fill-opacity:1.000000;fill:rgb(158,9,220);stroke:rgb(0,0,0);stroke-width:2"/></g>
<g fill-rule="evenodd"><path d="M 297,1702 L 271,1702 L 271,1687 L 297,1687 L 299,1685 L 301,1685 L 303,1685 L 1355,1685 L 1708,1332 L 1711,1330 L 1715,1329 L 2079,1329 L 2094,1286 L 2094,632 L 2012,546 L 2010,543 L 2009,541 L 2009,204 L 2007,203 L 2003,200 L 2000,197 L 1997,192 L 1996,188 L 1995,183 L 1996,178 L 1997,173 L 2000,169 L 2003,165 L 2007,162 L 2012,160 L 2016,159 L 2021,159 L 2026,160 L 2031,162 L 2035,165 L 2038,169 L 2040,173 L 2042,178 L 2042,183 L 2042,188 L 2040,192 L 2038,197 L 2035,200 L 2031,203 L 2029,204 L 2029,535 L 2111,622 L 2113,625 L 2113,629 L 2113,1288 L 2113,1291 L 2095,1342 L 2094,1344 L 2093,1345 L 2092,1347 L 2090,1348 L 2088,1348 L 2086,1349 L 1719,1349 L 1366,1701 L 1363,1704 L 1361,1704 L 303,1704 L 301,1704 L 299,1703 L 297,1702 z " style="fill-opacity:1.000000;fill:rgb(170,212,172);stroke:rgb(0,0,0);stroke-width:2"/></g>
<g fill-rule="evenodd"><path d="M 297,1742 L 271,1742 L 271,1726 L 297,1726 L 299,1725 L 301,1724 L 303,1724 L 1402,1724 L 1408,1718 L 1407,1715 L 1407,1710 L 1407,1705 L 1409,1700 L 1411,1696 L 1414,1692 L 1418,1690 L 1423,1688 L 1428,1686 L 1433,1686 L 1437,1688 L 1442,1690 L 1446,1692 L 1449,1696 L 1452,1700 L 1453,1705 L 1454,1710 L 1453,1715 L 1452,1720 L 1449,1724 L 1446,1728 L 1442,1730 L 1437,1732 L 1433,1733 L 1428,1733 L 1422,1732 L 1412,1742 L 1410,1743 L 1406,1744 L 303,1744 L 301,1743 L 299,1743 L 297,1742 z " style="fill-opacity:1.000000;fill:rgb(242,27,16);stroke:rgb(0,0,0);stroke-width:2"/></g>
<g fill-rule="evenodd"><path d="M 2056,1951 L 2061,1947 L 2061,1713 L 2050,1713 L 1968,1796 L 1969,1799 L 1969,1804 L 1969,1809 L 1967,1814 L 1965,1818 L 1961,1821 L 1957,1824 L 1953,1826 L 1948,1827 L 1943,1827 L 1938,1826 L 1934,1824 L 1930,1821 L 1927,1818 L 1924,1814 L 1923,1809 L 1922,1804 L 1923,1799 L 1924,1794 L 1927,1790 L 1930,1786 L 1934,1783 L 1938,1781 L 1943,1780 L 1948,1780 L 1954,1782 L 2039,1697 L 2042,1694 L 2044,1694 L 2279,1694 L 2497,1476 L 2497,86 L 2475,65 L 2408,65 L 2380,92 L 2380,123 L 2384,126 L 2389,125 L 2394,125 L 2399,126 L 2404,128 L 2408,131 L 2411,134 L 2414,139 L 2415,143 L 2416,148 L 2415,153 L 2414,158 L 2411,162 L 2408,166 L 2404,169 L 2399,171 L 2394,172 L 2389,172 L 2385,171 L 2380,169 L 2376,166 L 2373,162 L 2370,158 L 2369,153 L 2368,148 L 2369,143 L 2370,140 L 2362,132 L 2361,129 L 2361,127 L 2361,88 L 2361,85 L 2363,81 L 2398,46 L 2402,45 L 2404,45 L 2481,45 L 2483,46 L 2486,48 L 2514,75 L 2516,78 L 2517,82 L 2516,1482 L 2516,1484 L 2514,1487 L 2290,1711 L 2287,1713 L 2283,1713 L 2081,1713 L 2081,1891 L 2082,1894 L 2082,1896 L 2082,1898 L 2081,1901 L 2081,1951 L 2110,1951 L 2110,1987 L 1995,1987 L 1995,1951 L 2056,1951 z " style="fill-opacity:1.000000;fill:rgb(175,59,51);stroke:rgb(0,0,0);stroke-width:2"/></g>
<g fill-rule="evenodd"><path d="M 1826,2142 L 1954,2142 L 1954,2195 L 1966,2195 L 2021,2140 L 1995,2140 L 1995,2105 L 2110,2105 L 2110,2140 L 2049,2140 L 1976,2213 L 1974,2214 L 1971,2215 L 1954,2215 L 1954,2268 L 1796,2268 L 1796,2142 L 1806,2142 L 1806,2073 L 1743,2009 L 1737,2011 L 1732,2011 L 1727,2010 L 1723,2008 L 1719,2005 L 1715,2001 L 1713,1997 L 1711,1992 L 1711,1987 L 1711,1982 L 1713,1978 L 1715,1973 L 1719,1970 L 1723,1967 L 1727,1965 L 1732,1964 L 1737,1964 L 1742,1965 L 1746,1967 L 1750,1970 L 1754,1973 L 1756,1978 L 1758,1982 L 1758,1987 L 1758,1992 L 1757,1995 L 1824,2063 L 1825,2065 L 1826,2069 L 1826,2142 z " style="fill-opacity:1.000000;fill:rgb(205,227,80);stroke:rgb(0,0,0);stroke-width:2"/></g>
<g fill-rule="evenodd"><path d="M 1995,2010 L 1995,2003 L 2110,2003 L 2110,2038 L 1995,2038 L 1995,2030 L 1956,2030 L 1952,2029 L 1951,2029 L 1948,2026 L 1868,1926 L 1867,1924 L 1867,1921 L 1867,1647 L 1867,1645 L 1869,1642 L 1953,1558 L 1888,1558 L 1884,1563 L 1880,1566 L 1876,1568 L 1871,1569 L 1866,1569 L 1861,1568 L 1857,1566 L 1853,1563 L 1849,1559 L 1847,1555 L 1845,1550 L 1845,1545 L 1845,1540 L 1847,1536 L 1849,1531 L 1853,1528 L 1857,1525 L 1861,1523 L 1866,1522 L 1871,1522 L 1876,1523 L 1880,1525 L 1884,1528 L 1888,1531 L 1890,1536 L 1891,1539 L 2340,1539 L 2436,1442 L 2436,128 L 2434,127 L 2430,124 L 2427,120 L 2424,116 L 2423,111 L 2422,106 L 2423,101 L 2424,97 L 2427,92 L 2430,89 L 2434,86 L 2439,84 L 2443,83 L 2448,83 L 2453,84 L 2458,86 L 2462,89 L 2465,92 L 2468,97 L 2469,101 L 2470,106 L 2469,111 L 2468,116 L 2465,120 L 2462,124 L 2458,127 L 2456,128 L 2456,1448 L 2455,1450 L 2453,1453 L 2351,1555 L 2348,1557 L 2344,1558 L 1981,1558 L 1886,1653 L 1886,1918 L 1961,2010 L 1995,2010 z " style="fill-opacity:1.000000;fill:rgb(72,71,21);stroke:rgb(0,0,0);stroke-width:2"/></g>
<g fill-rule="evenodd"><path d="M 2677,2062 L 2677,1942 L 2834,1942 L 2834,2076 L 2703,2076 L 2699,2080 L 2697,2081 L 2693,2081 L 2574,2081 L 2574,2089 L 2460,2089 L 2460,2054 L 2574,2054 L 2574,2062 L 2677,2062 z " style="fill-opacity:1.000000;fill:rgb(92,187,111);stroke:rgb(0,0,0);stroke-width:2"/></g>
<g fill-rule="evenodd"><path d="M 2574,2030 L 2574,2038 L 2460,2038 L 2460,2003 L 2574,2003 L 2574,2010 L 2586,2010 L 2608,1988 L 2608,1931 L 2608,1929 L 2610,1925 L 2680,1855 L 2680,1723 L 2838,1723 L 2838,1857 L 2706,1857 L 2628,1935 L 2628,1992 L 2627,1996 L 2626,1998 L 2596,2028 L 2594,2029 L 2590,2030 L 2574,2030 z " style="fill-opacity:1.000000;fill:rgb(34,25,186);stroke:rgb(0,0,0);stroke-width:2"/></g>
<g fill-rule="evenodd"><path d="M 2680,2241 L 2590,2241 L 2586,2241 L 2584,2240 L 2509,2164 L 2507,2160 L 2507,2159 L 2507,2140 L 2460,2140 L 2460,2105 L 2574,2105 L 2574,2140 L 2527,2140 L 2527,2154 L 2594,2222 L 2680,2222 L 2680,2165 L 2838,2165 L 2838,2298 L 2680,2298 L 2680,2241 z " style="fill-opacity:1.000000;fill:rgb(155,125,245);stroke:rgb(0,0,0);stroke-width:2"/></g>
<g fill-rule="evenodd"><path d="M 1302,1389 L 303,1389 L 301,1389 L 299,1389 L 297,1387 L 271,1387 L 271,1372 L 297,1372 L 299,1371 L 301,1370 L 303,1370 L 1307,1370 L 1310,1367 L 1314,1364 L 1318,1362 L 1323,1361 L 1328,1361 L 1333,1362 L 1337,1364 L 1341,1367 L 1344,1371 L 1347,1375 L 1348,1380 L 1349,1384 L 1348,1389 L 1347,1394 L 1344,1398 L 1341,1402 L 1337,1405 L 1333,1407 L 1328,1408 L 1323,1408 L 1318,1407 L 1314,1405 L 1310,1402 L 1306,1398 L 1304,1394 L 1302,1389 z " style="fill-opacity:1.000000;fill:rgb(11,225,26);stroke:rgb(0,0,0);stroke-width:2"/></g>
<g fill-rule="evenodd"><path d="M 1131,1448 L 1130,1443 L 1131,1438 L 1132,1433 L 1135,1429 L 1138,1425 L 1142,1422 L 1146,1420 L 1151,1419 L 1156,1419 L 1161,1420 L 1166,1422 L 1170,1425 L 1173,1429 L 1175,1433 L 1177,1438 L 1177,1443 L 1177,1448 L 1175,1452 L 1173,1457 L 1170,1460 L 1166,1463 L 1161,1465 L 1156,1466 L 1151,1466 L 1146,1465 L 1144,1466 L 1142,1467 L 1138,1468 L 303,1468 L 301,1468 L 299,1467 L 297,1466 L 271,1466 L 271,1450 L 297,1450 L 299,1449 L 301,1449 L 303,1448 L 1131,1448 z " style="fill-opacity:1.000000;fill:rgb(28,127,35);stroke:rgb(0,0,0);stroke-width:2"/></g>
<g fill-rule="evenodd"><path d="M 1029,1507 L 303,1507 L 301,1507 L 299,1507 L 297,1506 L 271,1506 L 271,1490 L 297,1490 L 299,1489 L 301,1488 L 303,1488 L 1033,1488 L 1035,1488 L 1038,1489 L 1042,1494 L 1048,1492 L 1053,1492 L 1058,1493 L 1062,1495 L 1066,1498 L 1070,1502 L 1072,1506 L 1074,1511 L 1074,1516 L 1074,1521 L 1072,1525 L 1070,1529 L 1066,1533 L 1062,1536 L 1058,1538 L 1053,1539 L 1048,1539 L 1043,1538 L 1039,1536 L 1035,1533 L 1031,1529 L 1029,1525 L 1028,1521 L 1027,1516 L 1028,1511 L 1029,1507 z " style="fill-opacity:1.000000;fill:rgb(248,41,248);stroke:rgb(0,0,0);stroke-width:2"/></g>
<g fill-rule="evenodd"><path d="M 297,1545 L 271,1545 L 271,1529 L 297,1529 L 299,1528 L 301,1527 L 303,1527 L 997,1527 L 1001,1528 L 1004,1530 L 1031,1558 L 1224,1558 L 1566,1216 L 1566,498 L 1566,496 L 1568,492 L 1993,67 L 1997,65 L 1999,65 L 2239,65 L 2241,61 L 2244,58 L 2248,55 L 2253,53 L 2257,52 L 2262,52 L 2267,53 L 2272,55 L 2276,58 L 2279,61 L 2282,65 L 2283,70 L 2284,75 L 2283,80 L 2282,85 L 2279,89 L 2276,93 L 2272,96 L 2267,98 L 2262,99 L 2257,99 L 2253,98 L 2248,96 L 2244,93 L 2241,89 L 2239,85 L 2003,85 L 1586,502 L 1586,1220 L 1585,1223 L 1583,1227 L 1234,1576 L 1232,1577 L 1228,1577 L 1025,1577 L 1022,1576 L 1020,1575 L 993,1547 L 303,1547 L 301,1547 L 299,1546 L 297,1545 z " style="fill-opacity:1.000000;fill:rgb(164,27,19);stroke:rgb(0,0,0);stroke-width:2"/></g>
<g fill-rule="evenodd"><path d="M 297,1309 L 271,1309 L 271,1293 L 297,1293 L 299,1292 L 301,1291 L 303,1291 L 479,1291 L 1150,620 L 1150,278 L 1151,276 L 1153,272 L 1293,133 L 1296,131 L 1298,131 L 1704,131 L 1706,132 L 1709,134 L 1767,192 L 1773,191 L 1778,191 L 1783,192 L 1787,194 L 1791,197 L 1795,200 L 1797,205 L 1799,209 L 1799,214 L 1799,219 L 1797,224 L 1795,228 L 1791,232 L 1787,235 L 1783,237 L 1778,238 L 1773,238 L 1768,237 L 1764,235 L 1760,232 L 1757,228 L 1754,224 L 1753,219 L 1752,214 L 1753,209 L 1754,206 L 1698,151 L 1302,151 L 1170,284 L 1170,624 L 1169,628 L 1167,631 L 489,1309 L 487,1310 L 483,1311 L 303,1311 L 301,1310 L 299,1310 L 297,1309 z " style="fill-opacity:1.000000;fill:rgb(181,202,78);stroke:rgb(0,0,0);stroke-width:2"/></g>
<g fill-rule="evenodd"><path d="M 2219,1070 L 2221,1070 L 2225,1073 L 2229,1077 L 2231,1081 L 2233,1086 L 2233,1091 L 2233,1096 L 2231,1100 L 2229,1105 L 2225,1108 L 2221,1111 L 2217,1113 L 2212,1114 L 2207,1114 L 2202,1113 L 2198,1111 L 2194,1108 L 2190,1105 L 2188,1100 L 2186,1096 L 2186,1091 L 2186,1086 L 2188,1081 L 2190,1077 L 2194,1073 L 2198,1070 L 2200,1070 L 2200,233 L 2200,229 L 2203,226 L 2264,165 L 2263,162 L 2262,157 L 2263,152 L 2264,147 L 2267,143 L 2270,139 L 2274,136 L 2279,134 L 2283,133 L 2288,133 L 2293,134 L 2298,136 L 2302,139 L 2305,143 L 2308,147 L 2309,152 L 2310,157 L 2309,162 L 2308,166 L 2305,171 L 2302,174 L 2298,177 L 2293,179 L 2288,180 L 2283,180 L 2278,179 L 2219,237 L 2219,1070 z " style="fill-opacity:1.000000;fill:rgb(232,152,50);stroke:rgb(0,0,0);stroke-width:2"/></g>
<g fill-rule="evenodd"><path d="M 1879,1250 L 1889,1240 L 1893,1238 L 1895,1238 L 2032,1238 L 2035,1234 L 2038,1231 L 2042,1228 L 2046,1226 L 2051,1225 L 2056,1225 L 2061,1226 L 2065,1228 L 2069,1231 L 2073,1234 L 2075,1238 L 2077,1243 L 2077,1248 L 2077,1253 L 2075,1258 L 2073,1262 L 2069,1266 L 2065,1269 L 2061,1271 L 2056,1272 L 2051,1272 L 2046,1271 L 2042,1269 L 2038,1266 L 2035,1262 L 2032,1258 L 1899,1258 L 1893,1264 L 1894,1267 L 1894,1272 L 1894,1277 L 1892,1282 L 1890,1286 L 1887,1290 L 1883,1293 L 1878,1295 L 1873,1296 L 1868,1296 L 1864,1295 L 1859,1293 L 1855,1290 L 1852,1286 L 1849,1282 L 1848,1277 L 1847,1272 L 1848,1267 L 1849,1262 L 1852,1258 L 1855,1254 L 1859,1252 L 1864,1250 L 1868,1249 L 1873,1249 L 1879,1250 z " style="fill-opacity:1.000000;fill:rgb(56,224,121);stroke:rgb(0,0,0);stroke-width:2"/></g>
<g fill-rule="evenodd"><path d="M 2630,1408 L 2628,1412 L 2625,1416 L 2621,1418 L 2616,1420 L 2611,1422 L 2606,1422 L 2601,1420 L 2597,1418 L 2593,1416 L 2590,1412 L 2587,1408 L 2586,1403 L 2585,1398 L 2586,1393 L 2587,1388 L 2590,1384 L 2593,1380 L 2597,1378 L 2601,1376 L 2606,1375 L 2611,1375 L 2616,1376 L 2621,1378 L 2625,1380 L 2628,1384 L 2630,1388 L 2859,1388 L 2861,1388 L 2864,1390 L 3082,1608 L 3083,1609 L 3084,1613 L 3084,1723 L 3143,1723 L 3147,1723 L 3149,1723 L 3152,1723 L 3152,1725 L 3154,1726 L 3155,1728 L 3156,1730 L 3156,1732 L 3156,1734 L 3155,1736 L 3154,1738 L 3152,1740 L 3152,1780 L 3244,1780 L 3246,1781 L 3250,1783 L 3272,1806 L 3274,1809 L 3275,1813 L 3275,2061 L 3277,2061 L 3281,2064 L 3284,2068 L 3287,2072 L 3288,2077 L 3289,2082 L 3288,2087 L 3287,2091 L 3284,2096 L 3281,2099 L 3277,2102 L 3273,2104 L 3268,2105 L 3263,2105 L 3258,2104 L 3254,2102 L 3250,2099 L 3246,2096 L 3244,2091 L 3242,2087 L 3242,2082 L 3242,2077 L 3244,2072 L 3246,2068 L 3250,2064 L 3254,2061 L 3256,2061 L 3256,1817 L 3239,1800 L 3152,1800 L 3152,1857 L 2995,1857 L 2995,1723 L 3064,1723 L 3064,1617 L 2855,1408 L 2630,1408 z " style="fill-opacity:1.000000;fill:rgb(77,61,52);stroke:rgb(0,0,0);stroke-width:2"/></g>
<g fill-rule="evenodd"><path d="M 244,1567 L 303,1567 L 305,1567 L 307,1567 L 309,1568 L 334,1568 L 334,1584 L 309,1584 L 307,1585 L 305,1586 L 303,1586 L 244,1586 L 238,1594 L 238,1597 L 238,1599 L 236,1609 L 236,1623 L 238,1636 L 236,1648 L 236,1662 L 238,1675 L 236,1688 L 236,1701 L 238,1715 L 236,1727 L 236,1741 L 238,1754 L 236,1766 L 236,1780 L 238,1790 L 238,1792 L 238,1795 L 240,1797 L 244,1803 L 303,1803 L 305,1803 L 307,1804 L 309,1805 L 334,1805 L 334,1820 L 309,1820 L 307,1822 L 305,1822 L 303,1822 L 244,1822 L 238,1830 L 238,1833 L 238,1835 L 236,1845 L 236,1859 L 238,1869 L 238,1871 L 238,1873 L 240,1875 L 244,1881 L 303,1881 L 305,1882 L 307,1882 L 309,1883 L 334,1883 L 334,1899 L 309,1899 L 307,1900 L 305,1901 L 303,1901 L 244,1901 L 238,1909 L 238,1912 L 238,1914 L 236,1924 L 236,1938 L 238,1951 L 236,1963 L 236,1977 L 238,1987 L 238,1989 L 238,1992 L 240,1993 L 244,2000 L 303,2000 L 305,2000 L 307,2000 L 309,2001 L 334,2001 L 334,2017 L 309,2017 L 307,2018 L 305,2019 L 303,2019 L 244,2019 L 238,2027 L 238,2030 L 238,2032 L 236,2042 L 236,2056 L 238,2069 L 236,2081 L 236,2095 L 238,2105 L 238,2107 L 238,2110 L 240,2111 L 244,2118 L 303,2118 L 305,2118 L 307,2118 L 309,2120 L 334,2120 L 334,2135 L 309,2135 L 307,2136 L 305,2137 L 303,2137 L 244,2137 L 238,2145 L 238,2148 L 238,2150 L 236,2160 L 236,2174 L 238,2187 L 236,2199 L 236,2213 L 238,2223 L 238,2225 L 238,2228 L 240,2230 L 244,2236 L 397,2236 L 399,2236 L 402,2239 L 419,2256 L 1204,2256 L 1206,2257 L 1210,2259 L 1456,2505 L 1473,2516 L 1493,2520 L 4342,2520 L 4362,2516 L 4379,2505 L 4862,2022 L 4874,2005 L 4878,1985 L 4878,273 L 4874,253 L 4862,236 L 4689,62 L 4688,61 L 4686,57 L 4686,53 L 4688,50 L 4690,47 L 4692,46 L 4696,45 L 5850,46 L 5852,46 L 5855,48 L 5858,52 L 5858,55 L 5858,3095 L 5858,3096 L 5855,3100 L 5852,3102 L 5848,3103 L 56,3103 L 52,3102 L 50,3101 L 49,3100 L 46,3096 L 46,3093 L 46,55 L 46,52 L 47,50 L 49,48 L 52,46 L 56,45 L 1936,46 L 1939,47 L 1941,48 L 1943,52 L 1944,55 L 1944,57 L 1943,59 L 1941,62 L 1834,169 L 1832,171 L 1830,172 L 1828,172 L 1825,172 L 1822,170 L 1812,160 L 1788,151 L 1785,150 L 1781,149 L 1738,107 L 1721,95 L 1701,91 L 1299,91 L 1279,95 L 1262,107 L 1125,244 L 1114,260 L 1110,280 L 1110,599 L 1109,603 L 1108,605 L 464,1249 L 462,1250 L 458,1251 L 377,1251 L 375,1251 L 371,1249 L 369,1247 L 368,1245 L 367,1241 L 369,1229 L 369,1215 L 367,1202 L 369,1190 L 369,1176 L 367,1163 L 369,1150 L 369,1136 L 367,1123 L 369,1111 L 369,1097 L 366,1081 L 361,1072 L 360,1069 L 361,1065 L 362,1063 L 365,1046 L 365,1020 L 362,1005 L 354,991 L 340,982 L 323,978 L 282,978 L 266,981 L 253,990 L 244,1004 L 240,1020 L 240,1046 L 243,1062 L 245,1065 L 246,1069 L 245,1072 L 240,1080 L 236,1097 L 236,1111 L 238,1124 L 236,1136 L 236,1150 L 238,1164 L 236,1176 L 236,1190 L 238,1203 L 236,1215 L 236,1229 L 238,1242 L 236,1255 L 236,1268 L 238,1282 L 236,1294 L 236,1308 L 238,1318 L 238,1320 L 238,1322 L 240,1324 L 244,1330 L 303,1330 L 305,1331 L 307,1331 L 309,1332 L 334,1332 L 334,1348 L 309,1348 L 307,1349 L 305,1350 L 303,1350 L 244,1350 L 238,1358 L 238,1361 L 238,1363 L 236,1373 L 236,1386 L 238,1397 L 238,1399 L 238,1401 L 240,1403 L 244,1409 L 303,1409 L 305,1409 L 307,1410 L 309,1411 L 334,1411 L 334,1427 L 309,1427 L 307,1428 L 305,1429 L 303,1429 L 244,1429 L 238,1437 L 238,1440 L 238,1442 L 236,1451 L 236,1465 L 238,1478 L 236,1491 L 236,1505 L 238,1518 L 236,1530 L 236,1544 L 238,1554 L 238,1556 L 238,1559 L 240,1560 L 244,1567M 2919,3000 L 2985,3000 L 3046,2974 L 3093,2928 L 3118,2867 L 3118,2801 L 3093,2740 L 3046,2693 L 2985,2668 L 2919,2668 L 2858,2693 L 2811,2739 L 2786,2800 L 2786,2866 L 2811,2927 L 2858,2974 L 2919,3000M 195,3037 L 2333,3037 L 2333,2756 L 195,2756 L 195,3037M 221,455 L 282,480 L 348,480 L 409,455 L 455,409 L 481,348 L 481,282 L 455,221 L 409,174 L 348,148 L 282,148 L 221,174 L 174,220 L 149,281 L 149,347 L 174,408 L 221,455M 3390,3058 L 4876,3058 L 4876,2777 L 3390,2777 L 3390,3058M 4971,2770 L 4971,3051 L 5746,3051 L 5746,2770 L 4971,2770M 5495,455 L 5556,480 L 5622,480 L 5683,455 L 5730,409 L 5755,348 L 5755,282 L 5730,221 L 5683,174 L 5622,148 L 5556,148 L 5495,174 L 5449,220 L 5423,281 L 5423,347 L 5449,408 L 5495,455M 391,2256 L 391,2255 L 246,2255 L 238,2263 L 244,2278 L 245,2282 L 245,2284 L 244,2286 L 240,2304 L 240,2329 L 243,2345 L 252,2359 L 265,2368 L 282,2371 L 323,2371 L 339,2368 L 353,2359 L 362,2346 L 365,2329 L 365,2304 L 362,2288 L 361,2286 L 361,2284 L 361,2280 L 361,2278 L 368,2262 L 369,2260 L 372,2258 L 373,2257 L 377,2256 L 391,2256 z " style="fill-opacity:1.000000;fill:rgb(188,95,78);stroke:rgb(0,0,0);stroke-width:2"/></g>
<g fill-rule="evenodd"><path d="M 1481,2216 L 1448,2216 L 1442,2223 L 1441,2232 L 1441,2234 L 1439,2237 L 1437,2238 L 1433,2240 L 1430,2240 L 1428,2239 L 1424,2237 L 1343,2155 L 1341,2153 L 1340,2150 L 1340,2146 L 1340,2144 L 1343,2141 L 1346,2139 L 1350,2138 L 1358,2138 L 1361,2140 L 1364,2142 L 1387,2151 L 1412,2152 L 1430,2145 L 1433,2145 L 1435,2145 L 1437,2146 L 1440,2149 L 1441,2152 L 1442,2186 L 1448,2193 L 1481,2193 L 1481,2142 L 1548,2142 L 1548,2108 L 1542,2102 L 1473,2102 L 1471,2102 L 1468,2100 L 1465,2097 L 1464,2094 L 1463,2075 L 1454,2052 L 1436,2034 L 1412,2024 L 1398,2024 L 1396,2024 L 1393,2021 L 1391,2020 L 1390,2016 L 1390,1998 L 1380,1975 L 1362,1957 L 1339,1947 L 1314,1947 L 1300,1953 L 1296,1954 L 1292,1953 L 1289,1951 L 1287,1949 L 1286,1946 L 1286,1937 L 1276,1914 L 1258,1896 L 1256,1895 L 1254,1894 L 1252,1890 L 1252,1889 L 1252,1885 L 1253,1881 L 1256,1878 L 1258,1877 L 1262,1877 L 1530,1877 L 1550,1873 L 1567,1861 L 1825,1604 L 1828,1601 L 1830,1601 L 1834,1601 L 1837,1602 L 1840,1605 L 1841,1607 L 1841,1609 L 1841,1613 L 1840,1616 L 1831,1630 L 1827,1650 L 1827,1920 L 1828,1927 L 1829,1935 L 1830,1937 L 1831,1940 L 1835,1946 L 1838,1953 L 1916,2051 L 1919,2053 L 1921,2055 L 1926,2059 L 1930,2062 L 1995,2062 L 1995,2054 L 2110,2054 L 2110,2089 L 1995,2089 L 1995,2081 L 1962,2081 L 1960,2085 L 1955,2090 L 1955,2093 L 1954,2096 L 1951,2099 L 1947,2101 L 1876,2101 L 1872,2100 L 1869,2098 L 1868,2096 L 1866,2093 L 1866,2070 L 1862,2050 L 1851,2033 L 1800,1982 L 1798,1978 L 1798,1975 L 1788,1951 L 1771,1933 L 1747,1924 L 1722,1923 L 1698,1933 L 1681,1951 L 1671,1974 L 1671,2000 L 1681,2023 L 1698,2041 L 1722,2051 L 1725,2051 L 1729,2052 L 1763,2086 L 1765,2090 L 1766,2094 L 1766,2114 L 1765,2118 L 1759,2126 L 1755,2143 L 1755,2267 L 1758,2282 L 1767,2296 L 1781,2305 L 1797,2309 L 1953,2309 L 1969,2306 L 1982,2297 L 1991,2284 L 1995,2267 L 1995,2252 L 1996,2248 L 1997,2247 L 1999,2244 L 2006,2239 L 2061,2184 L 2065,2182 L 2068,2181 L 2109,2181 L 2124,2178 L 2138,2170 L 2147,2156 L 2151,2139 L 2151,2106 L 2150,2099 L 2150,2090 L 2143,2083 L 2138,2075 L 2137,2071 L 2138,2069 L 2139,2066 L 2143,2060 L 2150,2053 L 2149,2043 L 2151,2037 L 2151,2004 L 2149,1994 L 2151,1986 L 2151,1952 L 2148,1937 L 2139,1923 L 2124,1912 L 2121,1909 L 2121,1907 L 2121,1902 L 2122,1896 L 2121,1889 L 2121,1763 L 2121,1760 L 2122,1758 L 2124,1756 L 2127,1754 L 2131,1753 L 2282,1753 L 2302,1749 L 2319,1738 L 2541,1516 L 2553,1499 L 2557,1479 L 2557,1460 L 2557,1456 L 2558,1454 L 2561,1452 L 2565,1450 L 2567,1450 L 2570,1451 L 2572,1452 L 2596,1462 L 2621,1462 L 2645,1452 L 2647,1450 L 2649,1449 L 2653,1448 L 2834,1448 L 2838,1449 L 2841,1451 L 3022,1632 L 3023,1634 L 3024,1638 L 3024,1672 L 3023,1676 L 3022,1678 L 3019,1680 L 3016,1682 L 2996,1682 L 2980,1685 L 2967,1694 L 2957,1707 L 2954,1724 L 2954,1856 L 2957,1872 L 2966,1885 L 2973,1890 L 2975,1893 L 2977,1896 L 2977,1898 L 2976,1902 L 2974,1905 L 2973,1907 L 2969,1908 L 2958,1920 L 2952,1934 L 2952,1991 L 2958,1997 L 2992,1997 L 2992,1942 L 3149,1942 L 3149,1997 L 3183,1997 L 3189,1991 L 3189,1934 L 3183,1920 L 3169,1906 L 3168,1902 L 3168,1898 L 3169,1896 L 3171,1893 L 3181,1886 L 3190,1873 L 3193,1856 L 3194,1848 L 3194,1846 L 3196,1843 L 3200,1841 L 3201,1840 L 3207,1840 L 3211,1841 L 3213,1843 L 3215,1846 L 3216,1850 L 3216,2038 L 3215,2041 L 3214,2043 L 3211,2046 L 3208,2055 L 3205,2058 L 3201,2059 L 3197,2059 L 3194,2058 L 3191,2055 L 3190,2053 L 3189,2049 L 3189,2028 L 3183,2021 L 3149,2021 L 3149,2076 L 2992,2076 L 2992,2021 L 2958,2021 L 2952,2028 L 2952,2084 L 2958,2099 L 2969,2110 L 2973,2112 L 2977,2114 L 2979,2117 L 2980,2121 L 2979,2125 L 2977,2128 L 2975,2129 L 2972,2131 L 2961,2142 L 2955,2157 L 2955,2213 L 2962,2220 L 2995,2220 L 2995,2165 L 3152,2165 L 3152,2220 L 3186,2220 L 3192,2213 L 3192,2157 L 3186,2142 L 3175,2131 L 3171,2129 L 3168,2127 L 3165,2123 L 3165,2120 L 3165,2116 L 3168,2113 L 3169,2111 L 3172,2110 L 3183,2099 L 3185,2095 L 3186,2093 L 3188,2092 L 3191,2090 L 3195,2090 L 3197,2091 L 3200,2093 L 3203,2096 L 3211,2118 L 3229,2136 L 3253,2145 L 3278,2146 L 3301,2136 L 3319,2118 L 3329,2095 L 3329,2069 L 3319,2046 L 3317,2043 L 3316,2041 L 3315,2038 L 3315,1814 L 3311,1794 L 3300,1777 L 3279,1755 L 3262,1744 L 3242,1740 L 3206,1740 L 3202,1739 L 3200,1738 L 3197,1736 L 3196,1734 L 3192,1713 L 3191,1712 L 3190,1708 L 3182,1695 L 3168,1685 L 3151,1682 L 3132,1682 L 3130,1681 L 3126,1679 L 3124,1676 L 3124,1672 L 3124,1614 L 3120,1594 L 3108,1577 L 2895,1363 L 2878,1352 L 2858,1348 L 2653,1348 L 2649,1347 L 2647,1346 L 2645,1344 L 2621,1334 L 2596,1334 L 2572,1344 L 2570,1345 L 2567,1346 L 2563,1345 L 2561,1344 L 2559,1343 L 2557,1340 L 2557,1336 L 2557,83 L 2553,63 L 2550,59 L 2550,55 L 2550,52 L 2551,50 L 2554,47 L 2556,46 L 2560,45 L 3961,46 L 3963,46 L 3966,48 L 3969,52 L 3969,55 L 3969,59 L 3966,62 L 3965,64 L 3955,68 L 3937,86 L 3928,109 L 3928,134 L 3937,158 L 3955,176 L 3979,185 L 4004,185 L 4027,176 L 4030,173 L 4032,172 L 4035,172 L 4573,172 L 4575,172 L 4579,175 L 4716,313 L 4717,314 L 4718,318 L 4718,1921 L 4717,1923 L 4715,1926 L 4288,2354 L 4286,2354 L 4282,2355 L 3170,2355 L 3166,2354 L 3163,2352 L 3162,2351 L 3160,2347 L 3160,2345 L 3161,2341 L 3162,2340 L 3164,2337 L 3175,2332 L 3186,2321 L 3192,2306 L 3192,2250 L 3186,2243 L 3152,2243 L 3152,2298 L 2995,2298 L 2995,2243 L 2962,2243 L 2955,2250 L 2955,2306 L 2961,2321 L 2972,2332 L 2983,2337 L 2986,2340 L 2987,2343 L 2987,2347 L 2987,2349 L 2984,2352 L 2981,2354 L 2977,2355 L 2857,2355 L 2853,2354 L 2850,2352 L 2848,2349 L 2847,2345 L 2848,2341 L 2849,2340 L 2852,2337 L 2866,2328 L 2875,2314 L 2878,2297 L 2878,2165 L 2876,2150 L 2867,2136 L 2852,2126 L 2850,2123 L 2850,2119 L 2850,2117 L 2851,2113 L 2854,2111 L 2863,2105 L 2872,2092 L 2875,2075 L 2875,1943 L 2872,1927 L 2864,1914 L 2856,1909 L 2854,1906 L 2853,1904 L 2852,1900 L 2852,1898 L 2854,1895 L 2857,1892 L 2866,1886 L 2875,1873 L 2878,1856 L 2878,1724 L 2876,1708 L 2867,1695 L 2853,1685 L 2837,1682 L 2681,1682 L 2665,1685 L 2652,1694 L 2643,1707 L 2639,1724 L 2639,1835 L 2638,1839 L 2637,1841 L 2584,1895 L 2575,1907 L 2573,1910 L 2571,1911 L 2567,1911 L 2535,1911 L 2529,1918 L 2529,1951 L 2574,1951 L 2574,1987 L 2460,1987 L 2460,1951 L 2488,1951 L 2487,1911 L 2452,1911 L 2437,1918 L 2426,1929 L 2420,1943 L 2420,1951 L 2427,1958 L 2429,1959 L 2432,1962 L 2433,1965 L 2434,1967 L 2433,1971 L 2432,1973 L 2426,1981 L 2420,1988 L 2420,1997 L 2419,2004 L 2419,2037 L 2420,2046 L 2419,2055 L 2419,2088 L 2420,2097 L 2419,2106 L 2419,2139 L 2422,2155 L 2431,2169 L 2444,2178 L 2461,2181 L 2470,2182 L 2474,2183 L 2477,2186 L 2482,2194 L 2554,2266 L 2571,2277 L 2591,2281 L 2631,2281 L 2633,2282 L 2636,2284 L 2638,2287 L 2639,2289 L 2639,2297 L 2642,2313 L 2651,2327 L 2666,2337 L 2668,2340 L 2669,2341 L 2670,2345 L 2669,2349 L 2667,2352 L 2664,2354 L 2660,2355 L 1545,2355 L 1541,2354 L 1540,2352 L 1512,2325 L 1510,2321 L 1509,2318 L 1510,2314 L 1511,2312 L 1514,2309 L 1516,2308 L 1519,2308 L 1542,2308 L 1548,2301 L 1548,2268 L 1481,2268 L 1481,2216M 1572,2142 L 1639,2142 L 1639,2193 L 1672,2193 L 1679,2186 L 1679,2134 L 1673,2119 L 1662,2108 L 1647,2102 L 1579,2102 L 1572,2108 L 1572,2142M 1572,2268 L 1572,2301 L 1579,2308 L 1647,2308 L 1662,2302 L 1673,2290 L 1679,2276 L 1679,2223 L 1672,2216 L 1639,2216 L 1639,2268 L 1572,2268 z " style="fill-opacity:1.000000;fill:rgb(119,250,203);stroke:rgb(0,0,0);stroke-width:2"/></g>
</svg>
