<?xml version="1.0" standalone="no"?>
<!DOCTYPE svg PUBLIC "-//W3C//DTD SVG 1.1//EN"
"http://www.w3.org/Graphics/SVG/1.1/DTD/svg11.dtd">
<svg width="5813" height="3058" viewBox="0 0 5813 3058" version="1.1"
xmlns="http://www.w3.org/2000/svg"
xmlns:xlink="http://www.w3.org/1999/xlink">
<g fill-rule="evenodd"><path d="M 3595,2805 L 3578,2822 L 3576,2823 L 3574,2824 L 3572,2825 L 3569,2825 L 3567,2825 L 3565,2824 L 3562,2822 L 3561,2821 L 3559,2819 L 3559,2816 L 3558,2814 L 3558,2811 L 3559,2809 L 3560,2807 L 3562,2805 L 3578,2788 L 3580,2786 L 3583,2785 L 3585,2785 L 3587,2785 L 3590,2785 L 3592,2786 L 3594,2787 L 3596,2789 L 3597,2791 L 3598,2793 L 3599,2796 L 3598,2798 L 3598,2801 L 3597,2803 L 3595,2805 z " style="fill-opacity:1.000000;fill:rgb(103,198,105);stroke:rgb(0,0,0);stroke-width:2"/></g>
<g fill-rule="evenodd"><path d="M 205,2899 L 205,2781 L 205,2778 L 206,2776 L 207,2774 L 209,2772 L 211,2771 L 213,2770 L 215,2769 L 218,2769 L 220,2770 L 223,2771 L 225,2772 L 226,2774 L 227,2776 L 228,2778 L 228,2781 L 228,2899 L 228,2901 L 227,2904 L 226,2906 L 225,2908 L 223,2909 L 220,2910 L 218,2911 L 215,2911 L 213,2910 L 211,2909 L 209,2908 L 207,2906 L 206,2904 L 205,2901 L 205,2899 z " style="fill-opacity:1.000000;fill:rgb(115,81,255);stroke:rgb(0,0,0);stroke-width:2"/></g>
<g fill-rule="evenodd"><path d="M 405,2783 L 388,2800 L 386,2802 L 384,2803 L 382,2804 L 379,2804 L 377,2803 L 374,2803 L 372,2801 L 371,2799 L 369,2797 L 368,2795 L 368,2793 L 368,2790 L 369,2788 L 370,2786 L 371,2784 L 388,2767 L 390,2765 L 392,2764 L 395,2763 L 397,2763 L 400,2764 L 402,2765 L 404,2766 L 406,2768 L 407,2770 L 408,2772 L 408,2774 L 408,2777 L 408,2779 L 406,2782 L 405,2783 z " style="fill-opacity:1.000000;fill:rgb(74,236,41);stroke:rgb(0,0,0);stroke-width:2"/></g>
<g fill-rule="evenodd"><path d="M 1060,2899 L 1060,2820 L 1060,2818 L 1061,2815 L 1062,2813 L 1064,2811 L 1066,2810 L 1068,2809 L 1070,2808 L 1073,2808 L 1075,2809 L 1077,2810 L 1079,2811 L 1081,2813 L 1082,2815 L 1083,2818 L 1083,2820 L 1083,2899 L 1083,2901 L 1082,2904 L 1081,2906 L 1079,2908 L 1077,2909 L 1075,2910 L 1073,2911 L 1070,2911 L 1068,2910 L 1066,2909 L 1064,2908 L 1062,2906 L 1061,2904 L 1060,2901 L 1060,2899 z " style="fill-opacity:1.000000;fill:rgb(205,186,171);stroke:rgb(0,0,0);stroke-width:2"/></g>
<g fill-rule="evenodd"><path d="M 1091,2783 L 1074,2800 L 1072,2802 L 1070,2803 L 1068,2804 L 1065,2804 L 1063,2803 L 1060,2803 L 1058,2801 L 1057,2799 L 1055,2797 L 1054,2795 L 1054,2793 L 1054,2790 L 1055,2788 L 1056,2786 L 1057,2784 L 1074,2767 L 1076,2765 L 1078,2764 L 1081,2763 L 1083,2763 L 1086,2764 L 1088,2765 L 1090,2766 L 1092,2768 L 1093,2770 L 1094,2772 L 1094,2774 L 1094,2777 L 1094,2779 L 1093,2782 L 1091,2783 z " style="fill-opacity:1.000000;fill:rgb(242,251,227);stroke:rgb(0,0,0);stroke-width:2"/></g>
<g fill-rule="evenodd"><path d="M 1805,2783 L 1788,2800 L 1786,2802 L 1784,2803 L 1782,2804 L 1779,2804 L 1777,2803 L 1775,2803 L 1773,2801 L 1771,2799 L 1769,2797 L 1769,2795 L 1768,2793 L 1768,2790 L 1769,2788 L 1770,2786 L 1772,2784 L 1789,2767 L 1790,2765 L 1793,2764 L 1795,2763 L 1797,2763 L 1800,2764 L 1802,2765 L 1804,2766 L 1806,2768 L 1807,2770 L 1808,2772 L 1809,2774 L 1809,2777 L 1808,2779 L 1807,2782 L 1805,2783 z " style="fill-opacity:1.000000;fill:rgb(70,124,194);stroke:rgb(0,0,0);stroke-width:2"/></g>
<g fill-rule="evenodd"><path d="M 290,2864 L 307,2816 L 308,2814 L 309,2812 L 311,2810 L 313,2809 L 316,2808 L 318,2808 L 321,2809 L 323,2809 L 325,2811 L 327,2812 L 328,2814 L 329,2817 L 330,2819 L 330,2822 L 329,2824 L 301,2903 L 300,2905 L 298,2907 L 297,2908 L 294,2910 L 292,2910 L 290,2911 L 287,2910 L 285,2910 L 283,2908 L 281,2907 L 280,2905 L 279,2903 L 250,2824 L 250,2822 L 250,2819 L 250,2817 L 251,2814 L 253,2812 L 254,2811 L 257,2809 L 259,2809 L 261,2808 L 264,2808 L 266,2809 L 268,2810 L 270,2812 L 272,2814 L 273,2816 L 290,2864 z " style="fill-opacity:1.000000;fill:rgb(84,248,27);stroke:rgb(0,0,0);stroke-width:2"/></g>
<g fill-rule="evenodd"><path d="M 1668,2837 L 1696,2776 L 1697,2774 L 1699,2772 L 1701,2770 L 1703,2769 L 1706,2769 L 1708,2769 L 1711,2770 L 1713,2771 L 1715,2772 L 1716,2774 L 1718,2776 L 1718,2778 L 1719,2781 L 1719,2899 L 1718,2901 L 1718,2904 L 1716,2906 L 1715,2908 L 1713,2909 L 1711,2910 L 1708,2911 L 1706,2911 L 1703,2910 L 1701,2909 L 1699,2908 L 1697,2906 L 1696,2904 L 1695,2901 L 1695,2899 L 1695,2834 L 1678,2870 L 1677,2872 L 1675,2874 L 1673,2875 L 1671,2876 L 1669,2877 L 1666,2877 L 1664,2876 L 1662,2875 L 1660,2874 L 1658,2872 L 1657,2870 L 1640,2834 L 1640,2899 L 1640,2901 L 1639,2904 L 1638,2906 L 1636,2908 L 1634,2909 L 1632,2910 L 1629,2911 L 1627,2911 L 1625,2910 L 1622,2909 L 1620,2908 L 1619,2906 L 1617,2904 L 1617,2901 L 1616,2899 L 1616,2781 L 1617,2778 L 1617,2776 L 1619,2774 L 1620,2772 L 1622,2771 L 1624,2770 L 1627,2769 L 1629,2769 L 1632,2769 L 1634,2770 L 1636,2772 L 1638,2774 L 1639,2776 L 1668,2837 z " style="fill-opacity:1.000000;fill:rgb(232,231,141);stroke:rgb(0,0,0);stroke-width:2"/></g>
<g fill-rule="evenodd"><path d="M 1166,2913 L 1166,2911 L 1145,2911 L 1141,2910 L 1128,2904 L 1125,2902 L 1118,2894 L 1111,2880 L 1110,2876 L 1110,2843 L 1111,2839 L 1111,2837 L 1118,2824 L 1125,2817 L 1128,2815 L 1141,2809 L 1145,2808 L 1167,2808 L 1171,2809 L 1173,2810 L 1175,2809 L 1177,2808 L 1180,2808 L 1182,2809 L 1184,2810 L 1186,2811 L 1188,2813 L 1189,2815 L 1190,2818 L 1190,2820 L 1190,2918 L 1189,2921 L 1183,2932 L 1181,2935 L 1174,2942 L 1159,2949 L 1156,2950 L 1139,2950 L 1135,2949 L 1122,2943 L 1120,2942 L 1119,2940 L 1117,2938 L 1116,2936 L 1116,2933 L 1116,2931 L 1117,2928 L 1118,2926 L 1119,2924 L 1121,2923 L 1123,2922 L 1126,2921 L 1128,2921 L 1131,2921 L 1133,2922 L 1142,2926 L 1153,2926 L 1160,2923 L 1163,2920 L 1166,2913M 1166,2886 L 1166,2833 L 1164,2832 L 1147,2832 L 1140,2835 L 1137,2838 L 1134,2845 L 1134,2874 L 1137,2881 L 1140,2884 L 1147,2887 L 1164,2887 L 1166,2886 z " style="fill-opacity:1.000000;fill:rgb(118,90,46);stroke:rgb(0,0,0);stroke-width:2"/></g>
<g fill-rule="evenodd"><path d="M 1273,2883 L 1273,2820 L 1274,2818 L 1274,2815 L 1276,2813 L 1277,2811 L 1279,2810 L 1281,2809 L 1284,2808 L 1286,2808 L 1289,2809 L 1291,2810 L 1293,2811 L 1295,2813 L 1296,2815 L 1297,2818 L 1297,2820 L 1297,2899 L 1297,2901 L 1296,2904 L 1295,2906 L 1293,2908 L 1291,2909 L 1289,2910 L 1286,2911 L 1284,2911 L 1281,2910 L 1279,2909 L 1277,2908 L 1274,2909 L 1270,2910 L 1251,2911 L 1248,2910 L 1246,2909 L 1235,2904 L 1232,2902 L 1230,2898 L 1224,2887 L 1223,2884 L 1223,2820 L 1223,2818 L 1224,2815 L 1225,2813 L 1227,2811 L 1229,2810 L 1231,2809 L 1233,2808 L 1236,2808 L 1238,2809 L 1240,2810 L 1242,2811 L 1244,2813 L 1245,2815 L 1246,2818 L 1246,2820 L 1246,2879 L 1249,2884 L 1254,2887 L 1265,2887 L 1272,2884 L 1273,2883 z " style="fill-opacity:1.000000;fill:rgb(99,51,159);stroke:rgb(0,0,0);stroke-width:2"/></g>
<g fill-rule="evenodd"><path d="M 1348,2869 L 1348,2879 L 1350,2884 L 1355,2887 L 1372,2887 L 1381,2883 L 1383,2882 L 1386,2881 L 1388,2882 L 1391,2882 L 1393,2883 L 1395,2885 L 1396,2887 L 1397,2889 L 1398,2891 L 1398,2894 L 1398,2896 L 1397,2899 L 1395,2901 L 1394,2902 L 1392,2904 L 1380,2909 L 1377,2910 L 1353,2911 L 1349,2910 L 1336,2904 L 1333,2902 L 1331,2898 L 1325,2887 L 1324,2886 L 1324,2882 L 1324,2835 L 1325,2832 L 1331,2820 L 1333,2817 L 1336,2815 L 1347,2810 L 1349,2809 L 1353,2808 L 1377,2808 L 1380,2810 L 1392,2815 L 1395,2817 L 1397,2820 L 1403,2832 L 1404,2835 L 1404,2848 L 1404,2851 L 1403,2853 L 1402,2855 L 1400,2857 L 1399,2858 L 1396,2859 L 1394,2860 L 1348,2869M 1348,2845 L 1380,2839 L 1378,2835 L 1372,2832 L 1355,2832 L 1350,2835 L 1348,2840 L 1348,2845 z " style="fill-opacity:1.000000;fill:rgb(201,154,102);stroke:rgb(0,0,0);stroke-width:2"/></g>
<g fill-rule="evenodd"><path d="M 1456,2887 L 1493,2887 L 1496,2887 L 1498,2888 L 1500,2889 L 1502,2891 L 1503,2893 L 1504,2895 L 1505,2898 L 1505,2900 L 1504,2902 L 1503,2905 L 1502,2907 L 1500,2908 L 1498,2910 L 1496,2910 L 1493,2911 L 1431,2911 L 1429,2910 L 1427,2910 L 1425,2909 L 1423,2907 L 1421,2905 L 1420,2903 L 1420,2901 L 1420,2898 L 1420,2896 L 1421,2894 L 1422,2892 L 1469,2832 L 1431,2832 L 1429,2832 L 1427,2831 L 1424,2830 L 1423,2828 L 1421,2826 L 1420,2824 L 1420,2821 L 1420,2819 L 1420,2816 L 1421,2814 L 1423,2812 L 1424,2811 L 1427,2809 L 1429,2809 L 1431,2808 L 1493,2808 L 1496,2809 L 1498,2809 L 1500,2810 L 1502,2812 L 1503,2814 L 1504,2816 L 1505,2818 L 1505,2821 L 1505,2823 L 1504,2825 L 1502,2827 L 1456,2887 z " style="fill-opacity:1.000000;fill:rgb(50,13,183);stroke:rgb(0,0,0);stroke-width:2"/></g>
<g fill-rule="evenodd"><path d="M 1769,2869 L 1769,2879 L 1772,2884 L 1777,2887 L 1794,2887 L 1803,2883 L 1805,2882 L 1808,2881 L 1810,2882 L 1812,2882 L 1815,2883 L 1817,2885 L 1818,2887 L 1819,2889 L 1820,2891 L 1820,2894 L 1819,2896 L 1819,2899 L 1817,2901 L 1815,2902 L 1813,2904 L 1802,2909 L 1799,2910 L 1774,2911 L 1771,2910 L 1758,2904 L 1755,2902 L 1753,2898 L 1747,2887 L 1746,2886 L 1746,2882 L 1746,2835 L 1747,2832 L 1753,2820 L 1755,2817 L 1758,2815 L 1769,2810 L 1771,2809 L 1774,2808 L 1799,2808 L 1802,2810 L 1813,2815 L 1816,2817 L 1819,2820 L 1824,2832 L 1825,2835 L 1826,2848 L 1825,2851 L 1825,2853 L 1824,2855 L 1822,2857 L 1820,2858 L 1818,2859 L 1816,2860 L 1769,2869M 1769,2845 L 1801,2839 L 1799,2835 L 1794,2832 L 1777,2832 L 1772,2835 L 1769,2840 L 1769,2845 z " style="fill-opacity:1.000000;fill:rgb(49,88,163);stroke:rgb(0,0,0);stroke-width:2"/></g>
<g fill-rule="evenodd"><path d="M 2084,2869 L 2084,2879 L 2087,2884 L 2092,2887 L 2109,2887 L 2118,2883 L 2120,2882 L 2123,2881 L 2125,2882 L 2127,2882 L 2130,2883 L 2131,2885 L 2133,2887 L 2134,2889 L 2135,2891 L 2135,2894 L 2134,2896 L 2134,2899 L 2132,2901 L 2130,2902 L 2128,2904 L 2117,2909 L 2114,2910 L 2089,2911 L 2086,2910 L 2073,2904 L 2070,2902 L 2067,2898 L 2062,2887 L 2061,2886 L 2061,2882 L 2061,2835 L 2062,2832 L 2067,2820 L 2070,2817 L 2073,2815 L 2084,2810 L 2086,2809 L 2089,2808 L 2114,2808 L 2117,2810 L 2128,2815 L 2131,2817 L 2134,2820 L 2139,2832 L 2140,2835 L 2140,2848 L 2140,2851 L 2140,2853 L 2138,2855 L 2137,2857 L 2135,2858 L 2133,2859 L 2131,2860 L 2084,2869M 2084,2845 L 2116,2839 L 2114,2835 L 2109,2832 L 2092,2832 L 2087,2835 L 2084,2840 L 2084,2845 z " style="fill-opacity:1.000000;fill:rgb(90,37,93);stroke:rgb(0,0,0);stroke-width:2"/></g>
<g fill-rule="evenodd"><path d="M 2192,2887 L 2230,2887 L 2232,2887 L 2235,2888 L 2237,2889 L 2239,2891 L 2240,2893 L 2241,2895 L 2242,2898 L 2242,2900 L 2241,2902 L 2240,2905 L 2239,2907 L 2237,2908 L 2235,2910 L 2232,2910 L 2230,2911 L 2168,2911 L 2166,2910 L 2163,2910 L 2161,2909 L 2159,2907 L 2158,2905 L 2157,2903 L 2156,2901 L 2156,2898 L 2157,2896 L 2157,2894 L 2159,2892 L 2206,2832 L 2168,2832 L 2166,2832 L 2163,2831 L 2161,2830 L 2159,2828 L 2158,2826 L 2157,2824 L 2156,2821 L 2156,2819 L 2157,2816 L 2158,2814 L 2159,2812 L 2161,2811 L 2163,2809 L 2166,2809 L 2168,2808 L 2230,2808 L 2232,2809 L 2235,2809 L 2237,2810 L 2238,2812 L 2240,2814 L 2241,2816 L 2242,2818 L 2242,2821 L 2241,2823 L 2240,2825 L 2239,2827 L 2192,2887 z " style="fill-opacity:1.000000;fill:rgb(5,23,88);stroke:rgb(0,0,0);stroke-width:2"/></g>
<g fill-rule="evenodd"><path d="M 1010,2845 L 1010,2899 L 1010,2901 L 1009,2904 L 1008,2906 L 1006,2908 L 1004,2909 L 1002,2910 L 1000,2911 L 997,2911 L 995,2910 L 992,2909 L 990,2908 L 989,2906 L 988,2904 L 987,2901 L 987,2899 L 987,2820 L 987,2818 L 988,2815 L 989,2813 L 990,2811 L 992,2810 L 995,2809 L 997,2808 L 1000,2808 L 1002,2809 L 1004,2810 L 1006,2811 L 1008,2813 L 1016,2810 L 1019,2808 L 1032,2808 L 1035,2809 L 1037,2809 L 1039,2811 L 1041,2812 L 1042,2814 L 1043,2816 L 1044,2819 L 1044,2821 L 1043,2824 L 1042,2826 L 1041,2828 L 1039,2830 L 1037,2831 L 1035,2832 L 1032,2832 L 1024,2832 L 1017,2835 L 1014,2838 L 1010,2845 z " style="fill-opacity:1.000000;fill:rgb(233,94,212);stroke:rgb(0,0,0);stroke-width:2"/></g>
<g fill-rule="evenodd"><path d="M 717,2853 L 744,2892 L 745,2894 L 746,2897 L 746,2899 L 746,2901 L 745,2904 L 743,2906 L 742,2908 L 740,2909 L 737,2910 L 735,2911 L 733,2911 L 730,2910 L 728,2909 L 726,2907 L 724,2906 L 688,2854 L 678,2854 L 678,2899 L 678,2901 L 677,2904 L 676,2906 L 674,2908 L 672,2909 L 670,2910 L 668,2911 L 665,2911 L 663,2910 L 661,2909 L 659,2908 L 657,2906 L 656,2904 L 655,2901 L 655,2899 L 655,2781 L 655,2778 L 656,2776 L 657,2774 L 658,2772 L 660,2771 L 662,2770 L 664,2769 L 667,2769 L 713,2769 L 717,2770 L 730,2777 L 738,2785 L 745,2798 L 746,2801 L 746,2820 L 745,2824 L 739,2837 L 737,2840 L 730,2847 L 717,2853M 678,2831 L 709,2831 L 716,2827 L 719,2824 L 722,2817 L 722,2806 L 719,2799 L 716,2796 L 709,2793 L 678,2793 L 678,2831 z " style="fill-opacity:1.000000;fill:rgb(171,178,205);stroke:rgb(0,0,0);stroke-width:2"/></g>
<g fill-rule="evenodd"><path d="M 402,2840 L 399,2835 L 394,2832 L 377,2832 L 368,2836 L 366,2837 L 363,2838 L 361,2837 L 359,2837 L 356,2836 L 354,2834 L 353,2832 L 352,2830 L 351,2827 L 351,2825 L 351,2823 L 352,2820 L 354,2818 L 355,2816 L 358,2815 L 369,2810 L 372,2808 L 398,2808 L 402,2810 L 413,2815 L 416,2817 L 418,2820 L 424,2832 L 425,2833 L 425,2837 L 425,2899 L 425,2901 L 424,2904 L 423,2906 L 421,2908 L 419,2909 L 417,2910 L 415,2911 L 412,2911 L 410,2910 L 408,2909 L 406,2910 L 402,2911 L 374,2911 L 370,2910 L 369,2909 L 356,2903 L 353,2900 L 352,2898 L 347,2887 L 346,2886 L 345,2882 L 345,2871 L 346,2867 L 353,2853 L 354,2851 L 358,2849 L 370,2843 L 374,2842 L 399,2842 L 402,2841 L 402,2840M 402,2866 L 377,2866 L 372,2868 L 369,2873 L 369,2879 L 372,2884 L 377,2887 L 399,2887 L 402,2886 L 402,2866 z " style="fill-opacity:1.000000;fill:rgb(198,155,180);stroke:rgb(0,0,0);stroke-width:2"/></g>
<g fill-rule="evenodd"><path d="M 482,2836 L 482,2899 L 481,2901 L 480,2904 L 479,2906 L 478,2908 L 476,2909 L 473,2910 L 471,2911 L 468,2911 L 466,2910 L 464,2909 L 462,2908 L 460,2906 L 459,2904 L 458,2901 L 458,2899 L 458,2820 L 458,2818 L 459,2815 L 460,2813 L 462,2811 L 464,2810 L 466,2809 L 468,2808 L 471,2808 L 473,2809 L 476,2810 L 478,2811 L 481,2810 L 485,2808 L 503,2808 L 507,2809 L 509,2810 L 520,2815 L 523,2817 L 525,2820 L 531,2832 L 532,2835 L 532,2899 L 532,2901 L 531,2904 L 530,2906 L 528,2908 L 526,2909 L 524,2910 L 522,2911 L 519,2911 L 517,2910 L 514,2909 L 512,2908 L 511,2906 L 510,2904 L 509,2901 L 508,2899 L 508,2840 L 506,2835 L 501,2832 L 489,2832 L 482,2835 L 482,2836 z " style="fill-opacity:1.000000;fill:rgb(84,17,14);stroke:rgb(0,0,0);stroke-width:2"/></g>
<g fill-rule="evenodd"><path d="M 930,2808 L 930,2781 L 931,2778 L 931,2776 L 933,2774 L 934,2772 L 936,2771 L 938,2770 L 941,2769 L 943,2769 L 946,2770 L 948,2771 L 950,2772 L 952,2774 L 953,2776 L 954,2778 L 954,2781 L 954,2899 L 954,2901 L 953,2904 L 952,2906 L 950,2908 L 948,2909 L 946,2910 L 943,2911 L 941,2911 L 938,2910 L 936,2909 L 934,2910 L 931,2911 L 908,2911 L 905,2910 L 892,2904 L 889,2902 L 882,2894 L 875,2882 L 875,2880 L 874,2876 L 874,2843 L 875,2839 L 882,2824 L 889,2817 L 892,2815 L 903,2810 L 907,2808 L 930,2808M 930,2886 L 930,2833 L 928,2832 L 911,2832 L 904,2835 L 901,2838 L 898,2845 L 898,2874 L 901,2881 L 904,2884 L 911,2887 L 928,2887 L 930,2886 z " style="fill-opacity:1.000000;fill:rgb(130,116,65);stroke:rgb(0,0,0);stroke-width:2"/></g>
<g fill-rule="evenodd"><path d="M 1876,2836 L 1876,2899 L 1876,2901 L 1875,2904 L 1874,2906 L 1872,2908 L 1870,2909 L 1868,2910 L 1866,2911 L 1863,2911 L 1861,2910 L 1858,2909 L 1856,2908 L 1855,2906 L 1854,2904 L 1853,2901 L 1853,2899 L 1853,2820 L 1853,2818 L 1854,2815 L 1855,2813 L 1856,2811 L 1858,2810 L 1861,2809 L 1863,2808 L 1866,2808 L 1868,2809 L 1870,2810 L 1872,2811 L 1876,2810 L 1879,2808 L 1898,2808 L 1902,2809 L 1903,2810 L 1915,2815 L 1918,2817 L 1920,2820 L 1926,2832 L 1927,2835 L 1927,2899 L 1927,2901 L 1926,2904 L 1925,2906 L 1923,2908 L 1921,2909 L 1919,2910 L 1916,2911 L 1914,2911 L 1911,2910 L 1909,2909 L 1907,2908 L 1905,2906 L 1904,2904 L 1903,2901 L 1903,2899 L 1903,2840 L 1901,2835 L 1895,2832 L 1884,2832 L 1877,2835 L 1876,2836 z " style="fill-opacity:1.000000;fill:rgb(33,61,220);stroke:rgb(0,0,0);stroke-width:2"/></g>
<g fill-rule="evenodd"><path d="M 2010,2808 L 2010,2781 L 2010,2778 L 2011,2776 L 2012,2774 L 2014,2772 L 2016,2771 L 2018,2770 L 2021,2769 L 2023,2769 L 2025,2770 L 2028,2771 L 2030,2772 L 2031,2774 L 2033,2776 L 2033,2778 L 2034,2781 L 2034,2899 L 2033,2901 L 2033,2904 L 2031,2906 L 2030,2908 L 2028,2909 L 2025,2910 L 2023,2911 L 2021,2911 L 2018,2910 L 2016,2909 L 2014,2910 L 2011,2911 L 1988,2911 L 1984,2910 L 1972,2904 L 1968,2902 L 1962,2894 L 1955,2882 L 1954,2880 L 1954,2876 L 1954,2843 L 1954,2839 L 1962,2824 L 1968,2817 L 1972,2815 L 1983,2810 L 1986,2808 L 2010,2808M 2010,2886 L 2010,2833 L 2008,2832 L 1991,2832 L 1984,2835 L 1981,2838 L 1977,2845 L 1977,2874 L 1981,2881 L 1984,2884 L 1991,2887 L 2008,2887 L 2010,2886 z " style="fill-opacity:1.000000;fill:rgb(135,112,233);stroke:rgb(0,0,0);stroke-width:2"/></g>
<g fill-rule="evenodd"><path d="M 801,2911 L 799,2910 L 797,2910 L 785,2904 L 782,2902 L 775,2894 L 768,2882 L 768,2880 L 767,2876 L 767,2841 L 768,2837 L 775,2824 L 783,2816 L 796,2810 L 800,2808 L 820,2808 L 824,2810 L 835,2815 L 838,2817 L 845,2824 L 851,2837 L 853,2841 L 853,2843 L 853,2878 L 851,2882 L 845,2894 L 837,2903 L 824,2909 L 820,2910 L 801,2911M 829,2874 L 829,2845 L 826,2838 L 823,2835 L 816,2832 L 804,2832 L 797,2835 L 794,2838 L 791,2845 L 791,2874 L 794,2881 L 797,2884 L 804,2887 L 816,2887 L 823,2884 L 826,2881 L 829,2874 z " style="fill-opacity:1.000000;fill:rgb(62,161,65);stroke:rgb(0,0,0);stroke-width:2"/></g>
<g fill-rule="evenodd"><path d="M 3452,2858 L 3480,2797 L 3482,2795 L 3483,2793 L 3485,2792 L 3488,2791 L 3490,2790 L 3493,2790 L 3495,2791 L 3497,2792 L 3499,2793 L 3501,2795 L 3502,2797 L 3503,2799 L 3503,2802 L 3503,2920 L 3503,2922 L 3502,2925 L 3501,2927 L 3499,2929 L 3497,2930 L 3495,2931 L 3492,2932 L 3490,2932 L 3488,2931 L 3485,2930 L 3483,2929 L 3482,2927 L 3480,2925 L 3480,2922 L 3479,2920 L 3479,2855 L 3463,2891 L 3461,2893 L 3460,2895 L 3458,2897 L 3455,2898 L 3453,2898 L 3451,2898 L 3448,2898 L 3446,2897 L 3444,2895 L 3442,2893 L 3441,2891 L 3424,2855 L 3424,2920 L 3424,2922 L 3423,2925 L 3422,2927 L 3420,2929 L 3418,2930 L 3416,2931 L 3414,2932 L 3411,2932 L 3409,2931 L 3407,2930 L 3405,2929 L 3403,2927 L 3402,2925 L 3401,2922 L 3401,2920 L 3401,2802 L 3401,2799 L 3402,2797 L 3403,2795 L 3405,2793 L 3406,2792 L 3409,2791 L 3411,2790 L 3414,2790 L 3416,2791 L 3418,2792 L 3420,2793 L 3422,2795 L 3423,2797 L 3452,2858 z " style="fill-opacity:1.000000;fill:rgb(225,252,103);stroke:rgb(0,0,0);stroke-width:2"/></g>
<g fill-rule="evenodd"><path d="M 4465,2857 L 4465,2920 L 4464,2922 L 4464,2925 L 4462,2927 L 4461,2929 L 4459,2930 L 4456,2931 L 4454,2932 L 4452,2932 L 4449,2931 L 4447,2930 L 4445,2929 L 4443,2927 L 4442,2925 L 4441,2922 L 4441,2920 L 4441,2841 L 4441,2839 L 4442,2836 L 4443,2834 L 4445,2833 L 4447,2831 L 4449,2830 L 4452,2830 L 4454,2830 L 4456,2830 L 4459,2831 L 4461,2833 L 4464,2831 L 4468,2830 L 4487,2829 L 4490,2830 L 4492,2831 L 4503,2836 L 4506,2839 L 4508,2842 L 4514,2853 L 4515,2856 L 4515,2920 L 4515,2922 L 4514,2925 L 4513,2927 L 4511,2929 L 4509,2930 L 4507,2931 L 4505,2932 L 4502,2932 L 4500,2931 L 4498,2930 L 4496,2929 L 4494,2927 L 4493,2925 L 4492,2922 L 4492,2920 L 4492,2861 L 4489,2856 L 4484,2853 L 4472,2853 L 4465,2857 L 4465,2857 z " style="fill-opacity:1.000000;fill:rgb(62,1,126);stroke:rgb(0,0,0);stroke-width:2"/></g>
<g fill-rule="evenodd"><path d="M 5234,2878 L 5257,2829 L 5258,2827 L 5260,2825 L 5262,2824 L 5264,2823 L 5267,2822 L 5269,2822 L 5272,2823 L 5274,2824 L 5276,2826 L 5277,2827 L 5279,2830 L 5279,2832 L 5280,2834 L 5279,2837 L 5278,2839 L 5240,2918 L 5239,2920 L 5237,2922 L 5235,2923 L 5233,2924 L 5231,2925 L 5228,2925 L 5226,2924 L 5224,2923 L 5222,2922 L 5220,2920 L 5219,2918 L 5218,2915 L 5200,2837 L 5200,2834 L 5200,2832 L 5201,2829 L 5202,2827 L 5203,2825 L 5205,2824 L 5208,2823 L 5210,2822 L 5212,2822 L 5215,2823 L 5217,2824 L 5219,2825 L 5221,2827 L 5222,2829 L 5223,2831 L 5234,2878 z " style="fill-opacity:1.000000;fill:rgb(151,234,220);stroke:rgb(0,0,0);stroke-width:2"/></g>
<g fill-rule="evenodd"><path d="M 3800,2904 L 3800,2841 L 3800,2839 L 3801,2836 L 3802,2834 L 3804,2833 L 3806,2831 L 3808,2830 L 3810,2830 L 3813,2830 L 3815,2830 L 3818,2831 L 3820,2833 L 3821,2834 L 3823,2836 L 3823,2839 L 3824,2841 L 3824,2920 L 3823,2922 L 3823,2925 L 3821,2927 L 3820,2929 L 3818,2930 L 3815,2931 L 3813,2932 L 3810,2932 L 3808,2931 L 3806,2930 L 3804,2929 L 3800,2931 L 3797,2932 L 3778,2932 L 3774,2931 L 3773,2931 L 3761,2925 L 3758,2923 L 3756,2920 L 3751,2908 L 3749,2905 L 3749,2841 L 3750,2839 L 3750,2836 L 3752,2834 L 3753,2833 L 3755,2831 L 3757,2830 L 3760,2830 L 3762,2830 L 3765,2830 L 3767,2831 L 3769,2833 L 3771,2834 L 3772,2836 L 3773,2839 L 3773,2841 L 3773,2900 L 3776,2906 L 3781,2908 L 3792,2908 L 3799,2905 L 3800,2904 z " style="fill-opacity:1.000000;fill:rgb(107,150,143);stroke:rgb(0,0,0);stroke-width:2"/></g>
<g fill-rule="evenodd"><path d="M 3880,2900 L 3882,2906 L 3890,2909 L 3892,2911 L 3894,2913 L 3895,2915 L 3896,2917 L 3897,2919 L 3897,2922 L 3896,2924 L 3895,2926 L 3893,2928 L 3891,2930 L 3889,2931 L 3887,2932 L 3884,2932 L 3882,2931 L 3880,2931 L 3868,2925 L 3865,2923 L 3863,2920 L 3857,2908 L 3856,2905 L 3856,2802 L 3856,2799 L 3857,2797 L 3858,2795 L 3860,2793 L 3862,2792 L 3864,2791 L 3867,2790 L 3869,2790 L 3872,2791 L 3874,2792 L 3876,2793 L 3878,2795 L 3879,2797 L 3880,2799 L 3880,2802 L 3880,2900 z " style="fill-opacity:1.000000;fill:rgb(56,92,42);stroke:rgb(0,0,0);stroke-width:2"/></g>
<g fill-rule="evenodd"><path d="M 4138,2876 L 4138,2920 L 4138,2922 L 4137,2925 L 4136,2927 L 4135,2929 L 4133,2930 L 4130,2931 L 4128,2932 L 4125,2932 L 4123,2931 L 4121,2930 L 4119,2929 L 4117,2927 L 4116,2925 L 4115,2922 L 4115,2920 L 4115,2802 L 4115,2800 L 4116,2797 L 4117,2795 L 4118,2794 L 4120,2792 L 4122,2791 L 4124,2790 L 4127,2790 L 4172,2790 L 4175,2791 L 4177,2791 L 4190,2798 L 4198,2806 L 4205,2819 L 4206,2823 L 4206,2843 L 4205,2847 L 4198,2859 L 4190,2868 L 4175,2875 L 4172,2876 L 4138,2876M 4138,2852 L 4169,2852 L 4176,2848 L 4179,2846 L 4182,2839 L 4182,2827 L 4179,2820 L 4176,2817 L 4169,2814 L 4138,2814 L 4138,2852 z " style="fill-opacity:1.000000;fill:rgb(236,176,59);stroke:rgb(0,0,0);stroke-width:2"/></g>
<g fill-rule="evenodd"><path d="M 4284,2904 L 4284,2841 L 4284,2839 L 4285,2836 L 4286,2834 L 4287,2833 L 4289,2831 L 4292,2830 L 4294,2830 L 4297,2830 L 4299,2830 L 4301,2831 L 4303,2833 L 4305,2834 L 4306,2836 L 4307,2839 L 4307,2841 L 4307,2920 L 4307,2922 L 4306,2925 L 4305,2927 L 4303,2929 L 4301,2930 L 4299,2931 L 4297,2932 L 4294,2932 L 4292,2931 L 4289,2930 L 4287,2929 L 4284,2931 L 4280,2932 L 4262,2932 L 4258,2931 L 4256,2931 L 4245,2925 L 4242,2923 L 4240,2920 L 4234,2908 L 4233,2905 L 4233,2841 L 4233,2839 L 4234,2836 L 4235,2834 L 4237,2833 L 4239,2831 L 4241,2830 L 4244,2830 L 4246,2830 L 4248,2830 L 4251,2831 L 4253,2833 L 4254,2834 L 4256,2836 L 4256,2839 L 4257,2841 L 4257,2900 L 4259,2906 L 4264,2908 L 4276,2908 L 4283,2905 L 4284,2904 z " style="fill-opacity:1.000000;fill:rgb(251,50,175);stroke:rgb(0,0,0);stroke-width:2"/></g>
<g fill-rule="evenodd"><path d="M 5049,2868 L 5071,2907 L 5072,2909 L 5073,2912 L 5073,2914 L 5072,2916 L 5071,2919 L 5070,2921 L 5068,2922 L 5066,2924 L 5063,2924 L 5061,2925 L 5059,2924 L 5056,2924 L 5054,2922 L 5052,2921 L 5051,2919 L 5022,2868 L 5011,2868 L 5005,2914 L 5005,2917 L 5004,2919 L 5002,2921 L 5000,2923 L 4998,2924 L 4996,2924 L 4993,2925 L 4991,2924 L 4989,2924 L 4986,2922 L 4985,2921 L 4983,2919 L 4982,2916 L 4982,2914 L 4982,2911 L 4997,2793 L 4997,2791 L 4998,2789 L 5000,2787 L 5001,2785 L 5004,2784 L 5006,2783 L 5008,2783 L 5055,2783 L 5059,2784 L 5071,2791 L 5079,2800 L 5084,2813 L 5085,2817 L 5083,2836 L 5082,2839 L 5073,2853 L 5065,2860 L 5063,2862 L 5049,2868M 5029,2845 L 5043,2845 L 5051,2841 L 5055,2838 L 5059,2830 L 5061,2819 L 5058,2812 L 5056,2810 L 5050,2807 L 5019,2807 L 5014,2845 L 5029,2845 z " style="fill-opacity:1.000000;fill:rgb(60,84,236);stroke:rgb(0,0,0);stroke-width:2"/></g>
<g fill-rule="evenodd"><path d="M 5099,2872 L 5102,2850 L 5103,2846 L 5111,2833 L 5112,2832 L 5114,2830 L 5116,2829 L 5128,2823 L 5131,2822 L 5155,2822 L 5159,2823 L 5161,2824 L 5171,2829 L 5173,2830 L 5176,2834 L 5181,2847 L 5182,2851 L 5180,2864 L 5180,2866 L 5179,2868 L 5177,2870 L 5175,2872 L 5173,2873 L 5171,2874 L 5122,2883 L 5120,2895 L 5122,2899 L 5126,2901 L 5143,2901 L 5152,2897 L 5155,2896 L 5157,2895 L 5160,2896 L 5162,2896 L 5164,2898 L 5166,2899 L 5167,2901 L 5168,2903 L 5169,2906 L 5169,2908 L 5169,2911 L 5168,2913 L 5166,2915 L 5164,2917 L 5162,2918 L 5150,2924 L 5147,2925 L 5123,2925 L 5121,2924 L 5117,2923 L 5105,2916 L 5103,2915 L 5101,2911 L 5097,2898 L 5096,2894 L 5099,2872M 5125,2859 L 5158,2852 L 5156,2848 L 5152,2846 L 5135,2846 L 5129,2849 L 5125,2855 L 5125,2859 z " style="fill-opacity:1.000000;fill:rgb(24,219,92);stroke:rgb(0,0,0);stroke-width:2"/></g>
<g fill-rule="evenodd"><path d="M 5411,2901 L 5419,2830 L 5416,2833 L 5415,2834 L 5403,2839 L 5400,2840 L 5398,2840 L 5396,2840 L 5393,2839 L 5391,2838 L 5389,2837 L 5388,2835 L 5387,2832 L 5386,2830 L 5386,2827 L 5386,2825 L 5387,2823 L 5389,2821 L 5391,2819 L 5393,2818 L 5403,2813 L 5414,2803 L 5426,2787 L 5428,2786 L 5430,2784 L 5432,2783 L 5435,2783 L 5437,2783 L 5439,2783 L 5441,2784 L 5443,2786 L 5445,2787 L 5446,2789 L 5447,2792 L 5447,2794 L 5447,2796 L 5434,2901 L 5455,2901 L 5457,2901 L 5459,2902 L 5462,2903 L 5463,2905 L 5465,2907 L 5466,2909 L 5466,2912 L 5466,2914 L 5466,2916 L 5465,2919 L 5463,2921 L 5462,2922 L 5459,2924 L 5457,2924 L 5455,2925 L 5387,2925 L 5385,2924 L 5382,2924 L 5380,2922 L 5378,2921 L 5377,2919 L 5376,2916 L 5375,2914 L 5375,2912 L 5376,2909 L 5377,2907 L 5378,2905 L 5380,2903 L 5382,2902 L 5385,2901 L 5387,2901 L 5411,2901 z " style="fill-opacity:1.000000;fill:rgb(2,26,254);stroke:rgb(0,0,0);stroke-width:2"/></g>
<g fill-rule="evenodd"><path d="M 4571,2900 L 4574,2906 L 4579,2908 L 4590,2908 L 4593,2909 L 4595,2910 L 4597,2912 L 4598,2914 L 4599,2916 L 4600,2919 L 4600,2921 L 4599,2924 L 4598,2926 L 4597,2928 L 4595,2930 L 4593,2931 L 4590,2932 L 4588,2932 L 4575,2932 L 4571,2931 L 4560,2925 L 4558,2924 L 4556,2921 L 4549,2908 L 4548,2905 L 4548,2853 L 4543,2853 L 4540,2853 L 4538,2852 L 4536,2851 L 4534,2849 L 4533,2847 L 4532,2845 L 4531,2843 L 4531,2840 L 4532,2838 L 4533,2835 L 4534,2833 L 4536,2832 L 4538,2831 L 4540,2830 L 4548,2829 L 4548,2802 L 4548,2799 L 4549,2797 L 4550,2795 L 4552,2793 L 4554,2792 L 4556,2791 L 4558,2790 L 4561,2790 L 4563,2791 L 4566,2792 L 4568,2793 L 4569,2795 L 4570,2797 L 4571,2799 L 4571,2802 L 4571,2829 L 4588,2829 L 4590,2830 L 4593,2831 L 4595,2832 L 4597,2833 L 4598,2835 L 4599,2838 L 4600,2840 L 4600,2843 L 4599,2845 L 4598,2847 L 4597,2849 L 4595,2851 L 4593,2852 L 4590,2853 L 4588,2853 L 4571,2853 L 4571,2900 z " style="fill-opacity:1.000000;fill:rgb(67,251,250);stroke:rgb(0,0,0);stroke-width:2"/></g>
<g fill-rule="evenodd"><path d="M 3693,2829 L 3693,2802 L 3693,2799 L 3694,2797 L 3695,2795 L 3697,2793 L 3699,2792 L 3701,2791 L 3704,2790 L 3706,2790 L 3709,2791 L 3711,2792 L 3713,2793 L 3714,2795 L 3716,2797 L 3716,2799 L 3717,2802 L 3717,2920 L 3716,2922 L 3716,2925 L 3714,2927 L 3713,2929 L 3711,2930 L 3709,2931 L 3706,2932 L 3704,2932 L 3701,2931 L 3699,2930 L 3697,2931 L 3694,2932 L 3671,2932 L 3668,2931 L 3655,2925 L 3652,2923 L 3645,2916 L 3638,2903 L 3637,2901 L 3637,2898 L 3637,2864 L 3637,2860 L 3645,2846 L 3652,2839 L 3655,2836 L 3666,2831 L 3669,2830 L 3693,2829M 3693,2854 L 3691,2853 L 3674,2853 L 3667,2857 L 3664,2860 L 3660,2867 L 3660,2895 L 3664,2902 L 3667,2905 L 3674,2908 L 3691,2908 L 3693,2907 L 3693,2854 z " style="fill-opacity:1.000000;fill:rgb(170,58,251);stroke:rgb(0,0,0);stroke-width:2"/></g>
<g fill-rule="evenodd"><path d="M 3564,2932 L 3562,2932 L 3559,2931 L 3548,2925 L 3545,2923 L 3538,2916 L 3531,2903 L 3531,2901 L 3530,2898 L 3530,2862 L 3531,2859 L 3538,2846 L 3546,2837 L 3559,2831 L 3562,2830 L 3583,2830 L 3586,2831 L 3598,2836 L 3601,2839 L 3608,2846 L 3614,2859 L 3615,2860 L 3615,2864 L 3615,2899 L 3614,2903 L 3608,2916 L 3599,2924 L 3586,2931 L 3583,2932 L 3564,2932M 3585,2857 L 3578,2853 L 3567,2853 L 3560,2857 L 3557,2860 L 3554,2867 L 3554,2895 L 3557,2902 L 3560,2905 L 3567,2908 L 3578,2908 L 3585,2905 L 3588,2902 L 3592,2895 L 3592,2867 L 3588,2860 L 3585,2857 z " style="fill-opacity:1.000000;fill:rgb(41,209,230);stroke:rgb(0,0,0);stroke-width:2"/></g>
<g fill-rule="evenodd"><path d="M 3946,2932 L 3944,2932 L 3942,2931 L 3930,2925 L 3927,2923 L 3920,2916 L 3914,2903 L 3913,2901 L 3912,2898 L 3913,2862 L 3914,2859 L 3920,2846 L 3929,2837 L 3941,2831 L 3945,2830 L 3965,2830 L 3969,2831 L 3980,2836 L 3983,2839 L 3990,2846 L 3997,2859 L 3997,2860 L 3998,2864 L 3998,2899 L 3997,2903 L 3990,2916 L 3982,2924 L 3969,2931 L 3965,2932 L 3946,2932M 3942,2857 L 3940,2860 L 3936,2867 L 3936,2895 L 3940,2902 L 3942,2905 L 3949,2908 L 3961,2908 L 3968,2905 L 3971,2902 L 3974,2895 L 3974,2867 L 3971,2860 L 3968,2857 L 3961,2853 L 3949,2853 L 3942,2857 z " style="fill-opacity:1.000000;fill:rgb(5,60,124);stroke:rgb(0,0,0);stroke-width:2"/></g>
<g fill-rule="evenodd"><path d="M 4360,2906 L 4366,2908 L 4383,2908 L 4391,2904 L 4394,2903 L 4396,2903 L 4399,2903 L 4401,2903 L 4403,2905 L 4405,2906 L 4407,2908 L 4408,2910 L 4408,2913 L 4408,2915 L 4408,2918 L 4407,2920 L 4406,2922 L 4404,2924 L 4402,2925 L 4389,2931 L 4385,2932 L 4361,2932 L 4358,2931 L 4346,2925 L 4343,2923 L 4341,2920 L 4335,2908 L 4334,2905 L 4334,2856 L 4335,2853 L 4342,2840 L 4343,2839 L 4346,2836 L 4358,2831 L 4361,2830 L 4385,2829 L 4389,2830 L 4403,2837 L 4406,2840 L 4407,2842 L 4413,2853 L 4414,2856 L 4414,2869 L 4414,2872 L 4413,2874 L 4412,2876 L 4411,2878 L 4409,2879 L 4407,2880 L 4405,2881 L 4358,2890 L 4358,2900 L 4360,2906M 4388,2856 L 4383,2853 L 4366,2853 L 4360,2856 L 4358,2861 L 4358,2866 L 4390,2860 L 4388,2856 z " style="fill-opacity:1.000000;fill:rgb(148,117,216);stroke:rgb(0,0,0);stroke-width:2"/></g>
<g fill-rule="evenodd"><path d="M 4636,2906 L 4641,2908 L 4658,2908 L 4667,2904 L 4669,2903 L 4672,2903 L 4674,2903 L 4676,2903 L 4679,2905 L 4681,2906 L 4682,2908 L 4683,2910 L 4684,2913 L 4684,2915 L 4684,2918 L 4683,2920 L 4681,2922 L 4680,2924 L 4677,2925 L 4664,2931 L 4661,2932 L 4637,2932 L 4633,2931 L 4622,2925 L 4619,2923 L 4617,2920 L 4611,2908 L 4610,2905 L 4610,2856 L 4611,2853 L 4618,2840 L 4619,2839 L 4622,2836 L 4633,2831 L 4637,2830 L 4661,2829 L 4664,2830 L 4679,2837 L 4682,2840 L 4683,2842 L 4688,2853 L 4689,2856 L 4690,2869 L 4689,2872 L 4689,2874 L 4688,2876 L 4686,2878 L 4684,2879 L 4682,2880 L 4680,2881 L 4633,2890 L 4633,2900 L 4636,2906M 4663,2856 L 4658,2853 L 4641,2853 L 4636,2856 L 4633,2861 L 4633,2866 L 4665,2860 L 4663,2856 z " style="fill-opacity:1.000000;fill:rgb(190,97,137);stroke:rgb(0,0,0);stroke-width:2"/></g>
<g fill-rule="evenodd"><path d="M 5513,2922 L 5510,2924 L 5507,2925 L 5503,2924 L 5500,2924 L 5498,2922 L 5496,2921 L 5491,2915 L 5490,2913 L 5489,2911 L 5489,2909 L 5489,2906 L 5489,2904 L 5490,2902 L 5491,2900 L 5499,2893 L 5501,2891 L 5503,2890 L 5507,2890 L 5509,2890 L 5512,2891 L 5514,2892 L 5521,2899 L 5522,2901 L 5523,2903 L 5523,2906 L 5523,2908 L 5523,2910 L 5522,2912 L 5521,2914 L 5519,2916 L 5513,2922 z " style="fill-opacity:1.000000;fill:rgb(249,92,187);stroke:rgb(0,0,0);stroke-width:2"/></g>
<g fill-rule="evenodd"><path d="M 5599,2783 L 5610,2783 L 5614,2784 L 5628,2791 L 5634,2798 L 5637,2802 L 5641,2814 L 5644,2838 L 5644,2841 L 5641,2869 L 5640,2872 L 5632,2894 L 5631,2897 L 5623,2909 L 5614,2917 L 5599,2924 L 5595,2925 L 5582,2924 L 5578,2923 L 5566,2916 L 5558,2908 L 5553,2893 L 5550,2869 L 5550,2866 L 5554,2837 L 5562,2813 L 5563,2811 L 5571,2798 L 5579,2792 L 5582,2790 L 5594,2784 L 5596,2783 L 5599,2783M 5573,2868 L 5576,2887 L 5579,2895 L 5581,2898 L 5587,2901 L 5593,2901 L 5601,2897 L 5604,2894 L 5610,2885 L 5617,2865 L 5621,2840 L 5618,2820 L 5615,2812 L 5613,2810 L 5607,2807 L 5601,2807 L 5593,2810 L 5590,2814 L 5584,2822 L 5577,2843 L 5573,2868 z " style="fill-opacity:1.000000;fill:rgb(168,153,15);stroke:rgb(0,0,0);stroke-width:2"/></g>
<g fill-rule="evenodd"><path d="M 225,1224 L 225,1208 L 288,1208 L 288,1224 L 225,1224 z " style="fill-opacity:1.000000;fill:rgb(149,177,235);stroke:rgb(0,0,0);stroke-width:2"/></g>
<g fill-rule="evenodd"><path d="M 225,1185 L 225,1169 L 288,1169 L 288,1185 L 225,1185 z " style="fill-opacity:1.000000;fill:rgb(241,179,5);stroke:rgb(0,0,0);stroke-width:2"/></g>
<g fill-rule="evenodd"><path d="M 225,1145 L 225,1130 L 288,1130 L 288,1145 L 225,1145 z " style="fill-opacity:1.000000;fill:rgb(239,247,0);stroke:rgb(0,0,0);stroke-width:2"/></g>
<g fill-rule="evenodd"><path d="M 225,1106 L 225,1090 L 288,1090 L 288,1106 L 225,1106 z " style="fill-opacity:1.000000;fill:rgb(233,161,58);stroke:rgb(0,0,0);stroke-width:2"/></g>
<g fill-rule="evenodd"><path d="M 225,1067 L 225,1051 L 288,1051 L 288,1067 L 225,1067 z " style="fill-opacity:1.000000;fill:rgb(229,202,11);stroke:rgb(0,0,0);stroke-width:2"/></g>
<g fill-rule="evenodd"><path d="M 1788,1068 L 1786,1065 L 1786,1060 L 1786,1055 L 1788,1050 L 1790,1046 L 1794,1042 L 1798,1039 L 1802,1037 L 1807,1036 L 1812,1036 L 1817,1037 L 1821,1039 L 1825,1042 L 1829,1046 L 1831,1050 L 1833,1055 L 1833,1060 L 1833,1065 L 1831,1069 L 1829,1074 L 1825,1077 L 1821,1080 L 1817,1082 L 1812,1083 L 1807,1083 L 1801,1082 L 1266,1617 L 1263,1619 L 1259,1620 L 257,1620 L 255,1619 L 253,1619 L 251,1618 L 225,1618 L 225,1602 L 251,1602 L 253,1601 L 255,1600 L 257,1600 L 1255,1600 L 1788,1068 z " style="fill-opacity:1.000000;fill:rgb(203,208,72);stroke:rgb(0,0,0);stroke-width:2"/></g>
<g fill-rule="evenodd"><path d="M 1587,1169 L 1586,1166 L 1585,1161 L 1586,1156 L 1587,1151 L 1590,1147 L 1593,1143 L 1597,1140 L 1601,1138 L 1606,1137 L 1611,1137 L 1616,1138 L 1621,1140 L 1625,1143 L 1628,1147 L 1630,1151 L 1632,1156 L 1632,1161 L 1632,1166 L 1630,1170 L 1628,1175 L 1625,1178 L 1621,1181 L 1616,1183 L 1611,1184 L 1606,1184 L 1601,1183 L 1206,1577 L 1203,1580 L 1201,1580 L 257,1580 L 255,1580 L 253,1579 L 251,1578 L 225,1578 L 225,1563 L 251,1563 L 253,1562 L 255,1561 L 257,1561 L 1195,1561 L 1587,1169 z " style="fill-opacity:1.000000;fill:rgb(71,100,189);stroke:rgb(0,0,0);stroke-width:2"/></g>
<g fill-rule="evenodd"><path d="M 1615,1507 L 1614,1503 L 1613,1498 L 1614,1493 L 1615,1489 L 1618,1484 L 1621,1481 L 1625,1478 L 1629,1476 L 1634,1475 L 1639,1475 L 1644,1476 L 1649,1478 L 1653,1481 L 1656,1484 L 1658,1489 L 1660,1493 L 1660,1498 L 1660,1503 L 1658,1508 L 1656,1512 L 1653,1516 L 1649,1519 L 1644,1521 L 1639,1522 L 1634,1522 L 1629,1520 L 1414,1735 L 1411,1737 L 1409,1738 L 257,1738 L 255,1738 L 253,1737 L 251,1736 L 225,1736 L 225,1720 L 251,1720 L 253,1719 L 255,1718 L 257,1718 L 1403,1718 L 1615,1507 z " style="fill-opacity:1.000000;fill:rgb(31,35,30);stroke:rgb(0,0,0);stroke-width:2"/></g>
<g fill-rule="evenodd"><path d="M 1332,2053 L 257,2053 L 255,2053 L 253,2052 L 251,2051 L 225,2051 L 225,2035 L 251,2035 L 253,2034 L 255,2033 L 257,2033 L 1332,2033 L 1335,2029 L 1338,2025 L 1342,2022 L 1346,2020 L 1351,2019 L 1356,2019 L 1361,2020 L 1365,2022 L 1369,2025 L 1373,2029 L 1375,2033 L 1377,2038 L 1377,2043 L 1377,2048 L 1375,2052 L 1373,2057 L 1369,2060 L 1365,2063 L 1361,2065 L 1356,2066 L 1351,2066 L 1346,2065 L 1342,2063 L 1338,2060 L 1335,2057 L 1332,2053 z " style="fill-opacity:1.000000;fill:rgb(168,28,123);stroke:rgb(0,0,0);stroke-width:2"/></g>
<g fill-rule="evenodd"><path d="M 251,2169 L 225,2169 L 225,2153 L 251,2153 L 253,2152 L 255,2151 L 257,2151 L 1183,2151 L 1185,2152 L 1188,2154 L 1450,2416 L 4293,2416 L 4772,1937 L 4772,231 L 4578,36 L 4051,36 L 4049,39 L 4046,42 L 4042,45 L 4037,47 L 4033,48 L 4028,48 L 4023,47 L 4018,45 L 4014,42 L 4011,39 L 4009,35 L 4007,30 L 4006,25 L 4007,20 L 4009,15 L 4011,11 L 4014,7 L 4018,4 L 4023,2 L 4028,1 L 4033,1 L 4037,2 L 4042,4 L 4046,7 L 4049,11 L 4052,15 L 4052,17 L 4584,17 L 4586,17 L 4589,20 L 4789,220 L 4791,223 L 4792,227 L 4792,1943 L 4791,1944 L 4789,1948 L 4304,2432 L 4301,2435 L 4297,2435 L 1446,2435 L 1442,2435 L 1439,2432 L 1177,2171 L 257,2171 L 255,2171 L 253,2170 L 251,2169 z " style="fill-opacity:1.000000;fill:rgb(100,197,20);stroke:rgb(0,0,0);stroke-width:2"/></g>
<g fill-rule="evenodd"><path d="M 251,2129 L 225,2129 L 225,2114 L 251,2114 L 253,2113 L 255,2112 L 257,2112 L 1240,2112 L 1242,2113 L 1245,2115 L 1480,2350 L 4257,2350 L 4712,1895 L 4712,252 L 4546,86 L 3967,86 L 3964,90 L 3961,94 L 3957,97 L 3953,99 L 3948,100 L 3943,100 L 3938,99 L 3934,97 L 3930,94 L 3926,90 L 3924,86 L 3922,81 L 3922,77 L 3922,72 L 3924,67 L 3926,63 L 3930,59 L 3934,56 L 3938,54 L 3943,53 L 3948,53 L 3953,54 L 3957,56 L 3961,59 L 3964,63 L 3967,67 L 4552,67 L 4554,67 L 4557,70 L 4729,241 L 4731,244 L 4732,248 L 4732,1901 L 4731,1902 L 4729,1906 L 4268,2367 L 4265,2369 L 4261,2370 L 1476,2370 L 1472,2369 L 1469,2367 L 1234,2131 L 257,2131 L 255,2131 L 253,2131 L 251,2129 z " style="fill-opacity:1.000000;fill:rgb(115,90,197);stroke:rgb(0,0,0);stroke-width:2"/></g>
<g fill-rule="evenodd"><path d="M 251,1933 L 225,1933 L 225,1917 L 251,1917 L 253,1916 L 255,1915 L 257,1915 L 1152,1915 L 1154,1913 L 1153,1910 L 1152,1905 L 1153,1900 L 1154,1895 L 1157,1891 L 1160,1887 L 1164,1884 L 1169,1882 L 1174,1881 L 1179,1881 L 1183,1882 L 1188,1884 L 1192,1887 L 1195,1891 L 1198,1895 L 1199,1900 L 1200,1905 L 1199,1910 L 1198,1914 L 1195,1919 L 1192,1922 L 1188,1925 L 1183,1927 L 1179,1928 L 1174,1928 L 1168,1927 L 1161,1933 L 1160,1934 L 1156,1935 L 257,1935 L 255,1934 L 253,1934 L 251,1933 z " style="fill-opacity:1.000000;fill:rgb(94,75,121);stroke:rgb(0,0,0);stroke-width:2"/></g>
<g fill-rule="evenodd"><path d="M 251,2011 L 225,2011 L 225,1996 L 251,1996 L 253,1995 L 255,1994 L 257,1994 L 1238,1994 L 1258,1974 L 1257,1970 L 1256,1966 L 1257,1961 L 1258,1956 L 1261,1952 L 1264,1948 L 1268,1945 L 1273,1943 L 1278,1942 L 1282,1942 L 1287,1943 L 1292,1945 L 1296,1948 L 1299,1952 L 1302,1956 L 1303,1961 L 1304,1966 L 1303,1970 L 1302,1975 L 1299,1979 L 1296,1983 L 1292,1986 L 1287,1988 L 1282,1989 L 1278,1989 L 1272,1988 L 1249,2010 L 1246,2013 L 1242,2013 L 257,2013 L 255,2013 L 253,2013 L 251,2011 z " style="fill-opacity:1.000000;fill:rgb(99,59,112);stroke:rgb(0,0,0);stroke-width:2"/></g>
<g fill-rule="evenodd"><path d="M 251,1815 L 225,1815 L 225,1799 L 251,1799 L 253,1798 L 255,1797 L 257,1797 L 998,1797 L 1020,1775 L 1023,1772 L 1027,1772 L 1481,1772 L 1743,1509 L 1743,1395 L 1744,1391 L 1746,1388 L 1806,1328 L 1810,1327 L 1812,1327 L 2122,1327 L 2133,1316 L 2133,1127 L 2090,1101 L 2088,1100 L 2087,1099 L 2086,1097 L 2085,1095 L 2085,1093 L 2085,128 L 2083,127 L 2079,124 L 2076,120 L 2074,116 L 2072,111 L 2072,107 L 2072,102 L 2074,97 L 2076,93 L 2079,89 L 2083,86 L 2088,84 L 2093,83 L 2098,83 L 2102,84 L 2107,86 L 2111,89 L 2114,93 L 2117,97 L 2118,102 L 2119,107 L 2118,111 L 2117,116 L 2114,120 L 2111,124 L 2107,127 L 2105,128 L 2105,1087 L 2148,1113 L 2150,1114 L 2151,1116 L 2152,1118 L 2153,1120 L 2153,1122 L 2153,1320 L 2152,1323 L 2150,1327 L 2133,1343 L 2130,1345 L 2126,1346 L 1816,1346 L 1763,1399 L 1763,1513 L 1762,1517 L 1761,1519 L 1492,1788 L 1489,1791 L 1487,1791 L 1031,1791 L 1009,1814 L 1006,1816 L 1002,1817 L 257,1817 L 255,1816 L 253,1816 L 251,1815 z " style="fill-opacity:1.000000;fill:rgb(100,36,17);stroke:rgb(0,0,0);stroke-width:2"/></g>
<g fill-rule="evenodd"><path d="M 251,1893 L 225,1893 L 225,1878 L 251,1878 L 253,1876 L 255,1876 L 257,1876 L 1055,1876 L 1063,1868 L 1062,1864 L 1061,1860 L 1062,1855 L 1063,1850 L 1066,1846 L 1069,1842 L 1073,1839 L 1078,1837 L 1082,1836 L 1087,1836 L 1092,1837 L 1097,1839 L 1101,1842 L 1104,1846 L 1106,1850 L 1108,1855 L 1108,1860 L 1108,1864 L 1106,1869 L 1104,1873 L 1101,1877 L 1097,1880 L 1092,1882 L 1087,1883 L 1082,1883 L 1077,1882 L 1064,1894 L 1063,1895 L 1059,1895 L 257,1895 L 255,1895 L 253,1894 L 251,1893 z " style="fill-opacity:1.000000;fill:rgb(158,9,220);stroke:rgb(0,0,0);stroke-width:2"/></g>
<g fill-rule="evenodd"><path d="M 251,1657 L 225,1657 L 225,1641 L 251,1641 L 253,1640 L 255,1640 L 257,1639 L 1309,1639 L 1662,1287 L 1665,1285 L 1669,1284 L 2033,1284 L 2048,1241 L 2048,587 L 1966,500 L 1964,497 L 1963,496 L 1963,159 L 1961,158 L 1957,155 L 1954,151 L 1951,147 L 1950,142 L 1949,137 L 1950,132 L 1951,128 L 1954,123 L 1957,120 L 1961,117 L 1965,115 L 1970,114 L 1975,114 L 1980,115 L 1985,117 L 1989,120 L 1992,123 L 1994,128 L 1996,132 L 1996,137 L 1996,142 L 1994,147 L 1992,151 L 1989,155 L 1985,158 L 1983,159 L 1983,490 L 2065,577 L 2067,580 L 2067,583 L 2067,1242 L 2067,1246 L 2049,1297 L 2048,1299 L 2047,1300 L 2046,1302 L 2044,1303 L 2042,1303 L 2040,1303 L 1673,1303 L 1320,1656 L 1317,1658 L 1315,1659 L 257,1659 L 255,1659 L 253,1658 L 251,1657 z " style="fill-opacity:1.000000;fill:rgb(170,212,172);stroke:rgb(0,0,0);stroke-width:2"/></g>
<g fill-rule="evenodd"><path d="M 251,1696 L 225,1696 L 225,1681 L 251,1681 L 253,1680 L 255,1679 L 257,1679 L 1356,1679 L 1362,1673 L 1361,1670 L 1360,1665 L 1361,1660 L 1362,1655 L 1365,1651 L 1368,1647 L 1372,1644 L 1377,1642 L 1382,1641 L 1386,1641 L 1391,1642 L 1396,1644 L 1400,1647 L 1403,1651 L 1406,1655 L 1407,1660 L 1408,1665 L 1407,1670 L 1406,1674 L 1403,1679 L 1400,1682 L 1396,1685 L 1391,1687 L 1386,1688 L 1382,1688 L 1376,1687 L 1366,1697 L 1364,1698 L 1360,1698 L 257,1698 L 255,1698 L 253,1698 L 251,1696 z " style="fill-opacity:1.000000;fill:rgb(242,27,16);stroke:rgb(0,0,0);stroke-width:2"/></g>
<g fill-rule="evenodd"><path d="M 2358,0 L 2435,0 L 2437,0 L 2440,2 L 2468,30 L 2470,33 L 2471,37 L 2470,1437 L 2470,1439 L 2468,1442 L 2244,1665 L 2241,1667 L 2237,1668 L 2035,1668 L 2035,1846 L 2036,1849 L 2036,1851 L 2036,1853 L 2035,1856 L 2035,1906 L 2064,1906 L 2064,1942 L 1949,1942 L 1949,1906 L 2010,1906 L 2015,1901 L 2015,1668 L 2004,1668 L 1922,1751 L 1923,1754 L 1923,1759 L 1923,1764 L 1921,1768 L 1919,1773 L 1915,1776 L 1911,1779 L 1907,1781 L 1902,1782 L 1897,1782 L 1892,1781 L 1888,1779 L 1884,1776 L 1880,1773 L 1878,1768 L 1876,1764 L 1876,1759 L 1876,1754 L 1878,1749 L 1880,1745 L 1884,1741 L 1888,1738 L 1892,1736 L 1897,1735 L 1902,1735 L 1908,1737 L 1993,1651 L 1996,1649 L 1998,1649 L 2233,1649 L 2451,1431 L 2451,41 L 2429,19 L 2362,19 L 2334,47 L 2334,77 L 2338,81 L 2343,79 L 2348,79 L 2353,80 L 2358,82 L 2362,85 L 2365,89 L 2367,93 L 2369,98 L 2370,103 L 2369,108 L 2367,113 L 2365,117 L 2362,120 L 2358,123 L 2353,125 L 2348,126 L 2343,126 L 2339,125 L 2334,123 L 2330,120 L 2327,117 L 2324,113 L 2323,108 L 2322,103 L 2323,98 L 2324,95 L 2316,87 L 2315,83 L 2314,81 L 2314,43 L 2315,39 L 2317,36 L 2352,1 L 2356,0 L 2358,0 z " style="fill-opacity:1.000000;fill:rgb(175,59,51);stroke:rgb(0,0,0);stroke-width:2"/></g>
<g fill-rule="evenodd"><path d="M 1780,2097 L 1908,2097 L 1908,2150 L 1920,2150 L 1975,2095 L 1949,2095 L 1949,2060 L 2064,2060 L 2064,2095 L 2003,2095 L 1930,2168 L 1928,2169 L 1924,2169 L 1908,2169 L 1908,2222 L 1750,2222 L 1750,2097 L 1760,2097 L 1760,2028 L 1697,1964 L 1691,1965 L 1686,1965 L 1681,1964 L 1677,1962 L 1673,1959 L 1669,1956 L 1667,1952 L 1665,1947 L 1665,1942 L 1665,1937 L 1667,1932 L 1669,1928 L 1673,1924 L 1677,1921 L 1681,1919 L 1686,1918 L 1691,1918 L 1696,1919 L 1700,1921 L 1704,1924 L 1707,1928 L 1710,1932 L 1711,1937 L 1712,1942 L 1711,1947 L 1710,1950 L 1778,2018 L 1779,2020 L 1780,2024 L 1780,2097 z " style="fill-opacity:1.000000;fill:rgb(205,227,80);stroke:rgb(0,0,0);stroke-width:2"/></g>
<g fill-rule="evenodd"><path d="M 1949,1965 L 1949,1957 L 2064,1957 L 2064,1993 L 1949,1993 L 1949,1985 L 1910,1985 L 1906,1984 L 1905,1983 L 1902,1981 L 1822,1881 L 1821,1879 L 1821,1876 L 1821,1602 L 1821,1600 L 1823,1597 L 1907,1513 L 1842,1513 L 1838,1518 L 1834,1520 L 1830,1522 L 1825,1523 L 1820,1523 L 1815,1522 L 1811,1520 L 1807,1518 L 1803,1514 L 1801,1510 L 1799,1505 L 1799,1500 L 1799,1495 L 1801,1490 L 1803,1486 L 1807,1482 L 1811,1480 L 1815,1478 L 1820,1476 L 1825,1476 L 1830,1478 L 1834,1480 L 1838,1482 L 1841,1486 L 1844,1490 L 1845,1493 L 2294,1493 L 2390,1397 L 2390,82 L 2388,81 L 2384,78 L 2381,75 L 2378,71 L 2377,66 L 2376,61 L 2377,56 L 2378,51 L 2381,47 L 2384,43 L 2388,40 L 2393,38 L 2397,37 L 2402,37 L 2407,38 L 2412,40 L 2416,43 L 2419,47 L 2421,51 L 2423,56 L 2424,61 L 2423,66 L 2421,71 L 2419,75 L 2416,78 L 2412,81 L 2410,82 L 2410,1403 L 2409,1405 L 2407,1408 L 2305,1510 L 2302,1512 L 2298,1513 L 1935,1513 L 1840,1608 L 1840,1872 L 1914,1965 L 1949,1965 z " style="fill-opacity:1.000000;fill:rgb(72,71,21);stroke:rgb(0,0,0);stroke-width:2"/></g>
<g fill-rule="evenodd"><path d="M 2631,2016 L 2631,1897 L 2788,1897 L 2788,2031 L 2657,2031 L 2653,2034 L 2651,2035 L 2647,2036 L 2528,2036 L 2528,2044 L 2414,2044 L 2414,2009 L 2528,2009 L 2528,2016 L 2631,2016 z " style="fill-opacity:1.000000;fill:rgb(92,187,111);stroke:rgb(0,0,0);stroke-width:2"/></g>
<g fill-rule="evenodd"><path d="M 2528,1985 L 2528,1993 L 2414,1993 L 2414,1957 L 2528,1957 L 2528,1965 L 2540,1965 L 2562,1943 L 2562,1885 L 2562,1884 L 2564,1880 L 2634,1810 L 2634,1678 L 2792,1678 L 2792,1812 L 2660,1812 L 2582,1890 L 2582,1947 L 2581,1951 L 2580,1953 L 2550,1983 L 2548,1984 L 2544,1985 L 2528,1985 z " style="fill-opacity:1.000000;fill:rgb(34,25,186);stroke:rgb(0,0,0);stroke-width:2"/></g>
<g fill-rule="evenodd"><path d="M 2634,2196 L 2544,2196 L 2540,2195 L 2538,2194 L 2463,2119 L 2461,2115 L 2461,2113 L 2461,2095 L 2414,2095 L 2414,2060 L 2528,2060 L 2528,2095 L 2481,2095 L 2481,2109 L 2548,2176 L 2634,2176 L 2634,2119 L 2792,2119 L 2792,2253 L 2634,2253 L 2634,2196 z " style="fill-opacity:1.000000;fill:rgb(155,125,245);stroke:rgb(0,0,0);stroke-width:2"/></g>
<g fill-rule="evenodd"><path d="M 1256,1344 L 257,1344 L 255,1344 L 253,1343 L 251,1342 L 225,1342 L 225,1326 L 251,1326 L 253,1325 L 255,1325 L 257,1324 L 1261,1324 L 1263,1322 L 1267,1319 L 1272,1317 L 1277,1316 L 1282,1316 L 1287,1317 L 1291,1319 L 1295,1322 L 1298,1325 L 1301,1330 L 1302,1334 L 1303,1339 L 1302,1344 L 1301,1349 L 1298,1353 L 1295,1357 L 1291,1360 L 1287,1362 L 1282,1363 L 1277,1363 L 1272,1362 L 1267,1360 L 1263,1357 L 1260,1353 L 1258,1349 L 1256,1344 z " style="fill-opacity:1.000000;fill:rgb(11,225,26);stroke:rgb(0,0,0);stroke-width:2"/></g>
<g fill-rule="evenodd"><path d="M 1085,1403 L 1084,1398 L 1085,1393 L 1086,1388 L 1089,1384 L 1092,1380 L 1096,1377 L 1100,1375 L 1105,1374 L 1110,1374 L 1115,1375 L 1119,1377 L 1123,1380 L 1127,1384 L 1129,1388 L 1131,1393 L 1131,1398 L 1131,1402 L 1129,1407 L 1127,1411 L 1123,1415 L 1119,1418 L 1115,1420 L 1110,1421 L 1105,1421 L 1099,1420 L 1098,1421 L 1096,1422 L 1092,1423 L 257,1423 L 255,1423 L 253,1422 L 251,1421 L 225,1421 L 225,1405 L 251,1405 L 253,1404 L 255,1403 L 257,1403 L 1085,1403 z " style="fill-opacity:1.000000;fill:rgb(28,127,35);stroke:rgb(0,0,0);stroke-width:2"/></g>
<g fill-rule="evenodd"><path d="M 982,1462 L 257,1462 L 255,1462 L 253,1461 L 251,1460 L 225,1460 L 225,1445 L 251,1445 L 253,1443 L 255,1443 L 257,1443 L 986,1443 L 988,1443 L 992,1444 L 996,1448 L 1002,1447 L 1007,1447 L 1012,1448 L 1016,1450 L 1020,1453 L 1024,1456 L 1026,1461 L 1028,1465 L 1028,1470 L 1028,1475 L 1026,1480 L 1024,1484 L 1020,1488 L 1016,1491 L 1012,1493 L 1007,1494 L 1002,1494 L 997,1493 L 993,1491 L 989,1488 L 985,1484 L 983,1480 L 981,1475 L 981,1470 L 981,1465 L 982,1462 z " style="fill-opacity:1.000000;fill:rgb(248,41,248);stroke:rgb(0,0,0);stroke-width:2"/></g>
<g fill-rule="evenodd"><path d="M 251,1500 L 225,1500 L 225,1484 L 251,1484 L 253,1483 L 255,1482 L 257,1482 L 951,1482 L 954,1483 L 958,1485 L 985,1513 L 1178,1513 L 1520,1170 L 1520,452 L 1520,451 L 1522,447 L 1947,22 L 1951,20 L 1953,20 L 2192,20 L 2195,16 L 2198,12 L 2202,9 L 2207,7 L 2211,6 L 2216,6 L 2221,7 L 2226,9 L 2230,12 L 2233,16 L 2235,20 L 2237,25 L 2238,30 L 2237,35 L 2235,39 L 2233,44 L 2230,47 L 2226,50 L 2221,52 L 2216,53 L 2211,53 L 2207,52 L 2202,50 L 2198,47 L 2195,44 L 2192,40 L 1957,40 L 1540,457 L 1540,1174 L 1539,1178 L 1537,1181 L 1188,1531 L 1186,1531 L 1182,1532 L 979,1532 L 976,1531 L 974,1529 L 947,1502 L 257,1502 L 255,1501 L 253,1501 L 251,1500 z " style="fill-opacity:1.000000;fill:rgb(164,27,19);stroke:rgb(0,0,0);stroke-width:2"/></g>
<g fill-rule="evenodd"><path d="M 251,1263 L 225,1263 L 225,1248 L 251,1248 L 253,1247 L 255,1246 L 257,1246 L 433,1246 L 1104,575 L 1104,232 L 1105,230 L 1107,227 L 1247,88 L 1250,86 L 1252,86 L 1658,86 L 1660,87 L 1663,89 L 1721,147 L 1727,145 L 1732,145 L 1737,146 L 1741,148 L 1745,151 L 1749,155 L 1751,159 L 1753,164 L 1753,169 L 1753,174 L 1751,179 L 1749,183 L 1745,186 L 1741,189 L 1737,191 L 1732,192 L 1727,192 L 1722,191 L 1718,189 L 1714,186 L 1710,183 L 1708,179 L 1706,174 L 1706,169 L 1706,164 L 1708,161 L 1652,106 L 1256,106 L 1123,238 L 1123,579 L 1123,583 L 1121,586 L 442,1264 L 441,1265 L 437,1265 L 257,1265 L 255,1265 L 253,1265 L 251,1263 z " style="fill-opacity:1.000000;fill:rgb(181,202,78);stroke:rgb(0,0,0);stroke-width:2"/></g>
<g fill-rule="evenodd"><path d="M 2173,1024 L 2175,1025 L 2179,1028 L 2183,1032 L 2185,1036 L 2187,1041 L 2187,1046 L 2187,1051 L 2185,1055 L 2183,1060 L 2179,1063 L 2175,1066 L 2171,1068 L 2166,1069 L 2161,1069 L 2156,1068 L 2152,1066 L 2148,1063 L 2144,1060 L 2142,1055 L 2140,1051 L 2140,1046 L 2140,1041 L 2142,1036 L 2144,1032 L 2148,1028 L 2152,1025 L 2154,1024 L 2154,188 L 2154,184 L 2157,181 L 2218,119 L 2217,116 L 2216,111 L 2217,106 L 2218,102 L 2221,97 L 2224,94 L 2228,91 L 2233,89 L 2237,88 L 2242,88 L 2247,89 L 2252,91 L 2256,94 L 2259,97 L 2261,102 L 2263,106 L 2264,111 L 2263,116 L 2261,121 L 2259,125 L 2256,129 L 2252,132 L 2247,134 L 2242,135 L 2237,135 L 2232,133 L 2173,192 L 2173,1024 z " style="fill-opacity:1.000000;fill:rgb(232,152,50);stroke:rgb(0,0,0);stroke-width:2"/></g>
<g fill-rule="evenodd"><path d="M 1833,1205 L 1843,1195 L 1847,1193 L 1849,1193 L 1986,1193 L 1988,1189 L 1992,1185 L 1996,1182 L 2000,1180 L 2005,1179 L 2010,1179 L 2015,1180 L 2019,1182 L 2023,1185 L 2027,1189 L 2029,1193 L 2031,1198 L 2031,1203 L 2031,1208 L 2029,1212 L 2027,1217 L 2023,1220 L 2019,1223 L 2015,1225 L 2010,1226 L 2005,1226 L 2000,1225 L 1996,1223 L 1992,1220 L 1988,1217 L 1986,1213 L 1853,1213 L 1847,1219 L 1848,1222 L 1848,1227 L 1848,1232 L 1846,1236 L 1844,1241 L 1841,1244 L 1837,1247 L 1832,1249 L 1827,1250 L 1822,1250 L 1817,1249 L 1813,1247 L 1809,1244 L 1806,1241 L 1803,1236 L 1802,1232 L 1801,1227 L 1802,1222 L 1803,1217 L 1806,1213 L 1809,1209 L 1813,1206 L 1817,1204 L 1822,1203 L 1827,1203 L 1833,1205 z " style="fill-opacity:1.000000;fill:rgb(56,224,121);stroke:rgb(0,0,0);stroke-width:2"/></g>
<g fill-rule="evenodd"><path d="M 2584,1363 L 2582,1367 L 2578,1370 L 2574,1373 L 2570,1375 L 2565,1376 L 2560,1376 L 2555,1375 L 2551,1373 L 2547,1370 L 2544,1367 L 2541,1362 L 2540,1358 L 2539,1353 L 2540,1348 L 2541,1343 L 2544,1339 L 2547,1335 L 2551,1332 L 2555,1330 L 2560,1329 L 2565,1329 L 2570,1330 L 2574,1332 L 2578,1335 L 2582,1339 L 2584,1343 L 2813,1343 L 2815,1343 L 2818,1345 L 3036,1562 L 3037,1564 L 3038,1568 L 3038,1678 L 3097,1678 L 3101,1677 L 3103,1678 L 3106,1678 L 3106,1680 L 3108,1681 L 3109,1683 L 3110,1685 L 3110,1687 L 3110,1689 L 3109,1691 L 3108,1693 L 3106,1695 L 3106,1735 L 3199,1735 L 3200,1736 L 3204,1738 L 3226,1761 L 3228,1764 L 3229,1768 L 3229,2015 L 3231,2016 L 3235,2019 L 3239,2023 L 3241,2027 L 3242,2032 L 3243,2037 L 3242,2042 L 3241,2046 L 3239,2051 L 3235,2054 L 3231,2057 L 3227,2059 L 3222,2060 L 3217,2060 L 3212,2059 L 3208,2057 L 3204,2054 L 3200,2051 L 3198,2046 L 3196,2042 L 3196,2037 L 3196,2032 L 3198,2027 L 3200,2023 L 3204,2019 L 3208,2016 L 3210,2015 L 3210,1772 L 3193,1755 L 3106,1755 L 3106,1812 L 2949,1812 L 2949,1678 L 3018,1678 L 3018,1572 L 2809,1363 L 2584,1363 z " style="fill-opacity:1.000000;fill:rgb(77,61,52);stroke:rgb(0,0,0);stroke-width:2"/></g>
<g fill-rule="evenodd"><path d="M 5813,10 L 5812,3049 L 5812,3051 L 5810,3055 L 5806,3057 L 5803,3057 L 9,3057 L 6,3057 L 4,3056 L 2,3055 L 0,3051 L 0,3047 L 0,10 L 0,6 L 1,5 L 2,3 L 6,1 L 9,0 L 1890,0 L 1893,2 L 1895,3 L 1897,6 L 1898,10 L 1898,12 L 1897,14 L 1895,17 L 1788,124 L 1786,125 L 1784,126 L 1782,127 L 1779,126 L 1776,125 L 1766,115 L 1742,105 L 1739,105 L 1735,104 L 1692,61 L 1675,50 L 1655,46 L 1253,46 L 1233,50 L 1216,61 L 1079,198 L 1068,215 L 1064,235 L 1064,554 L 1063,558 L 1062,560 L 418,1204 L 416,1205 L 412,1206 L 331,1206 L 329,1206 L 325,1204 L 323,1201 L 322,1200 L 321,1196 L 323,1184 L 323,1170 L 321,1157 L 323,1144 L 323,1131 L 321,1117 L 323,1105 L 323,1091 L 321,1078 L 323,1066 L 323,1052 L 320,1036 L 315,1027 L 314,1023 L 315,1019 L 316,1018 L 319,1001 L 319,975 L 316,959 L 307,946 L 294,937 L 277,933 L 236,933 L 220,936 L 206,945 L 197,958 L 194,975 L 194,1001 L 197,1016 L 199,1020 L 199,1023 L 199,1027 L 193,1035 L 190,1052 L 190,1066 L 192,1079 L 190,1091 L 190,1105 L 192,1118 L 190,1131 L 190,1144 L 192,1158 L 190,1170 L 190,1184 L 192,1197 L 190,1209 L 190,1223 L 192,1236 L 190,1249 L 190,1263 L 192,1273 L 192,1275 L 192,1277 L 193,1279 L 197,1285 L 257,1285 L 259,1285 L 261,1286 L 262,1287 L 288,1287 L 288,1303 L 262,1303 L 261,1304 L 259,1305 L 257,1305 L 197,1305 L 192,1313 L 192,1316 L 192,1318 L 190,1327 L 190,1341 L 192,1351 L 192,1353 L 192,1356 L 193,1358 L 197,1364 L 257,1364 L 259,1364 L 261,1365 L 262,1366 L 288,1366 L 288,1382 L 262,1382 L 261,1383 L 259,1383 L 257,1384 L 197,1384 L 192,1391 L 192,1394 L 192,1396 L 190,1406 L 190,1420 L 192,1433 L 190,1446 L 190,1459 L 192,1473 L 190,1485 L 190,1499 L 192,1509 L 192,1511 L 192,1513 L 193,1515 L 197,1521 L 257,1521 L 259,1522 L 261,1522 L 262,1523 L 288,1523 L 288,1539 L 262,1539 L 261,1540 L 259,1541 L 257,1541 L 197,1541 L 192,1549 L 192,1552 L 192,1554 L 190,1564 L 190,1577 L 192,1591 L 190,1603 L 190,1617 L 192,1630 L 190,1642 L 190,1656 L 192,1669 L 190,1682 L 190,1696 L 192,1709 L 190,1721 L 190,1735 L 192,1745 L 192,1747 L 192,1750 L 193,1751 L 197,1757 L 257,1757 L 259,1758 L 261,1758 L 262,1759 L 288,1759 L 288,1775 L 262,1775 L 261,1776 L 259,1777 L 257,1777 L 197,1777 L 192,1785 L 192,1788 L 192,1790 L 190,1800 L 190,1814 L 192,1824 L 192,1826 L 192,1828 L 193,1830 L 197,1836 L 257,1836 L 259,1836 L 261,1837 L 262,1838 L 288,1838 L 288,1854 L 262,1854 L 261,1855 L 259,1856 L 257,1856 L 197,1856 L 192,1864 L 192,1867 L 192,1869 L 190,1879 L 190,1892 L 192,1906 L 190,1918 L 190,1932 L 192,1942 L 192,1944 L 192,1946 L 193,1948 L 197,1954 L 257,1954 L 259,1955 L 261,1955 L 262,1956 L 288,1956 L 288,1972 L 262,1972 L 261,1973 L 259,1974 L 257,1974 L 197,1974 L 192,1982 L 192,1985 L 192,1987 L 190,1997 L 190,2010 L 192,2024 L 190,2036 L 190,2050 L 192,2060 L 192,2062 L 192,2064 L 193,2066 L 197,2072 L 257,2072 L 259,2073 L 261,2073 L 262,2074 L 288,2074 L 288,2090 L 262,2090 L 261,2091 L 259,2092 L 257,2092 L 197,2092 L 192,2100 L 192,2103 L 192,2105 L 190,2115 L 190,2129 L 192,2142 L 190,2154 L 190,2168 L 192,2178 L 192,2180 L 192,2183 L 193,2184 L 197,2191 L 351,2191 L 352,2191 L 356,2193 L 373,2211 L 1158,2211 L 1160,2212 L 1163,2214 L 1410,2460 L 1427,2471 L 1447,2475 L 4296,2475 L 4316,2471 L 4333,2460 L 4817,1977 L 4828,1960 L 4832,1940 L 4832,228 L 4828,208 L 4817,191 L 4643,17 L 4642,16 L 4640,12 L 4640,8 L 4642,5 L 4645,2 L 4646,1 L 4650,0 L 5804,0 L 5806,1 L 5810,3 L 5812,6 L 5813,10M 2873,2954 L 2939,2954 L 3000,2929 L 3047,2883 L 3072,2822 L 3072,2756 L 3047,2695 L 3000,2648 L 2939,2623 L 2873,2622 L 2812,2648 L 2765,2694 L 2740,2755 L 2740,2821 L 2765,2882 L 2812,2929 L 2873,2954M 149,2992 L 2287,2992 L 2287,2711 L 149,2711 L 149,2992M 174,410 L 235,435 L 301,435 L 362,410 L 409,363 L 434,302 L 435,236 L 409,175 L 363,128 L 302,103 L 236,103 L 175,128 L 128,175 L 103,236 L 103,302 L 128,363 L 174,410M 3344,3013 L 4830,3013 L 4830,2732 L 3344,2732 L 3344,3013M 4925,2725 L 4925,3006 L 5700,3006 L 5700,2725 L 4925,2725M 5449,410 L 5510,435 L 5576,435 L 5637,410 L 5684,363 L 5709,302 L 5709,236 L 5684,175 L 5638,128 L 5577,103 L 5511,103 L 5450,128 L 5403,175 L 5378,236 L 5377,302 L 5403,363 L 5449,410M 345,2211 L 345,2210 L 200,2210 L 192,2218 L 198,2233 L 199,2237 L 198,2239 L 197,2241 L 194,2258 L 194,2284 L 197,2300 L 206,2313 L 219,2323 L 236,2326 L 277,2326 L 293,2323 L 307,2314 L 316,2301 L 319,2284 L 319,2258 L 316,2243 L 315,2240 L 314,2239 L 315,2235 L 315,2233 L 322,2217 L 323,2215 L 325,2213 L 327,2212 L 331,2211 L 345,2211 z " style="fill-opacity:1.000000;fill:rgb(188,95,78);stroke:rgb(0,0,0);stroke-width:2"/></g>
<g fill-rule="evenodd"><path d="M 1435,2171 L 1402,2171 L 1395,2178 L 1395,2187 L 1395,2188 L 1392,2192 L 1391,2193 L 1387,2194 L 1383,2194 L 1382,2194 L 1378,2192 L 1296,2110 L 1295,2108 L 1294,2105 L 1294,2101 L 1294,2099 L 1296,2096 L 1300,2093 L 1303,2093 L 1311,2093 L 1315,2094 L 1318,2097 L 1341,2106 L 1366,2106 L 1383,2099 L 1387,2099 L 1389,2100 L 1391,2101 L 1394,2104 L 1395,2107 L 1395,2141 L 1402,2148 L 1435,2148 L 1435,2097 L 1502,2097 L 1502,2063 L 1496,2057 L 1427,2057 L 1425,2056 L 1422,2055 L 1419,2052 L 1417,2048 L 1417,2030 L 1408,2007 L 1390,1989 L 1366,1979 L 1352,1979 L 1350,1978 L 1347,1976 L 1345,1975 L 1344,1971 L 1344,1953 L 1334,1930 L 1316,1912 L 1293,1902 L 1267,1902 L 1253,1908 L 1250,1908 L 1246,1908 L 1243,1905 L 1241,1904 L 1240,1900 L 1240,1892 L 1230,1869 L 1212,1851 L 1210,1850 L 1208,1848 L 1206,1845 L 1206,1843 L 1206,1839 L 1207,1836 L 1210,1833 L 1212,1832 L 1215,1831 L 1484,1831 L 1504,1827 L 1521,1816 L 1778,1558 L 1782,1556 L 1784,1556 L 1787,1556 L 1791,1557 L 1794,1560 L 1795,1562 L 1795,1563 L 1795,1567 L 1794,1571 L 1784,1585 L 1781,1605 L 1781,1875 L 1782,1882 L 1783,1890 L 1784,1892 L 1784,1895 L 1789,1901 L 1792,1908 L 1870,2005 L 1873,2008 L 1875,2010 L 1880,2014 L 1884,2016 L 1949,2016 L 1949,2009 L 2064,2009 L 2064,2044 L 1949,2044 L 1949,2036 L 1916,2036 L 1914,2040 L 1909,2045 L 1909,2047 L 1908,2051 L 1905,2054 L 1901,2055 L 1830,2056 L 1826,2055 L 1823,2053 L 1822,2051 L 1820,2047 L 1820,2025 L 1816,2005 L 1805,1988 L 1754,1936 L 1752,1933 L 1752,1929 L 1742,1906 L 1724,1888 L 1701,1878 L 1676,1878 L 1652,1888 L 1634,1906 L 1625,1929 L 1625,1955 L 1634,1978 L 1652,1996 L 1676,2006 L 1679,2006 L 1683,2007 L 1717,2041 L 1719,2044 L 1720,2048 L 1720,2069 L 1718,2072 L 1713,2081 L 1709,2097 L 1709,2222 L 1712,2237 L 1721,2251 L 1734,2260 L 1751,2263 L 1907,2263 L 1923,2260 L 1936,2252 L 1945,2238 L 1949,2221 L 1949,2207 L 1950,2203 L 1950,2202 L 1953,2199 L 1960,2194 L 2015,2139 L 2019,2137 L 2022,2136 L 2063,2136 L 2078,2133 L 2092,2124 L 2101,2111 L 2105,2094 L 2105,2061 L 2103,2054 L 2104,2045 L 2097,2038 L 2092,2030 L 2091,2026 L 2092,2024 L 2093,2020 L 2097,2014 L 2104,2008 L 2103,1998 L 2105,1992 L 2105,1958 L 2103,1949 L 2105,1941 L 2105,1907 L 2102,1891 L 2093,1878 L 2078,1867 L 2075,1864 L 2075,1862 L 2075,1857 L 2076,1851 L 2075,1844 L 2075,1718 L 2075,1714 L 2076,1713 L 2078,1711 L 2081,1709 L 2085,1708 L 2236,1708 L 2256,1704 L 2273,1693 L 2495,1471 L 2507,1454 L 2511,1434 L 2511,1415 L 2511,1411 L 2512,1409 L 2515,1406 L 2519,1405 L 2521,1405 L 2524,1406 L 2526,1407 L 2550,1416 L 2575,1416 L 2599,1407 L 2601,1404 L 2603,1403 L 2607,1403 L 2788,1403 L 2792,1403 L 2795,1406 L 2976,1587 L 2977,1589 L 2978,1593 L 2978,1627 L 2977,1631 L 2976,1632 L 2973,1635 L 2970,1637 L 2950,1637 L 2934,1640 L 2921,1649 L 2911,1662 L 2908,1679 L 2908,1811 L 2911,1826 L 2920,1840 L 2927,1845 L 2929,1848 L 2931,1851 L 2931,1853 L 2930,1857 L 2928,1860 L 2927,1861 L 2923,1863 L 2912,1874 L 2906,1889 L 2906,1945 L 2912,1952 L 2946,1952 L 2946,1897 L 3103,1897 L 3103,1952 L 3137,1952 L 3143,1945 L 3143,1889 L 3137,1874 L 3123,1860 L 3122,1857 L 3122,1853 L 3123,1851 L 3125,1848 L 3135,1841 L 3144,1828 L 3147,1811 L 3148,1803 L 3148,1801 L 3150,1798 L 3154,1795 L 3155,1795 L 3162,1795 L 3165,1796 L 3167,1798 L 3169,1801 L 3170,1805 L 3170,1992 L 3169,1996 L 3168,1998 L 3165,2001 L 3162,2010 L 3159,2012 L 3155,2014 L 3151,2014 L 3148,2012 L 3145,2010 L 3144,2008 L 3143,2004 L 3143,1982 L 3137,1976 L 3103,1976 L 3103,2031 L 2946,2031 L 2946,1976 L 2912,1976 L 2906,1982 L 2906,2039 L 2912,2053 L 2923,2065 L 2927,2067 L 2931,2069 L 2933,2072 L 2934,2076 L 2933,2080 L 2931,2083 L 2929,2084 L 2926,2085 L 2915,2097 L 2909,2111 L 2909,2168 L 2916,2174 L 2949,2174 L 2949,2119 L 3106,2119 L 3106,2174 L 3140,2174 L 3146,2168 L 3146,2111 L 3140,2097 L 3129,2085 L 3125,2084 L 3122,2082 L 3119,2078 L 3119,2074 L 3119,2071 L 3122,2067 L 3123,2066 L 3126,2065 L 3137,2053 L 3139,2049 L 3140,2048 L 3142,2047 L 3145,2045 L 3149,2045 L 3151,2046 L 3154,2048 L 3157,2051 L 3165,2073 L 3183,2091 L 3207,2100 L 3232,2100 L 3255,2091 L 3273,2073 L 3283,2049 L 3283,2024 L 3273,2001 L 3271,1998 L 3270,1996 L 3269,1992 L 3269,1769 L 3265,1749 L 3254,1732 L 3233,1710 L 3216,1699 L 3196,1695 L 3160,1695 L 3156,1694 L 3154,1693 L 3151,1690 L 3150,1689 L 3146,1668 L 3145,1667 L 3144,1663 L 3136,1649 L 3122,1640 L 3105,1637 L 3086,1637 L 3084,1636 L 3080,1634 L 3078,1631 L 3078,1627 L 3078,1569 L 3074,1549 L 3062,1532 L 2849,1318 L 2832,1307 L 2812,1303 L 2607,1303 L 2603,1302 L 2601,1301 L 2599,1299 L 2575,1289 L 2550,1289 L 2526,1299 L 2524,1300 L 2521,1301 L 2517,1300 L 2515,1299 L 2513,1298 L 2511,1295 L 2511,1291 L 2511,38 L 2507,18 L 2504,14 L 2504,10 L 2504,6 L 2505,5 L 2508,2 L 2510,1 L 2514,0 L 3915,0 L 3917,1 L 3920,3 L 3923,6 L 3923,10 L 3923,14 L 3920,17 L 3919,18 L 3909,23 L 3891,40 L 3882,64 L 3882,89 L 3891,113 L 3909,130 L 3933,140 L 3958,140 L 3981,131 L 3984,128 L 3986,127 L 3990,126 L 4528,127 L 4529,127 L 4533,129 L 4670,267 L 4671,269 L 4672,273 L 4672,1876 L 4671,1878 L 4669,1881 L 4242,2308 L 4240,2309 L 4236,2310 L 3124,2310 L 3120,2309 L 3117,2307 L 3116,2306 L 3114,2302 L 3114,2300 L 3115,2296 L 3116,2294 L 3118,2292 L 3129,2287 L 3140,2276 L 3146,2261 L 3146,2205 L 3140,2198 L 3106,2198 L 3106,2253 L 2949,2253 L 2949,2198 L 2916,2198 L 2909,2205 L 2909,2261 L 2915,2276 L 2926,2287 L 2937,2292 L 2940,2294 L 2941,2298 L 2941,2302 L 2941,2304 L 2938,2307 L 2935,2309 L 2931,2310 L 2811,2310 L 2807,2309 L 2804,2307 L 2802,2304 L 2801,2300 L 2802,2296 L 2803,2294 L 2806,2292 L 2820,2282 L 2829,2269 L 2832,2252 L 2832,2120 L 2830,2105 L 2821,2091 L 2806,2081 L 2804,2078 L 2804,2074 L 2804,2072 L 2805,2068 L 2808,2066 L 2817,2060 L 2826,2047 L 2829,2030 L 2829,1898 L 2826,1882 L 2818,1869 L 2810,1864 L 2808,1861 L 2807,1859 L 2806,1855 L 2806,1853 L 2808,1850 L 2811,1847 L 2820,1841 L 2829,1828 L 2832,1811 L 2832,1679 L 2830,1663 L 2821,1649 L 2807,1640 L 2791,1637 L 2635,1637 L 2619,1640 L 2606,1649 L 2596,1662 L 2593,1679 L 2593,1790 L 2592,1794 L 2591,1795 L 2538,1849 L 2529,1862 L 2527,1865 L 2525,1865 L 2521,1866 L 2489,1866 L 2483,1873 L 2483,1906 L 2528,1906 L 2528,1942 L 2414,1942 L 2414,1906 L 2442,1906 L 2441,1866 L 2406,1866 L 2391,1872 L 2380,1884 L 2374,1898 L 2374,1905 L 2381,1913 L 2383,1914 L 2386,1917 L 2387,1920 L 2387,1922 L 2387,1926 L 2386,1928 L 2380,1936 L 2374,1942 L 2374,1952 L 2373,1958 L 2373,1992 L 2374,2001 L 2373,2010 L 2373,2043 L 2374,2052 L 2373,2061 L 2373,2094 L 2376,2110 L 2385,2124 L 2398,2133 L 2415,2136 L 2424,2136 L 2428,2138 L 2431,2141 L 2436,2149 L 2508,2221 L 2525,2232 L 2545,2236 L 2585,2236 L 2587,2237 L 2590,2239 L 2592,2242 L 2593,2244 L 2593,2252 L 2596,2268 L 2605,2282 L 2620,2292 L 2622,2295 L 2623,2296 L 2624,2300 L 2623,2304 L 2621,2307 L 2618,2309 L 2614,2310 L 1499,2310 L 1495,2308 L 1494,2307 L 1466,2280 L 1464,2276 L 1463,2272 L 1464,2269 L 1465,2267 L 1468,2264 L 1469,2263 L 1473,2262 L 1496,2262 L 1502,2256 L 1502,2222 L 1435,2222 L 1435,2171M 1526,2097 L 1593,2097 L 1593,2148 L 1626,2148 L 1633,2141 L 1633,2089 L 1627,2074 L 1616,2063 L 1601,2057 L 1533,2057 L 1526,2063 L 1526,2097M 1526,2222 L 1526,2256 L 1533,2262 L 1601,2262 L 1616,2256 L 1627,2245 L 1633,2230 L 1633,2178 L 1626,2171 L 1593,2171 L 1593,2222 L 1526,2222 z " style="fill-opacity:1.000000;fill:rgb(119,250,203);stroke:rgb(0,0,0);stroke-width:2"/></g>
</svg>
