<?xml version="1.0" standalone="no"?>
<!DOCTYPE svg PUBLIC "-//W3C//DTD SVG 1.1//EN"
"http://www.w3.org/Graphics/SVG/1.1/DTD/svg11.dtd">
<svg width="5905" height="3149" viewBox="0 0 5905 3149" version="1.1"
xmlns="http://www.w3.org/2000/svg"
xmlns:xlink="http://www.w3.org/1999/xlink">
<g fill-rule="evenodd"><path d="M 2199,2951 L 2199,2872 L 2199,2870 L 2200,2868 L 2201,2865 L 2203,2864 L 2205,2862 L 2207,2861 L 2210,2861 L 2212,2861 L 2215,2861 L 2217,2862 L 2219,2864 L 2221,2865 L 2222,2868 L 2223,2870 L 2223,2872 L 2223,2951 L 2223,2954 L 2222,2956 L 2221,2958 L 2219,2960 L 2217,2961 L 2215,2962 L 2212,2963 L 2210,2963 L 2207,2962 L 2205,2961 L 2203,2960 L 2201,2958 L 2200,2956 L 2199,2954 L 2199,2951 z " style="fill-opacity:1.000000;fill:rgb(103,198,105);stroke:rgb(0,0,0);stroke-width:2"/></g>
<g fill-rule="evenodd"><path d="M 1783,2951 L 1783,2872 L 1783,2870 L 1784,2868 L 1785,2865 L 1787,2864 L 1789,2862 L 1791,2861 L 1794,2861 L 1796,2861 L 1799,2861 L 1801,2862 L 1803,2864 L 1804,2865 L 1806,2868 L 1806,2870 L 1807,2872 L 1807,2951 L 1806,2954 L 1806,2956 L 1804,2958 L 1803,2960 L 1801,2961 L 1799,2962 L 1796,2963 L 1794,2963 L 1791,2962 L 1789,2961 L 1787,2960 L 1785,2958 L 1784,2956 L 1783,2954 L 1783,2951 z " style="fill-opacity:1.000000;fill:rgb(115,81,255);stroke:rgb(0,0,0);stroke-width:2"/></g>
<g fill-rule="evenodd"><path d="M 760,2939 L 760,2833 L 760,2831 L 761,2828 L 762,2826 L 764,2824 L 766,2823 L 768,2822 L 770,2821 L 773,2821 L 775,2822 L 777,2823 L 779,2824 L 781,2826 L 782,2828 L 783,2831 L 783,2833 L 783,2951 L 783,2953 L 782,2956 L 781,2958 L 780,2960 L 778,2961 L 776,2962 L 774,2963 L 771,2963 L 715,2963 L 713,2963 L 710,2962 L 708,2961 L 706,2959 L 705,2957 L 704,2955 L 704,2952 L 704,2950 L 704,2948 L 705,2945 L 706,2943 L 708,2942 L 710,2940 L 713,2940 L 715,2939 L 760,2939 z " style="fill-opacity:1.000000;fill:rgb(74,236,41);stroke:rgb(0,0,0);stroke-width:2"/></g>
<g fill-rule="evenodd"><path d="M 530,2965 L 534,2972 L 537,2975 L 544,2979 L 555,2979 L 564,2974 L 566,2973 L 569,2973 L 571,2973 L 573,2974 L 576,2975 L 577,2977 L 579,2979 L 580,2981 L 581,2983 L 581,2986 L 580,2988 L 580,2990 L 578,2992 L 576,2994 L 574,2995 L 561,3002 L 558,3002 L 541,3002 L 537,3002 L 523,2994 L 516,2988 L 513,2985 L 508,2973 L 507,2970 L 507,2872 L 507,2870 L 508,2868 L 509,2865 L 511,2864 L 513,2862 L 515,2861 L 517,2861 L 520,2861 L 522,2861 L 524,2862 L 526,2861 L 530,2861 L 552,2861 L 556,2861 L 569,2867 L 572,2870 L 579,2877 L 585,2890 L 586,2891 L 586,2895 L 586,2929 L 586,2932 L 579,2947 L 572,2954 L 569,2956 L 556,2962 L 552,2963 L 530,2963 L 530,2965M 530,2938 L 532,2939 L 549,2939 L 556,2936 L 559,2933 L 563,2926 L 563,2898 L 559,2891 L 556,2888 L 549,2884 L 532,2884 L 530,2885 L 530,2938 z " style="fill-opacity:1.000000;fill:rgb(205,186,171);stroke:rgb(0,0,0);stroke-width:2"/></g>
<g fill-rule="evenodd"><path d="M 423,2935 L 424,2936 L 431,2939 L 443,2939 L 448,2937 L 450,2931 L 450,2872 L 451,2870 L 451,2868 L 453,2865 L 454,2864 L 456,2862 L 459,2861 L 461,2861 L 463,2861 L 466,2861 L 468,2862 L 470,2864 L 472,2865 L 473,2868 L 474,2870 L 474,2872 L 474,2936 L 473,2940 L 467,2951 L 465,2954 L 462,2956 L 451,2962 L 449,2962 L 445,2963 L 427,2963 L 423,2962 L 420,2960 L 417,2961 L 415,2962 L 413,2963 L 410,2963 L 408,2962 L 406,2961 L 404,2960 L 402,2958 L 401,2956 L 400,2954 L 400,2951 L 400,2872 L 400,2870 L 401,2868 L 402,2865 L 404,2864 L 406,2862 L 408,2861 L 410,2861 L 413,2861 L 415,2861 L 417,2862 L 419,2864 L 421,2865 L 422,2868 L 423,2870 L 423,2872 L 423,2935 z " style="fill-opacity:1.000000;fill:rgb(242,251,227);stroke:rgb(0,0,0);stroke-width:2"/></g>
<g fill-rule="evenodd"><path d="M 1215,2931 L 1215,2921 L 1168,2912 L 1166,2911 L 1164,2910 L 1162,2909 L 1161,2907 L 1160,2905 L 1159,2903 L 1159,2901 L 1159,2887 L 1160,2884 L 1166,2873 L 1168,2870 L 1169,2868 L 1182,2862 L 1186,2861 L 1210,2861 L 1214,2861 L 1215,2862 L 1227,2867 L 1230,2870 L 1232,2873 L 1238,2884 L 1239,2887 L 1239,2934 L 1238,2938 L 1238,2940 L 1232,2951 L 1230,2954 L 1227,2956 L 1214,2962 L 1210,2963 L 1186,2963 L 1182,2962 L 1171,2956 L 1169,2955 L 1167,2953 L 1166,2951 L 1165,2949 L 1165,2946 L 1165,2944 L 1165,2941 L 1166,2939 L 1168,2937 L 1170,2936 L 1172,2935 L 1174,2934 L 1177,2934 L 1179,2934 L 1182,2935 L 1190,2939 L 1207,2939 L 1213,2937 L 1215,2931M 1215,2892 L 1213,2887 L 1207,2884 L 1190,2884 L 1185,2887 L 1183,2891 L 1215,2897 L 1215,2892 z " style="fill-opacity:1.000000;fill:rgb(70,124,194);stroke:rgb(0,0,0);stroke-width:2"/></g>
<g fill-rule="evenodd"><path d="M 1018,2931 L 1018,2833 L 1019,2831 L 1019,2828 L 1021,2826 L 1022,2824 L 1024,2823 L 1027,2822 L 1029,2821 L 1031,2821 L 1034,2822 L 1036,2823 L 1038,2824 L 1040,2826 L 1041,2828 L 1042,2831 L 1042,2833 L 1042,2936 L 1041,2940 L 1035,2951 L 1033,2954 L 1030,2956 L 1019,2962 L 1016,2963 L 1014,2963 L 1011,2963 L 1009,2962 L 1007,2961 L 1005,2959 L 1003,2958 L 1002,2955 L 1002,2953 L 1001,2950 L 1002,2948 L 1003,2946 L 1004,2944 L 1006,2942 L 1008,2941 L 1016,2937 L 1018,2931 z " style="fill-opacity:1.000000;fill:rgb(84,248,27);stroke:rgb(0,0,0);stroke-width:2"/></g>
<g fill-rule="evenodd"><path d="M 637,2892 L 637,2893 L 639,2894 L 665,2894 L 668,2895 L 681,2901 L 684,2903 L 685,2905 L 693,2919 L 693,2923 L 693,2934 L 693,2938 L 692,2940 L 686,2951 L 685,2952 L 683,2955 L 670,2962 L 668,2962 L 665,2963 L 637,2963 L 633,2962 L 631,2962 L 629,2962 L 627,2963 L 624,2963 L 622,2962 L 619,2961 L 617,2960 L 616,2958 L 614,2956 L 614,2954 L 613,2951 L 614,2887 L 615,2884 L 620,2873 L 623,2870 L 626,2867 L 637,2862 L 640,2861 L 666,2861 L 670,2862 L 681,2867 L 683,2869 L 685,2871 L 686,2873 L 687,2875 L 688,2877 L 688,2880 L 687,2882 L 686,2884 L 684,2886 L 682,2888 L 680,2889 L 678,2890 L 675,2890 L 673,2889 L 671,2889 L 662,2884 L 645,2884 L 640,2887 L 637,2892M 637,2938 L 639,2939 L 662,2939 L 667,2937 L 670,2931 L 670,2926 L 667,2921 L 662,2918 L 637,2918 L 637,2938 z " style="fill-opacity:1.000000;fill:rgb(232,231,141);stroke:rgb(0,0,0);stroke-width:2"/></g>
<g fill-rule="evenodd"><path d="M 344,2889 L 343,2888 L 336,2884 L 324,2884 L 319,2887 L 317,2892 L 317,2951 L 316,2954 L 316,2956 L 314,2958 L 313,2960 L 311,2961 L 308,2962 L 306,2963 L 304,2963 L 301,2962 L 299,2961 L 297,2960 L 295,2958 L 294,2956 L 293,2954 L 293,2951 L 293,2887 L 294,2884 L 300,2873 L 302,2870 L 305,2867 L 316,2862 L 318,2861 L 322,2861 L 340,2861 L 344,2862 L 347,2864 L 349,2862 L 352,2861 L 354,2861 L 357,2861 L 359,2861 L 361,2862 L 363,2864 L 365,2865 L 366,2868 L 367,2870 L 367,2872 L 367,2951 L 367,2954 L 366,2956 L 365,2958 L 363,2960 L 361,2961 L 359,2962 L 357,2963 L 354,2963 L 352,2962 L 349,2961 L 347,2960 L 346,2958 L 345,2956 L 344,2954 L 344,2951 L 344,2889 z " style="fill-opacity:1.000000;fill:rgb(118,90,46);stroke:rgb(0,0,0);stroke-width:2"/></g>
<g fill-rule="evenodd"><path d="M 210,2892 L 210,2893 L 212,2894 L 237,2894 L 241,2895 L 254,2901 L 255,2902 L 258,2905 L 265,2919 L 266,2923 L 266,2934 L 265,2938 L 265,2940 L 259,2951 L 257,2954 L 255,2955 L 243,2962 L 241,2962 L 237,2963 L 209,2963 L 206,2962 L 203,2962 L 202,2962 L 199,2963 L 197,2963 L 194,2962 L 192,2961 L 190,2960 L 188,2958 L 187,2956 L 186,2954 L 186,2951 L 186,2887 L 187,2884 L 193,2873 L 195,2870 L 198,2867 L 210,2862 L 213,2861 L 239,2861 L 243,2862 L 254,2867 L 256,2869 L 258,2871 L 259,2873 L 260,2875 L 260,2877 L 260,2880 L 260,2882 L 258,2884 L 257,2886 L 255,2888 L 253,2889 L 250,2890 L 248,2890 L 246,2889 L 243,2889 L 234,2884 L 218,2884 L 212,2887 L 210,2892M 210,2938 L 212,2939 L 234,2939 L 240,2937 L 242,2931 L 242,2926 L 240,2921 L 234,2918 L 210,2918 L 210,2938 z " style="fill-opacity:1.000000;fill:rgb(99,51,159);stroke:rgb(0,0,0);stroke-width:2"/></g>
<g fill-rule="evenodd"><path d="M 1289,2861 L 1313,2861 L 1317,2862 L 1328,2867 L 1331,2870 L 1338,2877 L 1345,2891 L 1346,2895 L 1346,2929 L 1345,2932 L 1344,2934 L 1338,2947 L 1331,2954 L 1328,2956 L 1315,2962 L 1311,2963 L 1289,2963 L 1285,2962 L 1283,2962 L 1281,2962 L 1279,2963 L 1276,2963 L 1274,2962 L 1272,2961 L 1270,2960 L 1268,2958 L 1267,2956 L 1266,2954 L 1266,2951 L 1266,2833 L 1266,2831 L 1267,2828 L 1268,2826 L 1270,2824 L 1272,2823 L 1274,2822 L 1276,2821 L 1279,2821 L 1281,2822 L 1283,2823 L 1285,2824 L 1287,2826 L 1288,2828 L 1289,2831 L 1289,2833 L 1289,2861M 1318,2933 L 1322,2926 L 1322,2898 L 1318,2891 L 1316,2888 L 1309,2884 L 1292,2884 L 1289,2885 L 1289,2938 L 1292,2939 L 1309,2939 L 1316,2936 L 1318,2933 z " style="fill-opacity:1.000000;fill:rgb(201,154,102);stroke:rgb(0,0,0);stroke-width:2"/></g>
<g fill-rule="evenodd"><path d="M 929,2892 L 929,2893 L 932,2894 L 957,2894 L 961,2895 L 974,2901 L 975,2902 L 978,2905 L 985,2919 L 986,2923 L 986,2934 L 985,2938 L 984,2940 L 979,2951 L 977,2954 L 975,2955 L 962,2962 L 961,2962 L 957,2963 L 929,2963 L 925,2962 L 923,2962 L 921,2962 L 919,2963 L 916,2963 L 914,2962 L 912,2961 L 910,2960 L 908,2958 L 907,2956 L 906,2954 L 906,2951 L 906,2887 L 907,2884 L 913,2873 L 915,2870 L 918,2867 L 929,2862 L 933,2861 L 959,2861 L 962,2862 L 974,2867 L 976,2869 L 977,2871 L 979,2873 L 980,2875 L 980,2877 L 980,2880 L 979,2882 L 978,2884 L 977,2886 L 975,2888 L 973,2889 L 970,2890 L 968,2890 L 965,2889 L 963,2889 L 954,2884 L 937,2884 L 932,2887 L 929,2892M 929,2938 L 932,2939 L 954,2939 L 959,2937 L 962,2931 L 962,2926 L 959,2921 L 954,2918 L 929,2918 L 929,2938 z " style="fill-opacity:1.000000;fill:rgb(50,13,183);stroke:rgb(0,0,0);stroke-width:2"/></g>
<g fill-rule="evenodd"><path d="M 2138,2916 L 2155,2868 L 2156,2866 L 2157,2864 L 2159,2863 L 2162,2862 L 2164,2861 L 2166,2861 L 2169,2861 L 2171,2862 L 2173,2863 L 2175,2865 L 2176,2867 L 2177,2869 L 2178,2872 L 2178,2874 L 2177,2876 L 2149,2955 L 2148,2957 L 2147,2959 L 2145,2961 L 2143,2962 L 2140,2963 L 2138,2963 L 2136,2963 L 2133,2962 L 2131,2961 L 2129,2959 L 2128,2957 L 2127,2955 L 2099,2876 L 2098,2874 L 2098,2872 L 2098,2869 L 2099,2867 L 2101,2865 L 2103,2863 L 2105,2862 L 2107,2861 L 2109,2861 L 2112,2861 L 2114,2862 L 2116,2863 L 2118,2864 L 2120,2866 L 2121,2868 L 2138,2916 z " style="fill-opacity:1.000000;fill:rgb(49,88,163);stroke:rgb(0,0,0);stroke-width:2"/></g>
<g fill-rule="evenodd"><path d="M 2386,2926 L 2389,2933 L 2392,2936 L 2399,2939 L 2416,2939 L 2423,2936 L 2426,2933 L 2430,2926 L 2430,2833 L 2430,2831 L 2431,2828 L 2432,2826 L 2434,2824 L 2436,2823 L 2438,2822 L 2440,2821 L 2443,2821 L 2445,2822 L 2447,2823 L 2449,2824 L 2451,2826 L 2452,2828 L 2453,2831 L 2453,2833 L 2453,2930 L 2452,2934 L 2446,2947 L 2439,2954 L 2436,2956 L 2424,2962 L 2423,2962 L 2419,2963 L 2395,2963 L 2391,2962 L 2380,2956 L 2377,2954 L 2370,2947 L 2363,2932 L 2362,2929 L 2362,2833 L 2363,2831 L 2363,2828 L 2365,2826 L 2366,2824 L 2368,2823 L 2370,2822 L 2373,2821 L 2375,2821 L 2378,2822 L 2380,2823 L 2382,2824 L 2384,2826 L 2385,2828 L 2386,2831 L 2386,2833 L 2386,2926 z " style="fill-opacity:1.000000;fill:rgb(90,37,93);stroke:rgb(0,0,0);stroke-width:2"/></g>
<g fill-rule="evenodd"><path d="M 2059,2931 L 2059,2921 L 2012,2912 L 2010,2911 L 2008,2910 L 2006,2909 L 2004,2907 L 2003,2905 L 2003,2903 L 2002,2901 L 2003,2887 L 2004,2884 L 2009,2873 L 2011,2870 L 2013,2868 L 2026,2862 L 2029,2861 L 2054,2861 L 2057,2861 L 2059,2862 L 2070,2867 L 2073,2870 L 2075,2873 L 2081,2884 L 2082,2887 L 2082,2934 L 2082,2938 L 2081,2940 L 2075,2951 L 2073,2954 L 2070,2956 L 2057,2962 L 2054,2963 L 2029,2963 L 2026,2962 L 2015,2956 L 2012,2955 L 2011,2953 L 2009,2951 L 2008,2949 L 2008,2946 L 2008,2944 L 2009,2941 L 2010,2939 L 2011,2937 L 2013,2936 L 2016,2935 L 2018,2934 L 2020,2934 L 2023,2934 L 2025,2935 L 2034,2939 L 2051,2939 L 2056,2937 L 2059,2931M 2059,2892 L 2056,2887 L 2051,2884 L 2034,2884 L 2029,2887 L 2027,2891 L 2059,2897 L 2059,2892 z " style="fill-opacity:1.000000;fill:rgb(5,23,88);stroke:rgb(0,0,0);stroke-width:2"/></g>
<g fill-rule="evenodd"><path d="M 1593,2892 L 1593,2893 L 1595,2894 L 1621,2894 L 1624,2895 L 1637,2901 L 1639,2902 L 1641,2905 L 1649,2919 L 1649,2923 L 1649,2934 L 1649,2938 L 1648,2940 L 1642,2951 L 1640,2954 L 1639,2955 L 1626,2962 L 1624,2962 L 1621,2963 L 1592,2963 L 1589,2962 L 1587,2962 L 1585,2962 L 1582,2963 L 1580,2963 L 1578,2962 L 1575,2961 L 1573,2960 L 1572,2958 L 1570,2956 L 1570,2954 L 1569,2951 L 1570,2887 L 1571,2884 L 1576,2873 L 1579,2870 L 1582,2867 L 1593,2862 L 1596,2861 L 1622,2861 L 1626,2862 L 1637,2867 L 1639,2869 L 1641,2871 L 1642,2873 L 1643,2875 L 1644,2877 L 1644,2880 L 1643,2882 L 1642,2884 L 1640,2886 L 1638,2888 L 1636,2889 L 1634,2890 L 1631,2890 L 1629,2889 L 1627,2889 L 1618,2884 L 1601,2884 L 1596,2887 L 1593,2892M 1593,2938 L 1595,2939 L 1618,2939 L 1623,2937 L 1626,2931 L 1626,2926 L 1623,2921 L 1618,2918 L 1593,2918 L 1593,2938 z " style="fill-opacity:1.000000;fill:rgb(233,94,212);stroke:rgb(0,0,0);stroke-width:2"/></g>
<g fill-rule="evenodd"><path d="M 1700,2861 L 1724,2861 L 1727,2862 L 1738,2867 L 1741,2870 L 1748,2877 L 1756,2891 L 1756,2895 L 1756,2929 L 1756,2932 L 1755,2934 L 1748,2947 L 1741,2954 L 1738,2956 L 1725,2962 L 1722,2963 L 1699,2963 L 1696,2962 L 1694,2962 L 1692,2962 L 1689,2963 L 1687,2963 L 1684,2962 L 1682,2961 L 1680,2960 L 1679,2958 L 1677,2956 L 1677,2954 L 1676,2951 L 1676,2833 L 1677,2831 L 1677,2828 L 1679,2826 L 1680,2824 L 1682,2823 L 1684,2822 L 1687,2821 L 1689,2821 L 1692,2822 L 1694,2823 L 1696,2824 L 1698,2826 L 1699,2828 L 1700,2831 L 1700,2833 L 1700,2861M 1700,2938 L 1702,2939 L 1719,2939 L 1726,2936 L 1729,2933 L 1732,2926 L 1732,2898 L 1729,2891 L 1726,2888 L 1719,2884 L 1702,2884 L 1700,2885 L 1700,2938 z " style="fill-opacity:1.000000;fill:rgb(171,178,205);stroke:rgb(0,0,0);stroke-width:2"/></g>
<g fill-rule="evenodd"><path d="M 1486,2861 L 1510,2861 L 1513,2862 L 1525,2867 L 1528,2870 L 1535,2877 L 1542,2891 L 1542,2895 L 1542,2929 L 1542,2932 L 1541,2934 L 1535,2947 L 1528,2954 L 1525,2956 L 1512,2962 L 1508,2963 L 1486,2963 L 1482,2962 L 1480,2962 L 1478,2962 L 1476,2963 L 1473,2963 L 1471,2962 L 1468,2961 L 1466,2960 L 1465,2958 L 1464,2956 L 1463,2954 L 1463,2951 L 1463,2833 L 1463,2831 L 1464,2828 L 1465,2826 L 1466,2824 L 1468,2823 L 1471,2822 L 1473,2821 L 1476,2821 L 1478,2822 L 1480,2823 L 1482,2824 L 1484,2826 L 1485,2828 L 1486,2831 L 1486,2833 L 1486,2861M 1486,2938 L 1488,2939 L 1505,2939 L 1512,2936 L 1515,2933 L 1519,2926 L 1519,2898 L 1515,2891 L 1512,2888 L 1505,2884 L 1488,2884 L 1486,2885 L 1486,2938 z " style="fill-opacity:1.000000;fill:rgb(198,155,180);stroke:rgb(0,0,0);stroke-width:2"/></g>
<g fill-rule="evenodd"><path d="M 2279,2892 L 2279,2951 L 2279,2954 L 2278,2956 L 2277,2958 L 2275,2960 L 2273,2961 L 2271,2962 L 2268,2963 L 2266,2963 L 2264,2962 L 2261,2961 L 2259,2960 L 2258,2958 L 2256,2956 L 2256,2954 L 2255,2951 L 2256,2887 L 2257,2884 L 2263,2871 L 2265,2870 L 2268,2867 L 2279,2862 L 2282,2861 L 2303,2861 L 2306,2862 L 2310,2864 L 2312,2862 L 2314,2861 L 2317,2861 L 2319,2861 L 2322,2861 L 2324,2862 L 2326,2864 L 2327,2865 L 2329,2868 L 2329,2870 L 2330,2872 L 2330,2951 L 2329,2954 L 2329,2956 L 2327,2958 L 2326,2960 L 2324,2961 L 2322,2962 L 2319,2963 L 2317,2963 L 2314,2962 L 2312,2961 L 2310,2960 L 2308,2958 L 2307,2956 L 2306,2954 L 2306,2951 L 2306,2889 L 2305,2888 L 2298,2884 L 2287,2884 L 2282,2887 L 2279,2892 z " style="fill-opacity:1.000000;fill:rgb(84,17,14);stroke:rgb(0,0,0);stroke-width:2"/></g>
<g fill-rule="evenodd"><path d="M 1952,2898 L 1948,2891 L 1945,2888 L 1938,2884 L 1930,2884 L 1927,2884 L 1925,2883 L 1923,2882 L 1921,2880 L 1920,2878 L 1919,2876 L 1918,2874 L 1918,2871 L 1919,2869 L 1920,2867 L 1921,2865 L 1923,2863 L 1925,2862 L 1927,2861 L 1930,2861 L 1943,2861 L 1946,2862 L 1954,2866 L 1956,2864 L 1958,2862 L 1960,2861 L 1962,2861 L 1965,2861 L 1967,2861 L 1970,2862 L 1972,2864 L 1973,2865 L 1974,2868 L 1975,2870 L 1975,2872 L 1975,2951 L 1975,2954 L 1974,2956 L 1973,2958 L 1972,2960 L 1970,2961 L 1967,2962 L 1965,2963 L 1962,2963 L 1960,2962 L 1958,2961 L 1956,2960 L 1954,2958 L 1953,2956 L 1952,2954 L 1952,2951 L 1952,2898 z " style="fill-opacity:1.000000;fill:rgb(130,116,65);stroke:rgb(0,0,0);stroke-width:2"/></g>
<g fill-rule="evenodd"><path d="M 1882,2939 L 1891,2935 L 1893,2934 L 1896,2934 L 1898,2934 L 1900,2935 L 1903,2936 L 1905,2937 L 1906,2939 L 1907,2941 L 1908,2944 L 1908,2946 L 1908,2949 L 1907,2951 L 1905,2953 L 1903,2955 L 1901,2956 L 1888,2962 L 1885,2963 L 1861,2963 L 1857,2962 L 1846,2956 L 1843,2954 L 1841,2951 L 1834,2938 L 1834,2934 L 1834,2929 L 1834,2925 L 1841,2912 L 1843,2909 L 1846,2907 L 1859,2901 L 1862,2900 L 1876,2900 L 1882,2897 L 1884,2892 L 1882,2887 L 1876,2884 L 1865,2884 L 1856,2889 L 1854,2889 L 1852,2890 L 1849,2890 L 1847,2889 L 1845,2888 L 1843,2886 L 1841,2884 L 1840,2882 L 1839,2880 L 1839,2877 L 1840,2875 L 1841,2873 L 1842,2871 L 1844,2869 L 1846,2867 L 1859,2861 L 1862,2861 L 1881,2861 L 1885,2862 L 1896,2867 L 1897,2868 L 1900,2871 L 1907,2886 L 1908,2889 L 1908,2895 L 1907,2899 L 1901,2911 L 1899,2915 L 1896,2917 L 1883,2923 L 1879,2924 L 1865,2924 L 1860,2926 L 1857,2931 L 1860,2937 L 1865,2939 L 1882,2939 z " style="fill-opacity:1.000000;fill:rgb(33,61,220);stroke:rgb(0,0,0);stroke-width:2"/></g>
<g fill-rule="evenodd"><path d="M 1803,2853 L 1801,2855 L 1797,2856 L 1794,2856 L 1790,2855 L 1787,2853 L 1781,2847 L 1779,2845 L 1778,2843 L 1778,2841 L 1777,2839 L 1778,2836 L 1778,2834 L 1779,2832 L 1787,2825 L 1788,2823 L 1790,2822 L 1794,2821 L 1797,2821 L 1799,2822 L 1801,2823 L 1809,2830 L 1810,2832 L 1811,2834 L 1812,2836 L 1812,2839 L 1812,2841 L 1811,2843 L 1810,2845 L 1809,2847 L 1803,2853 z " style="fill-opacity:1.000000;fill:rgb(135,112,233);stroke:rgb(0,0,0);stroke-width:2"/></g>
<g fill-rule="evenodd"><path d="M 2219,2853 L 2217,2855 L 2213,2856 L 2210,2856 L 2207,2855 L 2203,2853 L 2197,2847 L 2196,2845 L 2194,2843 L 2194,2841 L 2194,2839 L 2194,2836 L 2194,2834 L 2196,2832 L 2203,2825 L 2204,2823 L 2207,2822 L 2210,2821 L 2213,2821 L 2215,2822 L 2217,2823 L 2225,2830 L 2226,2832 L 2228,2834 L 2228,2836 L 2228,2839 L 2228,2841 L 2228,2843 L 2226,2845 L 2225,2847 L 2219,2853 z " style="fill-opacity:1.000000;fill:rgb(62,161,65);stroke:rgb(0,0,0);stroke-width:2"/></g>
<g fill-rule="evenodd"><path d="M 4290,913 L 4290,740 L 4306,740 L 4306,913 L 4290,913 z " style="fill-opacity:1.000000;fill:rgb(225,252,103);stroke:rgb(0,0,0);stroke-width:2"/></g>
<g fill-rule="evenodd"><path d="M 4251,913 L 4251,740 L 4267,740 L 4267,913 L 4251,913 z " style="fill-opacity:1.000000;fill:rgb(62,1,126);stroke:rgb(0,0,0);stroke-width:2"/></g>
<g fill-rule="evenodd"><path d="M 4172,913 L 4172,740 L 4188,740 L 4188,913 L 4172,913 z " style="fill-opacity:1.000000;fill:rgb(151,234,220);stroke:rgb(0,0,0);stroke-width:2"/></g>
<g fill-rule="evenodd"><path d="M 4133,913 L 4133,740 L 4148,740 L 4148,913 L 4133,913 z " style="fill-opacity:1.000000;fill:rgb(107,150,143);stroke:rgb(0,0,0);stroke-width:2"/></g>
<g fill-rule="evenodd"><path d="M 4054,913 L 4054,740 L 4070,740 L 4070,913 L 4054,913 z " style="fill-opacity:1.000000;fill:rgb(56,92,42);stroke:rgb(0,0,0);stroke-width:2"/></g>
<g fill-rule="evenodd"><path d="M 4015,913 L 4015,740 L 4030,740 L 4030,913 L 4015,913 z " style="fill-opacity:1.000000;fill:rgb(236,176,59);stroke:rgb(0,0,0);stroke-width:2"/></g>
<g fill-rule="evenodd"><path d="M 3936,913 L 3936,740 L 3952,740 L 3952,913 L 3936,913 z " style="fill-opacity:1.000000;fill:rgb(251,50,175);stroke:rgb(0,0,0);stroke-width:2"/></g>
<g fill-rule="evenodd"><path d="M 3936,504 L 3936,331 L 3952,331 L 3952,504 L 3936,504 z " style="fill-opacity:1.000000;fill:rgb(60,84,236);stroke:rgb(0,0,0);stroke-width:2"/></g>
<g fill-rule="evenodd"><path d="M 3897,913 L 3897,740 L 3912,740 L 3912,913 L 3897,913 z " style="fill-opacity:1.000000;fill:rgb(24,219,92);stroke:rgb(0,0,0);stroke-width:2"/></g>
<g fill-rule="evenodd"><path d="M 3897,504 L 3897,331 L 3912,331 L 3912,504 L 3897,504 z " style="fill-opacity:1.000000;fill:rgb(2,26,254);stroke:rgb(0,0,0);stroke-width:2"/></g>
<g fill-rule="evenodd"><path d="M 3818,913 L 3818,740 L 3834,740 L 3834,913 L 3818,913 z " style="fill-opacity:1.000000;fill:rgb(67,251,250);stroke:rgb(0,0,0);stroke-width:2"/></g>
<g fill-rule="evenodd"><path d="M 3818,504 L 3818,331 L 3834,331 L 3834,504 L 3818,504 z " style="fill-opacity:1.000000;fill:rgb(170,58,251);stroke:rgb(0,0,0);stroke-width:2"/></g>
<g fill-rule="evenodd"><path d="M 3778,913 L 3778,740 L 3794,740 L 3794,913 L 3778,913 z " style="fill-opacity:1.000000;fill:rgb(41,209,230);stroke:rgb(0,0,0);stroke-width:2"/></g>
<g fill-rule="evenodd"><path d="M 3778,504 L 3778,331 L 3794,331 L 3794,504 L 3778,504 z " style="fill-opacity:1.000000;fill:rgb(5,60,124);stroke:rgb(0,0,0);stroke-width:2"/></g>
<g fill-rule="evenodd"><path d="M 3700,913 L 3700,740 L 3715,740 L 3715,913 L 3700,913 z " style="fill-opacity:1.000000;fill:rgb(148,117,216);stroke:rgb(0,0,0);stroke-width:2"/></g>
<g fill-rule="evenodd"><path d="M 3700,504 L 3700,331 L 3715,331 L 3715,504 L 3700,504 z " style="fill-opacity:1.000000;fill:rgb(190,97,137);stroke:rgb(0,0,0);stroke-width:2"/></g>
<g fill-rule="evenodd"><path d="M 3660,913 L 3660,740 L 3676,740 L 3676,913 L 3660,913 z " style="fill-opacity:1.000000;fill:rgb(249,92,187);stroke:rgb(0,0,0);stroke-width:2"/></g>
<g fill-rule="evenodd"><path d="M 3660,504 L 3660,331 L 3676,331 L 3676,504 L 3660,504 z " style="fill-opacity:1.000000;fill:rgb(168,153,15);stroke:rgb(0,0,0);stroke-width:2"/></g>
<g fill-rule="evenodd"><path d="M 3582,913 L 3582,740 L 3597,740 L 3597,913 L 3582,913 z " style="fill-opacity:1.000000;fill:rgb(149,177,235);stroke:rgb(0,0,0);stroke-width:2"/></g>
<g fill-rule="evenodd"><path d="M 3582,504 L 3582,331 L 3597,331 L 3597,504 L 3582,504 z " style="fill-opacity:1.000000;fill:rgb(241,179,5);stroke:rgb(0,0,0);stroke-width:2"/></g>
<g fill-rule="evenodd"><path d="M 3542,913 L 3542,740 L 3558,740 L 3558,913 L 3542,913 z " style="fill-opacity:1.000000;fill:rgb(239,247,0);stroke:rgb(0,0,0);stroke-width:2"/></g>
<g fill-rule="evenodd"><path d="M 3542,504 L 3542,331 L 3558,331 L 3558,504 L 3542,504 z " style="fill-opacity:1.000000;fill:rgb(233,161,58);stroke:rgb(0,0,0);stroke-width:2"/></g>
<g fill-rule="evenodd"><path d="M 3464,913 L 3464,740 L 3479,740 L 3479,913 L 3464,913 z " style="fill-opacity:1.000000;fill:rgb(229,202,11);stroke:rgb(0,0,0);stroke-width:2"/></g>
<g fill-rule="evenodd"><path d="M 3464,504 L 3464,331 L 3479,331 L 3479,504 L 3464,504 z " style="fill-opacity:1.000000;fill:rgb(203,208,72);stroke:rgb(0,0,0);stroke-width:2"/></g>
<g fill-rule="evenodd"><path d="M 3424,913 L 3424,740 L 3440,740 L 3440,913 L 3424,913 z " style="fill-opacity:1.000000;fill:rgb(71,100,189);stroke:rgb(0,0,0);stroke-width:2"/></g>
<g fill-rule="evenodd"><path d="M 3424,504 L 3424,331 L 3440,331 L 3440,504 L 3424,504 z " style="fill-opacity:1.000000;fill:rgb(31,35,30);stroke:rgb(0,0,0);stroke-width:2"/></g>
<g fill-rule="evenodd"><path d="M 3345,913 L 3345,740 L 3361,740 L 3361,913 L 3345,913 z " style="fill-opacity:1.000000;fill:rgb(168,28,123);stroke:rgb(0,0,0);stroke-width:2"/></g>
<g fill-rule="evenodd"><path d="M 3345,504 L 3345,331 L 3361,331 L 3361,504 L 3345,504 z " style="fill-opacity:1.000000;fill:rgb(100,197,20);stroke:rgb(0,0,0);stroke-width:2"/></g>
<g fill-rule="evenodd"><path d="M 3306,913 L 3306,740 L 3322,740 L 3322,913 L 3306,913 z " style="fill-opacity:1.000000;fill:rgb(115,90,197);stroke:rgb(0,0,0);stroke-width:2"/></g>
<g fill-rule="evenodd"><path d="M 3306,504 L 3306,331 L 3322,331 L 3322,504 L 3306,504 z " style="fill-opacity:1.000000;fill:rgb(94,75,121);stroke:rgb(0,0,0);stroke-width:2"/></g>
<g fill-rule="evenodd"><path d="M 3227,913 L 3227,740 L 3243,740 L 3243,913 L 3227,913 z " style="fill-opacity:1.000000;fill:rgb(99,59,112);stroke:rgb(0,0,0);stroke-width:2"/></g>
<g fill-rule="evenodd"><path d="M 3227,504 L 3227,331 L 3243,331 L 3243,504 L 3227,504 z " style="fill-opacity:1.000000;fill:rgb(100,36,17);stroke:rgb(0,0,0);stroke-width:2"/></g>
<g fill-rule="evenodd"><path d="M 3188,913 L 3188,740 L 3204,740 L 3204,913 L 3188,913 z " style="fill-opacity:1.000000;fill:rgb(158,9,220);stroke:rgb(0,0,0);stroke-width:2"/></g>
<g fill-rule="evenodd"><path d="M 3188,504 L 3188,331 L 3204,331 L 3204,504 L 3188,504 z " style="fill-opacity:1.000000;fill:rgb(170,212,172);stroke:rgb(0,0,0);stroke-width:2"/></g>
<g fill-rule="evenodd"><path d="M 3149,913 L 3149,740 L 3164,740 L 3164,913 L 3149,913 z " style="fill-opacity:1.000000;fill:rgb(242,27,16);stroke:rgb(0,0,0);stroke-width:2"/></g>
<g fill-rule="evenodd"><path d="M 3149,504 L 3149,331 L 3164,331 L 3164,504 L 3149,504 z " style="fill-opacity:1.000000;fill:rgb(175,59,51);stroke:rgb(0,0,0);stroke-width:2"/></g>
<g fill-rule="evenodd"><path d="M 2711,914 L 2711,741 L 2727,741 L 2727,914 L 2711,914 z " style="fill-opacity:1.000000;fill:rgb(205,227,80);stroke:rgb(0,0,0);stroke-width:2"/></g>
<g fill-rule="evenodd"><path d="M 2711,505 L 2711,332 L 2727,332 L 2727,505 L 2711,505 z " style="fill-opacity:1.000000;fill:rgb(72,71,21);stroke:rgb(0,0,0);stroke-width:2"/></g>
<g fill-rule="evenodd"><path d="M 2672,914 L 2672,741 L 2688,741 L 2688,914 L 2672,914 z " style="fill-opacity:1.000000;fill:rgb(92,187,111);stroke:rgb(0,0,0);stroke-width:2"/></g>
<g fill-rule="evenodd"><path d="M 2672,505 L 2672,332 L 2688,332 L 2688,505 L 2672,505 z " style="fill-opacity:1.000000;fill:rgb(34,25,186);stroke:rgb(0,0,0);stroke-width:2"/></g>
<g fill-rule="evenodd"><path d="M 2633,914 L 2633,741 L 2648,741 L 2648,914 L 2633,914 z " style="fill-opacity:1.000000;fill:rgb(155,125,245);stroke:rgb(0,0,0);stroke-width:2"/></g>
<g fill-rule="evenodd"><path d="M 2633,505 L 2633,332 L 2648,332 L 2648,505 L 2633,505 z " style="fill-opacity:1.000000;fill:rgb(11,225,26);stroke:rgb(0,0,0);stroke-width:2"/></g>
<g fill-rule="evenodd"><path d="M 2593,914 L 2593,741 L 2609,741 L 2609,914 L 2593,914 z " style="fill-opacity:1.000000;fill:rgb(28,127,35);stroke:rgb(0,0,0);stroke-width:2"/></g>
<g fill-rule="evenodd"><path d="M 2593,505 L 2593,332 L 2609,332 L 2609,505 L 2593,505 z " style="fill-opacity:1.000000;fill:rgb(248,41,248);stroke:rgb(0,0,0);stroke-width:2"/></g>
<g fill-rule="evenodd"><path d="M 2515,914 L 2515,741 L 2530,741 L 2530,914 L 2515,914 z " style="fill-opacity:1.000000;fill:rgb(164,27,19);stroke:rgb(0,0,0);stroke-width:2"/></g>
<g fill-rule="evenodd"><path d="M 2515,505 L 2515,332 L 2530,332 L 2530,505 L 2515,505 z " style="fill-opacity:1.000000;fill:rgb(181,202,78);stroke:rgb(0,0,0);stroke-width:2"/></g>
<g fill-rule="evenodd"><path d="M 2475,914 L 2475,741 L 2491,741 L 2491,914 L 2475,914 z " style="fill-opacity:1.000000;fill:rgb(232,152,50);stroke:rgb(0,0,0);stroke-width:2"/></g>
<g fill-rule="evenodd"><path d="M 2475,505 L 2475,332 L 2491,332 L 2491,505 L 2475,505 z " style="fill-opacity:1.000000;fill:rgb(56,224,121);stroke:rgb(0,0,0);stroke-width:2"/></g>
<g fill-rule="evenodd"><path d="M 2436,914 L 2436,741 L 2452,741 L 2452,914 L 2436,914 z " style="fill-opacity:1.000000;fill:rgb(77,61,52);stroke:rgb(0,0,0);stroke-width:2"/></g>
<g fill-rule="evenodd"><path d="M 2396,914 L 2396,741 L 2412,741 L 2412,914 L 2396,914 z " style="fill-opacity:1.000000;fill:rgb(188,95,78);stroke:rgb(0,0,0);stroke-width:2"/></g>
<g fill-rule="evenodd"><path d="M 2278,914 L 2278,741 L 2294,741 L 2294,914 L 2278,914 z " style="fill-opacity:1.000000;fill:rgb(119,250,203);stroke:rgb(0,0,0);stroke-width:2"/></g>
<g fill-rule="evenodd"><path d="M 2239,914 L 2239,741 L 2255,741 L 2255,914 L 2239,914 z " style="fill-opacity:1.000000;fill:rgb(108,5,172);stroke:rgb(0,0,0);stroke-width:2"/></g>
<g fill-rule="evenodd"><path d="M 2239,505 L 2239,332 L 2255,332 L 2255,505 L 2239,505 z " style="fill-opacity:1.000000;fill:rgb(134,33,43);stroke:rgb(0,0,0);stroke-width:2"/></g>
<g fill-rule="evenodd"><path d="M 2200,914 L 2200,741 L 2215,741 L 2215,914 L 2200,914 z " style="fill-opacity:1.000000;fill:rgb(170,26,85);stroke:rgb(0,0,0);stroke-width:2"/></g>
<g fill-rule="evenodd"><path d="M 2200,505 L 2200,332 L 2215,332 L 2215,505 L 2200,505 z " style="fill-opacity:1.000000;fill:rgb(162,190,112);stroke:rgb(0,0,0);stroke-width:2"/></g>
<g fill-rule="evenodd"><path d="M 2160,914 L 2160,741 L 2176,741 L 2176,914 L 2160,914 z " style="fill-opacity:1.000000;fill:rgb(181,115,59);stroke:rgb(0,0,0);stroke-width:2"/></g>
<g fill-rule="evenodd"><path d="M 2160,505 L 2160,332 L 2176,332 L 2176,505 L 2160,505 z " style="fill-opacity:1.000000;fill:rgb(4,92,211);stroke:rgb(0,0,0);stroke-width:2"/></g>
<g fill-rule="evenodd"><path d="M 2121,914 L 2121,741 L 2137,741 L 2137,914 L 2121,914 z " style="fill-opacity:1.000000;fill:rgb(54,148,179);stroke:rgb(0,0,0);stroke-width:2"/></g>
<g fill-rule="evenodd"><path d="M 2082,914 L 2082,741 L 2097,741 L 2097,914 L 2082,914 z " style="fill-opacity:1.000000;fill:rgb(175,226,240);stroke:rgb(0,0,0);stroke-width:2"/></g>
<g fill-rule="evenodd"><path d="M 2042,914 L 2042,741 L 2058,741 L 2058,914 L 2042,914 z " style="fill-opacity:1.000000;fill:rgb(228,158,79);stroke:rgb(0,0,0);stroke-width:2"/></g>
<g fill-rule="evenodd"><path d="M 2003,914 L 2003,741 L 2019,741 L 2019,914 L 2003,914 z " style="fill-opacity:1.000000;fill:rgb(50,21,73);stroke:rgb(0,0,0);stroke-width:2"/></g>
<g fill-rule="evenodd"><path d="M 2003,505 L 2003,332 L 2019,332 L 2019,505 L 2003,505 z " style="fill-opacity:1.000000;fill:rgb(253,130,78);stroke:rgb(0,0,0);stroke-width:2"/></g>
<g fill-rule="evenodd"><path d="M 1885,914 L 1885,741 L 1900,741 L 1900,914 L 1885,914 z " style="fill-opacity:1.000000;fill:rgb(169,8,112);stroke:rgb(0,0,0);stroke-width:2"/></g>
<g fill-rule="evenodd"><path d="M 1885,505 L 1885,332 L 1900,332 L 1900,505 L 1885,505 z " style="fill-opacity:1.000000;fill:rgb(212,178,138);stroke:rgb(0,0,0);stroke-width:2"/></g>
<g fill-rule="evenodd"><path d="M 1845,505 L 1845,332 L 1861,332 L 1861,505 L 1845,505 z " style="fill-opacity:1.000000;fill:rgb(41,84,72);stroke:rgb(0,0,0);stroke-width:2"/></g>
<g fill-rule="evenodd"><path d="M 1806,914 L 1806,741 L 1822,741 L 1822,914 L 1806,914 z " style="fill-opacity:1.000000;fill:rgb(154,10,188);stroke:rgb(0,0,0);stroke-width:2"/></g>
<g fill-rule="evenodd"><path d="M 1806,505 L 1806,332 L 1822,332 L 1822,505 L 1806,505 z " style="fill-opacity:1.000000;fill:rgb(213,14,24);stroke:rgb(0,0,0);stroke-width:2"/></g>
<g fill-rule="evenodd"><path d="M 1767,914 L 1767,741 L 1782,741 L 1782,914 L 1767,914 z " style="fill-opacity:1.000000;fill:rgb(168,68,172);stroke:rgb(0,0,0);stroke-width:2"/></g>
<g fill-rule="evenodd"><path d="M 1727,914 L 1727,741 L 1743,741 L 1743,914 L 1727,914 z " style="fill-opacity:1.000000;fill:rgb(91,243,142);stroke:rgb(0,0,0);stroke-width:2"/></g>
<g fill-rule="evenodd"><path d="M 1727,505 L 1727,332 L 1743,332 L 1743,505 L 1727,505 z " style="fill-opacity:1.000000;fill:rgb(76,215,45);stroke:rgb(0,0,0);stroke-width:2"/></g>
<g fill-rule="evenodd"><path d="M 1688,914 L 1688,741 L 1704,741 L 1704,914 L 1688,914 z " style="fill-opacity:1.000000;fill:rgb(155,9,66);stroke:rgb(0,0,0);stroke-width:2"/></g>
<g fill-rule="evenodd"><path d="M 1688,505 L 1688,332 L 1704,332 L 1704,505 L 1688,505 z " style="fill-opacity:1.000000;fill:rgb(229,6,196);stroke:rgb(0,0,0);stroke-width:2"/></g>
<g fill-rule="evenodd"><path d="M 1609,914 L 1609,741 L 1625,741 L 1625,914 L 1609,914 z " style="fill-opacity:1.000000;fill:rgb(51,175,205);stroke:rgb(0,0,0);stroke-width:2"/></g>
<g fill-rule="evenodd"><path d="M 1609,505 L 1609,332 L 1625,332 L 1625,505 L 1609,505 z " style="fill-opacity:1.000000;fill:rgb(163,132,127);stroke:rgb(0,0,0);stroke-width:2"/></g>
<g fill-rule="evenodd"><path d="M 1570,914 L 1570,741 L 1586,741 L 1586,914 L 1570,914 z " style="fill-opacity:1.000000;fill:rgb(45,173,212);stroke:rgb(0,0,0);stroke-width:2"/></g>
<g fill-rule="evenodd"><path d="M 1570,505 L 1570,332 L 1586,332 L 1586,505 L 1570,505 z " style="fill-opacity:1.000000;fill:rgb(118,71,222);stroke:rgb(0,0,0);stroke-width:2"/></g>
<g fill-rule="evenodd"><path d="M 3244,2072 L 3246,2068 L 3250,2064 L 3254,2061 L 3258,2059 L 3263,2058 L 3268,2058 L 3273,2059 L 3277,2061 L 3281,2064 L 3284,2068 L 3287,2072 L 3288,2077 L 3289,2082 L 3288,2087 L 3287,2091 L 3284,2096 L 3281,2099 L 3277,2102 L 3273,2104 L 3268,2105 L 3263,2105 L 3258,2104 L 3254,2102 L 3250,2099 L 3246,2096 L 3244,2092 L 1829,2092 L 1825,2091 L 1822,2089 L 1743,2009 L 1737,2011 L 1732,2011 L 1727,2010 L 1723,2008 L 1719,2005 L 1715,2001 L 1713,1997 L 1711,1992 L 1711,1987 L 1711,1982 L 1713,1978 L 1715,1973 L 1719,1970 L 1723,1967 L 1727,1965 L 1732,1964 L 1737,1964 L 1742,1965 L 1746,1967 L 1750,1970 L 1754,1973 L 1756,1978 L 1758,1982 L 1758,1987 L 1758,1992 L 1757,1995 L 1833,2072 L 3244,2072 z " style="fill-opacity:1.000000;fill:rgb(50,28,236);stroke:rgb(0,0,0);stroke-width:2"/></g>
<g fill-rule="evenodd"><path d="M 1847,1555 L 1703,1555 L 1702,1557 L 1699,1561 L 1695,1564 L 1690,1566 L 1685,1567 L 1680,1567 L 1676,1566 L 1671,1564 L 1667,1561 L 1664,1557 L 1661,1553 L 1660,1549 L 1659,1544 L 1660,1539 L 1661,1534 L 1664,1530 L 1667,1526 L 1671,1523 L 1676,1521 L 1680,1520 L 1685,1520 L 1690,1521 L 1695,1523 L 1699,1526 L 1702,1530 L 1704,1534 L 1705,1535 L 1847,1535 L 1849,1531 L 1853,1528 L 1857,1525 L 1861,1523 L 1866,1522 L 1871,1522 L 1876,1523 L 1880,1525 L 1884,1528 L 1888,1531 L 1890,1536 L 1892,1540 L 1892,1545 L 1892,1550 L 1890,1555 L 1888,1559 L 1884,1563 L 1880,1566 L 1876,1568 L 1871,1569 L 1866,1569 L 1861,1568 L 1857,1566 L 1853,1563 L 1849,1559 L 1847,1555 z " style="fill-opacity:1.000000;fill:rgb(74,196,48);stroke:rgb(0,0,0);stroke-width:2"/></g>
<g fill-rule="evenodd"><path d="M 1408,2110 L 1402,2111 L 1397,2111 L 1392,2110 L 1388,2108 L 1384,2105 L 1381,2102 L 1378,2097 L 1377,2093 L 1376,2088 L 1377,2083 L 1378,2078 L 1381,2074 L 1384,2070 L 1388,2067 L 1392,2065 L 1397,2064 L 1402,2064 L 1407,2065 L 1412,2067 L 1416,2070 L 1419,2074 L 1421,2078 L 1423,2083 L 1423,2088 L 1423,2093 L 1422,2096 L 1633,2307 L 4206,2307 L 4597,1916 L 4597,271 L 4559,233 L 4343,233 L 4308,268 L 4308,417 L 4308,419 L 4307,421 L 4306,423 L 4306,504 L 4290,504 L 4290,423 L 4289,421 L 4288,419 L 4288,417 L 4288,262 L 4289,260 L 4291,257 L 4332,216 L 4335,214 L 4339,213 L 4565,213 L 4567,214 L 4570,216 L 4615,261 L 4616,263 L 4617,267 L 4617,1922 L 4616,1924 L 4614,1927 L 4216,2325 L 4214,2326 L 4210,2326 L 1628,2326 L 1625,2326 L 1622,2324 L 1408,2110 z " style="fill-opacity:1.000000;fill:rgb(246,32,35);stroke:rgb(0,0,0);stroke-width:2"/></g>
<g fill-rule="evenodd"><path d="M 1438,1732 L 1433,1733 L 1428,1733 L 1423,1732 L 1418,1730 L 1414,1728 L 1411,1724 L 1409,1720 L 1407,1715 L 1407,1710 L 1407,1705 L 1409,1700 L 1411,1696 L 1414,1692 L 1418,1690 L 1423,1688 L 1428,1686 L 1433,1686 L 1437,1688 L 1442,1690 L 1446,1692 L 1449,1696 L 1452,1700 L 1453,1705 L 1454,1710 L 1453,1715 L 1452,1718 L 1528,1794 L 1924,1794 L 1927,1790 L 1930,1786 L 1934,1783 L 1938,1781 L 1943,1780 L 1948,1780 L 1953,1781 L 1957,1783 L 1961,1786 L 1965,1790 L 1967,1794 L 1969,1799 L 1969,1804 L 1969,1809 L 1967,1814 L 1965,1818 L 1961,1821 L 1957,1824 L 1953,1826 L 1948,1827 L 1943,1827 L 1938,1826 L 1934,1824 L 1930,1821 L 1927,1818 L 1924,1814 L 1522,1814 L 1519,1812 L 1517,1811 L 1438,1732 z " style="fill-opacity:1.000000;fill:rgb(133,108,251);stroke:rgb(0,0,0);stroke-width:2"/></g>
<g fill-rule="evenodd"><path d="M 1132,1928 L 1129,1928 L 1124,1927 L 1119,1925 L 1115,1922 L 1112,1919 L 1109,1914 L 1108,1910 L 1107,1905 L 1108,1900 L 1109,1895 L 1112,1891 L 1115,1887 L 1119,1884 L 1124,1882 L 1129,1881 L 1133,1881 L 1138,1882 L 1143,1884 L 1147,1887 L 1150,1891 L 1153,1895 L 1154,1900 L 1155,1905 L 1154,1910 L 1153,1914 L 1152,1916 L 1152,2123 L 1549,2520 L 4333,2520 L 4861,1992 L 4861,241 L 4681,61 L 4256,61 L 4150,167 L 4150,417 L 4150,419 L 4150,421 L 4148,423 L 4148,504 L 4133,504 L 4133,423 L 4132,421 L 4131,419 L 4131,417 L 4131,161 L 4131,159 L 4134,156 L 4245,44 L 4248,42 L 4250,41 L 4686,41 L 4689,42 L 4692,44 L 4878,230 L 4880,233 L 4881,237 L 4881,1998 L 4880,2000 L 4878,2003 L 4344,2537 L 4341,2539 L 4337,2540 L 1543,2540 L 1540,2538 L 1538,2537 L 1134,2132 L 1132,2129 L 1132,2127 L 1132,1928 z " style="fill-opacity:1.000000;fill:rgb(178,7,4);stroke:rgb(0,0,0);stroke-width:2"/></g>
<g fill-rule="evenodd"><path d="M 1212,1971 L 1210,1970 L 1206,1967 L 1203,1964 L 1201,1960 L 1199,1955 L 1199,1950 L 1199,1945 L 1201,1940 L 1203,1936 L 1206,1932 L 1210,1929 L 1215,1927 L 1220,1926 L 1225,1926 L 1229,1927 L 1234,1929 L 1238,1932 L 1241,1936 L 1244,1940 L 1245,1945 L 1246,1950 L 1245,1955 L 1244,1960 L 1241,1964 L 1238,1967 L 1234,1970 L 1232,1971 L 1232,2101 L 1575,2444 L 4275,2444 L 4759,1960 L 4759,229 L 4640,110 L 4296,110 L 4190,217 L 4190,417 L 4190,419 L 4189,421 L 4188,423 L 4188,504 L 4172,504 L 4172,423 L 4171,421 L 4170,419 L 4170,417 L 4170,211 L 4171,209 L 4173,206 L 4285,93 L 4289,91 L 4290,91 L 4644,90 L 4648,91 L 4651,93 L 4776,218 L 4778,221 L 4779,225 L 4778,1966 L 4778,1968 L 4776,1971 L 4286,2461 L 4283,2463 L 4279,2464 L 1569,2463 L 1565,2462 L 1564,2461 L 1214,2111 L 1213,2107 L 1212,2105 L 1212,1971 z " style="fill-opacity:1.000000;fill:rgb(244,236,11);stroke:rgb(0,0,0);stroke-width:2"/></g>
<g fill-rule="evenodd"><path d="M 1329,2034 L 1324,2034 L 1319,2033 L 1314,2031 L 1310,2028 L 1307,2025 L 1305,2020 L 1303,2016 L 1303,2011 L 1303,2006 L 1305,2001 L 1307,1997 L 1310,1993 L 1314,1990 L 1319,1988 L 1324,1987 L 1329,1987 L 1333,1988 L 1338,1990 L 1342,1993 L 1345,1997 L 1348,2001 L 1349,2006 L 1350,2011 L 1349,2016 L 1348,2020 L 1349,2022 L 1349,2024 L 1349,2125 L 1599,2375 L 4245,2375 L 4681,1939 L 4681,247 L 4595,162 L 4318,162 L 4269,211 L 4269,417 L 4268,419 L 4268,421 L 4267,423 L 4267,504 L 4251,504 L 4251,423 L 4250,421 L 4249,419 L 4249,417 L 4249,205 L 4250,203 L 4252,200 L 4307,145 L 4310,143 L 4312,142 L 4600,142 L 4603,143 L 4606,145 L 4698,236 L 4700,239 L 4701,243 L 4700,1945 L 4700,1947 L 4698,1950 L 4256,2392 L 4253,2394 L 4249,2395 L 1593,2395 L 1589,2393 L 1588,2392 L 1331,2135 L 1329,2131 L 1329,2129 L 1329,2034 z " style="fill-opacity:1.000000;fill:rgb(185,32,186);stroke:rgb(0,0,0);stroke-width:2"/></g>
<g fill-rule="evenodd"><path d="M 1344,1398 L 1341,1402 L 1337,1405 L 1333,1407 L 1328,1408 L 1323,1408 L 1318,1407 L 1314,1405 L 1310,1402 L 1306,1398 L 1304,1394 L 1302,1389 L 1302,1384 L 1302,1380 L 1304,1375 L 1306,1371 L 1310,1367 L 1314,1364 L 1318,1362 L 1323,1361 L 1328,1361 L 1333,1362 L 1337,1364 L 1341,1367 L 1344,1371 L 1347,1375 L 1348,1379 L 1953,1379 L 1925,1351 L 1923,1348 L 1922,1344 L 1922,827 L 1922,825 L 1923,823 L 1924,822 L 1924,741 L 1940,741 L 1940,822 L 1941,823 L 1942,825 L 1942,827 L 1942,1340 L 1980,1379 L 2595,1379 L 2597,1378 L 2601,1376 L 2606,1375 L 2611,1375 L 2616,1376 L 2621,1378 L 2625,1380 L 2628,1384 L 2630,1388 L 2632,1393 L 2632,1398 L 2632,1403 L 2630,1408 L 2628,1412 L 2625,1416 L 2621,1418 L 2616,1420 L 2611,1422 L 2606,1422 L 2601,1420 L 2597,1418 L 2593,1416 L 2590,1412 L 2587,1408 L 2586,1403 L 2585,1398 L 1344,1398 z " style="fill-opacity:1.000000;fill:rgb(134,195,62);stroke:rgb(0,0,0);stroke-width:2"/></g>
<g fill-rule="evenodd"><path d="M 1176,1435 L 1177,1438 L 1177,1443 L 1177,1448 L 1175,1452 L 1173,1457 L 1170,1460 L 1166,1463 L 1161,1465 L 1156,1466 L 1151,1466 L 1146,1465 L 1142,1463 L 1138,1460 L 1135,1457 L 1132,1452 L 1131,1448 L 1130,1443 L 1131,1438 L 1132,1433 L 1135,1429 L 1138,1425 L 1142,1422 L 1146,1420 L 1151,1419 L 1156,1419 L 1162,1421 L 1242,1340 L 1242,277 L 1243,273 L 1245,270 L 1370,145 L 1373,143 L 1375,142 L 1858,142 L 1862,143 L 1865,145 L 1939,219 L 1940,220 L 1942,224 L 1942,418 L 1942,420 L 1941,422 L 1940,424 L 1940,505 L 1924,505 L 1924,424 L 1923,422 L 1922,420 L 1922,418 L 1922,230 L 1854,162 L 1381,162 L 1262,281 L 1262,1344 L 1261,1348 L 1259,1351 L 1176,1435 z " style="fill-opacity:1.000000;fill:rgb(5,241,236);stroke:rgb(0,0,0);stroke-width:2"/></g>
<g fill-rule="evenodd"><path d="M 1073,1507 L 1074,1511 L 1074,1516 L 1074,1521 L 1072,1525 L 1070,1529 L 1066,1533 L 1062,1536 L 1058,1538 L 1053,1539 L 1048,1539 L 1043,1538 L 1039,1536 L 1035,1533 L 1031,1529 L 1029,1525 L 1028,1521 L 1027,1516 L 1028,1511 L 1029,1506 L 1031,1502 L 1035,1498 L 1039,1495 L 1043,1493 L 1048,1492 L 1053,1492 L 1059,1494 L 1078,1474 L 1078,372 L 1078,370 L 1080,367 L 1360,86 L 1363,84 L 1365,83 L 1902,83 L 1906,84 L 1908,85 L 2013,85 L 2015,85 L 2019,87 L 2096,164 L 2098,165 L 2099,169 L 2099,418 L 2099,420 L 2098,422 L 2097,424 L 2097,505 L 2082,505 L 2082,424 L 2080,422 L 2080,420 L 2080,418 L 2080,175 L 2009,105 L 1904,105 L 1900,104 L 1899,103 L 1371,103 L 1098,376 L 1098,1478 L 1097,1482 L 1095,1485 L 1073,1507 z " style="fill-opacity:1.000000;fill:rgb(217,103,51);stroke:rgb(0,0,0);stroke-width:2"/></g>
<g fill-rule="evenodd"><path d="M 1845,822 L 1845,741 L 1861,741 L 1861,822 L 1862,823 L 1863,825 L 1863,827 L 1863,1082 L 1867,1084 L 1871,1087 L 1875,1091 L 1877,1095 L 1879,1100 L 1879,1105 L 1879,1110 L 1877,1114 L 1875,1119 L 1871,1122 L 1867,1125 L 1863,1127 L 1858,1128 L 1853,1128 L 1848,1127 L 1844,1125 L 1840,1122 L 1837,1119 L 1834,1114 L 1833,1110 L 1832,1105 L 1833,1100 L 1834,1095 L 1837,1091 L 1840,1087 L 1843,1085 L 1843,827 L 1844,825 L 1844,823 L 1845,822 z " style="fill-opacity:1.000000;fill:rgb(183,153,80);stroke:rgb(0,0,0);stroke-width:2"/></g>
<g fill-rule="evenodd"><path d="M 2318,822 L 2318,741 L 2333,741 L 2333,822 L 2335,823 L 2335,825 L 2335,827 L 2335,976 L 2335,980 L 2334,982 L 2232,1084 L 2233,1086 L 2233,1091 L 2233,1096 L 2231,1100 L 2229,1105 L 2225,1108 L 2221,1111 L 2217,1113 L 2212,1114 L 2207,1114 L 2202,1113 L 2076,1240 L 2077,1243 L 2077,1248 L 2077,1253 L 2075,1258 L 2073,1262 L 2069,1266 L 2065,1269 L 2061,1271 L 2056,1272 L 2051,1272 L 2046,1271 L 2042,1269 L 2038,1266 L 2035,1262 L 2032,1258 L 2031,1253 L 2030,1248 L 2031,1243 L 2032,1238 L 2035,1234 L 2038,1231 L 2042,1228 L 2046,1226 L 2051,1225 L 2056,1225 L 2062,1226 L 2188,1100 L 2186,1096 L 2186,1091 L 2186,1086 L 2188,1081 L 2190,1077 L 2194,1073 L 2198,1070 L 2202,1068 L 2207,1067 L 2212,1067 L 2217,1068 L 2219,1069 L 2316,972 L 2316,827 L 2316,825 L 2317,823 L 2318,822 z " style="fill-opacity:1.000000;fill:rgb(163,227,20);stroke:rgb(0,0,0);stroke-width:2"/></g>
<g fill-rule="evenodd"><path d="M 1849,1262 L 1852,1258 L 1855,1254 L 1859,1252 L 1864,1250 L 1868,1249 L 1873,1249 L 1878,1250 L 1883,1252 L 1887,1254 L 1890,1258 L 1892,1262 L 1894,1267 L 1894,1272 L 1894,1277 L 1892,1282 L 1890,1286 L 1887,1290 L 1883,1293 L 1878,1295 L 1873,1296 L 1868,1296 L 1864,1295 L 1859,1293 L 1855,1290 L 1852,1286 L 1849,1282 L 1719,1282 L 1715,1280 L 1714,1279 L 1663,1228 L 1657,1230 L 1652,1230 L 1648,1229 L 1643,1227 L 1639,1224 L 1636,1220 L 1633,1216 L 1632,1211 L 1631,1206 L 1632,1201 L 1633,1196 L 1636,1192 L 1639,1189 L 1643,1186 L 1648,1184 L 1652,1183 L 1657,1183 L 1662,1184 L 1667,1186 L 1671,1189 L 1674,1192 L 1676,1196 L 1678,1201 L 1679,1206 L 1678,1211 L 1677,1214 L 1725,1262 L 1849,1262 z " style="fill-opacity:1.000000;fill:rgb(211,217,52);stroke:rgb(0,0,0);stroke-width:2"/></g>
<g fill-rule="evenodd"><path d="M 1782,424 L 1782,505 L 1767,505 L 1767,424 L 1766,422 L 1765,420 L 1765,418 L 1765,235 L 1760,232 L 1757,228 L 1754,224 L 1753,219 L 1752,214 L 1753,209 L 1754,205 L 1757,200 L 1760,197 L 1764,194 L 1768,192 L 1773,191 L 1778,191 L 1783,192 L 1787,194 L 1791,197 L 1795,200 L 1797,205 L 1799,209 L 1799,214 L 1799,219 L 1797,224 L 1795,228 L 1791,232 L 1787,235 L 1784,236 L 1784,418 L 1784,420 L 1784,422 L 1782,424 z " style="fill-opacity:1.000000;fill:rgb(247,94,160);stroke:rgb(0,0,0);stroke-width:2"/></g>
<g fill-rule="evenodd"><path d="M 2058,424 L 2058,505 L 2042,505 L 2042,424 L 2041,422 L 2040,420 L 2040,418 L 2040,218 L 2027,205 L 2021,206 L 2016,206 L 2012,205 L 2007,203 L 2003,200 L 2000,197 L 1997,192 L 1996,188 L 1995,183 L 1996,178 L 1997,173 L 2000,169 L 2003,165 L 2007,162 L 2012,160 L 2016,159 L 2021,159 L 2026,160 L 2031,162 L 2035,165 L 2038,169 L 2040,173 L 2042,178 L 2042,183 L 2042,188 L 2041,191 L 2057,207 L 2058,208 L 2060,212 L 2060,418 L 2060,420 L 2059,422 L 2058,424 z " style="fill-opacity:1.000000;fill:rgb(242,16,168);stroke:rgb(0,0,0);stroke-width:2"/></g>
<g fill-rule="evenodd"><path d="M 2137,424 L 2137,505 L 2121,505 L 2121,424 L 2120,422 L 2119,420 L 2119,418 L 2119,181 L 2120,177 L 2124,168 L 2122,166 L 2120,161 L 2118,157 L 2118,152 L 2118,147 L 2120,142 L 2122,138 L 2125,134 L 2129,131 L 2134,129 L 2139,128 L 2144,128 L 2148,129 L 2153,131 L 2157,134 L 2160,138 L 2163,142 L 2164,147 L 2165,152 L 2164,157 L 2163,161 L 2160,166 L 2157,169 L 2153,172 L 2148,174 L 2144,175 L 2142,175 L 2139,183 L 2139,418 L 2138,420 L 2138,422 L 2137,424 z " style="fill-opacity:1.000000;fill:rgb(246,5,148);stroke:rgb(0,0,0);stroke-width:2"/></g>
<g fill-rule="evenodd"><path d="M 2333,424 L 2333,505 L 2318,505 L 2318,427 L 2315,425 L 2313,424 L 2312,420 L 2312,418 L 2312,243 L 2313,240 L 2315,236 L 2332,219 L 2332,129 L 2300,97 L 2272,97 L 2269,97 L 2267,98 L 2262,99 L 2257,99 L 2253,98 L 2248,96 L 2244,93 L 2241,89 L 2238,85 L 2237,80 L 2236,75 L 2237,70 L 2238,65 L 2241,61 L 2244,58 L 2248,55 L 2253,53 L 2257,52 L 2262,52 L 2267,53 L 2272,55 L 2276,58 L 2279,61 L 2282,65 L 2283,70 L 2284,75 L 2283,78 L 2304,78 L 2306,78 L 2309,79 L 2349,118 L 2350,120 L 2351,123 L 2351,225 L 2351,227 L 2349,230 L 2332,247 L 2332,332 L 2333,332 L 2333,412 L 2335,415 L 2335,417 L 2335,419 L 2335,421 L 2333,424 z " style="fill-opacity:1.000000;fill:rgb(1,190,180);stroke:rgb(0,0,0);stroke-width:2"/></g>
<g fill-rule="evenodd"><path d="M 2452,424 L 2452,505 L 2436,505 L 2436,424 L 2435,422 L 2434,420 L 2434,418 L 2434,127 L 2430,124 L 2427,120 L 2424,116 L 2423,111 L 2422,106 L 2423,101 L 2424,97 L 2427,92 L 2430,89 L 2434,86 L 2439,84 L 2443,83 L 2448,83 L 2453,84 L 2458,86 L 2462,89 L 2465,92 L 2468,97 L 2469,101 L 2470,106 L 2469,111 L 2468,116 L 2465,120 L 2462,124 L 2458,127 L 2454,129 L 2454,418 L 2453,420 L 2453,422 L 2452,424 z " style="fill-opacity:1.000000;fill:rgb(188,68,120);stroke:rgb(0,0,0);stroke-width:2"/></g>
<g fill-rule="evenodd"><path d="M 2412,424 L 2412,505 L 2396,505 L 2396,424 L 2395,422 L 2395,420 L 2394,418 L 2394,172 L 2389,172 L 2385,171 L 2380,169 L 2376,166 L 2373,162 L 2370,158 L 2369,153 L 2368,148 L 2369,143 L 2370,139 L 2373,134 L 2376,131 L 2380,128 L 2385,126 L 2389,125 L 2394,125 L 2399,126 L 2404,128 L 2408,131 L 2411,134 L 2414,139 L 2415,143 L 2416,148 L 2415,153 L 2414,158 L 2414,161 L 2414,418 L 2414,420 L 2413,422 L 2412,424 z " style="fill-opacity:1.000000;fill:rgb(250,73,105);stroke:rgb(0,0,0);stroke-width:2"/></g>
<g fill-rule="evenodd"><path d="M 2294,424 L 2294,505 L 2278,505 L 2278,424 L 2277,422 L 2277,420 L 2276,418 L 2276,178 L 2274,177 L 2270,174 L 2267,171 L 2264,166 L 2263,162 L 2262,157 L 2263,152 L 2264,147 L 2267,143 L 2270,139 L 2274,136 L 2279,134 L 2283,133 L 2288,133 L 2293,134 L 2298,136 L 2302,139 L 2305,143 L 2308,147 L 2309,152 L 2310,157 L 2309,162 L 2308,166 L 2305,171 L 2302,174 L 2298,177 L 2296,178 L 2296,418 L 2296,420 L 2295,422 L 2294,424 z " style="fill-opacity:1.000000;fill:rgb(230,35,208);stroke:rgb(0,0,0);stroke-width:2"/></g>
<g fill-rule="evenodd"><path d="M 4015,423 L 4014,421 L 4013,419 L 4013,417 L 4013,157 L 3999,144 L 3994,145 L 3989,145 L 3984,144 L 3979,142 L 3975,139 L 3972,136 L 3970,131 L 3968,127 L 3968,122 L 3968,117 L 3970,112 L 3972,108 L 3975,104 L 3979,101 L 3984,99 L 3989,98 L 3994,98 L 3999,99 L 4003,101 L 4007,104 L 4010,108 L 4013,112 L 4014,117 L 4015,122 L 4014,127 L 4013,130 L 4029,146 L 4031,148 L 4032,151 L 4032,417 L 4032,419 L 4031,421 L 4030,423 L 4030,504 L 4015,504 L 4015,423 z " style="fill-opacity:1.000000;fill:rgb(26,218,105);stroke:rgb(0,0,0);stroke-width:2"/></g>
<g fill-rule="evenodd"><path d="M 4070,423 L 4070,504 L 4054,504 L 4054,423 L 4053,421 L 4052,419 L 4052,417 L 4052,84 L 4053,81 L 4054,79 L 4053,75 L 4052,70 L 4053,65 L 4054,61 L 4057,56 L 4060,53 L 4064,50 L 4069,48 L 4074,47 L 4078,47 L 4083,48 L 4088,50 L 4092,53 L 4095,56 L 4098,61 L 4099,65 L 4100,70 L 4099,75 L 4098,80 L 4095,84 L 4092,88 L 4088,91 L 4083,93 L 4078,94 L 4074,94 L 4072,93 L 4072,417 L 4071,419 L 4071,421 L 4070,423 z " style="fill-opacity:1.000000;fill:rgb(106,126,76);stroke:rgb(0,0,0);stroke-width:2"/></g>
<g fill-rule="evenodd"><path d="M 2552,948 L 2552,707 L 2544,702 L 2541,702 L 2539,702 L 2529,700 L 2515,700 L 2502,702 L 2490,700 L 2476,700 L 2463,702 L 2451,700 L 2437,700 L 2424,702 L 2411,700 L 2397,700 L 2387,702 L 2385,702 L 2383,702 L 2380,704 L 2370,710 L 2367,712 L 2365,712 L 2363,712 L 2359,710 L 2349,703 L 2347,702 L 2344,702 L 2342,702 L 2332,700 L 2319,700 L 2305,702 L 2293,700 L 2279,700 L 2266,702 L 2254,700 L 2240,700 L 2227,702 L 2214,700 L 2201,700 L 2187,702 L 2175,700 L 2161,700 L 2148,702 L 2136,700 L 2122,700 L 2109,702 L 2096,700 L 2082,700 L 2069,702 L 2057,700 L 2043,700 L 2030,702 L 2018,700 L 2004,700 L 1994,702 L 1992,702 L 1989,702 L 1987,703 L 1981,707 L 1981,827 L 1981,830 L 1980,831 L 1979,833 L 1979,914 L 1963,914 L 1963,833 L 1962,831 L 1962,830 L 1962,827 L 1962,707 L 1954,702 L 1951,702 L 1949,702 L 1939,700 L 1925,700 L 1912,702 L 1900,700 L 1886,700 L 1872,702 L 1860,700 L 1846,700 L 1833,702 L 1821,700 L 1807,700 L 1794,702 L 1781,700 L 1768,700 L 1754,702 L 1742,700 L 1728,700 L 1715,702 L 1703,700 L 1689,700 L 1679,702 L 1677,702 L 1674,702 L 1672,703 L 1666,707 L 1666,827 L 1666,830 L 1665,831 L 1664,833 L 1664,914 L 1649,914 L 1649,833 L 1647,831 L 1647,830 L 1647,827 L 1647,707 L 1639,702 L 1636,702 L 1634,702 L 1624,700 L 1610,700 L 1597,702 L 1585,700 L 1571,700 L 1555,703 L 1541,712 L 1532,725 L 1529,742 L 1529,913 L 1532,929 L 1541,943 L 1554,952 L 1571,955 L 1585,955 L 1598,953 L 1610,955 L 1624,955 L 1634,953 L 1636,953 L 1639,953 L 1641,951 L 1651,945 L 1653,944 L 1657,943 L 1660,944 L 1662,945 L 1673,952 L 1674,953 L 1677,953 L 1679,953 L 1689,955 L 1703,955 L 1716,953 L 1728,955 L 1742,955 L 1755,953 L 1768,955 L 1781,955 L 1794,953 L 1797,954 L 1799,955 L 1802,957 L 1803,961 L 1803,963 L 1803,1063 L 1803,1067 L 1792,1092 L 1792,1117 L 1802,1141 L 1820,1159 L 1843,1168 L 1868,1169 L 1870,1168 L 1872,1168 L 1876,1168 L 1879,1171 L 1881,1174 L 1882,1178 L 1882,1198 L 1881,1202 L 1879,1206 L 1876,1208 L 1872,1208 L 1858,1208 L 1835,1218 L 1832,1221 L 1829,1222 L 1744,1222 L 1740,1221 L 1739,1219 L 1720,1201 L 1719,1197 L 1719,1193 L 1709,1170 L 1691,1152 L 1668,1142 L 1642,1142 L 1619,1152 L 1601,1170 L 1591,1193 L 1591,1219 L 1601,1242 L 1619,1260 L 1642,1270 L 1646,1270 L 1649,1271 L 1685,1307 L 1702,1318 L 1708,1319 L 1711,1322 L 1714,1325 L 1714,1329 L 1714,1331 L 1713,1334 L 1711,1336 L 1708,1338 L 1704,1339 L 1374,1339 L 1370,1338 L 1368,1337 L 1361,1331 L 1338,1321 L 1312,1321 L 1308,1320 L 1306,1319 L 1304,1316 L 1302,1313 L 1302,1311 L 1302,301 L 1303,298 L 1305,294 L 1395,205 L 1398,202 L 1400,202 L 1702,202 L 1706,202 L 1709,205 L 1711,208 L 1712,210 L 1712,227 L 1722,250 L 1723,252 L 1725,255 L 1725,285 L 1723,288 L 1720,291 L 1717,293 L 1715,293 L 1703,291 L 1689,291 L 1679,292 L 1677,293 L 1674,292 L 1672,295 L 1662,301 L 1658,302 L 1656,302 L 1654,302 L 1651,301 L 1640,294 L 1639,292 L 1636,293 L 1634,293 L 1624,291 L 1610,291 L 1597,293 L 1585,291 L 1571,291 L 1555,293 L 1541,302 L 1532,316 L 1529,333 L 1529,504 L 1532,519 L 1541,533 L 1554,542 L 1571,546 L 1585,546 L 1598,543 L 1610,546 L 1624,546 L 1634,544 L 1636,544 L 1639,544 L 1640,542 L 1647,538 L 1647,418 L 1647,416 L 1647,414 L 1649,412 L 1649,332 L 1664,332 L 1664,412 L 1665,414 L 1666,416 L 1666,418 L 1666,535 L 1675,544 L 1677,544 L 1679,544 L 1689,546 L 1703,546 L 1716,543 L 1728,546 L 1742,546 L 1755,543 L 1768,546 L 1781,546 L 1795,543 L 1807,546 L 1821,546 L 1834,543 L 1846,546 L 1860,546 L 1873,543 L 1886,546 L 1900,546 L 1913,543 L 1925,546 L 1939,546 L 1949,544 L 1951,544 L 1954,544 L 1955,542 L 1962,538 L 1962,418 L 1962,416 L 1962,414 L 1963,412 L 1963,332 L 1979,332 L 1979,412 L 1980,414 L 1981,416 L 1981,418 L 1981,538 L 1989,544 L 1992,544 L 1994,544 L 2004,546 L 2018,546 L 2031,543 L 2043,546 L 2057,546 L 2070,543 L 2083,546 L 2096,546 L 2110,543 L 2122,546 L 2136,546 L 2149,543 L 2161,546 L 2175,546 L 2188,543 L 2201,546 L 2214,546 L 2228,543 L 2240,546 L 2254,546 L 2267,543 L 2279,546 L 2293,546 L 2306,543 L 2319,546 L 2333,546 L 2343,544 L 2345,544 L 2347,544 L 2349,542 L 2355,538 L 2355,418 L 2355,416 L 2356,414 L 2357,412 L 2357,332 L 2373,332 L 2373,412 L 2374,414 L 2375,416 L 2375,418 L 2375,538 L 2383,544 L 2386,544 L 2388,544 L 2397,546 L 2411,546 L 2425,543 L 2437,546 L 2451,546 L 2464,543 L 2476,546 L 2490,546 L 2503,543 L 2516,546 L 2529,546 L 2539,544 L 2541,544 L 2544,544 L 2546,542 L 2552,538 L 2552,418 L 2552,416 L 2553,414 L 2554,412 L 2554,332 L 2570,332 L 2570,412 L 2571,414 L 2571,416 L 2572,418 L 2572,538 L 2580,544 L 2583,544 L 2584,544 L 2594,546 L 2608,546 L 2621,543 L 2634,546 L 2647,546 L 2661,543 L 2673,546 L 2687,546 L 2700,543 L 2712,546 L 2726,546 L 2742,543 L 2756,534 L 2765,521 L 2768,504 L 2768,332 L 2765,317 L 2756,303 L 2743,294 L 2726,291 L 2712,291 L 2699,293 L 2687,291 L 2673,291 L 2660,293 L 2647,291 L 2634,291 L 2620,293 L 2608,291 L 2594,291 L 2584,292 L 2582,293 L 2580,292 L 2577,295 L 2567,301 L 2563,302 L 2562,302 L 2560,302 L 2556,301 L 2546,294 L 2544,292 L 2541,293 L 2539,293 L 2529,291 L 2515,291 L 2503,293 L 2500,292 L 2496,290 L 2494,286 L 2494,283 L 2494,153 L 2494,149 L 2495,147 L 2500,142 L 2510,119 L 2510,94 L 2500,70 L 2491,61 L 2489,57 L 2489,53 L 2491,50 L 2494,47 L 2495,46 L 2499,45 L 3959,45 L 3963,46 L 3966,48 L 3968,50 L 3969,53 L 3969,57 L 3969,59 L 3966,62 L 3965,64 L 3955,68 L 3937,86 L 3928,109 L 3928,134 L 3937,158 L 3955,176 L 3967,180 L 3970,183 L 3971,184 L 3972,188 L 3973,282 L 3972,285 L 3970,289 L 3968,290 L 3966,291 L 3962,292 L 3951,290 L 3937,290 L 3924,292 L 3911,290 L 3897,290 L 3887,291 L 3885,292 L 3883,291 L 3880,294 L 3870,300 L 3867,301 L 3865,301 L 3863,301 L 3859,300 L 3849,293 L 3847,291 L 3844,292 L 3842,292 L 3833,290 L 3819,290 L 3805,292 L 3793,290 L 3779,290 L 3769,291 L 3767,292 L 3765,291 L 3762,294 L 3752,300 L 3749,301 L 3747,301 L 3745,301 L 3741,300 L 3731,293 L 3729,291 L 3726,292 L 3724,292 L 3714,290 L 3701,290 L 3687,292 L 3675,290 L 3661,290 L 3651,291 L 3649,292 L 3647,291 L 3644,294 L 3634,300 L 3631,301 L 3629,301 L 3627,301 L 3623,300 L 3613,293 L 3611,291 L 3608,292 L 3606,292 L 3596,290 L 3583,290 L 3569,292 L 3557,290 L 3543,290 L 3533,291 L 3531,292 L 3529,291 L 3526,294 L 3516,300 L 3512,301 L 3511,301 L 3509,301 L 3505,300 L 3495,293 L 3493,291 L 3490,292 L 3488,292 L 3478,290 L 3464,290 L 3451,292 L 3439,290 L 3425,290 L 3415,291 L 3413,292 L 3410,291 L 3408,294 L 3398,300 L 3394,301 L 3392,301 L 3391,301 L 3387,300 L 3377,293 L 3375,291 L 3372,292 L 3370,292 L 3360,290 L 3346,290 L 3333,292 L 3321,290 L 3307,290 L 3297,291 L 3295,292 L 3292,291 L 3290,294 L 3280,300 L 3276,301 L 3274,301 L 3272,301 L 3269,300 L 3259,293 L 3257,291 L 3254,292 L 3252,292 L 3242,290 L 3228,290 L 3215,292 L 3203,290 L 3189,290 L 3176,292 L 3163,290 L 3150,290 L 3134,292 L 3120,301 L 3111,315 L 3108,332 L 3108,503 L 3111,518 L 3119,532 L 3133,541 L 3150,545 L 3163,545 L 3177,542 L 3189,545 L 3203,545 L 3216,542 L 3228,545 L 3242,545 L 3252,543 L 3254,543 L 3257,543 L 3259,541 L 3265,537 L 3265,417 L 3265,415 L 3266,413 L 3267,411 L 3267,331 L 3282,331 L 3282,411 L 3284,413 L 3284,415 L 3284,417 L 3284,537 L 3292,543 L 3295,543 L 3297,543 L 3307,545 L 3321,545 L 3334,542 L 3346,545 L 3360,545 L 3370,543 L 3372,543 L 3375,543 L 3377,541 L 3383,537 L 3383,417 L 3383,415 L 3384,413 L 3385,411 L 3385,331 L 3401,331 L 3401,411 L 3402,413 L 3402,415 L 3403,417 L 3403,537 L 3410,543 L 3413,543 L 3415,543 L 3425,545 L 3439,545 L 3452,542 L 3465,545 L 3478,545 L 3488,543 L 3490,543 L 3493,543 L 3495,541 L 3501,537 L 3501,417 L 3501,415 L 3502,413 L 3503,411 L 3503,331 L 3519,331 L 3519,411 L 3520,413 L 3520,415 L 3521,417 L 3521,537 L 3529,543 L 3532,543 L 3533,543 L 3543,545 L 3557,545 L 3570,542 L 3583,545 L 3596,545 L 3607,543 L 3608,543 L 3611,543 L 3613,541 L 3619,537 L 3619,417 L 3619,415 L 3620,413 L 3621,411 L 3621,331 L 3637,331 L 3637,411 L 3638,413 L 3638,415 L 3639,417 L 3639,537 L 3647,543 L 3650,543 L 3652,543 L 3661,545 L 3675,545 L 3688,542 L 3701,545 L 3715,545 L 3725,543 L 3727,543 L 3729,543 L 3731,541 L 3737,537 L 3737,417 L 3737,415 L 3738,413 L 3739,411 L 3739,331 L 3755,331 L 3755,411 L 3756,413 L 3757,415 L 3757,417 L 3757,537 L 3765,543 L 3768,543 L 3770,543 L 3779,545 L 3793,545 L 3807,542 L 3819,545 L 3833,545 L 3843,543 L 3845,543 L 3847,543 L 3849,541 L 3855,537 L 3855,417 L 3855,415 L 3856,413 L 3857,411 L 3857,331 L 3873,331 L 3873,411 L 3874,413 L 3875,415 L 3875,417 L 3875,537 L 3883,543 L 3886,543 L 3888,543 L 3898,545 L 3911,545 L 3925,542 L 3937,545 L 3951,545 L 3961,543 L 3963,543 L 3965,543 L 3967,541 L 3973,537 L 3973,417 L 3974,415 L 3974,413 L 3975,411 L 3975,331 L 3991,331 L 3991,411 L 3992,413 L 3993,415 L 3993,417 L 3993,537 L 4001,543 L 4004,543 L 4006,543 L 4016,545 L 4029,545 L 4043,542 L 4055,545 L 4069,545 L 4079,543 L 4081,543 L 4083,543 L 4085,541 L 4091,537 L 4091,417 L 4092,415 L 4092,413 L 4093,411 L 4093,331 L 4109,331 L 4109,411 L 4110,413 L 4111,415 L 4111,417 L 4111,537 L 4119,543 L 4122,543 L 4124,543 L 4134,545 L 4148,545 L 4161,542 L 4173,545 L 4187,545 L 4197,543 L 4199,543 L 4202,543 L 4203,541 L 4209,537 L 4209,417 L 4210,415 L 4210,413 L 4211,411 L 4211,331 L 4227,331 L 4227,411 L 4228,413 L 4229,415 L 4229,417 L 4229,537 L 4237,543 L 4240,543 L 4242,543 L 4252,545 L 4266,545 L 4279,542 L 4291,545 L 4305,545 L 4321,542 L 4334,533 L 4343,520 L 4347,503 L 4347,422 L 4348,416 L 4348,289 L 4349,285 L 4351,281 L 4358,275 L 4360,274 L 4364,273 L 4539,273 L 4543,274 L 4546,276 L 4554,284 L 4557,288 L 4557,291 L 4557,1895 L 4557,1899 L 4554,1902 L 4193,2264 L 4189,2266 L 4188,2267 L 1653,2267 L 1649,2266 L 1646,2264 L 1466,2084 L 1464,2081 L 1464,2079 L 1463,2075 L 1454,2052 L 1436,2034 L 1412,2024 L 1398,2024 L 1396,2024 L 1393,2021 L 1391,2018 L 1390,2016 L 1390,1998 L 1380,1975 L 1362,1957 L 1339,1947 L 1314,1947 L 1298,1953 L 1294,1953 L 1292,1953 L 1289,1951 L 1287,1947 L 1286,1944 L 1286,1937 L 1276,1914 L 1258,1896 L 1235,1886 L 1210,1886 L 1202,1889 L 1198,1889 L 1196,1889 L 1193,1886 L 1192,1885 L 1185,1869 L 1167,1851 L 1144,1841 L 1118,1841 L 1095,1851 L 1077,1869 L 1067,1892 L 1067,1917 L 1077,1941 L 1089,1953 L 1091,1956 L 1092,1958 L 1092,2126 L 1096,2146 L 1107,2163 L 1509,2565 L 1526,2576 L 1546,2580 L 4336,2580 L 4356,2576 L 4373,2565 L 4906,2032 L 4917,2015 L 4921,1995 L 4921,238 L 4917,218 L 4906,201 L 4767,62 L 4766,61 L 4765,57 L 4765,53 L 4766,50 L 4769,47 L 4771,46 L 4774,45 L 5848,45 L 5852,46 L 5854,47 L 5855,48 L 5858,52 L 5858,55 L 5858,3093 L 5858,3096 L 5857,3098 L 5854,3101 L 5852,3102 L 5848,3103 L 56,3103 L 52,3102 L 49,3100 L 46,3096 L 46,3093 L 46,55 L 46,52 L 49,48 L 52,46 L 56,45 L 1320,45 L 1324,46 L 1327,48 L 1328,50 L 1329,52 L 1330,55 L 1329,59 L 1327,62 L 1053,336 L 1042,353 L 1038,373 L 1038,1445 L 1037,1449 L 1035,1452 L 1032,1455 L 1015,1462 L 997,1480 L 987,1503 L 987,1528 L 997,1552 L 1015,1569 L 1038,1579 L 1063,1579 L 1087,1570 L 1104,1552 L 1114,1528 L 1114,1525 L 1115,1523 L 1117,1520 L 1122,1514 L 1126,1509 L 1129,1506 L 1132,1505 L 1134,1504 L 1136,1505 L 1141,1506 L 1166,1506 L 1190,1497 L 1208,1479 L 1217,1456 L 1218,1452 L 1218,1450 L 1220,1447 L 1254,1413 L 1257,1411 L 1261,1411 L 1264,1411 L 1268,1414 L 1270,1417 L 1271,1420 L 1289,1438 L 1313,1448 L 1338,1448 L 1360,1439 L 1364,1438 L 2555,1438 L 2559,1439 L 2560,1440 L 2573,1452 L 2596,1462 L 2621,1462 L 2645,1452 L 2663,1434 L 2672,1411 L 2672,1385 L 2663,1362 L 2645,1344 L 2621,1334 L 2596,1334 L 2588,1338 L 2584,1339 L 2001,1339 L 1997,1338 L 1994,1336 L 1985,1326 L 1983,1323 L 1982,1321 L 1982,1288 L 1983,1287 L 1985,1283 L 1986,1282 L 1990,1281 L 1994,1281 L 1997,1282 L 2018,1302 L 2041,1312 L 2066,1312 L 2090,1302 L 2107,1284 L 2117,1261 L 2117,1257 L 2118,1255 L 2120,1252 L 2215,1157 L 2218,1155 L 2220,1155 L 2222,1155 L 2246,1145 L 2263,1127 L 2273,1104 L 2273,1101 L 2274,1099 L 2276,1096 L 2360,1013 L 2357,1009 L 2356,1008 L 2355,1004 L 2355,827 L 2355,825 L 2356,823 L 2357,822 L 2357,741 L 2373,741 L 2373,822 L 2374,823 L 2375,825 L 2375,827 L 2375,978 L 2375,975 L 2375,963 L 2376,959 L 2377,957 L 2380,955 L 2384,953 L 2388,953 L 2397,955 L 2411,955 L 2425,953 L 2437,955 L 2451,955 L 2464,953 L 2476,955 L 2490,955 L 2503,953 L 2516,955 L 2529,955 L 2539,953 L 2541,953 L 2544,953 L 2546,952 L 2552,948M 1830,2132 L 3221,2132 L 3225,2132 L 3227,2133 L 3229,2136 L 3253,2145 L 3278,2146 L 3301,2136 L 3319,2118 L 3329,2095 L 3329,2069 L 3319,2046 L 3301,2028 L 3278,2018 L 3253,2018 L 3229,2028 L 3227,2030 L 3225,2031 L 3221,2032 L 1854,2032 L 1850,2031 L 1847,2029 L 1801,1983 L 1799,1980 L 1798,1978 L 1798,1975 L 1788,1951 L 1771,1933 L 1747,1924 L 1722,1923 L 1698,1933 L 1681,1951 L 1671,1974 L 1671,2000 L 1681,2023 L 1698,2041 L 1722,2051 L 1725,2051 L 1727,2051 L 1731,2054 L 1793,2116 L 1810,2128 L 1830,2132M 2919,3000 L 2985,3000 L 3046,2974 L 3093,2928 L 3118,2867 L 3118,2801 L 3093,2740 L 3046,2693 L 2985,2668 L 2919,2668 L 2858,2693 L 2811,2739 L 2786,2800 L 2786,2866 L 2811,2927 L 2858,2974 L 2919,3000M 1629,1580 L 1647,1597 L 1670,1607 L 1695,1607 L 1719,1597 L 1722,1596 L 1726,1595 L 1824,1595 L 1828,1596 L 1830,1597 L 1832,1599 L 1856,1609 L 1881,1609 L 1904,1599 L 1922,1581 L 1932,1558 L 1932,1533 L 1922,1509 L 1905,1491 L 1881,1482 L 1856,1482 L 1832,1491 L 1830,1494 L 1828,1495 L 1824,1495 L 1729,1495 L 1725,1495 L 1723,1494 L 1719,1490 L 1696,1480 L 1670,1480 L 1647,1490 L 1629,1508 L 1619,1531 L 1619,1556 L 1629,1580M 130,3044 L 2510,3044 L 2510,2763 L 130,2763 L 130,3044M 1488,1838 L 1505,1850 L 1525,1854 L 1901,1854 L 1905,1855 L 1907,1855 L 1910,1858 L 1933,1868 L 1958,1868 L 1982,1858 L 2000,1840 L 2009,1817 L 2009,1791 L 2000,1768 L 1982,1750 L 1958,1740 L 1933,1740 L 1910,1750 L 1907,1752 L 1905,1753 L 1901,1754 L 1547,1754 L 1543,1752 L 1542,1751 L 1497,1706 L 1495,1703 L 1494,1701 L 1494,1697 L 1484,1674 L 1466,1656 L 1443,1646 L 1418,1646 L 1394,1656 L 1376,1674 L 1367,1697 L 1367,1723 L 1376,1746 L 1394,1764 L 1417,1774 L 1421,1774 L 1423,1774 L 1426,1776 L 1488,1838M 221,455 L 282,480 L 348,480 L 409,455 L 455,409 L 481,348 L 481,282 L 455,221 L 409,174 L 348,148 L 282,148 L 221,174 L 174,220 L 149,281 L 149,347 L 174,408 L 221,455M 5495,455 L 5556,480 L 5622,480 L 5683,455 L 5730,409 L 5755,348 L 5755,282 L 5730,221 L 5683,174 L 5622,148 L 5556,148 L 5495,174 L 5449,220 L 5423,281 L 5423,347 L 5449,408 L 5495,455M 2572,948 L 2580,953 L 2583,953 L 2584,953 L 2594,955 L 2608,955 L 2621,953 L 2634,955 L 2647,955 L 2661,953 L 2673,955 L 2687,955 L 2700,953 L 2712,955 L 2726,955 L 2742,952 L 2756,943 L 2765,930 L 2768,913 L 2768,742 L 2765,726 L 2756,712 L 2743,703 L 2726,700 L 2712,700 L 2699,702 L 2687,700 L 2673,700 L 2660,702 L 2647,700 L 2634,700 L 2620,702 L 2608,700 L 2594,700 L 2584,702 L 2582,702 L 2580,702 L 2578,703 L 2572,707 L 2572,948M 3639,706 L 3639,826 L 3638,829 L 3638,830 L 3637,832 L 3637,913 L 3621,913 L 3621,832 L 3620,830 L 3619,829 L 3619,826 L 3619,706 L 3611,701 L 3608,701 L 3606,701 L 3596,699 L 3583,699 L 3569,701 L 3557,699 L 3543,699 L 3533,701 L 3531,701 L 3529,701 L 3527,702 L 3521,706 L 3521,826 L 3520,829 L 3520,830 L 3519,832 L 3519,913 L 3503,913 L 3503,832 L 3502,830 L 3501,829 L 3501,826 L 3501,706 L 3493,701 L 3490,701 L 3488,701 L 3478,699 L 3464,699 L 3451,701 L 3439,699 L 3425,699 L 3415,701 L 3413,701 L 3410,701 L 3409,702 L 3403,706 L 3403,826 L 3402,829 L 3402,830 L 3401,832 L 3401,913 L 3385,913 L 3385,832 L 3384,830 L 3383,829 L 3383,826 L 3383,706 L 3375,701 L 3372,701 L 3370,701 L 3360,699 L 3346,699 L 3333,701 L 3321,699 L 3307,699 L 3297,701 L 3295,701 L 3292,701 L 3291,702 L 3284,706 L 3284,826 L 3284,829 L 3284,830 L 3282,832 L 3282,913 L 3267,913 L 3267,832 L 3266,830 L 3265,829 L 3265,826 L 3265,706 L 3257,701 L 3254,701 L 3252,701 L 3242,699 L 3228,699 L 3215,701 L 3203,699 L 3189,699 L 3176,701 L 3163,699 L 3150,699 L 3134,702 L 3120,711 L 3111,724 L 3108,741 L 3108,912 L 3111,928 L 3119,942 L 3133,951 L 3150,954 L 3163,954 L 3177,952 L 3189,954 L 3203,954 L 3216,952 L 3228,954 L 3242,954 L 3252,952 L 3254,952 L 3257,952 L 3259,950 L 3269,944 L 3271,943 L 3275,942 L 3279,943 L 3280,944 L 3291,951 L 3292,952 L 3295,952 L 3297,952 L 3307,954 L 3321,954 L 3334,952 L 3346,954 L 3360,954 L 3370,952 L 3372,952 L 3375,952 L 3378,950 L 3387,944 L 3389,943 L 3393,942 L 3397,943 L 3398,944 L 3409,951 L 3410,952 L 3413,952 L 3415,952 L 3425,954 L 3439,954 L 3452,952 L 3465,954 L 3478,954 L 3488,952 L 3490,952 L 3493,952 L 3496,950 L 3505,944 L 3507,943 L 3511,942 L 3515,943 L 3517,944 L 3527,951 L 3529,952 L 3532,952 L 3533,952 L 3543,954 L 3557,954 L 3570,952 L 3583,954 L 3596,954 L 3607,952 L 3608,952 L 3611,952 L 3614,950 L 3624,944 L 3625,943 L 3629,942 L 3633,943 L 3635,944 L 3645,951 L 3647,952 L 3650,952 L 3652,952 L 3661,954 L 3675,954 L 3688,952 L 3701,954 L 3715,954 L 3725,952 L 3727,952 L 3729,952 L 3732,950 L 3742,944 L 3743,943 L 3747,942 L 3751,943 L 3753,944 L 3763,951 L 3765,952 L 3768,952 L 3770,952 L 3779,954 L 3793,954 L 3807,952 L 3819,954 L 3833,954 L 3843,952 L 3845,952 L 3847,952 L 3850,950 L 3860,944 L 3861,943 L 3865,942 L 3869,943 L 3871,944 L 3881,951 L 3883,952 L 3886,952 L 3888,952 L 3898,954 L 3911,954 L 3925,952 L 3937,954 L 3951,954 L 3961,952 L 3963,952 L 3965,952 L 3968,950 L 3978,944 L 3980,943 L 3983,942 L 3987,943 L 3989,944 L 3999,951 L 4001,952 L 4004,952 L 4006,952 L 4016,954 L 4029,954 L 4043,952 L 4055,954 L 4069,954 L 4079,952 L 4081,952 L 4083,952 L 4086,950 L 4096,944 L 4098,943 L 4101,942 L 4105,943 L 4107,944 L 4117,951 L 4119,952 L 4122,952 L 4124,952 L 4134,954 L 4148,954 L 4161,952 L 4173,954 L 4187,954 L 4197,952 L 4199,952 L 4202,952 L 4204,950 L 4214,944 L 4216,943 L 4220,942 L 4223,943 L 4225,944 L 4235,951 L 4237,952 L 4240,952 L 4242,952 L 4252,954 L 4266,954 L 4279,952 L 4291,954 L 4305,954 L 4321,951 L 4334,942 L 4343,929 L 4347,912 L 4347,741 L 4344,725 L 4335,711 L 4322,702 L 4305,699 L 4291,699 L 4278,701 L 4266,699 L 4252,699 L 4242,701 L 4240,701 L 4237,701 L 4235,702 L 4229,706 L 4229,826 L 4229,829 L 4228,830 L 4227,832 L 4227,913 L 4211,913 L 4211,832 L 4210,830 L 4210,829 L 4209,826 L 4209,706 L 4202,701 L 4199,701 L 4197,701 L 4187,699 L 4173,699 L 4160,701 L 4147,699 L 4134,699 L 4124,701 L 4122,701 L 4119,701 L 4117,702 L 4111,706 L 4111,826 L 4111,829 L 4110,830 L 4109,832 L 4109,913 L 4093,913 L 4093,832 L 4092,830 L 4092,829 L 4091,826 L 4091,706 L 4083,701 L 4080,701 L 4079,701 L 4069,699 L 4055,699 L 4042,701 L 4029,699 L 4016,699 L 4005,701 L 4004,701 L 4001,701 L 3999,702 L 3993,706 L 3993,826 L 3993,829 L 3992,830 L 3991,832 L 3991,913 L 3975,913 L 3975,832 L 3974,830 L 3974,829 L 3973,826 L 3973,706 L 3965,701 L 3962,701 L 3960,701 L 3951,699 L 3937,699 L 3924,701 L 3911,699 L 3897,699 L 3887,701 L 3885,701 L 3883,701 L 3881,702 L 3875,706 L 3875,826 L 3875,829 L 3874,830 L 3873,832 L 3873,913 L 3857,913 L 3857,832 L 3856,830 L 3855,829 L 3855,826 L 3855,706 L 3847,701 L 3844,701 L 3842,701 L 3833,699 L 3819,699 L 3805,701 L 3793,699 L 3779,699 L 3769,701 L 3767,701 L 3765,701 L 3762,703 L 3757,706 L 3757,826 L 3757,829 L 3756,830 L 3755,832 L 3755,913 L 3739,913 L 3739,832 L 3738,830 L 3737,829 L 3737,826 L 3737,706 L 3729,701 L 3726,701 L 3724,701 L 3714,699 L 3701,699 L 3687,701 L 3675,699 L 3661,699 L 3651,701 L 3649,701 L 3647,701 L 3645,702 L 3639,706 z " style="fill-opacity:1.000000;fill:rgb(126,81,37);stroke:rgb(0,0,0);stroke-width:2"/></g>
</svg>
