<?xml version="1.0" standalone="no"?>
<!DOCTYPE svg PUBLIC "-//W3C//DTD SVG 1.1//EN"
"http://www.w3.org/Graphics/SVG/1.1/DTD/svg11.dtd">
<svg width="5813" height="3061" viewBox="0 0 5813 3061" version="1.1"
xmlns="http://www.w3.org/2000/svg"
xmlns:xlink="http://www.w3.org/1999/xlink">
<g fill-rule="evenodd"><path d="M 2153,2909 L 2153,2830 L 2154,2828 L 2154,2826 L 2156,2823 L 2157,2822 L 2159,2820 L 2161,2819 L 2164,2819 L 2166,2819 L 2169,2819 L 2171,2820 L 2173,2822 L 2175,2823 L 2176,2826 L 2177,2828 L 2177,2830 L 2177,2909 L 2177,2912 L 2176,2914 L 2175,2916 L 2173,2918 L 2171,2919 L 2169,2920 L 2166,2921 L 2164,2921 L 2161,2920 L 2159,2919 L 2157,2918 L 2156,2916 L 2154,2914 L 2154,2912 L 2153,2909 z " style="fill-opacity:1.000000;fill:rgb(103,198,105);stroke:rgb(0,0,0);stroke-width:2"/></g>
<g fill-rule="evenodd"><path d="M 1737,2909 L 1737,2830 L 1737,2828 L 1738,2826 L 1739,2823 L 1741,2822 L 1743,2820 L 1745,2819 L 1748,2819 L 1750,2819 L 1753,2819 L 1755,2820 L 1757,2822 L 1759,2823 L 1760,2826 L 1761,2828 L 1761,2830 L 1761,2909 L 1761,2912 L 1760,2914 L 1759,2916 L 1757,2918 L 1755,2919 L 1753,2920 L 1750,2921 L 1748,2921 L 1745,2920 L 1743,2919 L 1741,2918 L 1739,2916 L 1738,2914 L 1737,2912 L 1737,2909 z " style="fill-opacity:1.000000;fill:rgb(115,81,255);stroke:rgb(0,0,0);stroke-width:2"/></g>
<g fill-rule="evenodd"><path d="M 714,2897 L 714,2791 L 714,2789 L 715,2786 L 716,2784 L 718,2782 L 720,2781 L 722,2780 L 725,2779 L 727,2779 L 729,2780 L 732,2781 L 734,2782 L 735,2784 L 737,2786 L 737,2789 L 738,2791 L 738,2909 L 737,2911 L 737,2914 L 736,2916 L 734,2917 L 732,2919 L 730,2920 L 728,2921 L 726,2921 L 670,2921 L 667,2921 L 665,2920 L 663,2919 L 661,2917 L 659,2915 L 658,2913 L 658,2910 L 658,2908 L 658,2905 L 659,2903 L 661,2901 L 663,2900 L 665,2898 L 667,2898 L 670,2897 L 714,2897 z " style="fill-opacity:1.000000;fill:rgb(74,236,41);stroke:rgb(0,0,0);stroke-width:2"/></g>
<g fill-rule="evenodd"><path d="M 485,2923 L 488,2930 L 491,2933 L 498,2937 L 509,2937 L 518,2932 L 520,2931 L 523,2931 L 525,2931 L 528,2932 L 530,2933 L 532,2935 L 533,2936 L 534,2939 L 535,2941 L 535,2944 L 535,2946 L 534,2948 L 532,2950 L 531,2952 L 529,2953 L 516,2960 L 512,2960 L 495,2960 L 492,2960 L 477,2952 L 470,2946 L 468,2942 L 462,2931 L 461,2928 L 461,2830 L 461,2828 L 462,2826 L 463,2823 L 465,2822 L 467,2820 L 469,2819 L 471,2819 L 474,2819 L 476,2819 L 478,2820 L 480,2819 L 484,2819 L 506,2819 L 510,2819 L 523,2825 L 526,2828 L 533,2835 L 540,2848 L 540,2849 L 541,2853 L 541,2887 L 540,2890 L 533,2905 L 526,2912 L 523,2914 L 510,2920 L 506,2921 L 485,2921 L 485,2923M 485,2896 L 487,2897 L 504,2897 L 511,2894 L 514,2891 L 517,2884 L 517,2856 L 514,2849 L 511,2846 L 504,2842 L 487,2842 L 485,2843 L 485,2896 z " style="fill-opacity:1.000000;fill:rgb(205,186,171);stroke:rgb(0,0,0);stroke-width:2"/></g>
<g fill-rule="evenodd"><path d="M 378,2893 L 379,2894 L 386,2897 L 397,2897 L 402,2895 L 405,2889 L 405,2830 L 405,2828 L 406,2826 L 407,2823 L 409,2822 L 411,2820 L 413,2819 L 415,2819 L 418,2819 L 420,2819 L 422,2820 L 424,2822 L 426,2823 L 427,2826 L 428,2828 L 428,2830 L 428,2894 L 427,2897 L 421,2909 L 419,2912 L 416,2914 L 405,2920 L 403,2920 L 400,2921 L 381,2921 L 377,2920 L 374,2918 L 372,2919 L 370,2920 L 367,2921 L 365,2921 L 362,2920 L 360,2919 L 358,2918 L 356,2916 L 355,2914 L 354,2912 L 354,2909 L 354,2830 L 354,2828 L 355,2826 L 356,2823 L 358,2822 L 360,2820 L 362,2819 L 365,2819 L 367,2819 L 370,2819 L 372,2820 L 374,2822 L 375,2823 L 377,2826 L 377,2828 L 378,2830 L 378,2893 z " style="fill-opacity:1.000000;fill:rgb(242,251,227);stroke:rgb(0,0,0);stroke-width:2"/></g>
<g fill-rule="evenodd"><path d="M 1169,2889 L 1169,2879 L 1123,2870 L 1120,2869 L 1118,2868 L 1117,2867 L 1115,2865 L 1114,2863 L 1113,2861 L 1113,2858 L 1113,2845 L 1114,2842 L 1120,2831 L 1122,2828 L 1124,2826 L 1137,2820 L 1140,2819 L 1164,2819 L 1168,2819 L 1170,2820 L 1181,2825 L 1184,2828 L 1186,2831 L 1192,2842 L 1193,2845 L 1193,2892 L 1192,2896 L 1192,2897 L 1186,2909 L 1184,2912 L 1181,2914 L 1168,2920 L 1164,2921 L 1140,2921 L 1137,2920 L 1125,2914 L 1123,2913 L 1121,2911 L 1120,2909 L 1119,2907 L 1119,2904 L 1119,2902 L 1120,2899 L 1121,2897 L 1122,2895 L 1124,2894 L 1126,2892 L 1129,2892 L 1131,2892 L 1134,2892 L 1136,2893 L 1145,2897 L 1162,2897 L 1167,2895 L 1169,2889M 1169,2850 L 1167,2845 L 1162,2842 L 1145,2842 L 1139,2845 L 1137,2849 L 1169,2855 L 1169,2850 z " style="fill-opacity:1.000000;fill:rgb(70,124,194);stroke:rgb(0,0,0);stroke-width:2"/></g>
<g fill-rule="evenodd"><path d="M 973,2889 L 973,2791 L 973,2789 L 974,2786 L 975,2784 L 976,2782 L 978,2781 L 981,2780 L 983,2779 L 986,2779 L 988,2780 L 990,2781 L 992,2782 L 994,2784 L 995,2786 L 996,2789 L 996,2791 L 996,2894 L 995,2897 L 989,2909 L 987,2912 L 984,2914 L 973,2920 L 970,2920 L 968,2921 L 966,2921 L 963,2920 L 961,2919 L 959,2917 L 958,2915 L 956,2913 L 956,2911 L 956,2908 L 956,2906 L 957,2904 L 958,2902 L 960,2900 L 962,2899 L 970,2895 L 973,2889 z " style="fill-opacity:1.000000;fill:rgb(84,248,27);stroke:rgb(0,0,0);stroke-width:2"/></g>
<g fill-rule="evenodd"><path d="M 591,2850 L 591,2851 L 594,2852 L 619,2852 L 623,2853 L 635,2859 L 639,2861 L 640,2863 L 647,2877 L 648,2881 L 648,2892 L 647,2896 L 646,2897 L 641,2909 L 640,2910 L 637,2913 L 624,2920 L 623,2920 L 619,2921 L 591,2921 L 587,2920 L 585,2919 L 583,2920 L 581,2921 L 578,2921 L 576,2920 L 574,2919 L 572,2918 L 570,2916 L 569,2914 L 568,2912 L 568,2909 L 568,2845 L 569,2842 L 575,2831 L 577,2828 L 580,2825 L 591,2820 L 595,2819 L 621,2819 L 624,2820 L 635,2825 L 638,2827 L 639,2828 L 641,2831 L 642,2833 L 642,2835 L 642,2838 L 641,2840 L 640,2842 L 639,2844 L 637,2846 L 634,2847 L 632,2848 L 630,2848 L 627,2847 L 625,2847 L 616,2842 L 599,2842 L 594,2845 L 591,2850M 591,2896 L 594,2897 L 616,2897 L 621,2895 L 624,2889 L 624,2884 L 621,2879 L 616,2876 L 591,2876 L 591,2896 z " style="fill-opacity:1.000000;fill:rgb(232,231,141);stroke:rgb(0,0,0);stroke-width:2"/></g>
<g fill-rule="evenodd"><path d="M 298,2846 L 297,2846 L 290,2842 L 279,2842 L 273,2845 L 271,2850 L 271,2909 L 271,2912 L 270,2914 L 269,2916 L 267,2918 L 265,2919 L 263,2920 L 260,2921 L 258,2921 L 255,2920 L 253,2919 L 251,2918 L 250,2916 L 248,2914 L 248,2912 L 247,2909 L 247,2845 L 249,2842 L 254,2831 L 256,2828 L 259,2825 L 271,2820 L 272,2819 L 276,2819 L 295,2819 L 298,2820 L 302,2822 L 304,2820 L 306,2819 L 308,2819 L 311,2819 L 313,2819 L 316,2820 L 318,2822 L 319,2823 L 320,2826 L 321,2828 L 321,2830 L 321,2909 L 321,2912 L 320,2914 L 319,2916 L 318,2918 L 316,2919 L 313,2920 L 311,2921 L 308,2921 L 306,2920 L 304,2919 L 302,2918 L 300,2916 L 299,2914 L 298,2912 L 298,2909 L 298,2846 z " style="fill-opacity:1.000000;fill:rgb(118,90,46);stroke:rgb(0,0,0);stroke-width:2"/></g>
<g fill-rule="evenodd"><path d="M 164,2850 L 164,2851 L 166,2852 L 192,2852 L 195,2853 L 208,2859 L 210,2860 L 212,2863 L 220,2877 L 220,2881 L 220,2892 L 220,2896 L 219,2897 L 213,2909 L 211,2912 L 210,2913 L 197,2920 L 195,2920 L 192,2921 L 163,2921 L 160,2920 L 158,2919 L 156,2920 L 153,2921 L 151,2921 L 149,2920 L 146,2919 L 144,2918 L 143,2916 L 141,2914 L 141,2912 L 140,2909 L 141,2845 L 142,2842 L 147,2831 L 150,2828 L 153,2825 L 164,2820 L 167,2819 L 193,2819 L 197,2820 L 208,2825 L 210,2827 L 212,2828 L 213,2831 L 214,2833 L 215,2835 L 215,2838 L 214,2840 L 213,2842 L 211,2844 L 209,2846 L 207,2847 L 205,2848 L 202,2848 L 200,2847 L 198,2847 L 189,2842 L 172,2842 L 167,2845 L 164,2850M 164,2896 L 166,2897 L 189,2897 L 194,2895 L 197,2889 L 197,2884 L 194,2879 L 189,2876 L 164,2876 L 164,2896 z " style="fill-opacity:1.000000;fill:rgb(99,51,159);stroke:rgb(0,0,0);stroke-width:2"/></g>
<g fill-rule="evenodd"><path d="M 1244,2819 L 1267,2819 L 1271,2820 L 1282,2825 L 1285,2828 L 1292,2835 L 1299,2849 L 1300,2853 L 1300,2887 L 1299,2890 L 1299,2892 L 1292,2905 L 1285,2912 L 1282,2914 L 1269,2920 L 1266,2921 L 1243,2921 L 1239,2920 L 1237,2919 L 1235,2920 L 1233,2921 L 1231,2921 L 1228,2920 L 1226,2919 L 1224,2918 L 1222,2916 L 1221,2914 L 1220,2912 L 1220,2909 L 1220,2791 L 1220,2789 L 1221,2786 L 1222,2784 L 1224,2782 L 1226,2781 L 1228,2780 L 1231,2779 L 1233,2779 L 1235,2780 L 1238,2781 L 1240,2782 L 1241,2784 L 1243,2786 L 1243,2789 L 1244,2791 L 1244,2819M 1273,2891 L 1276,2884 L 1276,2856 L 1273,2849 L 1270,2846 L 1263,2842 L 1246,2842 L 1244,2843 L 1244,2896 L 1246,2897 L 1263,2897 L 1270,2894 L 1273,2891 z " style="fill-opacity:1.000000;fill:rgb(201,154,102);stroke:rgb(0,0,0);stroke-width:2"/></g>
<g fill-rule="evenodd"><path d="M 884,2850 L 884,2851 L 886,2852 L 911,2852 L 915,2853 L 928,2859 L 929,2860 L 932,2863 L 939,2877 L 940,2881 L 940,2892 L 939,2896 L 939,2897 L 933,2909 L 931,2912 L 929,2913 L 917,2920 L 915,2920 L 911,2921 L 883,2921 L 880,2920 L 878,2919 L 876,2920 L 873,2921 L 871,2921 L 868,2920 L 866,2919 L 864,2918 L 862,2916 L 861,2914 L 860,2912 L 860,2909 L 860,2845 L 861,2842 L 867,2831 L 869,2828 L 872,2825 L 884,2820 L 887,2819 L 913,2819 L 917,2820 L 928,2825 L 930,2827 L 932,2828 L 933,2831 L 934,2833 L 934,2835 L 934,2838 L 934,2840 L 932,2842 L 931,2844 L 929,2846 L 927,2847 L 924,2848 L 922,2848 L 920,2847 L 917,2847 L 909,2842 L 892,2842 L 886,2845 L 884,2850M 884,2896 L 886,2897 L 908,2897 L 914,2895 L 916,2889 L 916,2884 L 914,2879 L 909,2876 L 884,2876 L 884,2896 z " style="fill-opacity:1.000000;fill:rgb(50,13,183);stroke:rgb(0,0,0);stroke-width:2"/></g>
<g fill-rule="evenodd"><path d="M 2092,2874 L 2109,2826 L 2110,2824 L 2112,2822 L 2113,2821 L 2116,2819 L 2118,2819 L 2120,2819 L 2123,2819 L 2125,2820 L 2127,2821 L 2129,2823 L 2131,2825 L 2131,2827 L 2132,2829 L 2132,2832 L 2131,2834 L 2103,2913 L 2102,2915 L 2101,2917 L 2099,2919 L 2097,2920 L 2094,2921 L 2092,2921 L 2090,2921 L 2087,2920 L 2085,2919 L 2083,2917 L 2082,2915 L 2081,2913 L 2053,2834 L 2052,2832 L 2052,2829 L 2053,2827 L 2054,2825 L 2055,2823 L 2057,2821 L 2059,2820 L 2061,2819 L 2064,2819 L 2066,2819 L 2068,2819 L 2071,2821 L 2072,2822 L 2074,2824 L 2075,2826 L 2092,2874 z " style="fill-opacity:1.000000;fill:rgb(49,88,163);stroke:rgb(0,0,0);stroke-width:2"/></g>
<g fill-rule="evenodd"><path d="M 2340,2884 L 2343,2891 L 2346,2894 L 2353,2897 L 2370,2897 L 2377,2894 L 2380,2891 L 2384,2884 L 2384,2791 L 2384,2789 L 2385,2786 L 2386,2784 L 2388,2782 L 2390,2781 L 2392,2780 L 2394,2779 L 2397,2779 L 2399,2780 L 2402,2781 L 2404,2782 L 2405,2784 L 2406,2786 L 2407,2789 L 2407,2791 L 2407,2888 L 2406,2892 L 2400,2905 L 2393,2912 L 2390,2914 L 2378,2920 L 2377,2920 L 2373,2921 L 2349,2921 L 2345,2920 L 2334,2914 L 2331,2912 L 2324,2905 L 2317,2890 L 2316,2887 L 2316,2791 L 2317,2789 L 2317,2786 L 2319,2784 L 2320,2782 L 2322,2781 L 2325,2780 L 2327,2779 L 2329,2779 L 2332,2780 L 2334,2781 L 2336,2782 L 2338,2784 L 2339,2786 L 2340,2789 L 2340,2791 L 2340,2884 z " style="fill-opacity:1.000000;fill:rgb(90,37,93);stroke:rgb(0,0,0);stroke-width:2"/></g>
<g fill-rule="evenodd"><path d="M 2013,2889 L 2013,2879 L 1966,2870 L 1964,2869 L 1962,2868 L 1960,2867 L 1959,2865 L 1957,2863 L 1957,2861 L 1957,2858 L 1957,2845 L 1958,2842 L 1963,2831 L 1966,2828 L 1967,2826 L 1980,2820 L 1983,2819 L 2008,2819 L 2011,2819 L 2013,2820 L 2024,2825 L 2027,2828 L 2029,2831 L 2035,2842 L 2036,2845 L 2036,2892 L 2036,2896 L 2035,2897 L 2029,2909 L 2027,2912 L 2024,2914 L 2011,2920 L 2008,2921 L 1983,2921 L 1980,2920 L 1969,2914 L 1967,2913 L 1965,2911 L 1963,2909 L 1963,2907 L 1962,2904 L 1962,2902 L 1963,2899 L 1964,2897 L 1966,2895 L 1967,2894 L 1970,2892 L 1972,2892 L 1974,2892 L 1977,2892 L 1979,2893 L 1988,2897 L 2005,2897 L 2010,2895 L 2013,2889M 2013,2850 L 2010,2845 L 2005,2842 L 1988,2842 L 1983,2845 L 1981,2849 L 2013,2855 L 2013,2850 z " style="fill-opacity:1.000000;fill:rgb(5,23,88);stroke:rgb(0,0,0);stroke-width:2"/></g>
<g fill-rule="evenodd"><path d="M 1547,2850 L 1547,2851 L 1549,2852 L 1575,2852 L 1578,2853 L 1591,2859 L 1593,2860 L 1596,2863 L 1603,2877 L 1603,2881 L 1603,2892 L 1603,2896 L 1602,2897 L 1597,2909 L 1594,2912 L 1593,2913 L 1580,2920 L 1578,2920 L 1575,2921 L 1547,2921 L 1543,2920 L 1541,2919 L 1539,2920 L 1537,2921 L 1534,2921 L 1532,2920 L 1529,2919 L 1527,2918 L 1526,2916 L 1525,2914 L 1524,2912 L 1524,2909 L 1524,2845 L 1525,2842 L 1530,2831 L 1533,2828 L 1536,2825 L 1547,2820 L 1550,2819 L 1577,2819 L 1580,2820 L 1591,2825 L 1593,2827 L 1595,2828 L 1596,2831 L 1597,2833 L 1598,2835 L 1598,2838 L 1597,2840 L 1596,2842 L 1594,2844 L 1592,2846 L 1590,2847 L 1588,2848 L 1585,2848 L 1583,2847 L 1581,2847 L 1572,2842 L 1555,2842 L 1550,2845 L 1547,2850M 1547,2896 L 1549,2897 L 1572,2897 L 1577,2895 L 1580,2889 L 1580,2884 L 1577,2879 L 1572,2876 L 1547,2876 L 1547,2896 z " style="fill-opacity:1.000000;fill:rgb(233,94,212);stroke:rgb(0,0,0);stroke-width:2"/></g>
<g fill-rule="evenodd"><path d="M 1654,2819 L 1678,2819 L 1681,2820 L 1692,2825 L 1696,2828 L 1702,2835 L 1710,2849 L 1710,2853 L 1710,2887 L 1710,2890 L 1709,2892 L 1702,2905 L 1696,2912 L 1692,2914 L 1680,2920 L 1676,2921 L 1653,2921 L 1650,2920 L 1648,2919 L 1646,2920 L 1643,2921 L 1641,2921 L 1639,2920 L 1636,2919 L 1634,2918 L 1633,2916 L 1631,2914 L 1631,2912 L 1630,2909 L 1630,2791 L 1631,2789 L 1631,2786 L 1633,2784 L 1634,2782 L 1636,2781 L 1639,2780 L 1641,2779 L 1643,2779 L 1646,2780 L 1648,2781 L 1650,2782 L 1652,2784 L 1653,2786 L 1654,2789 L 1654,2791 L 1654,2819M 1654,2896 L 1656,2897 L 1673,2897 L 1680,2894 L 1683,2891 L 1687,2884 L 1687,2856 L 1683,2849 L 1680,2846 L 1673,2842 L 1656,2842 L 1654,2843 L 1654,2896 z " style="fill-opacity:1.000000;fill:rgb(171,178,205);stroke:rgb(0,0,0);stroke-width:2"/></g>
<g fill-rule="evenodd"><path d="M 1440,2819 L 1464,2819 L 1468,2820 L 1479,2825 L 1482,2828 L 1489,2835 L 1496,2849 L 1497,2853 L 1497,2887 L 1496,2890 L 1495,2892 L 1489,2905 L 1482,2912 L 1479,2914 L 1466,2920 L 1462,2921 L 1440,2921 L 1436,2920 L 1434,2919 L 1432,2920 L 1430,2921 L 1427,2921 L 1425,2920 L 1423,2919 L 1421,2918 L 1419,2916 L 1418,2914 L 1417,2912 L 1417,2909 L 1417,2791 L 1417,2789 L 1418,2786 L 1419,2784 L 1421,2782 L 1423,2781 L 1425,2780 L 1427,2779 L 1430,2779 L 1432,2780 L 1434,2781 L 1436,2782 L 1438,2784 L 1439,2786 L 1440,2789 L 1440,2791 L 1440,2819M 1440,2896 L 1443,2897 L 1460,2897 L 1467,2894 L 1469,2891 L 1473,2884 L 1473,2856 L 1469,2849 L 1467,2846 L 1460,2842 L 1443,2842 L 1440,2843 L 1440,2896 z " style="fill-opacity:1.000000;fill:rgb(198,155,180);stroke:rgb(0,0,0);stroke-width:2"/></g>
<g fill-rule="evenodd"><path d="M 2233,2850 L 2233,2909 L 2233,2912 L 2232,2914 L 2231,2916 L 2229,2918 L 2227,2919 L 2225,2920 L 2223,2921 L 2220,2921 L 2218,2920 L 2215,2919 L 2213,2918 L 2212,2916 L 2211,2914 L 2210,2912 L 2210,2909 L 2210,2845 L 2211,2842 L 2217,2829 L 2219,2828 L 2222,2825 L 2233,2820 L 2236,2819 L 2257,2819 L 2260,2820 L 2264,2822 L 2266,2820 L 2268,2819 L 2271,2819 L 2273,2819 L 2276,2819 L 2278,2820 L 2280,2822 L 2281,2823 L 2283,2826 L 2283,2828 L 2284,2830 L 2284,2909 L 2283,2912 L 2283,2914 L 2281,2916 L 2280,2918 L 2278,2919 L 2276,2920 L 2273,2921 L 2271,2921 L 2268,2920 L 2266,2919 L 2264,2918 L 2262,2916 L 2261,2914 L 2260,2912 L 2260,2909 L 2260,2846 L 2259,2846 L 2252,2842 L 2241,2842 L 2236,2845 L 2233,2850 z " style="fill-opacity:1.000000;fill:rgb(84,17,14);stroke:rgb(0,0,0);stroke-width:2"/></g>
<g fill-rule="evenodd"><path d="M 1906,2856 L 1902,2849 L 1899,2846 L 1892,2842 L 1884,2842 L 1882,2842 L 1879,2841 L 1877,2840 L 1875,2838 L 1874,2836 L 1873,2834 L 1872,2832 L 1872,2829 L 1873,2827 L 1874,2824 L 1875,2822 L 1877,2821 L 1879,2820 L 1882,2819 L 1884,2819 L 1897,2819 L 1901,2820 L 1908,2824 L 1910,2822 L 1912,2820 L 1914,2819 L 1916,2819 L 1919,2819 L 1921,2819 L 1924,2820 L 1926,2822 L 1927,2823 L 1929,2826 L 1929,2828 L 1930,2830 L 1930,2909 L 1929,2912 L 1929,2914 L 1927,2916 L 1926,2918 L 1924,2919 L 1921,2920 L 1919,2921 L 1916,2921 L 1914,2920 L 1912,2919 L 1910,2918 L 1908,2916 L 1907,2914 L 1906,2912 L 1906,2909 L 1906,2856 z " style="fill-opacity:1.000000;fill:rgb(130,116,65);stroke:rgb(0,0,0);stroke-width:2"/></g>
<g fill-rule="evenodd"><path d="M 1836,2897 L 1845,2893 L 1847,2892 L 1850,2892 L 1852,2892 L 1855,2892 L 1857,2894 L 1859,2895 L 1860,2897 L 1861,2899 L 1862,2902 L 1862,2904 L 1862,2907 L 1861,2909 L 1859,2911 L 1858,2913 L 1856,2914 L 1843,2920 L 1839,2921 L 1815,2921 L 1811,2920 L 1800,2914 L 1797,2912 L 1795,2909 L 1788,2896 L 1788,2892 L 1788,2887 L 1788,2883 L 1795,2870 L 1797,2867 L 1800,2865 L 1813,2858 L 1817,2858 L 1831,2858 L 1836,2855 L 1838,2850 L 1836,2845 L 1831,2842 L 1819,2842 L 1811,2847 L 1808,2847 L 1806,2848 L 1803,2848 L 1801,2847 L 1799,2846 L 1797,2844 L 1795,2842 L 1794,2840 L 1794,2838 L 1793,2835 L 1794,2833 L 1795,2831 L 1796,2828 L 1798,2827 L 1800,2825 L 1813,2819 L 1817,2819 L 1835,2819 L 1839,2820 L 1850,2825 L 1852,2826 L 1854,2829 L 1861,2844 L 1862,2847 L 1862,2853 L 1861,2856 L 1855,2869 L 1853,2872 L 1850,2875 L 1837,2881 L 1833,2882 L 1819,2882 L 1814,2884 L 1811,2889 L 1814,2895 L 1819,2897 L 1836,2897 z " style="fill-opacity:1.000000;fill:rgb(33,61,220);stroke:rgb(0,0,0);stroke-width:2"/></g>
<g fill-rule="evenodd"><path d="M 1757,2811 L 1755,2812 L 1751,2814 L 1748,2814 L 1745,2813 L 1741,2811 L 1735,2805 L 1734,2803 L 1733,2801 L 1732,2799 L 1732,2797 L 1732,2794 L 1733,2792 L 1734,2790 L 1741,2783 L 1742,2781 L 1745,2780 L 1748,2779 L 1751,2779 L 1753,2780 L 1755,2781 L 1763,2788 L 1764,2790 L 1766,2792 L 1766,2794 L 1766,2797 L 1766,2799 L 1766,2801 L 1764,2803 L 1763,2805 L 1757,2811 z " style="fill-opacity:1.000000;fill:rgb(135,112,233);stroke:rgb(0,0,0);stroke-width:2"/></g>
<g fill-rule="evenodd"><path d="M 2173,2811 L 2171,2812 L 2167,2814 L 2164,2814 L 2161,2813 L 2157,2811 L 2151,2805 L 2150,2803 L 2149,2801 L 2148,2799 L 2148,2797 L 2148,2794 L 2149,2792 L 2150,2790 L 2157,2783 L 2159,2781 L 2161,2780 L 2164,2779 L 2167,2779 L 2169,2780 L 2172,2781 L 2179,2788 L 2181,2790 L 2182,2792 L 2182,2794 L 2183,2797 L 2182,2799 L 2182,2801 L 2181,2803 L 2179,2805 L 2173,2811 z " style="fill-opacity:1.000000;fill:rgb(62,161,65);stroke:rgb(0,0,0);stroke-width:2"/></g>
<g fill-rule="evenodd"><path d="M 4244,871 L 4244,698 L 4260,698 L 4260,871 L 4244,871 z " style="fill-opacity:1.000000;fill:rgb(225,252,103);stroke:rgb(0,0,0);stroke-width:2"/></g>
<g fill-rule="evenodd"><path d="M 4205,871 L 4205,698 L 4220,698 L 4220,871 L 4205,871 z " style="fill-opacity:1.000000;fill:rgb(62,1,126);stroke:rgb(0,0,0);stroke-width:2"/></g>
<g fill-rule="evenodd"><path d="M 4126,871 L 4126,698 L 4142,698 L 4142,871 L 4126,871 z " style="fill-opacity:1.000000;fill:rgb(151,234,220);stroke:rgb(0,0,0);stroke-width:2"/></g>
<g fill-rule="evenodd"><path d="M 4087,871 L 4087,698 L 4102,698 L 4102,871 L 4087,871 z " style="fill-opacity:1.000000;fill:rgb(107,150,143);stroke:rgb(0,0,0);stroke-width:2"/></g>
<g fill-rule="evenodd"><path d="M 4008,871 L 4008,698 L 4024,698 L 4024,871 L 4008,871 z " style="fill-opacity:1.000000;fill:rgb(56,92,42);stroke:rgb(0,0,0);stroke-width:2"/></g>
<g fill-rule="evenodd"><path d="M 3968,871 L 3968,698 L 3984,698 L 3984,871 L 3968,871 z " style="fill-opacity:1.000000;fill:rgb(236,176,59);stroke:rgb(0,0,0);stroke-width:2"/></g>
<g fill-rule="evenodd"><path d="M 3890,871 L 3890,698 L 3906,698 L 3906,871 L 3890,871 z " style="fill-opacity:1.000000;fill:rgb(251,50,175);stroke:rgb(0,0,0);stroke-width:2"/></g>
<g fill-rule="evenodd"><path d="M 3890,462 L 3890,289 L 3906,289 L 3906,462 L 3890,462 z " style="fill-opacity:1.000000;fill:rgb(60,84,236);stroke:rgb(0,0,0);stroke-width:2"/></g>
<g fill-rule="evenodd"><path d="M 3850,871 L 3850,698 L 3866,698 L 3866,871 L 3850,871 z " style="fill-opacity:1.000000;fill:rgb(24,219,92);stroke:rgb(0,0,0);stroke-width:2"/></g>
<g fill-rule="evenodd"><path d="M 3850,462 L 3850,289 L 3866,289 L 3866,462 L 3850,462 z " style="fill-opacity:1.000000;fill:rgb(2,26,254);stroke:rgb(0,0,0);stroke-width:2"/></g>
<g fill-rule="evenodd"><path d="M 3772,871 L 3772,698 L 3787,698 L 3787,871 L 3772,871 z " style="fill-opacity:1.000000;fill:rgb(67,251,250);stroke:rgb(0,0,0);stroke-width:2"/></g>
<g fill-rule="evenodd"><path d="M 3772,462 L 3772,289 L 3787,289 L 3787,462 L 3772,462 z " style="fill-opacity:1.000000;fill:rgb(170,58,251);stroke:rgb(0,0,0);stroke-width:2"/></g>
<g fill-rule="evenodd"><path d="M 3732,871 L 3732,698 L 3748,698 L 3748,871 L 3732,871 z " style="fill-opacity:1.000000;fill:rgb(41,209,230);stroke:rgb(0,0,0);stroke-width:2"/></g>
<g fill-rule="evenodd"><path d="M 3732,462 L 3732,289 L 3748,289 L 3748,462 L 3732,462 z " style="fill-opacity:1.000000;fill:rgb(5,60,124);stroke:rgb(0,0,0);stroke-width:2"/></g>
<g fill-rule="evenodd"><path d="M 3654,871 L 3654,698 L 3669,698 L 3669,871 L 3654,871 z " style="fill-opacity:1.000000;fill:rgb(148,117,216);stroke:rgb(0,0,0);stroke-width:2"/></g>
<g fill-rule="evenodd"><path d="M 3654,462 L 3654,289 L 3669,289 L 3669,462 L 3654,462 z " style="fill-opacity:1.000000;fill:rgb(190,97,137);stroke:rgb(0,0,0);stroke-width:2"/></g>
<g fill-rule="evenodd"><path d="M 3614,871 L 3614,698 L 3630,698 L 3630,871 L 3614,871 z " style="fill-opacity:1.000000;fill:rgb(249,92,187);stroke:rgb(0,0,0);stroke-width:2"/></g>
<g fill-rule="evenodd"><path d="M 3614,462 L 3614,289 L 3630,289 L 3630,462 L 3614,462 z " style="fill-opacity:1.000000;fill:rgb(168,153,15);stroke:rgb(0,0,0);stroke-width:2"/></g>
<g fill-rule="evenodd"><path d="M 3536,871 L 3536,698 L 3551,698 L 3551,871 L 3536,871 z " style="fill-opacity:1.000000;fill:rgb(149,177,235);stroke:rgb(0,0,0);stroke-width:2"/></g>
<g fill-rule="evenodd"><path d="M 3536,462 L 3536,289 L 3551,289 L 3551,462 L 3536,462 z " style="fill-opacity:1.000000;fill:rgb(241,179,5);stroke:rgb(0,0,0);stroke-width:2"/></g>
<g fill-rule="evenodd"><path d="M 3496,871 L 3496,698 L 3512,698 L 3512,871 L 3496,871 z " style="fill-opacity:1.000000;fill:rgb(239,247,0);stroke:rgb(0,0,0);stroke-width:2"/></g>
<g fill-rule="evenodd"><path d="M 3496,462 L 3496,289 L 3512,289 L 3512,462 L 3496,462 z " style="fill-opacity:1.000000;fill:rgb(233,161,58);stroke:rgb(0,0,0);stroke-width:2"/></g>
<g fill-rule="evenodd"><path d="M 3417,871 L 3417,698 L 3433,698 L 3433,871 L 3417,871 z " style="fill-opacity:1.000000;fill:rgb(229,202,11);stroke:rgb(0,0,0);stroke-width:2"/></g>
<g fill-rule="evenodd"><path d="M 3417,462 L 3417,289 L 3433,289 L 3433,462 L 3417,462 z " style="fill-opacity:1.000000;fill:rgb(203,208,72);stroke:rgb(0,0,0);stroke-width:2"/></g>
<g fill-rule="evenodd"><path d="M 3378,871 L 3378,698 L 3394,698 L 3394,871 L 3378,871 z " style="fill-opacity:1.000000;fill:rgb(71,100,189);stroke:rgb(0,0,0);stroke-width:2"/></g>
<g fill-rule="evenodd"><path d="M 3378,462 L 3378,289 L 3394,289 L 3394,462 L 3378,462 z " style="fill-opacity:1.000000;fill:rgb(31,35,30);stroke:rgb(0,0,0);stroke-width:2"/></g>
<g fill-rule="evenodd"><path d="M 3299,871 L 3299,698 L 3315,698 L 3315,871 L 3299,871 z " style="fill-opacity:1.000000;fill:rgb(168,28,123);stroke:rgb(0,0,0);stroke-width:2"/></g>
<g fill-rule="evenodd"><path d="M 3299,462 L 3299,289 L 3315,289 L 3315,462 L 3299,462 z " style="fill-opacity:1.000000;fill:rgb(100,197,20);stroke:rgb(0,0,0);stroke-width:2"/></g>
<g fill-rule="evenodd"><path d="M 3260,871 L 3260,698 L 3276,698 L 3276,871 L 3260,871 z " style="fill-opacity:1.000000;fill:rgb(115,90,197);stroke:rgb(0,0,0);stroke-width:2"/></g>
<g fill-rule="evenodd"><path d="M 3260,462 L 3260,289 L 3276,289 L 3276,462 L 3260,462 z " style="fill-opacity:1.000000;fill:rgb(94,75,121);stroke:rgb(0,0,0);stroke-width:2"/></g>
<g fill-rule="evenodd"><path d="M 3181,871 L 3181,698 L 3197,698 L 3197,871 L 3181,871 z " style="fill-opacity:1.000000;fill:rgb(99,59,112);stroke:rgb(0,0,0);stroke-width:2"/></g>
<g fill-rule="evenodd"><path d="M 3181,462 L 3181,289 L 3197,289 L 3197,462 L 3181,462 z " style="fill-opacity:1.000000;fill:rgb(100,36,17);stroke:rgb(0,0,0);stroke-width:2"/></g>
<g fill-rule="evenodd"><path d="M 3142,871 L 3142,698 L 3158,698 L 3158,871 L 3142,871 z " style="fill-opacity:1.000000;fill:rgb(158,9,220);stroke:rgb(0,0,0);stroke-width:2"/></g>
<g fill-rule="evenodd"><path d="M 3142,462 L 3142,289 L 3158,289 L 3158,462 L 3142,462 z " style="fill-opacity:1.000000;fill:rgb(170,212,172);stroke:rgb(0,0,0);stroke-width:2"/></g>
<g fill-rule="evenodd"><path d="M 3103,871 L 3103,698 L 3118,698 L 3118,871 L 3103,871 z " style="fill-opacity:1.000000;fill:rgb(242,27,16);stroke:rgb(0,0,0);stroke-width:2"/></g>
<g fill-rule="evenodd"><path d="M 3103,462 L 3103,289 L 3118,289 L 3118,462 L 3103,462 z " style="fill-opacity:1.000000;fill:rgb(175,59,51);stroke:rgb(0,0,0);stroke-width:2"/></g>
<g fill-rule="evenodd"><path d="M 2665,872 L 2665,699 L 2681,699 L 2681,872 L 2665,872 z " style="fill-opacity:1.000000;fill:rgb(205,227,80);stroke:rgb(0,0,0);stroke-width:2"/></g>
<g fill-rule="evenodd"><path d="M 2665,463 L 2665,290 L 2681,290 L 2681,463 L 2665,463 z " style="fill-opacity:1.000000;fill:rgb(72,71,21);stroke:rgb(0,0,0);stroke-width:2"/></g>
<g fill-rule="evenodd"><path d="M 2626,872 L 2626,699 L 2642,699 L 2642,872 L 2626,872 z " style="fill-opacity:1.000000;fill:rgb(92,187,111);stroke:rgb(0,0,0);stroke-width:2"/></g>
<g fill-rule="evenodd"><path d="M 2626,463 L 2626,290 L 2642,290 L 2642,463 L 2626,463 z " style="fill-opacity:1.000000;fill:rgb(34,25,186);stroke:rgb(0,0,0);stroke-width:2"/></g>
<g fill-rule="evenodd"><path d="M 2587,872 L 2587,699 L 2602,699 L 2602,872 L 2587,872 z " style="fill-opacity:1.000000;fill:rgb(155,125,245);stroke:rgb(0,0,0);stroke-width:2"/></g>
<g fill-rule="evenodd"><path d="M 2587,463 L 2587,290 L 2602,290 L 2602,463 L 2587,463 z " style="fill-opacity:1.000000;fill:rgb(11,225,26);stroke:rgb(0,0,0);stroke-width:2"/></g>
<g fill-rule="evenodd"><path d="M 2547,872 L 2547,699 L 2563,699 L 2563,872 L 2547,872 z " style="fill-opacity:1.000000;fill:rgb(28,127,35);stroke:rgb(0,0,0);stroke-width:2"/></g>
<g fill-rule="evenodd"><path d="M 2547,463 L 2547,290 L 2563,290 L 2563,463 L 2547,463 z " style="fill-opacity:1.000000;fill:rgb(248,41,248);stroke:rgb(0,0,0);stroke-width:2"/></g>
<g fill-rule="evenodd"><path d="M 2469,872 L 2469,699 L 2484,699 L 2484,872 L 2469,872 z " style="fill-opacity:1.000000;fill:rgb(164,27,19);stroke:rgb(0,0,0);stroke-width:2"/></g>
<g fill-rule="evenodd"><path d="M 2469,463 L 2469,290 L 2484,290 L 2484,463 L 2469,463 z " style="fill-opacity:1.000000;fill:rgb(181,202,78);stroke:rgb(0,0,0);stroke-width:2"/></g>
<g fill-rule="evenodd"><path d="M 2429,872 L 2429,699 L 2445,699 L 2445,872 L 2429,872 z " style="fill-opacity:1.000000;fill:rgb(232,152,50);stroke:rgb(0,0,0);stroke-width:2"/></g>
<g fill-rule="evenodd"><path d="M 2429,463 L 2429,290 L 2445,290 L 2445,463 L 2429,463 z " style="fill-opacity:1.000000;fill:rgb(56,224,121);stroke:rgb(0,0,0);stroke-width:2"/></g>
<g fill-rule="evenodd"><path d="M 2390,872 L 2390,699 L 2406,699 L 2406,872 L 2390,872 z " style="fill-opacity:1.000000;fill:rgb(77,61,52);stroke:rgb(0,0,0);stroke-width:2"/></g>
<g fill-rule="evenodd"><path d="M 2351,872 L 2351,699 L 2366,699 L 2366,872 L 2351,872 z " style="fill-opacity:1.000000;fill:rgb(188,95,78);stroke:rgb(0,0,0);stroke-width:2"/></g>
<g fill-rule="evenodd"><path d="M 2232,872 L 2232,699 L 2248,699 L 2248,872 L 2232,872 z " style="fill-opacity:1.000000;fill:rgb(119,250,203);stroke:rgb(0,0,0);stroke-width:2"/></g>
<g fill-rule="evenodd"><path d="M 2193,872 L 2193,699 L 2209,699 L 2209,872 L 2193,872 z " style="fill-opacity:1.000000;fill:rgb(108,5,172);stroke:rgb(0,0,0);stroke-width:2"/></g>
<g fill-rule="evenodd"><path d="M 2193,463 L 2193,290 L 2209,290 L 2209,463 L 2193,463 z " style="fill-opacity:1.000000;fill:rgb(134,33,43);stroke:rgb(0,0,0);stroke-width:2"/></g>
<g fill-rule="evenodd"><path d="M 2154,872 L 2154,699 L 2169,699 L 2169,872 L 2154,872 z " style="fill-opacity:1.000000;fill:rgb(170,26,85);stroke:rgb(0,0,0);stroke-width:2"/></g>
<g fill-rule="evenodd"><path d="M 2154,463 L 2154,290 L 2169,290 L 2169,463 L 2154,463 z " style="fill-opacity:1.000000;fill:rgb(162,190,112);stroke:rgb(0,0,0);stroke-width:2"/></g>
<g fill-rule="evenodd"><path d="M 2114,872 L 2114,699 L 2130,699 L 2130,872 L 2114,872 z " style="fill-opacity:1.000000;fill:rgb(181,115,59);stroke:rgb(0,0,0);stroke-width:2"/></g>
<g fill-rule="evenodd"><path d="M 2114,463 L 2114,290 L 2130,290 L 2130,463 L 2114,463 z " style="fill-opacity:1.000000;fill:rgb(4,92,211);stroke:rgb(0,0,0);stroke-width:2"/></g>
<g fill-rule="evenodd"><path d="M 2075,872 L 2075,699 L 2091,699 L 2091,872 L 2075,872 z " style="fill-opacity:1.000000;fill:rgb(54,148,179);stroke:rgb(0,0,0);stroke-width:2"/></g>
<g fill-rule="evenodd"><path d="M 2036,872 L 2036,699 L 2051,699 L 2051,872 L 2036,872 z " style="fill-opacity:1.000000;fill:rgb(175,226,240);stroke:rgb(0,0,0);stroke-width:2"/></g>
<g fill-rule="evenodd"><path d="M 1996,872 L 1996,699 L 2012,699 L 2012,872 L 1996,872 z " style="fill-opacity:1.000000;fill:rgb(228,158,79);stroke:rgb(0,0,0);stroke-width:2"/></g>
<g fill-rule="evenodd"><path d="M 1957,872 L 1957,699 L 1973,699 L 1973,872 L 1957,872 z " style="fill-opacity:1.000000;fill:rgb(50,21,73);stroke:rgb(0,0,0);stroke-width:2"/></g>
<g fill-rule="evenodd"><path d="M 1957,463 L 1957,290 L 1973,290 L 1973,463 L 1957,463 z " style="fill-opacity:1.000000;fill:rgb(253,130,78);stroke:rgb(0,0,0);stroke-width:2"/></g>
<g fill-rule="evenodd"><path d="M 1839,872 L 1839,699 L 1855,699 L 1855,872 L 1839,872 z " style="fill-opacity:1.000000;fill:rgb(169,8,112);stroke:rgb(0,0,0);stroke-width:2"/></g>
<g fill-rule="evenodd"><path d="M 1839,463 L 1839,290 L 1855,290 L 1855,463 L 1839,463 z " style="fill-opacity:1.000000;fill:rgb(212,178,138);stroke:rgb(0,0,0);stroke-width:2"/></g>
<g fill-rule="evenodd"><path d="M 1800,463 L 1800,290 L 1815,290 L 1815,463 L 1800,463 z " style="fill-opacity:1.000000;fill:rgb(41,84,72);stroke:rgb(0,0,0);stroke-width:2"/></g>
<g fill-rule="evenodd"><path d="M 1760,872 L 1760,699 L 1776,699 L 1776,872 L 1760,872 z " style="fill-opacity:1.000000;fill:rgb(154,10,188);stroke:rgb(0,0,0);stroke-width:2"/></g>
<g fill-rule="evenodd"><path d="M 1760,463 L 1760,290 L 1776,290 L 1776,463 L 1760,463 z " style="fill-opacity:1.000000;fill:rgb(213,14,24);stroke:rgb(0,0,0);stroke-width:2"/></g>
<g fill-rule="evenodd"><path d="M 1721,872 L 1721,699 L 1737,699 L 1737,872 L 1721,872 z " style="fill-opacity:1.000000;fill:rgb(168,68,172);stroke:rgb(0,0,0);stroke-width:2"/></g>
<g fill-rule="evenodd"><path d="M 1681,872 L 1681,699 L 1697,699 L 1697,872 L 1681,872 z " style="fill-opacity:1.000000;fill:rgb(91,243,142);stroke:rgb(0,0,0);stroke-width:2"/></g>
<g fill-rule="evenodd"><path d="M 1681,463 L 1681,290 L 1697,290 L 1697,463 L 1681,463 z " style="fill-opacity:1.000000;fill:rgb(76,215,45);stroke:rgb(0,0,0);stroke-width:2"/></g>
<g fill-rule="evenodd"><path d="M 1642,872 L 1642,699 L 1658,699 L 1658,872 L 1642,872 z " style="fill-opacity:1.000000;fill:rgb(155,9,66);stroke:rgb(0,0,0);stroke-width:2"/></g>
<g fill-rule="evenodd"><path d="M 1642,463 L 1642,290 L 1658,290 L 1658,463 L 1642,463 z " style="fill-opacity:1.000000;fill:rgb(229,6,196);stroke:rgb(0,0,0);stroke-width:2"/></g>
<g fill-rule="evenodd"><path d="M 1563,872 L 1563,699 L 1579,699 L 1579,872 L 1563,872 z " style="fill-opacity:1.000000;fill:rgb(51,175,205);stroke:rgb(0,0,0);stroke-width:2"/></g>
<g fill-rule="evenodd"><path d="M 1563,463 L 1563,290 L 1579,290 L 1579,463 L 1563,463 z " style="fill-opacity:1.000000;fill:rgb(163,132,127);stroke:rgb(0,0,0);stroke-width:2"/></g>
<g fill-rule="evenodd"><path d="M 1524,872 L 1524,699 L 1540,699 L 1540,872 L 1524,872 z " style="fill-opacity:1.000000;fill:rgb(45,173,212);stroke:rgb(0,0,0);stroke-width:2"/></g>
<g fill-rule="evenodd"><path d="M 1524,463 L 1524,290 L 1540,290 L 1540,463 L 1524,463 z " style="fill-opacity:1.000000;fill:rgb(118,71,222);stroke:rgb(0,0,0);stroke-width:2"/></g>
<g fill-rule="evenodd"><path d="M 3198,2030 L 3200,2026 L 3204,2022 L 3208,2019 L 3212,2017 L 3217,2016 L 3222,2016 L 3227,2017 L 3231,2019 L 3235,2022 L 3238,2026 L 3241,2030 L 3242,2035 L 3243,2040 L 3242,2045 L 3241,2050 L 3238,2054 L 3235,2057 L 3231,2060 L 3227,2062 L 3222,2063 L 3217,2063 L 3212,2062 L 3208,2060 L 3204,2057 L 3200,2054 L 3198,2050 L 1783,2050 L 1780,2049 L 1776,2047 L 1697,1967 L 1691,1969 L 1686,1969 L 1681,1968 L 1677,1966 L 1673,1963 L 1670,1959 L 1667,1955 L 1666,1950 L 1665,1945 L 1666,1940 L 1667,1936 L 1670,1931 L 1673,1928 L 1677,1925 L 1681,1923 L 1686,1922 L 1691,1922 L 1696,1923 L 1700,1925 L 1704,1928 L 1708,1931 L 1710,1936 L 1712,1940 L 1712,1945 L 1712,1950 L 1711,1953 L 1787,2030 L 3198,2030 z " style="fill-opacity:1.000000;fill:rgb(50,28,236);stroke:rgb(0,0,0);stroke-width:2"/></g>
<g fill-rule="evenodd"><path d="M 1801,1513 L 1658,1513 L 1656,1516 L 1653,1519 L 1649,1522 L 1644,1524 L 1639,1525 L 1635,1525 L 1630,1524 L 1625,1522 L 1621,1519 L 1618,1516 L 1615,1511 L 1614,1507 L 1613,1502 L 1614,1497 L 1615,1492 L 1618,1488 L 1621,1484 L 1625,1481 L 1630,1479 L 1635,1478 L 1639,1478 L 1644,1479 L 1649,1481 L 1653,1484 L 1656,1488 L 1659,1492 L 1659,1493 L 1801,1493 L 1803,1489 L 1807,1486 L 1811,1483 L 1815,1481 L 1820,1480 L 1825,1480 L 1830,1481 L 1834,1483 L 1838,1486 L 1842,1489 L 1844,1494 L 1846,1498 L 1846,1503 L 1846,1508 L 1844,1513 L 1842,1517 L 1838,1521 L 1834,1524 L 1830,1526 L 1825,1527 L 1820,1527 L 1815,1526 L 1811,1524 L 1807,1521 L 1803,1517 L 1801,1513 z " style="fill-opacity:1.000000;fill:rgb(74,196,48);stroke:rgb(0,0,0);stroke-width:2"/></g>
<g fill-rule="evenodd"><path d="M 1362,2068 L 1356,2069 L 1351,2069 L 1347,2068 L 1342,2066 L 1338,2063 L 1335,2060 L 1332,2056 L 1331,2051 L 1330,2046 L 1331,2041 L 1332,2036 L 1335,2032 L 1338,2028 L 1342,2025 L 1347,2023 L 1351,2022 L 1356,2022 L 1361,2023 L 1366,2025 L 1370,2028 L 1373,2032 L 1375,2036 L 1377,2041 L 1378,2046 L 1377,2051 L 1376,2054 L 1587,2265 L 4160,2265 L 4551,1874 L 4551,229 L 4513,191 L 4297,191 L 4262,226 L 4262,375 L 4262,377 L 4261,379 L 4260,381 L 4260,462 L 4244,462 L 4244,381 L 4243,379 L 4242,377 L 4242,375 L 4242,220 L 4243,218 L 4245,215 L 4286,174 L 4289,172 L 4293,171 L 4519,172 L 4521,172 L 4524,174 L 4569,219 L 4570,221 L 4571,225 L 4571,1880 L 4570,1882 L 4568,1885 L 4170,2283 L 4168,2284 L 4164,2284 L 1583,2284 L 1579,2284 L 1576,2282 L 1362,2068 z " style="fill-opacity:1.000000;fill:rgb(246,32,35);stroke:rgb(0,0,0);stroke-width:2"/></g>
<g fill-rule="evenodd"><path d="M 1392,1690 L 1387,1692 L 1382,1692 L 1377,1690 L 1373,1688 L 1369,1686 L 1365,1682 L 1363,1678 L 1361,1673 L 1361,1668 L 1361,1663 L 1363,1658 L 1365,1654 L 1369,1650 L 1373,1648 L 1377,1646 L 1382,1645 L 1387,1645 L 1392,1646 L 1396,1648 L 1400,1650 L 1403,1654 L 1406,1658 L 1407,1663 L 1408,1668 L 1407,1673 L 1406,1676 L 1482,1752 L 1878,1752 L 1881,1748 L 1884,1744 L 1888,1742 L 1892,1740 L 1897,1739 L 1902,1739 L 1907,1740 L 1912,1742 L 1916,1744 L 1919,1748 L 1921,1752 L 1923,1757 L 1923,1762 L 1923,1767 L 1921,1772 L 1919,1776 L 1916,1780 L 1912,1782 L 1907,1784 L 1902,1785 L 1897,1785 L 1892,1784 L 1888,1782 L 1884,1780 L 1881,1776 L 1878,1772 L 1476,1772 L 1473,1770 L 1471,1769 L 1392,1690 z " style="fill-opacity:1.000000;fill:rgb(133,108,251);stroke:rgb(0,0,0);stroke-width:2"/></g>
<g fill-rule="evenodd"><path d="M 4639,0 L 4643,0 L 4646,2 L 4832,188 L 4834,191 L 4835,195 L 4834,1956 L 4834,1958 L 4832,1961 L 4298,2495 L 4294,2497 L 4291,2498 L 1498,2498 L 1494,2496 L 1493,2495 L 1088,2090 L 1086,2087 L 1086,2085 L 1086,1886 L 1083,1886 L 1078,1885 L 1073,1883 L 1069,1880 L 1066,1877 L 1064,1872 L 1062,1868 L 1062,1863 L 1062,1858 L 1064,1853 L 1066,1849 L 1069,1845 L 1073,1842 L 1078,1840 L 1083,1839 L 1088,1839 L 1092,1840 L 1097,1842 L 1101,1845 L 1104,1849 L 1107,1853 L 1108,1858 L 1109,1863 L 1108,1868 L 1107,1872 L 1106,1874 L 1106,2081 L 1504,2478 L 4287,2478 L 4815,1950 L 4815,199 L 4635,19 L 4210,19 L 4104,125 L 4104,375 L 4104,377 L 4103,379 L 4102,381 L 4102,462 L 4087,462 L 4087,381 L 4085,379 L 4085,377 L 4085,375 L 4085,119 L 4085,117 L 4087,114 L 4199,2 L 4202,0 L 4204,0 L 4639,0 z " style="fill-opacity:1.000000;fill:rgb(178,7,4);stroke:rgb(0,0,0);stroke-width:2"/></g>
<g fill-rule="evenodd"><path d="M 1167,1929 L 1165,1928 L 1161,1925 L 1157,1922 L 1155,1918 L 1153,1913 L 1153,1908 L 1153,1903 L 1155,1898 L 1157,1894 L 1161,1890 L 1165,1887 L 1169,1885 L 1174,1884 L 1179,1884 L 1184,1885 L 1188,1887 L 1192,1890 L 1195,1894 L 1198,1898 L 1199,1903 L 1200,1908 L 1199,1913 L 1198,1918 L 1195,1922 L 1192,1925 L 1188,1928 L 1186,1929 L 1186,2059 L 1529,2402 L 4229,2402 L 4713,1918 L 4713,187 L 4594,68 L 4250,68 L 4144,175 L 4144,375 L 4143,377 L 4143,379 L 4142,381 L 4142,462 L 4126,462 L 4126,381 L 4125,379 L 4124,377 L 4124,375 L 4124,169 L 4125,167 L 4127,164 L 4239,52 L 4242,49 L 4244,49 L 4598,49 L 4601,49 L 4605,52 L 4729,176 L 4732,180 L 4732,183 L 4732,1924 L 4732,1926 L 4729,1929 L 4240,2419 L 4237,2421 L 4233,2422 L 1523,2421 L 1520,2420 L 1518,2419 L 1168,2069 L 1167,2065 L 1167,2063 L 1167,1929 z " style="fill-opacity:1.000000;fill:rgb(244,236,11);stroke:rgb(0,0,0);stroke-width:2"/></g>
<g fill-rule="evenodd"><path d="M 1283,1992 L 1278,1992 L 1273,1991 L 1269,1989 L 1265,1986 L 1261,1983 L 1259,1978 L 1257,1974 L 1257,1969 L 1257,1964 L 1259,1959 L 1261,1955 L 1265,1951 L 1269,1948 L 1273,1946 L 1278,1945 L 1283,1945 L 1288,1946 L 1292,1948 L 1296,1951 L 1299,1955 L 1302,1959 L 1303,1964 L 1304,1969 L 1303,1974 L 1302,1978 L 1303,1980 L 1303,1982 L 1303,2083 L 1553,2333 L 4199,2333 L 4635,1897 L 4635,205 L 4549,120 L 4272,120 L 4222,169 L 4222,375 L 4222,377 L 4222,379 L 4220,381 L 4220,462 L 4205,462 L 4205,381 L 4204,379 L 4203,377 L 4203,375 L 4203,163 L 4203,162 L 4206,158 L 4261,103 L 4264,101 L 4266,100 L 4553,100 L 4557,101 L 4560,103 L 4651,194 L 4654,198 L 4654,201 L 4654,1903 L 4654,1905 L 4651,1908 L 4210,2350 L 4206,2352 L 4203,2353 L 1547,2353 L 1544,2351 L 1542,2350 L 1285,2093 L 1283,2089 L 1283,2087 L 1283,1992 z " style="fill-opacity:1.000000;fill:rgb(185,32,186);stroke:rgb(0,0,0);stroke-width:2"/></g>
<g fill-rule="evenodd"><path d="M 1299,1356 L 1295,1360 L 1291,1363 L 1287,1365 L 1282,1366 L 1277,1366 L 1272,1365 L 1268,1363 L 1264,1360 L 1260,1356 L 1258,1352 L 1256,1347 L 1256,1343 L 1256,1338 L 1258,1333 L 1260,1329 L 1264,1325 L 1268,1322 L 1272,1320 L 1277,1319 L 1282,1319 L 1287,1320 L 1291,1322 L 1295,1325 L 1299,1329 L 1301,1333 L 1302,1337 L 1907,1337 L 1879,1309 L 1877,1306 L 1876,1302 L 1876,786 L 1876,784 L 1877,782 L 1878,780 L 1878,699 L 1894,699 L 1894,780 L 1895,782 L 1896,784 L 1896,786 L 1896,1298 L 1935,1337 L 2550,1337 L 2551,1336 L 2555,1334 L 2560,1333 L 2565,1333 L 2570,1334 L 2575,1336 L 2579,1339 L 2582,1342 L 2584,1347 L 2586,1351 L 2586,1356 L 2586,1361 L 2584,1366 L 2582,1370 L 2579,1374 L 2575,1377 L 2570,1379 L 2565,1380 L 2560,1380 L 2555,1379 L 2551,1377 L 2547,1374 L 2544,1370 L 2541,1366 L 2540,1361 L 2539,1356 L 1299,1356 z " style="fill-opacity:1.000000;fill:rgb(134,195,62);stroke:rgb(0,0,0);stroke-width:2"/></g>
<g fill-rule="evenodd"><path d="M 1130,1393 L 1131,1396 L 1132,1401 L 1131,1406 L 1130,1411 L 1127,1415 L 1124,1418 L 1120,1421 L 1115,1423 L 1110,1424 L 1106,1424 L 1101,1423 L 1096,1421 L 1092,1418 L 1089,1415 L 1086,1411 L 1085,1406 L 1084,1401 L 1085,1396 L 1086,1391 L 1089,1387 L 1092,1383 L 1096,1380 L 1101,1378 L 1106,1377 L 1110,1377 L 1116,1379 L 1197,1298 L 1197,235 L 1197,231 L 1199,228 L 1324,103 L 1327,101 L 1329,100 L 1812,100 L 1816,101 L 1819,103 L 1893,177 L 1894,179 L 1896,182 L 1896,376 L 1896,378 L 1895,380 L 1894,382 L 1894,463 L 1878,463 L 1878,382 L 1877,380 L 1876,378 L 1876,376 L 1876,188 L 1808,120 L 1335,120 L 1216,239 L 1216,1303 L 1215,1306 L 1213,1309 L 1130,1393 z " style="fill-opacity:1.000000;fill:rgb(5,241,236);stroke:rgb(0,0,0);stroke-width:2"/></g>
<g fill-rule="evenodd"><path d="M 1027,1466 L 1028,1469 L 1028,1474 L 1028,1479 L 1026,1483 L 1024,1488 L 1021,1491 L 1017,1494 L 1012,1496 L 1007,1497 L 1002,1497 L 998,1496 L 993,1494 L 989,1491 L 986,1488 L 983,1483 L 982,1479 L 981,1474 L 982,1469 L 983,1464 L 986,1460 L 989,1456 L 993,1453 L 998,1451 L 1002,1450 L 1007,1450 L 1013,1452 L 1032,1432 L 1032,330 L 1032,329 L 1034,325 L 1314,44 L 1317,42 L 1319,42 L 1857,41 L 1860,42 L 1862,43 L 1968,43 L 1969,43 L 1973,45 L 2050,122 L 2052,124 L 2053,127 L 2053,376 L 2053,378 L 2053,380 L 2051,382 L 2051,463 L 2036,463 L 2036,382 L 2035,380 L 2034,378 L 2034,376 L 2034,133 L 1963,63 L 1858,63 L 1855,62 L 1853,61 L 1325,61 L 1052,335 L 1052,1436 L 1051,1440 L 1049,1443 L 1027,1466 z " style="fill-opacity:1.000000;fill:rgb(217,103,51);stroke:rgb(0,0,0);stroke-width:2"/></g>
<g fill-rule="evenodd"><path d="M 1800,780 L 1800,699 L 1815,699 L 1815,780 L 1816,782 L 1817,784 L 1817,786 L 1817,1041 L 1822,1043 L 1826,1045 L 1829,1049 L 1831,1053 L 1833,1058 L 1833,1063 L 1833,1068 L 1831,1073 L 1829,1077 L 1826,1081 L 1822,1083 L 1817,1085 L 1812,1086 L 1807,1086 L 1802,1085 L 1798,1083 L 1794,1081 L 1791,1077 L 1788,1073 L 1787,1068 L 1786,1063 L 1787,1058 L 1788,1053 L 1791,1049 L 1794,1045 L 1798,1043 L 1798,786 L 1798,784 L 1798,782 L 1800,780 z " style="fill-opacity:1.000000;fill:rgb(183,153,80);stroke:rgb(0,0,0);stroke-width:2"/></g>
<g fill-rule="evenodd"><path d="M 2272,780 L 2272,699 L 2288,699 L 2288,780 L 2289,782 L 2289,784 L 2290,786 L 2290,934 L 2289,938 L 2288,940 L 2186,1042 L 2187,1044 L 2187,1049 L 2187,1054 L 2185,1059 L 2183,1063 L 2179,1067 L 2175,1069 L 2171,1071 L 2166,1073 L 2161,1073 L 2156,1071 L 2030,1198 L 2031,1201 L 2031,1206 L 2031,1211 L 2029,1216 L 2027,1220 L 2024,1224 L 2020,1227 L 2015,1229 L 2010,1230 L 2005,1230 L 2000,1229 L 1996,1227 L 1992,1224 L 1989,1220 L 1986,1216 L 1985,1211 L 1984,1206 L 1985,1201 L 1986,1197 L 1989,1192 L 1992,1189 L 1996,1186 L 2000,1184 L 2005,1183 L 2010,1183 L 2016,1184 L 2142,1058 L 2141,1054 L 2140,1049 L 2141,1044 L 2142,1039 L 2145,1035 L 2148,1031 L 2152,1029 L 2156,1027 L 2161,1026 L 2166,1026 L 2171,1027 L 2173,1027 L 2270,930 L 2270,786 L 2270,784 L 2271,782 L 2272,780 z " style="fill-opacity:1.000000;fill:rgb(163,227,20);stroke:rgb(0,0,0);stroke-width:2"/></g>
<g fill-rule="evenodd"><path d="M 1804,1220 L 1806,1216 L 1809,1213 L 1813,1210 L 1818,1208 L 1823,1207 L 1827,1207 L 1832,1208 L 1837,1210 L 1841,1213 L 1844,1216 L 1847,1221 L 1848,1225 L 1849,1230 L 1848,1235 L 1847,1240 L 1844,1244 L 1841,1248 L 1837,1251 L 1832,1253 L 1827,1254 L 1823,1254 L 1818,1253 L 1813,1251 L 1809,1248 L 1806,1244 L 1804,1240 L 1673,1240 L 1670,1238 L 1668,1237 L 1617,1186 L 1612,1188 L 1607,1188 L 1602,1187 L 1597,1185 L 1593,1182 L 1590,1178 L 1587,1174 L 1586,1169 L 1585,1164 L 1586,1159 L 1587,1155 L 1590,1150 L 1593,1147 L 1597,1144 L 1602,1142 L 1607,1141 L 1612,1141 L 1616,1142 L 1621,1144 L 1625,1147 L 1628,1150 L 1631,1155 L 1632,1159 L 1633,1164 L 1632,1169 L 1631,1172 L 1679,1220 L 1804,1220 z " style="fill-opacity:1.000000;fill:rgb(211,217,52);stroke:rgb(0,0,0);stroke-width:2"/></g>
<g fill-rule="evenodd"><path d="M 1737,382 L 1737,463 L 1721,463 L 1721,382 L 1720,380 L 1719,378 L 1719,376 L 1719,193 L 1714,190 L 1711,186 L 1708,182 L 1707,177 L 1706,172 L 1707,168 L 1708,163 L 1711,159 L 1714,155 L 1718,152 L 1723,150 L 1727,149 L 1732,149 L 1737,150 L 1742,152 L 1746,155 L 1749,159 L 1751,163 L 1753,168 L 1753,172 L 1753,177 L 1751,182 L 1749,186 L 1746,190 L 1742,193 L 1739,194 L 1739,376 L 1738,378 L 1738,380 L 1737,382 z " style="fill-opacity:1.000000;fill:rgb(247,94,160);stroke:rgb(0,0,0);stroke-width:2"/></g>
<g fill-rule="evenodd"><path d="M 2012,382 L 2012,463 L 1996,463 L 1996,382 L 1995,380 L 1995,378 L 1994,376 L 1994,176 L 1981,163 L 1975,164 L 1970,164 L 1966,163 L 1961,161 L 1957,158 L 1954,155 L 1951,151 L 1950,146 L 1949,141 L 1950,136 L 1951,131 L 1954,127 L 1957,123 L 1961,120 L 1966,118 L 1970,117 L 1975,117 L 1980,118 L 1985,120 L 1989,123 L 1992,127 L 1994,131 L 1996,136 L 1997,141 L 1996,146 L 1995,149 L 2011,165 L 2012,167 L 2014,170 L 2014,376 L 2014,378 L 2013,380 L 2012,382 z " style="fill-opacity:1.000000;fill:rgb(242,16,168);stroke:rgb(0,0,0);stroke-width:2"/></g>
<g fill-rule="evenodd"><path d="M 2091,382 L 2091,463 L 2075,463 L 2075,382 L 2074,380 L 2073,378 L 2073,376 L 2073,139 L 2074,135 L 2078,126 L 2076,124 L 2074,120 L 2072,115 L 2072,110 L 2072,105 L 2074,101 L 2076,96 L 2079,93 L 2083,90 L 2088,88 L 2093,87 L 2098,87 L 2103,88 L 2107,90 L 2111,93 L 2114,96 L 2117,101 L 2118,105 L 2119,110 L 2118,115 L 2117,120 L 2114,124 L 2111,128 L 2107,131 L 2103,133 L 2098,134 L 2096,134 L 2093,141 L 2093,376 L 2093,378 L 2092,380 L 2091,382 z " style="fill-opacity:1.000000;fill:rgb(246,5,148);stroke:rgb(0,0,0);stroke-width:2"/></g>
<g fill-rule="evenodd"><path d="M 2288,382 L 2288,463 L 2272,463 L 2272,385 L 2269,383 L 2268,382 L 2266,378 L 2266,376 L 2266,202 L 2267,198 L 2269,195 L 2286,178 L 2286,87 L 2254,56 L 2226,56 L 2223,55 L 2221,56 L 2217,57 L 2212,57 L 2207,56 L 2202,54 L 2198,51 L 2195,47 L 2192,43 L 2191,38 L 2190,33 L 2191,28 L 2192,24 L 2195,19 L 2198,16 L 2202,13 L 2207,11 L 2212,10 L 2217,10 L 2221,11 L 2226,13 L 2230,16 L 2233,19 L 2236,24 L 2237,28 L 2238,33 L 2237,36 L 2258,36 L 2260,36 L 2263,38 L 2303,76 L 2304,78 L 2305,81 L 2305,184 L 2305,185 L 2303,189 L 2286,206 L 2286,290 L 2288,290 L 2288,371 L 2289,373 L 2289,375 L 2289,377 L 2289,379 L 2288,382 z " style="fill-opacity:1.000000;fill:rgb(1,190,180);stroke:rgb(0,0,0);stroke-width:2"/></g>
<g fill-rule="evenodd"><path d="M 2406,382 L 2406,463 L 2390,463 L 2390,382 L 2389,380 L 2388,378 L 2388,376 L 2388,85 L 2384,82 L 2381,78 L 2378,74 L 2377,69 L 2376,65 L 2377,60 L 2378,55 L 2381,51 L 2384,47 L 2388,44 L 2393,42 L 2398,41 L 2402,41 L 2407,42 L 2412,44 L 2416,47 L 2419,51 L 2422,55 L 2423,60 L 2424,65 L 2423,69 L 2422,74 L 2419,78 L 2416,82 L 2412,85 L 2408,87 L 2408,376 L 2407,378 L 2407,380 L 2406,382 z " style="fill-opacity:1.000000;fill:rgb(188,68,120);stroke:rgb(0,0,0);stroke-width:2"/></g>
<g fill-rule="evenodd"><path d="M 2366,382 L 2366,463 L 2351,463 L 2351,382 L 2349,380 L 2349,378 L 2349,376 L 2349,130 L 2344,130 L 2339,129 L 2334,127 L 2330,124 L 2327,120 L 2324,116 L 2323,111 L 2322,107 L 2323,102 L 2324,97 L 2327,93 L 2330,89 L 2334,86 L 2339,84 L 2344,83 L 2348,83 L 2353,84 L 2358,86 L 2362,89 L 2365,93 L 2368,97 L 2369,102 L 2370,107 L 2369,111 L 2368,116 L 2368,119 L 2368,376 L 2368,378 L 2367,380 L 2366,382 z " style="fill-opacity:1.000000;fill:rgb(250,73,105);stroke:rgb(0,0,0);stroke-width:2"/></g>
<g fill-rule="evenodd"><path d="M 2248,382 L 2248,463 L 2232,463 L 2232,382 L 2231,380 L 2231,378 L 2230,376 L 2230,136 L 2228,135 L 2224,132 L 2221,129 L 2218,125 L 2217,120 L 2216,115 L 2217,110 L 2218,105 L 2221,101 L 2224,97 L 2228,94 L 2233,92 L 2238,91 L 2243,91 L 2247,92 L 2252,94 L 2256,97 L 2259,101 L 2262,105 L 2263,110 L 2264,115 L 2263,120 L 2262,125 L 2259,129 L 2256,132 L 2252,135 L 2250,136 L 2250,376 L 2250,378 L 2249,380 L 2248,382 z " style="fill-opacity:1.000000;fill:rgb(230,35,208);stroke:rgb(0,0,0);stroke-width:2"/></g>
<g fill-rule="evenodd"><path d="M 3968,381 L 3967,379 L 3967,377 L 3967,375 L 3967,115 L 3953,102 L 3948,104 L 3943,104 L 3938,103 L 3933,101 L 3929,98 L 3926,94 L 3924,90 L 3922,85 L 3921,80 L 3922,75 L 3924,71 L 3926,66 L 3929,63 L 3933,60 L 3938,58 L 3943,57 L 3948,57 L 3952,58 L 3957,60 L 3961,63 L 3964,66 L 3967,71 L 3968,75 L 3969,80 L 3968,85 L 3967,88 L 3983,104 L 3985,106 L 3986,109 L 3986,375 L 3986,377 L 3985,379 L 3984,381 L 3984,462 L 3968,462 L 3968,381 z " style="fill-opacity:1.000000;fill:rgb(26,218,105);stroke:rgb(0,0,0);stroke-width:2"/></g>
<g fill-rule="evenodd"><path d="M 4024,381 L 4024,462 L 4008,462 L 4008,381 L 4007,379 L 4006,377 L 4006,375 L 4006,43 L 4007,39 L 4008,37 L 4007,33 L 4006,29 L 4007,24 L 4008,19 L 4011,15 L 4014,11 L 4018,8 L 4023,6 L 4027,5 L 4032,5 L 4037,6 L 4042,8 L 4046,11 L 4049,15 L 4051,19 L 4053,24 L 4053,29 L 4053,33 L 4051,38 L 4049,42 L 4046,46 L 4042,49 L 4037,51 L 4032,52 L 4027,52 L 4026,52 L 4026,375 L 4025,377 L 4025,379 L 4024,381 z " style="fill-opacity:1.000000;fill:rgb(106,126,76);stroke:rgb(0,0,0);stroke-width:2"/></g>
<g fill-rule="evenodd"><path d="M 5812,14 L 5812,3051 L 5811,3054 L 5810,3056 L 5808,3059 L 5806,3060 L 5802,3061 L 10,3061 L 6,3060 L 3,3058 L 1,3054 L 0,3051 L 0,14 L 1,10 L 3,7 L 6,4 L 10,4 L 1274,4 L 1278,4 L 1281,7 L 1283,8 L 1283,10 L 1284,14 L 1283,17 L 1281,21 L 1007,295 L 996,311 L 992,331 L 992,1403 L 991,1407 L 989,1410 L 986,1413 L 969,1420 L 951,1438 L 941,1461 L 941,1486 L 951,1510 L 969,1528 L 992,1537 L 1017,1537 L 1041,1528 L 1059,1510 L 1068,1486 L 1069,1483 L 1069,1481 L 1071,1478 L 1077,1472 L 1080,1467 L 1083,1464 L 1087,1463 L 1089,1463 L 1090,1463 L 1095,1464 L 1121,1465 L 1144,1455 L 1162,1437 L 1172,1414 L 1172,1410 L 1172,1408 L 1175,1405 L 1208,1372 L 1211,1369 L 1215,1369 L 1219,1369 L 1222,1372 L 1224,1375 L 1226,1379 L 1243,1396 L 1267,1406 L 1292,1406 L 1314,1397 L 1318,1396 L 2509,1396 L 2513,1397 L 2514,1398 L 2527,1410 L 2550,1420 L 2575,1420 L 2599,1410 L 2617,1392 L 2626,1369 L 2626,1344 L 2617,1320 L 2599,1302 L 2575,1293 L 2550,1293 L 2542,1296 L 2538,1297 L 1955,1297 L 1951,1296 L 1948,1294 L 1939,1284 L 1937,1281 L 1936,1279 L 1936,1247 L 1937,1245 L 1939,1241 L 1940,1240 L 1944,1239 L 1948,1239 L 1951,1240 L 1972,1260 L 1995,1270 L 2020,1270 L 2044,1260 L 2062,1242 L 2071,1219 L 2071,1215 L 2072,1213 L 2074,1210 L 2169,1116 L 2172,1113 L 2174,1113 L 2176,1113 L 2200,1103 L 2218,1085 L 2227,1062 L 2227,1059 L 2228,1057 L 2230,1054 L 2314,971 L 2311,968 L 2310,966 L 2309,962 L 2309,786 L 2309,784 L 2310,782 L 2311,780 L 2311,699 L 2327,699 L 2327,780 L 2328,782 L 2329,784 L 2329,786 L 2329,936 L 2330,933 L 2330,921 L 2330,917 L 2331,916 L 2334,913 L 2338,911 L 2342,911 L 2352,913 L 2365,913 L 2379,911 L 2391,913 L 2405,913 L 2418,911 L 2430,913 L 2444,913 L 2457,911 L 2470,913 L 2483,913 L 2494,911 L 2495,911 L 2498,912 L 2500,910 L 2506,906 L 2506,665 L 2498,660 L 2495,660 L 2493,660 L 2483,658 L 2470,658 L 2456,660 L 2444,658 L 2430,658 L 2417,660 L 2405,658 L 2391,658 L 2378,660 L 2365,658 L 2351,658 L 2341,660 L 2339,660 L 2337,660 L 2334,662 L 2324,668 L 2321,670 L 2319,670 L 2317,670 L 2313,668 L 2303,661 L 2301,660 L 2298,660 L 2296,660 L 2287,658 L 2273,658 L 2260,660 L 2247,658 L 2233,658 L 2220,660 L 2208,658 L 2194,658 L 2181,660 L 2168,658 L 2155,658 L 2141,660 L 2129,658 L 2115,658 L 2102,660 L 2090,658 L 2076,658 L 2063,660 L 2050,658 L 2037,658 L 2023,660 L 2011,658 L 1997,658 L 1984,660 L 1972,658 L 1958,658 L 1948,660 L 1946,660 L 1943,660 L 1941,661 L 1935,665 L 1935,786 L 1935,788 L 1934,790 L 1933,792 L 1933,872 L 1918,872 L 1918,792 L 1916,790 L 1916,788 L 1916,786 L 1916,665 L 1908,660 L 1905,660 L 1903,660 L 1893,658 L 1879,658 L 1866,660 L 1854,658 L 1840,658 L 1827,660 L 1814,658 L 1800,658 L 1787,660 L 1775,658 L 1761,658 L 1748,660 L 1736,658 L 1722,658 L 1708,660 L 1696,658 L 1682,658 L 1669,660 L 1657,658 L 1643,658 L 1633,660 L 1631,660 L 1628,660 L 1627,661 L 1620,665 L 1620,786 L 1620,788 L 1620,790 L 1618,792 L 1618,872 L 1603,872 L 1603,792 L 1602,790 L 1601,788 L 1601,786 L 1601,665 L 1593,660 L 1590,660 L 1588,660 L 1578,658 L 1564,658 L 1551,660 L 1539,658 L 1525,658 L 1509,661 L 1496,670 L 1486,683 L 1483,700 L 1483,871 L 1486,887 L 1495,901 L 1508,910 L 1525,913 L 1539,913 L 1552,911 L 1564,913 L 1578,913 L 1588,911 L 1590,911 L 1593,912 L 1595,909 L 1605,903 L 1607,902 L 1611,901 L 1615,902 L 1616,903 L 1627,910 L 1628,912 L 1631,911 L 1633,911 L 1643,913 L 1657,913 L 1670,911 L 1682,913 L 1696,913 L 1710,911 L 1722,913 L 1736,913 L 1748,911 L 1751,912 L 1753,913 L 1756,916 L 1757,919 L 1758,921 L 1758,1021 L 1757,1025 L 1746,1050 L 1746,1076 L 1756,1099 L 1774,1117 L 1797,1127 L 1822,1127 L 1824,1126 L 1826,1126 L 1830,1127 L 1833,1129 L 1836,1132 L 1836,1136 L 1836,1157 L 1836,1160 L 1833,1164 L 1830,1166 L 1826,1167 L 1812,1167 L 1789,1176 L 1786,1179 L 1783,1180 L 1698,1180 L 1694,1179 L 1693,1177 L 1674,1159 L 1673,1155 L 1673,1152 L 1663,1128 L 1645,1110 L 1622,1101 L 1596,1101 L 1573,1110 L 1555,1128 L 1545,1151 L 1545,1177 L 1555,1200 L 1573,1218 L 1596,1228 L 1600,1228 L 1604,1229 L 1639,1265 L 1656,1276 L 1662,1277 L 1666,1280 L 1668,1283 L 1669,1287 L 1668,1289 L 1667,1292 L 1666,1294 L 1662,1296 L 1659,1297 L 1328,1297 L 1324,1296 L 1322,1295 L 1316,1289 L 1292,1279 L 1266,1279 L 1262,1278 L 1261,1277 L 1258,1274 L 1256,1271 L 1256,1269 L 1256,260 L 1257,256 L 1259,253 L 1349,163 L 1352,161 L 1354,160 L 1656,160 L 1660,161 L 1663,163 L 1665,166 L 1666,168 L 1666,185 L 1676,208 L 1677,210 L 1679,214 L 1679,243 L 1677,247 L 1674,249 L 1671,251 L 1669,251 L 1657,249 L 1643,249 L 1633,251 L 1631,251 L 1628,250 L 1626,253 L 1616,259 L 1612,261 L 1610,261 L 1608,260 L 1605,259 L 1595,252 L 1593,250 L 1590,251 L 1588,251 L 1578,249 L 1564,249 L 1551,251 L 1539,249 L 1525,249 L 1509,252 L 1496,261 L 1486,274 L 1483,291 L 1483,462 L 1486,478 L 1495,491 L 1508,500 L 1525,504 L 1539,504 L 1552,502 L 1564,504 L 1578,504 L 1588,502 L 1590,502 L 1593,502 L 1595,501 L 1601,496 L 1601,376 L 1601,374 L 1602,372 L 1603,370 L 1603,290 L 1618,290 L 1618,370 L 1620,372 L 1620,374 L 1620,376 L 1620,493 L 1629,502 L 1631,502 L 1633,502 L 1643,504 L 1657,504 L 1670,502 L 1682,504 L 1696,504 L 1710,502 L 1722,504 L 1736,504 L 1749,502 L 1761,504 L 1775,504 L 1788,502 L 1801,504 L 1814,504 L 1828,502 L 1840,504 L 1854,504 L 1867,502 L 1879,504 L 1893,504 L 1903,502 L 1905,502 L 1908,502 L 1909,501 L 1916,496 L 1916,376 L 1916,374 L 1916,372 L 1918,370 L 1918,290 L 1933,290 L 1933,370 L 1934,372 L 1935,374 L 1935,376 L 1935,497 L 1943,502 L 1946,502 L 1948,502 L 1958,504 L 1972,504 L 1985,502 L 1997,504 L 2011,504 L 2024,502 L 2037,504 L 2050,504 L 2064,502 L 2076,504 L 2090,504 L 2103,502 L 2115,504 L 2129,504 L 2142,502 L 2155,504 L 2169,504 L 2182,502 L 2194,504 L 2208,504 L 2221,502 L 2233,504 L 2247,504 L 2261,502 L 2273,504 L 2287,504 L 2297,502 L 2299,502 L 2301,502 L 2303,501 L 2309,496 L 2309,376 L 2309,374 L 2310,372 L 2311,370 L 2311,290 L 2327,290 L 2327,370 L 2328,372 L 2329,374 L 2329,376 L 2329,497 L 2337,502 L 2340,502 L 2342,502 L 2352,504 L 2365,504 L 2379,502 L 2391,504 L 2405,504 L 2418,502 L 2430,504 L 2444,504 L 2457,502 L 2470,504 L 2483,504 L 2494,502 L 2495,502 L 2498,502 L 2500,501 L 2506,496 L 2506,376 L 2506,374 L 2507,372 L 2508,370 L 2508,290 L 2524,290 L 2524,370 L 2525,372 L 2525,374 L 2526,376 L 2526,497 L 2534,502 L 2537,502 L 2539,502 L 2548,504 L 2562,504 L 2575,502 L 2588,504 L 2601,504 L 2615,502 L 2627,504 L 2641,504 L 2654,502 L 2666,504 L 2680,504 L 2696,501 L 2710,492 L 2719,479 L 2722,462 L 2722,291 L 2719,275 L 2710,261 L 2697,252 L 2680,249 L 2666,249 L 2653,251 L 2641,249 L 2627,249 L 2614,251 L 2601,249 L 2588,249 L 2574,251 L 2562,249 L 2548,249 L 2538,251 L 2536,251 L 2534,250 L 2531,253 L 2521,259 L 2518,261 L 2516,261 L 2514,260 L 2510,259 L 2500,252 L 2498,250 L 2495,251 L 2493,251 L 2483,249 L 2470,249 L 2457,251 L 2454,250 L 2450,248 L 2448,245 L 2448,241 L 2448,111 L 2448,107 L 2449,105 L 2454,101 L 2464,77 L 2464,52 L 2454,29 L 2445,19 L 2443,16 L 2443,12 L 2445,8 L 2448,5 L 2449,4 L 2453,4 L 3913,4 L 3917,4 L 3920,7 L 3922,8 L 3923,12 L 3923,16 L 3922,17 L 3920,21 L 3919,22 L 3909,26 L 3891,44 L 3882,67 L 3881,93 L 3891,116 L 3909,134 L 3920,139 L 3924,141 L 3925,142 L 3926,146 L 3927,240 L 3926,244 L 3924,247 L 3922,248 L 3920,249 L 3916,250 L 3905,248 L 3891,248 L 3877,250 L 3865,248 L 3851,248 L 3841,250 L 3839,250 L 3837,249 L 3834,252 L 3824,258 L 3821,260 L 3819,260 L 3817,259 L 3813,258 L 3803,251 L 3801,249 L 3798,250 L 3796,250 L 3786,248 L 3773,248 L 3759,250 L 3747,248 L 3733,248 L 3723,250 L 3721,250 L 3719,249 L 3716,252 L 3706,258 L 3703,260 L 3701,260 L 3699,259 L 3695,258 L 3685,251 L 3683,249 L 3680,250 L 3678,250 L 3668,248 L 3655,248 L 3641,250 L 3629,248 L 3615,248 L 3605,250 L 3603,250 L 3601,249 L 3598,252 L 3588,258 L 3584,260 L 3583,260 L 3581,259 L 3577,258 L 3567,251 L 3565,249 L 3562,250 L 3560,250 L 3550,248 L 3536,248 L 3523,250 L 3511,248 L 3497,248 L 3487,250 L 3485,250 L 3482,249 L 3480,252 L 3470,258 L 3466,260 L 3464,260 L 3463,259 L 3459,258 L 3449,251 L 3447,249 L 3444,250 L 3442,250 L 3432,248 L 3418,248 L 3405,250 L 3393,248 L 3379,248 L 3369,250 L 3367,250 L 3364,249 L 3362,252 L 3352,258 L 3348,260 L 3346,260 L 3344,259 L 3341,258 L 3331,251 L 3329,249 L 3326,250 L 3324,250 L 3314,248 L 3300,248 L 3287,250 L 3275,248 L 3261,248 L 3251,250 L 3249,250 L 3246,249 L 3244,252 L 3234,258 L 3230,260 L 3228,260 L 3226,259 L 3223,258 L 3212,251 L 3211,249 L 3208,250 L 3206,250 L 3196,248 L 3182,248 L 3169,250 L 3157,248 L 3143,248 L 3130,250 L 3117,248 L 3104,248 L 3088,251 L 3074,260 L 3065,273 L 3062,290 L 3062,461 L 3065,477 L 3073,490 L 3087,499 L 3104,503 L 3117,503 L 3131,501 L 3143,503 L 3157,503 L 3170,501 L 3182,503 L 3196,503 L 3206,501 L 3208,501 L 3211,501 L 3213,500 L 3219,495 L 3219,375 L 3219,373 L 3220,371 L 3221,369 L 3221,289 L 3236,289 L 3236,369 L 3238,371 L 3238,373 L 3238,375 L 3238,496 L 3246,501 L 3249,501 L 3251,501 L 3261,503 L 3275,503 L 3288,501 L 3300,503 L 3314,503 L 3324,501 L 3326,501 L 3329,501 L 3331,500 L 3337,495 L 3337,375 L 3337,373 L 3338,371 L 3339,369 L 3339,289 L 3355,289 L 3355,369 L 3356,371 L 3356,373 L 3356,375 L 3356,496 L 3364,501 L 3367,501 L 3369,501 L 3379,503 L 3393,503 L 3406,501 L 3418,503 L 3432,503 L 3442,501 L 3444,501 L 3447,501 L 3449,500 L 3455,495 L 3455,375 L 3455,373 L 3456,371 L 3457,369 L 3457,289 L 3473,289 L 3473,369 L 3474,371 L 3474,373 L 3475,375 L 3475,496 L 3482,501 L 3485,501 L 3487,501 L 3497,503 L 3511,503 L 3524,501 L 3537,503 L 3550,503 L 3560,501 L 3562,501 L 3565,501 L 3567,500 L 3573,495 L 3573,375 L 3573,373 L 3574,371 L 3575,369 L 3575,289 L 3591,289 L 3591,369 L 3592,371 L 3592,373 L 3593,375 L 3593,496 L 3601,501 L 3604,501 L 3605,501 L 3615,503 L 3629,503 L 3642,501 L 3655,503 L 3668,503 L 3679,501 L 3680,501 L 3683,501 L 3685,500 L 3691,495 L 3691,375 L 3691,373 L 3692,371 L 3693,369 L 3693,289 L 3709,289 L 3709,369 L 3710,371 L 3710,373 L 3711,375 L 3711,496 L 3719,501 L 3722,501 L 3724,501 L 3733,503 L 3747,503 L 3760,501 L 3773,503 L 3787,503 L 3797,501 L 3799,501 L 3801,501 L 3803,500 L 3809,495 L 3809,375 L 3809,373 L 3810,371 L 3811,369 L 3811,289 L 3827,289 L 3827,369 L 3828,371 L 3829,373 L 3829,375 L 3829,496 L 3837,501 L 3840,501 L 3842,501 L 3851,503 L 3865,503 L 3878,501 L 3891,503 L 3905,503 L 3915,501 L 3917,501 L 3919,501 L 3921,500 L 3927,495 L 3927,375 L 3927,373 L 3928,371 L 3929,369 L 3929,289 L 3945,289 L 3945,369 L 3946,371 L 3947,373 L 3947,375 L 3947,496 L 3955,501 L 3958,501 L 3960,501 L 3970,503 L 3983,503 L 3997,501 L 4009,503 L 4023,503 L 4033,501 L 4035,501 L 4037,501 L 4039,500 L 4045,495 L 4045,375 L 4045,373 L 4046,371 L 4047,369 L 4047,289 L 4063,289 L 4063,369 L 4064,371 L 4065,373 L 4065,375 L 4065,496 L 4073,501 L 4076,501 L 4078,501 L 4088,503 L 4101,503 L 4115,501 L 4127,503 L 4141,503 L 4151,501 L 4153,501 L 4155,501 L 4157,500 L 4163,495 L 4163,375 L 4164,373 L 4164,371 L 4165,369 L 4165,289 L 4181,289 L 4181,369 L 4182,371 L 4183,373 L 4183,375 L 4183,496 L 4191,501 L 4194,501 L 4196,501 L 4206,503 L 4219,503 L 4233,501 L 4245,503 L 4259,503 L 4275,500 L 4288,491 L 4297,478 L 4301,461 L 4301,380 L 4302,374 L 4302,247 L 4302,243 L 4305,240 L 4312,233 L 4314,232 L 4317,231 L 4493,231 L 4496,232 L 4500,234 L 4508,243 L 4510,246 L 4511,250 L 4511,1853 L 4510,1857 L 4508,1860 L 4147,2222 L 4143,2224 L 4141,2225 L 1607,2225 L 1604,2224 L 1600,2222 L 1420,2042 L 1418,2039 L 1418,2037 L 1418,2033 L 1408,2010 L 1390,1992 L 1367,1982 L 1352,1982 L 1350,1982 L 1347,1979 L 1345,1976 L 1344,1974 L 1344,1956 L 1334,1933 L 1316,1915 L 1293,1905 L 1268,1905 L 1252,1911 L 1248,1911 L 1246,1911 L 1243,1909 L 1241,1905 L 1240,1902 L 1240,1895 L 1230,1872 L 1212,1854 L 1189,1844 L 1164,1844 L 1156,1847 L 1152,1847 L 1151,1847 L 1147,1844 L 1146,1843 L 1139,1827 L 1121,1809 L 1098,1799 L 1073,1799 L 1049,1809 L 1031,1827 L 1022,1850 L 1022,1875 L 1031,1899 L 1043,1911 L 1045,1914 L 1046,1916 L 1046,2084 L 1050,2104 L 1061,2121 L 1464,2523 L 1480,2534 L 1500,2538 L 4290,2538 L 4310,2534 L 4327,2523 L 4859,1990 L 4871,1973 L 4875,1953 L 4875,196 L 4871,176 L 4859,159 L 4721,21 L 4720,19 L 4718,16 L 4718,12 L 4720,8 L 4723,5 L 4724,4 L 4728,4 L 5802,4 L 5806,4 L 5808,5 L 5809,7 L 5811,10 L 5812,14M 1784,2090 L 3175,2090 L 3179,2090 L 3181,2091 L 3183,2094 L 3207,2103 L 3232,2104 L 3255,2094 L 3273,2076 L 3283,2053 L 3283,2027 L 3273,2004 L 3255,1986 L 3232,1976 L 3207,1976 L 3183,1986 L 3181,1988 L 3179,1989 L 3175,1990 L 1808,1990 L 1804,1989 L 1801,1987 L 1755,1941 L 1753,1938 L 1752,1936 L 1752,1933 L 1743,1909 L 1725,1891 L 1701,1882 L 1676,1882 L 1653,1891 L 1635,1909 L 1625,1932 L 1625,1958 L 1635,1981 L 1653,1999 L 1676,2009 L 1680,2009 L 1681,2009 L 1685,2012 L 1747,2074 L 1764,2086 L 1784,2090M 2873,2957 L 2939,2957 L 3000,2932 L 3047,2886 L 3072,2825 L 3072,2759 L 3047,2698 L 3000,2651 L 2939,2626 L 2873,2626 L 2812,2651 L 2765,2697 L 2740,2758 L 2740,2824 L 2765,2885 L 2812,2932 L 2873,2957M 1583,1538 L 1601,1556 L 1624,1565 L 1650,1565 L 1673,1556 L 1676,1554 L 1680,1553 L 1778,1553 L 1782,1554 L 1784,1555 L 1786,1557 L 1810,1567 L 1835,1567 L 1859,1557 L 1876,1539 L 1886,1516 L 1886,1491 L 1877,1467 L 1859,1449 L 1835,1440 L 1810,1440 L 1787,1449 L 1784,1452 L 1782,1453 L 1778,1453 L 1683,1453 L 1679,1453 L 1677,1452 L 1673,1448 L 1650,1438 L 1624,1438 L 1601,1448 L 1583,1466 L 1573,1489 L 1573,1514 L 1583,1538M 84,3002 L 2464,3002 L 2464,2721 L 84,2721 L 84,3002M 1442,1797 L 1459,1808 L 1479,1812 L 1855,1812 L 1859,1813 L 1861,1814 L 1864,1816 L 1887,1826 L 1912,1826 L 1936,1816 L 1954,1798 L 1963,1775 L 1963,1749 L 1954,1726 L 1936,1708 L 1912,1698 L 1887,1698 L 1864,1708 L 1861,1710 L 1859,1711 L 1855,1712 L 1501,1712 L 1498,1710 L 1496,1709 L 1451,1664 L 1449,1661 L 1448,1659 L 1448,1655 L 1438,1632 L 1420,1614 L 1397,1604 L 1372,1604 L 1348,1614 L 1330,1632 L 1321,1655 L 1321,1681 L 1330,1704 L 1348,1722 L 1372,1732 L 1375,1732 L 1377,1732 L 1380,1735 L 1442,1797M 175,413 L 236,439 L 302,439 L 363,413 L 410,367 L 435,306 L 435,240 L 410,179 L 363,132 L 302,107 L 236,107 L 175,132 L 128,179 L 103,239 L 103,305 L 128,366 L 175,413M 5449,413 L 5510,439 L 5576,439 L 5637,413 L 5684,367 L 5709,306 L 5709,240 L 5684,179 L 5637,132 L 5576,107 L 5510,107 L 5449,132 L 5402,179 L 5377,239 L 5377,305 L 5402,366 L 5449,413M 2526,906 L 2534,912 L 2537,911 L 2539,911 L 2548,913 L 2562,913 L 2575,911 L 2588,913 L 2601,913 L 2615,911 L 2627,913 L 2641,913 L 2654,911 L 2666,913 L 2680,913 L 2696,910 L 2710,901 L 2719,888 L 2722,871 L 2722,700 L 2719,684 L 2710,671 L 2697,662 L 2680,658 L 2666,658 L 2653,660 L 2641,658 L 2627,658 L 2614,660 L 2601,658 L 2588,658 L 2574,660 L 2562,658 L 2548,658 L 2538,660 L 2536,660 L 2534,660 L 2532,661 L 2526,665 L 2526,906M 3593,664 L 3593,785 L 3592,787 L 3592,789 L 3591,791 L 3591,871 L 3575,871 L 3575,791 L 3574,789 L 3573,787 L 3573,785 L 3573,664 L 3565,659 L 3562,659 L 3560,659 L 3550,657 L 3536,657 L 3523,659 L 3511,657 L 3497,657 L 3487,659 L 3485,659 L 3482,659 L 3481,660 L 3475,664 L 3475,785 L 3474,787 L 3474,789 L 3473,791 L 3473,871 L 3457,871 L 3457,791 L 3456,789 L 3455,787 L 3455,785 L 3455,664 L 3447,659 L 3444,659 L 3442,659 L 3432,657 L 3418,657 L 3405,659 L 3393,657 L 3379,657 L 3369,659 L 3367,659 L 3364,659 L 3363,660 L 3356,664 L 3356,785 L 3356,787 L 3356,789 L 3355,791 L 3355,871 L 3339,871 L 3339,791 L 3338,789 L 3337,787 L 3337,785 L 3337,664 L 3329,659 L 3326,659 L 3324,659 L 3314,657 L 3300,657 L 3287,659 L 3275,657 L 3261,657 L 3251,659 L 3249,659 L 3246,659 L 3245,660 L 3238,664 L 3238,785 L 3238,787 L 3238,789 L 3236,791 L 3236,871 L 3221,871 L 3221,791 L 3220,789 L 3219,787 L 3219,785 L 3219,664 L 3211,659 L 3208,659 L 3206,659 L 3196,657 L 3182,657 L 3169,659 L 3157,657 L 3143,657 L 3130,659 L 3117,657 L 3104,657 L 3088,660 L 3074,669 L 3065,682 L 3062,699 L 3062,870 L 3065,886 L 3073,900 L 3087,909 L 3104,912 L 3117,912 L 3131,910 L 3143,912 L 3157,912 L 3170,910 L 3182,912 L 3196,912 L 3206,910 L 3208,910 L 3211,911 L 3213,908 L 3223,902 L 3225,901 L 3229,900 L 3233,901 L 3234,902 L 3245,909 L 3246,911 L 3249,910 L 3251,910 L 3261,912 L 3275,912 L 3288,910 L 3300,912 L 3314,912 L 3324,910 L 3326,910 L 3329,911 L 3332,908 L 3341,902 L 3343,901 L 3347,900 L 3351,901 L 3352,902 L 3363,909 L 3364,911 L 3367,910 L 3369,910 L 3379,912 L 3393,912 L 3406,910 L 3418,912 L 3432,912 L 3442,910 L 3444,910 L 3447,911 L 3450,908 L 3459,902 L 3461,901 L 3465,900 L 3469,901 L 3470,902 L 3481,909 L 3482,911 L 3485,910 L 3487,910 L 3497,912 L 3511,912 L 3524,910 L 3537,912 L 3550,912 L 3560,910 L 3562,910 L 3565,911 L 3568,908 L 3577,902 L 3579,901 L 3583,900 L 3587,901 L 3589,902 L 3599,909 L 3601,911 L 3604,910 L 3605,910 L 3615,912 L 3629,912 L 3642,910 L 3655,912 L 3668,912 L 3679,910 L 3680,910 L 3683,911 L 3686,908 L 3696,902 L 3697,901 L 3701,900 L 3705,901 L 3707,902 L 3717,909 L 3719,911 L 3722,910 L 3724,910 L 3733,912 L 3747,912 L 3760,910 L 3773,912 L 3787,912 L 3797,910 L 3799,910 L 3801,911 L 3804,908 L 3814,902 L 3815,901 L 3819,900 L 3823,901 L 3825,902 L 3835,909 L 3837,911 L 3840,910 L 3842,910 L 3851,912 L 3865,912 L 3878,910 L 3891,912 L 3905,912 L 3915,910 L 3917,910 L 3919,911 L 3922,908 L 3932,902 L 3933,901 L 3937,900 L 3941,901 L 3943,902 L 3953,909 L 3955,911 L 3958,910 L 3960,910 L 3970,912 L 3983,912 L 3997,910 L 4009,912 L 4023,912 L 4033,910 L 4035,910 L 4037,911 L 4040,908 L 4050,902 L 4052,901 L 4055,900 L 4059,901 L 4061,902 L 4071,909 L 4073,911 L 4076,910 L 4078,910 L 4088,912 L 4101,912 L 4115,910 L 4127,912 L 4141,912 L 4151,910 L 4153,910 L 4155,911 L 4158,908 L 4168,902 L 4170,901 L 4173,900 L 4177,901 L 4179,902 L 4189,909 L 4191,911 L 4194,910 L 4196,910 L 4206,912 L 4219,912 L 4233,910 L 4245,912 L 4259,912 L 4275,909 L 4288,900 L 4297,887 L 4301,870 L 4301,699 L 4298,683 L 4289,670 L 4276,661 L 4259,657 L 4245,657 L 4232,659 L 4219,657 L 4206,657 L 4195,659 L 4194,659 L 4191,659 L 4189,660 L 4183,664 L 4183,785 L 4183,787 L 4182,789 L 4181,791 L 4181,871 L 4165,871 L 4165,791 L 4164,789 L 4164,787 L 4163,785 L 4163,664 L 4155,659 L 4152,659 L 4150,659 L 4141,657 L 4127,657 L 4114,659 L 4101,657 L 4087,657 L 4077,659 L 4075,659 L 4073,659 L 4071,660 L 4065,664 L 4065,785 L 4065,787 L 4064,789 L 4063,791 L 4063,871 L 4047,871 L 4047,791 L 4046,789 L 4045,787 L 4045,785 L 4045,664 L 4037,659 L 4034,659 L 4032,659 L 4023,657 L 4009,657 L 3996,659 L 3983,657 L 3969,657 L 3959,659 L 3957,659 L 3955,659 L 3953,660 L 3947,664 L 3947,785 L 3947,787 L 3946,789 L 3945,791 L 3945,871 L 3929,871 L 3929,791 L 3928,789 L 3927,787 L 3927,785 L 3927,664 L 3919,659 L 3916,659 L 3914,659 L 3905,657 L 3891,657 L 3877,659 L 3865,657 L 3851,657 L 3841,659 L 3839,659 L 3837,659 L 3835,660 L 3829,664 L 3829,785 L 3829,787 L 3828,789 L 3827,791 L 3827,871 L 3811,871 L 3811,791 L 3810,789 L 3809,787 L 3809,785 L 3809,664 L 3801,659 L 3798,659 L 3796,659 L 3786,657 L 3773,657 L 3759,659 L 3747,657 L 3733,657 L 3723,659 L 3721,659 L 3719,659 L 3716,661 L 3711,664 L 3711,785 L 3710,787 L 3710,789 L 3709,791 L 3709,871 L 3693,871 L 3693,791 L 3692,789 L 3691,787 L 3691,785 L 3691,664 L 3683,659 L 3680,659 L 3678,659 L 3668,657 L 3655,657 L 3641,659 L 3629,657 L 3615,657 L 3605,659 L 3603,659 L 3601,659 L 3599,660 L 3593,664 z " style="fill-opacity:1.000000;fill:rgb(126,81,37);stroke:rgb(0,0,0);stroke-width:2"/></g>
</svg>
