G04 #@! TF.FileFunction,Copper,L2,Bot,Signal*
%FSLAX46Y46*%
G04 Gerber Fmt 4.6, Leading zero omitted, Abs format (unit mm)*
G04 Created by KiCad (PCBNEW 4.0.7-e2-6376~60~ubuntu17.10.1) date Wed Mar 21 11:42:29 2018*
%MOMM*%
%LPD*%
G01*
G04 APERTURE LIST*
%ADD10C,0.100000*%
%ADD11C,0.300000*%
%ADD12R,0.200000X2.200000*%
%ADD13R,19.000000X0.400000*%
%ADD14C,0.600000*%
%ADD15C,0.250000*%
%ADD16C,0.500000*%
%ADD17C,0.600000*%
%ADD18C,0.254000*%
G04 APERTURE END LIST*
D10*
D11*
X31156240Y4143749D02*
X31156240Y2929463D01*
X31084812Y2786606D01*
X31013383Y2715177D01*
X30870526Y2643749D01*
X30584812Y2643749D01*
X30441954Y2715177D01*
X30370526Y2786606D01*
X30299097Y2929463D01*
X30299097Y4143749D01*
X29584811Y3643749D02*
X29584811Y2643749D01*
X29584811Y3500891D02*
X29513383Y3572320D01*
X29370525Y3643749D01*
X29156240Y3643749D01*
X29013383Y3572320D01*
X28941954Y3429463D01*
X28941954Y2643749D01*
X28227668Y2643749D02*
X28227668Y3643749D01*
X28227668Y4143749D02*
X28299097Y4072320D01*
X28227668Y4000891D01*
X28156240Y4072320D01*
X28227668Y4143749D01*
X28227668Y4000891D01*
X27656239Y3643749D02*
X27299096Y2643749D01*
X26941954Y3643749D01*
X25799097Y2715177D02*
X25941954Y2643749D01*
X26227668Y2643749D01*
X26370525Y2715177D01*
X26441954Y2858034D01*
X26441954Y3429463D01*
X26370525Y3572320D01*
X26227668Y3643749D01*
X25941954Y3643749D01*
X25799097Y3572320D01*
X25727668Y3429463D01*
X25727668Y3286606D01*
X26441954Y3143749D01*
X25084811Y2643749D02*
X25084811Y3643749D01*
X25084811Y3358034D02*
X25013383Y3500891D01*
X24941954Y3572320D01*
X24799097Y3643749D01*
X24656240Y3643749D01*
X24227669Y2715177D02*
X24084812Y2643749D01*
X23799097Y2643749D01*
X23656240Y2715177D01*
X23584812Y2858034D01*
X23584812Y2929463D01*
X23656240Y3072320D01*
X23799097Y3143749D01*
X24013383Y3143749D01*
X24156240Y3215177D01*
X24227669Y3358034D01*
X24227669Y3429463D01*
X24156240Y3572320D01*
X24013383Y3643749D01*
X23799097Y3643749D01*
X23656240Y3572320D01*
X22941954Y2643749D02*
X22941954Y3643749D01*
X22941954Y4143749D02*
X23013383Y4072320D01*
X22941954Y4000891D01*
X22870526Y4072320D01*
X22941954Y4143749D01*
X22941954Y4000891D01*
X21584811Y2643749D02*
X21584811Y4143749D01*
X21584811Y2715177D02*
X21727668Y2643749D01*
X22013382Y2643749D01*
X22156240Y2715177D01*
X22227668Y2786606D01*
X22299097Y2929463D01*
X22299097Y3358034D01*
X22227668Y3500891D01*
X22156240Y3572320D01*
X22013382Y3643749D01*
X21727668Y3643749D01*
X21584811Y3572320D01*
X20227668Y2643749D02*
X20227668Y3429463D01*
X20299097Y3572320D01*
X20441954Y3643749D01*
X20727668Y3643749D01*
X20870525Y3572320D01*
X20227668Y2715177D02*
X20370525Y2643749D01*
X20727668Y2643749D01*
X20870525Y2715177D01*
X20941954Y2858034D01*
X20941954Y3000891D01*
X20870525Y3143749D01*
X20727668Y3215177D01*
X20370525Y3215177D01*
X20227668Y3286606D01*
X18870525Y2643749D02*
X18870525Y4143749D01*
X18870525Y2715177D02*
X19013382Y2643749D01*
X19299096Y2643749D01*
X19441954Y2715177D01*
X19513382Y2786606D01*
X19584811Y2929463D01*
X19584811Y3358034D01*
X19513382Y3500891D01*
X19441954Y3572320D01*
X19299096Y3643749D01*
X19013382Y3643749D01*
X18870525Y3572320D01*
X16370525Y2643749D02*
X16370525Y4143749D01*
X16370525Y2715177D02*
X16513382Y2643749D01*
X16799096Y2643749D01*
X16941954Y2715177D01*
X17013382Y2786606D01*
X17084811Y2929463D01*
X17084811Y3358034D01*
X17013382Y3500891D01*
X16941954Y3572320D01*
X16799096Y3643749D01*
X16513382Y3643749D01*
X16370525Y3572320D01*
X15084811Y2715177D02*
X15227668Y2643749D01*
X15513382Y2643749D01*
X15656239Y2715177D01*
X15727668Y2858034D01*
X15727668Y3429463D01*
X15656239Y3572320D01*
X15513382Y3643749D01*
X15227668Y3643749D01*
X15084811Y3572320D01*
X15013382Y3429463D01*
X15013382Y3286606D01*
X15727668Y3143749D01*
X13013382Y2643749D02*
X13156240Y2715177D01*
X13227668Y2858034D01*
X13227668Y4143749D01*
X11799097Y2643749D02*
X11799097Y3429463D01*
X11870526Y3572320D01*
X12013383Y3643749D01*
X12299097Y3643749D01*
X12441954Y3572320D01*
X11799097Y2715177D02*
X11941954Y2643749D01*
X12299097Y2643749D01*
X12441954Y2715177D01*
X12513383Y2858034D01*
X12513383Y3000891D01*
X12441954Y3143749D01*
X12299097Y3215177D01*
X11941954Y3215177D01*
X11799097Y3286606D01*
X9227668Y2643749D02*
X9941954Y2643749D01*
X9941954Y4143749D01*
X8084811Y2643749D02*
X8084811Y3429463D01*
X8156240Y3572320D01*
X8299097Y3643749D01*
X8584811Y3643749D01*
X8727668Y3572320D01*
X8084811Y2715177D02*
X8227668Y2643749D01*
X8584811Y2643749D01*
X8727668Y2715177D01*
X8799097Y2858034D01*
X8799097Y3000891D01*
X8727668Y3143749D01*
X8584811Y3215177D01*
X8227668Y3215177D01*
X8084811Y3286606D01*
X6727668Y3643749D02*
X6727668Y2429463D01*
X6799097Y2286606D01*
X6870525Y2215177D01*
X7013382Y2143749D01*
X7227668Y2143749D01*
X7370525Y2215177D01*
X6727668Y2715177D02*
X6870525Y2643749D01*
X7156239Y2643749D01*
X7299097Y2715177D01*
X7370525Y2786606D01*
X7441954Y2929463D01*
X7441954Y3358034D01*
X7370525Y3500891D01*
X7299097Y3572320D01*
X7156239Y3643749D01*
X6870525Y3643749D01*
X6727668Y3572320D01*
X5370525Y3643749D02*
X5370525Y2643749D01*
X6013382Y3643749D02*
X6013382Y2858034D01*
X5941954Y2715177D01*
X5799096Y2643749D01*
X5584811Y2643749D01*
X5441954Y2715177D01*
X5370525Y2786606D01*
X4656239Y3643749D02*
X4656239Y2643749D01*
X4656239Y3500891D02*
X4584811Y3572320D01*
X4441953Y3643749D01*
X4227668Y3643749D01*
X4084811Y3572320D01*
X4013382Y3429463D01*
X4013382Y2643749D01*
X2656239Y2643749D02*
X2656239Y3429463D01*
X2727668Y3572320D01*
X2870525Y3643749D01*
X3156239Y3643749D01*
X3299096Y3572320D01*
X2656239Y2715177D02*
X2799096Y2643749D01*
X3156239Y2643749D01*
X3299096Y2715177D01*
X3370525Y2858034D01*
X3370525Y3000891D01*
X3299096Y3143749D01*
X3156239Y3215177D01*
X2799096Y3215177D01*
X2656239Y3286606D01*
D12*
X54737790Y29632210D03*
X54737790Y34832210D03*
X54237790Y29632210D03*
X54237790Y34832210D03*
X53737790Y29632210D03*
X53737790Y34832210D03*
X53237790Y29632210D03*
X53237790Y34832210D03*
X52737790Y29632210D03*
X52737790Y34832210D03*
X52237790Y29632210D03*
X52237790Y34832210D03*
X51737790Y29632210D03*
X51737790Y34832210D03*
X51237790Y29632210D03*
X51237790Y34832210D03*
X50737790Y29632210D03*
X50737790Y34832210D03*
X50237790Y29632210D03*
X50237790Y34832210D03*
X49737790Y29632210D03*
X49737790Y34832210D03*
X49237790Y29632210D03*
X49237790Y34832210D03*
X48737790Y29632210D03*
X48737790Y34832210D03*
X48237790Y29632210D03*
X48237790Y34832210D03*
X47737790Y29632210D03*
X47737790Y34832210D03*
X47237790Y29632210D03*
X47237790Y34832210D03*
X46737790Y29632210D03*
X46737790Y34832210D03*
X46237790Y29632210D03*
X46237790Y34832210D03*
X45737790Y29632210D03*
X45737790Y34832210D03*
X45237790Y29632210D03*
X45237790Y34832210D03*
X44737790Y29632210D03*
X44737790Y34832210D03*
X44237790Y29632210D03*
X44237790Y34832210D03*
X43737790Y29632210D03*
X43737790Y34832210D03*
X43237790Y29632210D03*
X43237790Y34832210D03*
X42737790Y29632210D03*
X42737790Y34832210D03*
X42237790Y29632210D03*
X42237790Y34832210D03*
X41737790Y29632210D03*
X41737790Y34832210D03*
X41237790Y29632210D03*
X41237790Y34832210D03*
X40737790Y29632210D03*
X40737790Y34832210D03*
X40237790Y29632210D03*
X40237790Y34832210D03*
X34683190Y29619510D03*
X34683190Y34819510D03*
X34183190Y29619510D03*
X34183190Y34819510D03*
X33683190Y29619510D03*
X33683190Y34819510D03*
X33183190Y29619510D03*
X33183190Y34819510D03*
X32683190Y29619510D03*
X32683190Y34819510D03*
X32183190Y29619510D03*
X32183190Y34819510D03*
X31683190Y29619510D03*
X31683190Y34819510D03*
X31183190Y29619510D03*
X31183190Y34819510D03*
X30683190Y29619510D03*
X30683190Y34819510D03*
X30183190Y29619510D03*
X30183190Y34819510D03*
X29683190Y29619510D03*
X29683190Y34819510D03*
X29183190Y29619510D03*
X29183190Y34819510D03*
X28683190Y29619510D03*
X28683190Y34819510D03*
X28183190Y29619510D03*
X28183190Y34819510D03*
X27683190Y29619510D03*
X27683190Y34819510D03*
X27183190Y29619510D03*
X27183190Y34819510D03*
X26683190Y29619510D03*
X26683190Y34819510D03*
X26183190Y29619510D03*
X26183190Y34819510D03*
X25683190Y29619510D03*
X25683190Y34819510D03*
X25183190Y29619510D03*
X25183190Y34819510D03*
X24683190Y29619510D03*
X24683190Y34819510D03*
X24183190Y29619510D03*
X24183190Y34819510D03*
X23683190Y29619510D03*
X23683190Y34819510D03*
X23183190Y29619510D03*
X23183190Y34819510D03*
X22683190Y29619510D03*
X22683190Y34819510D03*
X22183190Y29619510D03*
X22183190Y34819510D03*
X21683190Y29619510D03*
X21683190Y34819510D03*
X21183190Y29619510D03*
X21183190Y34819510D03*
X20683190Y29619510D03*
X20683190Y34819510D03*
X20183190Y29619510D03*
X20183190Y34819510D03*
D13*
X47512540Y32111560D03*
X27205240Y32124260D03*
D14*
X18724880Y15250160D03*
X9956800Y10688320D03*
X34076640Y20421600D03*
X51917600Y39237920D03*
X50840640Y38582600D03*
X17922240Y13609320D03*
X15666720Y15361920D03*
X14508480Y15935960D03*
X31211520Y38780720D03*
X23876000Y20502880D03*
X21518880Y20523200D03*
X30525720Y38247320D03*
X18308320Y18409920D03*
X24856440Y17216120D03*
X23713440Y26095960D03*
X28209240Y26273760D03*
X29179520Y38140640D03*
X26228040Y24277320D03*
X23906480Y23972520D03*
X21163280Y24810720D03*
X28849320Y39176960D03*
X14798040Y21803360D03*
X41620440Y13685520D03*
X22174200Y14889480D03*
X33279080Y22372320D03*
X16977360Y22545040D03*
X22697440Y37409120D03*
X16987520Y14589760D03*
X27340560Y38201600D03*
X13487400Y20878800D03*
X25786080Y37810440D03*
D11*
X53737790Y34832210D02*
X53737790Y33341590D01*
X53520230Y33124030D02*
X52026710Y33124030D01*
X53737790Y33341590D02*
X53520230Y33124030D01*
X52237790Y34832210D02*
X52237790Y33335110D01*
X52026710Y33124030D02*
X50609390Y33124030D01*
X52237790Y33335110D02*
X52026710Y33124030D01*
X50737790Y34832210D02*
X50737790Y33252430D01*
X50609390Y33124030D02*
X49237790Y33124030D01*
X50737790Y33252430D02*
X50609390Y33124030D01*
X49237790Y34832210D02*
X49237790Y33124030D01*
X48225320Y32111560D02*
X47512540Y32111560D01*
X47737790Y34832210D02*
X47737790Y32336810D01*
X47737790Y32336810D02*
X47512540Y32111560D01*
X46237790Y34832210D02*
X46237790Y33370890D01*
X46237790Y33370890D02*
X46573440Y33035240D01*
X44737790Y34832210D02*
X44737790Y33301170D01*
X44737790Y33301170D02*
X45003720Y33035240D01*
X43237790Y34832210D02*
X43237790Y33307650D01*
X43237790Y33307650D02*
X43510200Y33035240D01*
X41879520Y33035240D02*
X43510200Y33035240D01*
X43510200Y33035240D02*
X45003720Y33035240D01*
X45003720Y33035240D02*
X46573440Y33035240D01*
X41737790Y33176970D02*
X41879520Y33035240D01*
X41737790Y34832210D02*
X41737790Y33176970D01*
X53737790Y29632210D02*
X53737790Y31296330D01*
X53413550Y31620570D02*
X51920030Y31620570D01*
X53737790Y31296330D02*
X53413550Y31620570D01*
X52237790Y29632210D02*
X52237790Y31302810D01*
X51920030Y31620570D02*
X50411270Y31620570D01*
X52237790Y31302810D02*
X51920030Y31620570D01*
X50737790Y29632210D02*
X50737790Y31294050D01*
X50411270Y31620570D02*
X49237790Y31620570D01*
X50737790Y31294050D02*
X50411270Y31620570D01*
X49237790Y31620570D02*
X48003530Y31620570D01*
X48003530Y31620570D02*
X47512540Y32111560D01*
X49237790Y29632210D02*
X49237790Y31620570D01*
X49237790Y31620570D02*
X49179480Y31678880D01*
X46237790Y29632210D02*
X46237790Y31221310D01*
X46237790Y31221310D02*
X46471330Y31454850D01*
X44737790Y29632210D02*
X44737790Y31138630D01*
X44737790Y31138630D02*
X45054010Y31454850D01*
X43237790Y29632210D02*
X43237790Y31177870D01*
X43237790Y31177870D02*
X43514770Y31454850D01*
X47737790Y29632210D02*
X47737790Y31886310D01*
X47737790Y31886310D02*
X47512540Y32111560D01*
X41737790Y31454850D02*
X43514770Y31454850D01*
X43514770Y31454850D02*
X45054010Y31454850D01*
X45054010Y31454850D02*
X46471330Y31454850D01*
X46471330Y31454850D02*
X46855830Y31454850D01*
X46855830Y31454850D02*
X47512540Y32111560D01*
X41737790Y29632210D02*
X41737790Y31454850D01*
X41737790Y31454850D02*
X41711880Y31480760D01*
X32683190Y34819510D02*
X32683190Y33267910D01*
X32683190Y33267910D02*
X32953960Y32997140D01*
X30183190Y34819510D02*
X30183190Y33358190D01*
X30183190Y33358190D02*
X29832300Y33007300D01*
X25183190Y34819510D02*
X25183190Y33295950D01*
X25183190Y33295950D02*
X24884380Y32997140D01*
X21183190Y34819510D02*
X21183190Y33452210D01*
X21183190Y33452210D02*
X21592540Y33042860D01*
X32683190Y34819510D02*
X32683190Y32916870D01*
X30183190Y34819510D02*
X30183190Y32951790D01*
X30183190Y32951790D02*
X30175200Y32943800D01*
X25183190Y34819510D02*
X25183190Y33044490D01*
X25183190Y33044490D02*
X26103420Y32124260D01*
X26103420Y32124260D02*
X27205240Y32124260D01*
X21183190Y29619510D02*
X21183190Y27665270D01*
X21183190Y27665270D02*
X21031200Y27513280D01*
D15*
X12466320Y17038320D02*
X11978640Y17038320D01*
X16936720Y17038320D02*
X18724880Y15250160D01*
X12466320Y17038320D02*
X16936720Y17038320D01*
X9956800Y15016480D02*
X9956800Y10688320D01*
X11978640Y17038320D02*
X9956800Y15016480D01*
X34076640Y20421600D02*
X34218880Y20563840D01*
X34218880Y20563840D02*
X34218880Y25816560D01*
X32683190Y27352250D02*
X34218880Y25816560D01*
X32683190Y32916870D02*
X32669480Y32903160D01*
X32683190Y29619510D02*
X32683190Y31905950D01*
X32683190Y31905950D02*
X32699960Y31922720D01*
X25183190Y29619510D02*
X25183190Y31875370D01*
X25183190Y31875370D02*
X25125680Y31932880D01*
X30183190Y29619510D02*
X30183190Y27378290D01*
X32683190Y27217110D02*
X32683190Y27352250D01*
X32683190Y27352250D02*
X32683190Y29619510D01*
X32151320Y26685240D02*
X32683190Y27217110D01*
X30876240Y26685240D02*
X32151320Y26685240D01*
X30183190Y27378290D02*
X30876240Y26685240D01*
X51737790Y39058110D02*
X51737790Y34832210D01*
X51917600Y39237920D02*
X51737790Y39058110D01*
X51237790Y38185450D02*
X51237790Y34832210D01*
X50840640Y38582600D02*
X51237790Y38185450D01*
X54737790Y36779990D02*
X54737790Y34832210D01*
X55255160Y37297360D02*
X54737790Y36779990D01*
X58110120Y37297360D02*
X55255160Y37297360D01*
X58663840Y36743640D02*
X58110120Y37297360D01*
X58663840Y15742920D02*
X58663840Y36743640D01*
X53624480Y10703560D02*
X58663840Y15742920D01*
X20828000Y10703560D02*
X53624480Y10703560D01*
X17922240Y13609320D02*
X20828000Y10703560D01*
X53237790Y34832210D02*
X53237790Y37428830D01*
X15666720Y13390880D02*
X15666720Y15361920D01*
X20096480Y8961120D02*
X15666720Y13390880D01*
X54498240Y8961120D02*
X20096480Y8961120D01*
X60716160Y15179040D02*
X54498240Y8961120D01*
X60716160Y37271960D02*
X60716160Y15179040D01*
X59131200Y38856920D02*
X60716160Y37271960D01*
X54665880Y38856920D02*
X59131200Y38856920D01*
X53237790Y37428830D02*
X54665880Y38856920D01*
X52737790Y38066750D02*
X52737790Y34832210D01*
X54152800Y39481760D02*
X52737790Y38066750D01*
X59659520Y39481760D02*
X54152800Y39481760D01*
X62016640Y37124640D02*
X59659520Y39481760D01*
X62016640Y14777720D02*
X62016640Y37124640D01*
X55229760Y7990840D02*
X62016640Y14777720D01*
X19771360Y7990840D02*
X55229760Y7990840D01*
X14645640Y13116560D02*
X19771360Y7990840D01*
X14645640Y15798800D02*
X14645640Y13116560D01*
X14508480Y15935960D02*
X14645640Y15798800D01*
X31211520Y38780720D02*
X31183190Y38752390D01*
X31183190Y38752390D02*
X31183190Y34819510D01*
D16*
X21539200Y20502880D02*
X23876000Y20502880D01*
D15*
X21518880Y20523200D02*
X21539200Y20502880D01*
X30683190Y38089850D02*
X30525720Y38247320D01*
X30683190Y38089850D02*
X30683190Y34819510D01*
D16*
X18308320Y18409920D02*
X19502120Y17216120D01*
X19502120Y17216120D02*
X24856440Y17216120D01*
D15*
X23683190Y26126210D02*
X23683190Y29619510D01*
X23713440Y26095960D02*
X23683190Y26126210D01*
X28209240Y26273760D02*
X28224480Y26273760D01*
X29183190Y38136970D02*
X29179520Y38140640D01*
X29183190Y34819510D02*
X29183190Y38136970D01*
X28224480Y26273760D02*
X28722320Y26771600D01*
X29683190Y27732470D02*
X29683190Y29619510D01*
X26228040Y24277320D02*
X28722320Y26771600D01*
X28722320Y26771600D02*
X29683190Y27732470D01*
D16*
X22001480Y23972520D02*
X23906480Y23972520D01*
X21163280Y24810720D02*
X22001480Y23972520D01*
D15*
X29633192Y37039832D02*
X29633192Y34819510D01*
X29885640Y37292280D02*
X29633192Y37039832D01*
X29885640Y38541960D02*
X29885640Y37292280D01*
X29408120Y39019480D02*
X29885640Y38541960D01*
X29006800Y39019480D02*
X29408120Y39019480D01*
X28849320Y39176960D02*
X29006800Y39019480D01*
X29633192Y34819510D02*
X29683190Y34819510D01*
X24683190Y37262330D02*
X24683190Y34819510D01*
X23743920Y38201600D02*
X24683190Y37262330D01*
X17632680Y38201600D02*
X23743920Y38201600D01*
X16047720Y36616640D02*
X17632680Y38201600D01*
X16047720Y23053040D02*
X16047720Y36616640D01*
X14798040Y21803360D02*
X16047720Y23053040D01*
D17*
X23378160Y13685520D02*
X41620440Y13685520D01*
X22174200Y14889480D02*
X23378160Y13685520D01*
D11*
X33157160Y22494240D02*
X25247600Y22494240D01*
D15*
X33279080Y22372320D02*
X33157160Y22494240D01*
D11*
X17028160Y22494240D02*
X25247600Y22494240D01*
D15*
X16977360Y22545040D02*
X17028160Y22494240D01*
X24683190Y23058650D02*
X24683190Y29619510D01*
X25247600Y22494240D02*
X24683190Y23058650D01*
X22683190Y37394870D02*
X22683190Y34819510D01*
X22697440Y37409120D02*
X22683190Y37394870D01*
X54237790Y37499190D02*
X54237790Y34832210D01*
X54940200Y38201600D02*
X54237790Y37499190D01*
X58567320Y38201600D02*
X54940200Y38201600D01*
X59725560Y37043360D02*
X58567320Y38201600D01*
X59725560Y15448280D02*
X59725560Y37043360D01*
X54112160Y9834880D02*
X59725560Y15448280D01*
X20401280Y9834880D02*
X54112160Y9834880D01*
X17150080Y13086080D02*
X20401280Y9834880D01*
X17150080Y14427200D02*
X17150080Y13086080D01*
X16987520Y14589760D02*
X17150080Y14427200D01*
X27183190Y37830870D02*
X27183190Y34819510D01*
X27340560Y38201600D02*
X27183190Y37830870D01*
X24330660Y38925500D02*
X25717500Y38925500D01*
X26683190Y37959810D02*
X26683190Y34819510D01*
X25717500Y38925500D02*
X26683190Y37959810D01*
X24307800Y38948360D02*
X24330660Y38925500D01*
X17505680Y38948360D02*
X24307800Y38948360D01*
X13959840Y35402520D02*
X17505680Y38948360D01*
X13959840Y21351240D02*
X13959840Y35402520D01*
X13487400Y20878800D02*
X13959840Y21351240D01*
X26183190Y37413330D02*
X26183190Y34819510D01*
X25786080Y37810440D02*
X26183190Y37413330D01*
D18*
G36*
X13422439Y35939921D02*
X13257692Y35693359D01*
X13199840Y35402520D01*
X13199840Y21771654D01*
X12958457Y21671917D01*
X12695208Y21409127D01*
X12552562Y21065599D01*
X12552238Y20693633D01*
X12694283Y20349857D01*
X12957073Y20086608D01*
X13300601Y19943962D01*
X13672567Y19943638D01*
X14016343Y20085683D01*
X14269133Y20338033D01*
X20583718Y20338033D01*
X20725763Y19994257D01*
X20988553Y19731008D01*
X21332081Y19588362D01*
X21704047Y19588038D01*
X21776270Y19617880D01*
X23569178Y19617880D01*
X23689201Y19568042D01*
X24061167Y19567718D01*
X24404943Y19709763D01*
X24668192Y19972553D01*
X24810838Y20316081D01*
X24811162Y20688047D01*
X24669117Y21031823D01*
X24406327Y21295072D01*
X24062799Y21437718D01*
X23690833Y21438042D01*
X23569431Y21387880D01*
X21874637Y21387880D01*
X21705679Y21458038D01*
X21333713Y21458362D01*
X20989937Y21316317D01*
X20726688Y21053527D01*
X20584042Y20709999D01*
X20583718Y20338033D01*
X14269133Y20338033D01*
X14279592Y20348473D01*
X14422238Y20692001D01*
X14422279Y20738877D01*
X14497241Y20813839D01*
X14550603Y20893701D01*
X14611241Y20868522D01*
X14983207Y20868198D01*
X15326983Y21010243D01*
X15590232Y21273033D01*
X15732878Y21616561D01*
X15732919Y21663437D01*
X16155395Y22085913D01*
X16184243Y22016097D01*
X16447033Y21752848D01*
X16790561Y21610202D01*
X17162527Y21609878D01*
X17403002Y21709240D01*
X32619866Y21709240D01*
X32748753Y21580128D01*
X33092281Y21437482D01*
X33464247Y21437158D01*
X33808023Y21579203D01*
X34071272Y21841993D01*
X34213918Y22185521D01*
X34214242Y22557487D01*
X34072197Y22901263D01*
X33809407Y23164512D01*
X33465879Y23307158D01*
X33093913Y23307482D01*
X33025562Y23279240D01*
X25537402Y23279240D01*
X25443190Y23373452D01*
X25443190Y23740096D01*
X25697713Y23485128D01*
X26041241Y23342482D01*
X26413207Y23342158D01*
X26756983Y23484203D01*
X27020232Y23746993D01*
X27162878Y24090521D01*
X27162919Y24137397D01*
X28364146Y25338624D01*
X28394407Y25338598D01*
X28738183Y25480643D01*
X29001432Y25743433D01*
X29144078Y26086961D01*
X29144106Y26118584D01*
X30220591Y27195069D01*
X30385338Y27441630D01*
X30443190Y27732470D01*
X30443190Y27898465D01*
X30446361Y27899779D01*
X30583190Y27872070D01*
X30783190Y27872070D01*
X30938697Y27901331D01*
X31083190Y27872070D01*
X31283190Y27872070D01*
X31438697Y27901331D01*
X31583190Y27872070D01*
X31783190Y27872070D01*
X31938697Y27901331D01*
X32083190Y27872070D01*
X32283190Y27872070D01*
X32423277Y27898429D01*
X32456881Y27884510D01*
X32501440Y27884510D01*
X32559938Y27943008D01*
X32684667Y28023269D01*
X32815738Y27933712D01*
X32864940Y27884510D01*
X32909499Y27884510D01*
X32946361Y27899779D01*
X33083190Y27872070D01*
X33283190Y27872070D01*
X33438697Y27901331D01*
X33583190Y27872070D01*
X33783190Y27872070D01*
X33938697Y27901331D01*
X34083190Y27872070D01*
X34283190Y27872070D01*
X34438697Y27901331D01*
X34583190Y27872070D01*
X34783190Y27872070D01*
X35018507Y27916348D01*
X35234631Y28055420D01*
X35379621Y28267620D01*
X35430630Y28519510D01*
X35430630Y30719510D01*
X35386352Y30954827D01*
X35247280Y31170951D01*
X35074129Y31289260D01*
X36831549Y31289260D01*
X37064938Y31385933D01*
X37243567Y31564561D01*
X37340240Y31797950D01*
X37340240Y31929810D01*
X37377540Y31929810D01*
X37377540Y31785250D01*
X37474213Y31551861D01*
X37652842Y31373233D01*
X37886231Y31276560D01*
X39811077Y31276560D01*
X39686349Y31196300D01*
X39541359Y30984100D01*
X39490350Y30732210D01*
X39490350Y28532210D01*
X39534628Y28296893D01*
X39673700Y28080769D01*
X39885900Y27935779D01*
X40137790Y27884770D01*
X40337790Y27884770D01*
X40493297Y27914031D01*
X40637790Y27884770D01*
X40837790Y27884770D01*
X40993297Y27914031D01*
X41137790Y27884770D01*
X41337790Y27884770D01*
X41477877Y27911129D01*
X41511481Y27897210D01*
X41556040Y27897210D01*
X41614538Y27955708D01*
X41739267Y28035969D01*
X41870338Y27946412D01*
X41919540Y27897210D01*
X41964099Y27897210D01*
X42000961Y27912479D01*
X42137790Y27884770D01*
X42337790Y27884770D01*
X42493297Y27914031D01*
X42637790Y27884770D01*
X42837790Y27884770D01*
X42977877Y27911129D01*
X43011481Y27897210D01*
X43056040Y27897210D01*
X43114538Y27955708D01*
X43239267Y28035969D01*
X43370338Y27946412D01*
X43419540Y27897210D01*
X43464099Y27897210D01*
X43500961Y27912479D01*
X43637790Y27884770D01*
X43837790Y27884770D01*
X43993297Y27914031D01*
X44137790Y27884770D01*
X44337790Y27884770D01*
X44477877Y27911129D01*
X44511481Y27897210D01*
X44556040Y27897210D01*
X44614538Y27955708D01*
X44739267Y28035969D01*
X44870338Y27946412D01*
X44919540Y27897210D01*
X44964099Y27897210D01*
X45000961Y27912479D01*
X45137790Y27884770D01*
X45337790Y27884770D01*
X45493297Y27914031D01*
X45637790Y27884770D01*
X45837790Y27884770D01*
X45977877Y27911129D01*
X46011481Y27897210D01*
X46056040Y27897210D01*
X46114538Y27955708D01*
X46239267Y28035969D01*
X46370338Y27946412D01*
X46419540Y27897210D01*
X46464099Y27897210D01*
X46500961Y27912479D01*
X46637790Y27884770D01*
X46837790Y27884770D01*
X46993297Y27914031D01*
X47137790Y27884770D01*
X47337790Y27884770D01*
X47477877Y27911129D01*
X47511481Y27897210D01*
X47556040Y27897210D01*
X47614538Y27955708D01*
X47739267Y28035969D01*
X47870338Y27946412D01*
X47919540Y27897210D01*
X47964099Y27897210D01*
X48000961Y27912479D01*
X48137790Y27884770D01*
X48337790Y27884770D01*
X48493297Y27914031D01*
X48637790Y27884770D01*
X48837790Y27884770D01*
X48977877Y27911129D01*
X49011481Y27897210D01*
X49056040Y27897210D01*
X49114538Y27955708D01*
X49239267Y28035969D01*
X49370338Y27946412D01*
X49419540Y27897210D01*
X49464099Y27897210D01*
X49500961Y27912479D01*
X49637790Y27884770D01*
X49837790Y27884770D01*
X49993297Y27914031D01*
X50137790Y27884770D01*
X50337790Y27884770D01*
X50477877Y27911129D01*
X50511481Y27897210D01*
X50556040Y27897210D01*
X50614538Y27955708D01*
X50739267Y28035969D01*
X50870338Y27946412D01*
X50919540Y27897210D01*
X50964099Y27897210D01*
X51000961Y27912479D01*
X51137790Y27884770D01*
X51337790Y27884770D01*
X51493297Y27914031D01*
X51637790Y27884770D01*
X51837790Y27884770D01*
X51977877Y27911129D01*
X52011481Y27897210D01*
X52056040Y27897210D01*
X52114538Y27955708D01*
X52239267Y28035969D01*
X52370338Y27946412D01*
X52419540Y27897210D01*
X52464099Y27897210D01*
X52500961Y27912479D01*
X52637790Y27884770D01*
X52837790Y27884770D01*
X52993297Y27914031D01*
X53137790Y27884770D01*
X53337790Y27884770D01*
X53477877Y27911129D01*
X53511481Y27897210D01*
X53556040Y27897210D01*
X53614538Y27955708D01*
X53739267Y28035969D01*
X53870338Y27946412D01*
X53919540Y27897210D01*
X53964099Y27897210D01*
X54000961Y27912479D01*
X54137790Y27884770D01*
X54337790Y27884770D01*
X54493297Y27914031D01*
X54637790Y27884770D01*
X54837790Y27884770D01*
X55073107Y27929048D01*
X55289231Y28068120D01*
X55434221Y28280320D01*
X55485230Y28532210D01*
X55485230Y30732210D01*
X55440952Y30967527D01*
X55301880Y31183651D01*
X55165903Y31276560D01*
X57138849Y31276560D01*
X57372238Y31373233D01*
X57550867Y31551861D01*
X57647540Y31785250D01*
X57647540Y31929810D01*
X57488790Y32088560D01*
X47535540Y32088560D01*
X47535540Y32068560D01*
X47489540Y32068560D01*
X47489540Y32088560D01*
X37536290Y32088560D01*
X37377540Y31929810D01*
X37340240Y31929810D01*
X37340240Y31942510D01*
X37181490Y32101260D01*
X27228240Y32101260D01*
X27228240Y32081260D01*
X27182240Y32081260D01*
X27182240Y32101260D01*
X17228990Y32101260D01*
X17070240Y31942510D01*
X17070240Y31797950D01*
X17166913Y31564561D01*
X17345542Y31385933D01*
X17578931Y31289260D01*
X19795949Y31289260D01*
X19631749Y31183600D01*
X19486759Y30971400D01*
X19435750Y30719510D01*
X19435750Y28519510D01*
X19480028Y28284193D01*
X19619100Y28068069D01*
X19831300Y27923079D01*
X20083190Y27872070D01*
X20283190Y27872070D01*
X20438697Y27901331D01*
X20583190Y27872070D01*
X20783190Y27872070D01*
X20923277Y27898429D01*
X20956881Y27884510D01*
X21001440Y27884510D01*
X21059938Y27943008D01*
X21184667Y28023269D01*
X21315738Y27933712D01*
X21364940Y27884510D01*
X21409499Y27884510D01*
X21446361Y27899779D01*
X21583190Y27872070D01*
X21783190Y27872070D01*
X21938697Y27901331D01*
X22083190Y27872070D01*
X22283190Y27872070D01*
X22438697Y27901331D01*
X22583190Y27872070D01*
X22783190Y27872070D01*
X22923190Y27898413D01*
X22923190Y26628226D01*
X22921248Y26626287D01*
X22778602Y26282759D01*
X22778278Y25910793D01*
X22920323Y25567017D01*
X23183113Y25303768D01*
X23526641Y25161122D01*
X23898607Y25160798D01*
X23923190Y25170955D01*
X23923190Y24907506D01*
X23721313Y24907682D01*
X23599911Y24857520D01*
X22368059Y24857520D01*
X22006024Y25219555D01*
X21956397Y25339663D01*
X21693607Y25602912D01*
X21350079Y25745558D01*
X20978113Y25745882D01*
X20634337Y25603837D01*
X20371088Y25341047D01*
X20228442Y24997519D01*
X20228118Y24625553D01*
X20370163Y24281777D01*
X20632953Y24018528D01*
X20754266Y23968154D01*
X21375688Y23346733D01*
X21375690Y23346730D01*
X21476697Y23279240D01*
X17565578Y23279240D01*
X17507687Y23337232D01*
X17164159Y23479878D01*
X16807720Y23480188D01*
X16807720Y32450570D01*
X17070240Y32450570D01*
X17070240Y32306010D01*
X17228990Y32147260D01*
X27182240Y32147260D01*
X27182240Y32800510D01*
X27228240Y32800510D01*
X27228240Y32147260D01*
X37181490Y32147260D01*
X37340240Y32306010D01*
X37340240Y32437870D01*
X37377540Y32437870D01*
X37377540Y32293310D01*
X37536290Y32134560D01*
X47489540Y32134560D01*
X47489540Y32787810D01*
X47535540Y32787810D01*
X47535540Y32134560D01*
X57488790Y32134560D01*
X57647540Y32293310D01*
X57647540Y32437870D01*
X57550867Y32671259D01*
X57372238Y32849887D01*
X57138849Y32946560D01*
X47694290Y32946560D01*
X47535540Y32787810D01*
X47489540Y32787810D01*
X47330790Y32946560D01*
X37886231Y32946560D01*
X37652842Y32849887D01*
X37474213Y32671259D01*
X37377540Y32437870D01*
X37340240Y32437870D01*
X37340240Y32450570D01*
X37243567Y32683959D01*
X37064938Y32862587D01*
X36831549Y32959260D01*
X27386990Y32959260D01*
X27228240Y32800510D01*
X27182240Y32800510D01*
X27023490Y32959260D01*
X17578931Y32959260D01*
X17345542Y32862587D01*
X17166913Y32683959D01*
X17070240Y32450570D01*
X16807720Y32450570D01*
X16807720Y36301838D01*
X17947482Y37441600D01*
X21762468Y37441600D01*
X21762278Y37223953D01*
X21904323Y36880177D01*
X21923190Y36861277D01*
X21923190Y36538599D01*
X21783190Y36566950D01*
X21583190Y36566950D01*
X21443103Y36540591D01*
X21409499Y36554510D01*
X21364940Y36554510D01*
X21306442Y36496012D01*
X21181713Y36415751D01*
X21050642Y36505308D01*
X21001440Y36554510D01*
X20956881Y36554510D01*
X20920019Y36539241D01*
X20783190Y36566950D01*
X20583190Y36566950D01*
X20427683Y36537689D01*
X20283190Y36566950D01*
X20083190Y36566950D01*
X19847873Y36522672D01*
X19631749Y36383600D01*
X19486759Y36171400D01*
X19435750Y35919510D01*
X19435750Y33719510D01*
X19480028Y33484193D01*
X19619100Y33268069D01*
X19831300Y33123079D01*
X20083190Y33072070D01*
X20283190Y33072070D01*
X20438697Y33101331D01*
X20583190Y33072070D01*
X20783190Y33072070D01*
X20923277Y33098429D01*
X20956881Y33084510D01*
X21001440Y33084510D01*
X21059938Y33143008D01*
X21184667Y33223269D01*
X21315738Y33133712D01*
X21364940Y33084510D01*
X21409499Y33084510D01*
X21446361Y33099779D01*
X21583190Y33072070D01*
X21783190Y33072070D01*
X21938697Y33101331D01*
X22083190Y33072070D01*
X22283190Y33072070D01*
X22438697Y33101331D01*
X22583190Y33072070D01*
X22783190Y33072070D01*
X22938697Y33101331D01*
X23083190Y33072070D01*
X23283190Y33072070D01*
X23438697Y33101331D01*
X23583190Y33072070D01*
X23783190Y33072070D01*
X23938697Y33101331D01*
X24083190Y33072070D01*
X24283190Y33072070D01*
X24438697Y33101331D01*
X24583190Y33072070D01*
X24783190Y33072070D01*
X24923277Y33098429D01*
X24956881Y33084510D01*
X25001440Y33084510D01*
X25059938Y33143008D01*
X25184667Y33223269D01*
X25315738Y33133712D01*
X25364940Y33084510D01*
X25409499Y33084510D01*
X25446361Y33099779D01*
X25583190Y33072070D01*
X25783190Y33072070D01*
X25938697Y33101331D01*
X26083190Y33072070D01*
X26283190Y33072070D01*
X26438697Y33101331D01*
X26583190Y33072070D01*
X26783190Y33072070D01*
X26938697Y33101331D01*
X27083190Y33072070D01*
X27283190Y33072070D01*
X27438697Y33101331D01*
X27583190Y33072070D01*
X27783190Y33072070D01*
X27938697Y33101331D01*
X28083190Y33072070D01*
X28283190Y33072070D01*
X28438697Y33101331D01*
X28583190Y33072070D01*
X28783190Y33072070D01*
X28938697Y33101331D01*
X29083190Y33072070D01*
X29283190Y33072070D01*
X29438697Y33101331D01*
X29583190Y33072070D01*
X29783190Y33072070D01*
X29923277Y33098429D01*
X29956881Y33084510D01*
X30001440Y33084510D01*
X30059938Y33143008D01*
X30184667Y33223269D01*
X30315738Y33133712D01*
X30364940Y33084510D01*
X30409499Y33084510D01*
X30446361Y33099779D01*
X30583190Y33072070D01*
X30783190Y33072070D01*
X30938697Y33101331D01*
X31083190Y33072070D01*
X31283190Y33072070D01*
X31438697Y33101331D01*
X31583190Y33072070D01*
X31783190Y33072070D01*
X31938697Y33101331D01*
X32083190Y33072070D01*
X32283190Y33072070D01*
X32423277Y33098429D01*
X32456881Y33084510D01*
X32501440Y33084510D01*
X32559938Y33143008D01*
X32684667Y33223269D01*
X32815738Y33133712D01*
X32864940Y33084510D01*
X32909499Y33084510D01*
X32946361Y33099779D01*
X33083190Y33072070D01*
X33283190Y33072070D01*
X33438697Y33101331D01*
X33583190Y33072070D01*
X33783190Y33072070D01*
X33938697Y33101331D01*
X34083190Y33072070D01*
X34283190Y33072070D01*
X34438697Y33101331D01*
X34583190Y33072070D01*
X34783190Y33072070D01*
X35018507Y33116348D01*
X35234631Y33255420D01*
X35379621Y33467620D01*
X35430630Y33719510D01*
X35430630Y35919510D01*
X35386352Y36154827D01*
X35247280Y36370951D01*
X35035080Y36515941D01*
X34783190Y36566950D01*
X34583190Y36566950D01*
X34427683Y36537689D01*
X34283190Y36566950D01*
X34083190Y36566950D01*
X33927683Y36537689D01*
X33783190Y36566950D01*
X33583190Y36566950D01*
X33427683Y36537689D01*
X33283190Y36566950D01*
X33083190Y36566950D01*
X32943103Y36540591D01*
X32909499Y36554510D01*
X32864940Y36554510D01*
X32806442Y36496012D01*
X32681713Y36415751D01*
X32550642Y36505308D01*
X32501440Y36554510D01*
X32456881Y36554510D01*
X32420019Y36539241D01*
X32283190Y36566950D01*
X32083190Y36566950D01*
X31943190Y36540607D01*
X31943190Y38189977D01*
X32003712Y38250393D01*
X32146358Y38593921D01*
X32146682Y38965887D01*
X32004637Y39309663D01*
X31887545Y39426960D01*
X50435715Y39426960D01*
X50311697Y39375717D01*
X50048448Y39112927D01*
X49905802Y38769399D01*
X49905478Y38397433D01*
X50047523Y38053657D01*
X50310313Y37790408D01*
X50477790Y37720865D01*
X50477790Y36553255D01*
X50474619Y36551941D01*
X50337790Y36579650D01*
X50137790Y36579650D01*
X49982283Y36550389D01*
X49837790Y36579650D01*
X49637790Y36579650D01*
X49497703Y36553291D01*
X49464099Y36567210D01*
X49419540Y36567210D01*
X49361042Y36508712D01*
X49236313Y36428451D01*
X49105242Y36518008D01*
X49056040Y36567210D01*
X49011481Y36567210D01*
X48974619Y36551941D01*
X48837790Y36579650D01*
X48637790Y36579650D01*
X48482283Y36550389D01*
X48337790Y36579650D01*
X48137790Y36579650D01*
X47997703Y36553291D01*
X47964099Y36567210D01*
X47919540Y36567210D01*
X47861042Y36508712D01*
X47736313Y36428451D01*
X47605242Y36518008D01*
X47556040Y36567210D01*
X47511481Y36567210D01*
X47474619Y36551941D01*
X47337790Y36579650D01*
X47137790Y36579650D01*
X46982283Y36550389D01*
X46837790Y36579650D01*
X46637790Y36579650D01*
X46497703Y36553291D01*
X46464099Y36567210D01*
X46419540Y36567210D01*
X46361042Y36508712D01*
X46236313Y36428451D01*
X46105242Y36518008D01*
X46056040Y36567210D01*
X46011481Y36567210D01*
X45974619Y36551941D01*
X45837790Y36579650D01*
X45637790Y36579650D01*
X45482283Y36550389D01*
X45337790Y36579650D01*
X45137790Y36579650D01*
X44997703Y36553291D01*
X44964099Y36567210D01*
X44919540Y36567210D01*
X44861042Y36508712D01*
X44736313Y36428451D01*
X44605242Y36518008D01*
X44556040Y36567210D01*
X44511481Y36567210D01*
X44474619Y36551941D01*
X44337790Y36579650D01*
X44137790Y36579650D01*
X43982283Y36550389D01*
X43837790Y36579650D01*
X43637790Y36579650D01*
X43497703Y36553291D01*
X43464099Y36567210D01*
X43419540Y36567210D01*
X43361042Y36508712D01*
X43236313Y36428451D01*
X43105242Y36518008D01*
X43056040Y36567210D01*
X43011481Y36567210D01*
X42974619Y36551941D01*
X42837790Y36579650D01*
X42637790Y36579650D01*
X42482283Y36550389D01*
X42337790Y36579650D01*
X42137790Y36579650D01*
X41997703Y36553291D01*
X41964099Y36567210D01*
X41919540Y36567210D01*
X41861042Y36508712D01*
X41736313Y36428451D01*
X41605242Y36518008D01*
X41556040Y36567210D01*
X41511481Y36567210D01*
X41474619Y36551941D01*
X41337790Y36579650D01*
X41137790Y36579650D01*
X40982283Y36550389D01*
X40837790Y36579650D01*
X40637790Y36579650D01*
X40482283Y36550389D01*
X40337790Y36579650D01*
X40137790Y36579650D01*
X39902473Y36535372D01*
X39686349Y36396300D01*
X39541359Y36184100D01*
X39490350Y35932210D01*
X39490350Y33732210D01*
X39534628Y33496893D01*
X39673700Y33280769D01*
X39885900Y33135779D01*
X40137790Y33084770D01*
X40337790Y33084770D01*
X40493297Y33114031D01*
X40637790Y33084770D01*
X40837790Y33084770D01*
X40993297Y33114031D01*
X41137790Y33084770D01*
X41337790Y33084770D01*
X41477877Y33111129D01*
X41511481Y33097210D01*
X41556040Y33097210D01*
X41614538Y33155708D01*
X41739267Y33235969D01*
X41870338Y33146412D01*
X41919540Y33097210D01*
X41964099Y33097210D01*
X42000961Y33112479D01*
X42137790Y33084770D01*
X42337790Y33084770D01*
X42493297Y33114031D01*
X42637790Y33084770D01*
X42837790Y33084770D01*
X42977877Y33111129D01*
X43011481Y33097210D01*
X43056040Y33097210D01*
X43114538Y33155708D01*
X43239267Y33235969D01*
X43370338Y33146412D01*
X43419540Y33097210D01*
X43464099Y33097210D01*
X43500961Y33112479D01*
X43637790Y33084770D01*
X43837790Y33084770D01*
X43993297Y33114031D01*
X44137790Y33084770D01*
X44337790Y33084770D01*
X44477877Y33111129D01*
X44511481Y33097210D01*
X44556040Y33097210D01*
X44614538Y33155708D01*
X44739267Y33235969D01*
X44870338Y33146412D01*
X44919540Y33097210D01*
X44964099Y33097210D01*
X45000961Y33112479D01*
X45137790Y33084770D01*
X45337790Y33084770D01*
X45493297Y33114031D01*
X45637790Y33084770D01*
X45837790Y33084770D01*
X45977877Y33111129D01*
X46011481Y33097210D01*
X46056040Y33097210D01*
X46114538Y33155708D01*
X46239267Y33235969D01*
X46370338Y33146412D01*
X46419540Y33097210D01*
X46464099Y33097210D01*
X46500961Y33112479D01*
X46637790Y33084770D01*
X46837790Y33084770D01*
X46993297Y33114031D01*
X47137790Y33084770D01*
X47337790Y33084770D01*
X47477877Y33111129D01*
X47511481Y33097210D01*
X47556040Y33097210D01*
X47614538Y33155708D01*
X47739267Y33235969D01*
X47870338Y33146412D01*
X47919540Y33097210D01*
X47964099Y33097210D01*
X48000961Y33112479D01*
X48137790Y33084770D01*
X48337790Y33084770D01*
X48493297Y33114031D01*
X48637790Y33084770D01*
X48837790Y33084770D01*
X48977877Y33111129D01*
X49011481Y33097210D01*
X49056040Y33097210D01*
X49114538Y33155708D01*
X49239267Y33235969D01*
X49370338Y33146412D01*
X49419540Y33097210D01*
X49464099Y33097210D01*
X49500961Y33112479D01*
X49637790Y33084770D01*
X49837790Y33084770D01*
X49993297Y33114031D01*
X50137790Y33084770D01*
X50337790Y33084770D01*
X50477877Y33111129D01*
X50511481Y33097210D01*
X50556040Y33097210D01*
X50614538Y33155708D01*
X50739267Y33235969D01*
X50870338Y33146412D01*
X50919540Y33097210D01*
X50964099Y33097210D01*
X51000961Y33112479D01*
X51137790Y33084770D01*
X51337790Y33084770D01*
X51493297Y33114031D01*
X51637790Y33084770D01*
X51837790Y33084770D01*
X51977877Y33111129D01*
X52011481Y33097210D01*
X52056040Y33097210D01*
X52114538Y33155708D01*
X52239267Y33235969D01*
X52370338Y33146412D01*
X52419540Y33097210D01*
X52464099Y33097210D01*
X52500961Y33112479D01*
X52637790Y33084770D01*
X52837790Y33084770D01*
X52993297Y33114031D01*
X53137790Y33084770D01*
X53337790Y33084770D01*
X53477877Y33111129D01*
X53511481Y33097210D01*
X53556040Y33097210D01*
X53614538Y33155708D01*
X53739267Y33235969D01*
X53870338Y33146412D01*
X53919540Y33097210D01*
X53964099Y33097210D01*
X54000961Y33112479D01*
X54137790Y33084770D01*
X54337790Y33084770D01*
X54493297Y33114031D01*
X54637790Y33084770D01*
X54837790Y33084770D01*
X55073107Y33129048D01*
X55289231Y33268120D01*
X55434221Y33480320D01*
X55485230Y33732210D01*
X55485230Y34769067D01*
X55497790Y34832210D01*
X55497790Y36465188D01*
X55569962Y36537360D01*
X57795318Y36537360D01*
X57903840Y36428838D01*
X57903840Y16057722D01*
X53309678Y11463560D01*
X21142802Y11463560D01*
X18857362Y13749000D01*
X18857402Y13794487D01*
X18715357Y14138263D01*
X18452567Y14401512D01*
X18109039Y14544158D01*
X17922481Y14544321D01*
X17922620Y14704313D01*
X21239038Y14704313D01*
X21381083Y14360537D01*
X21643873Y14097288D01*
X21644265Y14097125D01*
X22717015Y13024375D01*
X23020351Y12821693D01*
X23043301Y12817128D01*
X23378160Y12750519D01*
X23378165Y12750520D01*
X41619624Y12750520D01*
X41805607Y12750358D01*
X42149383Y12892403D01*
X42412632Y13155193D01*
X42555278Y13498721D01*
X42555602Y13870687D01*
X42413557Y14214463D01*
X42150767Y14477712D01*
X41807239Y14620358D01*
X41435273Y14620682D01*
X41434881Y14620520D01*
X23765450Y14620520D01*
X22835636Y15550334D01*
X22704527Y15681672D01*
X22360999Y15824318D01*
X21989033Y15824642D01*
X21645257Y15682597D01*
X21382008Y15419807D01*
X21239362Y15076279D01*
X21239038Y14704313D01*
X17922620Y14704313D01*
X17922682Y14774927D01*
X17780637Y15118703D01*
X17517847Y15381952D01*
X17174319Y15524598D01*
X16802353Y15524922D01*
X16601791Y15442051D01*
X16601882Y15547087D01*
X16459837Y15890863D01*
X16197047Y16154112D01*
X15853519Y16296758D01*
X15481553Y16297082D01*
X15387070Y16258042D01*
X15301597Y16464903D01*
X15038807Y16728152D01*
X14695279Y16870798D01*
X14323313Y16871122D01*
X13979537Y16729077D01*
X13716288Y16466287D01*
X13573642Y16122759D01*
X13573318Y15750793D01*
X13715363Y15407017D01*
X13885640Y15236443D01*
X13885640Y13116560D01*
X13943492Y12825721D01*
X14108239Y12579159D01*
X19233959Y7453439D01*
X19480521Y7288692D01*
X19771360Y7230840D01*
X55229760Y7230840D01*
X55520599Y7288692D01*
X55767161Y7453439D01*
X62554041Y14240319D01*
X62718788Y14486881D01*
X62776640Y14777720D01*
X62776640Y35694341D01*
X68904453Y35694341D01*
X69243995Y34872588D01*
X69872161Y34243324D01*
X70693321Y33902349D01*
X71582459Y33901573D01*
X72404212Y34241115D01*
X73033476Y34869281D01*
X73374451Y35690441D01*
X73375227Y36579579D01*
X73035685Y37401332D01*
X72407519Y38030596D01*
X71586359Y38371571D01*
X70697221Y38372347D01*
X69875468Y38032805D01*
X69246204Y37404639D01*
X68905229Y36583479D01*
X68904453Y35694341D01*
X62776640Y35694341D01*
X62776640Y37124640D01*
X62718788Y37415479D01*
X62554041Y37662041D01*
X60789122Y39426960D01*
X74429840Y39426960D01*
X74429840Y846960D01*
X849840Y846960D01*
X849840Y5157320D01*
X1664097Y5157320D01*
X1664097Y1337320D01*
X32148384Y1337320D01*
X32148384Y3694341D01*
X35404453Y3694341D01*
X35743995Y2872588D01*
X36372161Y2243324D01*
X37193321Y1902349D01*
X38082459Y1901573D01*
X38904212Y2241115D01*
X39533476Y2869281D01*
X39874451Y3690441D01*
X39875227Y4579579D01*
X39535685Y5401332D01*
X38907519Y6030596D01*
X38086359Y6371571D01*
X37197221Y6372347D01*
X36375468Y6032805D01*
X35746204Y5404639D01*
X35405229Y4583479D01*
X35404453Y3694341D01*
X32148384Y3694341D01*
X32148384Y5157320D01*
X1664097Y5157320D01*
X849840Y5157320D01*
X849840Y18224753D01*
X17373158Y18224753D01*
X17515203Y17880977D01*
X17777993Y17617728D01*
X17899306Y17567354D01*
X18876328Y16590333D01*
X18876330Y16590330D01*
X19125370Y16423928D01*
X19163445Y16398487D01*
X19502120Y16331119D01*
X19502125Y16331120D01*
X24549618Y16331120D01*
X24669641Y16281282D01*
X25041607Y16280958D01*
X25385383Y16423003D01*
X25648632Y16685793D01*
X25791278Y17029321D01*
X25791602Y17401287D01*
X25649557Y17745063D01*
X25386767Y18008312D01*
X25043239Y18150958D01*
X24671273Y18151282D01*
X24549871Y18101120D01*
X19868699Y18101120D01*
X19151064Y18818756D01*
X19101437Y18938863D01*
X18838647Y19202112D01*
X18495119Y19344758D01*
X18123153Y19345082D01*
X17779377Y19203037D01*
X17516128Y18940247D01*
X17373482Y18596719D01*
X17373158Y18224753D01*
X849840Y18224753D01*
X849840Y35694341D01*
X1904453Y35694341D01*
X2243995Y34872588D01*
X2872161Y34243324D01*
X3693321Y33902349D01*
X4582459Y33901573D01*
X5404212Y34241115D01*
X6033476Y34869281D01*
X6374451Y35690441D01*
X6375227Y36579579D01*
X6035685Y37401332D01*
X5407519Y38030596D01*
X4586359Y38371571D01*
X3697221Y38372347D01*
X2875468Y38032805D01*
X2246204Y37404639D01*
X1905229Y36583479D01*
X1904453Y35694341D01*
X849840Y35694341D01*
X849840Y39426960D01*
X16909478Y39426960D01*
X13422439Y35939921D01*
X13422439Y35939921D01*
G37*
X13422439Y35939921D02*
X13257692Y35693359D01*
X13199840Y35402520D01*
X13199840Y21771654D01*
X12958457Y21671917D01*
X12695208Y21409127D01*
X12552562Y21065599D01*
X12552238Y20693633D01*
X12694283Y20349857D01*
X12957073Y20086608D01*
X13300601Y19943962D01*
X13672567Y19943638D01*
X14016343Y20085683D01*
X14269133Y20338033D01*
X20583718Y20338033D01*
X20725763Y19994257D01*
X20988553Y19731008D01*
X21332081Y19588362D01*
X21704047Y19588038D01*
X21776270Y19617880D01*
X23569178Y19617880D01*
X23689201Y19568042D01*
X24061167Y19567718D01*
X24404943Y19709763D01*
X24668192Y19972553D01*
X24810838Y20316081D01*
X24811162Y20688047D01*
X24669117Y21031823D01*
X24406327Y21295072D01*
X24062799Y21437718D01*
X23690833Y21438042D01*
X23569431Y21387880D01*
X21874637Y21387880D01*
X21705679Y21458038D01*
X21333713Y21458362D01*
X20989937Y21316317D01*
X20726688Y21053527D01*
X20584042Y20709999D01*
X20583718Y20338033D01*
X14269133Y20338033D01*
X14279592Y20348473D01*
X14422238Y20692001D01*
X14422279Y20738877D01*
X14497241Y20813839D01*
X14550603Y20893701D01*
X14611241Y20868522D01*
X14983207Y20868198D01*
X15326983Y21010243D01*
X15590232Y21273033D01*
X15732878Y21616561D01*
X15732919Y21663437D01*
X16155395Y22085913D01*
X16184243Y22016097D01*
X16447033Y21752848D01*
X16790561Y21610202D01*
X17162527Y21609878D01*
X17403002Y21709240D01*
X32619866Y21709240D01*
X32748753Y21580128D01*
X33092281Y21437482D01*
X33464247Y21437158D01*
X33808023Y21579203D01*
X34071272Y21841993D01*
X34213918Y22185521D01*
X34214242Y22557487D01*
X34072197Y22901263D01*
X33809407Y23164512D01*
X33465879Y23307158D01*
X33093913Y23307482D01*
X33025562Y23279240D01*
X25537402Y23279240D01*
X25443190Y23373452D01*
X25443190Y23740096D01*
X25697713Y23485128D01*
X26041241Y23342482D01*
X26413207Y23342158D01*
X26756983Y23484203D01*
X27020232Y23746993D01*
X27162878Y24090521D01*
X27162919Y24137397D01*
X28364146Y25338624D01*
X28394407Y25338598D01*
X28738183Y25480643D01*
X29001432Y25743433D01*
X29144078Y26086961D01*
X29144106Y26118584D01*
X30220591Y27195069D01*
X30385338Y27441630D01*
X30443190Y27732470D01*
X30443190Y27898465D01*
X30446361Y27899779D01*
X30583190Y27872070D01*
X30783190Y27872070D01*
X30938697Y27901331D01*
X31083190Y27872070D01*
X31283190Y27872070D01*
X31438697Y27901331D01*
X31583190Y27872070D01*
X31783190Y27872070D01*
X31938697Y27901331D01*
X32083190Y27872070D01*
X32283190Y27872070D01*
X32423277Y27898429D01*
X32456881Y27884510D01*
X32501440Y27884510D01*
X32559938Y27943008D01*
X32684667Y28023269D01*
X32815738Y27933712D01*
X32864940Y27884510D01*
X32909499Y27884510D01*
X32946361Y27899779D01*
X33083190Y27872070D01*
X33283190Y27872070D01*
X33438697Y27901331D01*
X33583190Y27872070D01*
X33783190Y27872070D01*
X33938697Y27901331D01*
X34083190Y27872070D01*
X34283190Y27872070D01*
X34438697Y27901331D01*
X34583190Y27872070D01*
X34783190Y27872070D01*
X35018507Y27916348D01*
X35234631Y28055420D01*
X35379621Y28267620D01*
X35430630Y28519510D01*
X35430630Y30719510D01*
X35386352Y30954827D01*
X35247280Y31170951D01*
X35074129Y31289260D01*
X36831549Y31289260D01*
X37064938Y31385933D01*
X37243567Y31564561D01*
X37340240Y31797950D01*
X37340240Y31929810D01*
X37377540Y31929810D01*
X37377540Y31785250D01*
X37474213Y31551861D01*
X37652842Y31373233D01*
X37886231Y31276560D01*
X39811077Y31276560D01*
X39686349Y31196300D01*
X39541359Y30984100D01*
X39490350Y30732210D01*
X39490350Y28532210D01*
X39534628Y28296893D01*
X39673700Y28080769D01*
X39885900Y27935779D01*
X40137790Y27884770D01*
X40337790Y27884770D01*
X40493297Y27914031D01*
X40637790Y27884770D01*
X40837790Y27884770D01*
X40993297Y27914031D01*
X41137790Y27884770D01*
X41337790Y27884770D01*
X41477877Y27911129D01*
X41511481Y27897210D01*
X41556040Y27897210D01*
X41614538Y27955708D01*
X41739267Y28035969D01*
X41870338Y27946412D01*
X41919540Y27897210D01*
X41964099Y27897210D01*
X42000961Y27912479D01*
X42137790Y27884770D01*
X42337790Y27884770D01*
X42493297Y27914031D01*
X42637790Y27884770D01*
X42837790Y27884770D01*
X42977877Y27911129D01*
X43011481Y27897210D01*
X43056040Y27897210D01*
X43114538Y27955708D01*
X43239267Y28035969D01*
X43370338Y27946412D01*
X43419540Y27897210D01*
X43464099Y27897210D01*
X43500961Y27912479D01*
X43637790Y27884770D01*
X43837790Y27884770D01*
X43993297Y27914031D01*
X44137790Y27884770D01*
X44337790Y27884770D01*
X44477877Y27911129D01*
X44511481Y27897210D01*
X44556040Y27897210D01*
X44614538Y27955708D01*
X44739267Y28035969D01*
X44870338Y27946412D01*
X44919540Y27897210D01*
X44964099Y27897210D01*
X45000961Y27912479D01*
X45137790Y27884770D01*
X45337790Y27884770D01*
X45493297Y27914031D01*
X45637790Y27884770D01*
X45837790Y27884770D01*
X45977877Y27911129D01*
X46011481Y27897210D01*
X46056040Y27897210D01*
X46114538Y27955708D01*
X46239267Y28035969D01*
X46370338Y27946412D01*
X46419540Y27897210D01*
X46464099Y27897210D01*
X46500961Y27912479D01*
X46637790Y27884770D01*
X46837790Y27884770D01*
X46993297Y27914031D01*
X47137790Y27884770D01*
X47337790Y27884770D01*
X47477877Y27911129D01*
X47511481Y27897210D01*
X47556040Y27897210D01*
X47614538Y27955708D01*
X47739267Y28035969D01*
X47870338Y27946412D01*
X47919540Y27897210D01*
X47964099Y27897210D01*
X48000961Y27912479D01*
X48137790Y27884770D01*
X48337790Y27884770D01*
X48493297Y27914031D01*
X48637790Y27884770D01*
X48837790Y27884770D01*
X48977877Y27911129D01*
X49011481Y27897210D01*
X49056040Y27897210D01*
X49114538Y27955708D01*
X49239267Y28035969D01*
X49370338Y27946412D01*
X49419540Y27897210D01*
X49464099Y27897210D01*
X49500961Y27912479D01*
X49637790Y27884770D01*
X49837790Y27884770D01*
X49993297Y27914031D01*
X50137790Y27884770D01*
X50337790Y27884770D01*
X50477877Y27911129D01*
X50511481Y27897210D01*
X50556040Y27897210D01*
X50614538Y27955708D01*
X50739267Y28035969D01*
X50870338Y27946412D01*
X50919540Y27897210D01*
X50964099Y27897210D01*
X51000961Y27912479D01*
X51137790Y27884770D01*
X51337790Y27884770D01*
X51493297Y27914031D01*
X51637790Y27884770D01*
X51837790Y27884770D01*
X51977877Y27911129D01*
X52011481Y27897210D01*
X52056040Y27897210D01*
X52114538Y27955708D01*
X52239267Y28035969D01*
X52370338Y27946412D01*
X52419540Y27897210D01*
X52464099Y27897210D01*
X52500961Y27912479D01*
X52637790Y27884770D01*
X52837790Y27884770D01*
X52993297Y27914031D01*
X53137790Y27884770D01*
X53337790Y27884770D01*
X53477877Y27911129D01*
X53511481Y27897210D01*
X53556040Y27897210D01*
X53614538Y27955708D01*
X53739267Y28035969D01*
X53870338Y27946412D01*
X53919540Y27897210D01*
X53964099Y27897210D01*
X54000961Y27912479D01*
X54137790Y27884770D01*
X54337790Y27884770D01*
X54493297Y27914031D01*
X54637790Y27884770D01*
X54837790Y27884770D01*
X55073107Y27929048D01*
X55289231Y28068120D01*
X55434221Y28280320D01*
X55485230Y28532210D01*
X55485230Y30732210D01*
X55440952Y30967527D01*
X55301880Y31183651D01*
X55165903Y31276560D01*
X57138849Y31276560D01*
X57372238Y31373233D01*
X57550867Y31551861D01*
X57647540Y31785250D01*
X57647540Y31929810D01*
X57488790Y32088560D01*
X47535540Y32088560D01*
X47535540Y32068560D01*
X47489540Y32068560D01*
X47489540Y32088560D01*
X37536290Y32088560D01*
X37377540Y31929810D01*
X37340240Y31929810D01*
X37340240Y31942510D01*
X37181490Y32101260D01*
X27228240Y32101260D01*
X27228240Y32081260D01*
X27182240Y32081260D01*
X27182240Y32101260D01*
X17228990Y32101260D01*
X17070240Y31942510D01*
X17070240Y31797950D01*
X17166913Y31564561D01*
X17345542Y31385933D01*
X17578931Y31289260D01*
X19795949Y31289260D01*
X19631749Y31183600D01*
X19486759Y30971400D01*
X19435750Y30719510D01*
X19435750Y28519510D01*
X19480028Y28284193D01*
X19619100Y28068069D01*
X19831300Y27923079D01*
X20083190Y27872070D01*
X20283190Y27872070D01*
X20438697Y27901331D01*
X20583190Y27872070D01*
X20783190Y27872070D01*
X20923277Y27898429D01*
X20956881Y27884510D01*
X21001440Y27884510D01*
X21059938Y27943008D01*
X21184667Y28023269D01*
X21315738Y27933712D01*
X21364940Y27884510D01*
X21409499Y27884510D01*
X21446361Y27899779D01*
X21583190Y27872070D01*
X21783190Y27872070D01*
X21938697Y27901331D01*
X22083190Y27872070D01*
X22283190Y27872070D01*
X22438697Y27901331D01*
X22583190Y27872070D01*
X22783190Y27872070D01*
X22923190Y27898413D01*
X22923190Y26628226D01*
X22921248Y26626287D01*
X22778602Y26282759D01*
X22778278Y25910793D01*
X22920323Y25567017D01*
X23183113Y25303768D01*
X23526641Y25161122D01*
X23898607Y25160798D01*
X23923190Y25170955D01*
X23923190Y24907506D01*
X23721313Y24907682D01*
X23599911Y24857520D01*
X22368059Y24857520D01*
X22006024Y25219555D01*
X21956397Y25339663D01*
X21693607Y25602912D01*
X21350079Y25745558D01*
X20978113Y25745882D01*
X20634337Y25603837D01*
X20371088Y25341047D01*
X20228442Y24997519D01*
X20228118Y24625553D01*
X20370163Y24281777D01*
X20632953Y24018528D01*
X20754266Y23968154D01*
X21375688Y23346733D01*
X21375690Y23346730D01*
X21476697Y23279240D01*
X17565578Y23279240D01*
X17507687Y23337232D01*
X17164159Y23479878D01*
X16807720Y23480188D01*
X16807720Y32450570D01*
X17070240Y32450570D01*
X17070240Y32306010D01*
X17228990Y32147260D01*
X27182240Y32147260D01*
X27182240Y32800510D01*
X27228240Y32800510D01*
X27228240Y32147260D01*
X37181490Y32147260D01*
X37340240Y32306010D01*
X37340240Y32437870D01*
X37377540Y32437870D01*
X37377540Y32293310D01*
X37536290Y32134560D01*
X47489540Y32134560D01*
X47489540Y32787810D01*
X47535540Y32787810D01*
X47535540Y32134560D01*
X57488790Y32134560D01*
X57647540Y32293310D01*
X57647540Y32437870D01*
X57550867Y32671259D01*
X57372238Y32849887D01*
X57138849Y32946560D01*
X47694290Y32946560D01*
X47535540Y32787810D01*
X47489540Y32787810D01*
X47330790Y32946560D01*
X37886231Y32946560D01*
X37652842Y32849887D01*
X37474213Y32671259D01*
X37377540Y32437870D01*
X37340240Y32437870D01*
X37340240Y32450570D01*
X37243567Y32683959D01*
X37064938Y32862587D01*
X36831549Y32959260D01*
X27386990Y32959260D01*
X27228240Y32800510D01*
X27182240Y32800510D01*
X27023490Y32959260D01*
X17578931Y32959260D01*
X17345542Y32862587D01*
X17166913Y32683959D01*
X17070240Y32450570D01*
X16807720Y32450570D01*
X16807720Y36301838D01*
X17947482Y37441600D01*
X21762468Y37441600D01*
X21762278Y37223953D01*
X21904323Y36880177D01*
X21923190Y36861277D01*
X21923190Y36538599D01*
X21783190Y36566950D01*
X21583190Y36566950D01*
X21443103Y36540591D01*
X21409499Y36554510D01*
X21364940Y36554510D01*
X21306442Y36496012D01*
X21181713Y36415751D01*
X21050642Y36505308D01*
X21001440Y36554510D01*
X20956881Y36554510D01*
X20920019Y36539241D01*
X20783190Y36566950D01*
X20583190Y36566950D01*
X20427683Y36537689D01*
X20283190Y36566950D01*
X20083190Y36566950D01*
X19847873Y36522672D01*
X19631749Y36383600D01*
X19486759Y36171400D01*
X19435750Y35919510D01*
X19435750Y33719510D01*
X19480028Y33484193D01*
X19619100Y33268069D01*
X19831300Y33123079D01*
X20083190Y33072070D01*
X20283190Y33072070D01*
X20438697Y33101331D01*
X20583190Y33072070D01*
X20783190Y33072070D01*
X20923277Y33098429D01*
X20956881Y33084510D01*
X21001440Y33084510D01*
X21059938Y33143008D01*
X21184667Y33223269D01*
X21315738Y33133712D01*
X21364940Y33084510D01*
X21409499Y33084510D01*
X21446361Y33099779D01*
X21583190Y33072070D01*
X21783190Y33072070D01*
X21938697Y33101331D01*
X22083190Y33072070D01*
X22283190Y33072070D01*
X22438697Y33101331D01*
X22583190Y33072070D01*
X22783190Y33072070D01*
X22938697Y33101331D01*
X23083190Y33072070D01*
X23283190Y33072070D01*
X23438697Y33101331D01*
X23583190Y33072070D01*
X23783190Y33072070D01*
X23938697Y33101331D01*
X24083190Y33072070D01*
X24283190Y33072070D01*
X24438697Y33101331D01*
X24583190Y33072070D01*
X24783190Y33072070D01*
X24923277Y33098429D01*
X24956881Y33084510D01*
X25001440Y33084510D01*
X25059938Y33143008D01*
X25184667Y33223269D01*
X25315738Y33133712D01*
X25364940Y33084510D01*
X25409499Y33084510D01*
X25446361Y33099779D01*
X25583190Y33072070D01*
X25783190Y33072070D01*
X25938697Y33101331D01*
X26083190Y33072070D01*
X26283190Y33072070D01*
X26438697Y33101331D01*
X26583190Y33072070D01*
X26783190Y33072070D01*
X26938697Y33101331D01*
X27083190Y33072070D01*
X27283190Y33072070D01*
X27438697Y33101331D01*
X27583190Y33072070D01*
X27783190Y33072070D01*
X27938697Y33101331D01*
X28083190Y33072070D01*
X28283190Y33072070D01*
X28438697Y33101331D01*
X28583190Y33072070D01*
X28783190Y33072070D01*
X28938697Y33101331D01*
X29083190Y33072070D01*
X29283190Y33072070D01*
X29438697Y33101331D01*
X29583190Y33072070D01*
X29783190Y33072070D01*
X29923277Y33098429D01*
X29956881Y33084510D01*
X30001440Y33084510D01*
X30059938Y33143008D01*
X30184667Y33223269D01*
X30315738Y33133712D01*
X30364940Y33084510D01*
X30409499Y33084510D01*
X30446361Y33099779D01*
X30583190Y33072070D01*
X30783190Y33072070D01*
X30938697Y33101331D01*
X31083190Y33072070D01*
X31283190Y33072070D01*
X31438697Y33101331D01*
X31583190Y33072070D01*
X31783190Y33072070D01*
X31938697Y33101331D01*
X32083190Y33072070D01*
X32283190Y33072070D01*
X32423277Y33098429D01*
X32456881Y33084510D01*
X32501440Y33084510D01*
X32559938Y33143008D01*
X32684667Y33223269D01*
X32815738Y33133712D01*
X32864940Y33084510D01*
X32909499Y33084510D01*
X32946361Y33099779D01*
X33083190Y33072070D01*
X33283190Y33072070D01*
X33438697Y33101331D01*
X33583190Y33072070D01*
X33783190Y33072070D01*
X33938697Y33101331D01*
X34083190Y33072070D01*
X34283190Y33072070D01*
X34438697Y33101331D01*
X34583190Y33072070D01*
X34783190Y33072070D01*
X35018507Y33116348D01*
X35234631Y33255420D01*
X35379621Y33467620D01*
X35430630Y33719510D01*
X35430630Y35919510D01*
X35386352Y36154827D01*
X35247280Y36370951D01*
X35035080Y36515941D01*
X34783190Y36566950D01*
X34583190Y36566950D01*
X34427683Y36537689D01*
X34283190Y36566950D01*
X34083190Y36566950D01*
X33927683Y36537689D01*
X33783190Y36566950D01*
X33583190Y36566950D01*
X33427683Y36537689D01*
X33283190Y36566950D01*
X33083190Y36566950D01*
X32943103Y36540591D01*
X32909499Y36554510D01*
X32864940Y36554510D01*
X32806442Y36496012D01*
X32681713Y36415751D01*
X32550642Y36505308D01*
X32501440Y36554510D01*
X32456881Y36554510D01*
X32420019Y36539241D01*
X32283190Y36566950D01*
X32083190Y36566950D01*
X31943190Y36540607D01*
X31943190Y38189977D01*
X32003712Y38250393D01*
X32146358Y38593921D01*
X32146682Y38965887D01*
X32004637Y39309663D01*
X31887545Y39426960D01*
X50435715Y39426960D01*
X50311697Y39375717D01*
X50048448Y39112927D01*
X49905802Y38769399D01*
X49905478Y38397433D01*
X50047523Y38053657D01*
X50310313Y37790408D01*
X50477790Y37720865D01*
X50477790Y36553255D01*
X50474619Y36551941D01*
X50337790Y36579650D01*
X50137790Y36579650D01*
X49982283Y36550389D01*
X49837790Y36579650D01*
X49637790Y36579650D01*
X49497703Y36553291D01*
X49464099Y36567210D01*
X49419540Y36567210D01*
X49361042Y36508712D01*
X49236313Y36428451D01*
X49105242Y36518008D01*
X49056040Y36567210D01*
X49011481Y36567210D01*
X48974619Y36551941D01*
X48837790Y36579650D01*
X48637790Y36579650D01*
X48482283Y36550389D01*
X48337790Y36579650D01*
X48137790Y36579650D01*
X47997703Y36553291D01*
X47964099Y36567210D01*
X47919540Y36567210D01*
X47861042Y36508712D01*
X47736313Y36428451D01*
X47605242Y36518008D01*
X47556040Y36567210D01*
X47511481Y36567210D01*
X47474619Y36551941D01*
X47337790Y36579650D01*
X47137790Y36579650D01*
X46982283Y36550389D01*
X46837790Y36579650D01*
X46637790Y36579650D01*
X46497703Y36553291D01*
X46464099Y36567210D01*
X46419540Y36567210D01*
X46361042Y36508712D01*
X46236313Y36428451D01*
X46105242Y36518008D01*
X46056040Y36567210D01*
X46011481Y36567210D01*
X45974619Y36551941D01*
X45837790Y36579650D01*
X45637790Y36579650D01*
X45482283Y36550389D01*
X45337790Y36579650D01*
X45137790Y36579650D01*
X44997703Y36553291D01*
X44964099Y36567210D01*
X44919540Y36567210D01*
X44861042Y36508712D01*
X44736313Y36428451D01*
X44605242Y36518008D01*
X44556040Y36567210D01*
X44511481Y36567210D01*
X44474619Y36551941D01*
X44337790Y36579650D01*
X44137790Y36579650D01*
X43982283Y36550389D01*
X43837790Y36579650D01*
X43637790Y36579650D01*
X43497703Y36553291D01*
X43464099Y36567210D01*
X43419540Y36567210D01*
X43361042Y36508712D01*
X43236313Y36428451D01*
X43105242Y36518008D01*
X43056040Y36567210D01*
X43011481Y36567210D01*
X42974619Y36551941D01*
X42837790Y36579650D01*
X42637790Y36579650D01*
X42482283Y36550389D01*
X42337790Y36579650D01*
X42137790Y36579650D01*
X41997703Y36553291D01*
X41964099Y36567210D01*
X41919540Y36567210D01*
X41861042Y36508712D01*
X41736313Y36428451D01*
X41605242Y36518008D01*
X41556040Y36567210D01*
X41511481Y36567210D01*
X41474619Y36551941D01*
X41337790Y36579650D01*
X41137790Y36579650D01*
X40982283Y36550389D01*
X40837790Y36579650D01*
X40637790Y36579650D01*
X40482283Y36550389D01*
X40337790Y36579650D01*
X40137790Y36579650D01*
X39902473Y36535372D01*
X39686349Y36396300D01*
X39541359Y36184100D01*
X39490350Y35932210D01*
X39490350Y33732210D01*
X39534628Y33496893D01*
X39673700Y33280769D01*
X39885900Y33135779D01*
X40137790Y33084770D01*
X40337790Y33084770D01*
X40493297Y33114031D01*
X40637790Y33084770D01*
X40837790Y33084770D01*
X40993297Y33114031D01*
X41137790Y33084770D01*
X41337790Y33084770D01*
X41477877Y33111129D01*
X41511481Y33097210D01*
X41556040Y33097210D01*
X41614538Y33155708D01*
X41739267Y33235969D01*
X41870338Y33146412D01*
X41919540Y33097210D01*
X41964099Y33097210D01*
X42000961Y33112479D01*
X42137790Y33084770D01*
X42337790Y33084770D01*
X42493297Y33114031D01*
X42637790Y33084770D01*
X42837790Y33084770D01*
X42977877Y33111129D01*
X43011481Y33097210D01*
X43056040Y33097210D01*
X43114538Y33155708D01*
X43239267Y33235969D01*
X43370338Y33146412D01*
X43419540Y33097210D01*
X43464099Y33097210D01*
X43500961Y33112479D01*
X43637790Y33084770D01*
X43837790Y33084770D01*
X43993297Y33114031D01*
X44137790Y33084770D01*
X44337790Y33084770D01*
X44477877Y33111129D01*
X44511481Y33097210D01*
X44556040Y33097210D01*
X44614538Y33155708D01*
X44739267Y33235969D01*
X44870338Y33146412D01*
X44919540Y33097210D01*
X44964099Y33097210D01*
X45000961Y33112479D01*
X45137790Y33084770D01*
X45337790Y33084770D01*
X45493297Y33114031D01*
X45637790Y33084770D01*
X45837790Y33084770D01*
X45977877Y33111129D01*
X46011481Y33097210D01*
X46056040Y33097210D01*
X46114538Y33155708D01*
X46239267Y33235969D01*
X46370338Y33146412D01*
X46419540Y33097210D01*
X46464099Y33097210D01*
X46500961Y33112479D01*
X46637790Y33084770D01*
X46837790Y33084770D01*
X46993297Y33114031D01*
X47137790Y33084770D01*
X47337790Y33084770D01*
X47477877Y33111129D01*
X47511481Y33097210D01*
X47556040Y33097210D01*
X47614538Y33155708D01*
X47739267Y33235969D01*
X47870338Y33146412D01*
X47919540Y33097210D01*
X47964099Y33097210D01*
X48000961Y33112479D01*
X48137790Y33084770D01*
X48337790Y33084770D01*
X48493297Y33114031D01*
X48637790Y33084770D01*
X48837790Y33084770D01*
X48977877Y33111129D01*
X49011481Y33097210D01*
X49056040Y33097210D01*
X49114538Y33155708D01*
X49239267Y33235969D01*
X49370338Y33146412D01*
X49419540Y33097210D01*
X49464099Y33097210D01*
X49500961Y33112479D01*
X49637790Y33084770D01*
X49837790Y33084770D01*
X49993297Y33114031D01*
X50137790Y33084770D01*
X50337790Y33084770D01*
X50477877Y33111129D01*
X50511481Y33097210D01*
X50556040Y33097210D01*
X50614538Y33155708D01*
X50739267Y33235969D01*
X50870338Y33146412D01*
X50919540Y33097210D01*
X50964099Y33097210D01*
X51000961Y33112479D01*
X51137790Y33084770D01*
X51337790Y33084770D01*
X51493297Y33114031D01*
X51637790Y33084770D01*
X51837790Y33084770D01*
X51977877Y33111129D01*
X52011481Y33097210D01*
X52056040Y33097210D01*
X52114538Y33155708D01*
X52239267Y33235969D01*
X52370338Y33146412D01*
X52419540Y33097210D01*
X52464099Y33097210D01*
X52500961Y33112479D01*
X52637790Y33084770D01*
X52837790Y33084770D01*
X52993297Y33114031D01*
X53137790Y33084770D01*
X53337790Y33084770D01*
X53477877Y33111129D01*
X53511481Y33097210D01*
X53556040Y33097210D01*
X53614538Y33155708D01*
X53739267Y33235969D01*
X53870338Y33146412D01*
X53919540Y33097210D01*
X53964099Y33097210D01*
X54000961Y33112479D01*
X54137790Y33084770D01*
X54337790Y33084770D01*
X54493297Y33114031D01*
X54637790Y33084770D01*
X54837790Y33084770D01*
X55073107Y33129048D01*
X55289231Y33268120D01*
X55434221Y33480320D01*
X55485230Y33732210D01*
X55485230Y34769067D01*
X55497790Y34832210D01*
X55497790Y36465188D01*
X55569962Y36537360D01*
X57795318Y36537360D01*
X57903840Y36428838D01*
X57903840Y16057722D01*
X53309678Y11463560D01*
X21142802Y11463560D01*
X18857362Y13749000D01*
X18857402Y13794487D01*
X18715357Y14138263D01*
X18452567Y14401512D01*
X18109039Y14544158D01*
X17922481Y14544321D01*
X17922620Y14704313D01*
X21239038Y14704313D01*
X21381083Y14360537D01*
X21643873Y14097288D01*
X21644265Y14097125D01*
X22717015Y13024375D01*
X23020351Y12821693D01*
X23043301Y12817128D01*
X23378160Y12750519D01*
X23378165Y12750520D01*
X41619624Y12750520D01*
X41805607Y12750358D01*
X42149383Y12892403D01*
X42412632Y13155193D01*
X42555278Y13498721D01*
X42555602Y13870687D01*
X42413557Y14214463D01*
X42150767Y14477712D01*
X41807239Y14620358D01*
X41435273Y14620682D01*
X41434881Y14620520D01*
X23765450Y14620520D01*
X22835636Y15550334D01*
X22704527Y15681672D01*
X22360999Y15824318D01*
X21989033Y15824642D01*
X21645257Y15682597D01*
X21382008Y15419807D01*
X21239362Y15076279D01*
X21239038Y14704313D01*
X17922620Y14704313D01*
X17922682Y14774927D01*
X17780637Y15118703D01*
X17517847Y15381952D01*
X17174319Y15524598D01*
X16802353Y15524922D01*
X16601791Y15442051D01*
X16601882Y15547087D01*
X16459837Y15890863D01*
X16197047Y16154112D01*
X15853519Y16296758D01*
X15481553Y16297082D01*
X15387070Y16258042D01*
X15301597Y16464903D01*
X15038807Y16728152D01*
X14695279Y16870798D01*
X14323313Y16871122D01*
X13979537Y16729077D01*
X13716288Y16466287D01*
X13573642Y16122759D01*
X13573318Y15750793D01*
X13715363Y15407017D01*
X13885640Y15236443D01*
X13885640Y13116560D01*
X13943492Y12825721D01*
X14108239Y12579159D01*
X19233959Y7453439D01*
X19480521Y7288692D01*
X19771360Y7230840D01*
X55229760Y7230840D01*
X55520599Y7288692D01*
X55767161Y7453439D01*
X62554041Y14240319D01*
X62718788Y14486881D01*
X62776640Y14777720D01*
X62776640Y35694341D01*
X68904453Y35694341D01*
X69243995Y34872588D01*
X69872161Y34243324D01*
X70693321Y33902349D01*
X71582459Y33901573D01*
X72404212Y34241115D01*
X73033476Y34869281D01*
X73374451Y35690441D01*
X73375227Y36579579D01*
X73035685Y37401332D01*
X72407519Y38030596D01*
X71586359Y38371571D01*
X70697221Y38372347D01*
X69875468Y38032805D01*
X69246204Y37404639D01*
X68905229Y36583479D01*
X68904453Y35694341D01*
X62776640Y35694341D01*
X62776640Y37124640D01*
X62718788Y37415479D01*
X62554041Y37662041D01*
X60789122Y39426960D01*
X74429840Y39426960D01*
X74429840Y846960D01*
X849840Y846960D01*
X849840Y5157320D01*
X1664097Y5157320D01*
X1664097Y1337320D01*
X32148384Y1337320D01*
X32148384Y3694341D01*
X35404453Y3694341D01*
X35743995Y2872588D01*
X36372161Y2243324D01*
X37193321Y1902349D01*
X38082459Y1901573D01*
X38904212Y2241115D01*
X39533476Y2869281D01*
X39874451Y3690441D01*
X39875227Y4579579D01*
X39535685Y5401332D01*
X38907519Y6030596D01*
X38086359Y6371571D01*
X37197221Y6372347D01*
X36375468Y6032805D01*
X35746204Y5404639D01*
X35405229Y4583479D01*
X35404453Y3694341D01*
X32148384Y3694341D01*
X32148384Y5157320D01*
X1664097Y5157320D01*
X849840Y5157320D01*
X849840Y18224753D01*
X17373158Y18224753D01*
X17515203Y17880977D01*
X17777993Y17617728D01*
X17899306Y17567354D01*
X18876328Y16590333D01*
X18876330Y16590330D01*
X19125370Y16423928D01*
X19163445Y16398487D01*
X19502120Y16331119D01*
X19502125Y16331120D01*
X24549618Y16331120D01*
X24669641Y16281282D01*
X25041607Y16280958D01*
X25385383Y16423003D01*
X25648632Y16685793D01*
X25791278Y17029321D01*
X25791602Y17401287D01*
X25649557Y17745063D01*
X25386767Y18008312D01*
X25043239Y18150958D01*
X24671273Y18151282D01*
X24549871Y18101120D01*
X19868699Y18101120D01*
X19151064Y18818756D01*
X19101437Y18938863D01*
X18838647Y19202112D01*
X18495119Y19344758D01*
X18123153Y19345082D01*
X17779377Y19203037D01*
X17516128Y18940247D01*
X17373482Y18596719D01*
X17373158Y18224753D01*
X849840Y18224753D01*
X849840Y35694341D01*
X1904453Y35694341D01*
X2243995Y34872588D01*
X2872161Y34243324D01*
X3693321Y33902349D01*
X4582459Y33901573D01*
X5404212Y34241115D01*
X6033476Y34869281D01*
X6374451Y35690441D01*
X6375227Y36579579D01*
X6035685Y37401332D01*
X5407519Y38030596D01*
X4586359Y38371571D01*
X3697221Y38372347D01*
X2875468Y38032805D01*
X2246204Y37404639D01*
X1905229Y36583479D01*
X1904453Y35694341D01*
X849840Y35694341D01*
X849840Y39426960D01*
X16909478Y39426960D01*
X13422439Y35939921D01*
M02*
