%FSLAX45Y45*%
G04 Gerber Fmt 4.5, Leading zero omitted, Abs format (unit mm)*
G04 Created by KiCad (PCBNEW 4.0.7-e2-6376~60~ubuntu17.10.1) date Wed Mar 21 11:42:36 2018*
%MOMM*%
%LPD*%
G01*
G04 APERTURE LIST*
%ADD10C,0.127000*%
%ADD11C,0.150000*%
%ADD12C,0.200000*%
%ADD13C,0.300000*%
G04 APERTURE END LIST*
D10*
D11*
X7513984Y4013696D02*
X13984Y4013696D01*
X7513984Y13696D02*
X7513984Y4013696D01*
X13984Y13696D02*
X7513984Y13696D01*
X13984Y4013696D02*
X13984Y13696D01*
D12*
X253984Y3773696D02*
X573984Y3453696D01*
X573984Y3773696D02*
X253984Y3453696D01*
X3603984Y573696D02*
X3923984Y253696D01*
X3923984Y573696D02*
X3603984Y253696D01*
X6953984Y3773696D02*
X7273984Y3453696D01*
X7273984Y3773696D02*
X6953984Y3453696D01*
D13*
X277913Y-459518D02*
X277913Y-159518D01*
X349341Y-159518D01*
X392198Y-173804D01*
X420770Y-202375D01*
X435055Y-230947D01*
X449341Y-288090D01*
X449341Y-330947D01*
X435055Y-388090D01*
X420770Y-416661D01*
X392198Y-445233D01*
X349341Y-459518D01*
X277913Y-459518D01*
X577913Y-459518D02*
X577913Y-259518D01*
X577913Y-316661D02*
X592198Y-288090D01*
X606484Y-273804D01*
X635055Y-259518D01*
X663627Y-259518D01*
X763627Y-459518D02*
X763627Y-259518D01*
X763627Y-159518D02*
X749341Y-173804D01*
X763627Y-188090D01*
X777912Y-173804D01*
X763627Y-159518D01*
X763627Y-188090D01*
X949341Y-459518D02*
X920770Y-445233D01*
X906484Y-416661D01*
X906484Y-159518D01*
X1106484Y-459518D02*
X1077913Y-445233D01*
X1063627Y-416661D01*
X1063627Y-159518D01*
X1449341Y-459518D02*
X1449341Y-159518D01*
X1549341Y-373804D01*
X1649341Y-159518D01*
X1649341Y-459518D01*
X1920770Y-459518D02*
X1920770Y-302376D01*
X1906484Y-273804D01*
X1877912Y-259518D01*
X1820770Y-259518D01*
X1792198Y-273804D01*
X1920770Y-445233D02*
X1892198Y-459518D01*
X1820770Y-459518D01*
X1792198Y-445233D01*
X1777912Y-416661D01*
X1777912Y-388090D01*
X1792198Y-359518D01*
X1820770Y-345233D01*
X1892198Y-345233D01*
X1920770Y-330947D01*
X2063627Y-259518D02*
X2063627Y-559518D01*
X2063627Y-273804D02*
X2092198Y-259518D01*
X2149341Y-259518D01*
X2177913Y-273804D01*
X2192198Y-288090D01*
X2206484Y-316661D01*
X2206484Y-402375D01*
X2192198Y-430947D01*
X2177913Y-445233D01*
X2149341Y-459518D01*
X2092198Y-459518D01*
X2063627Y-445233D01*
X2335055Y-430947D02*
X2349341Y-445233D01*
X2335055Y-459518D01*
X2320770Y-445233D01*
X2335055Y-430947D01*
X2335055Y-459518D01*
X2335055Y-273804D02*
X2349341Y-288090D01*
X2335055Y-302376D01*
X2320770Y-288090D01*
X2335055Y-273804D01*
X2335055Y-302376D01*
X-313516Y-793804D02*
X6484Y-1113804D01*
X6484Y-793804D02*
X-313516Y-1113804D01*
X249341Y-789518D02*
X435055Y-789518D01*
X335055Y-903804D01*
X377912Y-903804D01*
X406484Y-918090D01*
X420770Y-932375D01*
X435055Y-960947D01*
X435055Y-1032375D01*
X420770Y-1060947D01*
X406484Y-1075233D01*
X377912Y-1089518D01*
X292198Y-1089518D01*
X263627Y-1075233D01*
X249341Y-1060947D01*
X563627Y-1060947D02*
X577913Y-1075233D01*
X563627Y-1089518D01*
X549341Y-1075233D01*
X563627Y-1060947D01*
X563627Y-1089518D01*
X692198Y-818090D02*
X706484Y-803804D01*
X735055Y-789518D01*
X806484Y-789518D01*
X835055Y-803804D01*
X849341Y-818090D01*
X863627Y-846661D01*
X863627Y-875233D01*
X849341Y-918090D01*
X677912Y-1089518D01*
X863627Y-1089518D01*
X1049341Y-789518D02*
X1077913Y-789518D01*
X1106484Y-803804D01*
X1120770Y-818090D01*
X1135055Y-846661D01*
X1149341Y-903804D01*
X1149341Y-975233D01*
X1135055Y-1032375D01*
X1120770Y-1060947D01*
X1106484Y-1075233D01*
X1077913Y-1089518D01*
X1049341Y-1089518D01*
X1020770Y-1075233D01*
X1006484Y-1060947D01*
X992198Y-1032375D01*
X977912Y-975233D01*
X977912Y-903804D01*
X992198Y-846661D01*
X1006484Y-818090D01*
X1020770Y-803804D01*
X1049341Y-789518D01*
X1277913Y-1089518D02*
X1277913Y-889518D01*
X1277913Y-918090D02*
X1292198Y-903804D01*
X1320770Y-889518D01*
X1363627Y-889518D01*
X1392198Y-903804D01*
X1406484Y-932375D01*
X1406484Y-1089518D01*
X1406484Y-932375D02*
X1420770Y-903804D01*
X1449341Y-889518D01*
X1492198Y-889518D01*
X1520770Y-903804D01*
X1535055Y-932375D01*
X1535055Y-1089518D01*
X1677912Y-1089518D02*
X1677912Y-889518D01*
X1677912Y-918090D02*
X1692198Y-903804D01*
X1720770Y-889518D01*
X1763627Y-889518D01*
X1792198Y-903804D01*
X1806484Y-932375D01*
X1806484Y-1089518D01*
X1806484Y-932375D02*
X1820770Y-903804D01*
X1849341Y-889518D01*
X1892198Y-889518D01*
X1920770Y-903804D01*
X1935055Y-932375D01*
X1935055Y-1089518D01*
X2520770Y-775233D02*
X2263627Y-1160947D01*
X2906484Y-789518D02*
X2935055Y-789518D01*
X2963627Y-803804D01*
X2977912Y-818090D01*
X2992198Y-846661D01*
X3006484Y-903804D01*
X3006484Y-975233D01*
X2992198Y-1032375D01*
X2977912Y-1060947D01*
X2963627Y-1075233D01*
X2935055Y-1089518D01*
X2906484Y-1089518D01*
X2877912Y-1075233D01*
X2863627Y-1060947D01*
X2849341Y-1032375D01*
X2835055Y-975233D01*
X2835055Y-903804D01*
X2849341Y-846661D01*
X2863627Y-818090D01*
X2877912Y-803804D01*
X2906484Y-789518D01*
X3135055Y-1060947D02*
X3149341Y-1075233D01*
X3135055Y-1089518D01*
X3120770Y-1075233D01*
X3135055Y-1060947D01*
X3135055Y-1089518D01*
X3435055Y-1089518D02*
X3263627Y-1089518D01*
X3349341Y-1089518D02*
X3349341Y-789518D01*
X3320769Y-832375D01*
X3292198Y-860947D01*
X3263627Y-875233D01*
X3549341Y-818090D02*
X3563627Y-803804D01*
X3592198Y-789518D01*
X3663627Y-789518D01*
X3692198Y-803804D01*
X3706484Y-818090D01*
X3720769Y-846661D01*
X3720769Y-875233D01*
X3706484Y-918090D01*
X3535055Y-1089518D01*
X3720769Y-1089518D01*
X3977912Y-789518D02*
X3920769Y-789518D01*
X3892198Y-803804D01*
X3877912Y-818090D01*
X3849341Y-860947D01*
X3835055Y-918090D01*
X3835055Y-1032375D01*
X3849341Y-1060947D01*
X3863627Y-1075233D01*
X3892198Y-1089518D01*
X3949341Y-1089518D01*
X3977912Y-1075233D01*
X3992198Y-1060947D01*
X4006484Y-1032375D01*
X4006484Y-960947D01*
X3992198Y-932375D01*
X3977912Y-918090D01*
X3949341Y-903804D01*
X3892198Y-903804D01*
X3863627Y-918090D01*
X3849341Y-932375D01*
X3835055Y-960947D01*
X4120770Y-789518D02*
X4120770Y-846661D01*
X4235055Y-789518D02*
X4235055Y-846661D01*
X4677912Y-1203804D02*
X4663627Y-1189518D01*
X4635055Y-1146661D01*
X4620770Y-1118090D01*
X4606484Y-1075233D01*
X4592198Y-1003804D01*
X4592198Y-946661D01*
X4606484Y-875233D01*
X4620770Y-832375D01*
X4635055Y-803804D01*
X4663627Y-760947D01*
X4677912Y-746661D01*
X4763627Y-789518D02*
X4949341Y-789518D01*
X4849341Y-903804D01*
X4892198Y-903804D01*
X4920770Y-918090D01*
X4935055Y-932375D01*
X4949341Y-960947D01*
X4949341Y-1032375D01*
X4935055Y-1060947D01*
X4920770Y-1075233D01*
X4892198Y-1089518D01*
X4806484Y-1089518D01*
X4777912Y-1075233D01*
X4763627Y-1060947D01*
X5306484Y-1089518D02*
X5306484Y-789518D01*
X5435055Y-1089518D02*
X5435055Y-932375D01*
X5420770Y-903804D01*
X5392198Y-889518D01*
X5349341Y-889518D01*
X5320770Y-903804D01*
X5306484Y-918090D01*
X5620769Y-1089518D02*
X5592198Y-1075233D01*
X5577912Y-1060947D01*
X5563627Y-1032375D01*
X5563627Y-946661D01*
X5577912Y-918090D01*
X5592198Y-903804D01*
X5620769Y-889518D01*
X5663627Y-889518D01*
X5692198Y-903804D01*
X5706484Y-918090D01*
X5720769Y-946661D01*
X5720769Y-1032375D01*
X5706484Y-1060947D01*
X5692198Y-1075233D01*
X5663627Y-1089518D01*
X5620769Y-1089518D01*
X5892198Y-1089518D02*
X5863627Y-1075233D01*
X5849341Y-1046661D01*
X5849341Y-789518D01*
X6120770Y-1075233D02*
X6092198Y-1089518D01*
X6035055Y-1089518D01*
X6006484Y-1075233D01*
X5992198Y-1046661D01*
X5992198Y-932375D01*
X6006484Y-903804D01*
X6035055Y-889518D01*
X6092198Y-889518D01*
X6120770Y-903804D01*
X6135055Y-932375D01*
X6135055Y-960947D01*
X5992198Y-989518D01*
X6249341Y-1075233D02*
X6277912Y-1089518D01*
X6335055Y-1089518D01*
X6363627Y-1075233D01*
X6377912Y-1046661D01*
X6377912Y-1032375D01*
X6363627Y-1003804D01*
X6335055Y-989518D01*
X6292198Y-989518D01*
X6263627Y-975233D01*
X6249341Y-946661D01*
X6249341Y-932375D01*
X6263627Y-903804D01*
X6292198Y-889518D01*
X6335055Y-889518D01*
X6363627Y-903804D01*
X6477912Y-1203804D02*
X6492198Y-1189518D01*
X6520770Y-1146661D01*
X6535055Y-1118090D01*
X6549341Y-1075233D01*
X6563627Y-1003804D01*
X6563627Y-946661D01*
X6549341Y-875233D01*
X6535055Y-832375D01*
X6520770Y-803804D01*
X6492198Y-760947D01*
X6477912Y-746661D01*
X7020770Y-1203804D02*
X7006484Y-1189518D01*
X6977912Y-1146661D01*
X6963627Y-1118090D01*
X6949341Y-1075233D01*
X6935055Y-1003804D01*
X6935055Y-946661D01*
X6949341Y-875233D01*
X6963627Y-832375D01*
X6977912Y-803804D01*
X7006484Y-760947D01*
X7020770Y-746661D01*
X7135055Y-889518D02*
X7135055Y-1089518D01*
X7135055Y-918090D02*
X7149341Y-903804D01*
X7177912Y-889518D01*
X7220770Y-889518D01*
X7249341Y-903804D01*
X7263627Y-932375D01*
X7263627Y-1089518D01*
X7449341Y-1089518D02*
X7420770Y-1075233D01*
X7406484Y-1060947D01*
X7392198Y-1032375D01*
X7392198Y-946661D01*
X7406484Y-918090D01*
X7420770Y-903804D01*
X7449341Y-889518D01*
X7492198Y-889518D01*
X7520770Y-903804D01*
X7535055Y-918090D01*
X7549341Y-946661D01*
X7549341Y-1032375D01*
X7535055Y-1060947D01*
X7520770Y-1075233D01*
X7492198Y-1089518D01*
X7449341Y-1089518D01*
X7635055Y-889518D02*
X7749341Y-889518D01*
X7677912Y-789518D02*
X7677912Y-1046661D01*
X7692198Y-1075233D01*
X7720770Y-1089518D01*
X7749341Y-1089518D01*
X8077912Y-889518D02*
X8077912Y-1189518D01*
X8077912Y-903804D02*
X8106484Y-889518D01*
X8163627Y-889518D01*
X8192198Y-903804D01*
X8206484Y-918090D01*
X8220770Y-946661D01*
X8220770Y-1032375D01*
X8206484Y-1060947D01*
X8192198Y-1075233D01*
X8163627Y-1089518D01*
X8106484Y-1089518D01*
X8077912Y-1075233D01*
X8392198Y-1089518D02*
X8363627Y-1075233D01*
X8349341Y-1046661D01*
X8349341Y-789518D01*
X8635055Y-1089518D02*
X8635055Y-932375D01*
X8620770Y-903804D01*
X8592198Y-889518D01*
X8535055Y-889518D01*
X8506484Y-903804D01*
X8635055Y-1075233D02*
X8606484Y-1089518D01*
X8535055Y-1089518D01*
X8506484Y-1075233D01*
X8492198Y-1046661D01*
X8492198Y-1018090D01*
X8506484Y-989518D01*
X8535055Y-975233D01*
X8606484Y-975233D01*
X8635055Y-960947D01*
X8735055Y-889518D02*
X8849341Y-889518D01*
X8777913Y-789518D02*
X8777913Y-1046661D01*
X8792198Y-1075233D01*
X8820770Y-1089518D01*
X8849341Y-1089518D01*
X9063627Y-1075233D02*
X9035056Y-1089518D01*
X8977913Y-1089518D01*
X8949341Y-1075233D01*
X8935056Y-1046661D01*
X8935056Y-932375D01*
X8949341Y-903804D01*
X8977913Y-889518D01*
X9035056Y-889518D01*
X9063627Y-903804D01*
X9077913Y-932375D01*
X9077913Y-960947D01*
X8935056Y-989518D01*
X9335056Y-1089518D02*
X9335056Y-789518D01*
X9335056Y-1075233D02*
X9306484Y-1089518D01*
X9249341Y-1089518D01*
X9220770Y-1075233D01*
X9206484Y-1060947D01*
X9192198Y-1032375D01*
X9192198Y-946661D01*
X9206484Y-918090D01*
X9220770Y-903804D01*
X9249341Y-889518D01*
X9306484Y-889518D01*
X9335056Y-903804D01*
X9449341Y-1203804D02*
X9463627Y-1189518D01*
X9492198Y-1146661D01*
X9506484Y-1118090D01*
X9520770Y-1075233D01*
X9535056Y-1003804D01*
X9535056Y-946661D01*
X9520770Y-875233D01*
X9506484Y-832375D01*
X9492198Y-803804D01*
X9463627Y-760947D01*
X9449341Y-746661D01*
M02*
