%FSLAX45Y45*%
G04 Gerber Fmt 4.5, Leading zero omitted, Abs format (unit mm)*
G04 Created by KiCad (PCBNEW 4.0.7-e2-6376~60~ubuntu17.10.1) date Wed Mar 21 11:42:36 2018*
%MOMM*%
%LPD*%
G01*
G04 APERTURE LIST*
%ADD10C,0.127000*%
%ADD11C,0.150000*%
%ADD12C,0.200000*%
%ADD13C,0.300000*%
G04 APERTURE END LIST*
D10*
D11*
X7513984Y4013696D02*
X13984Y4013696D01*
X7513984Y13696D02*
X7513984Y4013696D01*
X13984Y13696D02*
X7513984Y13696D01*
X13984Y4013696D02*
X13984Y13696D01*
D12*
X975680Y1088832D02*
X1015680Y1048832D01*
X1015680Y1088832D02*
X975680Y1048832D01*
X1328740Y2107880D02*
X1368740Y2067880D01*
X1368740Y2107880D02*
X1328740Y2067880D01*
X1430848Y1613596D02*
X1470848Y1573596D01*
X1470848Y1613596D02*
X1430848Y1573596D01*
X1459804Y2200336D02*
X1499804Y2160336D01*
X1499804Y2200336D02*
X1459804Y2160336D01*
X1546672Y1556192D02*
X1586672Y1516192D01*
X1586672Y1556192D02*
X1546672Y1516192D01*
X1677736Y2274504D02*
X1717736Y2234504D01*
X1717736Y2274504D02*
X1677736Y2234504D01*
X1678752Y1478976D02*
X1718752Y1438976D01*
X1718752Y1478976D02*
X1678752Y1438976D01*
X1772224Y1380932D02*
X1812224Y1340932D01*
X1812224Y1380932D02*
X1772224Y1340932D01*
X1810832Y1860992D02*
X1850832Y1820992D01*
X1850832Y1860992D02*
X1810832Y1820992D01*
X1852488Y1545016D02*
X1892488Y1505016D01*
X1892488Y1545016D02*
X1852488Y1505016D01*
X2096328Y2501072D02*
X2136328Y2461072D01*
X2136328Y2501072D02*
X2096328Y2461072D01*
X2131888Y2072320D02*
X2171888Y2032320D01*
X2171888Y2072320D02*
X2131888Y2032320D01*
X2197420Y1508948D02*
X2237420Y1468948D01*
X2237420Y1508948D02*
X2197420Y1468948D01*
X2249744Y3760912D02*
X2289744Y3720912D01*
X2289744Y3760912D02*
X2249744Y3720912D01*
X2351344Y2629596D02*
X2391344Y2589596D01*
X2391344Y2629596D02*
X2351344Y2589596D01*
X2367600Y2070288D02*
X2407600Y2030288D01*
X2407600Y2070288D02*
X2367600Y2030288D01*
X2370648Y2417252D02*
X2410648Y2377252D01*
X2410648Y2417252D02*
X2370648Y2377252D01*
X2465644Y1741612D02*
X2505644Y1701612D01*
X2505644Y1741612D02*
X2465644Y1701612D01*
X2558608Y3801044D02*
X2598608Y3761044D01*
X2598608Y3801044D02*
X2558608Y3761044D01*
X2602804Y2447732D02*
X2642804Y2407732D01*
X2642804Y2447732D02*
X2602804Y2407732D01*
X2714056Y3840160D02*
X2754056Y3800160D01*
X2754056Y3840160D02*
X2714056Y3800160D01*
X2800924Y2647376D02*
X2840924Y2607376D01*
X2840924Y2647376D02*
X2800924Y2607376D01*
X2864932Y3937696D02*
X2904932Y3897696D01*
X2904932Y3937696D02*
X2864932Y3897696D01*
X2897952Y3834064D02*
X2937952Y3794064D01*
X2937952Y3834064D02*
X2897952Y3794064D01*
X3032572Y3844732D02*
X3072572Y3804732D01*
X3072572Y3844732D02*
X3032572Y3804732D01*
X3101152Y3898072D02*
X3141152Y3858072D01*
X3141152Y3898072D02*
X3101152Y3858072D01*
X3307908Y2257232D02*
X3347908Y2217232D01*
X3347908Y2257232D02*
X3307908Y2217232D01*
X3387664Y2062160D02*
X3427664Y2022160D01*
X3427664Y2062160D02*
X3387664Y2022160D01*
X4142044Y1388552D02*
X4182044Y1348552D01*
X4182044Y1388552D02*
X4142044Y1348552D01*
X5064064Y3878260D02*
X5104064Y3838260D01*
X5104064Y3878260D02*
X5064064Y3838260D01*
X5171760Y3943792D02*
X5211760Y3903792D01*
X5211760Y3943792D02*
X5171760Y3903792D01*
D13*
X277913Y-459518D02*
X277913Y-159518D01*
X349341Y-159518D01*
X392198Y-173804D01*
X420770Y-202375D01*
X435055Y-230947D01*
X449341Y-288090D01*
X449341Y-330947D01*
X435055Y-388090D01*
X420770Y-416661D01*
X392198Y-445233D01*
X349341Y-459518D01*
X277913Y-459518D01*
X577913Y-459518D02*
X577913Y-259518D01*
X577913Y-316661D02*
X592198Y-288090D01*
X606484Y-273804D01*
X635055Y-259518D01*
X663627Y-259518D01*
X763627Y-459518D02*
X763627Y-259518D01*
X763627Y-159518D02*
X749341Y-173804D01*
X763627Y-188090D01*
X777912Y-173804D01*
X763627Y-159518D01*
X763627Y-188090D01*
X949341Y-459518D02*
X920770Y-445233D01*
X906484Y-416661D01*
X906484Y-159518D01*
X1106484Y-459518D02*
X1077913Y-445233D01*
X1063627Y-416661D01*
X1063627Y-159518D01*
X1449341Y-459518D02*
X1449341Y-159518D01*
X1549341Y-373804D01*
X1649341Y-159518D01*
X1649341Y-459518D01*
X1920770Y-459518D02*
X1920770Y-302376D01*
X1906484Y-273804D01*
X1877912Y-259518D01*
X1820770Y-259518D01*
X1792198Y-273804D01*
X1920770Y-445233D02*
X1892198Y-459518D01*
X1820770Y-459518D01*
X1792198Y-445233D01*
X1777912Y-416661D01*
X1777912Y-388090D01*
X1792198Y-359518D01*
X1820770Y-345233D01*
X1892198Y-345233D01*
X1920770Y-330947D01*
X2063627Y-259518D02*
X2063627Y-559518D01*
X2063627Y-273804D02*
X2092198Y-259518D01*
X2149341Y-259518D01*
X2177913Y-273804D01*
X2192198Y-288090D01*
X2206484Y-316661D01*
X2206484Y-402375D01*
X2192198Y-430947D01*
X2177913Y-445233D01*
X2149341Y-459518D01*
X2092198Y-459518D01*
X2063627Y-445233D01*
X2335055Y-430947D02*
X2349341Y-445233D01*
X2335055Y-459518D01*
X2320770Y-445233D01*
X2335055Y-430947D01*
X2335055Y-459518D01*
X2335055Y-273804D02*
X2349341Y-288090D01*
X2335055Y-302376D01*
X2320770Y-288090D01*
X2335055Y-273804D01*
X2335055Y-302376D01*
X-33516Y-933804D02*
X6484Y-973804D01*
X6484Y-933804D02*
X-33516Y-973804D01*
X335055Y-789518D02*
X363627Y-789518D01*
X392198Y-803804D01*
X406484Y-818090D01*
X420770Y-846661D01*
X435055Y-903804D01*
X435055Y-975233D01*
X420770Y-1032375D01*
X406484Y-1060947D01*
X392198Y-1075233D01*
X363627Y-1089518D01*
X335055Y-1089518D01*
X306484Y-1075233D01*
X292198Y-1060947D01*
X277913Y-1032375D01*
X263627Y-975233D01*
X263627Y-903804D01*
X277913Y-846661D01*
X292198Y-818090D01*
X306484Y-803804D01*
X335055Y-789518D01*
X563627Y-1060947D02*
X577913Y-1075233D01*
X563627Y-1089518D01*
X549341Y-1075233D01*
X563627Y-1060947D01*
X563627Y-1089518D01*
X835055Y-889518D02*
X835055Y-1089518D01*
X763627Y-775233D02*
X692198Y-989518D01*
X877912Y-989518D01*
X1049341Y-789518D02*
X1077913Y-789518D01*
X1106484Y-803804D01*
X1120770Y-818090D01*
X1135055Y-846661D01*
X1149341Y-903804D01*
X1149341Y-975233D01*
X1135055Y-1032375D01*
X1120770Y-1060947D01*
X1106484Y-1075233D01*
X1077913Y-1089518D01*
X1049341Y-1089518D01*
X1020770Y-1075233D01*
X1006484Y-1060947D01*
X992198Y-1032375D01*
X977912Y-975233D01*
X977912Y-903804D01*
X992198Y-846661D01*
X1006484Y-818090D01*
X1020770Y-803804D01*
X1049341Y-789518D01*
X1277913Y-1089518D02*
X1277913Y-889518D01*
X1277913Y-918090D02*
X1292198Y-903804D01*
X1320770Y-889518D01*
X1363627Y-889518D01*
X1392198Y-903804D01*
X1406484Y-932375D01*
X1406484Y-1089518D01*
X1406484Y-932375D02*
X1420770Y-903804D01*
X1449341Y-889518D01*
X1492198Y-889518D01*
X1520770Y-903804D01*
X1535055Y-932375D01*
X1535055Y-1089518D01*
X1677912Y-1089518D02*
X1677912Y-889518D01*
X1677912Y-918090D02*
X1692198Y-903804D01*
X1720770Y-889518D01*
X1763627Y-889518D01*
X1792198Y-903804D01*
X1806484Y-932375D01*
X1806484Y-1089518D01*
X1806484Y-932375D02*
X1820770Y-903804D01*
X1849341Y-889518D01*
X1892198Y-889518D01*
X1920770Y-903804D01*
X1935055Y-932375D01*
X1935055Y-1089518D01*
X2520770Y-775233D02*
X2263627Y-1160947D01*
X2906484Y-789518D02*
X2935055Y-789518D01*
X2963627Y-803804D01*
X2977912Y-818090D01*
X2992198Y-846661D01*
X3006484Y-903804D01*
X3006484Y-975233D01*
X2992198Y-1032375D01*
X2977912Y-1060947D01*
X2963627Y-1075233D01*
X2935055Y-1089518D01*
X2906484Y-1089518D01*
X2877912Y-1075233D01*
X2863627Y-1060947D01*
X2849341Y-1032375D01*
X2835055Y-975233D01*
X2835055Y-903804D01*
X2849341Y-846661D01*
X2863627Y-818090D01*
X2877912Y-803804D01*
X2906484Y-789518D01*
X3135055Y-1060947D02*
X3149341Y-1075233D01*
X3135055Y-1089518D01*
X3120770Y-1075233D01*
X3135055Y-1060947D01*
X3135055Y-1089518D01*
X3335055Y-789518D02*
X3363627Y-789518D01*
X3392198Y-803804D01*
X3406484Y-818090D01*
X3420769Y-846661D01*
X3435055Y-903804D01*
X3435055Y-975233D01*
X3420769Y-1032375D01*
X3406484Y-1060947D01*
X3392198Y-1075233D01*
X3363627Y-1089518D01*
X3335055Y-1089518D01*
X3306484Y-1075233D01*
X3292198Y-1060947D01*
X3277912Y-1032375D01*
X3263627Y-975233D01*
X3263627Y-903804D01*
X3277912Y-846661D01*
X3292198Y-818090D01*
X3306484Y-803804D01*
X3335055Y-789518D01*
X3720769Y-1089518D02*
X3549341Y-1089518D01*
X3635055Y-1089518D02*
X3635055Y-789518D01*
X3606484Y-832375D01*
X3577912Y-860947D01*
X3549341Y-875233D01*
X3977912Y-789518D02*
X3920769Y-789518D01*
X3892198Y-803804D01*
X3877912Y-818090D01*
X3849341Y-860947D01*
X3835055Y-918090D01*
X3835055Y-1032375D01*
X3849341Y-1060947D01*
X3863627Y-1075233D01*
X3892198Y-1089518D01*
X3949341Y-1089518D01*
X3977912Y-1075233D01*
X3992198Y-1060947D01*
X4006484Y-1032375D01*
X4006484Y-960947D01*
X3992198Y-932375D01*
X3977912Y-918090D01*
X3949341Y-903804D01*
X3892198Y-903804D01*
X3863627Y-918090D01*
X3849341Y-932375D01*
X3835055Y-960947D01*
X4120770Y-789518D02*
X4120770Y-846661D01*
X4235055Y-789518D02*
X4235055Y-846661D01*
X4677912Y-1203804D02*
X4663627Y-1189518D01*
X4635055Y-1146661D01*
X4620770Y-1118090D01*
X4606484Y-1075233D01*
X4592198Y-1003804D01*
X4592198Y-946661D01*
X4606484Y-875233D01*
X4620770Y-832375D01*
X4635055Y-803804D01*
X4663627Y-760947D01*
X4677912Y-746661D01*
X4763627Y-789518D02*
X4949341Y-789518D01*
X4849341Y-903804D01*
X4892198Y-903804D01*
X4920770Y-918090D01*
X4935055Y-932375D01*
X4949341Y-960947D01*
X4949341Y-1032375D01*
X4935055Y-1060947D01*
X4920770Y-1075233D01*
X4892198Y-1089518D01*
X4806484Y-1089518D01*
X4777912Y-1075233D01*
X4763627Y-1060947D01*
X5235055Y-1089518D02*
X5063627Y-1089518D01*
X5149341Y-1089518D02*
X5149341Y-789518D01*
X5120770Y-832375D01*
X5092198Y-860947D01*
X5063627Y-875233D01*
X5592198Y-1089518D02*
X5592198Y-789518D01*
X5720769Y-1089518D02*
X5720769Y-932375D01*
X5706484Y-903804D01*
X5677912Y-889518D01*
X5635055Y-889518D01*
X5606484Y-903804D01*
X5592198Y-918090D01*
X5906484Y-1089518D02*
X5877912Y-1075233D01*
X5863627Y-1060947D01*
X5849341Y-1032375D01*
X5849341Y-946661D01*
X5863627Y-918090D01*
X5877912Y-903804D01*
X5906484Y-889518D01*
X5949341Y-889518D01*
X5977912Y-903804D01*
X5992198Y-918090D01*
X6006484Y-946661D01*
X6006484Y-1032375D01*
X5992198Y-1060947D01*
X5977912Y-1075233D01*
X5949341Y-1089518D01*
X5906484Y-1089518D01*
X6177912Y-1089518D02*
X6149341Y-1075233D01*
X6135055Y-1046661D01*
X6135055Y-789518D01*
X6406484Y-1075233D02*
X6377912Y-1089518D01*
X6320770Y-1089518D01*
X6292198Y-1075233D01*
X6277912Y-1046661D01*
X6277912Y-932375D01*
X6292198Y-903804D01*
X6320770Y-889518D01*
X6377912Y-889518D01*
X6406484Y-903804D01*
X6420770Y-932375D01*
X6420770Y-960947D01*
X6277912Y-989518D01*
X6535055Y-1075233D02*
X6563627Y-1089518D01*
X6620770Y-1089518D01*
X6649341Y-1075233D01*
X6663627Y-1046661D01*
X6663627Y-1032375D01*
X6649341Y-1003804D01*
X6620770Y-989518D01*
X6577912Y-989518D01*
X6549341Y-975233D01*
X6535055Y-946661D01*
X6535055Y-932375D01*
X6549341Y-903804D01*
X6577912Y-889518D01*
X6620770Y-889518D01*
X6649341Y-903804D01*
X6763627Y-1203804D02*
X6777912Y-1189518D01*
X6806484Y-1146661D01*
X6820770Y-1118090D01*
X6835055Y-1075233D01*
X6849341Y-1003804D01*
X6849341Y-946661D01*
X6835055Y-875233D01*
X6820770Y-832375D01*
X6806484Y-803804D01*
X6777912Y-760947D01*
X6763627Y-746661D01*
M02*
