M48
METRIC,TZ
T1C0.400
%
G90
G05
T1
X9957Y10688
X13487Y20879
X14508Y15936
X14798Y21803
X15667Y15362
X16977Y22545
X16988Y14590
X17922Y13609
X18308Y18410
X18725Y15250
X21163Y24811
X21519Y20523
X22174Y14889
X22697Y37409
X23713Y26096
X23876Y20503
X23906Y23973
X24856Y17216
X25786Y37810
X26228Y24277
X27341Y38202
X28209Y26274
X28849Y39177
X29180Y38141
X30526Y38247
X31212Y38781
X33279Y22372
X34077Y20422
X41620Y13686
X50841Y38583
X51918Y39238
T0
M30
