%FSLAX45Y45*%
G04 Gerber Fmt 4.5, Leading zero omitted, Abs format (unit mm)*
G04 Created by KiCad (PCBNEW 4.0.7-e2-6376~60~ubuntu17.10.1) date Tue Apr 10 15:25:30 2018*
%MOMM*%
%LPD*%
G01*
G04 APERTURE LIST*
%ADD10C,0.127000*%
%ADD11C,0.150000*%
%ADD12C,0.200000*%
%ADD13C,0.300000*%
G04 APERTURE END LIST*
D10*
D11*
X8998106Y5998706D02*
X1498106Y5998706D01*
X8998106Y1998706D02*
X8998106Y5998706D01*
X1498106Y1998706D02*
X8998106Y1998706D01*
X1498106Y5998706D02*
X1498106Y1998706D01*
D12*
X838106Y6658706D02*
X1158106Y6338706D01*
X1158106Y6658706D02*
X838106Y6338706D01*
X1738106Y5758706D02*
X2058106Y5438706D01*
X2058106Y5758706D02*
X1738106Y5438706D01*
X4838106Y1158706D02*
X5158106Y838706D01*
X5158106Y1158706D02*
X4838106Y838706D01*
X5088106Y2558706D02*
X5408106Y2238706D01*
X5408106Y2558706D02*
X5088106Y2238706D01*
X8438106Y5758706D02*
X8758106Y5438706D01*
X8758106Y5758706D02*
X8438106Y5438706D01*
X8838106Y6658706D02*
X9158106Y6338706D01*
X9158106Y6658706D02*
X8838106Y6338706D01*
D13*
X1762034Y1525492D02*
X1762034Y1825492D01*
X1833463Y1825492D01*
X1876320Y1811206D01*
X1904892Y1782634D01*
X1919177Y1754063D01*
X1933463Y1696920D01*
X1933463Y1654063D01*
X1919177Y1596920D01*
X1904892Y1568349D01*
X1876320Y1539777D01*
X1833463Y1525492D01*
X1762034Y1525492D01*
X2062034Y1525492D02*
X2062034Y1725492D01*
X2062034Y1668349D02*
X2076320Y1696920D01*
X2090606Y1711206D01*
X2119177Y1725492D01*
X2147749Y1725492D01*
X2247749Y1525492D02*
X2247749Y1725492D01*
X2247749Y1825492D02*
X2233463Y1811206D01*
X2247749Y1796920D01*
X2262035Y1811206D01*
X2247749Y1825492D01*
X2247749Y1796920D01*
X2433463Y1525492D02*
X2404892Y1539777D01*
X2390606Y1568349D01*
X2390606Y1825492D01*
X2590606Y1525492D02*
X2562035Y1539777D01*
X2547749Y1568349D01*
X2547749Y1825492D01*
X2933463Y1525492D02*
X2933463Y1825492D01*
X3033463Y1611206D01*
X3133463Y1825492D01*
X3133463Y1525492D01*
X3404892Y1525492D02*
X3404892Y1682634D01*
X3390606Y1711206D01*
X3362034Y1725492D01*
X3304892Y1725492D01*
X3276320Y1711206D01*
X3404892Y1539777D02*
X3376320Y1525492D01*
X3304892Y1525492D01*
X3276320Y1539777D01*
X3262034Y1568349D01*
X3262034Y1596920D01*
X3276320Y1625492D01*
X3304892Y1639777D01*
X3376320Y1639777D01*
X3404892Y1654063D01*
X3547749Y1725492D02*
X3547749Y1425492D01*
X3547749Y1711206D02*
X3576320Y1725492D01*
X3633463Y1725492D01*
X3662034Y1711206D01*
X3676320Y1696920D01*
X3690606Y1668349D01*
X3690606Y1582634D01*
X3676320Y1554063D01*
X3662034Y1539777D01*
X3633463Y1525492D01*
X3576320Y1525492D01*
X3547749Y1539777D01*
X3819177Y1554063D02*
X3833463Y1539777D01*
X3819177Y1525492D01*
X3804892Y1539777D01*
X3819177Y1554063D01*
X3819177Y1525492D01*
X3819177Y1711206D02*
X3833463Y1696920D01*
X3819177Y1682634D01*
X3804892Y1696920D01*
X3819177Y1711206D01*
X3819177Y1682634D01*
X1170606Y1191206D02*
X1490606Y871206D01*
X1490606Y1191206D02*
X1170606Y871206D01*
X1733463Y1195492D02*
X1919177Y1195492D01*
X1819177Y1081206D01*
X1862034Y1081206D01*
X1890606Y1066920D01*
X1904892Y1052635D01*
X1919177Y1024063D01*
X1919177Y952634D01*
X1904892Y924063D01*
X1890606Y909777D01*
X1862034Y895492D01*
X1776320Y895492D01*
X1747749Y909777D01*
X1733463Y924063D01*
X2047749Y924063D02*
X2062034Y909777D01*
X2047749Y895492D01*
X2033463Y909777D01*
X2047749Y924063D01*
X2047749Y895492D01*
X2176320Y1166920D02*
X2190606Y1181206D01*
X2219177Y1195492D01*
X2290606Y1195492D01*
X2319177Y1181206D01*
X2333463Y1166920D01*
X2347749Y1138349D01*
X2347749Y1109777D01*
X2333463Y1066920D01*
X2162034Y895492D01*
X2347749Y895492D01*
X2533463Y1195492D02*
X2562035Y1195492D01*
X2590606Y1181206D01*
X2604892Y1166920D01*
X2619177Y1138349D01*
X2633463Y1081206D01*
X2633463Y1009777D01*
X2619177Y952634D01*
X2604892Y924063D01*
X2590606Y909777D01*
X2562035Y895492D01*
X2533463Y895492D01*
X2504892Y909777D01*
X2490606Y924063D01*
X2476320Y952634D01*
X2462035Y1009777D01*
X2462035Y1081206D01*
X2476320Y1138349D01*
X2490606Y1166920D01*
X2504892Y1181206D01*
X2533463Y1195492D01*
X2762035Y895492D02*
X2762035Y1095492D01*
X2762035Y1066920D02*
X2776320Y1081206D01*
X2804892Y1095492D01*
X2847749Y1095492D01*
X2876320Y1081206D01*
X2890606Y1052635D01*
X2890606Y895492D01*
X2890606Y1052635D02*
X2904892Y1081206D01*
X2933463Y1095492D01*
X2976320Y1095492D01*
X3004892Y1081206D01*
X3019177Y1052635D01*
X3019177Y895492D01*
X3162034Y895492D02*
X3162034Y1095492D01*
X3162034Y1066920D02*
X3176320Y1081206D01*
X3204892Y1095492D01*
X3247749Y1095492D01*
X3276320Y1081206D01*
X3290606Y1052635D01*
X3290606Y895492D01*
X3290606Y1052635D02*
X3304892Y1081206D01*
X3333463Y1095492D01*
X3376320Y1095492D01*
X3404892Y1081206D01*
X3419177Y1052635D01*
X3419177Y895492D01*
X4004892Y1209777D02*
X3747749Y824063D01*
X4390606Y1195492D02*
X4419177Y1195492D01*
X4447749Y1181206D01*
X4462034Y1166920D01*
X4476320Y1138349D01*
X4490606Y1081206D01*
X4490606Y1009777D01*
X4476320Y952634D01*
X4462034Y924063D01*
X4447749Y909777D01*
X4419177Y895492D01*
X4390606Y895492D01*
X4362034Y909777D01*
X4347749Y924063D01*
X4333463Y952634D01*
X4319177Y1009777D01*
X4319177Y1081206D01*
X4333463Y1138349D01*
X4347749Y1166920D01*
X4362034Y1181206D01*
X4390606Y1195492D01*
X4619177Y924063D02*
X4633463Y909777D01*
X4619177Y895492D01*
X4604892Y909777D01*
X4619177Y924063D01*
X4619177Y895492D01*
X4919177Y895492D02*
X4747749Y895492D01*
X4833463Y895492D02*
X4833463Y1195492D01*
X4804892Y1152635D01*
X4776320Y1124063D01*
X4747749Y1109777D01*
X5033463Y1166920D02*
X5047749Y1181206D01*
X5076320Y1195492D01*
X5147749Y1195492D01*
X5176320Y1181206D01*
X5190606Y1166920D01*
X5204892Y1138349D01*
X5204892Y1109777D01*
X5190606Y1066920D01*
X5019177Y895492D01*
X5204892Y895492D01*
X5462034Y1195492D02*
X5404892Y1195492D01*
X5376320Y1181206D01*
X5362034Y1166920D01*
X5333463Y1124063D01*
X5319177Y1066920D01*
X5319177Y952634D01*
X5333463Y924063D01*
X5347749Y909777D01*
X5376320Y895492D01*
X5433463Y895492D01*
X5462034Y909777D01*
X5476320Y924063D01*
X5490606Y952634D01*
X5490606Y1024063D01*
X5476320Y1052635D01*
X5462034Y1066920D01*
X5433463Y1081206D01*
X5376320Y1081206D01*
X5347749Y1066920D01*
X5333463Y1052635D01*
X5319177Y1024063D01*
X5604892Y1195492D02*
X5604892Y1138349D01*
X5719177Y1195492D02*
X5719177Y1138349D01*
X6162034Y781206D02*
X6147749Y795492D01*
X6119177Y838349D01*
X6104891Y866920D01*
X6090606Y909777D01*
X6076320Y981206D01*
X6076320Y1038349D01*
X6090606Y1109777D01*
X6104891Y1152635D01*
X6119177Y1181206D01*
X6147749Y1224063D01*
X6162034Y1238349D01*
X6404891Y1195492D02*
X6347749Y1195492D01*
X6319177Y1181206D01*
X6304891Y1166920D01*
X6276320Y1124063D01*
X6262034Y1066920D01*
X6262034Y952634D01*
X6276320Y924063D01*
X6290606Y909777D01*
X6319177Y895492D01*
X6376320Y895492D01*
X6404891Y909777D01*
X6419177Y924063D01*
X6433463Y952634D01*
X6433463Y1024063D01*
X6419177Y1052635D01*
X6404891Y1066920D01*
X6376320Y1081206D01*
X6319177Y1081206D01*
X6290606Y1066920D01*
X6276320Y1052635D01*
X6262034Y1024063D01*
X6790606Y895492D02*
X6790606Y1195492D01*
X6919177Y895492D02*
X6919177Y1052635D01*
X6904891Y1081206D01*
X6876320Y1095492D01*
X6833463Y1095492D01*
X6804891Y1081206D01*
X6790606Y1066920D01*
X7104891Y895492D02*
X7076320Y909777D01*
X7062034Y924063D01*
X7047749Y952634D01*
X7047749Y1038349D01*
X7062034Y1066920D01*
X7076320Y1081206D01*
X7104891Y1095492D01*
X7147749Y1095492D01*
X7176320Y1081206D01*
X7190606Y1066920D01*
X7204891Y1038349D01*
X7204891Y952634D01*
X7190606Y924063D01*
X7176320Y909777D01*
X7147749Y895492D01*
X7104891Y895492D01*
X7376320Y895492D02*
X7347749Y909777D01*
X7333463Y938349D01*
X7333463Y1195492D01*
X7604892Y909777D02*
X7576320Y895492D01*
X7519177Y895492D01*
X7490606Y909777D01*
X7476320Y938349D01*
X7476320Y1052635D01*
X7490606Y1081206D01*
X7519177Y1095492D01*
X7576320Y1095492D01*
X7604892Y1081206D01*
X7619177Y1052635D01*
X7619177Y1024063D01*
X7476320Y995492D01*
X7733463Y909777D02*
X7762034Y895492D01*
X7819177Y895492D01*
X7847749Y909777D01*
X7862034Y938349D01*
X7862034Y952634D01*
X7847749Y981206D01*
X7819177Y995492D01*
X7776320Y995492D01*
X7747749Y1009777D01*
X7733463Y1038349D01*
X7733463Y1052635D01*
X7747749Y1081206D01*
X7776320Y1095492D01*
X7819177Y1095492D01*
X7847749Y1081206D01*
X7962034Y781206D02*
X7976320Y795492D01*
X8004892Y838349D01*
X8019177Y866920D01*
X8033463Y909777D01*
X8047749Y981206D01*
X8047749Y1038349D01*
X8033463Y1109777D01*
X8019177Y1152635D01*
X8004892Y1181206D01*
X7976320Y1224063D01*
X7962034Y1238349D01*
X8504892Y781206D02*
X8490606Y795492D01*
X8462034Y838349D01*
X8447749Y866920D01*
X8433463Y909777D01*
X8419177Y981206D01*
X8419177Y1038349D01*
X8433463Y1109777D01*
X8447749Y1152635D01*
X8462034Y1181206D01*
X8490606Y1224063D01*
X8504892Y1238349D01*
X8619177Y1095492D02*
X8619177Y895492D01*
X8619177Y1066920D02*
X8633463Y1081206D01*
X8662034Y1095492D01*
X8704892Y1095492D01*
X8733463Y1081206D01*
X8747749Y1052635D01*
X8747749Y895492D01*
X8933463Y895492D02*
X8904892Y909777D01*
X8890606Y924063D01*
X8876320Y952634D01*
X8876320Y1038349D01*
X8890606Y1066920D01*
X8904892Y1081206D01*
X8933463Y1095492D01*
X8976320Y1095492D01*
X9004892Y1081206D01*
X9019177Y1066920D01*
X9033463Y1038349D01*
X9033463Y952634D01*
X9019177Y924063D01*
X9004892Y909777D01*
X8976320Y895492D01*
X8933463Y895492D01*
X9119177Y1095492D02*
X9233463Y1095492D01*
X9162035Y1195492D02*
X9162035Y938349D01*
X9176320Y909777D01*
X9204892Y895492D01*
X9233463Y895492D01*
X9562035Y1095492D02*
X9562035Y795492D01*
X9562035Y1081206D02*
X9590606Y1095492D01*
X9647749Y1095492D01*
X9676320Y1081206D01*
X9690606Y1066920D01*
X9704892Y1038349D01*
X9704892Y952634D01*
X9690606Y924063D01*
X9676320Y909777D01*
X9647749Y895492D01*
X9590606Y895492D01*
X9562035Y909777D01*
X9876320Y895492D02*
X9847749Y909777D01*
X9833463Y938349D01*
X9833463Y1195492D01*
X10119177Y895492D02*
X10119177Y1052635D01*
X10104892Y1081206D01*
X10076320Y1095492D01*
X10019177Y1095492D01*
X9990606Y1081206D01*
X10119177Y909777D02*
X10090606Y895492D01*
X10019177Y895492D01*
X9990606Y909777D01*
X9976320Y938349D01*
X9976320Y966920D01*
X9990606Y995492D01*
X10019177Y1009777D01*
X10090606Y1009777D01*
X10119177Y1024063D01*
X10219177Y1095492D02*
X10333463Y1095492D01*
X10262035Y1195492D02*
X10262035Y938349D01*
X10276320Y909777D01*
X10304892Y895492D01*
X10333463Y895492D01*
X10547749Y909777D02*
X10519178Y895492D01*
X10462035Y895492D01*
X10433463Y909777D01*
X10419178Y938349D01*
X10419178Y1052635D01*
X10433463Y1081206D01*
X10462035Y1095492D01*
X10519178Y1095492D01*
X10547749Y1081206D01*
X10562035Y1052635D01*
X10562035Y1024063D01*
X10419178Y995492D01*
X10819178Y895492D02*
X10819178Y1195492D01*
X10819178Y909777D02*
X10790606Y895492D01*
X10733463Y895492D01*
X10704892Y909777D01*
X10690606Y924063D01*
X10676320Y952634D01*
X10676320Y1038349D01*
X10690606Y1066920D01*
X10704892Y1081206D01*
X10733463Y1095492D01*
X10790606Y1095492D01*
X10819178Y1081206D01*
X10933463Y781206D02*
X10947749Y795492D01*
X10976320Y838349D01*
X10990606Y866920D01*
X11004892Y909777D01*
X11019178Y981206D01*
X11019178Y1038349D01*
X11004892Y1109777D01*
X10990606Y1152635D01*
X10976320Y1181206D01*
X10947749Y1224063D01*
X10933463Y1238349D01*
M02*
