M48
METRIC,TZ
T1C0.400
T2C2.500
%
G90
G05
T1
X80574Y-103388
X81077Y-101117
X82987Y-108651
X84049Y-104165
X85496Y-104468
X87371Y-104470
X94717Y-104699
X94717Y-105918
X97422Y-112586
X99593Y-93345
X102146Y-127660
X102974Y-104872
X103144Y-112304
X104300Y-100808
X113939Y-103099
X114638Y-115923
X115951Y-117152
X133441Y-112431
X141008Y-95250
X142690Y-116063
X143109Y-114107
X145491Y-108590
X147020Y-108036
X147665Y-103388
X148544Y-107427
X148781Y-109525
X150084Y-106802
X151044Y-110251
X151943Y-111343
X153279Y-113408
X157871Y-110223
X158687Y-104661
X160000Y-107920
X161097Y-105948
T2
X67501Y-75501
X67501Y-137795
X160084Y-75501
X160084Y-137731
T0
M30
