G04 #@! TF.FileFunction,Copper,L2,Bot,Signal*
%FSLAX46Y46*%
G04 Gerber Fmt 4.6, Leading zero omitted, Abs format (unit mm)*
G04 Created by KiCad (PCBNEW 4.0.7-e2-6376~60~ubuntu17.10.1) date Tue Mar  6 13:11:32 2018*
%MOMM*%
%LPD*%
G01*
G04 APERTURE LIST*
%ADD10C,0.100000*%
%ADD11C,0.300000*%
%ADD12C,5.000000*%
%ADD13R,0.800000X0.200000*%
%ADD14R,2.000000X1.500000*%
%ADD15C,0.600000*%
%ADD16C,0.250000*%
%ADD17C,0.150000*%
G04 APERTURE END LIST*
D10*
D11*
X129338000Y-135313943D02*
X129338000Y-137742514D01*
X129195143Y-138028229D01*
X129052286Y-138171086D01*
X128766572Y-138313943D01*
X128195143Y-138313943D01*
X127909429Y-138171086D01*
X127766572Y-138028229D01*
X127623715Y-137742514D01*
X127623715Y-135313943D01*
X126195143Y-136313943D02*
X126195143Y-138313943D01*
X126195143Y-136599657D02*
X126052286Y-136456800D01*
X125766572Y-136313943D01*
X125338000Y-136313943D01*
X125052286Y-136456800D01*
X124909429Y-136742514D01*
X124909429Y-138313943D01*
X123480857Y-138313943D02*
X123480857Y-136313943D01*
X123480857Y-135313943D02*
X123623714Y-135456800D01*
X123480857Y-135599657D01*
X123338000Y-135456800D01*
X123480857Y-135313943D01*
X123480857Y-135599657D01*
X122338001Y-136313943D02*
X121623715Y-138313943D01*
X120909429Y-136313943D01*
X118623715Y-138171086D02*
X118909429Y-138313943D01*
X119480858Y-138313943D01*
X119766572Y-138171086D01*
X119909429Y-137885371D01*
X119909429Y-136742514D01*
X119766572Y-136456800D01*
X119480858Y-136313943D01*
X118909429Y-136313943D01*
X118623715Y-136456800D01*
X118480858Y-136742514D01*
X118480858Y-137028229D01*
X119909429Y-137313943D01*
X117195143Y-138313943D02*
X117195143Y-136313943D01*
X117195143Y-136885371D02*
X117052286Y-136599657D01*
X116909429Y-136456800D01*
X116623715Y-136313943D01*
X116338000Y-136313943D01*
X115480857Y-138171086D02*
X115195143Y-138313943D01*
X114623715Y-138313943D01*
X114338000Y-138171086D01*
X114195143Y-137885371D01*
X114195143Y-137742514D01*
X114338000Y-137456800D01*
X114623715Y-137313943D01*
X115052286Y-137313943D01*
X115338000Y-137171086D01*
X115480857Y-136885371D01*
X115480857Y-136742514D01*
X115338000Y-136456800D01*
X115052286Y-136313943D01*
X114623715Y-136313943D01*
X114338000Y-136456800D01*
X112909429Y-138313943D02*
X112909429Y-136313943D01*
X112909429Y-135313943D02*
X113052286Y-135456800D01*
X112909429Y-135599657D01*
X112766572Y-135456800D01*
X112909429Y-135313943D01*
X112909429Y-135599657D01*
X110195144Y-138313943D02*
X110195144Y-135313943D01*
X110195144Y-138171086D02*
X110480858Y-138313943D01*
X111052287Y-138313943D01*
X111338001Y-138171086D01*
X111480858Y-138028229D01*
X111623715Y-137742514D01*
X111623715Y-136885371D01*
X111480858Y-136599657D01*
X111338001Y-136456800D01*
X111052287Y-136313943D01*
X110480858Y-136313943D01*
X110195144Y-136456800D01*
X107480858Y-138313943D02*
X107480858Y-136742514D01*
X107623715Y-136456800D01*
X107909429Y-136313943D01*
X108480858Y-136313943D01*
X108766572Y-136456800D01*
X107480858Y-138171086D02*
X107766572Y-138313943D01*
X108480858Y-138313943D01*
X108766572Y-138171086D01*
X108909429Y-137885371D01*
X108909429Y-137599657D01*
X108766572Y-137313943D01*
X108480858Y-137171086D01*
X107766572Y-137171086D01*
X107480858Y-137028229D01*
X104766572Y-138313943D02*
X104766572Y-135313943D01*
X104766572Y-138171086D02*
X105052286Y-138313943D01*
X105623715Y-138313943D01*
X105909429Y-138171086D01*
X106052286Y-138028229D01*
X106195143Y-137742514D01*
X106195143Y-136885371D01*
X106052286Y-136599657D01*
X105909429Y-136456800D01*
X105623715Y-136313943D01*
X105052286Y-136313943D01*
X104766572Y-136456800D01*
X99766572Y-138313943D02*
X99766572Y-135313943D01*
X99766572Y-138171086D02*
X100052286Y-138313943D01*
X100623715Y-138313943D01*
X100909429Y-138171086D01*
X101052286Y-138028229D01*
X101195143Y-137742514D01*
X101195143Y-136885371D01*
X101052286Y-136599657D01*
X100909429Y-136456800D01*
X100623715Y-136313943D01*
X100052286Y-136313943D01*
X99766572Y-136456800D01*
X97195143Y-138171086D02*
X97480857Y-138313943D01*
X98052286Y-138313943D01*
X98338000Y-138171086D01*
X98480857Y-137885371D01*
X98480857Y-136742514D01*
X98338000Y-136456800D01*
X98052286Y-136313943D01*
X97480857Y-136313943D01*
X97195143Y-136456800D01*
X97052286Y-136742514D01*
X97052286Y-137028229D01*
X98480857Y-137313943D01*
X93052286Y-138313943D02*
X93338000Y-138171086D01*
X93480857Y-137885371D01*
X93480857Y-135313943D01*
X90623714Y-138313943D02*
X90623714Y-136742514D01*
X90766571Y-136456800D01*
X91052285Y-136313943D01*
X91623714Y-136313943D01*
X91909428Y-136456800D01*
X90623714Y-138171086D02*
X90909428Y-138313943D01*
X91623714Y-138313943D01*
X91909428Y-138171086D01*
X92052285Y-137885371D01*
X92052285Y-137599657D01*
X91909428Y-137313943D01*
X91623714Y-137171086D01*
X90909428Y-137171086D01*
X90623714Y-137028229D01*
X85480857Y-138313943D02*
X86909428Y-138313943D01*
X86909428Y-135313943D01*
X83195143Y-138313943D02*
X83195143Y-136742514D01*
X83338000Y-136456800D01*
X83623714Y-136313943D01*
X84195143Y-136313943D01*
X84480857Y-136456800D01*
X83195143Y-138171086D02*
X83480857Y-138313943D01*
X84195143Y-138313943D01*
X84480857Y-138171086D01*
X84623714Y-137885371D01*
X84623714Y-137599657D01*
X84480857Y-137313943D01*
X84195143Y-137171086D01*
X83480857Y-137171086D01*
X83195143Y-137028229D01*
X80480857Y-136313943D02*
X80480857Y-138742514D01*
X80623714Y-139028229D01*
X80766571Y-139171086D01*
X81052286Y-139313943D01*
X81480857Y-139313943D01*
X81766571Y-139171086D01*
X80480857Y-138171086D02*
X80766571Y-138313943D01*
X81338000Y-138313943D01*
X81623714Y-138171086D01*
X81766571Y-138028229D01*
X81909428Y-137742514D01*
X81909428Y-136885371D01*
X81766571Y-136599657D01*
X81623714Y-136456800D01*
X81338000Y-136313943D01*
X80766571Y-136313943D01*
X80480857Y-136456800D01*
X77766571Y-136313943D02*
X77766571Y-138313943D01*
X79052285Y-136313943D02*
X79052285Y-137885371D01*
X78909428Y-138171086D01*
X78623714Y-138313943D01*
X78195142Y-138313943D01*
X77909428Y-138171086D01*
X77766571Y-138028229D01*
X76337999Y-136313943D02*
X76337999Y-138313943D01*
X76337999Y-136599657D02*
X76195142Y-136456800D01*
X75909428Y-136313943D01*
X75480856Y-136313943D01*
X75195142Y-136456800D01*
X75052285Y-136742514D01*
X75052285Y-138313943D01*
X72337999Y-138313943D02*
X72337999Y-136742514D01*
X72480856Y-136456800D01*
X72766570Y-136313943D01*
X73337999Y-136313943D01*
X73623713Y-136456800D01*
X72337999Y-138171086D02*
X72623713Y-138313943D01*
X73337999Y-138313943D01*
X73623713Y-138171086D01*
X73766570Y-137885371D01*
X73766570Y-137599657D01*
X73623713Y-137313943D01*
X73337999Y-137171086D01*
X72623713Y-137171086D01*
X72337999Y-137028229D01*
D12*
X67500500Y-75501500D03*
X67500500Y-137795000D03*
X160083500Y-137731500D03*
X160083500Y-75501500D03*
D13*
X72923400Y-113625200D03*
X72923400Y-113125200D03*
X72923400Y-112625200D03*
X72923400Y-112125200D03*
X72923400Y-111625200D03*
X72923400Y-111125200D03*
X72923400Y-110625200D03*
X72923400Y-110125200D03*
X72923400Y-109625200D03*
X72923400Y-109125200D03*
X72923400Y-108625200D03*
X72923400Y-108125200D03*
X72923400Y-107625200D03*
X72923400Y-107125200D03*
X72923400Y-106625200D03*
X72923400Y-106125200D03*
X72923400Y-105625200D03*
X72923400Y-105125200D03*
X72923400Y-104625200D03*
X72923400Y-104125200D03*
X72923400Y-103625200D03*
X72923400Y-103125200D03*
X72923400Y-102625200D03*
X72923400Y-102125200D03*
X72923400Y-101625200D03*
X72923400Y-101125200D03*
X72923400Y-100625200D03*
X72923400Y-100125200D03*
X72923400Y-99625200D03*
X72923400Y-99125200D03*
D14*
X70423400Y-115525200D03*
X70423400Y-97225200D03*
D15*
X159999680Y-107919520D03*
X102146100Y-127660400D03*
X87370920Y-104470200D03*
X104300020Y-100807520D03*
X102974140Y-104871520D03*
X113939320Y-103098600D03*
X141008100Y-95250000D03*
X151942800Y-111343440D03*
X133441440Y-112430560D03*
X153278840Y-113408460D03*
X115951000Y-117152420D03*
X103144320Y-112303560D03*
X94716600Y-104698800D03*
X81076800Y-101117400D03*
X161096960Y-105948480D03*
X80573880Y-103388160D03*
X84048600Y-104165400D03*
X150083520Y-106801920D03*
X148544280Y-107426760D03*
X147020280Y-108036360D03*
X145491200Y-108590080D03*
X142689580Y-116062760D03*
X143108680Y-114106960D03*
X82986880Y-108651040D03*
X114637820Y-115923060D03*
X97421700Y-112585500D03*
X94716600Y-105918000D03*
X99593400Y-93345000D03*
X157871160Y-110223300D03*
X85496400Y-104467660D03*
X148780500Y-109524800D03*
X158686500Y-104660700D03*
X151043640Y-110251240D03*
X147665440Y-103388160D03*
D16*
X160568640Y-107919520D02*
X159999680Y-107919520D01*
X161086800Y-108437680D02*
X160568640Y-107919520D01*
X161086800Y-125260100D02*
X161086800Y-108437680D01*
X157975300Y-128371600D02*
X161086800Y-125260100D01*
X102857300Y-128371600D02*
X157975300Y-128371600D01*
X102146100Y-127660400D02*
X102857300Y-128371600D01*
X72923400Y-102625200D02*
X85525920Y-102625200D01*
X85525920Y-102625200D02*
X87370920Y-104470200D01*
X72923400Y-107125200D02*
X99262500Y-107125200D01*
X104300020Y-102087680D02*
X104300020Y-100807520D01*
X99262500Y-107125200D02*
X104300020Y-102087680D01*
X102971600Y-104868980D02*
X102948740Y-104868980D01*
X102974140Y-104871520D02*
X102971600Y-104868980D01*
X72923400Y-107625200D02*
X100192520Y-107625200D01*
X100192520Y-107625200D02*
X102948740Y-104868980D01*
X102948740Y-104868980D02*
X104551480Y-103266240D01*
X104719120Y-103098600D02*
X113939320Y-103098600D01*
X104551480Y-103266240D02*
X104719120Y-103098600D01*
D17*
X141122400Y-95250000D02*
X141008100Y-95250000D01*
D16*
X151770080Y-105897680D02*
X141122400Y-95250000D01*
X151770080Y-111170720D02*
X151770080Y-105897680D01*
D17*
X151942800Y-111343440D02*
X151770080Y-111170720D01*
X134419340Y-113408460D02*
X153278840Y-113408460D01*
X134419340Y-113408460D02*
X133441440Y-112430560D01*
D16*
X72923400Y-106125200D02*
X93290200Y-106125200D01*
X115951000Y-114051080D02*
X115951000Y-117152420D01*
X114526060Y-112626140D02*
X115951000Y-114051080D01*
X103573580Y-112626140D02*
X114526060Y-112626140D01*
X103144320Y-112303560D02*
X103573580Y-112626140D01*
X93290200Y-106125200D02*
X94716600Y-104698800D01*
D11*
X161096960Y-90744040D02*
X147695920Y-77343000D01*
X147695920Y-77343000D02*
X85915500Y-77343000D01*
X85915500Y-77343000D02*
X81076800Y-82181700D01*
X81076800Y-82181700D02*
X81076800Y-101117400D01*
X161096960Y-105948480D02*
X161096960Y-90744040D01*
D16*
X80336840Y-103625200D02*
X72923400Y-103625200D01*
X80573880Y-103388160D02*
X80336840Y-103625200D01*
X84008400Y-104125200D02*
X72923400Y-104125200D01*
X84048600Y-104165400D02*
X84008400Y-104125200D01*
X145260240Y-111625200D02*
X150083520Y-106801920D01*
X145260240Y-111625200D02*
X72923400Y-111625200D01*
X144845840Y-111125200D02*
X148544280Y-107426760D01*
X144845840Y-111125200D02*
X72923400Y-111125200D01*
X144931440Y-110125200D02*
X147020280Y-108036360D01*
X144931440Y-110125200D02*
X72923400Y-110125200D01*
X144456080Y-109625200D02*
X145491200Y-108590080D01*
X144456080Y-109625200D02*
X72923400Y-109625200D01*
X93516400Y-113125200D02*
X100058220Y-119667020D01*
X100058220Y-119667020D02*
X139085320Y-119667020D01*
X139085320Y-119667020D02*
X142689580Y-116062760D01*
X72923400Y-113125200D02*
X93516400Y-113125200D01*
X94073040Y-112625200D02*
X100472240Y-119024400D01*
X100472240Y-119024400D02*
X138191240Y-119024400D01*
X138191240Y-119024400D02*
X143108680Y-114106960D01*
X94073040Y-112625200D02*
X72923400Y-112625200D01*
X72923400Y-108625200D02*
X82961040Y-108625200D01*
X82961040Y-108625200D02*
X82986880Y-108651040D01*
X72923400Y-106625200D02*
X93994160Y-106625200D01*
X100759260Y-115923060D02*
X114637820Y-115923060D01*
X97421700Y-112585500D02*
X100759260Y-115923060D01*
X94701360Y-105918000D02*
X94716600Y-105918000D01*
X93994160Y-106625200D02*
X94701360Y-105918000D01*
X140992860Y-93345000D02*
X99593400Y-93345000D01*
X157871160Y-110223300D02*
X140992860Y-93345000D01*
X74269600Y-104952800D02*
X85011260Y-104952800D01*
X85011260Y-104952800D02*
X85496400Y-104467660D01*
X72923400Y-105625200D02*
X73978200Y-105625200D01*
X73942000Y-104625200D02*
X72923400Y-104625200D01*
X74269600Y-104952800D02*
X73942000Y-104625200D01*
X74269600Y-105333800D02*
X74269600Y-104952800D01*
X73978200Y-105625200D02*
X74269600Y-105333800D01*
X148780500Y-110279180D02*
X148780500Y-109524800D01*
X150708360Y-112207040D02*
X148780500Y-110279180D01*
X158224220Y-112207040D02*
X150708360Y-112207040D01*
X158950660Y-111480600D02*
X158224220Y-112207040D01*
X158950660Y-104924860D02*
X158950660Y-111480600D01*
X158686500Y-104660700D02*
X158950660Y-104924860D01*
X151043640Y-106032300D02*
X151043640Y-110251240D01*
X150149560Y-105138220D02*
X151043640Y-106032300D01*
X149415500Y-105138220D02*
X150149560Y-105138220D01*
X147665440Y-103388160D02*
X149415500Y-105138220D01*
D17*
G36*
X65827765Y-73156644D02*
X65538998Y-73504642D01*
X67500500Y-75466145D01*
X69462002Y-73504642D01*
X69173235Y-73156644D01*
X68968309Y-73064320D01*
X158548938Y-73064320D01*
X158410765Y-73156644D01*
X158121998Y-73504642D01*
X160083500Y-75466145D01*
X162045002Y-73504642D01*
X161756235Y-73156644D01*
X161551309Y-73064320D01*
X162551160Y-73064320D01*
X162551160Y-74041041D01*
X162526243Y-73975264D01*
X162428356Y-73828765D01*
X162080358Y-73539998D01*
X160118855Y-75501500D01*
X162080358Y-77463002D01*
X162428356Y-77174235D01*
X162551160Y-76901654D01*
X162551160Y-136271041D01*
X162526243Y-136205264D01*
X162428356Y-136058765D01*
X162080358Y-135769998D01*
X160118855Y-137731500D01*
X162080358Y-139693002D01*
X162428356Y-139404235D01*
X162551160Y-139131654D01*
X162551160Y-140138200D01*
X161663678Y-140138200D01*
X161756235Y-140076356D01*
X162045002Y-139728358D01*
X160083500Y-137766855D01*
X158121998Y-139728358D01*
X158410765Y-140076356D01*
X158548037Y-140138200D01*
X69174609Y-140138200D01*
X69462002Y-139791858D01*
X67500500Y-137830355D01*
X65538998Y-139791858D01*
X65826391Y-140138200D01*
X65032840Y-140138200D01*
X65032840Y-139255459D01*
X65057757Y-139321236D01*
X65155644Y-139467735D01*
X65503642Y-139756502D01*
X67465145Y-137795000D01*
X67535855Y-137795000D01*
X69497358Y-139756502D01*
X69845356Y-139467735D01*
X70306992Y-138443068D01*
X70341365Y-137319739D01*
X69943243Y-136268764D01*
X69845356Y-136122265D01*
X69497358Y-135833498D01*
X67535855Y-137795000D01*
X67465145Y-137795000D01*
X65503642Y-135833498D01*
X65155644Y-136122265D01*
X65032840Y-136394846D01*
X65032840Y-135798142D01*
X65538998Y-135798142D01*
X67500500Y-137759645D01*
X69462002Y-135798142D01*
X69173235Y-135450144D01*
X68148568Y-134988508D01*
X67025239Y-134954135D01*
X65974264Y-135352257D01*
X65827765Y-135450144D01*
X65538998Y-135798142D01*
X65032840Y-135798142D01*
X65032840Y-134381800D01*
X71298714Y-134381800D01*
X71298714Y-139831800D01*
X130377287Y-139831800D01*
X130377287Y-138206761D01*
X157242635Y-138206761D01*
X157640757Y-139257736D01*
X157738644Y-139404235D01*
X158086642Y-139693002D01*
X160048145Y-137731500D01*
X158086642Y-135769998D01*
X157738644Y-136058765D01*
X157277008Y-137083432D01*
X157242635Y-138206761D01*
X130377287Y-138206761D01*
X130377287Y-135734642D01*
X158121998Y-135734642D01*
X160083500Y-137696145D01*
X162045002Y-135734642D01*
X161756235Y-135386644D01*
X160731568Y-134925008D01*
X159608239Y-134890635D01*
X158557264Y-135288757D01*
X158410765Y-135386644D01*
X158121998Y-135734642D01*
X130377287Y-135734642D01*
X130377287Y-134381800D01*
X71298714Y-134381800D01*
X65032840Y-134381800D01*
X65032840Y-115631450D01*
X69098400Y-115631450D01*
X69098400Y-116339846D01*
X69147878Y-116459297D01*
X69239302Y-116550721D01*
X69358753Y-116600200D01*
X70317150Y-116600200D01*
X70398400Y-116518950D01*
X70398400Y-115550200D01*
X70448400Y-115550200D01*
X70448400Y-116518950D01*
X70529650Y-116600200D01*
X71488047Y-116600200D01*
X71607498Y-116550721D01*
X71698922Y-116459297D01*
X71748400Y-116339846D01*
X71748400Y-115631450D01*
X71667150Y-115550200D01*
X70448400Y-115550200D01*
X70398400Y-115550200D01*
X69179650Y-115550200D01*
X69098400Y-115631450D01*
X65032840Y-115631450D01*
X65032840Y-114710554D01*
X69098400Y-114710554D01*
X69098400Y-115418950D01*
X69179650Y-115500200D01*
X70398400Y-115500200D01*
X70398400Y-114531450D01*
X70448400Y-114531450D01*
X70448400Y-115500200D01*
X71667150Y-115500200D01*
X71748400Y-115418950D01*
X71748400Y-114710554D01*
X71698922Y-114591103D01*
X71607498Y-114499679D01*
X71488047Y-114450200D01*
X70529650Y-114450200D01*
X70448400Y-114531450D01*
X70398400Y-114531450D01*
X70317150Y-114450200D01*
X69358753Y-114450200D01*
X69239302Y-114499679D01*
X69147878Y-114591103D01*
X69098400Y-114710554D01*
X65032840Y-114710554D01*
X65032840Y-113731450D01*
X72198400Y-113731450D01*
X72198400Y-113789846D01*
X72247878Y-113909297D01*
X72339302Y-114000721D01*
X72458753Y-114050200D01*
X72817150Y-114050200D01*
X72898400Y-113968950D01*
X72898400Y-113650200D01*
X72948400Y-113650200D01*
X72948400Y-113968950D01*
X73029650Y-114050200D01*
X73388047Y-114050200D01*
X73507498Y-114000721D01*
X73598922Y-113909297D01*
X73648400Y-113789846D01*
X73648400Y-113731450D01*
X73567150Y-113650200D01*
X72948400Y-113650200D01*
X72898400Y-113650200D01*
X72279650Y-113650200D01*
X72198400Y-113731450D01*
X65032840Y-113731450D01*
X65032840Y-102525200D01*
X72192033Y-102525200D01*
X72192033Y-102725200D01*
X72214695Y-102845638D01*
X72233740Y-102875235D01*
X72198400Y-102960554D01*
X72198400Y-103018950D01*
X72279650Y-103100200D01*
X72898400Y-103100200D01*
X72898400Y-103080200D01*
X72948400Y-103080200D01*
X72948400Y-103100200D01*
X73567150Y-103100200D01*
X73592150Y-103075200D01*
X80027093Y-103075200D01*
X79985569Y-103175200D01*
X73592150Y-103175200D01*
X73567150Y-103150200D01*
X72948400Y-103150200D01*
X72948400Y-103170200D01*
X72898400Y-103170200D01*
X72898400Y-103150200D01*
X72279650Y-103150200D01*
X72198400Y-103231450D01*
X72198400Y-103289846D01*
X72233297Y-103374096D01*
X72218140Y-103396280D01*
X72192033Y-103525200D01*
X72192033Y-103725200D01*
X72214695Y-103845638D01*
X72233148Y-103874315D01*
X72218140Y-103896280D01*
X72192033Y-104025200D01*
X72192033Y-104225200D01*
X72214695Y-104345638D01*
X72233148Y-104374315D01*
X72218140Y-104396280D01*
X72192033Y-104525200D01*
X72192033Y-104725200D01*
X72214695Y-104845638D01*
X72233740Y-104875235D01*
X72198400Y-104960554D01*
X72198400Y-105018950D01*
X72279650Y-105100200D01*
X72898400Y-105100200D01*
X72898400Y-105080200D01*
X72948400Y-105080200D01*
X72948400Y-105100200D01*
X73567150Y-105100200D01*
X73592150Y-105075200D01*
X73755604Y-105075200D01*
X73819600Y-105139196D01*
X73819600Y-105147404D01*
X73791804Y-105175200D01*
X73592150Y-105175200D01*
X73567150Y-105150200D01*
X72948400Y-105150200D01*
X72948400Y-105170200D01*
X72898400Y-105170200D01*
X72898400Y-105150200D01*
X72279650Y-105150200D01*
X72198400Y-105231450D01*
X72198400Y-105289846D01*
X72233297Y-105374096D01*
X72218140Y-105396280D01*
X72192033Y-105525200D01*
X72192033Y-105725200D01*
X72214695Y-105845638D01*
X72233148Y-105874315D01*
X72218140Y-105896280D01*
X72192033Y-106025200D01*
X72192033Y-106225200D01*
X72214695Y-106345638D01*
X72233148Y-106374315D01*
X72218140Y-106396280D01*
X72192033Y-106525200D01*
X72192033Y-106725200D01*
X72214695Y-106845638D01*
X72233148Y-106874315D01*
X72218140Y-106896280D01*
X72192033Y-107025200D01*
X72192033Y-107225200D01*
X72214695Y-107345638D01*
X72233148Y-107374315D01*
X72218140Y-107396280D01*
X72192033Y-107525200D01*
X72192033Y-107725200D01*
X72214695Y-107845638D01*
X72233740Y-107875235D01*
X72198400Y-107960554D01*
X72198400Y-108018950D01*
X72279650Y-108100200D01*
X72898400Y-108100200D01*
X72898400Y-108080200D01*
X72948400Y-108080200D01*
X72948400Y-108100200D01*
X73567150Y-108100200D01*
X73592150Y-108075200D01*
X82743868Y-108075200D01*
X82633309Y-108120882D01*
X82578896Y-108175200D01*
X73592150Y-108175200D01*
X73567150Y-108150200D01*
X72948400Y-108150200D01*
X72948400Y-108170200D01*
X72898400Y-108170200D01*
X72898400Y-108150200D01*
X72279650Y-108150200D01*
X72198400Y-108231450D01*
X72198400Y-108289846D01*
X72233297Y-108374096D01*
X72218140Y-108396280D01*
X72192033Y-108525200D01*
X72192033Y-108725200D01*
X72214695Y-108845638D01*
X72233740Y-108875235D01*
X72198400Y-108960554D01*
X72198400Y-109018950D01*
X72279650Y-109100200D01*
X72898400Y-109100200D01*
X72898400Y-109080200D01*
X72948400Y-109080200D01*
X72948400Y-109100200D01*
X73567150Y-109100200D01*
X73592150Y-109075200D01*
X82527188Y-109075200D01*
X82627013Y-109175200D01*
X73592150Y-109175200D01*
X73567150Y-109150200D01*
X72948400Y-109150200D01*
X72948400Y-109170200D01*
X72898400Y-109170200D01*
X72898400Y-109150200D01*
X72279650Y-109150200D01*
X72198400Y-109231450D01*
X72198400Y-109289846D01*
X72233297Y-109374096D01*
X72218140Y-109396280D01*
X72192033Y-109525200D01*
X72192033Y-109725200D01*
X72214695Y-109845638D01*
X72233148Y-109874315D01*
X72218140Y-109896280D01*
X72192033Y-110025200D01*
X72192033Y-110225200D01*
X72214695Y-110345638D01*
X72233740Y-110375235D01*
X72198400Y-110460554D01*
X72198400Y-110518950D01*
X72279650Y-110600200D01*
X72898400Y-110600200D01*
X72898400Y-110580200D01*
X72948400Y-110580200D01*
X72948400Y-110600200D01*
X73567150Y-110600200D01*
X73592150Y-110575200D01*
X144759444Y-110575200D01*
X144659444Y-110675200D01*
X73592150Y-110675200D01*
X73567150Y-110650200D01*
X72948400Y-110650200D01*
X72948400Y-110670200D01*
X72898400Y-110670200D01*
X72898400Y-110650200D01*
X72279650Y-110650200D01*
X72198400Y-110731450D01*
X72198400Y-110789846D01*
X72233297Y-110874096D01*
X72218140Y-110896280D01*
X72192033Y-111025200D01*
X72192033Y-111225200D01*
X72214695Y-111345638D01*
X72233148Y-111374315D01*
X72218140Y-111396280D01*
X72192033Y-111525200D01*
X72192033Y-111725200D01*
X72214695Y-111845638D01*
X72233740Y-111875235D01*
X72198400Y-111960554D01*
X72198400Y-112018950D01*
X72279650Y-112100200D01*
X72898400Y-112100200D01*
X72898400Y-112080200D01*
X72948400Y-112080200D01*
X72948400Y-112100200D01*
X73567150Y-112100200D01*
X73592150Y-112075200D01*
X97048236Y-112075200D01*
X96892160Y-112231004D01*
X96796809Y-112460634D01*
X96796592Y-112709275D01*
X96891542Y-112939071D01*
X97067204Y-113115040D01*
X97296834Y-113210391D01*
X97410294Y-113210490D01*
X100441062Y-116241258D01*
X100587053Y-116338807D01*
X100759260Y-116373060D01*
X114203923Y-116373060D01*
X114283324Y-116452600D01*
X114512954Y-116547951D01*
X114761595Y-116548168D01*
X114991391Y-116453218D01*
X115167360Y-116277556D01*
X115262711Y-116047926D01*
X115262928Y-115799285D01*
X115167978Y-115569489D01*
X114992316Y-115393520D01*
X114762686Y-115298169D01*
X114514045Y-115297952D01*
X114284249Y-115392902D01*
X114203951Y-115473060D01*
X100945656Y-115473060D01*
X98046710Y-112574114D01*
X98046808Y-112461725D01*
X97951858Y-112231929D01*
X97795402Y-112075200D01*
X102562404Y-112075200D01*
X102519429Y-112178694D01*
X102519212Y-112427335D01*
X102614162Y-112657131D01*
X102789824Y-112833100D01*
X103019454Y-112928451D01*
X103227054Y-112928632D01*
X103303239Y-112985884D01*
X103354282Y-113010421D01*
X103401372Y-113041886D01*
X103432698Y-113048117D01*
X103461486Y-113061956D01*
X103518036Y-113065092D01*
X103573580Y-113076140D01*
X114339664Y-113076140D01*
X115501000Y-114237476D01*
X115501000Y-116718523D01*
X115421460Y-116797924D01*
X115326109Y-117027554D01*
X115325892Y-117276195D01*
X115420842Y-117505991D01*
X115596504Y-117681960D01*
X115826134Y-117777311D01*
X116074775Y-117777528D01*
X116304571Y-117682578D01*
X116480540Y-117506916D01*
X116575891Y-117277286D01*
X116576108Y-117028645D01*
X116481158Y-116798849D01*
X116401000Y-116718551D01*
X116401000Y-114051080D01*
X116366746Y-113878872D01*
X116269198Y-113732882D01*
X114844258Y-112307942D01*
X114823612Y-112294147D01*
X114698268Y-112210394D01*
X114526060Y-112176140D01*
X103767922Y-112176140D01*
X103726214Y-112075200D01*
X132912766Y-112075200D01*
X132911900Y-112076064D01*
X132816549Y-112305694D01*
X132816332Y-112554335D01*
X132911282Y-112784131D01*
X133086944Y-112960100D01*
X133316574Y-113055451D01*
X133500806Y-113055612D01*
X134136495Y-113691300D01*
X134136497Y-113691303D01*
X134266267Y-113778012D01*
X134419340Y-113808460D01*
X142555888Y-113808460D01*
X142483789Y-113982094D01*
X142483690Y-114095554D01*
X138004844Y-118574400D01*
X100658636Y-118574400D01*
X94391238Y-112307002D01*
X94331823Y-112267302D01*
X94245248Y-112209454D01*
X94073040Y-112175200D01*
X73592150Y-112175200D01*
X73567150Y-112150200D01*
X72948400Y-112150200D01*
X72948400Y-112170200D01*
X72898400Y-112170200D01*
X72898400Y-112150200D01*
X72279650Y-112150200D01*
X72198400Y-112231450D01*
X72198400Y-112289846D01*
X72233297Y-112374096D01*
X72218140Y-112396280D01*
X72192033Y-112525200D01*
X72192033Y-112725200D01*
X72214695Y-112845638D01*
X72233148Y-112874315D01*
X72218140Y-112896280D01*
X72192033Y-113025200D01*
X72192033Y-113225200D01*
X72214695Y-113345638D01*
X72233740Y-113375235D01*
X72198400Y-113460554D01*
X72198400Y-113518950D01*
X72279650Y-113600200D01*
X72898400Y-113600200D01*
X72898400Y-113580200D01*
X72948400Y-113580200D01*
X72948400Y-113600200D01*
X73567150Y-113600200D01*
X73592150Y-113575200D01*
X93330004Y-113575200D01*
X99740022Y-119985218D01*
X99886013Y-120082767D01*
X100058220Y-120117020D01*
X139085320Y-120117020D01*
X139257528Y-120082766D01*
X139403518Y-119985218D01*
X142700966Y-116687770D01*
X142813355Y-116687868D01*
X143043151Y-116592918D01*
X143219120Y-116417256D01*
X143314471Y-116187626D01*
X143314688Y-115938985D01*
X143219738Y-115709189D01*
X143044076Y-115533220D01*
X142814446Y-115437869D01*
X142565805Y-115437652D01*
X142336009Y-115532602D01*
X142160040Y-115708264D01*
X142064689Y-115937894D01*
X142064590Y-116051354D01*
X138898924Y-119217020D01*
X138635016Y-119217020D01*
X143120066Y-114731970D01*
X143232455Y-114732068D01*
X143462251Y-114637118D01*
X143638220Y-114461456D01*
X143733571Y-114231826D01*
X143733788Y-113983185D01*
X143661593Y-113808460D01*
X152795030Y-113808460D01*
X152924344Y-113938000D01*
X153153974Y-114033351D01*
X153402615Y-114033568D01*
X153632411Y-113938618D01*
X153808380Y-113762956D01*
X153903731Y-113533326D01*
X153903948Y-113284685D01*
X153808998Y-113054889D01*
X153633336Y-112878920D01*
X153403706Y-112783569D01*
X153155065Y-112783352D01*
X152925269Y-112878302D01*
X152794884Y-113008460D01*
X134585025Y-113008460D01*
X134066388Y-112489823D01*
X134066548Y-112306785D01*
X133971598Y-112076989D01*
X133969812Y-112075200D01*
X145260240Y-112075200D01*
X145432448Y-112040946D01*
X145578438Y-111943398D01*
X148179544Y-109342292D01*
X148155609Y-109399934D01*
X148155392Y-109648575D01*
X148250342Y-109878371D01*
X148330500Y-109958669D01*
X148330500Y-110279180D01*
X148364754Y-110451388D01*
X148424595Y-110540946D01*
X148462302Y-110597378D01*
X150390162Y-112525238D01*
X150536152Y-112622786D01*
X150708360Y-112657040D01*
X158224220Y-112657040D01*
X158396428Y-112622786D01*
X158542418Y-112525238D01*
X159268858Y-111798798D01*
X159366406Y-111652808D01*
X159400660Y-111480600D01*
X159400660Y-108106433D01*
X159469522Y-108273091D01*
X159645184Y-108449060D01*
X159874814Y-108544411D01*
X160123455Y-108544628D01*
X160353251Y-108449678D01*
X160407874Y-108395150D01*
X160636800Y-108624076D01*
X160636800Y-125073704D01*
X157788904Y-127921600D01*
X103043696Y-127921600D01*
X102771110Y-127649014D01*
X102771208Y-127536625D01*
X102676258Y-127306829D01*
X102500596Y-127130860D01*
X102270966Y-127035509D01*
X102022325Y-127035292D01*
X101792529Y-127130242D01*
X101616560Y-127305904D01*
X101521209Y-127535534D01*
X101520992Y-127784175D01*
X101615942Y-128013971D01*
X101791604Y-128189940D01*
X102021234Y-128285291D01*
X102134694Y-128285390D01*
X102539102Y-128689798D01*
X102685092Y-128787346D01*
X102857300Y-128821600D01*
X157975300Y-128821600D01*
X158147508Y-128787346D01*
X158293498Y-128689798D01*
X161404998Y-125578298D01*
X161502546Y-125432308D01*
X161536800Y-125260100D01*
X161536800Y-108437680D01*
X161502546Y-108265472D01*
X161404998Y-108119482D01*
X160886838Y-107601322D01*
X160740848Y-107503774D01*
X160568640Y-107469520D01*
X160433577Y-107469520D01*
X160354176Y-107389980D01*
X160124546Y-107294629D01*
X159875905Y-107294412D01*
X159646109Y-107389362D01*
X159470140Y-107565024D01*
X159400660Y-107732350D01*
X159400660Y-104924860D01*
X159390050Y-104871520D01*
X159366407Y-104752653D01*
X159311491Y-104670467D01*
X159311608Y-104536925D01*
X159216658Y-104307129D01*
X159040996Y-104131160D01*
X158811366Y-104035809D01*
X158562725Y-104035592D01*
X158332929Y-104130542D01*
X158156960Y-104306204D01*
X158061609Y-104535834D01*
X158061392Y-104784475D01*
X158156342Y-105014271D01*
X158332004Y-105190240D01*
X158500660Y-105260272D01*
X158500660Y-111294204D01*
X158037824Y-111757040D01*
X152413133Y-111757040D01*
X152472340Y-111697936D01*
X152567691Y-111468306D01*
X152567908Y-111219665D01*
X152472958Y-110989869D01*
X152297296Y-110813900D01*
X152220080Y-110781837D01*
X152220080Y-105897680D01*
X152185826Y-105725472D01*
X152088278Y-105579482D01*
X141631931Y-95123135D01*
X141538258Y-94896429D01*
X141362596Y-94720460D01*
X141132966Y-94625109D01*
X140884325Y-94624892D01*
X140654529Y-94719842D01*
X140478560Y-94895504D01*
X140383209Y-95125134D01*
X140382992Y-95373775D01*
X140477942Y-95603571D01*
X140653604Y-95779540D01*
X140883234Y-95874891D01*
X141111094Y-95875090D01*
X149924224Y-104688220D01*
X149601896Y-104688220D01*
X148290450Y-103376774D01*
X148290548Y-103264385D01*
X148195598Y-103034589D01*
X148019936Y-102858620D01*
X147790306Y-102763269D01*
X147541665Y-102763052D01*
X147311869Y-102858002D01*
X147135900Y-103033664D01*
X147040549Y-103263294D01*
X147040332Y-103511935D01*
X147135282Y-103741731D01*
X147310944Y-103917700D01*
X147540574Y-104013051D01*
X147654034Y-104013150D01*
X149097302Y-105456418D01*
X149243293Y-105553967D01*
X149415500Y-105588220D01*
X149963164Y-105588220D01*
X150593640Y-106218696D01*
X150593640Y-106428276D01*
X150438016Y-106272380D01*
X150208386Y-106177029D01*
X149959745Y-106176812D01*
X149729949Y-106271762D01*
X149553980Y-106447424D01*
X149458629Y-106677054D01*
X149458530Y-106790514D01*
X149104091Y-107144953D01*
X149074438Y-107073189D01*
X148898776Y-106897220D01*
X148669146Y-106801869D01*
X148420505Y-106801652D01*
X148190709Y-106896602D01*
X148014740Y-107072264D01*
X147919389Y-107301894D01*
X147919290Y-107415354D01*
X147580091Y-107754553D01*
X147550438Y-107682789D01*
X147374776Y-107506820D01*
X147145146Y-107411469D01*
X146896505Y-107411252D01*
X146666709Y-107506202D01*
X146490740Y-107681864D01*
X146395389Y-107911494D01*
X146395290Y-108024954D01*
X146068834Y-108351410D01*
X146021358Y-108236509D01*
X145845696Y-108060540D01*
X145616066Y-107965189D01*
X145367425Y-107964972D01*
X145137629Y-108059922D01*
X144961660Y-108235584D01*
X144866309Y-108465214D01*
X144866210Y-108578674D01*
X144269684Y-109175200D01*
X83346459Y-109175200D01*
X83516420Y-109005536D01*
X83611771Y-108775906D01*
X83611988Y-108527265D01*
X83517038Y-108297469D01*
X83341376Y-108121500D01*
X83229874Y-108075200D01*
X100192520Y-108075200D01*
X100364728Y-108040946D01*
X100510718Y-107943398D01*
X102957610Y-105496506D01*
X103097915Y-105496628D01*
X103327711Y-105401678D01*
X103503680Y-105226016D01*
X103599031Y-104996386D01*
X103599154Y-104854962D01*
X104905516Y-103548600D01*
X113505423Y-103548600D01*
X113584824Y-103628140D01*
X113814454Y-103723491D01*
X114063095Y-103723708D01*
X114292891Y-103628758D01*
X114468860Y-103453096D01*
X114564211Y-103223466D01*
X114564428Y-102974825D01*
X114469478Y-102745029D01*
X114293816Y-102569060D01*
X114064186Y-102473709D01*
X113815545Y-102473492D01*
X113585749Y-102568442D01*
X113505451Y-102648600D01*
X104719120Y-102648600D01*
X104546912Y-102682854D01*
X104453861Y-102745029D01*
X104400922Y-102780402D01*
X102934838Y-104246486D01*
X102850365Y-104246412D01*
X102726507Y-104297589D01*
X104618218Y-102405878D01*
X104684285Y-102307002D01*
X104715766Y-102259888D01*
X104750020Y-102087680D01*
X104750020Y-101241417D01*
X104829560Y-101162016D01*
X104924911Y-100932386D01*
X104925128Y-100683745D01*
X104830178Y-100453949D01*
X104654516Y-100277980D01*
X104424886Y-100182629D01*
X104176245Y-100182412D01*
X103946449Y-100277362D01*
X103770480Y-100453024D01*
X103675129Y-100682654D01*
X103674912Y-100931295D01*
X103769862Y-101161091D01*
X103850020Y-101241389D01*
X103850020Y-101901284D01*
X99076104Y-106675200D01*
X94580556Y-106675200D01*
X94712759Y-106542997D01*
X94840375Y-106543108D01*
X95070171Y-106448158D01*
X95246140Y-106272496D01*
X95341491Y-106042866D01*
X95341708Y-105794225D01*
X95246758Y-105564429D01*
X95071096Y-105388460D01*
X94878099Y-105308321D01*
X95070171Y-105228958D01*
X95246140Y-105053296D01*
X95341491Y-104823666D01*
X95341708Y-104575025D01*
X95246758Y-104345229D01*
X95071096Y-104169260D01*
X94841466Y-104073909D01*
X94592825Y-104073692D01*
X94363029Y-104168642D01*
X94187060Y-104344304D01*
X94091709Y-104573934D01*
X94091610Y-104687394D01*
X93103804Y-105675200D01*
X74564596Y-105675200D01*
X74587798Y-105651998D01*
X74646928Y-105563504D01*
X74685346Y-105506008D01*
X74705875Y-105402800D01*
X85011260Y-105402800D01*
X85183468Y-105368546D01*
X85329458Y-105270998D01*
X85507786Y-105092670D01*
X85620175Y-105092768D01*
X85849971Y-104997818D01*
X86025940Y-104822156D01*
X86121291Y-104592526D01*
X86121508Y-104343885D01*
X86026558Y-104114089D01*
X85850896Y-103938120D01*
X85621266Y-103842769D01*
X85372625Y-103842552D01*
X85142829Y-103937502D01*
X84966860Y-104113164D01*
X84871509Y-104342794D01*
X84871410Y-104456254D01*
X84824864Y-104502800D01*
X84585239Y-104502800D01*
X84673491Y-104290266D01*
X84673708Y-104041625D01*
X84578758Y-103811829D01*
X84403096Y-103635860D01*
X84173466Y-103540509D01*
X83924825Y-103540292D01*
X83695029Y-103635242D01*
X83655001Y-103675200D01*
X81131430Y-103675200D01*
X81198771Y-103513026D01*
X81198988Y-103264385D01*
X81120818Y-103075200D01*
X85339524Y-103075200D01*
X86745910Y-104481586D01*
X86745812Y-104593975D01*
X86840762Y-104823771D01*
X87016424Y-104999740D01*
X87246054Y-105095091D01*
X87494695Y-105095308D01*
X87724491Y-105000358D01*
X87900460Y-104824696D01*
X87995811Y-104595066D01*
X87996028Y-104346425D01*
X87901078Y-104116629D01*
X87725416Y-103940660D01*
X87495786Y-103845309D01*
X87382326Y-103845210D01*
X85844118Y-102307002D01*
X85773607Y-102259888D01*
X85698128Y-102209454D01*
X85525920Y-102175200D01*
X73592150Y-102175200D01*
X73567150Y-102150200D01*
X72948400Y-102150200D01*
X72948400Y-102170200D01*
X72898400Y-102170200D01*
X72898400Y-102150200D01*
X72279650Y-102150200D01*
X72198400Y-102231450D01*
X72198400Y-102289846D01*
X72233297Y-102374096D01*
X72218140Y-102396280D01*
X72192033Y-102525200D01*
X65032840Y-102525200D01*
X65032840Y-99025200D01*
X72192033Y-99025200D01*
X72192033Y-99225200D01*
X72214695Y-99345638D01*
X72233148Y-99374315D01*
X72218140Y-99396280D01*
X72192033Y-99525200D01*
X72192033Y-99725200D01*
X72214695Y-99845638D01*
X72233148Y-99874315D01*
X72218140Y-99896280D01*
X72192033Y-100025200D01*
X72192033Y-100225200D01*
X72214695Y-100345638D01*
X72233148Y-100374315D01*
X72218140Y-100396280D01*
X72192033Y-100525200D01*
X72192033Y-100725200D01*
X72214695Y-100845638D01*
X72233148Y-100874315D01*
X72218140Y-100896280D01*
X72192033Y-101025200D01*
X72192033Y-101225200D01*
X72214695Y-101345638D01*
X72233148Y-101374315D01*
X72218140Y-101396280D01*
X72192033Y-101525200D01*
X72192033Y-101725200D01*
X72214695Y-101845638D01*
X72233740Y-101875235D01*
X72198400Y-101960554D01*
X72198400Y-102018950D01*
X72279650Y-102100200D01*
X72898400Y-102100200D01*
X72898400Y-102080200D01*
X72948400Y-102080200D01*
X72948400Y-102100200D01*
X73567150Y-102100200D01*
X73648400Y-102018950D01*
X73648400Y-101960554D01*
X73613503Y-101876304D01*
X73628660Y-101854120D01*
X73654767Y-101725200D01*
X73654767Y-101525200D01*
X73632105Y-101404762D01*
X73613652Y-101376085D01*
X73628660Y-101354120D01*
X73651531Y-101241175D01*
X80451692Y-101241175D01*
X80546642Y-101470971D01*
X80722304Y-101646940D01*
X80951934Y-101742291D01*
X81200575Y-101742508D01*
X81430371Y-101647558D01*
X81606340Y-101471896D01*
X81701691Y-101242266D01*
X81701908Y-100993625D01*
X81606958Y-100763829D01*
X81551800Y-100708575D01*
X81551800Y-93468775D01*
X98968292Y-93468775D01*
X99063242Y-93698571D01*
X99238904Y-93874540D01*
X99468534Y-93969891D01*
X99717175Y-93970108D01*
X99946971Y-93875158D01*
X100027269Y-93795000D01*
X140806464Y-93795000D01*
X157246150Y-110234686D01*
X157246052Y-110347075D01*
X157341002Y-110576871D01*
X157516664Y-110752840D01*
X157746294Y-110848191D01*
X157994935Y-110848408D01*
X158224731Y-110753458D01*
X158400700Y-110577796D01*
X158496051Y-110348166D01*
X158496268Y-110099525D01*
X158401318Y-109869729D01*
X158225656Y-109693760D01*
X157996026Y-109598409D01*
X157882566Y-109598310D01*
X141311058Y-93026802D01*
X141258119Y-92991429D01*
X141165068Y-92929254D01*
X140992860Y-92895000D01*
X100027297Y-92895000D01*
X99947896Y-92815460D01*
X99718266Y-92720109D01*
X99469625Y-92719892D01*
X99239829Y-92814842D01*
X99063860Y-92990504D01*
X98968509Y-93220134D01*
X98968292Y-93468775D01*
X81551800Y-93468775D01*
X81551800Y-82378452D01*
X86112252Y-77818000D01*
X147499168Y-77818000D01*
X160621960Y-90940791D01*
X160621960Y-105539539D01*
X160567420Y-105593984D01*
X160472069Y-105823614D01*
X160471852Y-106072255D01*
X160566802Y-106302051D01*
X160742464Y-106478020D01*
X160972094Y-106573371D01*
X161220735Y-106573588D01*
X161450531Y-106478638D01*
X161626500Y-106302976D01*
X161721851Y-106073346D01*
X161722068Y-105824705D01*
X161627118Y-105594909D01*
X161571960Y-105539655D01*
X161571960Y-90744045D01*
X161571961Y-90744040D01*
X161535804Y-90562266D01*
X161501637Y-90511132D01*
X161432836Y-90408164D01*
X161432833Y-90408162D01*
X148523030Y-77498358D01*
X158121998Y-77498358D01*
X158410765Y-77846356D01*
X159435432Y-78307992D01*
X160558761Y-78342365D01*
X161609736Y-77944243D01*
X161756235Y-77846356D01*
X162045002Y-77498358D01*
X160083500Y-75536855D01*
X158121998Y-77498358D01*
X148523030Y-77498358D01*
X148031796Y-77007124D01*
X147877695Y-76904157D01*
X147695920Y-76868000D01*
X85915500Y-76868000D01*
X85733725Y-76904157D01*
X85579624Y-77007124D01*
X80740924Y-81845824D01*
X80637957Y-81999925D01*
X80601800Y-82181700D01*
X80601800Y-100708459D01*
X80547260Y-100762904D01*
X80451909Y-100992534D01*
X80451692Y-101241175D01*
X73651531Y-101241175D01*
X73654767Y-101225200D01*
X73654767Y-101025200D01*
X73632105Y-100904762D01*
X73613652Y-100876085D01*
X73628660Y-100854120D01*
X73654767Y-100725200D01*
X73654767Y-100525200D01*
X73632105Y-100404762D01*
X73613652Y-100376085D01*
X73628660Y-100354120D01*
X73654767Y-100225200D01*
X73654767Y-100025200D01*
X73632105Y-99904762D01*
X73613652Y-99876085D01*
X73628660Y-99854120D01*
X73654767Y-99725200D01*
X73654767Y-99525200D01*
X73632105Y-99404762D01*
X73613652Y-99376085D01*
X73628660Y-99354120D01*
X73654767Y-99225200D01*
X73654767Y-99025200D01*
X73632105Y-98904762D01*
X73560926Y-98794147D01*
X73452320Y-98719940D01*
X73323400Y-98693833D01*
X72523400Y-98693833D01*
X72402962Y-98716495D01*
X72292347Y-98787674D01*
X72218140Y-98896280D01*
X72192033Y-99025200D01*
X65032840Y-99025200D01*
X65032840Y-97331450D01*
X69098400Y-97331450D01*
X69098400Y-98039846D01*
X69147878Y-98159297D01*
X69239302Y-98250721D01*
X69358753Y-98300200D01*
X70317150Y-98300200D01*
X70398400Y-98218950D01*
X70398400Y-97250200D01*
X70448400Y-97250200D01*
X70448400Y-98218950D01*
X70529650Y-98300200D01*
X71488047Y-98300200D01*
X71607498Y-98250721D01*
X71698922Y-98159297D01*
X71748400Y-98039846D01*
X71748400Y-97331450D01*
X71667150Y-97250200D01*
X70448400Y-97250200D01*
X70398400Y-97250200D01*
X69179650Y-97250200D01*
X69098400Y-97331450D01*
X65032840Y-97331450D01*
X65032840Y-96410554D01*
X69098400Y-96410554D01*
X69098400Y-97118950D01*
X69179650Y-97200200D01*
X70398400Y-97200200D01*
X70398400Y-96231450D01*
X70448400Y-96231450D01*
X70448400Y-97200200D01*
X71667150Y-97200200D01*
X71748400Y-97118950D01*
X71748400Y-96410554D01*
X71698922Y-96291103D01*
X71607498Y-96199679D01*
X71488047Y-96150200D01*
X70529650Y-96150200D01*
X70448400Y-96231450D01*
X70398400Y-96231450D01*
X70317150Y-96150200D01*
X69358753Y-96150200D01*
X69239302Y-96199679D01*
X69147878Y-96291103D01*
X69098400Y-96410554D01*
X65032840Y-96410554D01*
X65032840Y-77498358D01*
X65538998Y-77498358D01*
X65827765Y-77846356D01*
X66852432Y-78307992D01*
X67975761Y-78342365D01*
X69026736Y-77944243D01*
X69173235Y-77846356D01*
X69462002Y-77498358D01*
X67500500Y-75536855D01*
X65538998Y-77498358D01*
X65032840Y-77498358D01*
X65032840Y-76961959D01*
X65057757Y-77027736D01*
X65155644Y-77174235D01*
X65503642Y-77463002D01*
X67465145Y-75501500D01*
X67535855Y-75501500D01*
X69497358Y-77463002D01*
X69845356Y-77174235D01*
X70306992Y-76149568D01*
X70312279Y-75976761D01*
X157242635Y-75976761D01*
X157640757Y-77027736D01*
X157738644Y-77174235D01*
X158086642Y-77463002D01*
X160048145Y-75501500D01*
X158086642Y-73539998D01*
X157738644Y-73828765D01*
X157277008Y-74853432D01*
X157242635Y-75976761D01*
X70312279Y-75976761D01*
X70341365Y-75026239D01*
X69943243Y-73975264D01*
X69845356Y-73828765D01*
X69497358Y-73539998D01*
X67535855Y-75501500D01*
X67465145Y-75501500D01*
X65503642Y-73539998D01*
X65155644Y-73828765D01*
X65032840Y-74101346D01*
X65032840Y-73064320D01*
X65965938Y-73064320D01*
X65827765Y-73156644D01*
X65827765Y-73156644D01*
G37*
X65827765Y-73156644D02*
X65538998Y-73504642D01*
X67500500Y-75466145D01*
X69462002Y-73504642D01*
X69173235Y-73156644D01*
X68968309Y-73064320D01*
X158548938Y-73064320D01*
X158410765Y-73156644D01*
X158121998Y-73504642D01*
X160083500Y-75466145D01*
X162045002Y-73504642D01*
X161756235Y-73156644D01*
X161551309Y-73064320D01*
X162551160Y-73064320D01*
X162551160Y-74041041D01*
X162526243Y-73975264D01*
X162428356Y-73828765D01*
X162080358Y-73539998D01*
X160118855Y-75501500D01*
X162080358Y-77463002D01*
X162428356Y-77174235D01*
X162551160Y-76901654D01*
X162551160Y-136271041D01*
X162526243Y-136205264D01*
X162428356Y-136058765D01*
X162080358Y-135769998D01*
X160118855Y-137731500D01*
X162080358Y-139693002D01*
X162428356Y-139404235D01*
X162551160Y-139131654D01*
X162551160Y-140138200D01*
X161663678Y-140138200D01*
X161756235Y-140076356D01*
X162045002Y-139728358D01*
X160083500Y-137766855D01*
X158121998Y-139728358D01*
X158410765Y-140076356D01*
X158548037Y-140138200D01*
X69174609Y-140138200D01*
X69462002Y-139791858D01*
X67500500Y-137830355D01*
X65538998Y-139791858D01*
X65826391Y-140138200D01*
X65032840Y-140138200D01*
X65032840Y-139255459D01*
X65057757Y-139321236D01*
X65155644Y-139467735D01*
X65503642Y-139756502D01*
X67465145Y-137795000D01*
X67535855Y-137795000D01*
X69497358Y-139756502D01*
X69845356Y-139467735D01*
X70306992Y-138443068D01*
X70341365Y-137319739D01*
X69943243Y-136268764D01*
X69845356Y-136122265D01*
X69497358Y-135833498D01*
X67535855Y-137795000D01*
X67465145Y-137795000D01*
X65503642Y-135833498D01*
X65155644Y-136122265D01*
X65032840Y-136394846D01*
X65032840Y-135798142D01*
X65538998Y-135798142D01*
X67500500Y-137759645D01*
X69462002Y-135798142D01*
X69173235Y-135450144D01*
X68148568Y-134988508D01*
X67025239Y-134954135D01*
X65974264Y-135352257D01*
X65827765Y-135450144D01*
X65538998Y-135798142D01*
X65032840Y-135798142D01*
X65032840Y-134381800D01*
X71298714Y-134381800D01*
X71298714Y-139831800D01*
X130377287Y-139831800D01*
X130377287Y-138206761D01*
X157242635Y-138206761D01*
X157640757Y-139257736D01*
X157738644Y-139404235D01*
X158086642Y-139693002D01*
X160048145Y-137731500D01*
X158086642Y-135769998D01*
X157738644Y-136058765D01*
X157277008Y-137083432D01*
X157242635Y-138206761D01*
X130377287Y-138206761D01*
X130377287Y-135734642D01*
X158121998Y-135734642D01*
X160083500Y-137696145D01*
X162045002Y-135734642D01*
X161756235Y-135386644D01*
X160731568Y-134925008D01*
X159608239Y-134890635D01*
X158557264Y-135288757D01*
X158410765Y-135386644D01*
X158121998Y-135734642D01*
X130377287Y-135734642D01*
X130377287Y-134381800D01*
X71298714Y-134381800D01*
X65032840Y-134381800D01*
X65032840Y-115631450D01*
X69098400Y-115631450D01*
X69098400Y-116339846D01*
X69147878Y-116459297D01*
X69239302Y-116550721D01*
X69358753Y-116600200D01*
X70317150Y-116600200D01*
X70398400Y-116518950D01*
X70398400Y-115550200D01*
X70448400Y-115550200D01*
X70448400Y-116518950D01*
X70529650Y-116600200D01*
X71488047Y-116600200D01*
X71607498Y-116550721D01*
X71698922Y-116459297D01*
X71748400Y-116339846D01*
X71748400Y-115631450D01*
X71667150Y-115550200D01*
X70448400Y-115550200D01*
X70398400Y-115550200D01*
X69179650Y-115550200D01*
X69098400Y-115631450D01*
X65032840Y-115631450D01*
X65032840Y-114710554D01*
X69098400Y-114710554D01*
X69098400Y-115418950D01*
X69179650Y-115500200D01*
X70398400Y-115500200D01*
X70398400Y-114531450D01*
X70448400Y-114531450D01*
X70448400Y-115500200D01*
X71667150Y-115500200D01*
X71748400Y-115418950D01*
X71748400Y-114710554D01*
X71698922Y-114591103D01*
X71607498Y-114499679D01*
X71488047Y-114450200D01*
X70529650Y-114450200D01*
X70448400Y-114531450D01*
X70398400Y-114531450D01*
X70317150Y-114450200D01*
X69358753Y-114450200D01*
X69239302Y-114499679D01*
X69147878Y-114591103D01*
X69098400Y-114710554D01*
X65032840Y-114710554D01*
X65032840Y-113731450D01*
X72198400Y-113731450D01*
X72198400Y-113789846D01*
X72247878Y-113909297D01*
X72339302Y-114000721D01*
X72458753Y-114050200D01*
X72817150Y-114050200D01*
X72898400Y-113968950D01*
X72898400Y-113650200D01*
X72948400Y-113650200D01*
X72948400Y-113968950D01*
X73029650Y-114050200D01*
X73388047Y-114050200D01*
X73507498Y-114000721D01*
X73598922Y-113909297D01*
X73648400Y-113789846D01*
X73648400Y-113731450D01*
X73567150Y-113650200D01*
X72948400Y-113650200D01*
X72898400Y-113650200D01*
X72279650Y-113650200D01*
X72198400Y-113731450D01*
X65032840Y-113731450D01*
X65032840Y-102525200D01*
X72192033Y-102525200D01*
X72192033Y-102725200D01*
X72214695Y-102845638D01*
X72233740Y-102875235D01*
X72198400Y-102960554D01*
X72198400Y-103018950D01*
X72279650Y-103100200D01*
X72898400Y-103100200D01*
X72898400Y-103080200D01*
X72948400Y-103080200D01*
X72948400Y-103100200D01*
X73567150Y-103100200D01*
X73592150Y-103075200D01*
X80027093Y-103075200D01*
X79985569Y-103175200D01*
X73592150Y-103175200D01*
X73567150Y-103150200D01*
X72948400Y-103150200D01*
X72948400Y-103170200D01*
X72898400Y-103170200D01*
X72898400Y-103150200D01*
X72279650Y-103150200D01*
X72198400Y-103231450D01*
X72198400Y-103289846D01*
X72233297Y-103374096D01*
X72218140Y-103396280D01*
X72192033Y-103525200D01*
X72192033Y-103725200D01*
X72214695Y-103845638D01*
X72233148Y-103874315D01*
X72218140Y-103896280D01*
X72192033Y-104025200D01*
X72192033Y-104225200D01*
X72214695Y-104345638D01*
X72233148Y-104374315D01*
X72218140Y-104396280D01*
X72192033Y-104525200D01*
X72192033Y-104725200D01*
X72214695Y-104845638D01*
X72233740Y-104875235D01*
X72198400Y-104960554D01*
X72198400Y-105018950D01*
X72279650Y-105100200D01*
X72898400Y-105100200D01*
X72898400Y-105080200D01*
X72948400Y-105080200D01*
X72948400Y-105100200D01*
X73567150Y-105100200D01*
X73592150Y-105075200D01*
X73755604Y-105075200D01*
X73819600Y-105139196D01*
X73819600Y-105147404D01*
X73791804Y-105175200D01*
X73592150Y-105175200D01*
X73567150Y-105150200D01*
X72948400Y-105150200D01*
X72948400Y-105170200D01*
X72898400Y-105170200D01*
X72898400Y-105150200D01*
X72279650Y-105150200D01*
X72198400Y-105231450D01*
X72198400Y-105289846D01*
X72233297Y-105374096D01*
X72218140Y-105396280D01*
X72192033Y-105525200D01*
X72192033Y-105725200D01*
X72214695Y-105845638D01*
X72233148Y-105874315D01*
X72218140Y-105896280D01*
X72192033Y-106025200D01*
X72192033Y-106225200D01*
X72214695Y-106345638D01*
X72233148Y-106374315D01*
X72218140Y-106396280D01*
X72192033Y-106525200D01*
X72192033Y-106725200D01*
X72214695Y-106845638D01*
X72233148Y-106874315D01*
X72218140Y-106896280D01*
X72192033Y-107025200D01*
X72192033Y-107225200D01*
X72214695Y-107345638D01*
X72233148Y-107374315D01*
X72218140Y-107396280D01*
X72192033Y-107525200D01*
X72192033Y-107725200D01*
X72214695Y-107845638D01*
X72233740Y-107875235D01*
X72198400Y-107960554D01*
X72198400Y-108018950D01*
X72279650Y-108100200D01*
X72898400Y-108100200D01*
X72898400Y-108080200D01*
X72948400Y-108080200D01*
X72948400Y-108100200D01*
X73567150Y-108100200D01*
X73592150Y-108075200D01*
X82743868Y-108075200D01*
X82633309Y-108120882D01*
X82578896Y-108175200D01*
X73592150Y-108175200D01*
X73567150Y-108150200D01*
X72948400Y-108150200D01*
X72948400Y-108170200D01*
X72898400Y-108170200D01*
X72898400Y-108150200D01*
X72279650Y-108150200D01*
X72198400Y-108231450D01*
X72198400Y-108289846D01*
X72233297Y-108374096D01*
X72218140Y-108396280D01*
X72192033Y-108525200D01*
X72192033Y-108725200D01*
X72214695Y-108845638D01*
X72233740Y-108875235D01*
X72198400Y-108960554D01*
X72198400Y-109018950D01*
X72279650Y-109100200D01*
X72898400Y-109100200D01*
X72898400Y-109080200D01*
X72948400Y-109080200D01*
X72948400Y-109100200D01*
X73567150Y-109100200D01*
X73592150Y-109075200D01*
X82527188Y-109075200D01*
X82627013Y-109175200D01*
X73592150Y-109175200D01*
X73567150Y-109150200D01*
X72948400Y-109150200D01*
X72948400Y-109170200D01*
X72898400Y-109170200D01*
X72898400Y-109150200D01*
X72279650Y-109150200D01*
X72198400Y-109231450D01*
X72198400Y-109289846D01*
X72233297Y-109374096D01*
X72218140Y-109396280D01*
X72192033Y-109525200D01*
X72192033Y-109725200D01*
X72214695Y-109845638D01*
X72233148Y-109874315D01*
X72218140Y-109896280D01*
X72192033Y-110025200D01*
X72192033Y-110225200D01*
X72214695Y-110345638D01*
X72233740Y-110375235D01*
X72198400Y-110460554D01*
X72198400Y-110518950D01*
X72279650Y-110600200D01*
X72898400Y-110600200D01*
X72898400Y-110580200D01*
X72948400Y-110580200D01*
X72948400Y-110600200D01*
X73567150Y-110600200D01*
X73592150Y-110575200D01*
X144759444Y-110575200D01*
X144659444Y-110675200D01*
X73592150Y-110675200D01*
X73567150Y-110650200D01*
X72948400Y-110650200D01*
X72948400Y-110670200D01*
X72898400Y-110670200D01*
X72898400Y-110650200D01*
X72279650Y-110650200D01*
X72198400Y-110731450D01*
X72198400Y-110789846D01*
X72233297Y-110874096D01*
X72218140Y-110896280D01*
X72192033Y-111025200D01*
X72192033Y-111225200D01*
X72214695Y-111345638D01*
X72233148Y-111374315D01*
X72218140Y-111396280D01*
X72192033Y-111525200D01*
X72192033Y-111725200D01*
X72214695Y-111845638D01*
X72233740Y-111875235D01*
X72198400Y-111960554D01*
X72198400Y-112018950D01*
X72279650Y-112100200D01*
X72898400Y-112100200D01*
X72898400Y-112080200D01*
X72948400Y-112080200D01*
X72948400Y-112100200D01*
X73567150Y-112100200D01*
X73592150Y-112075200D01*
X97048236Y-112075200D01*
X96892160Y-112231004D01*
X96796809Y-112460634D01*
X96796592Y-112709275D01*
X96891542Y-112939071D01*
X97067204Y-113115040D01*
X97296834Y-113210391D01*
X97410294Y-113210490D01*
X100441062Y-116241258D01*
X100587053Y-116338807D01*
X100759260Y-116373060D01*
X114203923Y-116373060D01*
X114283324Y-116452600D01*
X114512954Y-116547951D01*
X114761595Y-116548168D01*
X114991391Y-116453218D01*
X115167360Y-116277556D01*
X115262711Y-116047926D01*
X115262928Y-115799285D01*
X115167978Y-115569489D01*
X114992316Y-115393520D01*
X114762686Y-115298169D01*
X114514045Y-115297952D01*
X114284249Y-115392902D01*
X114203951Y-115473060D01*
X100945656Y-115473060D01*
X98046710Y-112574114D01*
X98046808Y-112461725D01*
X97951858Y-112231929D01*
X97795402Y-112075200D01*
X102562404Y-112075200D01*
X102519429Y-112178694D01*
X102519212Y-112427335D01*
X102614162Y-112657131D01*
X102789824Y-112833100D01*
X103019454Y-112928451D01*
X103227054Y-112928632D01*
X103303239Y-112985884D01*
X103354282Y-113010421D01*
X103401372Y-113041886D01*
X103432698Y-113048117D01*
X103461486Y-113061956D01*
X103518036Y-113065092D01*
X103573580Y-113076140D01*
X114339664Y-113076140D01*
X115501000Y-114237476D01*
X115501000Y-116718523D01*
X115421460Y-116797924D01*
X115326109Y-117027554D01*
X115325892Y-117276195D01*
X115420842Y-117505991D01*
X115596504Y-117681960D01*
X115826134Y-117777311D01*
X116074775Y-117777528D01*
X116304571Y-117682578D01*
X116480540Y-117506916D01*
X116575891Y-117277286D01*
X116576108Y-117028645D01*
X116481158Y-116798849D01*
X116401000Y-116718551D01*
X116401000Y-114051080D01*
X116366746Y-113878872D01*
X116269198Y-113732882D01*
X114844258Y-112307942D01*
X114823612Y-112294147D01*
X114698268Y-112210394D01*
X114526060Y-112176140D01*
X103767922Y-112176140D01*
X103726214Y-112075200D01*
X132912766Y-112075200D01*
X132911900Y-112076064D01*
X132816549Y-112305694D01*
X132816332Y-112554335D01*
X132911282Y-112784131D01*
X133086944Y-112960100D01*
X133316574Y-113055451D01*
X133500806Y-113055612D01*
X134136495Y-113691300D01*
X134136497Y-113691303D01*
X134266267Y-113778012D01*
X134419340Y-113808460D01*
X142555888Y-113808460D01*
X142483789Y-113982094D01*
X142483690Y-114095554D01*
X138004844Y-118574400D01*
X100658636Y-118574400D01*
X94391238Y-112307002D01*
X94331823Y-112267302D01*
X94245248Y-112209454D01*
X94073040Y-112175200D01*
X73592150Y-112175200D01*
X73567150Y-112150200D01*
X72948400Y-112150200D01*
X72948400Y-112170200D01*
X72898400Y-112170200D01*
X72898400Y-112150200D01*
X72279650Y-112150200D01*
X72198400Y-112231450D01*
X72198400Y-112289846D01*
X72233297Y-112374096D01*
X72218140Y-112396280D01*
X72192033Y-112525200D01*
X72192033Y-112725200D01*
X72214695Y-112845638D01*
X72233148Y-112874315D01*
X72218140Y-112896280D01*
X72192033Y-113025200D01*
X72192033Y-113225200D01*
X72214695Y-113345638D01*
X72233740Y-113375235D01*
X72198400Y-113460554D01*
X72198400Y-113518950D01*
X72279650Y-113600200D01*
X72898400Y-113600200D01*
X72898400Y-113580200D01*
X72948400Y-113580200D01*
X72948400Y-113600200D01*
X73567150Y-113600200D01*
X73592150Y-113575200D01*
X93330004Y-113575200D01*
X99740022Y-119985218D01*
X99886013Y-120082767D01*
X100058220Y-120117020D01*
X139085320Y-120117020D01*
X139257528Y-120082766D01*
X139403518Y-119985218D01*
X142700966Y-116687770D01*
X142813355Y-116687868D01*
X143043151Y-116592918D01*
X143219120Y-116417256D01*
X143314471Y-116187626D01*
X143314688Y-115938985D01*
X143219738Y-115709189D01*
X143044076Y-115533220D01*
X142814446Y-115437869D01*
X142565805Y-115437652D01*
X142336009Y-115532602D01*
X142160040Y-115708264D01*
X142064689Y-115937894D01*
X142064590Y-116051354D01*
X138898924Y-119217020D01*
X138635016Y-119217020D01*
X143120066Y-114731970D01*
X143232455Y-114732068D01*
X143462251Y-114637118D01*
X143638220Y-114461456D01*
X143733571Y-114231826D01*
X143733788Y-113983185D01*
X143661593Y-113808460D01*
X152795030Y-113808460D01*
X152924344Y-113938000D01*
X153153974Y-114033351D01*
X153402615Y-114033568D01*
X153632411Y-113938618D01*
X153808380Y-113762956D01*
X153903731Y-113533326D01*
X153903948Y-113284685D01*
X153808998Y-113054889D01*
X153633336Y-112878920D01*
X153403706Y-112783569D01*
X153155065Y-112783352D01*
X152925269Y-112878302D01*
X152794884Y-113008460D01*
X134585025Y-113008460D01*
X134066388Y-112489823D01*
X134066548Y-112306785D01*
X133971598Y-112076989D01*
X133969812Y-112075200D01*
X145260240Y-112075200D01*
X145432448Y-112040946D01*
X145578438Y-111943398D01*
X148179544Y-109342292D01*
X148155609Y-109399934D01*
X148155392Y-109648575D01*
X148250342Y-109878371D01*
X148330500Y-109958669D01*
X148330500Y-110279180D01*
X148364754Y-110451388D01*
X148424595Y-110540946D01*
X148462302Y-110597378D01*
X150390162Y-112525238D01*
X150536152Y-112622786D01*
X150708360Y-112657040D01*
X158224220Y-112657040D01*
X158396428Y-112622786D01*
X158542418Y-112525238D01*
X159268858Y-111798798D01*
X159366406Y-111652808D01*
X159400660Y-111480600D01*
X159400660Y-108106433D01*
X159469522Y-108273091D01*
X159645184Y-108449060D01*
X159874814Y-108544411D01*
X160123455Y-108544628D01*
X160353251Y-108449678D01*
X160407874Y-108395150D01*
X160636800Y-108624076D01*
X160636800Y-125073704D01*
X157788904Y-127921600D01*
X103043696Y-127921600D01*
X102771110Y-127649014D01*
X102771208Y-127536625D01*
X102676258Y-127306829D01*
X102500596Y-127130860D01*
X102270966Y-127035509D01*
X102022325Y-127035292D01*
X101792529Y-127130242D01*
X101616560Y-127305904D01*
X101521209Y-127535534D01*
X101520992Y-127784175D01*
X101615942Y-128013971D01*
X101791604Y-128189940D01*
X102021234Y-128285291D01*
X102134694Y-128285390D01*
X102539102Y-128689798D01*
X102685092Y-128787346D01*
X102857300Y-128821600D01*
X157975300Y-128821600D01*
X158147508Y-128787346D01*
X158293498Y-128689798D01*
X161404998Y-125578298D01*
X161502546Y-125432308D01*
X161536800Y-125260100D01*
X161536800Y-108437680D01*
X161502546Y-108265472D01*
X161404998Y-108119482D01*
X160886838Y-107601322D01*
X160740848Y-107503774D01*
X160568640Y-107469520D01*
X160433577Y-107469520D01*
X160354176Y-107389980D01*
X160124546Y-107294629D01*
X159875905Y-107294412D01*
X159646109Y-107389362D01*
X159470140Y-107565024D01*
X159400660Y-107732350D01*
X159400660Y-104924860D01*
X159390050Y-104871520D01*
X159366407Y-104752653D01*
X159311491Y-104670467D01*
X159311608Y-104536925D01*
X159216658Y-104307129D01*
X159040996Y-104131160D01*
X158811366Y-104035809D01*
X158562725Y-104035592D01*
X158332929Y-104130542D01*
X158156960Y-104306204D01*
X158061609Y-104535834D01*
X158061392Y-104784475D01*
X158156342Y-105014271D01*
X158332004Y-105190240D01*
X158500660Y-105260272D01*
X158500660Y-111294204D01*
X158037824Y-111757040D01*
X152413133Y-111757040D01*
X152472340Y-111697936D01*
X152567691Y-111468306D01*
X152567908Y-111219665D01*
X152472958Y-110989869D01*
X152297296Y-110813900D01*
X152220080Y-110781837D01*
X152220080Y-105897680D01*
X152185826Y-105725472D01*
X152088278Y-105579482D01*
X141631931Y-95123135D01*
X141538258Y-94896429D01*
X141362596Y-94720460D01*
X141132966Y-94625109D01*
X140884325Y-94624892D01*
X140654529Y-94719842D01*
X140478560Y-94895504D01*
X140383209Y-95125134D01*
X140382992Y-95373775D01*
X140477942Y-95603571D01*
X140653604Y-95779540D01*
X140883234Y-95874891D01*
X141111094Y-95875090D01*
X149924224Y-104688220D01*
X149601896Y-104688220D01*
X148290450Y-103376774D01*
X148290548Y-103264385D01*
X148195598Y-103034589D01*
X148019936Y-102858620D01*
X147790306Y-102763269D01*
X147541665Y-102763052D01*
X147311869Y-102858002D01*
X147135900Y-103033664D01*
X147040549Y-103263294D01*
X147040332Y-103511935D01*
X147135282Y-103741731D01*
X147310944Y-103917700D01*
X147540574Y-104013051D01*
X147654034Y-104013150D01*
X149097302Y-105456418D01*
X149243293Y-105553967D01*
X149415500Y-105588220D01*
X149963164Y-105588220D01*
X150593640Y-106218696D01*
X150593640Y-106428276D01*
X150438016Y-106272380D01*
X150208386Y-106177029D01*
X149959745Y-106176812D01*
X149729949Y-106271762D01*
X149553980Y-106447424D01*
X149458629Y-106677054D01*
X149458530Y-106790514D01*
X149104091Y-107144953D01*
X149074438Y-107073189D01*
X148898776Y-106897220D01*
X148669146Y-106801869D01*
X148420505Y-106801652D01*
X148190709Y-106896602D01*
X148014740Y-107072264D01*
X147919389Y-107301894D01*
X147919290Y-107415354D01*
X147580091Y-107754553D01*
X147550438Y-107682789D01*
X147374776Y-107506820D01*
X147145146Y-107411469D01*
X146896505Y-107411252D01*
X146666709Y-107506202D01*
X146490740Y-107681864D01*
X146395389Y-107911494D01*
X146395290Y-108024954D01*
X146068834Y-108351410D01*
X146021358Y-108236509D01*
X145845696Y-108060540D01*
X145616066Y-107965189D01*
X145367425Y-107964972D01*
X145137629Y-108059922D01*
X144961660Y-108235584D01*
X144866309Y-108465214D01*
X144866210Y-108578674D01*
X144269684Y-109175200D01*
X83346459Y-109175200D01*
X83516420Y-109005536D01*
X83611771Y-108775906D01*
X83611988Y-108527265D01*
X83517038Y-108297469D01*
X83341376Y-108121500D01*
X83229874Y-108075200D01*
X100192520Y-108075200D01*
X100364728Y-108040946D01*
X100510718Y-107943398D01*
X102957610Y-105496506D01*
X103097915Y-105496628D01*
X103327711Y-105401678D01*
X103503680Y-105226016D01*
X103599031Y-104996386D01*
X103599154Y-104854962D01*
X104905516Y-103548600D01*
X113505423Y-103548600D01*
X113584824Y-103628140D01*
X113814454Y-103723491D01*
X114063095Y-103723708D01*
X114292891Y-103628758D01*
X114468860Y-103453096D01*
X114564211Y-103223466D01*
X114564428Y-102974825D01*
X114469478Y-102745029D01*
X114293816Y-102569060D01*
X114064186Y-102473709D01*
X113815545Y-102473492D01*
X113585749Y-102568442D01*
X113505451Y-102648600D01*
X104719120Y-102648600D01*
X104546912Y-102682854D01*
X104453861Y-102745029D01*
X104400922Y-102780402D01*
X102934838Y-104246486D01*
X102850365Y-104246412D01*
X102726507Y-104297589D01*
X104618218Y-102405878D01*
X104684285Y-102307002D01*
X104715766Y-102259888D01*
X104750020Y-102087680D01*
X104750020Y-101241417D01*
X104829560Y-101162016D01*
X104924911Y-100932386D01*
X104925128Y-100683745D01*
X104830178Y-100453949D01*
X104654516Y-100277980D01*
X104424886Y-100182629D01*
X104176245Y-100182412D01*
X103946449Y-100277362D01*
X103770480Y-100453024D01*
X103675129Y-100682654D01*
X103674912Y-100931295D01*
X103769862Y-101161091D01*
X103850020Y-101241389D01*
X103850020Y-101901284D01*
X99076104Y-106675200D01*
X94580556Y-106675200D01*
X94712759Y-106542997D01*
X94840375Y-106543108D01*
X95070171Y-106448158D01*
X95246140Y-106272496D01*
X95341491Y-106042866D01*
X95341708Y-105794225D01*
X95246758Y-105564429D01*
X95071096Y-105388460D01*
X94878099Y-105308321D01*
X95070171Y-105228958D01*
X95246140Y-105053296D01*
X95341491Y-104823666D01*
X95341708Y-104575025D01*
X95246758Y-104345229D01*
X95071096Y-104169260D01*
X94841466Y-104073909D01*
X94592825Y-104073692D01*
X94363029Y-104168642D01*
X94187060Y-104344304D01*
X94091709Y-104573934D01*
X94091610Y-104687394D01*
X93103804Y-105675200D01*
X74564596Y-105675200D01*
X74587798Y-105651998D01*
X74646928Y-105563504D01*
X74685346Y-105506008D01*
X74705875Y-105402800D01*
X85011260Y-105402800D01*
X85183468Y-105368546D01*
X85329458Y-105270998D01*
X85507786Y-105092670D01*
X85620175Y-105092768D01*
X85849971Y-104997818D01*
X86025940Y-104822156D01*
X86121291Y-104592526D01*
X86121508Y-104343885D01*
X86026558Y-104114089D01*
X85850896Y-103938120D01*
X85621266Y-103842769D01*
X85372625Y-103842552D01*
X85142829Y-103937502D01*
X84966860Y-104113164D01*
X84871509Y-104342794D01*
X84871410Y-104456254D01*
X84824864Y-104502800D01*
X84585239Y-104502800D01*
X84673491Y-104290266D01*
X84673708Y-104041625D01*
X84578758Y-103811829D01*
X84403096Y-103635860D01*
X84173466Y-103540509D01*
X83924825Y-103540292D01*
X83695029Y-103635242D01*
X83655001Y-103675200D01*
X81131430Y-103675200D01*
X81198771Y-103513026D01*
X81198988Y-103264385D01*
X81120818Y-103075200D01*
X85339524Y-103075200D01*
X86745910Y-104481586D01*
X86745812Y-104593975D01*
X86840762Y-104823771D01*
X87016424Y-104999740D01*
X87246054Y-105095091D01*
X87494695Y-105095308D01*
X87724491Y-105000358D01*
X87900460Y-104824696D01*
X87995811Y-104595066D01*
X87996028Y-104346425D01*
X87901078Y-104116629D01*
X87725416Y-103940660D01*
X87495786Y-103845309D01*
X87382326Y-103845210D01*
X85844118Y-102307002D01*
X85773607Y-102259888D01*
X85698128Y-102209454D01*
X85525920Y-102175200D01*
X73592150Y-102175200D01*
X73567150Y-102150200D01*
X72948400Y-102150200D01*
X72948400Y-102170200D01*
X72898400Y-102170200D01*
X72898400Y-102150200D01*
X72279650Y-102150200D01*
X72198400Y-102231450D01*
X72198400Y-102289846D01*
X72233297Y-102374096D01*
X72218140Y-102396280D01*
X72192033Y-102525200D01*
X65032840Y-102525200D01*
X65032840Y-99025200D01*
X72192033Y-99025200D01*
X72192033Y-99225200D01*
X72214695Y-99345638D01*
X72233148Y-99374315D01*
X72218140Y-99396280D01*
X72192033Y-99525200D01*
X72192033Y-99725200D01*
X72214695Y-99845638D01*
X72233148Y-99874315D01*
X72218140Y-99896280D01*
X72192033Y-100025200D01*
X72192033Y-100225200D01*
X72214695Y-100345638D01*
X72233148Y-100374315D01*
X72218140Y-100396280D01*
X72192033Y-100525200D01*
X72192033Y-100725200D01*
X72214695Y-100845638D01*
X72233148Y-100874315D01*
X72218140Y-100896280D01*
X72192033Y-101025200D01*
X72192033Y-101225200D01*
X72214695Y-101345638D01*
X72233148Y-101374315D01*
X72218140Y-101396280D01*
X72192033Y-101525200D01*
X72192033Y-101725200D01*
X72214695Y-101845638D01*
X72233740Y-101875235D01*
X72198400Y-101960554D01*
X72198400Y-102018950D01*
X72279650Y-102100200D01*
X72898400Y-102100200D01*
X72898400Y-102080200D01*
X72948400Y-102080200D01*
X72948400Y-102100200D01*
X73567150Y-102100200D01*
X73648400Y-102018950D01*
X73648400Y-101960554D01*
X73613503Y-101876304D01*
X73628660Y-101854120D01*
X73654767Y-101725200D01*
X73654767Y-101525200D01*
X73632105Y-101404762D01*
X73613652Y-101376085D01*
X73628660Y-101354120D01*
X73651531Y-101241175D01*
X80451692Y-101241175D01*
X80546642Y-101470971D01*
X80722304Y-101646940D01*
X80951934Y-101742291D01*
X81200575Y-101742508D01*
X81430371Y-101647558D01*
X81606340Y-101471896D01*
X81701691Y-101242266D01*
X81701908Y-100993625D01*
X81606958Y-100763829D01*
X81551800Y-100708575D01*
X81551800Y-93468775D01*
X98968292Y-93468775D01*
X99063242Y-93698571D01*
X99238904Y-93874540D01*
X99468534Y-93969891D01*
X99717175Y-93970108D01*
X99946971Y-93875158D01*
X100027269Y-93795000D01*
X140806464Y-93795000D01*
X157246150Y-110234686D01*
X157246052Y-110347075D01*
X157341002Y-110576871D01*
X157516664Y-110752840D01*
X157746294Y-110848191D01*
X157994935Y-110848408D01*
X158224731Y-110753458D01*
X158400700Y-110577796D01*
X158496051Y-110348166D01*
X158496268Y-110099525D01*
X158401318Y-109869729D01*
X158225656Y-109693760D01*
X157996026Y-109598409D01*
X157882566Y-109598310D01*
X141311058Y-93026802D01*
X141258119Y-92991429D01*
X141165068Y-92929254D01*
X140992860Y-92895000D01*
X100027297Y-92895000D01*
X99947896Y-92815460D01*
X99718266Y-92720109D01*
X99469625Y-92719892D01*
X99239829Y-92814842D01*
X99063860Y-92990504D01*
X98968509Y-93220134D01*
X98968292Y-93468775D01*
X81551800Y-93468775D01*
X81551800Y-82378452D01*
X86112252Y-77818000D01*
X147499168Y-77818000D01*
X160621960Y-90940791D01*
X160621960Y-105539539D01*
X160567420Y-105593984D01*
X160472069Y-105823614D01*
X160471852Y-106072255D01*
X160566802Y-106302051D01*
X160742464Y-106478020D01*
X160972094Y-106573371D01*
X161220735Y-106573588D01*
X161450531Y-106478638D01*
X161626500Y-106302976D01*
X161721851Y-106073346D01*
X161722068Y-105824705D01*
X161627118Y-105594909D01*
X161571960Y-105539655D01*
X161571960Y-90744045D01*
X161571961Y-90744040D01*
X161535804Y-90562266D01*
X161501637Y-90511132D01*
X161432836Y-90408164D01*
X161432833Y-90408162D01*
X148523030Y-77498358D01*
X158121998Y-77498358D01*
X158410765Y-77846356D01*
X159435432Y-78307992D01*
X160558761Y-78342365D01*
X161609736Y-77944243D01*
X161756235Y-77846356D01*
X162045002Y-77498358D01*
X160083500Y-75536855D01*
X158121998Y-77498358D01*
X148523030Y-77498358D01*
X148031796Y-77007124D01*
X147877695Y-76904157D01*
X147695920Y-76868000D01*
X85915500Y-76868000D01*
X85733725Y-76904157D01*
X85579624Y-77007124D01*
X80740924Y-81845824D01*
X80637957Y-81999925D01*
X80601800Y-82181700D01*
X80601800Y-100708459D01*
X80547260Y-100762904D01*
X80451909Y-100992534D01*
X80451692Y-101241175D01*
X73651531Y-101241175D01*
X73654767Y-101225200D01*
X73654767Y-101025200D01*
X73632105Y-100904762D01*
X73613652Y-100876085D01*
X73628660Y-100854120D01*
X73654767Y-100725200D01*
X73654767Y-100525200D01*
X73632105Y-100404762D01*
X73613652Y-100376085D01*
X73628660Y-100354120D01*
X73654767Y-100225200D01*
X73654767Y-100025200D01*
X73632105Y-99904762D01*
X73613652Y-99876085D01*
X73628660Y-99854120D01*
X73654767Y-99725200D01*
X73654767Y-99525200D01*
X73632105Y-99404762D01*
X73613652Y-99376085D01*
X73628660Y-99354120D01*
X73654767Y-99225200D01*
X73654767Y-99025200D01*
X73632105Y-98904762D01*
X73560926Y-98794147D01*
X73452320Y-98719940D01*
X73323400Y-98693833D01*
X72523400Y-98693833D01*
X72402962Y-98716495D01*
X72292347Y-98787674D01*
X72218140Y-98896280D01*
X72192033Y-99025200D01*
X65032840Y-99025200D01*
X65032840Y-97331450D01*
X69098400Y-97331450D01*
X69098400Y-98039846D01*
X69147878Y-98159297D01*
X69239302Y-98250721D01*
X69358753Y-98300200D01*
X70317150Y-98300200D01*
X70398400Y-98218950D01*
X70398400Y-97250200D01*
X70448400Y-97250200D01*
X70448400Y-98218950D01*
X70529650Y-98300200D01*
X71488047Y-98300200D01*
X71607498Y-98250721D01*
X71698922Y-98159297D01*
X71748400Y-98039846D01*
X71748400Y-97331450D01*
X71667150Y-97250200D01*
X70448400Y-97250200D01*
X70398400Y-97250200D01*
X69179650Y-97250200D01*
X69098400Y-97331450D01*
X65032840Y-97331450D01*
X65032840Y-96410554D01*
X69098400Y-96410554D01*
X69098400Y-97118950D01*
X69179650Y-97200200D01*
X70398400Y-97200200D01*
X70398400Y-96231450D01*
X70448400Y-96231450D01*
X70448400Y-97200200D01*
X71667150Y-97200200D01*
X71748400Y-97118950D01*
X71748400Y-96410554D01*
X71698922Y-96291103D01*
X71607498Y-96199679D01*
X71488047Y-96150200D01*
X70529650Y-96150200D01*
X70448400Y-96231450D01*
X70398400Y-96231450D01*
X70317150Y-96150200D01*
X69358753Y-96150200D01*
X69239302Y-96199679D01*
X69147878Y-96291103D01*
X69098400Y-96410554D01*
X65032840Y-96410554D01*
X65032840Y-77498358D01*
X65538998Y-77498358D01*
X65827765Y-77846356D01*
X66852432Y-78307992D01*
X67975761Y-78342365D01*
X69026736Y-77944243D01*
X69173235Y-77846356D01*
X69462002Y-77498358D01*
X67500500Y-75536855D01*
X65538998Y-77498358D01*
X65032840Y-77498358D01*
X65032840Y-76961959D01*
X65057757Y-77027736D01*
X65155644Y-77174235D01*
X65503642Y-77463002D01*
X67465145Y-75501500D01*
X67535855Y-75501500D01*
X69497358Y-77463002D01*
X69845356Y-77174235D01*
X70306992Y-76149568D01*
X70312279Y-75976761D01*
X157242635Y-75976761D01*
X157640757Y-77027736D01*
X157738644Y-77174235D01*
X158086642Y-77463002D01*
X160048145Y-75501500D01*
X158086642Y-73539998D01*
X157738644Y-73828765D01*
X157277008Y-74853432D01*
X157242635Y-75976761D01*
X70312279Y-75976761D01*
X70341365Y-75026239D01*
X69943243Y-73975264D01*
X69845356Y-73828765D01*
X69497358Y-73539998D01*
X67535855Y-75501500D01*
X67465145Y-75501500D01*
X65503642Y-73539998D01*
X65155644Y-73828765D01*
X65032840Y-74101346D01*
X65032840Y-73064320D01*
X65965938Y-73064320D01*
X65827765Y-73156644D01*
M02*
