M48
METRIC,TZ
T1C0.400
T2C2.500
%
G90
G05
T1
X16073Y38618
X16576Y40889
X18486Y33355
X19548Y37841
X20996Y37539
X22870Y37536
X30216Y37308
X30216Y36088
X32921Y29421
X35093Y48661
X37645Y14346
X38473Y37135
X38644Y29703
X39799Y41199
X49439Y38908
X50137Y26083
X51450Y24854
X68941Y29576
X76507Y46756
X78189Y25944
X78608Y27899
X80990Y33416
X82520Y33970
X83165Y38618
X84044Y34580
X84280Y32482
X85583Y35204
X86543Y31755
X87442Y30663
X88778Y28598
X93370Y31783
X94186Y37346
X95499Y34087
X96596Y36058
T2
X3000Y66505
X3000Y4211
X95583Y66505
X95583Y4275
T0
M30
