G04 #@! TF.FileFunction,Copper,L2,Bot,Signal*
%FSLAX46Y46*%
G04 Gerber Fmt 4.6, Leading zero omitted, Abs format (unit mm)*
G04 Created by KiCad (PCBNEW 4.0.7-e2-6376~60~ubuntu17.10.1) date Mon Mar 19 14:05:34 2018*
%MOMM*%
%LPD*%
G01*
G04 APERTURE LIST*
%ADD10C,0.100000*%
%ADD11C,0.300000*%
%ADD12C,5.000000*%
%ADD13R,0.800000X0.200000*%
%ADD14R,2.000000X1.500000*%
%ADD15C,0.600000*%
%ADD16C,0.600000*%
%ADD17C,0.250000*%
%ADD18C,0.150000*%
%ADD19C,0.350000*%
%ADD20C,0.500000*%
G04 APERTURE END LIST*
D10*
D11*
X64837240Y6692377D02*
X64837240Y4263806D01*
X64694383Y3978091D01*
X64551526Y3835234D01*
X64265812Y3692377D01*
X63694383Y3692377D01*
X63408669Y3835234D01*
X63265812Y3978091D01*
X63122955Y4263806D01*
X63122955Y6692377D01*
X61694383Y5692377D02*
X61694383Y3692377D01*
X61694383Y5406663D02*
X61551526Y5549520D01*
X61265812Y5692377D01*
X60837240Y5692377D01*
X60551526Y5549520D01*
X60408669Y5263806D01*
X60408669Y3692377D01*
X58980097Y3692377D02*
X58980097Y5692377D01*
X58980097Y6692377D02*
X59122954Y6549520D01*
X58980097Y6406663D01*
X58837240Y6549520D01*
X58980097Y6692377D01*
X58980097Y6406663D01*
X57837241Y5692377D02*
X57122955Y3692377D01*
X56408669Y5692377D01*
X54122955Y3835234D02*
X54408669Y3692377D01*
X54980098Y3692377D01*
X55265812Y3835234D01*
X55408669Y4120949D01*
X55408669Y5263806D01*
X55265812Y5549520D01*
X54980098Y5692377D01*
X54408669Y5692377D01*
X54122955Y5549520D01*
X53980098Y5263806D01*
X53980098Y4978091D01*
X55408669Y4692377D01*
X52694383Y3692377D02*
X52694383Y5692377D01*
X52694383Y5120949D02*
X52551526Y5406663D01*
X52408669Y5549520D01*
X52122955Y5692377D01*
X51837240Y5692377D01*
X50980097Y3835234D02*
X50694383Y3692377D01*
X50122955Y3692377D01*
X49837240Y3835234D01*
X49694383Y4120949D01*
X49694383Y4263806D01*
X49837240Y4549520D01*
X50122955Y4692377D01*
X50551526Y4692377D01*
X50837240Y4835234D01*
X50980097Y5120949D01*
X50980097Y5263806D01*
X50837240Y5549520D01*
X50551526Y5692377D01*
X50122955Y5692377D01*
X49837240Y5549520D01*
X48408669Y3692377D02*
X48408669Y5692377D01*
X48408669Y6692377D02*
X48551526Y6549520D01*
X48408669Y6406663D01*
X48265812Y6549520D01*
X48408669Y6692377D01*
X48408669Y6406663D01*
X45694384Y3692377D02*
X45694384Y6692377D01*
X45694384Y3835234D02*
X45980098Y3692377D01*
X46551527Y3692377D01*
X46837241Y3835234D01*
X46980098Y3978091D01*
X47122955Y4263806D01*
X47122955Y5120949D01*
X46980098Y5406663D01*
X46837241Y5549520D01*
X46551527Y5692377D01*
X45980098Y5692377D01*
X45694384Y5549520D01*
X42980098Y3692377D02*
X42980098Y5263806D01*
X43122955Y5549520D01*
X43408669Y5692377D01*
X43980098Y5692377D01*
X44265812Y5549520D01*
X42980098Y3835234D02*
X43265812Y3692377D01*
X43980098Y3692377D01*
X44265812Y3835234D01*
X44408669Y4120949D01*
X44408669Y4406663D01*
X44265812Y4692377D01*
X43980098Y4835234D01*
X43265812Y4835234D01*
X42980098Y4978091D01*
X40265812Y3692377D02*
X40265812Y6692377D01*
X40265812Y3835234D02*
X40551526Y3692377D01*
X41122955Y3692377D01*
X41408669Y3835234D01*
X41551526Y3978091D01*
X41694383Y4263806D01*
X41694383Y5120949D01*
X41551526Y5406663D01*
X41408669Y5549520D01*
X41122955Y5692377D01*
X40551526Y5692377D01*
X40265812Y5549520D01*
X35265812Y3692377D02*
X35265812Y6692377D01*
X35265812Y3835234D02*
X35551526Y3692377D01*
X36122955Y3692377D01*
X36408669Y3835234D01*
X36551526Y3978091D01*
X36694383Y4263806D01*
X36694383Y5120949D01*
X36551526Y5406663D01*
X36408669Y5549520D01*
X36122955Y5692377D01*
X35551526Y5692377D01*
X35265812Y5549520D01*
X32694383Y3835234D02*
X32980097Y3692377D01*
X33551526Y3692377D01*
X33837240Y3835234D01*
X33980097Y4120949D01*
X33980097Y5263806D01*
X33837240Y5549520D01*
X33551526Y5692377D01*
X32980097Y5692377D01*
X32694383Y5549520D01*
X32551526Y5263806D01*
X32551526Y4978091D01*
X33980097Y4692377D01*
X28551526Y3692377D02*
X28837240Y3835234D01*
X28980097Y4120949D01*
X28980097Y6692377D01*
X26122954Y3692377D02*
X26122954Y5263806D01*
X26265811Y5549520D01*
X26551525Y5692377D01*
X27122954Y5692377D01*
X27408668Y5549520D01*
X26122954Y3835234D02*
X26408668Y3692377D01*
X27122954Y3692377D01*
X27408668Y3835234D01*
X27551525Y4120949D01*
X27551525Y4406663D01*
X27408668Y4692377D01*
X27122954Y4835234D01*
X26408668Y4835234D01*
X26122954Y4978091D01*
X20980097Y3692377D02*
X22408668Y3692377D01*
X22408668Y6692377D01*
X18694383Y3692377D02*
X18694383Y5263806D01*
X18837240Y5549520D01*
X19122954Y5692377D01*
X19694383Y5692377D01*
X19980097Y5549520D01*
X18694383Y3835234D02*
X18980097Y3692377D01*
X19694383Y3692377D01*
X19980097Y3835234D01*
X20122954Y4120949D01*
X20122954Y4406663D01*
X19980097Y4692377D01*
X19694383Y4835234D01*
X18980097Y4835234D01*
X18694383Y4978091D01*
X15980097Y5692377D02*
X15980097Y3263806D01*
X16122954Y2978091D01*
X16265811Y2835234D01*
X16551526Y2692377D01*
X16980097Y2692377D01*
X17265811Y2835234D01*
X15980097Y3835234D02*
X16265811Y3692377D01*
X16837240Y3692377D01*
X17122954Y3835234D01*
X17265811Y3978091D01*
X17408668Y4263806D01*
X17408668Y5120949D01*
X17265811Y5406663D01*
X17122954Y5549520D01*
X16837240Y5692377D01*
X16265811Y5692377D01*
X15980097Y5549520D01*
X13265811Y5692377D02*
X13265811Y3692377D01*
X14551525Y5692377D02*
X14551525Y4120949D01*
X14408668Y3835234D01*
X14122954Y3692377D01*
X13694382Y3692377D01*
X13408668Y3835234D01*
X13265811Y3978091D01*
X11837239Y5692377D02*
X11837239Y3692377D01*
X11837239Y5406663D02*
X11694382Y5549520D01*
X11408668Y5692377D01*
X10980096Y5692377D01*
X10694382Y5549520D01*
X10551525Y5263806D01*
X10551525Y3692377D01*
X7837239Y3692377D02*
X7837239Y5263806D01*
X7980096Y5549520D01*
X8265810Y5692377D01*
X8837239Y5692377D01*
X9122953Y5549520D01*
X7837239Y3835234D02*
X8122953Y3692377D01*
X8837239Y3692377D01*
X9122953Y3835234D01*
X9265810Y4120949D01*
X9265810Y4406663D01*
X9122953Y4692377D01*
X8837239Y4835234D01*
X8122953Y4835234D01*
X7837239Y4978091D01*
D12*
X2999740Y66504820D03*
X2999740Y4211320D03*
X95582740Y4274820D03*
X95582740Y66504820D03*
D13*
X8422640Y28381120D03*
X8422640Y28881120D03*
X8422640Y29381120D03*
X8422640Y29881120D03*
X8422640Y30381120D03*
X8422640Y30881120D03*
X8422640Y31381120D03*
X8422640Y31881120D03*
X8422640Y32381120D03*
X8422640Y32881120D03*
X8422640Y33381120D03*
X8422640Y33881120D03*
X8422640Y34381120D03*
X8422640Y34881120D03*
X8422640Y35381120D03*
X8422640Y35881120D03*
X8422640Y36381120D03*
X8422640Y36881120D03*
X8422640Y37381120D03*
X8422640Y37881120D03*
X8422640Y38381120D03*
X8422640Y38881120D03*
X8422640Y39381120D03*
X8422640Y39881120D03*
X8422640Y40381120D03*
X8422640Y40881120D03*
X8422640Y41381120D03*
X8422640Y41881120D03*
X8422640Y42381120D03*
X8422640Y42881120D03*
D14*
X5922640Y26481120D03*
X5922640Y44781120D03*
D15*
X95498920Y34086800D03*
X37645340Y14345920D03*
X22870160Y37536120D03*
X39799260Y41198800D03*
X38473380Y37134800D03*
X49438560Y38907720D03*
X76507340Y46756320D03*
X87442040Y30662880D03*
X68940680Y29575760D03*
X88778080Y28597860D03*
X51450240Y24853900D03*
X38643560Y29702760D03*
X30215840Y37307520D03*
X16576040Y40888920D03*
X96596200Y36057840D03*
X16073120Y38618160D03*
X19547840Y37840920D03*
X85582760Y35204400D03*
X84043520Y34579560D03*
X82519520Y33969960D03*
X80990440Y33416240D03*
X78188820Y25943560D03*
X78607920Y27899360D03*
X18486120Y33355280D03*
X50137060Y26083260D03*
X32920940Y29420820D03*
X30215840Y36088320D03*
X35092640Y48661320D03*
X93370400Y31783020D03*
X20995640Y37538660D03*
X84279740Y32481520D03*
X94185740Y37345620D03*
X86542880Y31755080D03*
X83164680Y38618160D03*
D16*
X96067880Y34086800D02*
X95498920Y34086800D01*
X96586040Y33568640D02*
X96067880Y34086800D01*
X96586040Y16746220D02*
X96586040Y33568640D01*
X93474540Y13634720D02*
X96586040Y16746220D01*
X38356540Y13634720D02*
X93474540Y13634720D01*
X37645340Y14345920D02*
X38356540Y13634720D01*
D17*
X8422640Y39381120D02*
X21025160Y39381120D01*
X21025160Y39381120D02*
X22870160Y37536120D01*
X8422640Y34881120D02*
X34761740Y34881120D01*
X39799260Y39918640D02*
X39799260Y41198800D01*
X34761740Y34881120D02*
X39799260Y39918640D01*
X38470840Y37137340D02*
X38447980Y37137340D01*
X38473380Y37134800D02*
X38470840Y37137340D01*
X8422640Y34381120D02*
X35691760Y34381120D01*
X35691760Y34381120D02*
X38447980Y37137340D01*
D16*
X38447980Y37137340D02*
X40050720Y38740080D01*
X40218360Y38907720D02*
X49438560Y38907720D01*
D17*
X40050720Y38740080D02*
X40218360Y38907720D01*
D18*
X76621640Y46756320D02*
X76507340Y46756320D01*
D19*
X87269320Y36108640D02*
X76621640Y46756320D01*
X87269320Y30835600D02*
X87269320Y36108640D01*
D18*
X87442040Y30662880D02*
X87269320Y30835600D01*
D11*
X69918580Y28597860D02*
X88778080Y28597860D01*
X69918580Y28597860D02*
X68940680Y29575760D01*
D17*
X8422640Y35881120D02*
X28789440Y35881120D01*
D16*
X51450240Y27955240D02*
X51450240Y24853900D01*
X50025300Y29380180D02*
X51450240Y27955240D01*
X39072820Y29380180D02*
X50025300Y29380180D01*
X38643560Y29702760D02*
X39072820Y29380180D01*
D17*
X28789440Y35881120D02*
X30215840Y37307520D01*
D16*
X96596200Y51262280D02*
X83195160Y64663320D01*
X83195160Y64663320D02*
X21414740Y64663320D01*
X21414740Y64663320D02*
X16576040Y59824620D01*
X16576040Y59824620D02*
X16576040Y40888920D01*
X96596200Y36057840D02*
X96596200Y51262280D01*
D17*
X15836080Y38381120D02*
X8422640Y38381120D01*
X16073120Y38618160D02*
X15836080Y38381120D01*
X19507640Y37881120D02*
X8422640Y37881120D01*
X19547840Y37840920D02*
X19507640Y37881120D01*
X80759480Y30381120D02*
X85582760Y35204400D01*
X80759480Y30381120D02*
X8422640Y30381120D01*
X80345080Y30881120D02*
X84043520Y34579560D01*
X80345080Y30881120D02*
X8422640Y30881120D01*
X80430680Y31881120D02*
X82519520Y33969960D01*
X80430680Y31881120D02*
X8422640Y31881120D01*
X79955320Y32381120D02*
X80990440Y33416240D01*
X79955320Y32381120D02*
X8422640Y32381120D01*
X29015640Y28881120D02*
X35557460Y22339300D01*
X35557460Y22339300D02*
X74584560Y22339300D01*
X74584560Y22339300D02*
X78188820Y25943560D01*
X8422640Y28881120D02*
X29015640Y28881120D01*
X29572280Y29381120D02*
X35971480Y22981920D01*
X35971480Y22981920D02*
X73690480Y22981920D01*
X73690480Y22981920D02*
X78607920Y27899360D01*
X29572280Y29381120D02*
X8422640Y29381120D01*
X18460280Y33381120D02*
X18486120Y33355280D01*
X18460280Y33381120D02*
X8422640Y33381120D01*
X8422640Y35381120D02*
X29493400Y35381120D01*
D16*
X36258500Y26083260D02*
X50137060Y26083260D01*
X32920940Y29420820D02*
X36258500Y26083260D01*
D17*
X30200600Y36088320D02*
X30215840Y36088320D01*
X29493400Y35381120D02*
X30200600Y36088320D01*
D20*
X76492100Y48661320D02*
X35092640Y48661320D01*
X93370400Y31783020D02*
X76492100Y48661320D01*
D17*
X9768840Y37053520D02*
X20510500Y37053520D01*
X20510500Y37053520D02*
X20995640Y37538660D01*
X8422640Y36381120D02*
X9477440Y36381120D01*
X9441240Y37381120D02*
X8422640Y37381120D01*
X9768840Y37053520D02*
X9441240Y37381120D01*
X9768840Y36672520D02*
X9768840Y37053520D01*
X9477440Y36381120D02*
X9768840Y36672520D01*
D16*
X94185740Y37345620D02*
X94449900Y37081460D01*
X94449900Y37081460D02*
X94449900Y30525720D01*
X94449900Y30525720D02*
X93723460Y29799280D01*
X93723460Y29799280D02*
X86207600Y29799280D01*
X86207600Y29799280D02*
X84279740Y31727140D01*
X84279740Y31727140D02*
X84279740Y32481520D01*
D19*
X86542880Y35974020D02*
X86542880Y31755080D01*
X85648800Y36868100D02*
X86542880Y35974020D01*
X84914740Y36868100D02*
X85648800Y36868100D01*
X83164680Y38618160D02*
X84914740Y36868100D01*
D18*
G36*
X1327005Y68849676D02*
X1038238Y68501678D01*
X2999740Y66540175D01*
X4961242Y68501678D01*
X4672475Y68849676D01*
X4467549Y68942000D01*
X94048178Y68942000D01*
X93910005Y68849676D01*
X93621238Y68501678D01*
X95582740Y66540175D01*
X97544242Y68501678D01*
X97255475Y68849676D01*
X97050549Y68942000D01*
X98050400Y68942000D01*
X98050400Y67965279D01*
X98025483Y68031056D01*
X97927596Y68177555D01*
X97579598Y68466322D01*
X95618095Y66504820D01*
X97579598Y64543318D01*
X97927596Y64832085D01*
X98050400Y65104666D01*
X98050400Y5735279D01*
X98025483Y5801056D01*
X97927596Y5947555D01*
X97579598Y6236322D01*
X95618095Y4274820D01*
X97579598Y2313318D01*
X97927596Y2602085D01*
X98050400Y2874666D01*
X98050400Y1868120D01*
X97162918Y1868120D01*
X97255475Y1929964D01*
X97544242Y2277962D01*
X95582740Y4239465D01*
X93621238Y2277962D01*
X93910005Y1929964D01*
X94047277Y1868120D01*
X4673849Y1868120D01*
X4961242Y2214462D01*
X2999740Y4175965D01*
X1038238Y2214462D01*
X1325631Y1868120D01*
X532080Y1868120D01*
X532080Y2750861D01*
X556997Y2685084D01*
X654884Y2538585D01*
X1002882Y2249818D01*
X2964385Y4211320D01*
X3035095Y4211320D01*
X4996598Y2249818D01*
X5344596Y2538585D01*
X5806232Y3563252D01*
X5840605Y4686581D01*
X5442483Y5737556D01*
X5344596Y5884055D01*
X4996598Y6172822D01*
X3035095Y4211320D01*
X2964385Y4211320D01*
X1002882Y6172822D01*
X654884Y5884055D01*
X532080Y5611474D01*
X532080Y6208178D01*
X1038238Y6208178D01*
X2999740Y4246675D01*
X4961242Y6208178D01*
X4672475Y6556176D01*
X3647808Y7017812D01*
X2524479Y7052185D01*
X1473504Y6654063D01*
X1327005Y6556176D01*
X1038238Y6208178D01*
X532080Y6208178D01*
X532080Y7624520D01*
X6797954Y7624520D01*
X6797954Y2174520D01*
X65876527Y2174520D01*
X65876527Y3799559D01*
X92741875Y3799559D01*
X93139997Y2748584D01*
X93237884Y2602085D01*
X93585882Y2313318D01*
X95547385Y4274820D01*
X93585882Y6236322D01*
X93237884Y5947555D01*
X92776248Y4922888D01*
X92741875Y3799559D01*
X65876527Y3799559D01*
X65876527Y6271678D01*
X93621238Y6271678D01*
X95582740Y4310175D01*
X97544242Y6271678D01*
X97255475Y6619676D01*
X96230808Y7081312D01*
X95107479Y7115685D01*
X94056504Y6717563D01*
X93910005Y6619676D01*
X93621238Y6271678D01*
X65876527Y6271678D01*
X65876527Y7624520D01*
X6797954Y7624520D01*
X532080Y7624520D01*
X532080Y26374870D01*
X4597640Y26374870D01*
X4597640Y25666474D01*
X4647118Y25547023D01*
X4738542Y25455599D01*
X4857993Y25406120D01*
X5816390Y25406120D01*
X5897640Y25487370D01*
X5897640Y26456120D01*
X5947640Y26456120D01*
X5947640Y25487370D01*
X6028890Y25406120D01*
X6987287Y25406120D01*
X7106738Y25455599D01*
X7198162Y25547023D01*
X7247640Y25666474D01*
X7247640Y26374870D01*
X7166390Y26456120D01*
X5947640Y26456120D01*
X5897640Y26456120D01*
X4678890Y26456120D01*
X4597640Y26374870D01*
X532080Y26374870D01*
X532080Y27295766D01*
X4597640Y27295766D01*
X4597640Y26587370D01*
X4678890Y26506120D01*
X5897640Y26506120D01*
X5897640Y27474870D01*
X5947640Y27474870D01*
X5947640Y26506120D01*
X7166390Y26506120D01*
X7247640Y26587370D01*
X7247640Y27295766D01*
X7198162Y27415217D01*
X7106738Y27506641D01*
X6987287Y27556120D01*
X6028890Y27556120D01*
X5947640Y27474870D01*
X5897640Y27474870D01*
X5816390Y27556120D01*
X4857993Y27556120D01*
X4738542Y27506641D01*
X4647118Y27415217D01*
X4597640Y27295766D01*
X532080Y27295766D01*
X532080Y28274870D01*
X7697640Y28274870D01*
X7697640Y28216474D01*
X7747118Y28097023D01*
X7838542Y28005599D01*
X7957993Y27956120D01*
X8316390Y27956120D01*
X8397640Y28037370D01*
X8397640Y28356120D01*
X8447640Y28356120D01*
X8447640Y28037370D01*
X8528890Y27956120D01*
X8887287Y27956120D01*
X9006738Y28005599D01*
X9098162Y28097023D01*
X9147640Y28216474D01*
X9147640Y28274870D01*
X9066390Y28356120D01*
X8447640Y28356120D01*
X8397640Y28356120D01*
X7778890Y28356120D01*
X7697640Y28274870D01*
X532080Y28274870D01*
X532080Y39481120D01*
X7691273Y39481120D01*
X7691273Y39281120D01*
X7713935Y39160682D01*
X7732980Y39131085D01*
X7697640Y39045766D01*
X7697640Y38987370D01*
X7778890Y38906120D01*
X8397640Y38906120D01*
X8397640Y38926120D01*
X8447640Y38926120D01*
X8447640Y38906120D01*
X9066390Y38906120D01*
X9091390Y38931120D01*
X15526333Y38931120D01*
X15484809Y38831120D01*
X9091390Y38831120D01*
X9066390Y38856120D01*
X8447640Y38856120D01*
X8447640Y38836120D01*
X8397640Y38836120D01*
X8397640Y38856120D01*
X7778890Y38856120D01*
X7697640Y38774870D01*
X7697640Y38716474D01*
X7732537Y38632224D01*
X7717380Y38610040D01*
X7691273Y38481120D01*
X7691273Y38281120D01*
X7713935Y38160682D01*
X7732388Y38132005D01*
X7717380Y38110040D01*
X7691273Y37981120D01*
X7691273Y37781120D01*
X7713935Y37660682D01*
X7732388Y37632005D01*
X7717380Y37610040D01*
X7691273Y37481120D01*
X7691273Y37281120D01*
X7713935Y37160682D01*
X7732980Y37131085D01*
X7697640Y37045766D01*
X7697640Y36987370D01*
X7778890Y36906120D01*
X8397640Y36906120D01*
X8397640Y36926120D01*
X8447640Y36926120D01*
X8447640Y36906120D01*
X9066390Y36906120D01*
X9091390Y36931120D01*
X9254844Y36931120D01*
X9318840Y36867124D01*
X9318840Y36858916D01*
X9291044Y36831120D01*
X9091390Y36831120D01*
X9066390Y36856120D01*
X8447640Y36856120D01*
X8447640Y36836120D01*
X8397640Y36836120D01*
X8397640Y36856120D01*
X7778890Y36856120D01*
X7697640Y36774870D01*
X7697640Y36716474D01*
X7732537Y36632224D01*
X7717380Y36610040D01*
X7691273Y36481120D01*
X7691273Y36281120D01*
X7713935Y36160682D01*
X7732388Y36132005D01*
X7717380Y36110040D01*
X7691273Y35981120D01*
X7691273Y35781120D01*
X7713935Y35660682D01*
X7732388Y35632005D01*
X7717380Y35610040D01*
X7691273Y35481120D01*
X7691273Y35281120D01*
X7713935Y35160682D01*
X7732388Y35132005D01*
X7717380Y35110040D01*
X7691273Y34981120D01*
X7691273Y34781120D01*
X7713935Y34660682D01*
X7732388Y34632005D01*
X7717380Y34610040D01*
X7691273Y34481120D01*
X7691273Y34281120D01*
X7713935Y34160682D01*
X7732980Y34131085D01*
X7697640Y34045766D01*
X7697640Y33987370D01*
X7778890Y33906120D01*
X8397640Y33906120D01*
X8397640Y33926120D01*
X8447640Y33926120D01*
X8447640Y33906120D01*
X9066390Y33906120D01*
X9091390Y33931120D01*
X18243108Y33931120D01*
X18132549Y33885438D01*
X18078136Y33831120D01*
X9091390Y33831120D01*
X9066390Y33856120D01*
X8447640Y33856120D01*
X8447640Y33836120D01*
X8397640Y33836120D01*
X8397640Y33856120D01*
X7778890Y33856120D01*
X7697640Y33774870D01*
X7697640Y33716474D01*
X7732537Y33632224D01*
X7717380Y33610040D01*
X7691273Y33481120D01*
X7691273Y33281120D01*
X7713935Y33160682D01*
X7732980Y33131085D01*
X7697640Y33045766D01*
X7697640Y32987370D01*
X7778890Y32906120D01*
X8397640Y32906120D01*
X8397640Y32926120D01*
X8447640Y32926120D01*
X8447640Y32906120D01*
X9066390Y32906120D01*
X9091390Y32931120D01*
X18026428Y32931120D01*
X18126253Y32831120D01*
X9091390Y32831120D01*
X9066390Y32856120D01*
X8447640Y32856120D01*
X8447640Y32836120D01*
X8397640Y32836120D01*
X8397640Y32856120D01*
X7778890Y32856120D01*
X7697640Y32774870D01*
X7697640Y32716474D01*
X7732537Y32632224D01*
X7717380Y32610040D01*
X7691273Y32481120D01*
X7691273Y32281120D01*
X7713935Y32160682D01*
X7732388Y32132005D01*
X7717380Y32110040D01*
X7691273Y31981120D01*
X7691273Y31781120D01*
X7713935Y31660682D01*
X7732980Y31631085D01*
X7697640Y31545766D01*
X7697640Y31487370D01*
X7778890Y31406120D01*
X8397640Y31406120D01*
X8397640Y31426120D01*
X8447640Y31426120D01*
X8447640Y31406120D01*
X9066390Y31406120D01*
X9091390Y31431120D01*
X80258684Y31431120D01*
X80158684Y31331120D01*
X9091390Y31331120D01*
X9066390Y31356120D01*
X8447640Y31356120D01*
X8447640Y31336120D01*
X8397640Y31336120D01*
X8397640Y31356120D01*
X7778890Y31356120D01*
X7697640Y31274870D01*
X7697640Y31216474D01*
X7732537Y31132224D01*
X7717380Y31110040D01*
X7691273Y30981120D01*
X7691273Y30781120D01*
X7713935Y30660682D01*
X7732388Y30632005D01*
X7717380Y30610040D01*
X7691273Y30481120D01*
X7691273Y30281120D01*
X7713935Y30160682D01*
X7732980Y30131085D01*
X7697640Y30045766D01*
X7697640Y29987370D01*
X7778890Y29906120D01*
X8397640Y29906120D01*
X8397640Y29926120D01*
X8447640Y29926120D01*
X8447640Y29906120D01*
X9066390Y29906120D01*
X9091390Y29931120D01*
X32547476Y29931120D01*
X32479001Y29862764D01*
X32478998Y29862762D01*
X32478996Y29862760D01*
X32391400Y29775316D01*
X32296049Y29545686D01*
X32295832Y29297045D01*
X32390782Y29067249D01*
X32478996Y28978881D01*
X32478998Y28978878D01*
X32479471Y28978405D01*
X32566444Y28891280D01*
X32566704Y28891172D01*
X35816556Y25641321D01*
X35816558Y25641318D01*
X35894762Y25589064D01*
X36019323Y25505835D01*
X36258500Y25458259D01*
X36258505Y25458260D01*
X50137060Y25458260D01*
X50260835Y25458152D01*
X50376236Y25505835D01*
X50376237Y25505835D01*
X50376238Y25505836D01*
X50490631Y25553102D01*
X50578999Y25641316D01*
X50579002Y25641318D01*
X50579004Y25641320D01*
X50666600Y25728764D01*
X50761951Y25958394D01*
X50762168Y26207035D01*
X50667218Y26436831D01*
X50579004Y26525199D01*
X50579002Y26525202D01*
X50579000Y26525204D01*
X50491556Y26612800D01*
X50376238Y26660684D01*
X50376237Y26660685D01*
X50376236Y26660685D01*
X50261926Y26708151D01*
X50137060Y26708260D01*
X50137033Y26708260D01*
X50013285Y26708368D01*
X50013024Y26708260D01*
X36517383Y26708260D01*
X33362882Y29862762D01*
X33362880Y29862764D01*
X33294642Y29931120D01*
X38061644Y29931120D01*
X38018669Y29827626D01*
X38018452Y29578985D01*
X38113402Y29349189D01*
X38289064Y29173220D01*
X38331091Y29155769D01*
X38697347Y28880535D01*
X38768239Y28846456D01*
X38833643Y28802755D01*
X38877153Y28794100D01*
X38917134Y28774881D01*
X38995672Y28770526D01*
X39072820Y28755180D01*
X49766416Y28755180D01*
X50825240Y27696357D01*
X50825240Y24853900D01*
X50825132Y24730125D01*
X50920082Y24500329D01*
X51008296Y24411961D01*
X51008298Y24411958D01*
X51008300Y24411956D01*
X51095744Y24324360D01*
X51211062Y24276476D01*
X51211063Y24276475D01*
X51211064Y24276475D01*
X51325374Y24229009D01*
X51450240Y24228900D01*
X51574015Y24228792D01*
X51689416Y24276475D01*
X51689417Y24276475D01*
X51689418Y24276476D01*
X51803811Y24323742D01*
X51892179Y24411956D01*
X51892182Y24411958D01*
X51892184Y24411960D01*
X51979780Y24499404D01*
X52075131Y24729034D01*
X52075348Y24977675D01*
X52075240Y24977936D01*
X52075240Y27955240D01*
X52027665Y28194417D01*
X51892182Y28397182D01*
X51892179Y28397184D01*
X50467242Y29822122D01*
X50304115Y29931120D01*
X68412006Y29931120D01*
X68411140Y29930256D01*
X68315789Y29700626D01*
X68315572Y29451985D01*
X68410522Y29222189D01*
X68586184Y29046220D01*
X68815814Y28950869D01*
X68893887Y28950801D01*
X69582702Y28261987D01*
X69582704Y28261984D01*
X69736805Y28159017D01*
X69918580Y28122860D01*
X78023986Y28122860D01*
X77983029Y28024226D01*
X77982930Y27910766D01*
X73504084Y23431920D01*
X36157876Y23431920D01*
X29890478Y29699318D01*
X29861552Y29718646D01*
X29744488Y29796866D01*
X29572280Y29831120D01*
X9091390Y29831120D01*
X9066390Y29856120D01*
X8447640Y29856120D01*
X8447640Y29836120D01*
X8397640Y29836120D01*
X8397640Y29856120D01*
X7778890Y29856120D01*
X7697640Y29774870D01*
X7697640Y29716474D01*
X7732537Y29632224D01*
X7717380Y29610040D01*
X7691273Y29481120D01*
X7691273Y29281120D01*
X7713935Y29160682D01*
X7732388Y29132005D01*
X7717380Y29110040D01*
X7691273Y28981120D01*
X7691273Y28781120D01*
X7713935Y28660682D01*
X7732980Y28631085D01*
X7697640Y28545766D01*
X7697640Y28487370D01*
X7778890Y28406120D01*
X8397640Y28406120D01*
X8397640Y28426120D01*
X8447640Y28426120D01*
X8447640Y28406120D01*
X9066390Y28406120D01*
X9091390Y28431120D01*
X28829244Y28431120D01*
X35239262Y22021102D01*
X35385253Y21923553D01*
X35557460Y21889300D01*
X74584560Y21889300D01*
X74756768Y21923554D01*
X74902758Y22021102D01*
X78200206Y25318550D01*
X78312595Y25318452D01*
X78542391Y25413402D01*
X78718360Y25589064D01*
X78813711Y25818694D01*
X78813928Y26067335D01*
X78718978Y26297131D01*
X78543316Y26473100D01*
X78313686Y26568451D01*
X78065045Y26568668D01*
X77835249Y26473718D01*
X77659280Y26298056D01*
X77563929Y26068426D01*
X77563830Y25954966D01*
X74398164Y22789300D01*
X74134256Y22789300D01*
X78619306Y27274350D01*
X78731695Y27274252D01*
X78961491Y27369202D01*
X79137460Y27544864D01*
X79232811Y27774494D01*
X79233028Y28023135D01*
X79191822Y28122860D01*
X88369139Y28122860D01*
X88423584Y28068320D01*
X88653214Y27972969D01*
X88901855Y27972752D01*
X89131651Y28067702D01*
X89307620Y28243364D01*
X89402971Y28472994D01*
X89403188Y28721635D01*
X89308238Y28951431D01*
X89132576Y29127400D01*
X89019677Y29174280D01*
X93723460Y29174280D01*
X93962637Y29221855D01*
X94165402Y29357338D01*
X94891842Y30083778D01*
X95027325Y30286542D01*
X95074900Y30525720D01*
X95074900Y33626906D01*
X95144424Y33557260D01*
X95259742Y33509376D01*
X95259743Y33509375D01*
X95259744Y33509375D01*
X95374054Y33461909D01*
X95498920Y33461800D01*
X95498947Y33461800D01*
X95622695Y33461692D01*
X95622956Y33461800D01*
X95808996Y33461800D01*
X95961040Y33309756D01*
X95961040Y17005103D01*
X93215656Y14259720D01*
X38615424Y14259720D01*
X38087280Y14787864D01*
X37999836Y14875460D01*
X37884518Y14923344D01*
X37884517Y14923345D01*
X37884516Y14923345D01*
X37770206Y14970811D01*
X37645340Y14970920D01*
X37521565Y14971028D01*
X37406164Y14923345D01*
X37406163Y14923345D01*
X37406162Y14923344D01*
X37291769Y14876078D01*
X37203401Y14787864D01*
X37203398Y14787862D01*
X37203396Y14787860D01*
X37115800Y14700416D01*
X37020449Y14470786D01*
X37020232Y14222145D01*
X37115182Y13992349D01*
X37203396Y13903981D01*
X37203398Y13903978D01*
X37203871Y13903505D01*
X37290844Y13816380D01*
X37291104Y13816272D01*
X37914598Y13192778D01*
X38117363Y13057295D01*
X38356540Y13009719D01*
X38356545Y13009720D01*
X93474540Y13009720D01*
X93713717Y13057295D01*
X93916482Y13192778D01*
X97027979Y16304276D01*
X97027982Y16304278D01*
X97163465Y16507043D01*
X97211040Y16746220D01*
X97211040Y33568640D01*
X97163465Y33807817D01*
X97027982Y34010582D01*
X96509822Y34528742D01*
X96307057Y34664225D01*
X96067880Y34711800D01*
X95498920Y34711800D01*
X95375145Y34711908D01*
X95259744Y34664225D01*
X95259743Y34664225D01*
X95259742Y34664224D01*
X95145349Y34616958D01*
X95074900Y34546632D01*
X95074900Y37081455D01*
X95074901Y37081460D01*
X95027325Y37320637D01*
X94989987Y37376517D01*
X94891842Y37523402D01*
X94891839Y37523404D01*
X94627682Y37787562D01*
X94627680Y37787564D01*
X94540236Y37875160D01*
X94424918Y37923044D01*
X94424917Y37923045D01*
X94424916Y37923045D01*
X94310606Y37970511D01*
X94185740Y37970620D01*
X94061965Y37970728D01*
X93946564Y37923045D01*
X93946563Y37923045D01*
X93946562Y37923044D01*
X93832169Y37875778D01*
X93743801Y37787564D01*
X93743798Y37787562D01*
X93743796Y37787560D01*
X93656200Y37700116D01*
X93560849Y37470486D01*
X93560632Y37221845D01*
X93655582Y36992049D01*
X93743796Y36903681D01*
X93743798Y36903678D01*
X93744270Y36903206D01*
X93824900Y36822435D01*
X93824900Y32212381D01*
X93724896Y32312560D01*
X93603713Y32362880D01*
X76898686Y49067906D01*
X76712143Y49192551D01*
X76492100Y49236320D01*
X35337657Y49236320D01*
X35217506Y49286211D01*
X34968865Y49286428D01*
X34739069Y49191478D01*
X34563100Y49015816D01*
X34467749Y48786186D01*
X34467532Y48537545D01*
X34562482Y48307749D01*
X34738144Y48131780D01*
X34967774Y48036429D01*
X35216415Y48036212D01*
X35337685Y48086320D01*
X76253928Y48086320D01*
X92790561Y31549686D01*
X92840242Y31429449D01*
X93015904Y31253480D01*
X93245534Y31158129D01*
X93494175Y31157912D01*
X93723971Y31252862D01*
X93824900Y31353615D01*
X93824900Y30784604D01*
X93464576Y30424280D01*
X88019704Y30424280D01*
X88066931Y30538014D01*
X88067148Y30786655D01*
X87972198Y31016451D01*
X87796536Y31192420D01*
X87769320Y31203721D01*
X87769320Y36108640D01*
X87731260Y36299982D01*
X87677045Y36381120D01*
X87622873Y36462194D01*
X77081382Y47003684D01*
X77037498Y47109891D01*
X76861836Y47285860D01*
X76632206Y47381211D01*
X76383565Y47381428D01*
X76153769Y47286478D01*
X75977800Y47110816D01*
X75882449Y46881186D01*
X75882232Y46632545D01*
X75977182Y46402749D01*
X76152844Y46226780D01*
X76382474Y46131429D01*
X76539562Y46131292D01*
X85302753Y37368100D01*
X85121847Y37368100D01*
X83789752Y38700195D01*
X83789788Y38741935D01*
X83694838Y38971731D01*
X83519176Y39147700D01*
X83289546Y39243051D01*
X83040905Y39243268D01*
X82811109Y39148318D01*
X82635140Y38972656D01*
X82539789Y38743026D01*
X82539572Y38494385D01*
X82634522Y38264589D01*
X82810184Y38088620D01*
X83039814Y37993269D01*
X83082502Y37993232D01*
X84561187Y36514546D01*
X84648121Y36456459D01*
X84723398Y36406160D01*
X84914740Y36368100D01*
X85441694Y36368100D01*
X86042880Y35766914D01*
X86042880Y35628131D01*
X85937256Y35733940D01*
X85707626Y35829291D01*
X85458985Y35829508D01*
X85229189Y35734558D01*
X85053220Y35558896D01*
X84957869Y35329266D01*
X84957770Y35215806D01*
X84603331Y34861367D01*
X84573678Y34933131D01*
X84398016Y35109100D01*
X84168386Y35204451D01*
X83919745Y35204668D01*
X83689949Y35109718D01*
X83513980Y34934056D01*
X83418629Y34704426D01*
X83418530Y34590966D01*
X83079331Y34251767D01*
X83049678Y34323531D01*
X82874016Y34499500D01*
X82644386Y34594851D01*
X82395745Y34595068D01*
X82165949Y34500118D01*
X81989980Y34324456D01*
X81894629Y34094826D01*
X81894530Y33981366D01*
X81568074Y33654910D01*
X81520598Y33769811D01*
X81344936Y33945780D01*
X81115306Y34041131D01*
X80866665Y34041348D01*
X80636869Y33946398D01*
X80460900Y33770736D01*
X80365549Y33541106D01*
X80365450Y33427646D01*
X79768924Y32831120D01*
X18845699Y32831120D01*
X19015660Y33000784D01*
X19111011Y33230414D01*
X19111228Y33479055D01*
X19016278Y33708851D01*
X18840616Y33884820D01*
X18729114Y33931120D01*
X35691760Y33931120D01*
X35863968Y33965374D01*
X36009958Y34062922D01*
X38456850Y36509814D01*
X38597155Y36509692D01*
X38826951Y36604642D01*
X39002920Y36780304D01*
X39022868Y36828344D01*
X40477243Y38282720D01*
X49438560Y38282720D01*
X49562335Y38282612D01*
X49677736Y38330295D01*
X49677737Y38330295D01*
X49677738Y38330296D01*
X49792131Y38377562D01*
X49880499Y38465776D01*
X49880502Y38465778D01*
X49880504Y38465780D01*
X49968100Y38553224D01*
X50063451Y38782854D01*
X50063668Y39031495D01*
X49968718Y39261291D01*
X49880504Y39349659D01*
X49880502Y39349662D01*
X49880500Y39349664D01*
X49793056Y39437260D01*
X49677738Y39485144D01*
X49677737Y39485145D01*
X49677736Y39485145D01*
X49563426Y39532611D01*
X49438560Y39532720D01*
X49438533Y39532720D01*
X49314785Y39532828D01*
X49314524Y39532720D01*
X40218360Y39532720D01*
X40007866Y39490850D01*
X40117458Y39600442D01*
X40183525Y39699318D01*
X40215006Y39746432D01*
X40249260Y39918640D01*
X40249260Y40764903D01*
X40328800Y40844304D01*
X40424151Y41073934D01*
X40424368Y41322575D01*
X40329418Y41552371D01*
X40153756Y41728340D01*
X39924126Y41823691D01*
X39675485Y41823908D01*
X39445689Y41728958D01*
X39269720Y41553296D01*
X39174369Y41323666D01*
X39174152Y41075025D01*
X39269102Y40845229D01*
X39349260Y40764931D01*
X39349260Y40105036D01*
X34575344Y35331120D01*
X30079796Y35331120D01*
X30211999Y35463323D01*
X30339615Y35463212D01*
X30569411Y35558162D01*
X30745380Y35733824D01*
X30840731Y35963454D01*
X30840948Y36212095D01*
X30745998Y36441891D01*
X30570336Y36617860D01*
X30377339Y36697999D01*
X30569411Y36777362D01*
X30745380Y36953024D01*
X30840731Y37182654D01*
X30840948Y37431295D01*
X30745998Y37661091D01*
X30570336Y37837060D01*
X30340706Y37932411D01*
X30092065Y37932628D01*
X29862269Y37837678D01*
X29686300Y37662016D01*
X29590949Y37432386D01*
X29590850Y37318926D01*
X28603044Y36331120D01*
X10063836Y36331120D01*
X10087038Y36354322D01*
X10146168Y36442816D01*
X10184586Y36500312D01*
X10205115Y36603520D01*
X20510500Y36603520D01*
X20682708Y36637774D01*
X20828698Y36735322D01*
X21007026Y36913650D01*
X21119415Y36913552D01*
X21349211Y37008502D01*
X21525180Y37184164D01*
X21620531Y37413794D01*
X21620748Y37662435D01*
X21525798Y37892231D01*
X21350136Y38068200D01*
X21120506Y38163551D01*
X20871865Y38163768D01*
X20642069Y38068818D01*
X20466100Y37893156D01*
X20370749Y37663526D01*
X20370650Y37550066D01*
X20324104Y37503520D01*
X20084479Y37503520D01*
X20172731Y37716054D01*
X20172948Y37964695D01*
X20077998Y38194491D01*
X19902336Y38370460D01*
X19672706Y38465811D01*
X19424065Y38466028D01*
X19194269Y38371078D01*
X19154241Y38331120D01*
X16630670Y38331120D01*
X16698011Y38493294D01*
X16698228Y38741935D01*
X16620058Y38931120D01*
X20838764Y38931120D01*
X22245150Y37524734D01*
X22245052Y37412345D01*
X22340002Y37182549D01*
X22515664Y37006580D01*
X22745294Y36911229D01*
X22993935Y36911012D01*
X23223731Y37005962D01*
X23399700Y37181624D01*
X23495051Y37411254D01*
X23495268Y37659895D01*
X23400318Y37889691D01*
X23224656Y38065660D01*
X22995026Y38161011D01*
X22881566Y38161110D01*
X21343358Y39699318D01*
X21272847Y39746432D01*
X21197368Y39796866D01*
X21025160Y39831120D01*
X9091390Y39831120D01*
X9066390Y39856120D01*
X8447640Y39856120D01*
X8447640Y39836120D01*
X8397640Y39836120D01*
X8397640Y39856120D01*
X7778890Y39856120D01*
X7697640Y39774870D01*
X7697640Y39716474D01*
X7732537Y39632224D01*
X7717380Y39610040D01*
X7691273Y39481120D01*
X532080Y39481120D01*
X532080Y42981120D01*
X7691273Y42981120D01*
X7691273Y42781120D01*
X7713935Y42660682D01*
X7732388Y42632005D01*
X7717380Y42610040D01*
X7691273Y42481120D01*
X7691273Y42281120D01*
X7713935Y42160682D01*
X7732388Y42132005D01*
X7717380Y42110040D01*
X7691273Y41981120D01*
X7691273Y41781120D01*
X7713935Y41660682D01*
X7732388Y41632005D01*
X7717380Y41610040D01*
X7691273Y41481120D01*
X7691273Y41281120D01*
X7713935Y41160682D01*
X7732388Y41132005D01*
X7717380Y41110040D01*
X7691273Y40981120D01*
X7691273Y40781120D01*
X7713935Y40660682D01*
X7732388Y40632005D01*
X7717380Y40610040D01*
X7691273Y40481120D01*
X7691273Y40281120D01*
X7713935Y40160682D01*
X7732980Y40131085D01*
X7697640Y40045766D01*
X7697640Y39987370D01*
X7778890Y39906120D01*
X8397640Y39906120D01*
X8397640Y39926120D01*
X8447640Y39926120D01*
X8447640Y39906120D01*
X9066390Y39906120D01*
X9147640Y39987370D01*
X9147640Y40045766D01*
X9112743Y40130016D01*
X9127900Y40152200D01*
X9154007Y40281120D01*
X9154007Y40481120D01*
X9131345Y40601558D01*
X9112892Y40630235D01*
X9127900Y40652200D01*
X9150771Y40765145D01*
X15950932Y40765145D01*
X16045882Y40535349D01*
X16134096Y40446981D01*
X16134098Y40446978D01*
X16134100Y40446976D01*
X16221544Y40359380D01*
X16336862Y40311496D01*
X16336863Y40311495D01*
X16336864Y40311495D01*
X16451174Y40264029D01*
X16576040Y40263920D01*
X16699815Y40263812D01*
X16815216Y40311495D01*
X16815217Y40311495D01*
X16815218Y40311496D01*
X16929611Y40358762D01*
X17017979Y40446976D01*
X17017982Y40446978D01*
X17017984Y40446980D01*
X17105580Y40534424D01*
X17200931Y40764054D01*
X17201148Y41012695D01*
X17201040Y41012956D01*
X17201040Y59565736D01*
X21673624Y64038320D01*
X82936276Y64038320D01*
X95971200Y51003397D01*
X95971200Y36057840D01*
X95971092Y35934065D01*
X96066042Y35704269D01*
X96154256Y35615901D01*
X96154258Y35615898D01*
X96154260Y35615896D01*
X96241704Y35528300D01*
X96357022Y35480416D01*
X96357023Y35480415D01*
X96357024Y35480415D01*
X96471334Y35432949D01*
X96596200Y35432840D01*
X96719975Y35432732D01*
X96835376Y35480415D01*
X96835377Y35480415D01*
X96835378Y35480416D01*
X96949771Y35527682D01*
X97038139Y35615896D01*
X97038142Y35615898D01*
X97038144Y35615900D01*
X97125740Y35703344D01*
X97221091Y35932974D01*
X97221308Y36181615D01*
X97221200Y36181876D01*
X97221200Y51262275D01*
X97221201Y51262280D01*
X97173625Y51501457D01*
X97038142Y51704222D01*
X97038139Y51704224D01*
X84234402Y64507962D01*
X93621238Y64507962D01*
X93910005Y64159964D01*
X94934672Y63698328D01*
X96058001Y63663955D01*
X97108976Y64062077D01*
X97255475Y64159964D01*
X97544242Y64507962D01*
X95582740Y66469465D01*
X93621238Y64507962D01*
X84234402Y64507962D01*
X83637102Y65105262D01*
X83434337Y65240745D01*
X83195160Y65288320D01*
X21414740Y65288320D01*
X21175562Y65240745D01*
X20972798Y65105262D01*
X16134098Y60266562D01*
X15998615Y60063797D01*
X15951040Y59824620D01*
X15951040Y40888920D01*
X15950932Y40765145D01*
X9150771Y40765145D01*
X9154007Y40781120D01*
X9154007Y40981120D01*
X9131345Y41101558D01*
X9112892Y41130235D01*
X9127900Y41152200D01*
X9154007Y41281120D01*
X9154007Y41481120D01*
X9131345Y41601558D01*
X9112892Y41630235D01*
X9127900Y41652200D01*
X9154007Y41781120D01*
X9154007Y41981120D01*
X9131345Y42101558D01*
X9112892Y42130235D01*
X9127900Y42152200D01*
X9154007Y42281120D01*
X9154007Y42481120D01*
X9131345Y42601558D01*
X9112892Y42630235D01*
X9127900Y42652200D01*
X9154007Y42781120D01*
X9154007Y42981120D01*
X9131345Y43101558D01*
X9060166Y43212173D01*
X8951560Y43286380D01*
X8822640Y43312487D01*
X8022640Y43312487D01*
X7902202Y43289825D01*
X7791587Y43218646D01*
X7717380Y43110040D01*
X7691273Y42981120D01*
X532080Y42981120D01*
X532080Y44674870D01*
X4597640Y44674870D01*
X4597640Y43966474D01*
X4647118Y43847023D01*
X4738542Y43755599D01*
X4857993Y43706120D01*
X5816390Y43706120D01*
X5897640Y43787370D01*
X5897640Y44756120D01*
X5947640Y44756120D01*
X5947640Y43787370D01*
X6028890Y43706120D01*
X6987287Y43706120D01*
X7106738Y43755599D01*
X7198162Y43847023D01*
X7247640Y43966474D01*
X7247640Y44674870D01*
X7166390Y44756120D01*
X5947640Y44756120D01*
X5897640Y44756120D01*
X4678890Y44756120D01*
X4597640Y44674870D01*
X532080Y44674870D01*
X532080Y45595766D01*
X4597640Y45595766D01*
X4597640Y44887370D01*
X4678890Y44806120D01*
X5897640Y44806120D01*
X5897640Y45774870D01*
X5947640Y45774870D01*
X5947640Y44806120D01*
X7166390Y44806120D01*
X7247640Y44887370D01*
X7247640Y45595766D01*
X7198162Y45715217D01*
X7106738Y45806641D01*
X6987287Y45856120D01*
X6028890Y45856120D01*
X5947640Y45774870D01*
X5897640Y45774870D01*
X5816390Y45856120D01*
X4857993Y45856120D01*
X4738542Y45806641D01*
X4647118Y45715217D01*
X4597640Y45595766D01*
X532080Y45595766D01*
X532080Y64507962D01*
X1038238Y64507962D01*
X1327005Y64159964D01*
X2351672Y63698328D01*
X3475001Y63663955D01*
X4525976Y64062077D01*
X4672475Y64159964D01*
X4961242Y64507962D01*
X2999740Y66469465D01*
X1038238Y64507962D01*
X532080Y64507962D01*
X532080Y65044361D01*
X556997Y64978584D01*
X654884Y64832085D01*
X1002882Y64543318D01*
X2964385Y66504820D01*
X3035095Y66504820D01*
X4996598Y64543318D01*
X5344596Y64832085D01*
X5806232Y65856752D01*
X5811519Y66029559D01*
X92741875Y66029559D01*
X93139997Y64978584D01*
X93237884Y64832085D01*
X93585882Y64543318D01*
X95547385Y66504820D01*
X93585882Y68466322D01*
X93237884Y68177555D01*
X92776248Y67152888D01*
X92741875Y66029559D01*
X5811519Y66029559D01*
X5840605Y66980081D01*
X5442483Y68031056D01*
X5344596Y68177555D01*
X4996598Y68466322D01*
X3035095Y66504820D01*
X2964385Y66504820D01*
X1002882Y68466322D01*
X654884Y68177555D01*
X532080Y67904974D01*
X532080Y68942000D01*
X1465178Y68942000D01*
X1327005Y68849676D01*
X1327005Y68849676D01*
G37*
X1327005Y68849676D02*
X1038238Y68501678D01*
X2999740Y66540175D01*
X4961242Y68501678D01*
X4672475Y68849676D01*
X4467549Y68942000D01*
X94048178Y68942000D01*
X93910005Y68849676D01*
X93621238Y68501678D01*
X95582740Y66540175D01*
X97544242Y68501678D01*
X97255475Y68849676D01*
X97050549Y68942000D01*
X98050400Y68942000D01*
X98050400Y67965279D01*
X98025483Y68031056D01*
X97927596Y68177555D01*
X97579598Y68466322D01*
X95618095Y66504820D01*
X97579598Y64543318D01*
X97927596Y64832085D01*
X98050400Y65104666D01*
X98050400Y5735279D01*
X98025483Y5801056D01*
X97927596Y5947555D01*
X97579598Y6236322D01*
X95618095Y4274820D01*
X97579598Y2313318D01*
X97927596Y2602085D01*
X98050400Y2874666D01*
X98050400Y1868120D01*
X97162918Y1868120D01*
X97255475Y1929964D01*
X97544242Y2277962D01*
X95582740Y4239465D01*
X93621238Y2277962D01*
X93910005Y1929964D01*
X94047277Y1868120D01*
X4673849Y1868120D01*
X4961242Y2214462D01*
X2999740Y4175965D01*
X1038238Y2214462D01*
X1325631Y1868120D01*
X532080Y1868120D01*
X532080Y2750861D01*
X556997Y2685084D01*
X654884Y2538585D01*
X1002882Y2249818D01*
X2964385Y4211320D01*
X3035095Y4211320D01*
X4996598Y2249818D01*
X5344596Y2538585D01*
X5806232Y3563252D01*
X5840605Y4686581D01*
X5442483Y5737556D01*
X5344596Y5884055D01*
X4996598Y6172822D01*
X3035095Y4211320D01*
X2964385Y4211320D01*
X1002882Y6172822D01*
X654884Y5884055D01*
X532080Y5611474D01*
X532080Y6208178D01*
X1038238Y6208178D01*
X2999740Y4246675D01*
X4961242Y6208178D01*
X4672475Y6556176D01*
X3647808Y7017812D01*
X2524479Y7052185D01*
X1473504Y6654063D01*
X1327005Y6556176D01*
X1038238Y6208178D01*
X532080Y6208178D01*
X532080Y7624520D01*
X6797954Y7624520D01*
X6797954Y2174520D01*
X65876527Y2174520D01*
X65876527Y3799559D01*
X92741875Y3799559D01*
X93139997Y2748584D01*
X93237884Y2602085D01*
X93585882Y2313318D01*
X95547385Y4274820D01*
X93585882Y6236322D01*
X93237884Y5947555D01*
X92776248Y4922888D01*
X92741875Y3799559D01*
X65876527Y3799559D01*
X65876527Y6271678D01*
X93621238Y6271678D01*
X95582740Y4310175D01*
X97544242Y6271678D01*
X97255475Y6619676D01*
X96230808Y7081312D01*
X95107479Y7115685D01*
X94056504Y6717563D01*
X93910005Y6619676D01*
X93621238Y6271678D01*
X65876527Y6271678D01*
X65876527Y7624520D01*
X6797954Y7624520D01*
X532080Y7624520D01*
X532080Y26374870D01*
X4597640Y26374870D01*
X4597640Y25666474D01*
X4647118Y25547023D01*
X4738542Y25455599D01*
X4857993Y25406120D01*
X5816390Y25406120D01*
X5897640Y25487370D01*
X5897640Y26456120D01*
X5947640Y26456120D01*
X5947640Y25487370D01*
X6028890Y25406120D01*
X6987287Y25406120D01*
X7106738Y25455599D01*
X7198162Y25547023D01*
X7247640Y25666474D01*
X7247640Y26374870D01*
X7166390Y26456120D01*
X5947640Y26456120D01*
X5897640Y26456120D01*
X4678890Y26456120D01*
X4597640Y26374870D01*
X532080Y26374870D01*
X532080Y27295766D01*
X4597640Y27295766D01*
X4597640Y26587370D01*
X4678890Y26506120D01*
X5897640Y26506120D01*
X5897640Y27474870D01*
X5947640Y27474870D01*
X5947640Y26506120D01*
X7166390Y26506120D01*
X7247640Y26587370D01*
X7247640Y27295766D01*
X7198162Y27415217D01*
X7106738Y27506641D01*
X6987287Y27556120D01*
X6028890Y27556120D01*
X5947640Y27474870D01*
X5897640Y27474870D01*
X5816390Y27556120D01*
X4857993Y27556120D01*
X4738542Y27506641D01*
X4647118Y27415217D01*
X4597640Y27295766D01*
X532080Y27295766D01*
X532080Y28274870D01*
X7697640Y28274870D01*
X7697640Y28216474D01*
X7747118Y28097023D01*
X7838542Y28005599D01*
X7957993Y27956120D01*
X8316390Y27956120D01*
X8397640Y28037370D01*
X8397640Y28356120D01*
X8447640Y28356120D01*
X8447640Y28037370D01*
X8528890Y27956120D01*
X8887287Y27956120D01*
X9006738Y28005599D01*
X9098162Y28097023D01*
X9147640Y28216474D01*
X9147640Y28274870D01*
X9066390Y28356120D01*
X8447640Y28356120D01*
X8397640Y28356120D01*
X7778890Y28356120D01*
X7697640Y28274870D01*
X532080Y28274870D01*
X532080Y39481120D01*
X7691273Y39481120D01*
X7691273Y39281120D01*
X7713935Y39160682D01*
X7732980Y39131085D01*
X7697640Y39045766D01*
X7697640Y38987370D01*
X7778890Y38906120D01*
X8397640Y38906120D01*
X8397640Y38926120D01*
X8447640Y38926120D01*
X8447640Y38906120D01*
X9066390Y38906120D01*
X9091390Y38931120D01*
X15526333Y38931120D01*
X15484809Y38831120D01*
X9091390Y38831120D01*
X9066390Y38856120D01*
X8447640Y38856120D01*
X8447640Y38836120D01*
X8397640Y38836120D01*
X8397640Y38856120D01*
X7778890Y38856120D01*
X7697640Y38774870D01*
X7697640Y38716474D01*
X7732537Y38632224D01*
X7717380Y38610040D01*
X7691273Y38481120D01*
X7691273Y38281120D01*
X7713935Y38160682D01*
X7732388Y38132005D01*
X7717380Y38110040D01*
X7691273Y37981120D01*
X7691273Y37781120D01*
X7713935Y37660682D01*
X7732388Y37632005D01*
X7717380Y37610040D01*
X7691273Y37481120D01*
X7691273Y37281120D01*
X7713935Y37160682D01*
X7732980Y37131085D01*
X7697640Y37045766D01*
X7697640Y36987370D01*
X7778890Y36906120D01*
X8397640Y36906120D01*
X8397640Y36926120D01*
X8447640Y36926120D01*
X8447640Y36906120D01*
X9066390Y36906120D01*
X9091390Y36931120D01*
X9254844Y36931120D01*
X9318840Y36867124D01*
X9318840Y36858916D01*
X9291044Y36831120D01*
X9091390Y36831120D01*
X9066390Y36856120D01*
X8447640Y36856120D01*
X8447640Y36836120D01*
X8397640Y36836120D01*
X8397640Y36856120D01*
X7778890Y36856120D01*
X7697640Y36774870D01*
X7697640Y36716474D01*
X7732537Y36632224D01*
X7717380Y36610040D01*
X7691273Y36481120D01*
X7691273Y36281120D01*
X7713935Y36160682D01*
X7732388Y36132005D01*
X7717380Y36110040D01*
X7691273Y35981120D01*
X7691273Y35781120D01*
X7713935Y35660682D01*
X7732388Y35632005D01*
X7717380Y35610040D01*
X7691273Y35481120D01*
X7691273Y35281120D01*
X7713935Y35160682D01*
X7732388Y35132005D01*
X7717380Y35110040D01*
X7691273Y34981120D01*
X7691273Y34781120D01*
X7713935Y34660682D01*
X7732388Y34632005D01*
X7717380Y34610040D01*
X7691273Y34481120D01*
X7691273Y34281120D01*
X7713935Y34160682D01*
X7732980Y34131085D01*
X7697640Y34045766D01*
X7697640Y33987370D01*
X7778890Y33906120D01*
X8397640Y33906120D01*
X8397640Y33926120D01*
X8447640Y33926120D01*
X8447640Y33906120D01*
X9066390Y33906120D01*
X9091390Y33931120D01*
X18243108Y33931120D01*
X18132549Y33885438D01*
X18078136Y33831120D01*
X9091390Y33831120D01*
X9066390Y33856120D01*
X8447640Y33856120D01*
X8447640Y33836120D01*
X8397640Y33836120D01*
X8397640Y33856120D01*
X7778890Y33856120D01*
X7697640Y33774870D01*
X7697640Y33716474D01*
X7732537Y33632224D01*
X7717380Y33610040D01*
X7691273Y33481120D01*
X7691273Y33281120D01*
X7713935Y33160682D01*
X7732980Y33131085D01*
X7697640Y33045766D01*
X7697640Y32987370D01*
X7778890Y32906120D01*
X8397640Y32906120D01*
X8397640Y32926120D01*
X8447640Y32926120D01*
X8447640Y32906120D01*
X9066390Y32906120D01*
X9091390Y32931120D01*
X18026428Y32931120D01*
X18126253Y32831120D01*
X9091390Y32831120D01*
X9066390Y32856120D01*
X8447640Y32856120D01*
X8447640Y32836120D01*
X8397640Y32836120D01*
X8397640Y32856120D01*
X7778890Y32856120D01*
X7697640Y32774870D01*
X7697640Y32716474D01*
X7732537Y32632224D01*
X7717380Y32610040D01*
X7691273Y32481120D01*
X7691273Y32281120D01*
X7713935Y32160682D01*
X7732388Y32132005D01*
X7717380Y32110040D01*
X7691273Y31981120D01*
X7691273Y31781120D01*
X7713935Y31660682D01*
X7732980Y31631085D01*
X7697640Y31545766D01*
X7697640Y31487370D01*
X7778890Y31406120D01*
X8397640Y31406120D01*
X8397640Y31426120D01*
X8447640Y31426120D01*
X8447640Y31406120D01*
X9066390Y31406120D01*
X9091390Y31431120D01*
X80258684Y31431120D01*
X80158684Y31331120D01*
X9091390Y31331120D01*
X9066390Y31356120D01*
X8447640Y31356120D01*
X8447640Y31336120D01*
X8397640Y31336120D01*
X8397640Y31356120D01*
X7778890Y31356120D01*
X7697640Y31274870D01*
X7697640Y31216474D01*
X7732537Y31132224D01*
X7717380Y31110040D01*
X7691273Y30981120D01*
X7691273Y30781120D01*
X7713935Y30660682D01*
X7732388Y30632005D01*
X7717380Y30610040D01*
X7691273Y30481120D01*
X7691273Y30281120D01*
X7713935Y30160682D01*
X7732980Y30131085D01*
X7697640Y30045766D01*
X7697640Y29987370D01*
X7778890Y29906120D01*
X8397640Y29906120D01*
X8397640Y29926120D01*
X8447640Y29926120D01*
X8447640Y29906120D01*
X9066390Y29906120D01*
X9091390Y29931120D01*
X32547476Y29931120D01*
X32479001Y29862764D01*
X32478998Y29862762D01*
X32478996Y29862760D01*
X32391400Y29775316D01*
X32296049Y29545686D01*
X32295832Y29297045D01*
X32390782Y29067249D01*
X32478996Y28978881D01*
X32478998Y28978878D01*
X32479471Y28978405D01*
X32566444Y28891280D01*
X32566704Y28891172D01*
X35816556Y25641321D01*
X35816558Y25641318D01*
X35894762Y25589064D01*
X36019323Y25505835D01*
X36258500Y25458259D01*
X36258505Y25458260D01*
X50137060Y25458260D01*
X50260835Y25458152D01*
X50376236Y25505835D01*
X50376237Y25505835D01*
X50376238Y25505836D01*
X50490631Y25553102D01*
X50578999Y25641316D01*
X50579002Y25641318D01*
X50579004Y25641320D01*
X50666600Y25728764D01*
X50761951Y25958394D01*
X50762168Y26207035D01*
X50667218Y26436831D01*
X50579004Y26525199D01*
X50579002Y26525202D01*
X50579000Y26525204D01*
X50491556Y26612800D01*
X50376238Y26660684D01*
X50376237Y26660685D01*
X50376236Y26660685D01*
X50261926Y26708151D01*
X50137060Y26708260D01*
X50137033Y26708260D01*
X50013285Y26708368D01*
X50013024Y26708260D01*
X36517383Y26708260D01*
X33362882Y29862762D01*
X33362880Y29862764D01*
X33294642Y29931120D01*
X38061644Y29931120D01*
X38018669Y29827626D01*
X38018452Y29578985D01*
X38113402Y29349189D01*
X38289064Y29173220D01*
X38331091Y29155769D01*
X38697347Y28880535D01*
X38768239Y28846456D01*
X38833643Y28802755D01*
X38877153Y28794100D01*
X38917134Y28774881D01*
X38995672Y28770526D01*
X39072820Y28755180D01*
X49766416Y28755180D01*
X50825240Y27696357D01*
X50825240Y24853900D01*
X50825132Y24730125D01*
X50920082Y24500329D01*
X51008296Y24411961D01*
X51008298Y24411958D01*
X51008300Y24411956D01*
X51095744Y24324360D01*
X51211062Y24276476D01*
X51211063Y24276475D01*
X51211064Y24276475D01*
X51325374Y24229009D01*
X51450240Y24228900D01*
X51574015Y24228792D01*
X51689416Y24276475D01*
X51689417Y24276475D01*
X51689418Y24276476D01*
X51803811Y24323742D01*
X51892179Y24411956D01*
X51892182Y24411958D01*
X51892184Y24411960D01*
X51979780Y24499404D01*
X52075131Y24729034D01*
X52075348Y24977675D01*
X52075240Y24977936D01*
X52075240Y27955240D01*
X52027665Y28194417D01*
X51892182Y28397182D01*
X51892179Y28397184D01*
X50467242Y29822122D01*
X50304115Y29931120D01*
X68412006Y29931120D01*
X68411140Y29930256D01*
X68315789Y29700626D01*
X68315572Y29451985D01*
X68410522Y29222189D01*
X68586184Y29046220D01*
X68815814Y28950869D01*
X68893887Y28950801D01*
X69582702Y28261987D01*
X69582704Y28261984D01*
X69736805Y28159017D01*
X69918580Y28122860D01*
X78023986Y28122860D01*
X77983029Y28024226D01*
X77982930Y27910766D01*
X73504084Y23431920D01*
X36157876Y23431920D01*
X29890478Y29699318D01*
X29861552Y29718646D01*
X29744488Y29796866D01*
X29572280Y29831120D01*
X9091390Y29831120D01*
X9066390Y29856120D01*
X8447640Y29856120D01*
X8447640Y29836120D01*
X8397640Y29836120D01*
X8397640Y29856120D01*
X7778890Y29856120D01*
X7697640Y29774870D01*
X7697640Y29716474D01*
X7732537Y29632224D01*
X7717380Y29610040D01*
X7691273Y29481120D01*
X7691273Y29281120D01*
X7713935Y29160682D01*
X7732388Y29132005D01*
X7717380Y29110040D01*
X7691273Y28981120D01*
X7691273Y28781120D01*
X7713935Y28660682D01*
X7732980Y28631085D01*
X7697640Y28545766D01*
X7697640Y28487370D01*
X7778890Y28406120D01*
X8397640Y28406120D01*
X8397640Y28426120D01*
X8447640Y28426120D01*
X8447640Y28406120D01*
X9066390Y28406120D01*
X9091390Y28431120D01*
X28829244Y28431120D01*
X35239262Y22021102D01*
X35385253Y21923553D01*
X35557460Y21889300D01*
X74584560Y21889300D01*
X74756768Y21923554D01*
X74902758Y22021102D01*
X78200206Y25318550D01*
X78312595Y25318452D01*
X78542391Y25413402D01*
X78718360Y25589064D01*
X78813711Y25818694D01*
X78813928Y26067335D01*
X78718978Y26297131D01*
X78543316Y26473100D01*
X78313686Y26568451D01*
X78065045Y26568668D01*
X77835249Y26473718D01*
X77659280Y26298056D01*
X77563929Y26068426D01*
X77563830Y25954966D01*
X74398164Y22789300D01*
X74134256Y22789300D01*
X78619306Y27274350D01*
X78731695Y27274252D01*
X78961491Y27369202D01*
X79137460Y27544864D01*
X79232811Y27774494D01*
X79233028Y28023135D01*
X79191822Y28122860D01*
X88369139Y28122860D01*
X88423584Y28068320D01*
X88653214Y27972969D01*
X88901855Y27972752D01*
X89131651Y28067702D01*
X89307620Y28243364D01*
X89402971Y28472994D01*
X89403188Y28721635D01*
X89308238Y28951431D01*
X89132576Y29127400D01*
X89019677Y29174280D01*
X93723460Y29174280D01*
X93962637Y29221855D01*
X94165402Y29357338D01*
X94891842Y30083778D01*
X95027325Y30286542D01*
X95074900Y30525720D01*
X95074900Y33626906D01*
X95144424Y33557260D01*
X95259742Y33509376D01*
X95259743Y33509375D01*
X95259744Y33509375D01*
X95374054Y33461909D01*
X95498920Y33461800D01*
X95498947Y33461800D01*
X95622695Y33461692D01*
X95622956Y33461800D01*
X95808996Y33461800D01*
X95961040Y33309756D01*
X95961040Y17005103D01*
X93215656Y14259720D01*
X38615424Y14259720D01*
X38087280Y14787864D01*
X37999836Y14875460D01*
X37884518Y14923344D01*
X37884517Y14923345D01*
X37884516Y14923345D01*
X37770206Y14970811D01*
X37645340Y14970920D01*
X37521565Y14971028D01*
X37406164Y14923345D01*
X37406163Y14923345D01*
X37406162Y14923344D01*
X37291769Y14876078D01*
X37203401Y14787864D01*
X37203398Y14787862D01*
X37203396Y14787860D01*
X37115800Y14700416D01*
X37020449Y14470786D01*
X37020232Y14222145D01*
X37115182Y13992349D01*
X37203396Y13903981D01*
X37203398Y13903978D01*
X37203871Y13903505D01*
X37290844Y13816380D01*
X37291104Y13816272D01*
X37914598Y13192778D01*
X38117363Y13057295D01*
X38356540Y13009719D01*
X38356545Y13009720D01*
X93474540Y13009720D01*
X93713717Y13057295D01*
X93916482Y13192778D01*
X97027979Y16304276D01*
X97027982Y16304278D01*
X97163465Y16507043D01*
X97211040Y16746220D01*
X97211040Y33568640D01*
X97163465Y33807817D01*
X97027982Y34010582D01*
X96509822Y34528742D01*
X96307057Y34664225D01*
X96067880Y34711800D01*
X95498920Y34711800D01*
X95375145Y34711908D01*
X95259744Y34664225D01*
X95259743Y34664225D01*
X95259742Y34664224D01*
X95145349Y34616958D01*
X95074900Y34546632D01*
X95074900Y37081455D01*
X95074901Y37081460D01*
X95027325Y37320637D01*
X94989987Y37376517D01*
X94891842Y37523402D01*
X94891839Y37523404D01*
X94627682Y37787562D01*
X94627680Y37787564D01*
X94540236Y37875160D01*
X94424918Y37923044D01*
X94424917Y37923045D01*
X94424916Y37923045D01*
X94310606Y37970511D01*
X94185740Y37970620D01*
X94061965Y37970728D01*
X93946564Y37923045D01*
X93946563Y37923045D01*
X93946562Y37923044D01*
X93832169Y37875778D01*
X93743801Y37787564D01*
X93743798Y37787562D01*
X93743796Y37787560D01*
X93656200Y37700116D01*
X93560849Y37470486D01*
X93560632Y37221845D01*
X93655582Y36992049D01*
X93743796Y36903681D01*
X93743798Y36903678D01*
X93744270Y36903206D01*
X93824900Y36822435D01*
X93824900Y32212381D01*
X93724896Y32312560D01*
X93603713Y32362880D01*
X76898686Y49067906D01*
X76712143Y49192551D01*
X76492100Y49236320D01*
X35337657Y49236320D01*
X35217506Y49286211D01*
X34968865Y49286428D01*
X34739069Y49191478D01*
X34563100Y49015816D01*
X34467749Y48786186D01*
X34467532Y48537545D01*
X34562482Y48307749D01*
X34738144Y48131780D01*
X34967774Y48036429D01*
X35216415Y48036212D01*
X35337685Y48086320D01*
X76253928Y48086320D01*
X92790561Y31549686D01*
X92840242Y31429449D01*
X93015904Y31253480D01*
X93245534Y31158129D01*
X93494175Y31157912D01*
X93723971Y31252862D01*
X93824900Y31353615D01*
X93824900Y30784604D01*
X93464576Y30424280D01*
X88019704Y30424280D01*
X88066931Y30538014D01*
X88067148Y30786655D01*
X87972198Y31016451D01*
X87796536Y31192420D01*
X87769320Y31203721D01*
X87769320Y36108640D01*
X87731260Y36299982D01*
X87677045Y36381120D01*
X87622873Y36462194D01*
X77081382Y47003684D01*
X77037498Y47109891D01*
X76861836Y47285860D01*
X76632206Y47381211D01*
X76383565Y47381428D01*
X76153769Y47286478D01*
X75977800Y47110816D01*
X75882449Y46881186D01*
X75882232Y46632545D01*
X75977182Y46402749D01*
X76152844Y46226780D01*
X76382474Y46131429D01*
X76539562Y46131292D01*
X85302753Y37368100D01*
X85121847Y37368100D01*
X83789752Y38700195D01*
X83789788Y38741935D01*
X83694838Y38971731D01*
X83519176Y39147700D01*
X83289546Y39243051D01*
X83040905Y39243268D01*
X82811109Y39148318D01*
X82635140Y38972656D01*
X82539789Y38743026D01*
X82539572Y38494385D01*
X82634522Y38264589D01*
X82810184Y38088620D01*
X83039814Y37993269D01*
X83082502Y37993232D01*
X84561187Y36514546D01*
X84648121Y36456459D01*
X84723398Y36406160D01*
X84914740Y36368100D01*
X85441694Y36368100D01*
X86042880Y35766914D01*
X86042880Y35628131D01*
X85937256Y35733940D01*
X85707626Y35829291D01*
X85458985Y35829508D01*
X85229189Y35734558D01*
X85053220Y35558896D01*
X84957869Y35329266D01*
X84957770Y35215806D01*
X84603331Y34861367D01*
X84573678Y34933131D01*
X84398016Y35109100D01*
X84168386Y35204451D01*
X83919745Y35204668D01*
X83689949Y35109718D01*
X83513980Y34934056D01*
X83418629Y34704426D01*
X83418530Y34590966D01*
X83079331Y34251767D01*
X83049678Y34323531D01*
X82874016Y34499500D01*
X82644386Y34594851D01*
X82395745Y34595068D01*
X82165949Y34500118D01*
X81989980Y34324456D01*
X81894629Y34094826D01*
X81894530Y33981366D01*
X81568074Y33654910D01*
X81520598Y33769811D01*
X81344936Y33945780D01*
X81115306Y34041131D01*
X80866665Y34041348D01*
X80636869Y33946398D01*
X80460900Y33770736D01*
X80365549Y33541106D01*
X80365450Y33427646D01*
X79768924Y32831120D01*
X18845699Y32831120D01*
X19015660Y33000784D01*
X19111011Y33230414D01*
X19111228Y33479055D01*
X19016278Y33708851D01*
X18840616Y33884820D01*
X18729114Y33931120D01*
X35691760Y33931120D01*
X35863968Y33965374D01*
X36009958Y34062922D01*
X38456850Y36509814D01*
X38597155Y36509692D01*
X38826951Y36604642D01*
X39002920Y36780304D01*
X39022868Y36828344D01*
X40477243Y38282720D01*
X49438560Y38282720D01*
X49562335Y38282612D01*
X49677736Y38330295D01*
X49677737Y38330295D01*
X49677738Y38330296D01*
X49792131Y38377562D01*
X49880499Y38465776D01*
X49880502Y38465778D01*
X49880504Y38465780D01*
X49968100Y38553224D01*
X50063451Y38782854D01*
X50063668Y39031495D01*
X49968718Y39261291D01*
X49880504Y39349659D01*
X49880502Y39349662D01*
X49880500Y39349664D01*
X49793056Y39437260D01*
X49677738Y39485144D01*
X49677737Y39485145D01*
X49677736Y39485145D01*
X49563426Y39532611D01*
X49438560Y39532720D01*
X49438533Y39532720D01*
X49314785Y39532828D01*
X49314524Y39532720D01*
X40218360Y39532720D01*
X40007866Y39490850D01*
X40117458Y39600442D01*
X40183525Y39699318D01*
X40215006Y39746432D01*
X40249260Y39918640D01*
X40249260Y40764903D01*
X40328800Y40844304D01*
X40424151Y41073934D01*
X40424368Y41322575D01*
X40329418Y41552371D01*
X40153756Y41728340D01*
X39924126Y41823691D01*
X39675485Y41823908D01*
X39445689Y41728958D01*
X39269720Y41553296D01*
X39174369Y41323666D01*
X39174152Y41075025D01*
X39269102Y40845229D01*
X39349260Y40764931D01*
X39349260Y40105036D01*
X34575344Y35331120D01*
X30079796Y35331120D01*
X30211999Y35463323D01*
X30339615Y35463212D01*
X30569411Y35558162D01*
X30745380Y35733824D01*
X30840731Y35963454D01*
X30840948Y36212095D01*
X30745998Y36441891D01*
X30570336Y36617860D01*
X30377339Y36697999D01*
X30569411Y36777362D01*
X30745380Y36953024D01*
X30840731Y37182654D01*
X30840948Y37431295D01*
X30745998Y37661091D01*
X30570336Y37837060D01*
X30340706Y37932411D01*
X30092065Y37932628D01*
X29862269Y37837678D01*
X29686300Y37662016D01*
X29590949Y37432386D01*
X29590850Y37318926D01*
X28603044Y36331120D01*
X10063836Y36331120D01*
X10087038Y36354322D01*
X10146168Y36442816D01*
X10184586Y36500312D01*
X10205115Y36603520D01*
X20510500Y36603520D01*
X20682708Y36637774D01*
X20828698Y36735322D01*
X21007026Y36913650D01*
X21119415Y36913552D01*
X21349211Y37008502D01*
X21525180Y37184164D01*
X21620531Y37413794D01*
X21620748Y37662435D01*
X21525798Y37892231D01*
X21350136Y38068200D01*
X21120506Y38163551D01*
X20871865Y38163768D01*
X20642069Y38068818D01*
X20466100Y37893156D01*
X20370749Y37663526D01*
X20370650Y37550066D01*
X20324104Y37503520D01*
X20084479Y37503520D01*
X20172731Y37716054D01*
X20172948Y37964695D01*
X20077998Y38194491D01*
X19902336Y38370460D01*
X19672706Y38465811D01*
X19424065Y38466028D01*
X19194269Y38371078D01*
X19154241Y38331120D01*
X16630670Y38331120D01*
X16698011Y38493294D01*
X16698228Y38741935D01*
X16620058Y38931120D01*
X20838764Y38931120D01*
X22245150Y37524734D01*
X22245052Y37412345D01*
X22340002Y37182549D01*
X22515664Y37006580D01*
X22745294Y36911229D01*
X22993935Y36911012D01*
X23223731Y37005962D01*
X23399700Y37181624D01*
X23495051Y37411254D01*
X23495268Y37659895D01*
X23400318Y37889691D01*
X23224656Y38065660D01*
X22995026Y38161011D01*
X22881566Y38161110D01*
X21343358Y39699318D01*
X21272847Y39746432D01*
X21197368Y39796866D01*
X21025160Y39831120D01*
X9091390Y39831120D01*
X9066390Y39856120D01*
X8447640Y39856120D01*
X8447640Y39836120D01*
X8397640Y39836120D01*
X8397640Y39856120D01*
X7778890Y39856120D01*
X7697640Y39774870D01*
X7697640Y39716474D01*
X7732537Y39632224D01*
X7717380Y39610040D01*
X7691273Y39481120D01*
X532080Y39481120D01*
X532080Y42981120D01*
X7691273Y42981120D01*
X7691273Y42781120D01*
X7713935Y42660682D01*
X7732388Y42632005D01*
X7717380Y42610040D01*
X7691273Y42481120D01*
X7691273Y42281120D01*
X7713935Y42160682D01*
X7732388Y42132005D01*
X7717380Y42110040D01*
X7691273Y41981120D01*
X7691273Y41781120D01*
X7713935Y41660682D01*
X7732388Y41632005D01*
X7717380Y41610040D01*
X7691273Y41481120D01*
X7691273Y41281120D01*
X7713935Y41160682D01*
X7732388Y41132005D01*
X7717380Y41110040D01*
X7691273Y40981120D01*
X7691273Y40781120D01*
X7713935Y40660682D01*
X7732388Y40632005D01*
X7717380Y40610040D01*
X7691273Y40481120D01*
X7691273Y40281120D01*
X7713935Y40160682D01*
X7732980Y40131085D01*
X7697640Y40045766D01*
X7697640Y39987370D01*
X7778890Y39906120D01*
X8397640Y39906120D01*
X8397640Y39926120D01*
X8447640Y39926120D01*
X8447640Y39906120D01*
X9066390Y39906120D01*
X9147640Y39987370D01*
X9147640Y40045766D01*
X9112743Y40130016D01*
X9127900Y40152200D01*
X9154007Y40281120D01*
X9154007Y40481120D01*
X9131345Y40601558D01*
X9112892Y40630235D01*
X9127900Y40652200D01*
X9150771Y40765145D01*
X15950932Y40765145D01*
X16045882Y40535349D01*
X16134096Y40446981D01*
X16134098Y40446978D01*
X16134100Y40446976D01*
X16221544Y40359380D01*
X16336862Y40311496D01*
X16336863Y40311495D01*
X16336864Y40311495D01*
X16451174Y40264029D01*
X16576040Y40263920D01*
X16699815Y40263812D01*
X16815216Y40311495D01*
X16815217Y40311495D01*
X16815218Y40311496D01*
X16929611Y40358762D01*
X17017979Y40446976D01*
X17017982Y40446978D01*
X17017984Y40446980D01*
X17105580Y40534424D01*
X17200931Y40764054D01*
X17201148Y41012695D01*
X17201040Y41012956D01*
X17201040Y59565736D01*
X21673624Y64038320D01*
X82936276Y64038320D01*
X95971200Y51003397D01*
X95971200Y36057840D01*
X95971092Y35934065D01*
X96066042Y35704269D01*
X96154256Y35615901D01*
X96154258Y35615898D01*
X96154260Y35615896D01*
X96241704Y35528300D01*
X96357022Y35480416D01*
X96357023Y35480415D01*
X96357024Y35480415D01*
X96471334Y35432949D01*
X96596200Y35432840D01*
X96719975Y35432732D01*
X96835376Y35480415D01*
X96835377Y35480415D01*
X96835378Y35480416D01*
X96949771Y35527682D01*
X97038139Y35615896D01*
X97038142Y35615898D01*
X97038144Y35615900D01*
X97125740Y35703344D01*
X97221091Y35932974D01*
X97221308Y36181615D01*
X97221200Y36181876D01*
X97221200Y51262275D01*
X97221201Y51262280D01*
X97173625Y51501457D01*
X97038142Y51704222D01*
X97038139Y51704224D01*
X84234402Y64507962D01*
X93621238Y64507962D01*
X93910005Y64159964D01*
X94934672Y63698328D01*
X96058001Y63663955D01*
X97108976Y64062077D01*
X97255475Y64159964D01*
X97544242Y64507962D01*
X95582740Y66469465D01*
X93621238Y64507962D01*
X84234402Y64507962D01*
X83637102Y65105262D01*
X83434337Y65240745D01*
X83195160Y65288320D01*
X21414740Y65288320D01*
X21175562Y65240745D01*
X20972798Y65105262D01*
X16134098Y60266562D01*
X15998615Y60063797D01*
X15951040Y59824620D01*
X15951040Y40888920D01*
X15950932Y40765145D01*
X9150771Y40765145D01*
X9154007Y40781120D01*
X9154007Y40981120D01*
X9131345Y41101558D01*
X9112892Y41130235D01*
X9127900Y41152200D01*
X9154007Y41281120D01*
X9154007Y41481120D01*
X9131345Y41601558D01*
X9112892Y41630235D01*
X9127900Y41652200D01*
X9154007Y41781120D01*
X9154007Y41981120D01*
X9131345Y42101558D01*
X9112892Y42130235D01*
X9127900Y42152200D01*
X9154007Y42281120D01*
X9154007Y42481120D01*
X9131345Y42601558D01*
X9112892Y42630235D01*
X9127900Y42652200D01*
X9154007Y42781120D01*
X9154007Y42981120D01*
X9131345Y43101558D01*
X9060166Y43212173D01*
X8951560Y43286380D01*
X8822640Y43312487D01*
X8022640Y43312487D01*
X7902202Y43289825D01*
X7791587Y43218646D01*
X7717380Y43110040D01*
X7691273Y42981120D01*
X532080Y42981120D01*
X532080Y44674870D01*
X4597640Y44674870D01*
X4597640Y43966474D01*
X4647118Y43847023D01*
X4738542Y43755599D01*
X4857993Y43706120D01*
X5816390Y43706120D01*
X5897640Y43787370D01*
X5897640Y44756120D01*
X5947640Y44756120D01*
X5947640Y43787370D01*
X6028890Y43706120D01*
X6987287Y43706120D01*
X7106738Y43755599D01*
X7198162Y43847023D01*
X7247640Y43966474D01*
X7247640Y44674870D01*
X7166390Y44756120D01*
X5947640Y44756120D01*
X5897640Y44756120D01*
X4678890Y44756120D01*
X4597640Y44674870D01*
X532080Y44674870D01*
X532080Y45595766D01*
X4597640Y45595766D01*
X4597640Y44887370D01*
X4678890Y44806120D01*
X5897640Y44806120D01*
X5897640Y45774870D01*
X5947640Y45774870D01*
X5947640Y44806120D01*
X7166390Y44806120D01*
X7247640Y44887370D01*
X7247640Y45595766D01*
X7198162Y45715217D01*
X7106738Y45806641D01*
X6987287Y45856120D01*
X6028890Y45856120D01*
X5947640Y45774870D01*
X5897640Y45774870D01*
X5816390Y45856120D01*
X4857993Y45856120D01*
X4738542Y45806641D01*
X4647118Y45715217D01*
X4597640Y45595766D01*
X532080Y45595766D01*
X532080Y64507962D01*
X1038238Y64507962D01*
X1327005Y64159964D01*
X2351672Y63698328D01*
X3475001Y63663955D01*
X4525976Y64062077D01*
X4672475Y64159964D01*
X4961242Y64507962D01*
X2999740Y66469465D01*
X1038238Y64507962D01*
X532080Y64507962D01*
X532080Y65044361D01*
X556997Y64978584D01*
X654884Y64832085D01*
X1002882Y64543318D01*
X2964385Y66504820D01*
X3035095Y66504820D01*
X4996598Y64543318D01*
X5344596Y64832085D01*
X5806232Y65856752D01*
X5811519Y66029559D01*
X92741875Y66029559D01*
X93139997Y64978584D01*
X93237884Y64832085D01*
X93585882Y64543318D01*
X95547385Y66504820D01*
X93585882Y68466322D01*
X93237884Y68177555D01*
X92776248Y67152888D01*
X92741875Y66029559D01*
X5811519Y66029559D01*
X5840605Y66980081D01*
X5442483Y68031056D01*
X5344596Y68177555D01*
X4996598Y68466322D01*
X3035095Y66504820D01*
X2964385Y66504820D01*
X1002882Y68466322D01*
X654884Y68177555D01*
X532080Y67904974D01*
X532080Y68942000D01*
X1465178Y68942000D01*
X1327005Y68849676D01*
M02*
