G04 #@! TF.FileFunction,Legend,Top*
%FSLAX46Y46*%
G04 Gerber Fmt 4.6, Leading zero omitted, Abs format (unit mm)*
G04 Created by KiCad (PCBNEW 4.0.7-e2-6376~60~ubuntu17.10.1) date Tue Mar  6 13:11:32 2018*
%MOMM*%
%LPD*%
G01*
G04 APERTURE LIST*
%ADD10C,0.100000*%
%ADD11C,0.120000*%
%ADD12C,0.150000*%
%ADD13C,0.010000*%
G04 APERTURE END LIST*
D10*
D11*
X100298760Y-101184520D02*
X98298760Y-101184520D01*
X98298760Y-103224520D02*
X100298760Y-103224520D01*
X91449400Y-123300300D02*
X89449400Y-123300300D01*
X89449400Y-125340300D02*
X91449400Y-125340300D01*
X100298760Y-96155320D02*
X98298760Y-96155320D01*
X98298760Y-98195320D02*
X100298760Y-98195320D01*
X100354640Y-106940160D02*
X98354640Y-106940160D01*
X98354640Y-108980160D02*
X100354640Y-108980160D01*
X89297000Y-103001000D02*
X91297000Y-103001000D01*
X91297000Y-100961000D02*
X89297000Y-100961000D01*
X89162380Y-93836680D02*
X91162380Y-93836680D01*
X91162380Y-91796680D02*
X89162380Y-91796680D01*
X89162380Y-98279140D02*
X91162380Y-98279140D01*
X91162380Y-96239140D02*
X89162380Y-96239140D01*
X108461300Y-115358100D02*
X110461300Y-115358100D01*
X110461300Y-113318100D02*
X108461300Y-113318100D01*
X108496860Y-96854200D02*
X110496860Y-96854200D01*
X110496860Y-94814200D02*
X108496860Y-94814200D01*
X110664500Y-104146160D02*
X108664500Y-104146160D01*
X108664500Y-106186160D02*
X110664500Y-106186160D01*
X110692440Y-85119020D02*
X108692440Y-85119020D01*
X108692440Y-87159020D02*
X110692440Y-87159020D01*
X110461300Y-133130100D02*
X108461300Y-133130100D01*
X108461300Y-135170100D02*
X110461300Y-135170100D01*
X108461300Y-125149800D02*
X110461300Y-125149800D01*
X110461300Y-123109800D02*
X108461300Y-123109800D01*
X129272540Y-108728320D02*
X127272540Y-108728320D01*
X127272540Y-110768320D02*
X129272540Y-110768320D01*
X129021080Y-89589420D02*
X127021080Y-89589420D01*
X127021080Y-91629420D02*
X129021080Y-91629420D01*
X129272540Y-99340480D02*
X127272540Y-99340480D01*
X127272540Y-101380480D02*
X129272540Y-101380480D01*
X129104900Y-80145700D02*
X127104900Y-80145700D01*
X127104900Y-82185700D02*
X129104900Y-82185700D01*
X129320800Y-132939600D02*
X127320800Y-132939600D01*
X127320800Y-134979600D02*
X129320800Y-134979600D01*
X129473200Y-122881200D02*
X127473200Y-122881200D01*
X127473200Y-124921200D02*
X129473200Y-124921200D01*
X129328420Y-113198720D02*
X127328420Y-113198720D01*
X127328420Y-115238720D02*
X129328420Y-115238720D01*
X129132840Y-94506860D02*
X127132840Y-94506860D01*
X127132840Y-96546860D02*
X129132840Y-96546860D01*
X129272540Y-103978520D02*
X127272540Y-103978520D01*
X127272540Y-106018520D02*
X129272540Y-106018520D01*
X129160780Y-84867560D02*
X127160780Y-84867560D01*
X127160780Y-86907560D02*
X129160780Y-86907560D01*
X129549400Y-127872300D02*
X127549400Y-127872300D01*
X127549400Y-129912300D02*
X129549400Y-129912300D01*
X129358900Y-117775800D02*
X127358900Y-117775800D01*
X127358900Y-119815800D02*
X129358900Y-119815800D01*
D12*
X156777600Y-105879800D02*
X155777600Y-104879800D01*
X155777600Y-104879800D02*
X152797600Y-104879800D01*
X152797600Y-104879800D02*
X152797600Y-111629800D01*
X152797600Y-111629800D02*
X156777600Y-111629800D01*
X156777600Y-111629800D02*
X156777600Y-105879800D01*
D13*
G36*
X138702886Y-138027025D02*
X138755451Y-138027560D01*
X138909475Y-138031276D01*
X139038469Y-138042315D01*
X139146831Y-138061862D01*
X139238956Y-138091099D01*
X139319241Y-138131213D01*
X139392082Y-138183385D01*
X139418099Y-138206049D01*
X139461257Y-138259078D01*
X139500173Y-138331037D01*
X139530167Y-138410800D01*
X139546559Y-138487241D01*
X139548262Y-138515488D01*
X139537589Y-138593790D01*
X139508987Y-138679321D01*
X139467583Y-138760279D01*
X139418499Y-138824862D01*
X139410527Y-138832654D01*
X139342994Y-138887424D01*
X139269042Y-138930179D01*
X139184406Y-138962039D01*
X139084823Y-138984124D01*
X138966028Y-138997554D01*
X138823760Y-139003450D01*
X138758594Y-139003950D01*
X138675739Y-139003551D01*
X138617471Y-139001882D01*
X138578324Y-138998238D01*
X138552831Y-138991909D01*
X138535526Y-138982190D01*
X138526250Y-138973890D01*
X138517488Y-138963808D01*
X138510615Y-138950801D01*
X138505402Y-138931385D01*
X138501621Y-138902076D01*
X138499043Y-138859389D01*
X138497440Y-138799841D01*
X138496583Y-138719946D01*
X138496243Y-138616221D01*
X138496191Y-138515488D01*
X138495860Y-138381135D01*
X138495932Y-138273808D01*
X138497210Y-138222411D01*
X138691575Y-138222411D01*
X138691575Y-138808565D01*
X138815569Y-138808451D01*
X138890179Y-138806312D01*
X138968322Y-138800799D01*
X139033520Y-138793088D01*
X139035504Y-138792771D01*
X139140877Y-138767294D01*
X139222608Y-138727616D01*
X139284778Y-138671154D01*
X139324280Y-138610022D01*
X139348620Y-138542209D01*
X139346733Y-138478535D01*
X139318485Y-138410281D01*
X139263232Y-138339672D01*
X139186667Y-138287351D01*
X139087145Y-138252379D01*
X139020633Y-138240002D01*
X138945133Y-138231310D01*
X138865115Y-138225020D01*
X138797056Y-138222404D01*
X138793025Y-138222392D01*
X138691575Y-138222411D01*
X138497210Y-138222411D01*
X138498004Y-138190497D01*
X138503679Y-138128195D01*
X138514553Y-138083891D01*
X138532226Y-138054576D01*
X138558297Y-138037241D01*
X138594365Y-138028877D01*
X138642028Y-138026475D01*
X138702886Y-138027025D01*
X138702886Y-138027025D01*
G37*
X138702886Y-138027025D02*
X138755451Y-138027560D01*
X138909475Y-138031276D01*
X139038469Y-138042315D01*
X139146831Y-138061862D01*
X139238956Y-138091099D01*
X139319241Y-138131213D01*
X139392082Y-138183385D01*
X139418099Y-138206049D01*
X139461257Y-138259078D01*
X139500173Y-138331037D01*
X139530167Y-138410800D01*
X139546559Y-138487241D01*
X139548262Y-138515488D01*
X139537589Y-138593790D01*
X139508987Y-138679321D01*
X139467583Y-138760279D01*
X139418499Y-138824862D01*
X139410527Y-138832654D01*
X139342994Y-138887424D01*
X139269042Y-138930179D01*
X139184406Y-138962039D01*
X139084823Y-138984124D01*
X138966028Y-138997554D01*
X138823760Y-139003450D01*
X138758594Y-139003950D01*
X138675739Y-139003551D01*
X138617471Y-139001882D01*
X138578324Y-138998238D01*
X138552831Y-138991909D01*
X138535526Y-138982190D01*
X138526250Y-138973890D01*
X138517488Y-138963808D01*
X138510615Y-138950801D01*
X138505402Y-138931385D01*
X138501621Y-138902076D01*
X138499043Y-138859389D01*
X138497440Y-138799841D01*
X138496583Y-138719946D01*
X138496243Y-138616221D01*
X138496191Y-138515488D01*
X138495860Y-138381135D01*
X138495932Y-138273808D01*
X138497210Y-138222411D01*
X138691575Y-138222411D01*
X138691575Y-138808565D01*
X138815569Y-138808451D01*
X138890179Y-138806312D01*
X138968322Y-138800799D01*
X139033520Y-138793088D01*
X139035504Y-138792771D01*
X139140877Y-138767294D01*
X139222608Y-138727616D01*
X139284778Y-138671154D01*
X139324280Y-138610022D01*
X139348620Y-138542209D01*
X139346733Y-138478535D01*
X139318485Y-138410281D01*
X139263232Y-138339672D01*
X139186667Y-138287351D01*
X139087145Y-138252379D01*
X139020633Y-138240002D01*
X138945133Y-138231310D01*
X138865115Y-138225020D01*
X138797056Y-138222404D01*
X138793025Y-138222392D01*
X138691575Y-138222411D01*
X138497210Y-138222411D01*
X138498004Y-138190497D01*
X138503679Y-138128195D01*
X138514553Y-138083891D01*
X138532226Y-138054576D01*
X138558297Y-138037241D01*
X138594365Y-138028877D01*
X138642028Y-138026475D01*
X138702886Y-138027025D01*
G36*
X140578210Y-138027132D02*
X140670618Y-138027628D01*
X140740367Y-138028781D01*
X140791157Y-138030860D01*
X140826689Y-138034131D01*
X140850662Y-138038863D01*
X140866776Y-138045323D01*
X140878731Y-138053779D01*
X140883061Y-138057671D01*
X140909389Y-138099020D01*
X140914129Y-138146532D01*
X140896810Y-138188711D01*
X140888801Y-138197236D01*
X140875848Y-138205501D01*
X140854992Y-138211877D01*
X140822364Y-138216675D01*
X140774098Y-138220204D01*
X140706326Y-138222774D01*
X140615180Y-138224697D01*
X140531849Y-138225867D01*
X140202048Y-138229926D01*
X140193034Y-138402766D01*
X140416898Y-138402766D01*
X140514086Y-138403605D01*
X140585237Y-138407112D01*
X140634349Y-138414775D01*
X140665423Y-138428083D01*
X140682456Y-138448521D01*
X140689448Y-138477579D01*
X140690510Y-138504547D01*
X140687210Y-138537637D01*
X140674757Y-138562020D01*
X140649320Y-138578969D01*
X140607069Y-138589759D01*
X140544174Y-138595664D01*
X140456805Y-138597957D01*
X140409119Y-138598151D01*
X140194534Y-138598151D01*
X140194534Y-138808565D01*
X140525185Y-138808565D01*
X140633570Y-138808716D01*
X140715943Y-138809394D01*
X140776351Y-138810936D01*
X140818841Y-138813679D01*
X140847459Y-138817961D01*
X140866252Y-138824119D01*
X140879266Y-138832489D01*
X140885895Y-138838624D01*
X140908633Y-138874429D01*
X140915954Y-138906257D01*
X140905501Y-138945134D01*
X140885895Y-138973890D01*
X140875435Y-138982943D01*
X140861932Y-138989973D01*
X140841754Y-138995234D01*
X140811269Y-138998981D01*
X140766845Y-139001470D01*
X140704849Y-139002955D01*
X140621649Y-139003691D01*
X140513613Y-139003934D01*
X140457551Y-139003950D01*
X140337496Y-139003843D01*
X140243866Y-139003355D01*
X140173031Y-139002229D01*
X140121359Y-139000211D01*
X140085217Y-138997046D01*
X140060972Y-138992479D01*
X140044993Y-138986256D01*
X140033647Y-138978120D01*
X140029208Y-138973890D01*
X140020423Y-138963776D01*
X140013536Y-138950728D01*
X140008319Y-138931250D01*
X140004541Y-138901844D01*
X140001970Y-138859014D01*
X140000376Y-138799264D01*
X139999529Y-138719097D01*
X139999198Y-138615017D01*
X139999149Y-138518108D01*
X139999194Y-138394003D01*
X139999506Y-138296446D01*
X140000352Y-138221926D01*
X140001998Y-138166931D01*
X140004711Y-138127950D01*
X140008757Y-138101473D01*
X140014403Y-138083986D01*
X140021914Y-138071980D01*
X140031558Y-138061943D01*
X140033934Y-138059706D01*
X140045465Y-138049799D01*
X140058862Y-138042128D01*
X140077844Y-138036406D01*
X140106125Y-138032348D01*
X140147422Y-138029668D01*
X140205452Y-138028082D01*
X140283931Y-138027304D01*
X140386574Y-138027048D01*
X140459444Y-138027026D01*
X140578210Y-138027132D01*
X140578210Y-138027132D01*
G37*
X140578210Y-138027132D02*
X140670618Y-138027628D01*
X140740367Y-138028781D01*
X140791157Y-138030860D01*
X140826689Y-138034131D01*
X140850662Y-138038863D01*
X140866776Y-138045323D01*
X140878731Y-138053779D01*
X140883061Y-138057671D01*
X140909389Y-138099020D01*
X140914129Y-138146532D01*
X140896810Y-138188711D01*
X140888801Y-138197236D01*
X140875848Y-138205501D01*
X140854992Y-138211877D01*
X140822364Y-138216675D01*
X140774098Y-138220204D01*
X140706326Y-138222774D01*
X140615180Y-138224697D01*
X140531849Y-138225867D01*
X140202048Y-138229926D01*
X140193034Y-138402766D01*
X140416898Y-138402766D01*
X140514086Y-138403605D01*
X140585237Y-138407112D01*
X140634349Y-138414775D01*
X140665423Y-138428083D01*
X140682456Y-138448521D01*
X140689448Y-138477579D01*
X140690510Y-138504547D01*
X140687210Y-138537637D01*
X140674757Y-138562020D01*
X140649320Y-138578969D01*
X140607069Y-138589759D01*
X140544174Y-138595664D01*
X140456805Y-138597957D01*
X140409119Y-138598151D01*
X140194534Y-138598151D01*
X140194534Y-138808565D01*
X140525185Y-138808565D01*
X140633570Y-138808716D01*
X140715943Y-138809394D01*
X140776351Y-138810936D01*
X140818841Y-138813679D01*
X140847459Y-138817961D01*
X140866252Y-138824119D01*
X140879266Y-138832489D01*
X140885895Y-138838624D01*
X140908633Y-138874429D01*
X140915954Y-138906257D01*
X140905501Y-138945134D01*
X140885895Y-138973890D01*
X140875435Y-138982943D01*
X140861932Y-138989973D01*
X140841754Y-138995234D01*
X140811269Y-138998981D01*
X140766845Y-139001470D01*
X140704849Y-139002955D01*
X140621649Y-139003691D01*
X140513613Y-139003934D01*
X140457551Y-139003950D01*
X140337496Y-139003843D01*
X140243866Y-139003355D01*
X140173031Y-139002229D01*
X140121359Y-139000211D01*
X140085217Y-138997046D01*
X140060972Y-138992479D01*
X140044993Y-138986256D01*
X140033647Y-138978120D01*
X140029208Y-138973890D01*
X140020423Y-138963776D01*
X140013536Y-138950728D01*
X140008319Y-138931250D01*
X140004541Y-138901844D01*
X140001970Y-138859014D01*
X140000376Y-138799264D01*
X139999529Y-138719097D01*
X139999198Y-138615017D01*
X139999149Y-138518108D01*
X139999194Y-138394003D01*
X139999506Y-138296446D01*
X140000352Y-138221926D01*
X140001998Y-138166931D01*
X140004711Y-138127950D01*
X140008757Y-138101473D01*
X140014403Y-138083986D01*
X140021914Y-138071980D01*
X140031558Y-138061943D01*
X140033934Y-138059706D01*
X140045465Y-138049799D01*
X140058862Y-138042128D01*
X140077844Y-138036406D01*
X140106125Y-138032348D01*
X140147422Y-138029668D01*
X140205452Y-138028082D01*
X140283931Y-138027304D01*
X140386574Y-138027048D01*
X140459444Y-138027026D01*
X140578210Y-138027132D01*
G36*
X141937652Y-138028737D02*
X142037257Y-138035700D01*
X142129896Y-138046575D01*
X142210182Y-138060954D01*
X142272732Y-138078426D01*
X142312159Y-138098582D01*
X142318211Y-138104515D01*
X142339256Y-138150555D01*
X142332874Y-138197820D01*
X142300233Y-138238258D01*
X142298676Y-138239417D01*
X142279477Y-138251877D01*
X142259435Y-138258429D01*
X142231480Y-138259224D01*
X142188541Y-138254416D01*
X142123549Y-138244155D01*
X142118321Y-138243291D01*
X142021479Y-138231394D01*
X141916996Y-138225525D01*
X141812205Y-138225468D01*
X141714438Y-138231007D01*
X141631028Y-138241925D01*
X141569307Y-138258005D01*
X141565252Y-138259621D01*
X141520476Y-138284709D01*
X141504744Y-138310098D01*
X141517060Y-138335067D01*
X141556425Y-138358896D01*
X141621842Y-138380862D01*
X141712314Y-138400246D01*
X141772640Y-138409578D01*
X141898040Y-138427529D01*
X141997775Y-138443939D01*
X142076094Y-138460228D01*
X142137247Y-138477818D01*
X142185481Y-138498129D01*
X142225045Y-138522583D01*
X142260188Y-138552600D01*
X142288429Y-138582076D01*
X142321932Y-138623147D01*
X142338421Y-138658462D01*
X142343577Y-138701973D01*
X142343764Y-138717908D01*
X142339892Y-138770785D01*
X142324413Y-138810123D01*
X142297625Y-138845040D01*
X142243181Y-138898414D01*
X142182470Y-138939118D01*
X142110982Y-138968480D01*
X142024204Y-138987827D01*
X141917626Y-138998486D01*
X141786737Y-139001785D01*
X141765125Y-139001729D01*
X141677842Y-138999920D01*
X141591281Y-138995809D01*
X141514878Y-138989986D01*
X141458070Y-138983041D01*
X141453476Y-138982244D01*
X141396995Y-138968864D01*
X141349088Y-138951962D01*
X141321967Y-138936511D01*
X141296729Y-138895746D01*
X141294971Y-138848278D01*
X141316728Y-138805975D01*
X141321596Y-138801192D01*
X141341718Y-138786979D01*
X141366882Y-138780856D01*
X141405827Y-138781898D01*
X141453105Y-138787314D01*
X141505935Y-138792153D01*
X141579992Y-138796235D01*
X141666449Y-138799198D01*
X141756477Y-138800677D01*
X141780155Y-138800774D01*
X141870518Y-138800410D01*
X141936651Y-138798656D01*
X141984373Y-138794903D01*
X142019502Y-138788543D01*
X142047858Y-138778967D01*
X142064899Y-138770991D01*
X142102344Y-138748845D01*
X142126219Y-138728788D01*
X142129708Y-138723103D01*
X142122347Y-138699625D01*
X142087353Y-138676897D01*
X142027152Y-138655950D01*
X141944169Y-138637816D01*
X141919720Y-138633777D01*
X141792018Y-138613719D01*
X141690100Y-138596954D01*
X141610034Y-138582263D01*
X141547886Y-138568428D01*
X141499722Y-138554231D01*
X141461608Y-138538453D01*
X141429610Y-138519876D01*
X141399796Y-138497282D01*
X141368230Y-138469453D01*
X141357608Y-138459696D01*
X141320367Y-138423282D01*
X141300653Y-138394432D01*
X141292941Y-138361418D01*
X141291693Y-138319815D01*
X141305425Y-138238231D01*
X141346462Y-138168914D01*
X141414570Y-138112088D01*
X141509513Y-138067977D01*
X141577256Y-138048192D01*
X141650881Y-138035413D01*
X141739079Y-138028184D01*
X141836464Y-138026095D01*
X141937652Y-138028737D01*
X141937652Y-138028737D01*
G37*
X141937652Y-138028737D02*
X142037257Y-138035700D01*
X142129896Y-138046575D01*
X142210182Y-138060954D01*
X142272732Y-138078426D01*
X142312159Y-138098582D01*
X142318211Y-138104515D01*
X142339256Y-138150555D01*
X142332874Y-138197820D01*
X142300233Y-138238258D01*
X142298676Y-138239417D01*
X142279477Y-138251877D01*
X142259435Y-138258429D01*
X142231480Y-138259224D01*
X142188541Y-138254416D01*
X142123549Y-138244155D01*
X142118321Y-138243291D01*
X142021479Y-138231394D01*
X141916996Y-138225525D01*
X141812205Y-138225468D01*
X141714438Y-138231007D01*
X141631028Y-138241925D01*
X141569307Y-138258005D01*
X141565252Y-138259621D01*
X141520476Y-138284709D01*
X141504744Y-138310098D01*
X141517060Y-138335067D01*
X141556425Y-138358896D01*
X141621842Y-138380862D01*
X141712314Y-138400246D01*
X141772640Y-138409578D01*
X141898040Y-138427529D01*
X141997775Y-138443939D01*
X142076094Y-138460228D01*
X142137247Y-138477818D01*
X142185481Y-138498129D01*
X142225045Y-138522583D01*
X142260188Y-138552600D01*
X142288429Y-138582076D01*
X142321932Y-138623147D01*
X142338421Y-138658462D01*
X142343577Y-138701973D01*
X142343764Y-138717908D01*
X142339892Y-138770785D01*
X142324413Y-138810123D01*
X142297625Y-138845040D01*
X142243181Y-138898414D01*
X142182470Y-138939118D01*
X142110982Y-138968480D01*
X142024204Y-138987827D01*
X141917626Y-138998486D01*
X141786737Y-139001785D01*
X141765125Y-139001729D01*
X141677842Y-138999920D01*
X141591281Y-138995809D01*
X141514878Y-138989986D01*
X141458070Y-138983041D01*
X141453476Y-138982244D01*
X141396995Y-138968864D01*
X141349088Y-138951962D01*
X141321967Y-138936511D01*
X141296729Y-138895746D01*
X141294971Y-138848278D01*
X141316728Y-138805975D01*
X141321596Y-138801192D01*
X141341718Y-138786979D01*
X141366882Y-138780856D01*
X141405827Y-138781898D01*
X141453105Y-138787314D01*
X141505935Y-138792153D01*
X141579992Y-138796235D01*
X141666449Y-138799198D01*
X141756477Y-138800677D01*
X141780155Y-138800774D01*
X141870518Y-138800410D01*
X141936651Y-138798656D01*
X141984373Y-138794903D01*
X142019502Y-138788543D01*
X142047858Y-138778967D01*
X142064899Y-138770991D01*
X142102344Y-138748845D01*
X142126219Y-138728788D01*
X142129708Y-138723103D01*
X142122347Y-138699625D01*
X142087353Y-138676897D01*
X142027152Y-138655950D01*
X141944169Y-138637816D01*
X141919720Y-138633777D01*
X141792018Y-138613719D01*
X141690100Y-138596954D01*
X141610034Y-138582263D01*
X141547886Y-138568428D01*
X141499722Y-138554231D01*
X141461608Y-138538453D01*
X141429610Y-138519876D01*
X141399796Y-138497282D01*
X141368230Y-138469453D01*
X141357608Y-138459696D01*
X141320367Y-138423282D01*
X141300653Y-138394432D01*
X141292941Y-138361418D01*
X141291693Y-138319815D01*
X141305425Y-138238231D01*
X141346462Y-138168914D01*
X141414570Y-138112088D01*
X141509513Y-138067977D01*
X141577256Y-138048192D01*
X141650881Y-138035413D01*
X141739079Y-138028184D01*
X141836464Y-138026095D01*
X141937652Y-138028737D01*
G36*
X142959977Y-138057086D02*
X142968739Y-138067168D01*
X142975612Y-138080175D01*
X142980825Y-138099591D01*
X142984606Y-138128900D01*
X142987184Y-138171587D01*
X142988787Y-138231135D01*
X142989645Y-138311030D01*
X142989984Y-138414756D01*
X142990037Y-138515488D01*
X142989944Y-138640432D01*
X142989513Y-138738801D01*
X142988517Y-138814081D01*
X142986725Y-138869754D01*
X142983911Y-138909306D01*
X142979844Y-138936221D01*
X142974298Y-138953983D01*
X142967043Y-138966077D01*
X142959977Y-138973890D01*
X142916038Y-139000092D01*
X142869220Y-138997741D01*
X142827331Y-138969164D01*
X142817706Y-138958007D01*
X142810185Y-138945063D01*
X142804506Y-138926752D01*
X142800413Y-138899498D01*
X142797645Y-138859720D01*
X142795944Y-138803842D01*
X142795051Y-138728284D01*
X142794707Y-138629468D01*
X142794652Y-138517594D01*
X142794652Y-138100808D01*
X142831543Y-138063917D01*
X142877015Y-138032880D01*
X142921124Y-138031761D01*
X142959977Y-138057086D01*
X142959977Y-138057086D01*
G37*
X142959977Y-138057086D02*
X142968739Y-138067168D01*
X142975612Y-138080175D01*
X142980825Y-138099591D01*
X142984606Y-138128900D01*
X142987184Y-138171587D01*
X142988787Y-138231135D01*
X142989645Y-138311030D01*
X142989984Y-138414756D01*
X142990037Y-138515488D01*
X142989944Y-138640432D01*
X142989513Y-138738801D01*
X142988517Y-138814081D01*
X142986725Y-138869754D01*
X142983911Y-138909306D01*
X142979844Y-138936221D01*
X142974298Y-138953983D01*
X142967043Y-138966077D01*
X142959977Y-138973890D01*
X142916038Y-139000092D01*
X142869220Y-138997741D01*
X142827331Y-138969164D01*
X142817706Y-138958007D01*
X142810185Y-138945063D01*
X142804506Y-138926752D01*
X142800413Y-138899498D01*
X142797645Y-138859720D01*
X142795944Y-138803842D01*
X142795051Y-138728284D01*
X142794707Y-138629468D01*
X142794652Y-138517594D01*
X142794652Y-138100808D01*
X142831543Y-138063917D01*
X142877015Y-138032880D01*
X142921124Y-138031761D01*
X142959977Y-138057086D01*
G36*
X144256378Y-138034392D02*
X144347599Y-138049698D01*
X144417658Y-138073491D01*
X144463236Y-138104820D01*
X144475656Y-138122694D01*
X144488286Y-138164265D01*
X144479787Y-138201872D01*
X144452955Y-138237535D01*
X144411264Y-138254219D01*
X144350770Y-138252864D01*
X144303981Y-138243825D01*
X144200012Y-138226603D01*
X144093760Y-138224967D01*
X143974831Y-138238945D01*
X143941980Y-138244868D01*
X143831395Y-138276047D01*
X143744881Y-138322426D01*
X143683387Y-138383215D01*
X143647862Y-138457624D01*
X143640515Y-138496094D01*
X143645324Y-138574143D01*
X143676374Y-138643197D01*
X143730834Y-138701909D01*
X143805876Y-138748933D01*
X143898670Y-138782923D01*
X144006388Y-138802534D01*
X144126199Y-138806421D01*
X144255275Y-138793236D01*
X144262563Y-138791992D01*
X144313902Y-138782430D01*
X144342368Y-138773194D01*
X144354706Y-138759489D01*
X144357662Y-138736522D01*
X144357729Y-138724359D01*
X144357729Y-138673299D01*
X144266563Y-138673299D01*
X144186058Y-138667784D01*
X144131119Y-138650210D01*
X144099154Y-138619033D01*
X144087568Y-138572710D01*
X144087427Y-138566664D01*
X144094205Y-138527069D01*
X144117449Y-138498797D01*
X144160710Y-138480087D01*
X144227539Y-138469180D01*
X144292270Y-138465170D01*
X144386353Y-138462869D01*
X144454596Y-138466380D01*
X144501139Y-138479335D01*
X144530122Y-138505366D01*
X144545685Y-138548107D01*
X144551969Y-138611190D01*
X144553114Y-138694044D01*
X144551238Y-138786526D01*
X144545594Y-138849434D01*
X144536158Y-138883019D01*
X144534327Y-138885649D01*
X144482515Y-138927614D01*
X144406550Y-138960848D01*
X144311248Y-138984639D01*
X144201424Y-138998279D01*
X144081894Y-139001058D01*
X143957474Y-138992265D01*
X143884297Y-138981465D01*
X143769520Y-138948978D01*
X143662844Y-138895866D01*
X143573529Y-138826935D01*
X143559954Y-138813158D01*
X143515848Y-138755238D01*
X143476051Y-138683456D01*
X143445213Y-138608199D01*
X143427983Y-138539857D01*
X143425906Y-138513609D01*
X143434747Y-138458857D01*
X143458245Y-138390735D01*
X143491891Y-138319030D01*
X143531176Y-138253529D01*
X143565885Y-138209778D01*
X143647037Y-138144699D01*
X143751942Y-138092901D01*
X143876840Y-138055554D01*
X144017973Y-138033833D01*
X144147315Y-138028525D01*
X144256378Y-138034392D01*
X144256378Y-138034392D01*
G37*
X144256378Y-138034392D02*
X144347599Y-138049698D01*
X144417658Y-138073491D01*
X144463236Y-138104820D01*
X144475656Y-138122694D01*
X144488286Y-138164265D01*
X144479787Y-138201872D01*
X144452955Y-138237535D01*
X144411264Y-138254219D01*
X144350770Y-138252864D01*
X144303981Y-138243825D01*
X144200012Y-138226603D01*
X144093760Y-138224967D01*
X143974831Y-138238945D01*
X143941980Y-138244868D01*
X143831395Y-138276047D01*
X143744881Y-138322426D01*
X143683387Y-138383215D01*
X143647862Y-138457624D01*
X143640515Y-138496094D01*
X143645324Y-138574143D01*
X143676374Y-138643197D01*
X143730834Y-138701909D01*
X143805876Y-138748933D01*
X143898670Y-138782923D01*
X144006388Y-138802534D01*
X144126199Y-138806421D01*
X144255275Y-138793236D01*
X144262563Y-138791992D01*
X144313902Y-138782430D01*
X144342368Y-138773194D01*
X144354706Y-138759489D01*
X144357662Y-138736522D01*
X144357729Y-138724359D01*
X144357729Y-138673299D01*
X144266563Y-138673299D01*
X144186058Y-138667784D01*
X144131119Y-138650210D01*
X144099154Y-138619033D01*
X144087568Y-138572710D01*
X144087427Y-138566664D01*
X144094205Y-138527069D01*
X144117449Y-138498797D01*
X144160710Y-138480087D01*
X144227539Y-138469180D01*
X144292270Y-138465170D01*
X144386353Y-138462869D01*
X144454596Y-138466380D01*
X144501139Y-138479335D01*
X144530122Y-138505366D01*
X144545685Y-138548107D01*
X144551969Y-138611190D01*
X144553114Y-138694044D01*
X144551238Y-138786526D01*
X144545594Y-138849434D01*
X144536158Y-138883019D01*
X144534327Y-138885649D01*
X144482515Y-138927614D01*
X144406550Y-138960848D01*
X144311248Y-138984639D01*
X144201424Y-138998279D01*
X144081894Y-139001058D01*
X143957474Y-138992265D01*
X143884297Y-138981465D01*
X143769520Y-138948978D01*
X143662844Y-138895866D01*
X143573529Y-138826935D01*
X143559954Y-138813158D01*
X143515848Y-138755238D01*
X143476051Y-138683456D01*
X143445213Y-138608199D01*
X143427983Y-138539857D01*
X143425906Y-138513609D01*
X143434747Y-138458857D01*
X143458245Y-138390735D01*
X143491891Y-138319030D01*
X143531176Y-138253529D01*
X143565885Y-138209778D01*
X143647037Y-138144699D01*
X143751942Y-138092901D01*
X143876840Y-138055554D01*
X144017973Y-138033833D01*
X144147315Y-138028525D01*
X144256378Y-138034392D01*
G36*
X145121720Y-138032860D02*
X145153095Y-138051265D01*
X145194118Y-138081365D01*
X145246916Y-138124576D01*
X145313615Y-138182318D01*
X145396341Y-138256008D01*
X145497220Y-138347064D01*
X145612699Y-138451754D01*
X145853173Y-138669823D01*
X145860688Y-138377124D01*
X145863401Y-138276370D01*
X145866018Y-138201338D01*
X145869120Y-138147700D01*
X145873284Y-138111126D01*
X145879089Y-138087287D01*
X145887116Y-138071854D01*
X145897943Y-138060498D01*
X145903684Y-138055726D01*
X145949657Y-138030493D01*
X145993403Y-138034182D01*
X146028105Y-138055739D01*
X146063587Y-138084451D01*
X146068000Y-138503766D01*
X146069221Y-138627087D01*
X146069843Y-138723964D01*
X146069650Y-138798010D01*
X146068426Y-138852837D01*
X146065956Y-138892059D01*
X146062026Y-138919289D01*
X146056420Y-138938139D01*
X146048922Y-138952221D01*
X146040607Y-138963515D01*
X146022618Y-138984462D01*
X146004719Y-138998347D01*
X145984428Y-139003676D01*
X145959262Y-138998956D01*
X145926740Y-138982693D01*
X145884377Y-138953393D01*
X145829692Y-138909562D01*
X145760203Y-138849707D01*
X145673425Y-138772334D01*
X145575125Y-138683430D01*
X145221930Y-138363051D01*
X145214415Y-138654793D01*
X145211697Y-138755363D01*
X145209073Y-138830220D01*
X145205961Y-138883700D01*
X145201778Y-138920142D01*
X145195943Y-138943884D01*
X145187874Y-138959262D01*
X145176989Y-138970616D01*
X145171419Y-138975242D01*
X145122184Y-139000658D01*
X145075663Y-138996825D01*
X145035151Y-138964349D01*
X145025884Y-138951283D01*
X145018661Y-138936025D01*
X145013228Y-138914912D01*
X145009332Y-138884285D01*
X145006719Y-138840482D01*
X145005133Y-138779843D01*
X145004322Y-138698707D01*
X145004032Y-138593413D01*
X145004001Y-138515488D01*
X145004099Y-138393604D01*
X145004561Y-138298119D01*
X145005643Y-138225371D01*
X145007597Y-138171699D01*
X145010678Y-138133443D01*
X145015140Y-138106943D01*
X145021237Y-138088536D01*
X145029223Y-138074564D01*
X145035151Y-138066627D01*
X145050178Y-138047828D01*
X145064222Y-138033633D01*
X145079410Y-138025462D01*
X145097867Y-138024732D01*
X145121720Y-138032860D01*
X145121720Y-138032860D01*
G37*
X145121720Y-138032860D02*
X145153095Y-138051265D01*
X145194118Y-138081365D01*
X145246916Y-138124576D01*
X145313615Y-138182318D01*
X145396341Y-138256008D01*
X145497220Y-138347064D01*
X145612699Y-138451754D01*
X145853173Y-138669823D01*
X145860688Y-138377124D01*
X145863401Y-138276370D01*
X145866018Y-138201338D01*
X145869120Y-138147700D01*
X145873284Y-138111126D01*
X145879089Y-138087287D01*
X145887116Y-138071854D01*
X145897943Y-138060498D01*
X145903684Y-138055726D01*
X145949657Y-138030493D01*
X145993403Y-138034182D01*
X146028105Y-138055739D01*
X146063587Y-138084451D01*
X146068000Y-138503766D01*
X146069221Y-138627087D01*
X146069843Y-138723964D01*
X146069650Y-138798010D01*
X146068426Y-138852837D01*
X146065956Y-138892059D01*
X146062026Y-138919289D01*
X146056420Y-138938139D01*
X146048922Y-138952221D01*
X146040607Y-138963515D01*
X146022618Y-138984462D01*
X146004719Y-138998347D01*
X145984428Y-139003676D01*
X145959262Y-138998956D01*
X145926740Y-138982693D01*
X145884377Y-138953393D01*
X145829692Y-138909562D01*
X145760203Y-138849707D01*
X145673425Y-138772334D01*
X145575125Y-138683430D01*
X145221930Y-138363051D01*
X145214415Y-138654793D01*
X145211697Y-138755363D01*
X145209073Y-138830220D01*
X145205961Y-138883700D01*
X145201778Y-138920142D01*
X145195943Y-138943884D01*
X145187874Y-138959262D01*
X145176989Y-138970616D01*
X145171419Y-138975242D01*
X145122184Y-139000658D01*
X145075663Y-138996825D01*
X145035151Y-138964349D01*
X145025884Y-138951283D01*
X145018661Y-138936025D01*
X145013228Y-138914912D01*
X145009332Y-138884285D01*
X145006719Y-138840482D01*
X145005133Y-138779843D01*
X145004322Y-138698707D01*
X145004032Y-138593413D01*
X145004001Y-138515488D01*
X145004099Y-138393604D01*
X145004561Y-138298119D01*
X145005643Y-138225371D01*
X145007597Y-138171699D01*
X145010678Y-138133443D01*
X145015140Y-138106943D01*
X145021237Y-138088536D01*
X145029223Y-138074564D01*
X145035151Y-138066627D01*
X145050178Y-138047828D01*
X145064222Y-138033633D01*
X145079410Y-138025462D01*
X145097867Y-138024732D01*
X145121720Y-138032860D01*
G36*
X147159310Y-138027283D02*
X147260971Y-138028500D01*
X147338876Y-138031346D01*
X147396175Y-138036490D01*
X147436021Y-138044600D01*
X147461562Y-138056347D01*
X147475951Y-138072398D01*
X147482339Y-138093424D01*
X147483875Y-138120092D01*
X147483883Y-138123242D01*
X147482549Y-138153406D01*
X147476245Y-138176719D01*
X147461516Y-138194122D01*
X147434909Y-138206556D01*
X147392968Y-138214961D01*
X147332240Y-138220281D01*
X147249270Y-138223455D01*
X147140605Y-138225425D01*
X147107299Y-138225861D01*
X146785007Y-138229926D01*
X146780500Y-138316346D01*
X146775992Y-138402766D01*
X146999857Y-138402766D01*
X147087315Y-138403089D01*
X147149763Y-138404453D01*
X147192248Y-138407455D01*
X147219817Y-138412689D01*
X147237516Y-138420751D01*
X147250391Y-138432236D01*
X147250474Y-138432327D01*
X147273824Y-138477087D01*
X147272980Y-138525463D01*
X147248473Y-138566702D01*
X147243623Y-138570941D01*
X147226409Y-138581865D01*
X147202820Y-138589465D01*
X147167601Y-138594313D01*
X147115494Y-138596982D01*
X147041244Y-138598044D01*
X146993756Y-138598151D01*
X146777492Y-138598151D01*
X146777492Y-138808565D01*
X147105814Y-138808565D01*
X147214212Y-138808755D01*
X147296529Y-138809530D01*
X147356743Y-138811200D01*
X147398829Y-138814074D01*
X147426765Y-138818463D01*
X147444528Y-138824675D01*
X147456094Y-138833020D01*
X147459009Y-138836050D01*
X147480530Y-138878050D01*
X147482104Y-138925830D01*
X147464449Y-138967258D01*
X147450479Y-138980553D01*
X147435948Y-138987872D01*
X147413432Y-138993535D01*
X147379370Y-138997739D01*
X147330201Y-139000684D01*
X147262362Y-139002567D01*
X147172292Y-139003586D01*
X147056431Y-139003941D01*
X147030237Y-139003950D01*
X146912433Y-139003872D01*
X146820990Y-139003447D01*
X146752208Y-139002382D01*
X146702390Y-139000385D01*
X146667834Y-138997166D01*
X146644844Y-138992432D01*
X146629720Y-138985893D01*
X146618763Y-138977257D01*
X146612752Y-138971056D01*
X146603704Y-138960073D01*
X146596636Y-138946468D01*
X146591303Y-138926672D01*
X146587462Y-138897118D01*
X146584869Y-138854237D01*
X146583281Y-138794461D01*
X146582455Y-138714223D01*
X146582146Y-138609955D01*
X146582108Y-138522196D01*
X146582202Y-138399224D01*
X146582651Y-138302685D01*
X146583702Y-138228955D01*
X146585604Y-138174406D01*
X146588603Y-138135415D01*
X146592949Y-138108355D01*
X146598888Y-138089600D01*
X146606669Y-138075526D01*
X146613258Y-138066627D01*
X146644408Y-138027026D01*
X147030742Y-138027026D01*
X147159310Y-138027283D01*
X147159310Y-138027283D01*
G37*
X147159310Y-138027283D02*
X147260971Y-138028500D01*
X147338876Y-138031346D01*
X147396175Y-138036490D01*
X147436021Y-138044600D01*
X147461562Y-138056347D01*
X147475951Y-138072398D01*
X147482339Y-138093424D01*
X147483875Y-138120092D01*
X147483883Y-138123242D01*
X147482549Y-138153406D01*
X147476245Y-138176719D01*
X147461516Y-138194122D01*
X147434909Y-138206556D01*
X147392968Y-138214961D01*
X147332240Y-138220281D01*
X147249270Y-138223455D01*
X147140605Y-138225425D01*
X147107299Y-138225861D01*
X146785007Y-138229926D01*
X146780500Y-138316346D01*
X146775992Y-138402766D01*
X146999857Y-138402766D01*
X147087315Y-138403089D01*
X147149763Y-138404453D01*
X147192248Y-138407455D01*
X147219817Y-138412689D01*
X147237516Y-138420751D01*
X147250391Y-138432236D01*
X147250474Y-138432327D01*
X147273824Y-138477087D01*
X147272980Y-138525463D01*
X147248473Y-138566702D01*
X147243623Y-138570941D01*
X147226409Y-138581865D01*
X147202820Y-138589465D01*
X147167601Y-138594313D01*
X147115494Y-138596982D01*
X147041244Y-138598044D01*
X146993756Y-138598151D01*
X146777492Y-138598151D01*
X146777492Y-138808565D01*
X147105814Y-138808565D01*
X147214212Y-138808755D01*
X147296529Y-138809530D01*
X147356743Y-138811200D01*
X147398829Y-138814074D01*
X147426765Y-138818463D01*
X147444528Y-138824675D01*
X147456094Y-138833020D01*
X147459009Y-138836050D01*
X147480530Y-138878050D01*
X147482104Y-138925830D01*
X147464449Y-138967258D01*
X147450479Y-138980553D01*
X147435948Y-138987872D01*
X147413432Y-138993535D01*
X147379370Y-138997739D01*
X147330201Y-139000684D01*
X147262362Y-139002567D01*
X147172292Y-139003586D01*
X147056431Y-139003941D01*
X147030237Y-139003950D01*
X146912433Y-139003872D01*
X146820990Y-139003447D01*
X146752208Y-139002382D01*
X146702390Y-139000385D01*
X146667834Y-138997166D01*
X146644844Y-138992432D01*
X146629720Y-138985893D01*
X146618763Y-138977257D01*
X146612752Y-138971056D01*
X146603704Y-138960073D01*
X146596636Y-138946468D01*
X146591303Y-138926672D01*
X146587462Y-138897118D01*
X146584869Y-138854237D01*
X146583281Y-138794461D01*
X146582455Y-138714223D01*
X146582146Y-138609955D01*
X146582108Y-138522196D01*
X146582202Y-138399224D01*
X146582651Y-138302685D01*
X146583702Y-138228955D01*
X146585604Y-138174406D01*
X146588603Y-138135415D01*
X146592949Y-138108355D01*
X146598888Y-138089600D01*
X146606669Y-138075526D01*
X146613258Y-138066627D01*
X146644408Y-138027026D01*
X147030742Y-138027026D01*
X147159310Y-138027283D01*
G36*
X148208377Y-138027303D02*
X148380095Y-138033109D01*
X148526149Y-138050717D01*
X148648947Y-138081179D01*
X148750897Y-138125551D01*
X148834408Y-138184887D01*
X148901887Y-138260240D01*
X148955743Y-138352666D01*
X148956802Y-138354920D01*
X148988943Y-138437640D01*
X149000395Y-138510900D01*
X148991114Y-138584628D01*
X148961055Y-138668751D01*
X148955355Y-138681553D01*
X148916479Y-138756478D01*
X148872789Y-138814373D01*
X148816400Y-138863588D01*
X148739432Y-138912473D01*
X148734960Y-138915025D01*
X148667957Y-138947211D01*
X148592225Y-138971248D01*
X148502898Y-138987967D01*
X148395109Y-138998195D01*
X148263992Y-139002762D01*
X148217666Y-139003159D01*
X147997070Y-139003950D01*
X147965920Y-138964349D01*
X147956680Y-138951327D01*
X147949472Y-138936120D01*
X147944044Y-138915082D01*
X147940145Y-138884566D01*
X147937523Y-138840927D01*
X147936668Y-138808565D01*
X148145185Y-138808565D01*
X148270176Y-138808565D01*
X148343317Y-138806426D01*
X148418401Y-138800797D01*
X148480024Y-138792859D01*
X148483743Y-138792191D01*
X148593193Y-138762828D01*
X148678088Y-138718713D01*
X148741112Y-138657799D01*
X148784954Y-138578040D01*
X148792577Y-138556900D01*
X148800050Y-138523978D01*
X148796815Y-138491452D01*
X148781073Y-138448180D01*
X148771584Y-138426923D01*
X148740511Y-138370436D01*
X148703073Y-138330807D01*
X148661881Y-138303210D01*
X148579370Y-138267298D01*
X148473773Y-138241284D01*
X148350758Y-138226304D01*
X148261664Y-138223008D01*
X148145185Y-138222411D01*
X148145185Y-138808565D01*
X147936668Y-138808565D01*
X147935926Y-138780516D01*
X147935104Y-138699688D01*
X147934804Y-138594797D01*
X147934770Y-138512778D01*
X147934770Y-138100808D01*
X147971661Y-138063917D01*
X147988034Y-138048964D01*
X148005737Y-138038724D01*
X148030459Y-138032317D01*
X148067888Y-138028863D01*
X148123713Y-138027483D01*
X148203622Y-138027297D01*
X148208377Y-138027303D01*
X148208377Y-138027303D01*
G37*
X148208377Y-138027303D02*
X148380095Y-138033109D01*
X148526149Y-138050717D01*
X148648947Y-138081179D01*
X148750897Y-138125551D01*
X148834408Y-138184887D01*
X148901887Y-138260240D01*
X148955743Y-138352666D01*
X148956802Y-138354920D01*
X148988943Y-138437640D01*
X149000395Y-138510900D01*
X148991114Y-138584628D01*
X148961055Y-138668751D01*
X148955355Y-138681553D01*
X148916479Y-138756478D01*
X148872789Y-138814373D01*
X148816400Y-138863588D01*
X148739432Y-138912473D01*
X148734960Y-138915025D01*
X148667957Y-138947211D01*
X148592225Y-138971248D01*
X148502898Y-138987967D01*
X148395109Y-138998195D01*
X148263992Y-139002762D01*
X148217666Y-139003159D01*
X147997070Y-139003950D01*
X147965920Y-138964349D01*
X147956680Y-138951327D01*
X147949472Y-138936120D01*
X147944044Y-138915082D01*
X147940145Y-138884566D01*
X147937523Y-138840927D01*
X147936668Y-138808565D01*
X148145185Y-138808565D01*
X148270176Y-138808565D01*
X148343317Y-138806426D01*
X148418401Y-138800797D01*
X148480024Y-138792859D01*
X148483743Y-138792191D01*
X148593193Y-138762828D01*
X148678088Y-138718713D01*
X148741112Y-138657799D01*
X148784954Y-138578040D01*
X148792577Y-138556900D01*
X148800050Y-138523978D01*
X148796815Y-138491452D01*
X148781073Y-138448180D01*
X148771584Y-138426923D01*
X148740511Y-138370436D01*
X148703073Y-138330807D01*
X148661881Y-138303210D01*
X148579370Y-138267298D01*
X148473773Y-138241284D01*
X148350758Y-138226304D01*
X148261664Y-138223008D01*
X148145185Y-138222411D01*
X148145185Y-138808565D01*
X147936668Y-138808565D01*
X147935926Y-138780516D01*
X147935104Y-138699688D01*
X147934804Y-138594797D01*
X147934770Y-138512778D01*
X147934770Y-138100808D01*
X147971661Y-138063917D01*
X147988034Y-138048964D01*
X148005737Y-138038724D01*
X148030459Y-138032317D01*
X148067888Y-138028863D01*
X148123713Y-138027483D01*
X148203622Y-138027297D01*
X148208377Y-138027303D01*
G36*
X151838141Y-138029646D02*
X151864222Y-138038966D01*
X151865228Y-138039422D01*
X151900646Y-138066450D01*
X151920160Y-138094252D01*
X151923978Y-138107288D01*
X151923789Y-138124608D01*
X151918416Y-138149283D01*
X151906682Y-138184380D01*
X151887407Y-138232969D01*
X151859416Y-138298118D01*
X151821530Y-138382897D01*
X151772572Y-138490375D01*
X151745625Y-138549119D01*
X151696964Y-138653989D01*
X151651284Y-138750430D01*
X151610328Y-138834914D01*
X151575840Y-138903916D01*
X151549563Y-138953910D01*
X151533240Y-138981370D01*
X151530010Y-138985163D01*
X151488683Y-139001896D01*
X151442003Y-138999655D01*
X151404564Y-138979303D01*
X151403038Y-138977648D01*
X151388145Y-138955102D01*
X151363163Y-138911187D01*
X151331173Y-138851556D01*
X151295254Y-138781862D01*
X151282346Y-138756179D01*
X151184908Y-138561013D01*
X151078700Y-138773023D01*
X151040791Y-138846277D01*
X151005621Y-138909806D01*
X150976062Y-138958747D01*
X150954988Y-138988238D01*
X150947846Y-138994492D01*
X150892332Y-139002961D01*
X150846523Y-138985163D01*
X150833048Y-138966141D01*
X150809730Y-138923865D01*
X150778471Y-138862496D01*
X150741174Y-138786192D01*
X150699740Y-138699115D01*
X150656072Y-138605423D01*
X150612072Y-138509277D01*
X150569642Y-138414837D01*
X150530684Y-138326261D01*
X150497101Y-138247712D01*
X150470795Y-138183347D01*
X150453668Y-138137327D01*
X150447623Y-138113813D01*
X150447685Y-138112961D01*
X150462394Y-138083372D01*
X150491796Y-138053236D01*
X150493527Y-138051924D01*
X150529664Y-138031498D01*
X150563088Y-138031696D01*
X150575616Y-138035547D01*
X150590881Y-138043869D01*
X150607092Y-138060241D01*
X150626193Y-138088058D01*
X150650129Y-138130716D01*
X150680845Y-138191611D01*
X150720285Y-138274141D01*
X150755852Y-138350323D01*
X150796771Y-138438630D01*
X150833438Y-138518042D01*
X150863948Y-138584412D01*
X150886396Y-138633591D01*
X150898877Y-138661429D01*
X150900697Y-138665784D01*
X150908884Y-138658665D01*
X150927699Y-138628857D01*
X150954640Y-138580712D01*
X150987202Y-138518579D01*
X151000160Y-138492944D01*
X151044054Y-138406381D01*
X151077905Y-138343341D01*
X151104491Y-138300158D01*
X151126589Y-138273168D01*
X151146978Y-138258704D01*
X151168434Y-138253103D01*
X151182417Y-138252470D01*
X151207082Y-138254656D01*
X151228696Y-138263695D01*
X151250172Y-138283313D01*
X151274424Y-138317233D01*
X151304364Y-138369178D01*
X151342907Y-138442874D01*
X151364172Y-138484796D01*
X151398666Y-138551610D01*
X151428750Y-138607017D01*
X151451771Y-138646343D01*
X151465074Y-138664912D01*
X151466883Y-138665685D01*
X151475474Y-138651071D01*
X151494708Y-138613123D01*
X151522659Y-138555812D01*
X151557401Y-138483112D01*
X151597007Y-138398992D01*
X151616490Y-138357210D01*
X151667174Y-138249379D01*
X151707987Y-138166406D01*
X151741048Y-138105582D01*
X151768475Y-138064201D01*
X151792386Y-138039556D01*
X151814902Y-138028940D01*
X151838141Y-138029646D01*
X151838141Y-138029646D01*
G37*
X151838141Y-138029646D02*
X151864222Y-138038966D01*
X151865228Y-138039422D01*
X151900646Y-138066450D01*
X151920160Y-138094252D01*
X151923978Y-138107288D01*
X151923789Y-138124608D01*
X151918416Y-138149283D01*
X151906682Y-138184380D01*
X151887407Y-138232969D01*
X151859416Y-138298118D01*
X151821530Y-138382897D01*
X151772572Y-138490375D01*
X151745625Y-138549119D01*
X151696964Y-138653989D01*
X151651284Y-138750430D01*
X151610328Y-138834914D01*
X151575840Y-138903916D01*
X151549563Y-138953910D01*
X151533240Y-138981370D01*
X151530010Y-138985163D01*
X151488683Y-139001896D01*
X151442003Y-138999655D01*
X151404564Y-138979303D01*
X151403038Y-138977648D01*
X151388145Y-138955102D01*
X151363163Y-138911187D01*
X151331173Y-138851556D01*
X151295254Y-138781862D01*
X151282346Y-138756179D01*
X151184908Y-138561013D01*
X151078700Y-138773023D01*
X151040791Y-138846277D01*
X151005621Y-138909806D01*
X150976062Y-138958747D01*
X150954988Y-138988238D01*
X150947846Y-138994492D01*
X150892332Y-139002961D01*
X150846523Y-138985163D01*
X150833048Y-138966141D01*
X150809730Y-138923865D01*
X150778471Y-138862496D01*
X150741174Y-138786192D01*
X150699740Y-138699115D01*
X150656072Y-138605423D01*
X150612072Y-138509277D01*
X150569642Y-138414837D01*
X150530684Y-138326261D01*
X150497101Y-138247712D01*
X150470795Y-138183347D01*
X150453668Y-138137327D01*
X150447623Y-138113813D01*
X150447685Y-138112961D01*
X150462394Y-138083372D01*
X150491796Y-138053236D01*
X150493527Y-138051924D01*
X150529664Y-138031498D01*
X150563088Y-138031696D01*
X150575616Y-138035547D01*
X150590881Y-138043869D01*
X150607092Y-138060241D01*
X150626193Y-138088058D01*
X150650129Y-138130716D01*
X150680845Y-138191611D01*
X150720285Y-138274141D01*
X150755852Y-138350323D01*
X150796771Y-138438630D01*
X150833438Y-138518042D01*
X150863948Y-138584412D01*
X150886396Y-138633591D01*
X150898877Y-138661429D01*
X150900697Y-138665784D01*
X150908884Y-138658665D01*
X150927699Y-138628857D01*
X150954640Y-138580712D01*
X150987202Y-138518579D01*
X151000160Y-138492944D01*
X151044054Y-138406381D01*
X151077905Y-138343341D01*
X151104491Y-138300158D01*
X151126589Y-138273168D01*
X151146978Y-138258704D01*
X151168434Y-138253103D01*
X151182417Y-138252470D01*
X151207082Y-138254656D01*
X151228696Y-138263695D01*
X151250172Y-138283313D01*
X151274424Y-138317233D01*
X151304364Y-138369178D01*
X151342907Y-138442874D01*
X151364172Y-138484796D01*
X151398666Y-138551610D01*
X151428750Y-138607017D01*
X151451771Y-138646343D01*
X151465074Y-138664912D01*
X151466883Y-138665685D01*
X151475474Y-138651071D01*
X151494708Y-138613123D01*
X151522659Y-138555812D01*
X151557401Y-138483112D01*
X151597007Y-138398992D01*
X151616490Y-138357210D01*
X151667174Y-138249379D01*
X151707987Y-138166406D01*
X151741048Y-138105582D01*
X151768475Y-138064201D01*
X151792386Y-138039556D01*
X151814902Y-138028940D01*
X151838141Y-138029646D01*
G36*
X152429198Y-138036093D02*
X152460768Y-138055758D01*
X152496250Y-138084489D01*
X152496250Y-138512582D01*
X152496137Y-138637806D01*
X152495653Y-138736463D01*
X152494580Y-138812046D01*
X152492702Y-138868049D01*
X152489800Y-138907963D01*
X152485657Y-138935282D01*
X152480056Y-138953497D01*
X152472779Y-138966102D01*
X152467618Y-138972312D01*
X152425762Y-138999596D01*
X152378099Y-138998483D01*
X152336347Y-138975218D01*
X152300865Y-138946487D01*
X152300865Y-138084489D01*
X152336347Y-138055758D01*
X152370592Y-138034858D01*
X152398557Y-138027026D01*
X152429198Y-138036093D01*
X152429198Y-138036093D01*
G37*
X152429198Y-138036093D02*
X152460768Y-138055758D01*
X152496250Y-138084489D01*
X152496250Y-138512582D01*
X152496137Y-138637806D01*
X152495653Y-138736463D01*
X152494580Y-138812046D01*
X152492702Y-138868049D01*
X152489800Y-138907963D01*
X152485657Y-138935282D01*
X152480056Y-138953497D01*
X152472779Y-138966102D01*
X152467618Y-138972312D01*
X152425762Y-138999596D01*
X152378099Y-138998483D01*
X152336347Y-138975218D01*
X152300865Y-138946487D01*
X152300865Y-138084489D01*
X152336347Y-138055758D01*
X152370592Y-138034858D01*
X152398557Y-138027026D01*
X152429198Y-138036093D01*
G36*
X153460271Y-138027155D02*
X153565059Y-138027659D01*
X153646393Y-138028712D01*
X153707574Y-138030492D01*
X153751905Y-138033173D01*
X153782688Y-138036930D01*
X153803225Y-138041941D01*
X153816819Y-138048379D01*
X153823397Y-138053328D01*
X153857538Y-138096645D01*
X153861668Y-138141619D01*
X153840570Y-138182476D01*
X153826773Y-138198802D01*
X153811926Y-138209934D01*
X153790409Y-138216866D01*
X153756602Y-138220593D01*
X153704886Y-138222110D01*
X153629641Y-138222410D01*
X153614863Y-138222411D01*
X153420569Y-138222411D01*
X153420569Y-138583121D01*
X153420441Y-138696817D01*
X153419860Y-138784301D01*
X153418530Y-138849418D01*
X153416154Y-138896014D01*
X153412438Y-138927935D01*
X153407086Y-138949028D01*
X153399801Y-138963139D01*
X153390510Y-138973890D01*
X153346665Y-139000312D01*
X153300894Y-138998230D01*
X153259384Y-138968085D01*
X153256335Y-138964349D01*
X153246406Y-138950226D01*
X153238842Y-138933702D01*
X153233323Y-138910762D01*
X153229527Y-138877389D01*
X153227136Y-138829571D01*
X153225828Y-138763290D01*
X153225285Y-138674534D01*
X153225185Y-138573579D01*
X153225185Y-138222411D01*
X153039644Y-138222411D01*
X152960021Y-138221872D01*
X152904898Y-138219773D01*
X152868726Y-138215387D01*
X152845956Y-138207992D01*
X152831041Y-138196861D01*
X152829230Y-138194926D01*
X152807452Y-138150673D01*
X152809378Y-138100645D01*
X152834415Y-138057086D01*
X152844098Y-138048636D01*
X152856582Y-138041937D01*
X152875197Y-138036785D01*
X152903271Y-138032977D01*
X152944135Y-138030313D01*
X153001116Y-138028588D01*
X153077546Y-138027600D01*
X153176751Y-138027148D01*
X153302063Y-138027028D01*
X153328727Y-138027026D01*
X153460271Y-138027155D01*
X153460271Y-138027155D01*
G37*
X153460271Y-138027155D02*
X153565059Y-138027659D01*
X153646393Y-138028712D01*
X153707574Y-138030492D01*
X153751905Y-138033173D01*
X153782688Y-138036930D01*
X153803225Y-138041941D01*
X153816819Y-138048379D01*
X153823397Y-138053328D01*
X153857538Y-138096645D01*
X153861668Y-138141619D01*
X153840570Y-138182476D01*
X153826773Y-138198802D01*
X153811926Y-138209934D01*
X153790409Y-138216866D01*
X153756602Y-138220593D01*
X153704886Y-138222110D01*
X153629641Y-138222410D01*
X153614863Y-138222411D01*
X153420569Y-138222411D01*
X153420569Y-138583121D01*
X153420441Y-138696817D01*
X153419860Y-138784301D01*
X153418530Y-138849418D01*
X153416154Y-138896014D01*
X153412438Y-138927935D01*
X153407086Y-138949028D01*
X153399801Y-138963139D01*
X153390510Y-138973890D01*
X153346665Y-139000312D01*
X153300894Y-138998230D01*
X153259384Y-138968085D01*
X153256335Y-138964349D01*
X153246406Y-138950226D01*
X153238842Y-138933702D01*
X153233323Y-138910762D01*
X153229527Y-138877389D01*
X153227136Y-138829571D01*
X153225828Y-138763290D01*
X153225285Y-138674534D01*
X153225185Y-138573579D01*
X153225185Y-138222411D01*
X153039644Y-138222411D01*
X152960021Y-138221872D01*
X152904898Y-138219773D01*
X152868726Y-138215387D01*
X152845956Y-138207992D01*
X152831041Y-138196861D01*
X152829230Y-138194926D01*
X152807452Y-138150673D01*
X152809378Y-138100645D01*
X152834415Y-138057086D01*
X152844098Y-138048636D01*
X152856582Y-138041937D01*
X152875197Y-138036785D01*
X152903271Y-138032977D01*
X152944135Y-138030313D01*
X153001116Y-138028588D01*
X153077546Y-138027600D01*
X153176751Y-138027148D01*
X153302063Y-138027028D01*
X153328727Y-138027026D01*
X153460271Y-138027155D01*
G36*
X155145453Y-138034304D02*
X155187229Y-138063917D01*
X155224119Y-138100808D01*
X155224119Y-138512778D01*
X155224023Y-138635102D01*
X155223566Y-138731014D01*
X155222497Y-138804160D01*
X155220565Y-138858186D01*
X155217517Y-138896739D01*
X155213103Y-138923464D01*
X155207070Y-138942010D01*
X155199168Y-138956021D01*
X155192969Y-138964349D01*
X155152055Y-138997065D01*
X155105076Y-139000616D01*
X155062138Y-138980553D01*
X155047950Y-138968708D01*
X155038466Y-138952974D01*
X155032745Y-138927638D01*
X155029847Y-138886986D01*
X155028832Y-138825304D01*
X155028735Y-138777654D01*
X155028735Y-138598151D01*
X154367433Y-138598151D01*
X154367433Y-138761449D01*
X154366749Y-138836121D01*
X154364013Y-138887440D01*
X154358198Y-138922093D01*
X154348278Y-138946771D01*
X154336283Y-138964349D01*
X154295140Y-138996973D01*
X154248611Y-139000836D01*
X154204067Y-138977648D01*
X154191906Y-138965492D01*
X154183317Y-138949377D01*
X154177652Y-138924276D01*
X154174263Y-138885160D01*
X154172502Y-138827002D01*
X154171722Y-138744774D01*
X154171630Y-138725902D01*
X154170986Y-138570973D01*
X154170654Y-138443290D01*
X154170762Y-138340043D01*
X154171439Y-138258419D01*
X154172812Y-138195608D01*
X154175010Y-138148797D01*
X154178160Y-138115175D01*
X154182392Y-138091931D01*
X154187832Y-138076252D01*
X154194609Y-138065327D01*
X154202108Y-138057086D01*
X154244527Y-138030723D01*
X154288766Y-138034304D01*
X154330542Y-138063917D01*
X154347447Y-138083023D01*
X154358223Y-138104127D01*
X154364235Y-138134184D01*
X154366850Y-138180149D01*
X154367433Y-138248976D01*
X154367433Y-138402766D01*
X155028735Y-138402766D01*
X155028735Y-138244955D01*
X155029410Y-138172252D01*
X155032120Y-138123161D01*
X155037895Y-138091252D01*
X155047763Y-138070094D01*
X155058794Y-138057086D01*
X155101213Y-138030723D01*
X155145453Y-138034304D01*
X155145453Y-138034304D01*
G37*
X155145453Y-138034304D02*
X155187229Y-138063917D01*
X155224119Y-138100808D01*
X155224119Y-138512778D01*
X155224023Y-138635102D01*
X155223566Y-138731014D01*
X155222497Y-138804160D01*
X155220565Y-138858186D01*
X155217517Y-138896739D01*
X155213103Y-138923464D01*
X155207070Y-138942010D01*
X155199168Y-138956021D01*
X155192969Y-138964349D01*
X155152055Y-138997065D01*
X155105076Y-139000616D01*
X155062138Y-138980553D01*
X155047950Y-138968708D01*
X155038466Y-138952974D01*
X155032745Y-138927638D01*
X155029847Y-138886986D01*
X155028832Y-138825304D01*
X155028735Y-138777654D01*
X155028735Y-138598151D01*
X154367433Y-138598151D01*
X154367433Y-138761449D01*
X154366749Y-138836121D01*
X154364013Y-138887440D01*
X154358198Y-138922093D01*
X154348278Y-138946771D01*
X154336283Y-138964349D01*
X154295140Y-138996973D01*
X154248611Y-139000836D01*
X154204067Y-138977648D01*
X154191906Y-138965492D01*
X154183317Y-138949377D01*
X154177652Y-138924276D01*
X154174263Y-138885160D01*
X154172502Y-138827002D01*
X154171722Y-138744774D01*
X154171630Y-138725902D01*
X154170986Y-138570973D01*
X154170654Y-138443290D01*
X154170762Y-138340043D01*
X154171439Y-138258419D01*
X154172812Y-138195608D01*
X154175010Y-138148797D01*
X154178160Y-138115175D01*
X154182392Y-138091931D01*
X154187832Y-138076252D01*
X154194609Y-138065327D01*
X154202108Y-138057086D01*
X154244527Y-138030723D01*
X154288766Y-138034304D01*
X154330542Y-138063917D01*
X154347447Y-138083023D01*
X154358223Y-138104127D01*
X154364235Y-138134184D01*
X154366850Y-138180149D01*
X154367433Y-138248976D01*
X154367433Y-138402766D01*
X155028735Y-138402766D01*
X155028735Y-138244955D01*
X155029410Y-138172252D01*
X155032120Y-138123161D01*
X155037895Y-138091252D01*
X155047763Y-138070094D01*
X155058794Y-138057086D01*
X155101213Y-138030723D01*
X155145453Y-138034304D01*
G36*
X142929918Y-131663104D02*
X142944384Y-131814799D01*
X142986477Y-131958083D01*
X143054247Y-132089887D01*
X143145741Y-132207138D01*
X143259005Y-132306767D01*
X143388130Y-132383809D01*
X143529612Y-132436559D01*
X143672086Y-132461281D01*
X143812744Y-132459764D01*
X143948776Y-132433797D01*
X144077373Y-132385170D01*
X144195726Y-132315673D01*
X144301026Y-132227094D01*
X144390463Y-132121223D01*
X144461228Y-131999850D01*
X144510511Y-131864763D01*
X144535505Y-131717754D01*
X144538084Y-131651324D01*
X144538084Y-131534245D01*
X144607220Y-131534245D01*
X144655559Y-131538033D01*
X144691369Y-131553742D01*
X144727457Y-131585346D01*
X144778557Y-131636447D01*
X144778557Y-134554218D01*
X144778545Y-134903218D01*
X144778502Y-135223412D01*
X144778417Y-135516054D01*
X144778279Y-135782398D01*
X144778078Y-136023697D01*
X144777802Y-136241205D01*
X144777440Y-136436175D01*
X144776982Y-136609860D01*
X144776417Y-136763515D01*
X144775734Y-136898393D01*
X144774923Y-137015748D01*
X144773971Y-137116833D01*
X144772869Y-137202901D01*
X144771605Y-137275207D01*
X144770170Y-137335003D01*
X144768551Y-137383544D01*
X144766738Y-137422083D01*
X144764720Y-137451873D01*
X144762486Y-137474169D01*
X144760026Y-137490223D01*
X144757328Y-137501290D01*
X144754382Y-137508622D01*
X144752941Y-137511085D01*
X144747399Y-137520420D01*
X144742693Y-137529003D01*
X144737595Y-137536864D01*
X144730875Y-137544035D01*
X144721304Y-137550547D01*
X144707654Y-137556433D01*
X144688695Y-137561722D01*
X144663198Y-137566448D01*
X144629935Y-137570640D01*
X144587676Y-137574331D01*
X144535192Y-137577552D01*
X144471254Y-137580334D01*
X144394633Y-137582710D01*
X144304100Y-137584709D01*
X144198426Y-137586364D01*
X144076382Y-137587707D01*
X143936739Y-137588767D01*
X143778268Y-137589578D01*
X143599740Y-137590170D01*
X143399925Y-137590575D01*
X143177595Y-137590824D01*
X142931521Y-137590949D01*
X142660474Y-137590981D01*
X142363224Y-137590951D01*
X142038543Y-137590891D01*
X141685202Y-137590832D01*
X141634099Y-137590826D01*
X141278655Y-137590769D01*
X140952046Y-137590675D01*
X140653048Y-137590535D01*
X140380436Y-137590339D01*
X140132987Y-137590077D01*
X139909476Y-137589740D01*
X139708680Y-137589319D01*
X139529374Y-137588803D01*
X139370333Y-137588184D01*
X139230334Y-137587451D01*
X139108153Y-137586595D01*
X139002565Y-137585606D01*
X138912347Y-137584474D01*
X138836274Y-137583191D01*
X138773121Y-137581746D01*
X138721665Y-137580129D01*
X138680682Y-137578332D01*
X138648948Y-137576345D01*
X138625238Y-137574157D01*
X138608328Y-137571759D01*
X138596994Y-137569143D01*
X138591192Y-137566921D01*
X138579926Y-137562168D01*
X138569582Y-137558658D01*
X138560123Y-137555148D01*
X138551508Y-137550393D01*
X138543698Y-137543149D01*
X138536655Y-137532171D01*
X138530338Y-137516215D01*
X138524709Y-137494035D01*
X138519728Y-137464389D01*
X138515356Y-137426031D01*
X138511554Y-137377717D01*
X138508282Y-137318202D01*
X138505501Y-137246243D01*
X138503173Y-137160593D01*
X138501257Y-137060011D01*
X138499715Y-136943249D01*
X138498506Y-136809065D01*
X138497593Y-136656214D01*
X138496935Y-136483451D01*
X138496494Y-136289532D01*
X138496229Y-136073213D01*
X138496104Y-135833248D01*
X138496076Y-135568394D01*
X138496107Y-135277406D01*
X138496159Y-134959040D01*
X138496191Y-134612050D01*
X138496191Y-134555932D01*
X138496173Y-134205921D01*
X138496139Y-133884716D01*
X138496125Y-133591063D01*
X138496164Y-133323708D01*
X138496289Y-133081397D01*
X138496537Y-132862877D01*
X138496940Y-132666893D01*
X138497533Y-132492193D01*
X138498305Y-132345843D01*
X138901491Y-132345843D01*
X138954466Y-132422855D01*
X138969338Y-132443848D01*
X138982745Y-132462436D01*
X138994764Y-132480200D01*
X139005470Y-132498718D01*
X139014937Y-132519571D01*
X139023243Y-132544337D01*
X139030462Y-132574597D01*
X139036671Y-132611930D01*
X139041944Y-132657915D01*
X139046358Y-132714132D01*
X139049988Y-132782160D01*
X139052910Y-132863580D01*
X139055199Y-132959970D01*
X139056931Y-133072910D01*
X139058182Y-133203979D01*
X139059026Y-133354758D01*
X139059541Y-133526826D01*
X139059801Y-133721761D01*
X139059883Y-133941145D01*
X139059861Y-134186556D01*
X139059812Y-134459574D01*
X139059800Y-134622825D01*
X139059832Y-134911663D01*
X139059877Y-135172023D01*
X139059861Y-135405486D01*
X139059709Y-135613634D01*
X139059346Y-135798049D01*
X139058697Y-135960311D01*
X139057687Y-136102002D01*
X139056241Y-136224704D01*
X139054285Y-136329997D01*
X139051744Y-136419463D01*
X139048543Y-136494683D01*
X139044607Y-136557239D01*
X139039860Y-136608712D01*
X139034230Y-136650683D01*
X139027639Y-136684733D01*
X139020014Y-136712445D01*
X139011280Y-136735398D01*
X139001361Y-136755176D01*
X138990184Y-136773358D01*
X138977673Y-136791526D01*
X138963752Y-136811262D01*
X138955643Y-136823099D01*
X138904022Y-136899808D01*
X139611726Y-136899808D01*
X139775814Y-136899761D01*
X139912273Y-136899561D01*
X140023531Y-136899113D01*
X140112019Y-136898324D01*
X140180164Y-136897100D01*
X140230397Y-136895349D01*
X140265147Y-136892977D01*
X140286842Y-136889890D01*
X140297913Y-136885996D01*
X140300789Y-136881200D01*
X140297899Y-136875410D01*
X140296307Y-136873506D01*
X140262823Y-136824150D01*
X140228344Y-136753853D01*
X140196911Y-136671307D01*
X140185902Y-136636141D01*
X140179756Y-136612255D01*
X140174562Y-136584215D01*
X140170210Y-136549245D01*
X140166592Y-136504569D01*
X140163597Y-136447409D01*
X140161117Y-136374990D01*
X140159042Y-136284535D01*
X140157263Y-136173268D01*
X140155670Y-136038411D01*
X140154154Y-135877189D01*
X140153652Y-135817677D01*
X140152298Y-135651056D01*
X140151288Y-135512106D01*
X140150699Y-135398441D01*
X140150609Y-135307676D01*
X140151096Y-135237424D01*
X140152237Y-135185299D01*
X140154110Y-135148914D01*
X140156793Y-135125884D01*
X140160364Y-135113822D01*
X140164901Y-135110341D01*
X140170481Y-135113056D01*
X140176437Y-135118802D01*
X140190223Y-135136023D01*
X140219590Y-135174731D01*
X140262461Y-135232090D01*
X140316758Y-135305261D01*
X140380403Y-135391406D01*
X140451317Y-135487689D01*
X140527424Y-135591272D01*
X140606645Y-135699317D01*
X140686902Y-135808987D01*
X140766118Y-135917444D01*
X140842214Y-136021850D01*
X140913113Y-136119369D01*
X140976737Y-136207163D01*
X141031007Y-136282394D01*
X141073847Y-136342224D01*
X141103178Y-136383817D01*
X141109260Y-136392647D01*
X141139776Y-136441778D01*
X141175468Y-136505670D01*
X141209283Y-136571622D01*
X141213571Y-136580517D01*
X141242432Y-136644682D01*
X141259188Y-136694690D01*
X141266817Y-136742387D01*
X141268306Y-136798358D01*
X141267462Y-136899808D01*
X142804436Y-136899808D01*
X142683065Y-136775018D01*
X142620761Y-136708590D01*
X142553810Y-136633396D01*
X142492508Y-136561143D01*
X142465315Y-136527390D01*
X142424791Y-136474741D01*
X142371464Y-136403897D01*
X142306893Y-136317027D01*
X142232639Y-136216302D01*
X142150259Y-136103889D01*
X142061314Y-135981959D01*
X141967362Y-135852682D01*
X141869962Y-135718226D01*
X141770675Y-135580761D01*
X141671059Y-135442457D01*
X141572673Y-135305483D01*
X141477076Y-135172009D01*
X141385828Y-135044204D01*
X141300488Y-134924237D01*
X141222615Y-134814279D01*
X141153769Y-134716498D01*
X141095508Y-134633064D01*
X141049391Y-134566146D01*
X141016979Y-134517914D01*
X140999830Y-134490538D01*
X140997490Y-134485076D01*
X141008086Y-134469997D01*
X141035772Y-134433810D01*
X141078731Y-134378781D01*
X141135150Y-134307173D01*
X141203214Y-134221251D01*
X141281107Y-134123278D01*
X141367015Y-134015518D01*
X141459123Y-133900235D01*
X141555617Y-133779694D01*
X141654681Y-133656159D01*
X141734202Y-133557162D01*
X143080214Y-133557162D01*
X143088082Y-133574413D01*
X143107160Y-133604035D01*
X143108554Y-133606008D01*
X143133567Y-133646153D01*
X143159724Y-133695189D01*
X143164915Y-133706021D01*
X143169623Y-133717243D01*
X143173783Y-133730714D01*
X143177437Y-133748290D01*
X143180625Y-133771825D01*
X143183385Y-133803174D01*
X143185759Y-133844192D01*
X143187787Y-133896732D01*
X143189508Y-133962651D01*
X143190964Y-134043803D01*
X143192193Y-134142042D01*
X143193236Y-134259223D01*
X143194134Y-134397201D01*
X143194926Y-134557831D01*
X143195652Y-134742968D01*
X143196353Y-134954466D01*
X143197063Y-135192589D01*
X143197780Y-135439047D01*
X143198358Y-135657309D01*
X143198709Y-135849235D01*
X143198742Y-136016687D01*
X143198368Y-136161529D01*
X143197497Y-136285620D01*
X143196039Y-136390824D01*
X143193904Y-136479002D01*
X143191003Y-136552016D01*
X143187246Y-136611728D01*
X143182543Y-136660000D01*
X143176805Y-136698694D01*
X143169941Y-136729671D01*
X143161862Y-136754794D01*
X143152478Y-136775925D01*
X143141700Y-136794925D01*
X143129437Y-136813656D01*
X143118120Y-136830255D01*
X143095306Y-136865262D01*
X143081797Y-136888673D01*
X143080214Y-136892960D01*
X143094735Y-136894394D01*
X143136265Y-136895726D01*
X143201751Y-136896925D01*
X143288145Y-136897957D01*
X143392394Y-136898792D01*
X143511448Y-136899397D01*
X143642256Y-136899740D01*
X143734001Y-136899808D01*
X143873785Y-136899514D01*
X144002716Y-136898673D01*
X144117882Y-136897343D01*
X144216370Y-136895583D01*
X144295264Y-136893452D01*
X144351652Y-136891008D01*
X144382620Y-136888311D01*
X144387788Y-136886618D01*
X144377540Y-136866777D01*
X144366891Y-136856086D01*
X144349354Y-136833284D01*
X144326403Y-136793009D01*
X144310530Y-136760311D01*
X144275066Y-136681879D01*
X144270972Y-135115044D01*
X144266878Y-133548210D01*
X143673546Y-133548210D01*
X143543317Y-133548429D01*
X143422970Y-133549053D01*
X143315708Y-133550033D01*
X143224733Y-133551323D01*
X143153247Y-133552872D01*
X143104454Y-133554634D01*
X143081555Y-133556559D01*
X143080214Y-133557162D01*
X141734202Y-133557162D01*
X141754500Y-133531893D01*
X141853260Y-133409161D01*
X141949147Y-133290227D01*
X142040344Y-133177354D01*
X142125038Y-133072808D01*
X142201413Y-132978851D01*
X142267656Y-132897748D01*
X142321950Y-132831764D01*
X142344802Y-132804245D01*
X142459688Y-132670229D01*
X142561669Y-132559383D01*
X142653285Y-132469089D01*
X142737074Y-132396731D01*
X142749563Y-132386922D01*
X142802167Y-132346176D01*
X142048776Y-132346010D01*
X141295386Y-132345843D01*
X141302427Y-132409719D01*
X141298030Y-132486064D01*
X141269364Y-132576962D01*
X141216144Y-132683137D01*
X141155823Y-132779372D01*
X141134231Y-132809521D01*
X141096882Y-132859521D01*
X141046003Y-132926522D01*
X140983820Y-133007671D01*
X140912559Y-133100118D01*
X140834448Y-133201013D01*
X140751712Y-133307503D01*
X140666577Y-133416738D01*
X140581271Y-133525867D01*
X140498019Y-133632039D01*
X140419048Y-133732403D01*
X140346585Y-133824107D01*
X140282855Y-133904301D01*
X140230085Y-133970134D01*
X140190502Y-134018754D01*
X140166331Y-134047310D01*
X140162259Y-134051701D01*
X140158452Y-134041042D01*
X140155505Y-134000710D01*
X140153423Y-133931080D01*
X140152211Y-133832527D01*
X140151874Y-133705424D01*
X140152417Y-133550148D01*
X140153627Y-133390399D01*
X140155387Y-133214511D01*
X140157417Y-133065747D01*
X140160047Y-132941172D01*
X140163609Y-132837851D01*
X140168434Y-132752849D01*
X140174853Y-132683232D01*
X140183196Y-132626064D01*
X140193796Y-132578411D01*
X140206983Y-132537337D01*
X140223088Y-132499907D01*
X140242443Y-132463187D01*
X140261990Y-132429851D01*
X140312577Y-132345843D01*
X138901491Y-132345843D01*
X138498305Y-132345843D01*
X138498349Y-132337522D01*
X138499422Y-132201627D01*
X138500787Y-132083254D01*
X138502478Y-131981149D01*
X138504528Y-131894059D01*
X138506972Y-131820730D01*
X138509844Y-131759909D01*
X138513178Y-131710340D01*
X138517007Y-131670772D01*
X138521366Y-131639950D01*
X138526289Y-131616620D01*
X138531810Y-131599528D01*
X138537962Y-131587422D01*
X138544781Y-131579047D01*
X138552300Y-131573150D01*
X138560553Y-131568476D01*
X138569573Y-131563773D01*
X138577556Y-131559022D01*
X138584523Y-131555592D01*
X138595408Y-131552492D01*
X138611668Y-131549705D01*
X138634761Y-131547214D01*
X138666143Y-131545003D01*
X138707272Y-131543056D01*
X138759606Y-131541356D01*
X138824601Y-131539887D01*
X138903715Y-131538632D01*
X138998404Y-131537574D01*
X139110128Y-131536698D01*
X139240341Y-131535987D01*
X139390503Y-131535425D01*
X139562070Y-131534994D01*
X139756499Y-131534679D01*
X139975248Y-131534463D01*
X140219774Y-131534330D01*
X140491535Y-131534263D01*
X140772644Y-131534245D01*
X142929918Y-131534245D01*
X142929918Y-131663104D01*
X142929918Y-131663104D01*
G37*
X142929918Y-131663104D02*
X142944384Y-131814799D01*
X142986477Y-131958083D01*
X143054247Y-132089887D01*
X143145741Y-132207138D01*
X143259005Y-132306767D01*
X143388130Y-132383809D01*
X143529612Y-132436559D01*
X143672086Y-132461281D01*
X143812744Y-132459764D01*
X143948776Y-132433797D01*
X144077373Y-132385170D01*
X144195726Y-132315673D01*
X144301026Y-132227094D01*
X144390463Y-132121223D01*
X144461228Y-131999850D01*
X144510511Y-131864763D01*
X144535505Y-131717754D01*
X144538084Y-131651324D01*
X144538084Y-131534245D01*
X144607220Y-131534245D01*
X144655559Y-131538033D01*
X144691369Y-131553742D01*
X144727457Y-131585346D01*
X144778557Y-131636447D01*
X144778557Y-134554218D01*
X144778545Y-134903218D01*
X144778502Y-135223412D01*
X144778417Y-135516054D01*
X144778279Y-135782398D01*
X144778078Y-136023697D01*
X144777802Y-136241205D01*
X144777440Y-136436175D01*
X144776982Y-136609860D01*
X144776417Y-136763515D01*
X144775734Y-136898393D01*
X144774923Y-137015748D01*
X144773971Y-137116833D01*
X144772869Y-137202901D01*
X144771605Y-137275207D01*
X144770170Y-137335003D01*
X144768551Y-137383544D01*
X144766738Y-137422083D01*
X144764720Y-137451873D01*
X144762486Y-137474169D01*
X144760026Y-137490223D01*
X144757328Y-137501290D01*
X144754382Y-137508622D01*
X144752941Y-137511085D01*
X144747399Y-137520420D01*
X144742693Y-137529003D01*
X144737595Y-137536864D01*
X144730875Y-137544035D01*
X144721304Y-137550547D01*
X144707654Y-137556433D01*
X144688695Y-137561722D01*
X144663198Y-137566448D01*
X144629935Y-137570640D01*
X144587676Y-137574331D01*
X144535192Y-137577552D01*
X144471254Y-137580334D01*
X144394633Y-137582710D01*
X144304100Y-137584709D01*
X144198426Y-137586364D01*
X144076382Y-137587707D01*
X143936739Y-137588767D01*
X143778268Y-137589578D01*
X143599740Y-137590170D01*
X143399925Y-137590575D01*
X143177595Y-137590824D01*
X142931521Y-137590949D01*
X142660474Y-137590981D01*
X142363224Y-137590951D01*
X142038543Y-137590891D01*
X141685202Y-137590832D01*
X141634099Y-137590826D01*
X141278655Y-137590769D01*
X140952046Y-137590675D01*
X140653048Y-137590535D01*
X140380436Y-137590339D01*
X140132987Y-137590077D01*
X139909476Y-137589740D01*
X139708680Y-137589319D01*
X139529374Y-137588803D01*
X139370333Y-137588184D01*
X139230334Y-137587451D01*
X139108153Y-137586595D01*
X139002565Y-137585606D01*
X138912347Y-137584474D01*
X138836274Y-137583191D01*
X138773121Y-137581746D01*
X138721665Y-137580129D01*
X138680682Y-137578332D01*
X138648948Y-137576345D01*
X138625238Y-137574157D01*
X138608328Y-137571759D01*
X138596994Y-137569143D01*
X138591192Y-137566921D01*
X138579926Y-137562168D01*
X138569582Y-137558658D01*
X138560123Y-137555148D01*
X138551508Y-137550393D01*
X138543698Y-137543149D01*
X138536655Y-137532171D01*
X138530338Y-137516215D01*
X138524709Y-137494035D01*
X138519728Y-137464389D01*
X138515356Y-137426031D01*
X138511554Y-137377717D01*
X138508282Y-137318202D01*
X138505501Y-137246243D01*
X138503173Y-137160593D01*
X138501257Y-137060011D01*
X138499715Y-136943249D01*
X138498506Y-136809065D01*
X138497593Y-136656214D01*
X138496935Y-136483451D01*
X138496494Y-136289532D01*
X138496229Y-136073213D01*
X138496104Y-135833248D01*
X138496076Y-135568394D01*
X138496107Y-135277406D01*
X138496159Y-134959040D01*
X138496191Y-134612050D01*
X138496191Y-134555932D01*
X138496173Y-134205921D01*
X138496139Y-133884716D01*
X138496125Y-133591063D01*
X138496164Y-133323708D01*
X138496289Y-133081397D01*
X138496537Y-132862877D01*
X138496940Y-132666893D01*
X138497533Y-132492193D01*
X138498305Y-132345843D01*
X138901491Y-132345843D01*
X138954466Y-132422855D01*
X138969338Y-132443848D01*
X138982745Y-132462436D01*
X138994764Y-132480200D01*
X139005470Y-132498718D01*
X139014937Y-132519571D01*
X139023243Y-132544337D01*
X139030462Y-132574597D01*
X139036671Y-132611930D01*
X139041944Y-132657915D01*
X139046358Y-132714132D01*
X139049988Y-132782160D01*
X139052910Y-132863580D01*
X139055199Y-132959970D01*
X139056931Y-133072910D01*
X139058182Y-133203979D01*
X139059026Y-133354758D01*
X139059541Y-133526826D01*
X139059801Y-133721761D01*
X139059883Y-133941145D01*
X139059861Y-134186556D01*
X139059812Y-134459574D01*
X139059800Y-134622825D01*
X139059832Y-134911663D01*
X139059877Y-135172023D01*
X139059861Y-135405486D01*
X139059709Y-135613634D01*
X139059346Y-135798049D01*
X139058697Y-135960311D01*
X139057687Y-136102002D01*
X139056241Y-136224704D01*
X139054285Y-136329997D01*
X139051744Y-136419463D01*
X139048543Y-136494683D01*
X139044607Y-136557239D01*
X139039860Y-136608712D01*
X139034230Y-136650683D01*
X139027639Y-136684733D01*
X139020014Y-136712445D01*
X139011280Y-136735398D01*
X139001361Y-136755176D01*
X138990184Y-136773358D01*
X138977673Y-136791526D01*
X138963752Y-136811262D01*
X138955643Y-136823099D01*
X138904022Y-136899808D01*
X139611726Y-136899808D01*
X139775814Y-136899761D01*
X139912273Y-136899561D01*
X140023531Y-136899113D01*
X140112019Y-136898324D01*
X140180164Y-136897100D01*
X140230397Y-136895349D01*
X140265147Y-136892977D01*
X140286842Y-136889890D01*
X140297913Y-136885996D01*
X140300789Y-136881200D01*
X140297899Y-136875410D01*
X140296307Y-136873506D01*
X140262823Y-136824150D01*
X140228344Y-136753853D01*
X140196911Y-136671307D01*
X140185902Y-136636141D01*
X140179756Y-136612255D01*
X140174562Y-136584215D01*
X140170210Y-136549245D01*
X140166592Y-136504569D01*
X140163597Y-136447409D01*
X140161117Y-136374990D01*
X140159042Y-136284535D01*
X140157263Y-136173268D01*
X140155670Y-136038411D01*
X140154154Y-135877189D01*
X140153652Y-135817677D01*
X140152298Y-135651056D01*
X140151288Y-135512106D01*
X140150699Y-135398441D01*
X140150609Y-135307676D01*
X140151096Y-135237424D01*
X140152237Y-135185299D01*
X140154110Y-135148914D01*
X140156793Y-135125884D01*
X140160364Y-135113822D01*
X140164901Y-135110341D01*
X140170481Y-135113056D01*
X140176437Y-135118802D01*
X140190223Y-135136023D01*
X140219590Y-135174731D01*
X140262461Y-135232090D01*
X140316758Y-135305261D01*
X140380403Y-135391406D01*
X140451317Y-135487689D01*
X140527424Y-135591272D01*
X140606645Y-135699317D01*
X140686902Y-135808987D01*
X140766118Y-135917444D01*
X140842214Y-136021850D01*
X140913113Y-136119369D01*
X140976737Y-136207163D01*
X141031007Y-136282394D01*
X141073847Y-136342224D01*
X141103178Y-136383817D01*
X141109260Y-136392647D01*
X141139776Y-136441778D01*
X141175468Y-136505670D01*
X141209283Y-136571622D01*
X141213571Y-136580517D01*
X141242432Y-136644682D01*
X141259188Y-136694690D01*
X141266817Y-136742387D01*
X141268306Y-136798358D01*
X141267462Y-136899808D01*
X142804436Y-136899808D01*
X142683065Y-136775018D01*
X142620761Y-136708590D01*
X142553810Y-136633396D01*
X142492508Y-136561143D01*
X142465315Y-136527390D01*
X142424791Y-136474741D01*
X142371464Y-136403897D01*
X142306893Y-136317027D01*
X142232639Y-136216302D01*
X142150259Y-136103889D01*
X142061314Y-135981959D01*
X141967362Y-135852682D01*
X141869962Y-135718226D01*
X141770675Y-135580761D01*
X141671059Y-135442457D01*
X141572673Y-135305483D01*
X141477076Y-135172009D01*
X141385828Y-135044204D01*
X141300488Y-134924237D01*
X141222615Y-134814279D01*
X141153769Y-134716498D01*
X141095508Y-134633064D01*
X141049391Y-134566146D01*
X141016979Y-134517914D01*
X140999830Y-134490538D01*
X140997490Y-134485076D01*
X141008086Y-134469997D01*
X141035772Y-134433810D01*
X141078731Y-134378781D01*
X141135150Y-134307173D01*
X141203214Y-134221251D01*
X141281107Y-134123278D01*
X141367015Y-134015518D01*
X141459123Y-133900235D01*
X141555617Y-133779694D01*
X141654681Y-133656159D01*
X141734202Y-133557162D01*
X143080214Y-133557162D01*
X143088082Y-133574413D01*
X143107160Y-133604035D01*
X143108554Y-133606008D01*
X143133567Y-133646153D01*
X143159724Y-133695189D01*
X143164915Y-133706021D01*
X143169623Y-133717243D01*
X143173783Y-133730714D01*
X143177437Y-133748290D01*
X143180625Y-133771825D01*
X143183385Y-133803174D01*
X143185759Y-133844192D01*
X143187787Y-133896732D01*
X143189508Y-133962651D01*
X143190964Y-134043803D01*
X143192193Y-134142042D01*
X143193236Y-134259223D01*
X143194134Y-134397201D01*
X143194926Y-134557831D01*
X143195652Y-134742968D01*
X143196353Y-134954466D01*
X143197063Y-135192589D01*
X143197780Y-135439047D01*
X143198358Y-135657309D01*
X143198709Y-135849235D01*
X143198742Y-136016687D01*
X143198368Y-136161529D01*
X143197497Y-136285620D01*
X143196039Y-136390824D01*
X143193904Y-136479002D01*
X143191003Y-136552016D01*
X143187246Y-136611728D01*
X143182543Y-136660000D01*
X143176805Y-136698694D01*
X143169941Y-136729671D01*
X143161862Y-136754794D01*
X143152478Y-136775925D01*
X143141700Y-136794925D01*
X143129437Y-136813656D01*
X143118120Y-136830255D01*
X143095306Y-136865262D01*
X143081797Y-136888673D01*
X143080214Y-136892960D01*
X143094735Y-136894394D01*
X143136265Y-136895726D01*
X143201751Y-136896925D01*
X143288145Y-136897957D01*
X143392394Y-136898792D01*
X143511448Y-136899397D01*
X143642256Y-136899740D01*
X143734001Y-136899808D01*
X143873785Y-136899514D01*
X144002716Y-136898673D01*
X144117882Y-136897343D01*
X144216370Y-136895583D01*
X144295264Y-136893452D01*
X144351652Y-136891008D01*
X144382620Y-136888311D01*
X144387788Y-136886618D01*
X144377540Y-136866777D01*
X144366891Y-136856086D01*
X144349354Y-136833284D01*
X144326403Y-136793009D01*
X144310530Y-136760311D01*
X144275066Y-136681879D01*
X144270972Y-135115044D01*
X144266878Y-133548210D01*
X143673546Y-133548210D01*
X143543317Y-133548429D01*
X143422970Y-133549053D01*
X143315708Y-133550033D01*
X143224733Y-133551323D01*
X143153247Y-133552872D01*
X143104454Y-133554634D01*
X143081555Y-133556559D01*
X143080214Y-133557162D01*
X141734202Y-133557162D01*
X141754500Y-133531893D01*
X141853260Y-133409161D01*
X141949147Y-133290227D01*
X142040344Y-133177354D01*
X142125038Y-133072808D01*
X142201413Y-132978851D01*
X142267656Y-132897748D01*
X142321950Y-132831764D01*
X142344802Y-132804245D01*
X142459688Y-132670229D01*
X142561669Y-132559383D01*
X142653285Y-132469089D01*
X142737074Y-132396731D01*
X142749563Y-132386922D01*
X142802167Y-132346176D01*
X142048776Y-132346010D01*
X141295386Y-132345843D01*
X141302427Y-132409719D01*
X141298030Y-132486064D01*
X141269364Y-132576962D01*
X141216144Y-132683137D01*
X141155823Y-132779372D01*
X141134231Y-132809521D01*
X141096882Y-132859521D01*
X141046003Y-132926522D01*
X140983820Y-133007671D01*
X140912559Y-133100118D01*
X140834448Y-133201013D01*
X140751712Y-133307503D01*
X140666577Y-133416738D01*
X140581271Y-133525867D01*
X140498019Y-133632039D01*
X140419048Y-133732403D01*
X140346585Y-133824107D01*
X140282855Y-133904301D01*
X140230085Y-133970134D01*
X140190502Y-134018754D01*
X140166331Y-134047310D01*
X140162259Y-134051701D01*
X140158452Y-134041042D01*
X140155505Y-134000710D01*
X140153423Y-133931080D01*
X140152211Y-133832527D01*
X140151874Y-133705424D01*
X140152417Y-133550148D01*
X140153627Y-133390399D01*
X140155387Y-133214511D01*
X140157417Y-133065747D01*
X140160047Y-132941172D01*
X140163609Y-132837851D01*
X140168434Y-132752849D01*
X140174853Y-132683232D01*
X140183196Y-132626064D01*
X140193796Y-132578411D01*
X140206983Y-132537337D01*
X140223088Y-132499907D01*
X140242443Y-132463187D01*
X140261990Y-132429851D01*
X140312577Y-132345843D01*
X138901491Y-132345843D01*
X138498305Y-132345843D01*
X138498349Y-132337522D01*
X138499422Y-132201627D01*
X138500787Y-132083254D01*
X138502478Y-131981149D01*
X138504528Y-131894059D01*
X138506972Y-131820730D01*
X138509844Y-131759909D01*
X138513178Y-131710340D01*
X138517007Y-131670772D01*
X138521366Y-131639950D01*
X138526289Y-131616620D01*
X138531810Y-131599528D01*
X138537962Y-131587422D01*
X138544781Y-131579047D01*
X138552300Y-131573150D01*
X138560553Y-131568476D01*
X138569573Y-131563773D01*
X138577556Y-131559022D01*
X138584523Y-131555592D01*
X138595408Y-131552492D01*
X138611668Y-131549705D01*
X138634761Y-131547214D01*
X138666143Y-131545003D01*
X138707272Y-131543056D01*
X138759606Y-131541356D01*
X138824601Y-131539887D01*
X138903715Y-131538632D01*
X138998404Y-131537574D01*
X139110128Y-131536698D01*
X139240341Y-131535987D01*
X139390503Y-131535425D01*
X139562070Y-131534994D01*
X139756499Y-131534679D01*
X139975248Y-131534463D01*
X140219774Y-131534330D01*
X140491535Y-131534263D01*
X140772644Y-131534245D01*
X142929918Y-131534245D01*
X142929918Y-131663104D01*
G36*
X147289898Y-132275553D02*
X147503104Y-132303743D01*
X147721367Y-132357183D01*
X147947436Y-132436405D01*
X148184058Y-132541936D01*
X148199060Y-132549318D01*
X148275872Y-132586630D01*
X148344500Y-132618685D01*
X148399937Y-132643246D01*
X148437176Y-132658072D01*
X148449918Y-132661464D01*
X148475503Y-132668131D01*
X148481643Y-132673731D01*
X148474848Y-132687621D01*
X148453493Y-132722620D01*
X148420036Y-132775060D01*
X148376934Y-132841274D01*
X148326648Y-132917594D01*
X148271635Y-133000353D01*
X148214354Y-133085881D01*
X148157263Y-133170513D01*
X148102823Y-133250580D01*
X148053490Y-133322414D01*
X148011723Y-133382348D01*
X147979982Y-133426715D01*
X147960725Y-133451845D01*
X147958082Y-133454760D01*
X147944611Y-133448571D01*
X147914867Y-133425703D01*
X147874167Y-133390394D01*
X147853206Y-133371120D01*
X147724744Y-133270894D01*
X147582674Y-133197082D01*
X147428896Y-133150350D01*
X147265312Y-133131364D01*
X147172915Y-133132923D01*
X147011635Y-133155770D01*
X146866227Y-133203542D01*
X146736256Y-133276588D01*
X146621287Y-133375256D01*
X146520886Y-133499895D01*
X146434618Y-133650856D01*
X146384801Y-133766139D01*
X146326418Y-133946804D01*
X146283388Y-134143158D01*
X146255600Y-134350137D01*
X146242945Y-134562678D01*
X146245310Y-134775718D01*
X146262585Y-134984193D01*
X146294659Y-135183041D01*
X146341422Y-135367198D01*
X146402763Y-135531600D01*
X146424440Y-135577204D01*
X146515300Y-135729094D01*
X146622421Y-135857561D01*
X146744228Y-135961558D01*
X146879150Y-136040038D01*
X147025611Y-136091954D01*
X147182040Y-136116259D01*
X147237248Y-136118047D01*
X147399086Y-136103508D01*
X147559431Y-136059817D01*
X147716250Y-135987878D01*
X147867507Y-135888592D01*
X147989204Y-135784312D01*
X148051152Y-135725025D01*
X148292485Y-136120789D01*
X148352526Y-136219526D01*
X148407429Y-136310342D01*
X148455246Y-136389975D01*
X148494031Y-136455160D01*
X148521834Y-136502634D01*
X148536710Y-136529135D01*
X148538643Y-136533255D01*
X148527687Y-136546089D01*
X148493633Y-136569096D01*
X148440785Y-136600095D01*
X148373451Y-136636909D01*
X148295934Y-136677358D01*
X148212542Y-136719262D01*
X148127580Y-136760443D01*
X148045354Y-136798722D01*
X147970169Y-136831918D01*
X147906331Y-136857855D01*
X147875107Y-136869077D01*
X147697017Y-136919422D01*
X147513431Y-136952710D01*
X147316782Y-136970023D01*
X147147981Y-136973123D01*
X147057507Y-136971665D01*
X146970169Y-136968872D01*
X146893708Y-136965089D01*
X146835870Y-136960658D01*
X146817091Y-136958417D01*
X146632012Y-136920027D01*
X146443589Y-136859957D01*
X146260550Y-136781782D01*
X146091627Y-136689080D01*
X145988439Y-136618944D01*
X145818814Y-136474889D01*
X145661310Y-136306382D01*
X145518845Y-136117588D01*
X145394337Y-135912671D01*
X145290702Y-135695795D01*
X145232316Y-135539630D01*
X145165418Y-135295156D01*
X145120819Y-135036144D01*
X145098505Y-134768199D01*
X145098461Y-134496925D01*
X145120674Y-134227927D01*
X145165131Y-133966809D01*
X145231816Y-133719175D01*
X145236897Y-133703746D01*
X145320618Y-133487995D01*
X145422796Y-133291063D01*
X145546898Y-133107379D01*
X145696390Y-132931368D01*
X145754790Y-132871107D01*
X145936044Y-132706096D01*
X146122377Y-132569575D01*
X146316649Y-132460059D01*
X146521719Y-132376061D01*
X146740450Y-132316095D01*
X146867670Y-132292810D01*
X147079003Y-132272085D01*
X147289898Y-132275553D01*
X147289898Y-132275553D01*
G37*
X147289898Y-132275553D02*
X147503104Y-132303743D01*
X147721367Y-132357183D01*
X147947436Y-132436405D01*
X148184058Y-132541936D01*
X148199060Y-132549318D01*
X148275872Y-132586630D01*
X148344500Y-132618685D01*
X148399937Y-132643246D01*
X148437176Y-132658072D01*
X148449918Y-132661464D01*
X148475503Y-132668131D01*
X148481643Y-132673731D01*
X148474848Y-132687621D01*
X148453493Y-132722620D01*
X148420036Y-132775060D01*
X148376934Y-132841274D01*
X148326648Y-132917594D01*
X148271635Y-133000353D01*
X148214354Y-133085881D01*
X148157263Y-133170513D01*
X148102823Y-133250580D01*
X148053490Y-133322414D01*
X148011723Y-133382348D01*
X147979982Y-133426715D01*
X147960725Y-133451845D01*
X147958082Y-133454760D01*
X147944611Y-133448571D01*
X147914867Y-133425703D01*
X147874167Y-133390394D01*
X147853206Y-133371120D01*
X147724744Y-133270894D01*
X147582674Y-133197082D01*
X147428896Y-133150350D01*
X147265312Y-133131364D01*
X147172915Y-133132923D01*
X147011635Y-133155770D01*
X146866227Y-133203542D01*
X146736256Y-133276588D01*
X146621287Y-133375256D01*
X146520886Y-133499895D01*
X146434618Y-133650856D01*
X146384801Y-133766139D01*
X146326418Y-133946804D01*
X146283388Y-134143158D01*
X146255600Y-134350137D01*
X146242945Y-134562678D01*
X146245310Y-134775718D01*
X146262585Y-134984193D01*
X146294659Y-135183041D01*
X146341422Y-135367198D01*
X146402763Y-135531600D01*
X146424440Y-135577204D01*
X146515300Y-135729094D01*
X146622421Y-135857561D01*
X146744228Y-135961558D01*
X146879150Y-136040038D01*
X147025611Y-136091954D01*
X147182040Y-136116259D01*
X147237248Y-136118047D01*
X147399086Y-136103508D01*
X147559431Y-136059817D01*
X147716250Y-135987878D01*
X147867507Y-135888592D01*
X147989204Y-135784312D01*
X148051152Y-135725025D01*
X148292485Y-136120789D01*
X148352526Y-136219526D01*
X148407429Y-136310342D01*
X148455246Y-136389975D01*
X148494031Y-136455160D01*
X148521834Y-136502634D01*
X148536710Y-136529135D01*
X148538643Y-136533255D01*
X148527687Y-136546089D01*
X148493633Y-136569096D01*
X148440785Y-136600095D01*
X148373451Y-136636909D01*
X148295934Y-136677358D01*
X148212542Y-136719262D01*
X148127580Y-136760443D01*
X148045354Y-136798722D01*
X147970169Y-136831918D01*
X147906331Y-136857855D01*
X147875107Y-136869077D01*
X147697017Y-136919422D01*
X147513431Y-136952710D01*
X147316782Y-136970023D01*
X147147981Y-136973123D01*
X147057507Y-136971665D01*
X146970169Y-136968872D01*
X146893708Y-136965089D01*
X146835870Y-136960658D01*
X146817091Y-136958417D01*
X146632012Y-136920027D01*
X146443589Y-136859957D01*
X146260550Y-136781782D01*
X146091627Y-136689080D01*
X145988439Y-136618944D01*
X145818814Y-136474889D01*
X145661310Y-136306382D01*
X145518845Y-136117588D01*
X145394337Y-135912671D01*
X145290702Y-135695795D01*
X145232316Y-135539630D01*
X145165418Y-135295156D01*
X145120819Y-135036144D01*
X145098505Y-134768199D01*
X145098461Y-134496925D01*
X145120674Y-134227927D01*
X145165131Y-133966809D01*
X145231816Y-133719175D01*
X145236897Y-133703746D01*
X145320618Y-133487995D01*
X145422796Y-133291063D01*
X145546898Y-133107379D01*
X145696390Y-132931368D01*
X145754790Y-132871107D01*
X145936044Y-132706096D01*
X146122377Y-132569575D01*
X146316649Y-132460059D01*
X146521719Y-132376061D01*
X146740450Y-132316095D01*
X146867670Y-132292810D01*
X147079003Y-132272085D01*
X147289898Y-132275553D01*
G36*
X150412132Y-133497051D02*
X150614390Y-133523698D01*
X150794476Y-133568478D01*
X150953551Y-133631749D01*
X151092778Y-133713867D01*
X151196105Y-133798489D01*
X151287756Y-133897188D01*
X151359306Y-134003393D01*
X151416426Y-134126172D01*
X151437028Y-134183513D01*
X151454148Y-134235411D01*
X151469062Y-134283535D01*
X151481942Y-134330326D01*
X151492960Y-134378224D01*
X151502290Y-134429667D01*
X151510103Y-134487096D01*
X151516572Y-134552950D01*
X151521870Y-134629669D01*
X151526170Y-134719692D01*
X151529643Y-134825460D01*
X151532463Y-134949411D01*
X151534802Y-135093986D01*
X151536833Y-135261624D01*
X151538728Y-135454765D01*
X151540395Y-135644837D01*
X151542161Y-135852783D01*
X151543766Y-136032877D01*
X151545377Y-136187324D01*
X151547160Y-136318329D01*
X151549283Y-136428097D01*
X151551912Y-136518833D01*
X151555216Y-136592742D01*
X151559359Y-136652030D01*
X151564510Y-136698902D01*
X151570836Y-136735563D01*
X151578503Y-136764217D01*
X151587678Y-136787070D01*
X151598528Y-136806328D01*
X151611221Y-136824195D01*
X151625923Y-136842876D01*
X151631649Y-136850109D01*
X151652710Y-136880516D01*
X151662078Y-136901222D01*
X151662108Y-136901834D01*
X151647626Y-136904762D01*
X151606373Y-136907458D01*
X151541637Y-136909849D01*
X151456704Y-136911858D01*
X151354863Y-136913409D01*
X151239400Y-136914426D01*
X151113604Y-136914833D01*
X151099083Y-136914837D01*
X150536059Y-136914837D01*
X150531716Y-136786938D01*
X150527374Y-136659038D01*
X150444711Y-136726921D01*
X150315130Y-136816806D01*
X150168812Y-136889621D01*
X150053696Y-136929867D01*
X149961738Y-136949422D01*
X149850766Y-136962727D01*
X149731255Y-136969365D01*
X149613677Y-136968923D01*
X149508507Y-136960985D01*
X149460273Y-136953378D01*
X149273858Y-136902970D01*
X149105540Y-136829954D01*
X148956536Y-136735417D01*
X148828064Y-136620445D01*
X148721339Y-136486126D01*
X148637580Y-136333547D01*
X148578500Y-136165674D01*
X148562078Y-136090341D01*
X148551947Y-136007531D01*
X148547116Y-135907895D01*
X148546457Y-135862766D01*
X148546544Y-135858526D01*
X149558296Y-135858526D01*
X149570669Y-135958447D01*
X149608196Y-136043423D01*
X149672725Y-136117497D01*
X149679458Y-136123372D01*
X149743755Y-136169739D01*
X149812598Y-136199804D01*
X149893454Y-136215675D01*
X149993789Y-136219460D01*
X150017897Y-136218920D01*
X150089549Y-136215389D01*
X150142843Y-136208178D01*
X150189463Y-136194646D01*
X150241092Y-136172152D01*
X150255260Y-136165258D01*
X150336008Y-136117558D01*
X150398341Y-136060799D01*
X150415299Y-136040511D01*
X150474770Y-135965274D01*
X150474770Y-135704493D01*
X150474057Y-135599786D01*
X150471807Y-135522632D01*
X150467855Y-135470558D01*
X150462036Y-135441089D01*
X150456598Y-135432480D01*
X150435395Y-135428268D01*
X150390418Y-135424777D01*
X150327945Y-135422336D01*
X150254259Y-135421274D01*
X150242426Y-135421254D01*
X150081630Y-135428249D01*
X149944939Y-135449773D01*
X149829705Y-135486649D01*
X149733281Y-135539700D01*
X149660149Y-135602207D01*
X149600841Y-135679275D01*
X149567925Y-135763215D01*
X149558296Y-135858526D01*
X148546544Y-135858526D01*
X148549031Y-135737944D01*
X148560141Y-135632901D01*
X148581769Y-135538078D01*
X148615901Y-135443917D01*
X148647849Y-135374191D01*
X148725892Y-135247316D01*
X148829867Y-135130122D01*
X148956610Y-135024742D01*
X149102958Y-134933308D01*
X149265746Y-134857954D01*
X149441811Y-134800812D01*
X149527906Y-134780922D01*
X149709214Y-134751493D01*
X149906848Y-134732077D01*
X150108490Y-134723582D01*
X150276986Y-134725755D01*
X150492515Y-134734780D01*
X150482637Y-134656258D01*
X150456951Y-134524250D01*
X150415501Y-134416782D01*
X150357141Y-134333032D01*
X150280723Y-134272175D01*
X150185101Y-134233388D01*
X150069130Y-134215846D01*
X149931661Y-134218727D01*
X149881102Y-134224054D01*
X149693126Y-134257562D01*
X149510978Y-134312193D01*
X149385125Y-134362786D01*
X149325001Y-134388581D01*
X149273834Y-134409311D01*
X149238751Y-134422151D01*
X149228515Y-134424877D01*
X149215542Y-134412790D01*
X149193283Y-134374222D01*
X149161530Y-134308735D01*
X149120072Y-134215896D01*
X149068701Y-134095267D01*
X149059917Y-134074245D01*
X149019901Y-133977965D01*
X148983981Y-133890965D01*
X148953709Y-133817049D01*
X148930636Y-133760021D01*
X148916314Y-133723687D01*
X148912178Y-133711919D01*
X148925490Y-133705589D01*
X148960473Y-133698563D01*
X148998114Y-133693665D01*
X149038263Y-133687332D01*
X149101886Y-133674757D01*
X149183337Y-133657172D01*
X149276976Y-133635810D01*
X149377160Y-133611905D01*
X149415185Y-133602555D01*
X149555059Y-133568488D01*
X149671771Y-133541778D01*
X149771075Y-133521571D01*
X149858725Y-133507014D01*
X149940476Y-133497253D01*
X150022081Y-133491436D01*
X150109296Y-133488710D01*
X150186538Y-133488180D01*
X150412132Y-133497051D01*
X150412132Y-133497051D01*
G37*
X150412132Y-133497051D02*
X150614390Y-133523698D01*
X150794476Y-133568478D01*
X150953551Y-133631749D01*
X151092778Y-133713867D01*
X151196105Y-133798489D01*
X151287756Y-133897188D01*
X151359306Y-134003393D01*
X151416426Y-134126172D01*
X151437028Y-134183513D01*
X151454148Y-134235411D01*
X151469062Y-134283535D01*
X151481942Y-134330326D01*
X151492960Y-134378224D01*
X151502290Y-134429667D01*
X151510103Y-134487096D01*
X151516572Y-134552950D01*
X151521870Y-134629669D01*
X151526170Y-134719692D01*
X151529643Y-134825460D01*
X151532463Y-134949411D01*
X151534802Y-135093986D01*
X151536833Y-135261624D01*
X151538728Y-135454765D01*
X151540395Y-135644837D01*
X151542161Y-135852783D01*
X151543766Y-136032877D01*
X151545377Y-136187324D01*
X151547160Y-136318329D01*
X151549283Y-136428097D01*
X151551912Y-136518833D01*
X151555216Y-136592742D01*
X151559359Y-136652030D01*
X151564510Y-136698902D01*
X151570836Y-136735563D01*
X151578503Y-136764217D01*
X151587678Y-136787070D01*
X151598528Y-136806328D01*
X151611221Y-136824195D01*
X151625923Y-136842876D01*
X151631649Y-136850109D01*
X151652710Y-136880516D01*
X151662078Y-136901222D01*
X151662108Y-136901834D01*
X151647626Y-136904762D01*
X151606373Y-136907458D01*
X151541637Y-136909849D01*
X151456704Y-136911858D01*
X151354863Y-136913409D01*
X151239400Y-136914426D01*
X151113604Y-136914833D01*
X151099083Y-136914837D01*
X150536059Y-136914837D01*
X150531716Y-136786938D01*
X150527374Y-136659038D01*
X150444711Y-136726921D01*
X150315130Y-136816806D01*
X150168812Y-136889621D01*
X150053696Y-136929867D01*
X149961738Y-136949422D01*
X149850766Y-136962727D01*
X149731255Y-136969365D01*
X149613677Y-136968923D01*
X149508507Y-136960985D01*
X149460273Y-136953378D01*
X149273858Y-136902970D01*
X149105540Y-136829954D01*
X148956536Y-136735417D01*
X148828064Y-136620445D01*
X148721339Y-136486126D01*
X148637580Y-136333547D01*
X148578500Y-136165674D01*
X148562078Y-136090341D01*
X148551947Y-136007531D01*
X148547116Y-135907895D01*
X148546457Y-135862766D01*
X148546544Y-135858526D01*
X149558296Y-135858526D01*
X149570669Y-135958447D01*
X149608196Y-136043423D01*
X149672725Y-136117497D01*
X149679458Y-136123372D01*
X149743755Y-136169739D01*
X149812598Y-136199804D01*
X149893454Y-136215675D01*
X149993789Y-136219460D01*
X150017897Y-136218920D01*
X150089549Y-136215389D01*
X150142843Y-136208178D01*
X150189463Y-136194646D01*
X150241092Y-136172152D01*
X150255260Y-136165258D01*
X150336008Y-136117558D01*
X150398341Y-136060799D01*
X150415299Y-136040511D01*
X150474770Y-135965274D01*
X150474770Y-135704493D01*
X150474057Y-135599786D01*
X150471807Y-135522632D01*
X150467855Y-135470558D01*
X150462036Y-135441089D01*
X150456598Y-135432480D01*
X150435395Y-135428268D01*
X150390418Y-135424777D01*
X150327945Y-135422336D01*
X150254259Y-135421274D01*
X150242426Y-135421254D01*
X150081630Y-135428249D01*
X149944939Y-135449773D01*
X149829705Y-135486649D01*
X149733281Y-135539700D01*
X149660149Y-135602207D01*
X149600841Y-135679275D01*
X149567925Y-135763215D01*
X149558296Y-135858526D01*
X148546544Y-135858526D01*
X148549031Y-135737944D01*
X148560141Y-135632901D01*
X148581769Y-135538078D01*
X148615901Y-135443917D01*
X148647849Y-135374191D01*
X148725892Y-135247316D01*
X148829867Y-135130122D01*
X148956610Y-135024742D01*
X149102958Y-134933308D01*
X149265746Y-134857954D01*
X149441811Y-134800812D01*
X149527906Y-134780922D01*
X149709214Y-134751493D01*
X149906848Y-134732077D01*
X150108490Y-134723582D01*
X150276986Y-134725755D01*
X150492515Y-134734780D01*
X150482637Y-134656258D01*
X150456951Y-134524250D01*
X150415501Y-134416782D01*
X150357141Y-134333032D01*
X150280723Y-134272175D01*
X150185101Y-134233388D01*
X150069130Y-134215846D01*
X149931661Y-134218727D01*
X149881102Y-134224054D01*
X149693126Y-134257562D01*
X149510978Y-134312193D01*
X149385125Y-134362786D01*
X149325001Y-134388581D01*
X149273834Y-134409311D01*
X149238751Y-134422151D01*
X149228515Y-134424877D01*
X149215542Y-134412790D01*
X149193283Y-134374222D01*
X149161530Y-134308735D01*
X149120072Y-134215896D01*
X149068701Y-134095267D01*
X149059917Y-134074245D01*
X149019901Y-133977965D01*
X148983981Y-133890965D01*
X148953709Y-133817049D01*
X148930636Y-133760021D01*
X148916314Y-133723687D01*
X148912178Y-133711919D01*
X148925490Y-133705589D01*
X148960473Y-133698563D01*
X148998114Y-133693665D01*
X149038263Y-133687332D01*
X149101886Y-133674757D01*
X149183337Y-133657172D01*
X149276976Y-133635810D01*
X149377160Y-133611905D01*
X149415185Y-133602555D01*
X149555059Y-133568488D01*
X149671771Y-133541778D01*
X149771075Y-133521571D01*
X149858725Y-133507014D01*
X149940476Y-133497253D01*
X150022081Y-133491436D01*
X150109296Y-133488710D01*
X150186538Y-133488180D01*
X150412132Y-133497051D01*
G36*
X155089114Y-134303447D02*
X155089140Y-134615541D01*
X155089175Y-134899042D01*
X155089271Y-135155416D01*
X155089481Y-135386128D01*
X155089856Y-135592645D01*
X155090449Y-135776431D01*
X155091310Y-135938954D01*
X155092493Y-136081678D01*
X155094048Y-136206070D01*
X155096029Y-136313595D01*
X155098486Y-136405720D01*
X155101473Y-136483910D01*
X155105040Y-136549631D01*
X155109239Y-136604349D01*
X155114124Y-136649529D01*
X155119744Y-136686638D01*
X155126153Y-136717142D01*
X155133403Y-136742506D01*
X155141545Y-136764195D01*
X155150630Y-136783677D01*
X155160713Y-136802417D01*
X155171843Y-136821880D01*
X155178757Y-136834004D01*
X155224376Y-136914837D01*
X154081871Y-136914837D01*
X154081871Y-136787086D01*
X154080897Y-136729353D01*
X154078298Y-136685199D01*
X154074558Y-136661526D01*
X154072905Y-136659334D01*
X154057698Y-136668499D01*
X154027457Y-136692255D01*
X153997235Y-136718049D01*
X153924564Y-136772281D01*
X153832063Y-136826872D01*
X153729479Y-136876805D01*
X153626559Y-136917067D01*
X153585483Y-136929913D01*
X153494289Y-136949305D01*
X153383983Y-136962567D01*
X153264969Y-136969282D01*
X153147645Y-136969033D01*
X153042413Y-136961404D01*
X152992226Y-136953672D01*
X152808370Y-136902998D01*
X152638885Y-136826147D01*
X152484686Y-136723817D01*
X152346684Y-136596708D01*
X152225791Y-136445520D01*
X152136854Y-136298007D01*
X152063805Y-136142563D01*
X152007888Y-135983666D01*
X151967951Y-135815923D01*
X151942847Y-135633941D01*
X151931426Y-135432325D01*
X151930459Y-135329216D01*
X151933247Y-135253625D01*
X153037100Y-135253625D01*
X153037377Y-135377532D01*
X153041255Y-135494279D01*
X153048794Y-135596900D01*
X153060051Y-135678429D01*
X153063491Y-135694859D01*
X153105829Y-135837692D01*
X153161292Y-135953553D01*
X153230343Y-136042734D01*
X153313444Y-136105524D01*
X153411058Y-136142217D01*
X153523650Y-136153101D01*
X153651681Y-136138470D01*
X153736191Y-136117538D01*
X153801618Y-136093321D01*
X153873683Y-136058908D01*
X153927818Y-136027352D01*
X154021753Y-135965620D01*
X154021753Y-134434300D01*
X153932009Y-134376296D01*
X153827463Y-134321813D01*
X153715382Y-134286331D01*
X153602051Y-134270456D01*
X153493757Y-134274792D01*
X153396785Y-134299945D01*
X153354243Y-134320673D01*
X153277125Y-134377918D01*
X153211945Y-134453502D01*
X153157153Y-134550188D01*
X153111201Y-134670738D01*
X153072537Y-134817913D01*
X153070831Y-134825725D01*
X153057290Y-134908607D01*
X153047116Y-135012196D01*
X153040366Y-135129524D01*
X153037100Y-135253625D01*
X151933247Y-135253625D01*
X151940912Y-135045881D01*
X151970128Y-134785153D01*
X152018036Y-134547203D01*
X152084568Y-134332204D01*
X152169655Y-134140330D01*
X152273227Y-133971754D01*
X152395215Y-133826648D01*
X152535551Y-133705185D01*
X152595681Y-133663978D01*
X152730081Y-133589225D01*
X152867597Y-133536489D01*
X153014164Y-133504323D01*
X153175713Y-133491283D01*
X153298871Y-133492675D01*
X153471488Y-133507275D01*
X153621391Y-133536319D01*
X153752918Y-133581143D01*
X153870405Y-133643080D01*
X153935463Y-133688629D01*
X153974560Y-133717805D01*
X154003438Y-133737736D01*
X154014368Y-133743595D01*
X154016518Y-133729177D01*
X154018236Y-133688367D01*
X154019540Y-133624827D01*
X154020445Y-133542220D01*
X154020968Y-133444210D01*
X154021127Y-133334459D01*
X154020938Y-133216631D01*
X154020418Y-133094387D01*
X154019584Y-132971393D01*
X154018452Y-132851310D01*
X154017039Y-132737801D01*
X154015363Y-132634530D01*
X154013440Y-132545160D01*
X154011286Y-132473353D01*
X154008920Y-132422773D01*
X154008265Y-132413476D01*
X153998177Y-132319727D01*
X153982785Y-132246304D01*
X153959168Y-132183569D01*
X153924407Y-132121882D01*
X153916063Y-132109127D01*
X153883535Y-132060281D01*
X155088853Y-132060281D01*
X155089114Y-134303447D01*
X155089114Y-134303447D01*
G37*
X155089114Y-134303447D02*
X155089140Y-134615541D01*
X155089175Y-134899042D01*
X155089271Y-135155416D01*
X155089481Y-135386128D01*
X155089856Y-135592645D01*
X155090449Y-135776431D01*
X155091310Y-135938954D01*
X155092493Y-136081678D01*
X155094048Y-136206070D01*
X155096029Y-136313595D01*
X155098486Y-136405720D01*
X155101473Y-136483910D01*
X155105040Y-136549631D01*
X155109239Y-136604349D01*
X155114124Y-136649529D01*
X155119744Y-136686638D01*
X155126153Y-136717142D01*
X155133403Y-136742506D01*
X155141545Y-136764195D01*
X155150630Y-136783677D01*
X155160713Y-136802417D01*
X155171843Y-136821880D01*
X155178757Y-136834004D01*
X155224376Y-136914837D01*
X154081871Y-136914837D01*
X154081871Y-136787086D01*
X154080897Y-136729353D01*
X154078298Y-136685199D01*
X154074558Y-136661526D01*
X154072905Y-136659334D01*
X154057698Y-136668499D01*
X154027457Y-136692255D01*
X153997235Y-136718049D01*
X153924564Y-136772281D01*
X153832063Y-136826872D01*
X153729479Y-136876805D01*
X153626559Y-136917067D01*
X153585483Y-136929913D01*
X153494289Y-136949305D01*
X153383983Y-136962567D01*
X153264969Y-136969282D01*
X153147645Y-136969033D01*
X153042413Y-136961404D01*
X152992226Y-136953672D01*
X152808370Y-136902998D01*
X152638885Y-136826147D01*
X152484686Y-136723817D01*
X152346684Y-136596708D01*
X152225791Y-136445520D01*
X152136854Y-136298007D01*
X152063805Y-136142563D01*
X152007888Y-135983666D01*
X151967951Y-135815923D01*
X151942847Y-135633941D01*
X151931426Y-135432325D01*
X151930459Y-135329216D01*
X151933247Y-135253625D01*
X153037100Y-135253625D01*
X153037377Y-135377532D01*
X153041255Y-135494279D01*
X153048794Y-135596900D01*
X153060051Y-135678429D01*
X153063491Y-135694859D01*
X153105829Y-135837692D01*
X153161292Y-135953553D01*
X153230343Y-136042734D01*
X153313444Y-136105524D01*
X153411058Y-136142217D01*
X153523650Y-136153101D01*
X153651681Y-136138470D01*
X153736191Y-136117538D01*
X153801618Y-136093321D01*
X153873683Y-136058908D01*
X153927818Y-136027352D01*
X154021753Y-135965620D01*
X154021753Y-134434300D01*
X153932009Y-134376296D01*
X153827463Y-134321813D01*
X153715382Y-134286331D01*
X153602051Y-134270456D01*
X153493757Y-134274792D01*
X153396785Y-134299945D01*
X153354243Y-134320673D01*
X153277125Y-134377918D01*
X153211945Y-134453502D01*
X153157153Y-134550188D01*
X153111201Y-134670738D01*
X153072537Y-134817913D01*
X153070831Y-134825725D01*
X153057290Y-134908607D01*
X153047116Y-135012196D01*
X153040366Y-135129524D01*
X153037100Y-135253625D01*
X151933247Y-135253625D01*
X151940912Y-135045881D01*
X151970128Y-134785153D01*
X152018036Y-134547203D01*
X152084568Y-134332204D01*
X152169655Y-134140330D01*
X152273227Y-133971754D01*
X152395215Y-133826648D01*
X152535551Y-133705185D01*
X152595681Y-133663978D01*
X152730081Y-133589225D01*
X152867597Y-133536489D01*
X153014164Y-133504323D01*
X153175713Y-133491283D01*
X153298871Y-133492675D01*
X153471488Y-133507275D01*
X153621391Y-133536319D01*
X153752918Y-133581143D01*
X153870405Y-133643080D01*
X153935463Y-133688629D01*
X153974560Y-133717805D01*
X154003438Y-133737736D01*
X154014368Y-133743595D01*
X154016518Y-133729177D01*
X154018236Y-133688367D01*
X154019540Y-133624827D01*
X154020445Y-133542220D01*
X154020968Y-133444210D01*
X154021127Y-133334459D01*
X154020938Y-133216631D01*
X154020418Y-133094387D01*
X154019584Y-132971393D01*
X154018452Y-132851310D01*
X154017039Y-132737801D01*
X154015363Y-132634530D01*
X154013440Y-132545160D01*
X154011286Y-132473353D01*
X154008920Y-132422773D01*
X154008265Y-132413476D01*
X153998177Y-132319727D01*
X153982785Y-132246304D01*
X153959168Y-132183569D01*
X153924407Y-132121882D01*
X153916063Y-132109127D01*
X153883535Y-132060281D01*
X155088853Y-132060281D01*
X155089114Y-134303447D01*
G36*
X143826400Y-131047373D02*
X143954577Y-131079642D01*
X144069851Y-131136667D01*
X144169451Y-131216252D01*
X144250605Y-131316205D01*
X144310542Y-131434331D01*
X144345506Y-131562555D01*
X144353296Y-131692049D01*
X144333520Y-131817009D01*
X144288652Y-131933979D01*
X144221168Y-132039502D01*
X144133542Y-132130122D01*
X144028247Y-132202383D01*
X143907758Y-132252828D01*
X143839505Y-132269368D01*
X143780262Y-132279382D01*
X143734594Y-132283339D01*
X143690712Y-132280910D01*
X143636826Y-132271764D01*
X143592763Y-132262478D01*
X143468392Y-132220527D01*
X143356993Y-132152463D01*
X143261075Y-132060349D01*
X143183144Y-131946250D01*
X143164573Y-131909985D01*
X143142689Y-131861567D01*
X143128965Y-131820908D01*
X143121555Y-131778129D01*
X143118613Y-131723352D01*
X143118243Y-131661997D01*
X143123683Y-131549686D01*
X143141544Y-131457451D01*
X143175081Y-131376738D01*
X143227550Y-131298994D01*
X143278871Y-131240062D01*
X143374586Y-131152435D01*
X143474562Y-131091948D01*
X143584733Y-131055733D01*
X143688091Y-131042053D01*
X143826400Y-131047373D01*
X143826400Y-131047373D01*
G37*
X143826400Y-131047373D02*
X143954577Y-131079642D01*
X144069851Y-131136667D01*
X144169451Y-131216252D01*
X144250605Y-131316205D01*
X144310542Y-131434331D01*
X144345506Y-131562555D01*
X144353296Y-131692049D01*
X144333520Y-131817009D01*
X144288652Y-131933979D01*
X144221168Y-132039502D01*
X144133542Y-132130122D01*
X144028247Y-132202383D01*
X143907758Y-132252828D01*
X143839505Y-132269368D01*
X143780262Y-132279382D01*
X143734594Y-132283339D01*
X143690712Y-132280910D01*
X143636826Y-132271764D01*
X143592763Y-132262478D01*
X143468392Y-132220527D01*
X143356993Y-132152463D01*
X143261075Y-132060349D01*
X143183144Y-131946250D01*
X143164573Y-131909985D01*
X143142689Y-131861567D01*
X143128965Y-131820908D01*
X143121555Y-131778129D01*
X143118613Y-131723352D01*
X143118243Y-131661997D01*
X143123683Y-131549686D01*
X143141544Y-131457451D01*
X143175081Y-131376738D01*
X143227550Y-131298994D01*
X143278871Y-131240062D01*
X143374586Y-131152435D01*
X143474562Y-131091948D01*
X143584733Y-131055733D01*
X143688091Y-131042053D01*
X143826400Y-131047373D01*
D11*
X91563700Y-113846000D02*
X89563700Y-113846000D01*
X89563700Y-111706000D02*
X91563700Y-111706000D01*
X91487500Y-117694100D02*
X89487500Y-117694100D01*
X89487500Y-115554100D02*
X91487500Y-115554100D01*
X91487500Y-121046900D02*
X89487500Y-121046900D01*
X89487500Y-118906900D02*
X91487500Y-118906900D01*
X119181500Y-110446100D02*
X118181500Y-110446100D01*
X118181500Y-109086100D02*
X119181500Y-109086100D01*
X119636160Y-91233540D02*
X118636160Y-91233540D01*
X118636160Y-89873540D02*
X119636160Y-89873540D01*
X119219600Y-101149700D02*
X118219600Y-101149700D01*
X118219600Y-99789700D02*
X119219600Y-99789700D01*
X118914800Y-129610400D02*
X117914800Y-129610400D01*
X117914800Y-128250400D02*
X118914800Y-128250400D01*
X119181500Y-119247200D02*
X118181500Y-119247200D01*
X118181500Y-117887200D02*
X119181500Y-117887200D01*
X119143400Y-114903800D02*
X118143400Y-114903800D01*
X118143400Y-113543800D02*
X119143400Y-113543800D01*
X119524400Y-96196700D02*
X118524400Y-96196700D01*
X118524400Y-94836700D02*
X119524400Y-94836700D01*
X119219600Y-105683600D02*
X118219600Y-105683600D01*
X118219600Y-104323600D02*
X119219600Y-104323600D01*
X118876700Y-134639600D02*
X117876700Y-134639600D01*
X117876700Y-133279600D02*
X118876700Y-133279600D01*
X118876700Y-124581200D02*
X117876700Y-124581200D01*
X117876700Y-123221200D02*
X118876700Y-123221200D01*
X119775860Y-81845700D02*
X118775860Y-81845700D01*
X118775860Y-80485700D02*
X119775860Y-80485700D01*
X119692040Y-86483740D02*
X118692040Y-86483740D01*
X118692040Y-85123740D02*
X119692040Y-85123740D01*
X141779200Y-120141000D02*
X141779200Y-116841000D01*
X141779200Y-116841000D02*
X136379200Y-116841000D01*
X141779200Y-120141000D02*
X136379200Y-120141000D01*
X141479480Y-130397520D02*
X141479480Y-127097520D01*
X141479480Y-127097520D02*
X136079480Y-127097520D01*
X141479480Y-130397520D02*
X136079480Y-130397520D01*
X141507420Y-82703940D02*
X141507420Y-79403940D01*
X141507420Y-79403940D02*
X136107420Y-79403940D01*
X141507420Y-82703940D02*
X136107420Y-82703940D01*
X141703000Y-101731080D02*
X141703000Y-98431080D01*
X141703000Y-98431080D02*
X136303000Y-98431080D01*
X141703000Y-101731080D02*
X136303000Y-101731080D01*
X141647120Y-92063840D02*
X141647120Y-88763840D01*
X141647120Y-88763840D02*
X136247120Y-88763840D01*
X141647120Y-92063840D02*
X136247120Y-92063840D01*
X141779200Y-111530400D02*
X141779200Y-108230400D01*
X141779200Y-108230400D02*
X136379200Y-108230400D01*
X141779200Y-111530400D02*
X136379200Y-111530400D01*
X112823200Y-120217200D02*
X112823200Y-116917200D01*
X112823200Y-116917200D02*
X107423200Y-116917200D01*
X112823200Y-120217200D02*
X107423200Y-120217200D01*
X106137500Y-127394700D02*
X106137500Y-130694700D01*
X106137500Y-130694700D02*
X111537500Y-130694700D01*
X106137500Y-127394700D02*
X111537500Y-127394700D01*
X112868920Y-82508360D02*
X112868920Y-79208360D01*
X112868920Y-79208360D02*
X107468920Y-79208360D01*
X112868920Y-82508360D02*
X107468920Y-82508360D01*
X112840980Y-102234000D02*
X112840980Y-98934000D01*
X112840980Y-98934000D02*
X107440980Y-98934000D01*
X112840980Y-102234000D02*
X107440980Y-102234000D01*
X113008620Y-92566760D02*
X113008620Y-89266760D01*
X113008620Y-89266760D02*
X107608620Y-89266760D01*
X113008620Y-92566760D02*
X107608620Y-92566760D01*
X113242300Y-111530400D02*
X113242300Y-108230400D01*
X113242300Y-108230400D02*
X107842300Y-108230400D01*
X113242300Y-111530400D02*
X107842300Y-111530400D01*
X93618260Y-89074260D02*
X93618260Y-85774260D01*
X93618260Y-85774260D02*
X88218260Y-85774260D01*
X93618260Y-89074260D02*
X88218260Y-89074260D01*
X93773200Y-109587300D02*
X93773200Y-106287300D01*
X93773200Y-106287300D02*
X88373200Y-106287300D01*
X93773200Y-109587300D02*
X88373200Y-109587300D01*
D12*
X96938200Y-115977000D02*
X96938200Y-116077000D01*
X101588200Y-115977000D02*
X101588200Y-116177000D01*
X101588200Y-119227000D02*
X101588200Y-119027000D01*
X96938200Y-119227000D02*
X96938200Y-119027000D01*
X96938200Y-115977000D02*
X101588200Y-115977000D01*
X96938200Y-119227000D02*
X101588200Y-119227000D01*
X96938200Y-116077000D02*
X95588200Y-116077000D01*
X71628167Y-74175881D02*
X71294833Y-73699690D01*
X71056738Y-74175881D02*
X71056738Y-73175881D01*
X71437691Y-73175881D01*
X71532929Y-73223500D01*
X71580548Y-73271119D01*
X71628167Y-73366357D01*
X71628167Y-73509214D01*
X71580548Y-73604452D01*
X71532929Y-73652071D01*
X71437691Y-73699690D01*
X71056738Y-73699690D01*
X72056738Y-73652071D02*
X72390072Y-73652071D01*
X72532929Y-74175881D02*
X72056738Y-74175881D01*
X72056738Y-73175881D01*
X72532929Y-73175881D01*
X73294834Y-73652071D02*
X72961500Y-73652071D01*
X72961500Y-74175881D02*
X72961500Y-73175881D01*
X73437691Y-73175881D01*
X73961500Y-73175881D02*
X73961500Y-73413976D01*
X73723405Y-73318738D02*
X73961500Y-73413976D01*
X74199596Y-73318738D01*
X73818643Y-73604452D02*
X73961500Y-73413976D01*
X74104358Y-73604452D01*
X74723405Y-73175881D02*
X74723405Y-73413976D01*
X74485310Y-73318738D02*
X74723405Y-73413976D01*
X74961501Y-73318738D01*
X74580548Y-73604452D02*
X74723405Y-73413976D01*
X74866263Y-73604452D01*
X99132094Y-100811663D02*
X99084475Y-100859282D01*
X98941618Y-100906901D01*
X98846380Y-100906901D01*
X98703522Y-100859282D01*
X98608284Y-100764044D01*
X98560665Y-100668806D01*
X98513046Y-100478330D01*
X98513046Y-100335472D01*
X98560665Y-100144996D01*
X98608284Y-100049758D01*
X98703522Y-99954520D01*
X98846380Y-99906901D01*
X98941618Y-99906901D01*
X99084475Y-99954520D01*
X99132094Y-100002139D01*
X100084475Y-100906901D02*
X99513046Y-100906901D01*
X99798760Y-100906901D02*
X99798760Y-99906901D01*
X99703522Y-100049758D01*
X99608284Y-100144996D01*
X99513046Y-100192615D01*
X90282734Y-122927443D02*
X90235115Y-122975062D01*
X90092258Y-123022681D01*
X89997020Y-123022681D01*
X89854162Y-122975062D01*
X89758924Y-122879824D01*
X89711305Y-122784586D01*
X89663686Y-122594110D01*
X89663686Y-122451252D01*
X89711305Y-122260776D01*
X89758924Y-122165538D01*
X89854162Y-122070300D01*
X89997020Y-122022681D01*
X90092258Y-122022681D01*
X90235115Y-122070300D01*
X90282734Y-122117919D01*
X90663686Y-122117919D02*
X90711305Y-122070300D01*
X90806543Y-122022681D01*
X91044639Y-122022681D01*
X91139877Y-122070300D01*
X91187496Y-122117919D01*
X91235115Y-122213157D01*
X91235115Y-122308395D01*
X91187496Y-122451252D01*
X90616067Y-123022681D01*
X91235115Y-123022681D01*
X99132094Y-95782463D02*
X99084475Y-95830082D01*
X98941618Y-95877701D01*
X98846380Y-95877701D01*
X98703522Y-95830082D01*
X98608284Y-95734844D01*
X98560665Y-95639606D01*
X98513046Y-95449130D01*
X98513046Y-95306272D01*
X98560665Y-95115796D01*
X98608284Y-95020558D01*
X98703522Y-94925320D01*
X98846380Y-94877701D01*
X98941618Y-94877701D01*
X99084475Y-94925320D01*
X99132094Y-94972939D01*
X99465427Y-94877701D02*
X100084475Y-94877701D01*
X99751141Y-95258653D01*
X99893999Y-95258653D01*
X99989237Y-95306272D01*
X100036856Y-95353891D01*
X100084475Y-95449130D01*
X100084475Y-95687225D01*
X100036856Y-95782463D01*
X99989237Y-95830082D01*
X99893999Y-95877701D01*
X99608284Y-95877701D01*
X99513046Y-95830082D01*
X99465427Y-95782463D01*
X99187974Y-106567303D02*
X99140355Y-106614922D01*
X98997498Y-106662541D01*
X98902260Y-106662541D01*
X98759402Y-106614922D01*
X98664164Y-106519684D01*
X98616545Y-106424446D01*
X98568926Y-106233970D01*
X98568926Y-106091112D01*
X98616545Y-105900636D01*
X98664164Y-105805398D01*
X98759402Y-105710160D01*
X98902260Y-105662541D01*
X98997498Y-105662541D01*
X99140355Y-105710160D01*
X99187974Y-105757779D01*
X100045117Y-105995874D02*
X100045117Y-106662541D01*
X99807021Y-105614922D02*
X99568926Y-106329208D01*
X100187974Y-106329208D01*
X90130334Y-104088143D02*
X90082715Y-104135762D01*
X89939858Y-104183381D01*
X89844620Y-104183381D01*
X89701762Y-104135762D01*
X89606524Y-104040524D01*
X89558905Y-103945286D01*
X89511286Y-103754810D01*
X89511286Y-103611952D01*
X89558905Y-103421476D01*
X89606524Y-103326238D01*
X89701762Y-103231000D01*
X89844620Y-103183381D01*
X89939858Y-103183381D01*
X90082715Y-103231000D01*
X90130334Y-103278619D01*
X91035096Y-103183381D02*
X90558905Y-103183381D01*
X90511286Y-103659571D01*
X90558905Y-103611952D01*
X90654143Y-103564333D01*
X90892239Y-103564333D01*
X90987477Y-103611952D01*
X91035096Y-103659571D01*
X91082715Y-103754810D01*
X91082715Y-103992905D01*
X91035096Y-104088143D01*
X90987477Y-104135762D01*
X90892239Y-104183381D01*
X90654143Y-104183381D01*
X90558905Y-104135762D01*
X90511286Y-104088143D01*
X89995714Y-94923823D02*
X89948095Y-94971442D01*
X89805238Y-95019061D01*
X89710000Y-95019061D01*
X89567142Y-94971442D01*
X89471904Y-94876204D01*
X89424285Y-94780966D01*
X89376666Y-94590490D01*
X89376666Y-94447632D01*
X89424285Y-94257156D01*
X89471904Y-94161918D01*
X89567142Y-94066680D01*
X89710000Y-94019061D01*
X89805238Y-94019061D01*
X89948095Y-94066680D01*
X89995714Y-94114299D01*
X90852857Y-94019061D02*
X90662380Y-94019061D01*
X90567142Y-94066680D01*
X90519523Y-94114299D01*
X90424285Y-94257156D01*
X90376666Y-94447632D01*
X90376666Y-94828585D01*
X90424285Y-94923823D01*
X90471904Y-94971442D01*
X90567142Y-95019061D01*
X90757619Y-95019061D01*
X90852857Y-94971442D01*
X90900476Y-94923823D01*
X90948095Y-94828585D01*
X90948095Y-94590490D01*
X90900476Y-94495251D01*
X90852857Y-94447632D01*
X90757619Y-94400013D01*
X90567142Y-94400013D01*
X90471904Y-94447632D01*
X90424285Y-94495251D01*
X90376666Y-94590490D01*
X89995714Y-99366283D02*
X89948095Y-99413902D01*
X89805238Y-99461521D01*
X89710000Y-99461521D01*
X89567142Y-99413902D01*
X89471904Y-99318664D01*
X89424285Y-99223426D01*
X89376666Y-99032950D01*
X89376666Y-98890092D01*
X89424285Y-98699616D01*
X89471904Y-98604378D01*
X89567142Y-98509140D01*
X89710000Y-98461521D01*
X89805238Y-98461521D01*
X89948095Y-98509140D01*
X89995714Y-98556759D01*
X90329047Y-98461521D02*
X90995714Y-98461521D01*
X90567142Y-99461521D01*
X109294634Y-116445243D02*
X109247015Y-116492862D01*
X109104158Y-116540481D01*
X109008920Y-116540481D01*
X108866062Y-116492862D01*
X108770824Y-116397624D01*
X108723205Y-116302386D01*
X108675586Y-116111910D01*
X108675586Y-115969052D01*
X108723205Y-115778576D01*
X108770824Y-115683338D01*
X108866062Y-115588100D01*
X109008920Y-115540481D01*
X109104158Y-115540481D01*
X109247015Y-115588100D01*
X109294634Y-115635719D01*
X109866062Y-115969052D02*
X109770824Y-115921433D01*
X109723205Y-115873814D01*
X109675586Y-115778576D01*
X109675586Y-115730957D01*
X109723205Y-115635719D01*
X109770824Y-115588100D01*
X109866062Y-115540481D01*
X110056539Y-115540481D01*
X110151777Y-115588100D01*
X110199396Y-115635719D01*
X110247015Y-115730957D01*
X110247015Y-115778576D01*
X110199396Y-115873814D01*
X110151777Y-115921433D01*
X110056539Y-115969052D01*
X109866062Y-115969052D01*
X109770824Y-116016671D01*
X109723205Y-116064290D01*
X109675586Y-116159529D01*
X109675586Y-116350005D01*
X109723205Y-116445243D01*
X109770824Y-116492862D01*
X109866062Y-116540481D01*
X110056539Y-116540481D01*
X110151777Y-116492862D01*
X110199396Y-116445243D01*
X110247015Y-116350005D01*
X110247015Y-116159529D01*
X110199396Y-116064290D01*
X110151777Y-116016671D01*
X110056539Y-115969052D01*
X109330194Y-97941343D02*
X109282575Y-97988962D01*
X109139718Y-98036581D01*
X109044480Y-98036581D01*
X108901622Y-97988962D01*
X108806384Y-97893724D01*
X108758765Y-97798486D01*
X108711146Y-97608010D01*
X108711146Y-97465152D01*
X108758765Y-97274676D01*
X108806384Y-97179438D01*
X108901622Y-97084200D01*
X109044480Y-97036581D01*
X109139718Y-97036581D01*
X109282575Y-97084200D01*
X109330194Y-97131819D01*
X109806384Y-98036581D02*
X109996860Y-98036581D01*
X110092099Y-97988962D01*
X110139718Y-97941343D01*
X110234956Y-97798486D01*
X110282575Y-97608010D01*
X110282575Y-97227057D01*
X110234956Y-97131819D01*
X110187337Y-97084200D01*
X110092099Y-97036581D01*
X109901622Y-97036581D01*
X109806384Y-97084200D01*
X109758765Y-97131819D01*
X109711146Y-97227057D01*
X109711146Y-97465152D01*
X109758765Y-97560390D01*
X109806384Y-97608010D01*
X109901622Y-97655629D01*
X110092099Y-97655629D01*
X110187337Y-97608010D01*
X110234956Y-97560390D01*
X110282575Y-97465152D01*
X109021643Y-103773303D02*
X108974024Y-103820922D01*
X108831167Y-103868541D01*
X108735929Y-103868541D01*
X108593071Y-103820922D01*
X108497833Y-103725684D01*
X108450214Y-103630446D01*
X108402595Y-103439970D01*
X108402595Y-103297112D01*
X108450214Y-103106636D01*
X108497833Y-103011398D01*
X108593071Y-102916160D01*
X108735929Y-102868541D01*
X108831167Y-102868541D01*
X108974024Y-102916160D01*
X109021643Y-102963779D01*
X109974024Y-103868541D02*
X109402595Y-103868541D01*
X109688309Y-103868541D02*
X109688309Y-102868541D01*
X109593071Y-103011398D01*
X109497833Y-103106636D01*
X109402595Y-103154255D01*
X110593071Y-102868541D02*
X110688310Y-102868541D01*
X110783548Y-102916160D01*
X110831167Y-102963779D01*
X110878786Y-103059017D01*
X110926405Y-103249493D01*
X110926405Y-103487589D01*
X110878786Y-103678065D01*
X110831167Y-103773303D01*
X110783548Y-103820922D01*
X110688310Y-103868541D01*
X110593071Y-103868541D01*
X110497833Y-103820922D01*
X110450214Y-103773303D01*
X110402595Y-103678065D01*
X110354976Y-103487589D01*
X110354976Y-103249493D01*
X110402595Y-103059017D01*
X110450214Y-102963779D01*
X110497833Y-102916160D01*
X110593071Y-102868541D01*
X109049583Y-84746163D02*
X109001964Y-84793782D01*
X108859107Y-84841401D01*
X108763869Y-84841401D01*
X108621011Y-84793782D01*
X108525773Y-84698544D01*
X108478154Y-84603306D01*
X108430535Y-84412830D01*
X108430535Y-84269972D01*
X108478154Y-84079496D01*
X108525773Y-83984258D01*
X108621011Y-83889020D01*
X108763869Y-83841401D01*
X108859107Y-83841401D01*
X109001964Y-83889020D01*
X109049583Y-83936639D01*
X110001964Y-84841401D02*
X109430535Y-84841401D01*
X109716249Y-84841401D02*
X109716249Y-83841401D01*
X109621011Y-83984258D01*
X109525773Y-84079496D01*
X109430535Y-84127115D01*
X110954345Y-84841401D02*
X110382916Y-84841401D01*
X110668630Y-84841401D02*
X110668630Y-83841401D01*
X110573392Y-83984258D01*
X110478154Y-84079496D01*
X110382916Y-84127115D01*
X108818443Y-132757243D02*
X108770824Y-132804862D01*
X108627967Y-132852481D01*
X108532729Y-132852481D01*
X108389871Y-132804862D01*
X108294633Y-132709624D01*
X108247014Y-132614386D01*
X108199395Y-132423910D01*
X108199395Y-132281052D01*
X108247014Y-132090576D01*
X108294633Y-131995338D01*
X108389871Y-131900100D01*
X108532729Y-131852481D01*
X108627967Y-131852481D01*
X108770824Y-131900100D01*
X108818443Y-131947719D01*
X109770824Y-132852481D02*
X109199395Y-132852481D01*
X109485109Y-132852481D02*
X109485109Y-131852481D01*
X109389871Y-131995338D01*
X109294633Y-132090576D01*
X109199395Y-132138195D01*
X110151776Y-131947719D02*
X110199395Y-131900100D01*
X110294633Y-131852481D01*
X110532729Y-131852481D01*
X110627967Y-131900100D01*
X110675586Y-131947719D01*
X110723205Y-132042957D01*
X110723205Y-132138195D01*
X110675586Y-132281052D01*
X110104157Y-132852481D01*
X110723205Y-132852481D01*
X108818443Y-126236943D02*
X108770824Y-126284562D01*
X108627967Y-126332181D01*
X108532729Y-126332181D01*
X108389871Y-126284562D01*
X108294633Y-126189324D01*
X108247014Y-126094086D01*
X108199395Y-125903610D01*
X108199395Y-125760752D01*
X108247014Y-125570276D01*
X108294633Y-125475038D01*
X108389871Y-125379800D01*
X108532729Y-125332181D01*
X108627967Y-125332181D01*
X108770824Y-125379800D01*
X108818443Y-125427419D01*
X109770824Y-126332181D02*
X109199395Y-126332181D01*
X109485109Y-126332181D02*
X109485109Y-125332181D01*
X109389871Y-125475038D01*
X109294633Y-125570276D01*
X109199395Y-125617895D01*
X110104157Y-125332181D02*
X110723205Y-125332181D01*
X110389871Y-125713133D01*
X110532729Y-125713133D01*
X110627967Y-125760752D01*
X110675586Y-125808371D01*
X110723205Y-125903610D01*
X110723205Y-126141705D01*
X110675586Y-126236943D01*
X110627967Y-126284562D01*
X110532729Y-126332181D01*
X110247014Y-126332181D01*
X110151776Y-126284562D01*
X110104157Y-126236943D01*
X127629683Y-108355463D02*
X127582064Y-108403082D01*
X127439207Y-108450701D01*
X127343969Y-108450701D01*
X127201111Y-108403082D01*
X127105873Y-108307844D01*
X127058254Y-108212606D01*
X127010635Y-108022130D01*
X127010635Y-107879272D01*
X127058254Y-107688796D01*
X127105873Y-107593558D01*
X127201111Y-107498320D01*
X127343969Y-107450701D01*
X127439207Y-107450701D01*
X127582064Y-107498320D01*
X127629683Y-107545939D01*
X128582064Y-108450701D02*
X128010635Y-108450701D01*
X128296349Y-108450701D02*
X128296349Y-107450701D01*
X128201111Y-107593558D01*
X128105873Y-107688796D01*
X128010635Y-107736415D01*
X129439207Y-107784034D02*
X129439207Y-108450701D01*
X129201111Y-107403082D02*
X128963016Y-108117368D01*
X129582064Y-108117368D01*
X127378223Y-89216563D02*
X127330604Y-89264182D01*
X127187747Y-89311801D01*
X127092509Y-89311801D01*
X126949651Y-89264182D01*
X126854413Y-89168944D01*
X126806794Y-89073706D01*
X126759175Y-88883230D01*
X126759175Y-88740372D01*
X126806794Y-88549896D01*
X126854413Y-88454658D01*
X126949651Y-88359420D01*
X127092509Y-88311801D01*
X127187747Y-88311801D01*
X127330604Y-88359420D01*
X127378223Y-88407039D01*
X128330604Y-89311801D02*
X127759175Y-89311801D01*
X128044889Y-89311801D02*
X128044889Y-88311801D01*
X127949651Y-88454658D01*
X127854413Y-88549896D01*
X127759175Y-88597515D01*
X129235366Y-88311801D02*
X128759175Y-88311801D01*
X128711556Y-88787991D01*
X128759175Y-88740372D01*
X128854413Y-88692753D01*
X129092509Y-88692753D01*
X129187747Y-88740372D01*
X129235366Y-88787991D01*
X129282985Y-88883230D01*
X129282985Y-89121325D01*
X129235366Y-89216563D01*
X129187747Y-89264182D01*
X129092509Y-89311801D01*
X128854413Y-89311801D01*
X128759175Y-89264182D01*
X128711556Y-89216563D01*
X127629683Y-98967623D02*
X127582064Y-99015242D01*
X127439207Y-99062861D01*
X127343969Y-99062861D01*
X127201111Y-99015242D01*
X127105873Y-98920004D01*
X127058254Y-98824766D01*
X127010635Y-98634290D01*
X127010635Y-98491432D01*
X127058254Y-98300956D01*
X127105873Y-98205718D01*
X127201111Y-98110480D01*
X127343969Y-98062861D01*
X127439207Y-98062861D01*
X127582064Y-98110480D01*
X127629683Y-98158099D01*
X128582064Y-99062861D02*
X128010635Y-99062861D01*
X128296349Y-99062861D02*
X128296349Y-98062861D01*
X128201111Y-98205718D01*
X128105873Y-98300956D01*
X128010635Y-98348575D01*
X129439207Y-98062861D02*
X129248730Y-98062861D01*
X129153492Y-98110480D01*
X129105873Y-98158099D01*
X129010635Y-98300956D01*
X128963016Y-98491432D01*
X128963016Y-98872385D01*
X129010635Y-98967623D01*
X129058254Y-99015242D01*
X129153492Y-99062861D01*
X129343969Y-99062861D01*
X129439207Y-99015242D01*
X129486826Y-98967623D01*
X129534445Y-98872385D01*
X129534445Y-98634290D01*
X129486826Y-98539051D01*
X129439207Y-98491432D01*
X129343969Y-98443813D01*
X129153492Y-98443813D01*
X129058254Y-98491432D01*
X129010635Y-98539051D01*
X128963016Y-98634290D01*
X127462043Y-79772843D02*
X127414424Y-79820462D01*
X127271567Y-79868081D01*
X127176329Y-79868081D01*
X127033471Y-79820462D01*
X126938233Y-79725224D01*
X126890614Y-79629986D01*
X126842995Y-79439510D01*
X126842995Y-79296652D01*
X126890614Y-79106176D01*
X126938233Y-79010938D01*
X127033471Y-78915700D01*
X127176329Y-78868081D01*
X127271567Y-78868081D01*
X127414424Y-78915700D01*
X127462043Y-78963319D01*
X128414424Y-79868081D02*
X127842995Y-79868081D01*
X128128709Y-79868081D02*
X128128709Y-78868081D01*
X128033471Y-79010938D01*
X127938233Y-79106176D01*
X127842995Y-79153795D01*
X128747757Y-78868081D02*
X129414424Y-78868081D01*
X128985852Y-79868081D01*
X127677943Y-132566743D02*
X127630324Y-132614362D01*
X127487467Y-132661981D01*
X127392229Y-132661981D01*
X127249371Y-132614362D01*
X127154133Y-132519124D01*
X127106514Y-132423886D01*
X127058895Y-132233410D01*
X127058895Y-132090552D01*
X127106514Y-131900076D01*
X127154133Y-131804838D01*
X127249371Y-131709600D01*
X127392229Y-131661981D01*
X127487467Y-131661981D01*
X127630324Y-131709600D01*
X127677943Y-131757219D01*
X128630324Y-132661981D02*
X128058895Y-132661981D01*
X128344609Y-132661981D02*
X128344609Y-131661981D01*
X128249371Y-131804838D01*
X128154133Y-131900076D01*
X128058895Y-131947695D01*
X129201752Y-132090552D02*
X129106514Y-132042933D01*
X129058895Y-131995314D01*
X129011276Y-131900076D01*
X129011276Y-131852457D01*
X129058895Y-131757219D01*
X129106514Y-131709600D01*
X129201752Y-131661981D01*
X129392229Y-131661981D01*
X129487467Y-131709600D01*
X129535086Y-131757219D01*
X129582705Y-131852457D01*
X129582705Y-131900076D01*
X129535086Y-131995314D01*
X129487467Y-132042933D01*
X129392229Y-132090552D01*
X129201752Y-132090552D01*
X129106514Y-132138171D01*
X129058895Y-132185790D01*
X129011276Y-132281029D01*
X129011276Y-132471505D01*
X129058895Y-132566743D01*
X129106514Y-132614362D01*
X129201752Y-132661981D01*
X129392229Y-132661981D01*
X129487467Y-132614362D01*
X129535086Y-132566743D01*
X129582705Y-132471505D01*
X129582705Y-132281029D01*
X129535086Y-132185790D01*
X129487467Y-132138171D01*
X129392229Y-132090552D01*
X127830343Y-122508343D02*
X127782724Y-122555962D01*
X127639867Y-122603581D01*
X127544629Y-122603581D01*
X127401771Y-122555962D01*
X127306533Y-122460724D01*
X127258914Y-122365486D01*
X127211295Y-122175010D01*
X127211295Y-122032152D01*
X127258914Y-121841676D01*
X127306533Y-121746438D01*
X127401771Y-121651200D01*
X127544629Y-121603581D01*
X127639867Y-121603581D01*
X127782724Y-121651200D01*
X127830343Y-121698819D01*
X128782724Y-122603581D02*
X128211295Y-122603581D01*
X128497009Y-122603581D02*
X128497009Y-121603581D01*
X128401771Y-121746438D01*
X128306533Y-121841676D01*
X128211295Y-121889295D01*
X129258914Y-122603581D02*
X129449390Y-122603581D01*
X129544629Y-122555962D01*
X129592248Y-122508343D01*
X129687486Y-122365486D01*
X129735105Y-122175010D01*
X129735105Y-121794057D01*
X129687486Y-121698819D01*
X129639867Y-121651200D01*
X129544629Y-121603581D01*
X129354152Y-121603581D01*
X129258914Y-121651200D01*
X129211295Y-121698819D01*
X129163676Y-121794057D01*
X129163676Y-122032152D01*
X129211295Y-122127390D01*
X129258914Y-122175010D01*
X129354152Y-122222629D01*
X129544629Y-122222629D01*
X129639867Y-122175010D01*
X129687486Y-122127390D01*
X129735105Y-122032152D01*
X127685563Y-112825863D02*
X127637944Y-112873482D01*
X127495087Y-112921101D01*
X127399849Y-112921101D01*
X127256991Y-112873482D01*
X127161753Y-112778244D01*
X127114134Y-112683006D01*
X127066515Y-112492530D01*
X127066515Y-112349672D01*
X127114134Y-112159196D01*
X127161753Y-112063958D01*
X127256991Y-111968720D01*
X127399849Y-111921101D01*
X127495087Y-111921101D01*
X127637944Y-111968720D01*
X127685563Y-112016339D01*
X128066515Y-112016339D02*
X128114134Y-111968720D01*
X128209372Y-111921101D01*
X128447468Y-111921101D01*
X128542706Y-111968720D01*
X128590325Y-112016339D01*
X128637944Y-112111577D01*
X128637944Y-112206815D01*
X128590325Y-112349672D01*
X128018896Y-112921101D01*
X128637944Y-112921101D01*
X129256991Y-111921101D02*
X129352230Y-111921101D01*
X129447468Y-111968720D01*
X129495087Y-112016339D01*
X129542706Y-112111577D01*
X129590325Y-112302053D01*
X129590325Y-112540149D01*
X129542706Y-112730625D01*
X129495087Y-112825863D01*
X129447468Y-112873482D01*
X129352230Y-112921101D01*
X129256991Y-112921101D01*
X129161753Y-112873482D01*
X129114134Y-112825863D01*
X129066515Y-112730625D01*
X129018896Y-112540149D01*
X129018896Y-112302053D01*
X129066515Y-112111577D01*
X129114134Y-112016339D01*
X129161753Y-111968720D01*
X129256991Y-111921101D01*
X127489983Y-94134003D02*
X127442364Y-94181622D01*
X127299507Y-94229241D01*
X127204269Y-94229241D01*
X127061411Y-94181622D01*
X126966173Y-94086384D01*
X126918554Y-93991146D01*
X126870935Y-93800670D01*
X126870935Y-93657812D01*
X126918554Y-93467336D01*
X126966173Y-93372098D01*
X127061411Y-93276860D01*
X127204269Y-93229241D01*
X127299507Y-93229241D01*
X127442364Y-93276860D01*
X127489983Y-93324479D01*
X127870935Y-93324479D02*
X127918554Y-93276860D01*
X128013792Y-93229241D01*
X128251888Y-93229241D01*
X128347126Y-93276860D01*
X128394745Y-93324479D01*
X128442364Y-93419717D01*
X128442364Y-93514955D01*
X128394745Y-93657812D01*
X127823316Y-94229241D01*
X128442364Y-94229241D01*
X129394745Y-94229241D02*
X128823316Y-94229241D01*
X129109030Y-94229241D02*
X129109030Y-93229241D01*
X129013792Y-93372098D01*
X128918554Y-93467336D01*
X128823316Y-93514955D01*
X127629683Y-103605663D02*
X127582064Y-103653282D01*
X127439207Y-103700901D01*
X127343969Y-103700901D01*
X127201111Y-103653282D01*
X127105873Y-103558044D01*
X127058254Y-103462806D01*
X127010635Y-103272330D01*
X127010635Y-103129472D01*
X127058254Y-102938996D01*
X127105873Y-102843758D01*
X127201111Y-102748520D01*
X127343969Y-102700901D01*
X127439207Y-102700901D01*
X127582064Y-102748520D01*
X127629683Y-102796139D01*
X128010635Y-102796139D02*
X128058254Y-102748520D01*
X128153492Y-102700901D01*
X128391588Y-102700901D01*
X128486826Y-102748520D01*
X128534445Y-102796139D01*
X128582064Y-102891377D01*
X128582064Y-102986615D01*
X128534445Y-103129472D01*
X127963016Y-103700901D01*
X128582064Y-103700901D01*
X128963016Y-102796139D02*
X129010635Y-102748520D01*
X129105873Y-102700901D01*
X129343969Y-102700901D01*
X129439207Y-102748520D01*
X129486826Y-102796139D01*
X129534445Y-102891377D01*
X129534445Y-102986615D01*
X129486826Y-103129472D01*
X128915397Y-103700901D01*
X129534445Y-103700901D01*
X127517923Y-84494703D02*
X127470304Y-84542322D01*
X127327447Y-84589941D01*
X127232209Y-84589941D01*
X127089351Y-84542322D01*
X126994113Y-84447084D01*
X126946494Y-84351846D01*
X126898875Y-84161370D01*
X126898875Y-84018512D01*
X126946494Y-83828036D01*
X126994113Y-83732798D01*
X127089351Y-83637560D01*
X127232209Y-83589941D01*
X127327447Y-83589941D01*
X127470304Y-83637560D01*
X127517923Y-83685179D01*
X127898875Y-83685179D02*
X127946494Y-83637560D01*
X128041732Y-83589941D01*
X128279828Y-83589941D01*
X128375066Y-83637560D01*
X128422685Y-83685179D01*
X128470304Y-83780417D01*
X128470304Y-83875655D01*
X128422685Y-84018512D01*
X127851256Y-84589941D01*
X128470304Y-84589941D01*
X128803637Y-83589941D02*
X129422685Y-83589941D01*
X129089351Y-83970893D01*
X129232209Y-83970893D01*
X129327447Y-84018512D01*
X129375066Y-84066131D01*
X129422685Y-84161370D01*
X129422685Y-84399465D01*
X129375066Y-84494703D01*
X129327447Y-84542322D01*
X129232209Y-84589941D01*
X128946494Y-84589941D01*
X128851256Y-84542322D01*
X128803637Y-84494703D01*
X127906543Y-127499443D02*
X127858924Y-127547062D01*
X127716067Y-127594681D01*
X127620829Y-127594681D01*
X127477971Y-127547062D01*
X127382733Y-127451824D01*
X127335114Y-127356586D01*
X127287495Y-127166110D01*
X127287495Y-127023252D01*
X127335114Y-126832776D01*
X127382733Y-126737538D01*
X127477971Y-126642300D01*
X127620829Y-126594681D01*
X127716067Y-126594681D01*
X127858924Y-126642300D01*
X127906543Y-126689919D01*
X128287495Y-126689919D02*
X128335114Y-126642300D01*
X128430352Y-126594681D01*
X128668448Y-126594681D01*
X128763686Y-126642300D01*
X128811305Y-126689919D01*
X128858924Y-126785157D01*
X128858924Y-126880395D01*
X128811305Y-127023252D01*
X128239876Y-127594681D01*
X128858924Y-127594681D01*
X129716067Y-126928014D02*
X129716067Y-127594681D01*
X129477971Y-126547062D02*
X129239876Y-127261348D01*
X129858924Y-127261348D01*
X127716043Y-117402943D02*
X127668424Y-117450562D01*
X127525567Y-117498181D01*
X127430329Y-117498181D01*
X127287471Y-117450562D01*
X127192233Y-117355324D01*
X127144614Y-117260086D01*
X127096995Y-117069610D01*
X127096995Y-116926752D01*
X127144614Y-116736276D01*
X127192233Y-116641038D01*
X127287471Y-116545800D01*
X127430329Y-116498181D01*
X127525567Y-116498181D01*
X127668424Y-116545800D01*
X127716043Y-116593419D01*
X128096995Y-116593419D02*
X128144614Y-116545800D01*
X128239852Y-116498181D01*
X128477948Y-116498181D01*
X128573186Y-116545800D01*
X128620805Y-116593419D01*
X128668424Y-116688657D01*
X128668424Y-116783895D01*
X128620805Y-116926752D01*
X128049376Y-117498181D01*
X128668424Y-117498181D01*
X129573186Y-116498181D02*
X129096995Y-116498181D01*
X129049376Y-116974371D01*
X129096995Y-116926752D01*
X129192233Y-116879133D01*
X129430329Y-116879133D01*
X129525567Y-116926752D01*
X129573186Y-116974371D01*
X129620805Y-117069610D01*
X129620805Y-117307705D01*
X129573186Y-117402943D01*
X129525567Y-117450562D01*
X129430329Y-117498181D01*
X129192233Y-117498181D01*
X129096995Y-117450562D01*
X129049376Y-117402943D01*
X66167167Y-134747381D02*
X65833833Y-134271190D01*
X65595738Y-134747381D02*
X65595738Y-133747381D01*
X65976691Y-133747381D01*
X66071929Y-133795000D01*
X66119548Y-133842619D01*
X66167167Y-133937857D01*
X66167167Y-134080714D01*
X66119548Y-134175952D01*
X66071929Y-134223571D01*
X65976691Y-134271190D01*
X65595738Y-134271190D01*
X66595738Y-134223571D02*
X66929072Y-134223571D01*
X67071929Y-134747381D02*
X66595738Y-134747381D01*
X66595738Y-133747381D01*
X67071929Y-133747381D01*
X67833834Y-134223571D02*
X67500500Y-134223571D01*
X67500500Y-134747381D02*
X67500500Y-133747381D01*
X67976691Y-133747381D01*
X68500500Y-133747381D02*
X68500500Y-133985476D01*
X68262405Y-133890238D02*
X68500500Y-133985476D01*
X68738596Y-133890238D01*
X68357643Y-134175952D02*
X68500500Y-133985476D01*
X68643358Y-134175952D01*
X69262405Y-133747381D02*
X69262405Y-133985476D01*
X69024310Y-133890238D02*
X69262405Y-133985476D01*
X69500501Y-133890238D01*
X69119548Y-134175952D02*
X69262405Y-133985476D01*
X69405263Y-134175952D01*
X158750167Y-134683881D02*
X158416833Y-134207690D01*
X158178738Y-134683881D02*
X158178738Y-133683881D01*
X158559691Y-133683881D01*
X158654929Y-133731500D01*
X158702548Y-133779119D01*
X158750167Y-133874357D01*
X158750167Y-134017214D01*
X158702548Y-134112452D01*
X158654929Y-134160071D01*
X158559691Y-134207690D01*
X158178738Y-134207690D01*
X159178738Y-134160071D02*
X159512072Y-134160071D01*
X159654929Y-134683881D02*
X159178738Y-134683881D01*
X159178738Y-133683881D01*
X159654929Y-133683881D01*
X160416834Y-134160071D02*
X160083500Y-134160071D01*
X160083500Y-134683881D02*
X160083500Y-133683881D01*
X160559691Y-133683881D01*
X161083500Y-133683881D02*
X161083500Y-133921976D01*
X160845405Y-133826738D02*
X161083500Y-133921976D01*
X161321596Y-133826738D01*
X160940643Y-134112452D02*
X161083500Y-133921976D01*
X161226358Y-134112452D01*
X161845405Y-133683881D02*
X161845405Y-133921976D01*
X161607310Y-133826738D02*
X161845405Y-133921976D01*
X162083501Y-133826738D01*
X161702548Y-134112452D02*
X161845405Y-133921976D01*
X161988263Y-134112452D01*
X153733667Y-74302881D02*
X153400333Y-73826690D01*
X153162238Y-74302881D02*
X153162238Y-73302881D01*
X153543191Y-73302881D01*
X153638429Y-73350500D01*
X153686048Y-73398119D01*
X153733667Y-73493357D01*
X153733667Y-73636214D01*
X153686048Y-73731452D01*
X153638429Y-73779071D01*
X153543191Y-73826690D01*
X153162238Y-73826690D01*
X154162238Y-73779071D02*
X154495572Y-73779071D01*
X154638429Y-74302881D02*
X154162238Y-74302881D01*
X154162238Y-73302881D01*
X154638429Y-73302881D01*
X155400334Y-73779071D02*
X155067000Y-73779071D01*
X155067000Y-74302881D02*
X155067000Y-73302881D01*
X155543191Y-73302881D01*
X156067000Y-73302881D02*
X156067000Y-73540976D01*
X155828905Y-73445738D02*
X156067000Y-73540976D01*
X156305096Y-73445738D01*
X155924143Y-73731452D02*
X156067000Y-73540976D01*
X156209858Y-73731452D01*
X156828905Y-73302881D02*
X156828905Y-73540976D01*
X156590810Y-73445738D02*
X156828905Y-73540976D01*
X157067001Y-73445738D01*
X156686048Y-73731452D02*
X156828905Y-73540976D01*
X156971763Y-73731452D01*
X153873314Y-103022657D02*
X153873314Y-103994086D01*
X153930457Y-104108371D01*
X153987600Y-104165514D01*
X154101886Y-104222657D01*
X154330457Y-104222657D01*
X154444743Y-104165514D01*
X154501886Y-104108371D01*
X154559029Y-103994086D01*
X154559029Y-103022657D01*
X155759029Y-104222657D02*
X155073314Y-104222657D01*
X155416172Y-104222657D02*
X155416172Y-103022657D01*
X155301886Y-103194086D01*
X155187600Y-103308371D01*
X155073314Y-103365514D01*
X90397034Y-111378381D02*
X90063700Y-110902190D01*
X89825605Y-111378381D02*
X89825605Y-110378381D01*
X90206558Y-110378381D01*
X90301796Y-110426000D01*
X90349415Y-110473619D01*
X90397034Y-110568857D01*
X90397034Y-110711714D01*
X90349415Y-110806952D01*
X90301796Y-110854571D01*
X90206558Y-110902190D01*
X89825605Y-110902190D01*
X90730367Y-110378381D02*
X91349415Y-110378381D01*
X91016081Y-110759333D01*
X91158939Y-110759333D01*
X91254177Y-110806952D01*
X91301796Y-110854571D01*
X91349415Y-110949810D01*
X91349415Y-111187905D01*
X91301796Y-111283143D01*
X91254177Y-111330762D01*
X91158939Y-111378381D01*
X90873224Y-111378381D01*
X90777986Y-111330762D01*
X90730367Y-111283143D01*
X90320834Y-115226481D02*
X89987500Y-114750290D01*
X89749405Y-115226481D02*
X89749405Y-114226481D01*
X90130358Y-114226481D01*
X90225596Y-114274100D01*
X90273215Y-114321719D01*
X90320834Y-114416957D01*
X90320834Y-114559814D01*
X90273215Y-114655052D01*
X90225596Y-114702671D01*
X90130358Y-114750290D01*
X89749405Y-114750290D01*
X90701786Y-114321719D02*
X90749405Y-114274100D01*
X90844643Y-114226481D01*
X91082739Y-114226481D01*
X91177977Y-114274100D01*
X91225596Y-114321719D01*
X91273215Y-114416957D01*
X91273215Y-114512195D01*
X91225596Y-114655052D01*
X90654167Y-115226481D01*
X91273215Y-115226481D01*
X90320834Y-118579281D02*
X89987500Y-118103090D01*
X89749405Y-118579281D02*
X89749405Y-117579281D01*
X90130358Y-117579281D01*
X90225596Y-117626900D01*
X90273215Y-117674519D01*
X90320834Y-117769757D01*
X90320834Y-117912614D01*
X90273215Y-118007852D01*
X90225596Y-118055471D01*
X90130358Y-118103090D01*
X89749405Y-118103090D01*
X91273215Y-118579281D02*
X90701786Y-118579281D01*
X90987500Y-118579281D02*
X90987500Y-117579281D01*
X90892262Y-117722138D01*
X90797024Y-117817376D01*
X90701786Y-117864995D01*
X118514834Y-108768481D02*
X118038643Y-108768481D01*
X118038643Y-107768481D01*
X119371977Y-108768481D02*
X118800548Y-108768481D01*
X119086262Y-108768481D02*
X119086262Y-107768481D01*
X118991024Y-107911338D01*
X118895786Y-108006576D01*
X118800548Y-108054195D01*
X118969494Y-89555921D02*
X118493303Y-89555921D01*
X118493303Y-88555921D01*
X119255208Y-88651159D02*
X119302827Y-88603540D01*
X119398065Y-88555921D01*
X119636161Y-88555921D01*
X119731399Y-88603540D01*
X119779018Y-88651159D01*
X119826637Y-88746397D01*
X119826637Y-88841635D01*
X119779018Y-88984492D01*
X119207589Y-89555921D01*
X119826637Y-89555921D01*
X118552934Y-99472081D02*
X118076743Y-99472081D01*
X118076743Y-98472081D01*
X118791029Y-98472081D02*
X119410077Y-98472081D01*
X119076743Y-98853033D01*
X119219601Y-98853033D01*
X119314839Y-98900652D01*
X119362458Y-98948271D01*
X119410077Y-99043510D01*
X119410077Y-99281605D01*
X119362458Y-99376843D01*
X119314839Y-99424462D01*
X119219601Y-99472081D01*
X118933886Y-99472081D01*
X118838648Y-99424462D01*
X118791029Y-99376843D01*
X118248134Y-127932781D02*
X117771943Y-127932781D01*
X117771943Y-126932781D01*
X119057658Y-126932781D02*
X118581467Y-126932781D01*
X118533848Y-127408971D01*
X118581467Y-127361352D01*
X118676705Y-127313733D01*
X118914801Y-127313733D01*
X119010039Y-127361352D01*
X119057658Y-127408971D01*
X119105277Y-127504210D01*
X119105277Y-127742305D01*
X119057658Y-127837543D01*
X119010039Y-127885162D01*
X118914801Y-127932781D01*
X118676705Y-127932781D01*
X118581467Y-127885162D01*
X118533848Y-127837543D01*
X118514834Y-117569581D02*
X118038643Y-117569581D01*
X118038643Y-116569581D01*
X119276739Y-116569581D02*
X119086262Y-116569581D01*
X118991024Y-116617200D01*
X118943405Y-116664819D01*
X118848167Y-116807676D01*
X118800548Y-116998152D01*
X118800548Y-117379105D01*
X118848167Y-117474343D01*
X118895786Y-117521962D01*
X118991024Y-117569581D01*
X119181501Y-117569581D01*
X119276739Y-117521962D01*
X119324358Y-117474343D01*
X119371977Y-117379105D01*
X119371977Y-117141010D01*
X119324358Y-117045771D01*
X119276739Y-116998152D01*
X119181501Y-116950533D01*
X118991024Y-116950533D01*
X118895786Y-116998152D01*
X118848167Y-117045771D01*
X118800548Y-117141010D01*
X118476734Y-113226181D02*
X118000543Y-113226181D01*
X118000543Y-112226181D01*
X118714829Y-112226181D02*
X119381496Y-112226181D01*
X118952924Y-113226181D01*
X118857734Y-94519081D02*
X118381543Y-94519081D01*
X118381543Y-93519081D01*
X119333924Y-93947652D02*
X119238686Y-93900033D01*
X119191067Y-93852414D01*
X119143448Y-93757176D01*
X119143448Y-93709557D01*
X119191067Y-93614319D01*
X119238686Y-93566700D01*
X119333924Y-93519081D01*
X119524401Y-93519081D01*
X119619639Y-93566700D01*
X119667258Y-93614319D01*
X119714877Y-93709557D01*
X119714877Y-93757176D01*
X119667258Y-93852414D01*
X119619639Y-93900033D01*
X119524401Y-93947652D01*
X119333924Y-93947652D01*
X119238686Y-93995271D01*
X119191067Y-94042890D01*
X119143448Y-94138129D01*
X119143448Y-94328605D01*
X119191067Y-94423843D01*
X119238686Y-94471462D01*
X119333924Y-94519081D01*
X119524401Y-94519081D01*
X119619639Y-94471462D01*
X119667258Y-94423843D01*
X119714877Y-94328605D01*
X119714877Y-94138129D01*
X119667258Y-94042890D01*
X119619639Y-93995271D01*
X119524401Y-93947652D01*
X118552934Y-104005981D02*
X118076743Y-104005981D01*
X118076743Y-103005981D01*
X118933886Y-104005981D02*
X119124362Y-104005981D01*
X119219601Y-103958362D01*
X119267220Y-103910743D01*
X119362458Y-103767886D01*
X119410077Y-103577410D01*
X119410077Y-103196457D01*
X119362458Y-103101219D01*
X119314839Y-103053600D01*
X119219601Y-103005981D01*
X119029124Y-103005981D01*
X118933886Y-103053600D01*
X118886267Y-103101219D01*
X118838648Y-103196457D01*
X118838648Y-103434552D01*
X118886267Y-103529790D01*
X118933886Y-103577410D01*
X119029124Y-103625029D01*
X119219601Y-103625029D01*
X119314839Y-103577410D01*
X119362458Y-103529790D01*
X119410077Y-103434552D01*
X117733843Y-132961981D02*
X117257652Y-132961981D01*
X117257652Y-131961981D01*
X118590986Y-132961981D02*
X118019557Y-132961981D01*
X118305271Y-132961981D02*
X118305271Y-131961981D01*
X118210033Y-132104838D01*
X118114795Y-132200076D01*
X118019557Y-132247695D01*
X119543367Y-132961981D02*
X118971938Y-132961981D01*
X119257652Y-132961981D02*
X119257652Y-131961981D01*
X119162414Y-132104838D01*
X119067176Y-132200076D01*
X118971938Y-132247695D01*
X117733843Y-122903581D02*
X117257652Y-122903581D01*
X117257652Y-121903581D01*
X118590986Y-122903581D02*
X118019557Y-122903581D01*
X118305271Y-122903581D02*
X118305271Y-121903581D01*
X118210033Y-122046438D01*
X118114795Y-122141676D01*
X118019557Y-122189295D01*
X118971938Y-121998819D02*
X119019557Y-121951200D01*
X119114795Y-121903581D01*
X119352891Y-121903581D01*
X119448129Y-121951200D01*
X119495748Y-121998819D01*
X119543367Y-122094057D01*
X119543367Y-122189295D01*
X119495748Y-122332152D01*
X118924319Y-122903581D01*
X119543367Y-122903581D01*
X119109194Y-80168081D02*
X118633003Y-80168081D01*
X118633003Y-79168081D01*
X119871099Y-79501414D02*
X119871099Y-80168081D01*
X119633003Y-79120462D02*
X119394908Y-79834748D01*
X120013956Y-79834748D01*
X118549183Y-84806121D02*
X118072992Y-84806121D01*
X118072992Y-83806121D01*
X119406326Y-84806121D02*
X118834897Y-84806121D01*
X119120611Y-84806121D02*
X119120611Y-83806121D01*
X119025373Y-83948978D01*
X118930135Y-84044216D01*
X118834897Y-84091835D01*
X120025373Y-83806121D02*
X120120612Y-83806121D01*
X120215850Y-83853740D01*
X120263469Y-83901359D01*
X120311088Y-83996597D01*
X120358707Y-84187073D01*
X120358707Y-84425169D01*
X120311088Y-84615645D01*
X120263469Y-84710883D01*
X120215850Y-84758502D01*
X120120612Y-84806121D01*
X120025373Y-84806121D01*
X119930135Y-84758502D01*
X119882516Y-84710883D01*
X119834897Y-84615645D01*
X119787278Y-84425169D01*
X119787278Y-84187073D01*
X119834897Y-83996597D01*
X119882516Y-83901359D01*
X119930135Y-83853740D01*
X120025373Y-83806121D01*
X137164914Y-122753381D02*
X137164914Y-121753381D01*
X137403009Y-121753381D01*
X137545867Y-121801000D01*
X137641105Y-121896238D01*
X137688724Y-121991476D01*
X137736343Y-122181952D01*
X137736343Y-122324810D01*
X137688724Y-122515286D01*
X137641105Y-122610524D01*
X137545867Y-122705762D01*
X137403009Y-122753381D01*
X137164914Y-122753381D01*
X138688724Y-122753381D02*
X138117295Y-122753381D01*
X138403009Y-122753381D02*
X138403009Y-121753381D01*
X138307771Y-121896238D01*
X138212533Y-121991476D01*
X138117295Y-122039095D01*
X139545867Y-122086714D02*
X139545867Y-122753381D01*
X139307771Y-121705762D02*
X139069676Y-122420048D01*
X139688724Y-122420048D01*
X136865194Y-133009901D02*
X136865194Y-132009901D01*
X137103289Y-132009901D01*
X137246147Y-132057520D01*
X137341385Y-132152758D01*
X137389004Y-132247996D01*
X137436623Y-132438472D01*
X137436623Y-132581330D01*
X137389004Y-132771806D01*
X137341385Y-132867044D01*
X137246147Y-132962282D01*
X137103289Y-133009901D01*
X136865194Y-133009901D01*
X138389004Y-133009901D02*
X137817575Y-133009901D01*
X138103289Y-133009901D02*
X138103289Y-132009901D01*
X138008051Y-132152758D01*
X137912813Y-132247996D01*
X137817575Y-132295615D01*
X138722337Y-132009901D02*
X139341385Y-132009901D01*
X139008051Y-132390853D01*
X139150909Y-132390853D01*
X139246147Y-132438472D01*
X139293766Y-132486091D01*
X139341385Y-132581330D01*
X139341385Y-132819425D01*
X139293766Y-132914663D01*
X139246147Y-132962282D01*
X139150909Y-133009901D01*
X138865194Y-133009901D01*
X138769956Y-132962282D01*
X138722337Y-132914663D01*
X136893134Y-85316321D02*
X136893134Y-84316321D01*
X137131229Y-84316321D01*
X137274087Y-84363940D01*
X137369325Y-84459178D01*
X137416944Y-84554416D01*
X137464563Y-84744892D01*
X137464563Y-84887750D01*
X137416944Y-85078226D01*
X137369325Y-85173464D01*
X137274087Y-85268702D01*
X137131229Y-85316321D01*
X136893134Y-85316321D01*
X138416944Y-85316321D02*
X137845515Y-85316321D01*
X138131229Y-85316321D02*
X138131229Y-84316321D01*
X138035991Y-84459178D01*
X137940753Y-84554416D01*
X137845515Y-84602035D01*
X138797896Y-84411559D02*
X138845515Y-84363940D01*
X138940753Y-84316321D01*
X139178849Y-84316321D01*
X139274087Y-84363940D01*
X139321706Y-84411559D01*
X139369325Y-84506797D01*
X139369325Y-84602035D01*
X139321706Y-84744892D01*
X138750277Y-85316321D01*
X139369325Y-85316321D01*
X137088714Y-104343461D02*
X137088714Y-103343461D01*
X137326809Y-103343461D01*
X137469667Y-103391080D01*
X137564905Y-103486318D01*
X137612524Y-103581556D01*
X137660143Y-103772032D01*
X137660143Y-103914890D01*
X137612524Y-104105366D01*
X137564905Y-104200604D01*
X137469667Y-104295842D01*
X137326809Y-104343461D01*
X137088714Y-104343461D01*
X138612524Y-104343461D02*
X138041095Y-104343461D01*
X138326809Y-104343461D02*
X138326809Y-103343461D01*
X138231571Y-103486318D01*
X138136333Y-103581556D01*
X138041095Y-103629175D01*
X139564905Y-104343461D02*
X138993476Y-104343461D01*
X139279190Y-104343461D02*
X139279190Y-103343461D01*
X139183952Y-103486318D01*
X139088714Y-103581556D01*
X138993476Y-103629175D01*
X137032834Y-94676221D02*
X137032834Y-93676221D01*
X137270929Y-93676221D01*
X137413787Y-93723840D01*
X137509025Y-93819078D01*
X137556644Y-93914316D01*
X137604263Y-94104792D01*
X137604263Y-94247650D01*
X137556644Y-94438126D01*
X137509025Y-94533364D01*
X137413787Y-94628602D01*
X137270929Y-94676221D01*
X137032834Y-94676221D01*
X138556644Y-94676221D02*
X137985215Y-94676221D01*
X138270929Y-94676221D02*
X138270929Y-93676221D01*
X138175691Y-93819078D01*
X138080453Y-93914316D01*
X137985215Y-93961935D01*
X139175691Y-93676221D02*
X139270930Y-93676221D01*
X139366168Y-93723840D01*
X139413787Y-93771459D01*
X139461406Y-93866697D01*
X139509025Y-94057173D01*
X139509025Y-94295269D01*
X139461406Y-94485745D01*
X139413787Y-94580983D01*
X139366168Y-94628602D01*
X139270930Y-94676221D01*
X139175691Y-94676221D01*
X139080453Y-94628602D01*
X139032834Y-94580983D01*
X138985215Y-94485745D01*
X138937596Y-94295269D01*
X138937596Y-94057173D01*
X138985215Y-93866697D01*
X139032834Y-93771459D01*
X139080453Y-93723840D01*
X139175691Y-93676221D01*
X137641105Y-114142781D02*
X137641105Y-113142781D01*
X137879200Y-113142781D01*
X138022058Y-113190400D01*
X138117296Y-113285638D01*
X138164915Y-113380876D01*
X138212534Y-113571352D01*
X138212534Y-113714210D01*
X138164915Y-113904686D01*
X138117296Y-113999924D01*
X138022058Y-114095162D01*
X137879200Y-114142781D01*
X137641105Y-114142781D01*
X138688724Y-114142781D02*
X138879200Y-114142781D01*
X138974439Y-114095162D01*
X139022058Y-114047543D01*
X139117296Y-113904686D01*
X139164915Y-113714210D01*
X139164915Y-113333257D01*
X139117296Y-113238019D01*
X139069677Y-113190400D01*
X138974439Y-113142781D01*
X138783962Y-113142781D01*
X138688724Y-113190400D01*
X138641105Y-113238019D01*
X138593486Y-113333257D01*
X138593486Y-113571352D01*
X138641105Y-113666590D01*
X138688724Y-113714210D01*
X138783962Y-113761829D01*
X138974439Y-113761829D01*
X139069677Y-113714210D01*
X139117296Y-113666590D01*
X139164915Y-113571352D01*
X108685105Y-122829581D02*
X108685105Y-121829581D01*
X108923200Y-121829581D01*
X109066058Y-121877200D01*
X109161296Y-121972438D01*
X109208915Y-122067676D01*
X109256534Y-122258152D01*
X109256534Y-122401010D01*
X109208915Y-122591486D01*
X109161296Y-122686724D01*
X109066058Y-122781962D01*
X108923200Y-122829581D01*
X108685105Y-122829581D01*
X109827962Y-122258152D02*
X109732724Y-122210533D01*
X109685105Y-122162914D01*
X109637486Y-122067676D01*
X109637486Y-122020057D01*
X109685105Y-121924819D01*
X109732724Y-121877200D01*
X109827962Y-121829581D01*
X110018439Y-121829581D01*
X110113677Y-121877200D01*
X110161296Y-121924819D01*
X110208915Y-122020057D01*
X110208915Y-122067676D01*
X110161296Y-122162914D01*
X110113677Y-122210533D01*
X110018439Y-122258152D01*
X109827962Y-122258152D01*
X109732724Y-122305771D01*
X109685105Y-122353390D01*
X109637486Y-122448629D01*
X109637486Y-122639105D01*
X109685105Y-122734343D01*
X109732724Y-122781962D01*
X109827962Y-122829581D01*
X110018439Y-122829581D01*
X110113677Y-122781962D01*
X110161296Y-122734343D01*
X110208915Y-122639105D01*
X110208915Y-122448629D01*
X110161296Y-122353390D01*
X110113677Y-122305771D01*
X110018439Y-122258152D01*
X108799405Y-125687081D02*
X108799405Y-124687081D01*
X109037500Y-124687081D01*
X109180358Y-124734700D01*
X109275596Y-124829938D01*
X109323215Y-124925176D01*
X109370834Y-125115652D01*
X109370834Y-125258510D01*
X109323215Y-125448986D01*
X109275596Y-125544224D01*
X109180358Y-125639462D01*
X109037500Y-125687081D01*
X108799405Y-125687081D01*
X109704167Y-124687081D02*
X110370834Y-124687081D01*
X109942262Y-125687081D01*
X108730825Y-85120741D02*
X108730825Y-84120741D01*
X108968920Y-84120741D01*
X109111778Y-84168360D01*
X109207016Y-84263598D01*
X109254635Y-84358836D01*
X109302254Y-84549312D01*
X109302254Y-84692170D01*
X109254635Y-84882646D01*
X109207016Y-84977884D01*
X109111778Y-85073122D01*
X108968920Y-85120741D01*
X108730825Y-85120741D01*
X110159397Y-84120741D02*
X109968920Y-84120741D01*
X109873682Y-84168360D01*
X109826063Y-84215979D01*
X109730825Y-84358836D01*
X109683206Y-84549312D01*
X109683206Y-84930265D01*
X109730825Y-85025503D01*
X109778444Y-85073122D01*
X109873682Y-85120741D01*
X110064159Y-85120741D01*
X110159397Y-85073122D01*
X110207016Y-85025503D01*
X110254635Y-84930265D01*
X110254635Y-84692170D01*
X110207016Y-84596931D01*
X110159397Y-84549312D01*
X110064159Y-84501693D01*
X109873682Y-84501693D01*
X109778444Y-84549312D01*
X109730825Y-84596931D01*
X109683206Y-84692170D01*
X108702885Y-104846381D02*
X108702885Y-103846381D01*
X108940980Y-103846381D01*
X109083838Y-103894000D01*
X109179076Y-103989238D01*
X109226695Y-104084476D01*
X109274314Y-104274952D01*
X109274314Y-104417810D01*
X109226695Y-104608286D01*
X109179076Y-104703524D01*
X109083838Y-104798762D01*
X108940980Y-104846381D01*
X108702885Y-104846381D01*
X110179076Y-103846381D02*
X109702885Y-103846381D01*
X109655266Y-104322571D01*
X109702885Y-104274952D01*
X109798123Y-104227333D01*
X110036219Y-104227333D01*
X110131457Y-104274952D01*
X110179076Y-104322571D01*
X110226695Y-104417810D01*
X110226695Y-104655905D01*
X110179076Y-104751143D01*
X110131457Y-104798762D01*
X110036219Y-104846381D01*
X109798123Y-104846381D01*
X109702885Y-104798762D01*
X109655266Y-104751143D01*
X108870525Y-95179141D02*
X108870525Y-94179141D01*
X109108620Y-94179141D01*
X109251478Y-94226760D01*
X109346716Y-94321998D01*
X109394335Y-94417236D01*
X109441954Y-94607712D01*
X109441954Y-94750570D01*
X109394335Y-94941046D01*
X109346716Y-95036284D01*
X109251478Y-95131522D01*
X109108620Y-95179141D01*
X108870525Y-95179141D01*
X110299097Y-94512474D02*
X110299097Y-95179141D01*
X110061001Y-94131522D02*
X109822906Y-94845808D01*
X110441954Y-94845808D01*
X109104205Y-114142781D02*
X109104205Y-113142781D01*
X109342300Y-113142781D01*
X109485158Y-113190400D01*
X109580396Y-113285638D01*
X109628015Y-113380876D01*
X109675634Y-113571352D01*
X109675634Y-113714210D01*
X109628015Y-113904686D01*
X109580396Y-113999924D01*
X109485158Y-114095162D01*
X109342300Y-114142781D01*
X109104205Y-114142781D01*
X110008967Y-113142781D02*
X110628015Y-113142781D01*
X110294681Y-113523733D01*
X110437539Y-113523733D01*
X110532777Y-113571352D01*
X110580396Y-113618971D01*
X110628015Y-113714210D01*
X110628015Y-113952305D01*
X110580396Y-114047543D01*
X110532777Y-114095162D01*
X110437539Y-114142781D01*
X110151824Y-114142781D01*
X110056586Y-114095162D01*
X110008967Y-114047543D01*
X89480165Y-91686641D02*
X89480165Y-90686641D01*
X89718260Y-90686641D01*
X89861118Y-90734260D01*
X89956356Y-90829498D01*
X90003975Y-90924736D01*
X90051594Y-91115212D01*
X90051594Y-91258070D01*
X90003975Y-91448546D01*
X89956356Y-91543784D01*
X89861118Y-91639022D01*
X89718260Y-91686641D01*
X89480165Y-91686641D01*
X90432546Y-90781879D02*
X90480165Y-90734260D01*
X90575403Y-90686641D01*
X90813499Y-90686641D01*
X90908737Y-90734260D01*
X90956356Y-90781879D01*
X91003975Y-90877117D01*
X91003975Y-90972355D01*
X90956356Y-91115212D01*
X90384927Y-91686641D01*
X91003975Y-91686641D01*
X89635105Y-112199681D02*
X89635105Y-111199681D01*
X89873200Y-111199681D01*
X90016058Y-111247300D01*
X90111296Y-111342538D01*
X90158915Y-111437776D01*
X90206534Y-111628252D01*
X90206534Y-111771110D01*
X90158915Y-111961586D01*
X90111296Y-112056824D01*
X90016058Y-112152062D01*
X89873200Y-112199681D01*
X89635105Y-112199681D01*
X91158915Y-112199681D02*
X90587486Y-112199681D01*
X90873200Y-112199681D02*
X90873200Y-111199681D01*
X90777962Y-111342538D01*
X90682724Y-111437776D01*
X90587486Y-111485395D01*
X98287010Y-115504381D02*
X98287010Y-114504381D01*
X99334629Y-115409143D02*
X99287010Y-115456762D01*
X99144153Y-115504381D01*
X99048915Y-115504381D01*
X98906057Y-115456762D01*
X98810819Y-115361524D01*
X98763200Y-115266286D01*
X98715581Y-115075810D01*
X98715581Y-114932952D01*
X98763200Y-114742476D01*
X98810819Y-114647238D01*
X98906057Y-114552000D01*
X99048915Y-114504381D01*
X99144153Y-114504381D01*
X99287010Y-114552000D01*
X99334629Y-114599619D01*
X100287010Y-115504381D02*
X99715581Y-115504381D01*
X100001295Y-115504381D02*
X100001295Y-114504381D01*
X99906057Y-114647238D01*
X99810819Y-114742476D01*
X99715581Y-114790095D01*
M02*
