<?xml version="1.0" encoding="UTF-8" standalone="no"?>
<svg
   xmlns:lc="http://www.librecad.org"
   xmlns:dc="http://purl.org/dc/elements/1.1/"
   xmlns:cc="http://creativecommons.org/ns#"
   xmlns:rdf="http://www.w3.org/1999/02/22-rdf-syntax-ns#"
   xmlns:svg="http://www.w3.org/2000/svg"
   xmlns="http://www.w3.org/2000/svg"
   xmlns:sodipodi="http://sodipodi.sourceforge.net/DTD/sodipodi-0.dtd"
   xmlns:inkscape="http://www.inkscape.org/namespaces/inkscape"
   width="260mm"
   height="200mm"
   viewBox="0 0 260 200"
   id="svg3416"
   version="1.1"
   inkscape:version="0.91 r13725"
   sodipodi:docname="Soporte_Jetson.svg">
  <metadata
     id="metadata3456">
    <rdf:RDF>
      <cc:Work
         rdf:about="">
        <dc:format>image/svg+xml</dc:format>
        <dc:type
           rdf:resource="http://purl.org/dc/dcmitype/StillImage" />
      </cc:Work>
    </rdf:RDF>
  </metadata>
  <defs
     id="defs3454" />
  <sodipodi:namedview
     pagecolor="#ffffff"
     bordercolor="#666666"
     borderopacity="1"
     objecttolerance="10"
     gridtolerance="10"
     guidetolerance="10"
     inkscape:pageopacity="0"
     inkscape:pageshadow="2"
     inkscape:window-width="1879"
     inkscape:window-height="1056"
     id="namedview3452"
     showgrid="false"
     inkscape:zoom="0.91231904"
     inkscape:cx="566.12499"
     inkscape:cy="330.69493"
     inkscape:window-x="41"
     inkscape:window-y="24"
     inkscape:window-maximized="1"
     inkscape:current-layer="g3418" />
  <g
     lc:layername="0"
     lc:is_locked="false"
     lc:is_construction="false"
     fill="none"
     stroke="black"
     stroke-width="1"
     id="g3418"
     style="stroke:#ff0000;stroke-opacity:1">
    <line
       x1="0"
       y1="200"
       x2="260"
       y2="200"
       id="line3420"
       style="stroke:#ff0000;stroke-opacity:1" />
    <line
       x1="260"
       y1="200"
       x2="260"
       y2="0"
       id="line3422"
       style="stroke:#ff0000;stroke-opacity:1" />
    <line
       x1="260"
       y1="0"
       x2="0"
       y2="0"
       id="line3424"
       style="stroke:#ff0000;stroke-opacity:1" />
    <line
       x1="0"
       y1="0"
       x2="0"
       y2="200"
       id="line3426"
       style="stroke:#ff0000;stroke-opacity:1" />
    <circle
       cx="15"
       cy="185"
       r="5"
       id="circle3428"
       style="stroke:#ff0000;stroke-opacity:1" />
    <circle
       cx="15"
       cy="15"
       r="5"
       id="circle3430"
       style="stroke:#ff0000;stroke-opacity:1" />
    <circle
       cx="245"
       cy="185"
       r="5"
       id="circle3432"
       style="stroke:#ff0000;stroke-opacity:1" />
    <circle
       cx="245"
       cy="15"
       r="5"
       id="circle3434"
       style="stroke:#ff0000;stroke-opacity:1" />
    <circle
       cx="40"
       cy="185"
       r="2"
       id="circle3436"
       style="stroke:#ff0000;stroke-opacity:1" />
    <circle
       cx="195.7"
       cy="185"
       r="2"
       id="circle3438"
       style="stroke:#ff0000;stroke-opacity:1" />
    <circle
       cx="195.7"
       cy="27.52"
       r="2"
       id="circle3440"
       style="stroke:#ff0000;stroke-opacity:1" />
    <circle
       cx="63.62"
       cy="27.52"
       r="2"
       id="circle3442"
       style="stroke:#ff0000;stroke-opacity:1" />
    <line
       x1="26.953125"
       y1="192.96875"
       x2="207.03802861"
       y2="192.96875"
       id="line3444"
       style="stroke:#00ff00;stroke-opacity:1" />
    <line
       x1="207.03802861"
       y1="192.96875"
       x2="207.03802861"
       y2="18.34355473"
       id="line3446"
       style="stroke:#00ff00;stroke-opacity:1" />
    <line
       x1="207.03802861"
       y1="18.34355473"
       x2="26.55859198"
       y2="18.34355473"
       id="line3448"
       style="stroke:#00ff00;stroke-opacity:1;fill:#00ff00" />
    <line
       x1="26.55859198"
       y1="18.34355473"
       x2="26.55859198"
       y2="192.96875004"
       id="line3450"
       style="stroke:#00ff00;stroke-opacity:1" />
    <text
       xml:space="preserve"
       style="font-style:normal;font-weight:normal;font-size:11.75558853px;line-height:125%;font-family:sans-serif;letter-spacing:0px;word-spacing:0px;fill:#0000ff;fill-opacity:1;stroke:none;stroke-width:1px;stroke-linecap:butt;stroke-linejoin:miter;stroke-opacity:1"
       x="-182.78172"
       y="221.67021"
       id="text4258"
       sodipodi:linespacing="125%"
       transform="matrix(0,-1.0000001,0.99999991,0,0,0)"><tspan
         sodipodi:role="line"
         x="-182.78172"
         y="221.67021"
         style="font-style:normal;font-variant:normal;font-weight:normal;font-stretch:condensed;font-size:7.76111126px;line-height:125%;font-family:'Liberation Sans Narrow';-inkscape-font-specification:'Liberation Sans Narrow, Condensed';text-align:start;writing-mode:lr-tb;text-anchor:start;fill:#0000ff;fill-opacity:1"
         id="tspan4288">Trabajo de fin de Máster - Máster en Ingeniería Industrial</tspan><tspan
         sodipodi:role="line"
         x="-182.78172"
         y="231.3716"
         style="font-style:normal;font-variant:normal;font-weight:normal;font-stretch:condensed;font-size:7.34724379px;line-height:125%;font-family:'Liberation Sans Narrow';-inkscape-font-specification:'Liberation Sans Narrow, Condensed';text-align:start;writing-mode:lr-tb;text-anchor:start;fill:#0000ff;fill-opacity:1"
         id="tspan4290" /></text>
    <path
       style="fill:#000000;stroke-width:0.21815779;stroke-miterlimit:4;stroke-dasharray:none;fill-opacity:1;stroke:#0000ff;stroke-opacity:1"
       d="m 8.0392278,119.3784 0.7260348,-0.71702 0.8776899,0.57184 0.8776895,0.57184 0.831971,-0.30178 c 0.457584,-0.16598 0.871686,-0.36379 0.920226,-0.43956 0.04854,-0.0758 0.125887,-0.41312 0.171883,-0.74965 0.046,-0.33653 0.11667,-0.77937 0.157054,-0.9841 l 0.07342,-0.37223 1.08932,0.0386 c 1.050608,0.0372 1.090707,0.0504 1.128347,0.37223 0.02147,0.18351 0.102101,0.65526 0.179192,1.04832 0.139905,0.71333 0.141752,0.71537 0.99548,1.10247 l 0.855316,0.38782 0.827309,-0.60199 c 0.45502,-0.33109 0.873939,-0.60199 0.93093,-0.60199 0.05699,0 0.44006,0.32071 0.851264,0.71269 l 0.747643,0.71269 -0.633014,0.90553 -0.633014,0.90554 0.250097,0.73577 c 0.292262,0.85982 0.495176,1.09937 0.931244,1.09937 0.174656,0 0.620803,0.065 0.991438,0.14452 l 0.673883,0.14452 0,1.0408 0,1.0408 -0.567216,0.13729 c -0.31197,0.0755 -0.815713,0.17687 -1.119431,0.22524 -0.522947,0.0833 -0.567156,0.12699 -0.834142,0.82466 -0.155061,0.4052 -0.281929,0.80974 -0.281929,0.89898 0,0.0892 0.270837,0.54688 0.601859,1.01698 l 0.60186,0.85471 -0.697398,0.70617 c -0.383568,0.38839 -0.759507,0.7061 -0.835419,0.706 -0.07591,-9e-5 -0.524218,-0.26274 -0.996236,-0.58366 l -0.858215,-0.58351 -0.802694,0.35844 c -0.868439,0.38779 -0.92086,0.47242 -1.120973,1.80987 l -0.09985,0.66732 -1.087828,0.0386 -1.087828,0.0386 -0.07133,-0.37223 c -0.03923,-0.20472 -0.108923,-0.62194 -0.154863,-0.92714 -0.109891,-0.73005 -0.25294,-0.8829 -1.161139,-1.2407 l -0.763259,-0.30069 -0.820137,0.54766 c -0.4510763,0.30122 -0.8603893,0.54767 -0.909585,0.54767 -0.049197,0 -0.4129445,-0.32757 -0.808328,-0.72792 l -0.7188812,-0.72793 0.5700169,-0.83062 c 0.562687,-0.81994 0.5673622,-0.83619 0.3636073,-1.26347 L 7.9948848,127.53291 9.48915,126.91842 c 0.821846,-0.33797 1.594189,-0.67031 1.716319,-0.73854 0.172247,-0.0962 0.352004,0.006 0.80142,0.45531 1.068516,1.06852 2.338479,1.11112 3.366166,0.11293 0.482359,-0.46851 0.60707,-0.73393 0.64452,-1.37172 0.05478,-0.93288 -0.03535,-1.20276 -0.596522,-1.78635 -1.067638,-1.11029 -2.349598,-1.11044 -3.388129,-3.9e-4 l -0.552046,0.59006 -1.746305,-0.75042 -1.7463053,-0.75042 0.205159,-0.39673 c 0.1994681,-0.38573 0.1901057,-0.41984 -0.3375394,-1.2297 -0.2984841,-0.45814 -0.5426983,-0.86087 -0.5426983,-0.89496 0,-0.0341 0.3267155,-0.38464 0.7260348,-0.779 z m 5.6134472,21.74652 5.004854,0 0,0.33366 c 0,0.19407 -0.07675,0.33366 -0.18345,0.33366 -0.142037,0 -0.123549,0.12107 0.0819,0.53632 0.229148,0.46314 0.242563,0.59133 0.09832,0.93955 -0.273888,0.66123 -0.590467,0.79299 -1.905217,0.79299 -1.128178,0 -1.199415,-0.0177 -1.571857,-0.39012 -0.435266,-0.43527 -0.512354,-0.99881 -0.194172,-1.41948 0.107772,-0.14249 0.19786,-0.30411 0.200194,-0.35917 0.0023,-0.055 -0.687967,-0.10009 -1.534005,-0.10009 l -1.538249,0 0.203622,0.39376 c 0.24165,0.4673 0.256871,0.81143 0.05544,1.25352 -0.227521,0.49936 -0.671998,0.62158 -2.260429,0.62158 -1.3728357,0 -1.4618113,-0.0162 -1.4618113,-0.26692 0,-0.24829 0.088976,-0.26693 1.2739623,-0.26693 1.174653,0 1.2995,-0.0255 1.601553,-0.32759 0.397175,-0.39717 0.417721,-0.78344 0.06067,-1.1405 -0.231335,-0.23133 -0.444876,-0.26692 -1.601554,-0.26692 -1.3346273,0 -1.3346273,0 -1.3346273,-0.33366 l 0,-0.33366 5.0048543,0 z m 2.05714,2.02052 c 0.217741,0.26863 0.372911,0.31443 1.052517,0.31066 0.941907,-0.005 1.227883,-0.19274 1.227883,-0.80513 0,-0.59857 -0.393122,-0.85873 -1.297593,-0.85873 -1.098334,0 -1.562095,0.63854 -0.982807,1.3532 z m -6.746854,2.05648 c 0.4274612,-0.42746 1.164309,-0.46214 1.553339,-0.0731 0.212171,0.21217 0.266925,0.44487 0.266925,1.13443 l 0,0.86751 0.464577,0 c 0.384874,0 0.479018,-0.0575 0.548749,-0.33537 0.04629,-0.18445 0.04515,-0.5956 -0.0025,-0.91367 -0.0643,-0.4288 -0.0358,-0.62056 0.110255,-0.74178 0.163012,-0.13529 0.232929,-0.094 0.405481,0.23973 0.37105,0.71753 0.183927,2.01239 -0.330609,2.28776 -0.134264,0.0718 -0.938733,0.13064 -1.787712,0.13064 l -1.5435953,0 0,-0.34153 c 0,-0.22678 0.052466,-0.30911 0.1561434,-0.24503 0.1113293,0.0688 0.123688,0.0232 0.043059,-0.15896 -0.062196,-0.14049 -0.1380645,-0.53785 -0.1685942,-0.88301 -0.047387,-0.53575 -0.00575,-0.67732 0.284532,-0.96761 z m 0.3568688,1.67068 c 0.089691,0.16758 0.2793109,0.25815 0.5405122,0.25815 l 0.402353,0 -0.04003,-0.7536 c -0.02949,-0.55523 -0.103705,-0.79236 -0.281947,-0.90087 -0.4993362,-0.30399 -0.9674529,0.74876 -0.6208914,1.39632 z m 1.2634092,1.96666 1.935418,-0.0402 -2.14e-4,0.36703 c -1.33e-4,0.23992 -0.07072,0.36702 -0.203829,0.36702 -0.18252,0 -0.18252,0.0408 0,0.39376 0.229543,0.44389 0.259302,0.91311 0.07626,1.20249 -0.105718,0.16713 -0.161541,0.16025 -0.392016,-0.0483 -0.198917,-0.18002 -0.248528,-0.3443 -0.190936,-0.63226 0.05403,-0.27016 0.005,-0.46952 -0.160476,-0.65236 -0.207934,-0.22977 -0.414107,-0.2633 -1.618955,-0.2633 -1.3760181,0 -1.3806733,-0.001 -1.3806733,-0.3268 l 0,-0.3268 1.9354183,-0.0402 z m -1.5934079,3.03336 c 0.1881051,-0.17433 0.5840678,-0.35786 0.8799179,-0.40784 0.652204,-0.11019 1.83547,0.0259 2.126207,0.24462 0.513578,0.38629 0.6717,1.17861 0.326336,1.63523 -0.107772,0.14248 -0.197859,0.30411 -0.200195,0.35916 -0.0023,0.055 0.446193,0.1001 0.996727,0.1001 0.978727,0 1.000971,0.007 1.000971,0.33365 l 0,0.33366 -2.735987,0 -2.7359873,0 0,-0.33366 c 0,-0.21301 0.075125,-0.33365 0.2077615,-0.33365 0.188041,0 0.188041,-0.0282 0,-0.29662 -0.3325679,-0.47481 -0.2679252,-1.26192 0.1342489,-1.63465 z m 0.6219258,1.72351 c 0.4466211,0.31282 1.6359321,0.27715 1.9722451,-0.0592 0.324555,-0.32455 0.343041,-0.76238 0.04605,-1.09056 -0.29422,-0.32511 -1.790018,-0.34951 -2.105186,-0.0343 -0.3112979,0.3113 -0.2653547,0.93734 0.086895,1.18407 z m 0.4707891,2.20732 c 0.789098,-0.24928 1.659943,-0.52456 1.93521,-0.61173 0.494849,-0.15672 0.500485,-0.1544 0.500485,0.20595 0,0.33949 -0.0617,0.37935 -0.900873,0.58191 -0.876782,0.21165 -2.0360059,0.5921 -1.901845,0.62417 0.0367,0.009 0.667314,0.2126 1.401359,0.45294 1.053291,0.34487 1.334628,0.48913 1.334628,0.68435 0,0.19522 -0.281337,0.33948 -1.334628,0.68435 -0.734045,0.24034 -1.364657,0.44416 -1.401359,0.45294 -0.1341609,0.0321 1.025063,0.41252 1.901845,0.62417 0.839168,0.20256 0.900873,0.24242 0.900873,0.58191 0,0.36035 -0.0056,0.36267 -0.500485,0.20595 -0.275267,-0.0872 -1.146112,-0.36245 -1.93521,-0.61172 -1.2716778,-0.40172 -1.4347253,-0.48779 -1.4347253,-0.75737 0,-0.26697 0.1427344,-0.3465 1.1677993,-0.65072 0.64229,-0.19061 1.246678,-0.37229 1.343087,-0.40373 0.200601,-0.0654 0.08637,-0.32597 -0.142911,-0.32597 -0.08364,0 -0.650644,-0.15208 -1.260021,-0.33795 -0.965304,-0.29444 -1.1079543,-0.37711 -1.1079543,-0.64209 0,-0.26957 0.1630475,-0.35564 1.4347253,-0.75736 z m -1.2786286,5.38948 c 0.1481037,-0.30586 0.6387929,-0.58244 1.0333486,-0.58244 0.133456,0 0.3982,0.12236 0.588319,0.27191 0.301159,0.23689 0.350739,0.38727 0.385021,1.1678 0.03602,0.82011 0.06537,0.89958 0.346988,0.9395 0.169201,0.024 0.394419,-0.0284 0.500485,-0.11644 0.222525,-0.18468 0.263159,-1.20483 0.05623,-1.41176 -0.09318,-0.0932 -0.05381,-0.21156 0.123841,-0.37233 0.251873,-0.22794 0.267864,-0.22139 0.48513,0.19876 0.335733,0.64923 0.205754,1.68132 -0.262463,2.08406 -0.329082,0.28307 -0.482551,0.30815 -1.885618,0.30815 l -1.5273803,0 0,-0.33366 c 0,-0.2215 0.074249,-0.33366 0.2208796,-0.33366 0.20553,0 0.20553,-0.017 0,-0.24407 -0.2473159,-0.27328 -0.2823886,-1.12641 -0.064783,-1.57582 z m 0.5986339,1.57582 c 0.1214832,0.13424 0.3645817,0.24407 0.5402187,0.24407 0.30694,0 0.317798,-0.0323 0.279607,-0.8328 -0.03253,-0.68173 -0.0839,-0.84122 -0.283224,-0.87921 -0.6220525,-0.11855 -1.0105507,0.94424 -0.5366017,1.46794 z m -0.665755,1.9346 c 0.048936,-0.0489 0.9197801,-0.089 1.9352107,-0.089 l 1.846234,0 0,0.33366 c 0,0.20761 -0.07563,0.33366 -0.200194,0.33366 -0.249091,0 -0.247927,0.12586 0.0042,0.45926 0.231451,0.30601 0.252896,0.78651 0.05186,1.16214 -0.13771,0.25731 -0.155506,0.25889 -0.402274,0.0356 -0.163311,-0.14779 -0.228547,-0.32706 -0.177522,-0.48782 0.130894,-0.41241 -0.04588,-0.84524 -0.413633,-1.0128 -0.188724,-0.086 -0.880834,-0.15634 -1.538021,-0.15634 -1.0697012,0 -1.1948853,-0.0256 -1.1948853,-0.24468 0,-0.13458 0.040039,-0.28472 0.088976,-0.33366 z m 0.080193,3.41327 c 0.571549,-0.98388 2.5165507,-1.0835 3.3342297,-0.17076 0.892503,0.99625 -0.01764,2.54088 -1.49717,2.54088 l -0.404674,0 0,-1.2679 c 0,-0.69734 -0.03301,-1.2679 -0.07336,-1.2679 -0.04035,0 -0.245551,0.089 -0.456007,0.19788 -0.4974021,0.25722 -0.6513034,0.87773 -0.3367583,1.35779 0.2063321,0.3149 0.2073197,0.3615 0.011798,0.55703 -0.195523,0.19552 -0.2319477,0.1948 -0.4353916,-0.009 -0.2884304,-0.28843 -0.3798204,-1.53012 -0.1426651,-1.93837 z m 2.2560187,1.56934 c 0.586049,0 1.003201,-0.79092 0.675779,-1.28128 -0.151811,-0.22736 -0.689152,-0.47535 -0.834858,-0.3853 -0.07189,0.0444 -0.130704,0.43759 -0.130704,0.87368 0,0.72477 0.0249,0.7929 0.289783,0.7929 z m 3.981586,-31.73411 c 0.146569,-0.24039 0.420516,-0.49564 0.608772,-0.56721 0.454937,-0.17297 1.651411,-0.16561 2.164664,0.0133 1.014184,0.35354 1.195748,1.79457 0.323928,2.57093 -0.353756,0.31502 -1.684682,0.44595 -2.338782,0.23008 -0.553793,-0.18277 -1.026329,-0.83952 -1.025569,-1.42539 2.81e-4,-0.21155 0.120419,-0.58133 0.266987,-0.82172 z m 0.676441,1.35333 c 0.235529,0.29942 0.379783,0.35165 0.971274,0.35165 0.877943,0 1.287906,-0.26458 1.287906,-0.8312 0,-0.66036 -0.321297,-0.90414 -1.188484,-0.90177 -0.810504,0.002 -0.958136,0.06 -1.187828,0.46507 -0.214297,0.37791 -0.196439,0.51761 0.117132,0.91625 z m -0.641944,6.21577 c 0.421194,-0.62502 1.235634,-0.86453 2.219676,-0.65277 1.198037,0.2578 1.72388,1.11239 1.271311,2.06611 -0.28792,0.60675 -0.63903,0.83903 -1.432675,0.94781 l -0.625279,0.0857 0,-1.21143 c 0,-0.66629 -0.0484,-1.24134 -0.107548,-1.2779 -0.206502,-0.12763 -0.756551,0.25949 -0.88412,0.62224 -0.09008,0.25612 -0.07657,0.50952 0.04509,0.84596 0.148894,0.41176 0.144491,0.5095 -0.03086,0.68485 -0.183743,0.18374 -0.232602,0.15851 -0.480561,-0.24822 -0.362982,-0.5954 -0.353528,-1.30072 0.02496,-1.86236 z m 2.173145,1.74326 c 0.271218,0 0.861442,-0.59623 0.861442,-0.87022 0,-0.49814 -0.641424,-1.10004 -0.967605,-0.90798 -0.05505,0.0324 -0.100097,0.44577 -0.100097,0.91857 0,0.68638 0.04157,0.85963 0.20626,0.85963 z m -0.539917,1.46809 c 1.846235,0 1.93521,0.0123 1.93521,0.26693 0,0.14829 -0.08898,0.26692 -0.200194,0.26692 -0.25159,0 -0.257856,0.18639 -0.01309,0.38952 0.507421,0.42113 0.238606,1.64138 -0.416451,1.89044 -0.177033,0.0673 -0.982786,0.12237 -1.790562,0.12237 -1.446741,0 -1.468047,-0.004 -1.426036,-0.30029 0.04054,-0.28541 0.108523,-0.3022 1.372488,-0.33883 1.465525,-0.0425 1.808142,-0.19747 1.804492,-0.81629 -0.0043,-0.73367 -0.471691,-0.94692 -2.075318,-0.94692 -1.03677,0 -1.125746,-0.0211 -1.125746,-0.26692 0,-0.25466 0.08898,-0.26693 1.935211,-0.26693 z m -1.679234,5.90573 c 0.282333,-0.60472 0.417817,-0.68084 0.670306,-0.37661 0.123348,0.14863 0.112249,0.27945 -0.05039,0.59396 -0.394151,0.7622 -0.158061,1.70472 0.400088,1.59723 0.201639,-0.0388 0.290692,-0.23583 0.411268,-0.90977 0.169961,-0.94997 0.489463,-1.33856 1.100559,-1.33856 0.839782,0 1.371445,0.94186 1.095357,1.94048 -0.221186,0.80003 -0.326161,0.91881 -0.639238,0.72329 -0.248358,-0.1551 -0.251306,-0.19294 -0.05711,-0.73298 0.259166,-0.72072 0.06117,-1.30746 -0.418167,-1.23923 -0.253119,0.036 -0.321069,0.16951 -0.447707,0.87946 -0.192018,1.07647 -0.466086,1.39094 -1.166263,1.33817 -0.983587,-0.0741 -1.436889,-1.32272 -0.898705,-2.47544 z m -0.125173,4.02232 c 0.251777,-0.62314 0.763702,-0.85258 1.902321,-0.85258 1.01101,0 1.08131,0.0197 1.440281,0.404 0.486977,0.52131 0.59819,1.04407 0.348999,1.64047 -0.251394,0.60167 -0.683393,0.88027 -1.518283,0.97915 -1.59581,0.189 -2.68661,-0.90066 -2.173318,-2.17104 z m 0.864102,1.22216 c 0.434269,0.43427 1.533325,0.46862 1.941275,0.0607 0.319152,-0.31915 0.348701,-0.96687 0.0574,-1.25817 -0.688495,-0.68849 -2.326266,-0.25783 -2.326266,0.61171 0,0.14201 0.147416,0.40562 0.327591,0.58579 z m -0.604783,2.18581 c 0.386257,-0.38626 0.405432,-0.39013 1.93521,-0.39013 l 1.545088,0 0,0.33366 c 0,0.33366 0,0.33366 -1.334628,0.33366 -1.156676,0 -1.370217,0.0356 -1.601552,0.26692 -0.32066,0.32066 -0.338792,0.63878 -0.05916,1.03801 0.192143,0.27432 0.312545,0.29662 1.601553,0.29662 l 1.393791,0 0,0.33366 0,0.33365 -1.93521,0 -1.935211,0 0,-0.33365 c 0,-0.20761 0.07563,-0.33366 0.200195,-0.33366 0.249091,0 0.247928,-0.12586 -0.0042,-0.45926 -0.318181,-0.42068 -0.241094,-0.98422 0.194173,-1.41948 z m 1.535806,3.61376 1.944493,0 0,0.33365 c 0,0.2215 -0.07425,0.33366 -0.220879,0.33366 -0.196849,0 -0.193945,0.0298 0.02669,0.27357 0.278614,0.30786 0.33235,1.10974 0.09057,1.35152 -0.257031,0.25703 -0.66351,-0.20475 -0.594446,-0.67532 0.0311,-0.21189 -0.01035,-0.51026 -0.09211,-0.66302 -0.134248,-0.25085 -0.287465,-0.28143 -1.581085,-0.31562 -1.370633,-0.0362 -1.434273,-0.0508 -1.475081,-0.33815 -0.04255,-0.29963 -0.03833,-0.30029 1.901844,-0.30029 z m -1.664405,3.37641 c 0.143288,-0.235 0.440373,-0.52028 0.660187,-0.63395 0.503145,-0.26018 1.643578,-0.26729 2.134742,-0.0133 0.902115,0.4665 1.163448,1.66117 0.54254,2.48019 -0.231146,0.30489 -0.265994,0.31316 -0.469278,0.11136 -0.172891,-0.17163 -0.188437,-0.2762 -0.0731,-0.49171 0.200205,-0.37409 0.184092,-0.98961 -0.0337,-1.28746 -0.12556,-0.17172 -0.405885,-0.26515 -0.924579,-0.30816 -0.66482,-0.0551 -0.781083,-0.025 -1.087703,0.28158 -0.381894,0.3819 -0.439755,0.83986 -0.155267,1.22892 0.129709,0.17739 0.148955,0.33022 0.06203,0.49263 -0.183457,0.34279 -0.353575,0.29105 -0.651935,-0.1983 -0.334993,-0.54943 -0.336338,-1.11665 -0.0039,-1.6618 z m -0.09828,3.4342 c 0.666146,-1.25988 2.990319,-1.25459 3.607967,0.008 0.301986,0.61742 0.188629,1.21245 -0.329736,1.73081 -0.327915,0.32792 -0.500297,0.39237 -1.049415,0.39237 l -0.657047,-1e-5 0,-1.20116 c 0,-1.32235 -0.07963,-1.42516 -0.716046,-0.92455 -0.382923,0.3012 -0.469341,0.87319 -0.197654,1.30823 0.120607,0.19312 0.110035,0.30937 -0.04875,0.53606 l -0.20275,0.28947 -0.237339,-0.36223 c -0.306716,-0.46811 -0.391368,-1.35709 -0.169233,-1.77721 z m 2.347036,1.46408 c 0.353638,0 0.666116,-0.28345 0.765033,-0.69396 0.06733,-0.2794 0.01039,-0.43674 -0.253555,-0.70068 -0.582544,-0.58255 -0.752894,-0.46328 -0.752894,0.52713 0,0.74798 0.03326,0.86751 0.241416,0.86751 z"
       id="path4275"
       inkscape:connector-curvature="0" />
    <path
       inkscape:connector-curvature="0"
       id="path4294"
       d="m 13.849652,65.286209 6.914339,0 0,0.284151 0,0.284151 -6.914339,0 -6.9143405,0 0,-0.284151 0,-0.284151 6.9143405,0 z m -0.04615,-19.559058 6.814119,0 0.02349,0.153915 c 0.01292,0.08465 0.0334,0.576346 0.0455,1.09265 l 0.02201,0.938735 -0.576139,-0.02642 c -0.622866,-0.02857 -6.288057,-0.08196 -8.672704,-0.08173 -1.29076,1.42e-4 -1.4730255,0.0092 -1.5219045,0.07608 -0.105,0.143595 0.02293,0.528631 0.6912075,2.080302 0.266157,0.617991 0.474998,1.132543 0.464091,1.143449 -0.04246,0.04246 -2.1468965,0.437148 -2.1754965,0.408014 -0.02448,-0.02494 -0.742633,-2.177095 -1.792117,-5.370602 l -0.136181,-0.414387 6.8141205,0 z M 7.0549335,33.508659 c 0.0077,-0.03907 0.03984,-0.230872 0.07153,-0.426226 0.272,-1.677014 1.48666,-3.05425 3.0529085,-3.461524 0.709147,-0.184402 2.168706,-0.170103 3.504528,0.03433 0.260471,0.03986 1.935309,0.369095 3.721861,0.731628 1.786552,0.362532 3.26236,0.65915 3.279575,0.65915 0.01722,0 0.0313,0.415571 0.0313,0.92349 0,0.50792 -0.0065,0.923491 -0.01445,0.923491 -0.0307,0 -1.355282,-0.294022 -2.850736,-0.632791 -5.11812,-1.159418 -6.367048,-1.224502 -7.723381,-0.402478 -0.5653065,0.342611 -1.0489745,0.936536 -1.2599715,1.547193 -0.09335,0.27016 -0.109479,0.411061 -0.109479,0.956189 0,0.536167 0.0178,0.696658 0.110285,0.994529 0.468176,1.507837 1.7592555,2.583632 3.6903285,3.07498 0.634822,0.161526 4.028032,0.880144 6.049953,1.281267 1.067935,0.211864 1.978993,0.396038 2.024575,0.409275 0.07537,0.02189 0.08288,0.110005 0.08288,0.973181 l 0,0.949113 -0.106557,-0.02578 c -0.0897,-0.02171 -12.5441375,-2.378083 -13.0709435,-2.47302 l -0.177595,-0.03201 0,-0.788904 0,-0.788905 0.355896,0.01797 c 0.578986,0.02924 0.613224,-0.05864 0.254947,-0.654347 -0.698189,-1.160874 -0.947828,-1.998856 -0.936858,-3.144828 0.003,-0.315666 0.01176,-0.605905 0.01941,-0.644976 z m 6.7925725,20.790379 6.770118,0 0.02346,0.153915 c 0.0129,0.08465 0.0335,0.564158 0.04577,1.065567 l 0.02231,0.911651 -1.04999,7.95e-4 c -0.577495,4.38e-4 -2.850797,-0.02297 -5.051783,-0.05201 -2.250688,-0.0297 -4.136492,-0.03523 -4.309622,-0.01264 -0.3000795,0.03916 -0.3081935,0.04389 -0.3222185,0.188018 -0.01989,0.204353 0.1069705,0.557791 0.6826015,1.901811 0.273454,0.638476 0.480053,1.174832 0.45911,1.191901 -0.07143,0.05822 -2.1105435,0.435319 -2.1436595,0.396435 -0.03218,-0.03778 -1.896212,-5.656421 -1.896212,-5.715625 0,-0.0164 3.0465545,-0.02982 6.7701195,-0.02982 z M 8.2415965,92.4463 c 0.01187,-0.0521 0.0454,-0.21725 0.0745,-0.36702 l 0.05291,-0.27231 0.259524,0 c 0.247502,0 0.25797,0.005 0.225982,0.10655 -0.14361,0.45624 -0.170509,0.60545 -0.149561,0.82963 0.04593,0.49156 0.358093,0.76555 0.874618,0.76768 l 0.252657,0.001 -0.189164,-0.2149 c -0.472847,-0.53715 -0.314782,-1.29488 0.343639,-1.64731 0.1628165,-0.0871 0.2697045,-0.10313 0.6899295,-0.10313 0.468691,0 0.512231,0.008 0.757736,0.14699 0.360392,0.20338 0.532636,0.45756 0.559232,0.82525 0.02597,0.35902 -0.07798,0.65087 -0.301835,0.84741 -0.08947,0.0786 -0.16268,0.15414 -0.16268,0.16796 0,0.0138 0.0959,0.0251 0.213113,0.0251 l 0.213113,0 0,0.28415 0,0.28415 -1.347941,0 c -1.2314385,0 -1.3697945,-0.008 -1.6007875,-0.0946 -0.461577,-0.1727 -0.718737,-0.56414 -0.762332,-1.1604 -0.01333,-0.18233 -0.01453,-0.37413 -0.0027,-0.42623 z m 1.701955,0.68859 c 0.2331525,0.45086 1.2840185,0.44381 1.5187945,-0.0102 0.118201,-0.22858 0.06636,-0.54694 -0.115514,-0.70945 -0.350738,-0.31338 -0.989682,-0.29827 -1.319156,0.0312 -0.1264425,0.12644 -0.1561385,0.19351 -0.1561385,0.35266 0,0.10809 0.03241,0.25919 0.07201,0.33578 z m -0.5958,-20.992874 c 0.176162,-0.547981 0.7700915,-0.880432 1.4819145,-0.829502 0.672359,0.04811 1.123655,0.427268 1.163454,0.977488 0.02522,0.348633 -0.0494,0.581066 -0.262148,0.816549 l -0.165549,0.183243 0.810605,0 0.810605,0 0,0.33151 0,0.331509 -1.918019,0 -1.9180195,0 0,-0.30783 0,-0.30783 0.272311,-7.96e-4 0.272312,-7.95e-4 -0.155075,-0.09931 c -0.30689,-0.196515 -0.504147,-0.746595 -0.392391,-1.094232 z m 0.633203,0.887799 c 0.2683125,0.268312 0.8408425,0.335906 1.2133865,0.143256 0.333768,-0.172598 0.443069,-0.647085 0.212249,-0.921398 -0.161432,-0.191852 -0.555821,-0.310654 -0.885913,-0.266866 -0.472044,0.06262 -0.6964975,0.273084 -0.6964975,0.653091 0,0.203024 0.02141,0.256556 0.156775,0.391917 z m -0.63347,2.438164 c 0.183705,-0.603923 0.7223315,-0.935725 1.4437855,-0.889393 0.383735,0.02464 0.636573,0.128596 0.862649,0.35467 0.238346,0.238347 0.315061,0.424816 0.338706,0.823286 0.01757,0.296195 0.0034,0.399855 -0.08084,0.590251 -0.131675,0.297672 -0.213279,0.384536 -0.495874,0.52784 -0.15679,0.07951 -0.344138,0.125941 -0.580141,0.14379 l -0.348568,0.02636 0,-0.935462 0,-0.93546 -0.130236,0.0321 c -0.4144685,0.10217 -0.6067125,0.391817 -0.5984465,0.901655 0.0031,0.188785 0.03874,0.410459 0.08288,0.514887 0.04263,0.100858 0.0775,0.191432 0.0775,0.201273 0,0.0098 -0.105731,0.0179 -0.234958,0.0179 l -0.234958,0 -0.07287,-0.245388 c -0.07581,-0.255295 -0.09262,-0.917915 -0.02862,-1.128314 z m 1.6724975,0.969214 c 0.375312,-0.08082 0.565306,-0.27485 0.573455,-0.585626 0.0085,-0.325622 -0.204613,-0.564403 -0.573455,-0.642408 l -0.153915,-0.03255 0,0.646866 0,0.646865 0.153915,-0.03315 z m -1.6421375,5.542989 c 0.161771,-0.31025 0.388892,-0.45001 0.7313165,-0.45001 0.528071,0 0.798053,0.391769 0.840393,1.219482 l 0.02483,0.485424 0.134527,0 c 0.08178,0 0.195171,-0.05423 0.289189,-0.138301 0.151428,-0.135407 0.154639,-0.146551 0.153535,-0.532783 -8.1e-4,-0.283999 -0.02436,-0.437588 -0.08409,-0.548397 l -0.08296,-0.153915 0.231767,0 0.231769,0 0.07728,0.275418 c 0.121037,0.431369 0.103089,0.932867 -0.04395,1.22793 -0.09891,0.198484 -0.166002,0.265577 -0.364487,0.364485 -0.236978,0.118093 -0.26811,0.121224 -1.204814,0.121224 l -0.9615515,0 0,-0.284151 0,-0.284151 0.194339,0 0.194341,0 -0.152906,-0.174152 c -0.0841,-0.09578 -0.182207,-0.244275 -0.21802,-0.329989 -0.08702,-0.208259 -0.08209,-0.622466 0.0095,-0.798114 z m 0.438155,0.920465 c 0.108703,0.202694 0.3494935,0.334431 0.6112625,0.334431 0.231459,0 0.230935,0.0018 0.155941,-0.520943 -0.03685,-0.256821 -0.06908,-0.330193 -0.194506,-0.442783 C 10.26849,82.16345 10.209622,82.142148 10.09498,82.165079 9.7581745,82.232439 9.6336775,82.560693 9.8159995,82.900647 Z M 9.3564405,89.0602 c 0.119143,-0.29879 0.400501,-0.47361 0.7622245,-0.47361 0.538324,0 0.792932,0.37314 0.83208,1.21948 0.0198,0.42795 0.03257,0.48542 0.10788,0.48542 0.432646,0 0.643282,-0.52695 0.444578,-1.11223 -0.04028,-0.11864 -0.06034,-0.2366 -0.04456,-0.26212 0.01577,-0.0255 0.103096,-0.0464 0.194053,-0.0464 0.146181,0 0.174092,0.0206 0.240463,0.17759 0.100402,0.23747 0.139293,0.98576 0.06321,1.21628 -0.03214,0.0974 -0.122128,0.24962 -0.199964,0.33827 -0.223197,0.2542 -0.472435,0.30428 -1.514596,0.30428 l -0.8912165,0 0,-0.28416 0,-0.28415 0.220378,0 0.220378,0 -0.17869,-0.17354 c -0.09828,-0.0954 -0.208105,-0.24394 -0.244057,-0.32999 -0.07501,-0.17952 -0.08162,-0.60092 -0.01216,-0.77512 z m 0.503156,0.94304 c 0.121242,0.16555 0.3753545,0.28809 0.5976005,0.28818 l 0.183111,0 -0.03194,-0.31967 c -0.04176,-0.41796 -0.105375,-0.61107 -0.230046,-0.69839 -0.293399,-0.20551 -0.6828585,0.0525 -0.6336045,0.41966 0.01384,0.10321 0.06554,0.24277 0.114881,0.31015 z m -0.506208,5.46247 c 0.06324,-0.20618 0.333438,-0.46816 0.552774,-0.53594 0.098171,-0.0303 0.5993875,-0.0659 1.1138195,-0.079 l 0.93533,-0.0239 0,0.33703 0,0.33704 -0.769888,0 c -0.423439,0 -0.842422,0.0208 -0.931074,0.0462 -0.2593175,0.0744 -0.3828125,0.22182 -0.3828125,0.45707 0,0.28231 0.07304,0.41413 0.3008685,0.54302 0.179667,0.10164 0.26397,0.1127 0.989651,0.12984 l 0.793255,0.0187 0,0.30236 0,0.30237 -1.302359,0 -1.3023585,0 0,-0.28415 0,-0.28415 0.246047,0 0.246047,0 -0.167805,-0.15392 c -0.09229,-0.0847 -0.204801,-0.22558 -0.250019,-0.31316 -0.100015,-0.19373 -0.135507,-0.5907 -0.07148,-0.79947 z m 0.05939,6.08271 c 0.218462,-0.36088 0.6172595,-0.4928 0.9905695,-0.32766 0.116036,0.0513 0.256552,0.15733 0.312256,0.23556 0.145344,0.20412 0.24518,0.63721 0.24518,1.06362 0,0.40976 0.0141,0.42365 0.306205,0.30161 0.08956,-0.0374 0.194027,-0.13101 0.235272,-0.21077 0.100932,-0.19518 0.09348,-0.6173 -0.01598,-0.90538 l -0.09017,-0.2373 0.226984,0 0.226983,0 0.08241,0.30446 c 0.109013,0.40272 0.08235,1.0293 -0.05372,1.26228 -0.222503,0.38098 -0.54388,0.46967 -1.701734,0.46967 l -0.8264435,0 0,-0.28415 0,-0.28415 0.222724,0 0.222725,0 -0.170148,-0.17759 c -0.243847,-0.25452 -0.322696,-0.43926 -0.322417,-0.75538 1.89e-4,-0.20268 0.02883,-0.32189 0.1093,-0.45482 z m 0.431475,1.03375 c 0.11471,0.17506 0.2730235,0.25924 0.5490875,0.29194 l 0.249632,0.0296 -0.03448,-0.34989 c -0.05617,-0.57007 -0.1753,-0.75417 -0.487999,-0.75417 -0.3434345,0 -0.4994335,0.44192 -0.2762425,0.78256 z m 1.2822845,-23.467281 1.775944,0 0,0.355189 0,0.355189 -1.515472,0 -1.5154725,0 0,0.710377 0,0.710377 -0.260472,0 -0.260471,0 0,-1.065566 0,-1.065566 1.7759435,0 z m 0,7.056416 1.775944,0 0,0.331509 0,0.33151 -1.515472,0 -1.5154725,0 0,0.734056 0,0.73406 -0.260472,0 -0.260471,0 0,-1.065569 0,-1.065566 1.7759435,0 z M 10.652953,98.153 l 1.302359,0 0,0.28415 0,0.28416 -0.222725,0 -0.222724,0 0.173054,0.17759 c 0.219043,0.224792 0.319753,0.465732 0.319753,0.764972 0,0.409808 -0.149155,0.654248 -0.497264,0.814908 -0.164623,0.076 -0.318139,0.0876 -1.172122,0.0885 l -0.9826895,0.001 0,-0.30332 0,-0.303308 0.8642925,-0.0174 c 0.952702,-0.0191 1.129421,-0.0644 1.225543,-0.31361 0.08142,-0.21114 0.01869,-0.48995 -0.142688,-0.634152 -0.209919,-0.18758 -0.423787,-0.22732 -1.22493,-0.22761 l -0.7222175,-2.7e-4 0,-0.30783 0,-0.30783 1.3023585,0 z m 4.93141,-25.597262 c 0.01361,-0.0521 0.04578,-0.176566 0.07149,-0.276604 0.06309,-0.245482 0.367647,-0.564305 0.669369,-0.700721 0.237969,-0.107591 0.298386,-0.112508 1.561744,-0.127102 l 1.314198,-0.01518 0,0.329816 0,0.329817 -1.26684,0.01767 c -1.148115,0.01602 -1.284306,0.02647 -1.453217,0.111591 -0.282199,0.142207 -0.380346,0.30698 -0.380346,0.638543 0,0.318274 0.09201,0.482337 0.358561,0.63934 0.148312,0.08736 0.261056,0.09585 1.451323,0.10934 l 1.290519,0.01462 0,0.332681 0,0.332682 -1.290519,-0.01787 c -1.195489,-0.01655 -1.309879,-0.02555 -1.553429,-0.122237 -0.476281,-0.189076 -0.745728,-0.598267 -0.779326,-1.183511 -0.01005,-0.174991 -0.0071,-0.360788 0.0065,-0.412882 z m 0.01685,10.790334 c 0.140483,-0.664667 0.620698,-1.030942 1.350416,-1.03 0.471802,6.16e-4 0.803446,0.132334 1.045696,0.415349 0.445854,0.520881 0.380433,1.412784 -0.130791,1.783113 -0.213463,0.15463 -0.392428,0.21263 -0.808349,0.261978 l -0.272311,0.03231 0,-0.928947 c 0,-0.911958 -0.0018,-0.928946 -0.0994,-0.928946 -0.174329,0 -0.41683,0.146944 -0.521206,0.315829 -0.148152,0.239715 -0.171663,0.677904 -0.05484,1.022049 l 0.09244,0.272311 -0.247499,0 -0.247499,0 -0.05056,-0.201274 c -0.07589,-0.30209 -0.102993,-0.791895 -0.0561,-1.01377 z m 1.659767,0.836176 c 0.161425,0 0.403144,-0.123402 0.511471,-0.261121 0.129406,-0.164513 0.135454,-0.46595 0.01337,-0.666158 -0.09324,-0.152911 -0.352554,-0.304042 -0.521675,-0.304042 -0.09586,0 -0.0994,0.0219 -0.0994,0.615661 0,0.58733 0.0044,0.61566 0.09624,0.61566 z M 15.608366,94.83964 c 0.121289,-0.40724 0.40378,-0.59285 0.852871,-0.56037 0.509287,0.0368 0.73065,0.38527 0.783668,1.2335 0.03205,0.51271 0.05701,0.54018 0.352146,0.38756 0.316427,-0.16363 0.360786,-0.66594 0.111847,-1.26654 -0.03187,-0.0769 -0.01171,-0.0842 0.195581,-0.071 l 0.231112,0.0147 0.08563,0.33151 c 0.182535,0.70666 0.03033,1.30094 -0.394057,1.53855 -0.204893,0.11473 -0.247773,0.11955 -1.195206,0.13426 l -0.982689,0.0153 0,-0.28758 0,-0.28758 0.189434,0 c 0.207835,0 0.238811,-0.0411 0.09749,-0.12935 -0.250301,-0.15631 -0.426407,-0.7219 -0.327833,-1.05288 z m 0.502649,0.8124 c 0.101897,0.17465 0.377825,0.32247 0.601934,0.32247 l 0.167642,0 0,-0.30474 c 0,-0.50134 -0.166147,-0.7845 -0.460314,-0.7845 -0.3417,0 -0.511296,0.42049 -0.309262,0.76677 z M 15.63226,87.68678 c 0.01282,-0.06512 0.04433,-0.199454 0.07002,-0.298518 l 0.04671,-0.180124 0.222448,0.03227 c 0.122345,0.01775 0.226814,0.03569 0.232153,0.03986 0.0053,0.0042 -0.02037,0.09201 -0.05712,0.195207 -0.09417,0.264375 -0.09211,0.799065 0.0034,0.894615 0.175727,0.17572 0.395528,0.0307 0.613746,-0.40502 0.252626,-0.504399 0.474174,-0.704522 0.779947,-0.704522 0.4199,0 0.757796,0.454542 0.756909,1.018212 -2.7e-4,0.17119 -0.107505,0.66874 -0.154196,0.71543 -0.01041,0.0104 -0.116145,0.006 -0.234957,-0.0107 l -0.216022,-0.0296 0.06352,-0.15203 c 0.100423,-0.24035 0.128706,-0.60092 0.05775,-0.73624 -0.07501,-0.14304 -0.276255,-0.18019 -0.371776,-0.0686 -0.03684,0.043 -0.162899,0.26171 -0.280129,0.48596 -0.254026,0.48592 -0.422226,0.62456 -0.757704,0.62456 -0.449218,0 -0.746673,-0.37156 -0.779942,-0.97424 -0.01,-0.18047 -0.0076,-0.3814 0.0052,-0.44652 z m 0.06932,3.99002 c 0.117247,-0.23686 0.315707,-0.41573 0.610712,-0.55042 0.163252,-0.0745 0.312836,-0.0977 0.63934,-0.0991 0.504424,-0.002 0.723452,0.0646 0.984441,0.29994 0.447479,0.40343 0.489541,1.01192 0.101302,1.46549 l -0.169634,0.19818 0.808785,0 0.808785,0 0,0.33151 0,0.33151 -1.918019,0 -1.918019,0 0,-0.30783 0,-0.30783 0.235546,0 0.235546,0 -0.208316,-0.20832 c -0.319114,-0.31912 -0.401064,-0.76812 -0.210468,-1.15317 z m 0.449999,0.91552 c 0.127062,0.26776 0.356733,0.37493 0.803511,0.37493 0.337279,0 0.405384,-0.0153 0.578022,-0.12951 0.258082,-0.17079 0.344912,-0.42488 0.244291,-0.71485 -0.09889,-0.285 -0.37893,-0.43124 -0.826278,-0.4315 -0.408937,-4.7e-4 -0.671334,0.11748 -0.792675,0.35562 -0.102865,0.20188 -0.104598,0.33936 -0.0069,0.54531 z m -0.474161,5.32389 c 0.0988,-0.22811 0.283692,-0.41202 0.563836,-0.56088 0.212975,-0.11316 0.286809,-0.12582 0.734057,-0.12582 0.468691,0 0.512231,0.008 0.757736,0.14699 0.143259,0.0809 0.319467,0.23017 0.391572,0.33182 0.258873,0.36495 0.216786,0.95805 -0.09115,1.28457 -0.08709,0.0923 -0.158344,0.175572 -0.158344,0.184952 0,0.009 0.362293,0.017 0.805094,0.017 l 0.805095,0 0,0.30783 0,0.30783 -1.918019,0 -1.918019,0 0,-0.28415 0,-0.28415 0.241139,0 0.241139,0 -0.206651,-0.201272 C 15.616028,98.74009 15.51649,98.2877 15.677421,97.91616 Z m 0.532031,0.94606 c 0.163021,0.218742 0.376132,0.306452 0.740898,0.304912 0.21156,-9e-4 0.384551,-0.029 0.474869,-0.0771 0.497893,-0.265132 0.530553,-0.857532 0.06129,-1.111742 -0.231202,-0.12525 -0.856383,-0.11917 -1.0795,0.0105 -0.319489,0.18567 -0.41044,0.58777 -0.19756,0.87341 z m 0.742183,-23.772853 1.302358,0 0,0.30783 0,0.307831 -0.230561,0 -0.230561,0 0.20143,0.201429 c 0.456665,0.456666 0.396392,1.217052 -0.119176,1.503476 -0.205605,0.114224 -0.24857,0.118932 -1.219481,0.133603 l -1.006368,0.01521 0,-0.332064 0,-0.332063 0.922525,-0.01466 0.922526,-0.01465 0.131201,-0.131313 c 0.249822,-0.250034 0.144418,-0.707009 -0.204568,-0.886895 -0.102866,-0.05302 -0.344987,-0.07482 -0.95475,-0.08593 l -0.816934,-0.01489 0,-0.328457 0,-0.328457 1.302359,0 z m 0,3.220378 1.302358,0 0,0.331509 0,0.33151 -1.302358,0 -1.302359,0 0,-0.33151 0,-0.331509 1.302359,0 z m -1.292434,2.036415 c 0.0076,0 0.578504,-0.202458 1.268754,-0.449906 0.69025,-0.247448 1.271917,-0.449905 1.292594,-0.449905 0.02068,0 0.03133,0.152901 0.02368,0.339787 l -0.01391,0.339783 -0.591981,0.18189 c -0.32559,0.10004 -0.768187,0.236243 -0.98355,0.302682 -0.215363,0.06644 -0.381967,0.136331 -0.370231,0.155322 0.01174,0.01899 0.45935,0.172087 0.994698,0.340219 l 0.973359,0.305694 6.92e-4,0.31967 c 3.79e-4,0.175818 -0.0046,0.319172 -0.01115,0.318562 -0.0065,-6.16e-4 -0.587246,-0.210244 -1.290519,-0.465852 l -1.27868,-0.464748 -0.01375,-0.386596 c -0.0076,-0.212631 -0.0076,-0.386602 0,-0.386602 z m 1.292434,4.972642 1.302358,0 0,0.281788 0,0.281787 -0.264901,0.0142 -0.2649,0.0142 0.208738,0.146736 c 0.114806,0.0807 0.244667,0.222447 0.28858,0.314986 0.08349,0.175941 0.107677,0.486333 0.0411,0.527479 -0.02131,0.01317 -0.154831,0.01196 -0.29672,-0.0027 l -0.257981,-0.02662 0.01462,-0.172115 c 0.01767,-0.208102 -0.104386,-0.459552 -0.288809,-0.594974 -0.120724,-0.08865 -0.212984,-0.0996 -0.959009,-0.113836 l -0.825435,-0.01574 0,-0.327598 0,-0.327597 1.302359,0 z m 0,4.404338 1.302358,0 0,0.33151 0,0.33151 -1.302358,0 -1.302359,0 0,-0.33151 0,-0.33151 1.302359,0 z m 2.131132,-11.413395 0.30783,0 0,0.331509 0,0.33151 -0.30783,0 -0.307831,0 0,-0.33151 0,-0.331509 0.307831,0 z m 0,11.413395 0.30783,0 0,0.33151 0,0.33151 -0.30783,0 -0.307831,0 0,-0.33151 0,-0.33151 0.307831,0 z"
       style="fill:#000000;fill-opacity:1;stroke:#0000ff;stroke-width:0.21674667;stroke-miterlimit:4;stroke-dasharray:none;stroke-opacity:1" />
    <text
       xml:space="preserve"
       style="font-style:normal;font-weight:normal;font-size:11.75558949px;line-height:125%;font-family:sans-serif;letter-spacing:0px;word-spacing:0px;fill:#0000ff;fill-opacity:1;stroke:none;stroke-width:1px;stroke-linecap:butt;stroke-linejoin:miter;stroke-opacity:1"
       x="-183.15428"
       y="232.11696"
       id="text4258-9"
       sodipodi:linespacing="125%"
       transform="matrix(0,-1.0000001,0.9999999,0,0,0)"><tspan
         sodipodi:role="line"
         x="-183.15428"
         y="232.11696"
         style="font-style:normal;font-variant:normal;font-weight:500;font-stretch:normal;font-size:6.35000038px;line-height:125%;font-family:'Century Schoolbook L';-inkscape-font-specification:'Century Schoolbook L, Medium';text-align:start;writing-mode:lr-tb;text-anchor:start;fill:#0000ff;fill-opacity:1"
         id="tspan4288-5">Iván Rodríguez Méndez - Fernando Luis Rosa González</tspan><tspan
         sodipodi:role="line"
         x="-183.15428"
         y="240.05446"
         style="font-style:normal;font-variant:normal;font-weight:normal;font-stretch:condensed;font-size:7.34724426px;line-height:125%;font-family:'Liberation Sans Narrow';-inkscape-font-specification:'Liberation Sans Narrow, Condensed';text-align:start;writing-mode:lr-tb;text-anchor:start;fill:#0000ff;fill-opacity:1"
         id="tspan4290-7" /></text>
    <flowRoot
       xml:space="preserve"
       id="flowRoot4334"
       style="fill:black;stroke:none;stroke-opacity:1;stroke-width:1px;stroke-linejoin:miter;stroke-linecap:butt;fill-opacity:1;font-family:sans-serif;font-style:normal;font-weight:normal;font-size:40px;line-height:125%;letter-spacing:0px;word-spacing:0px"><flowRegion
         id="flowRegion4336"><rect
           id="rect4338"
           width="24.11437"
           height="112.8991"
           x="876.88623"
           y="489.43985" /></flowRegion><flowPara
         id="flowPara4340"></flowPara></flowRoot>    <text
       xml:space="preserve"
       style="font-style:normal;font-weight:normal;font-size:7.6055131px;line-height:125%;font-family:sans-serif;letter-spacing:0px;word-spacing:0px;fill:#000000;fill-opacity:1;stroke:#0000ff;stroke-width:0.35080224;stroke-linecap:butt;stroke-linejoin:miter;stroke-opacity:1;stroke-miterlimit:4;stroke-dasharray:none"
       x="-177.42903"
       y="248.73006"
       id="text4342"
       sodipodi:linespacing="125%"
       transform="matrix(0,-1.0000001,0.99999991,0,0,0)"><tspan
         sodipodi:role="line"
         id="tspan4344"
         x="-177.42903"
         y="248.73006"
         style="font-style:normal;font-variant:normal;font-weight:normal;font-stretch:normal;font-size:11.28888893px;line-height:125%;font-family:'Ubuntu Condensed';-inkscape-font-specification:'Ubuntu Condensed, Normal';text-align:start;writing-mode:lr-tb;text-anchor:start;stroke:#0000ff;stroke-opacity:1;fill:#000000;fill-opacity:1;stroke-width:0.35080224;stroke-miterlimit:4;stroke-dasharray:none">Soporte móvil para Nvidia Jetson TX2</tspan></text>
  </g>
</svg>
