<?xml version="1.0" standalone="no"?>
 <!DOCTYPE svg PUBLIC "-//W3C//DTD SVG 1.1//EN" 
 "http://www.w3.org/Graphics/SVG/1.1/DTD/svg11.dtd"> 
<svg xmlns="http://www.w3.org/2000/svg" version="1.1" 
    width="29.7002cm" height="21.0007cm" viewBox="0 0 116930 82680 ">
<title>SVG Picture created as Puente_OV5680X1-F.Cu.svg date 2018/04/24 23:51:04 </title>
  <desc>Picture generated by PCBNEW </desc>
<g style="fill:#000000; fill-opacity:1;stroke:#000000; stroke-opacity:1;
stroke-linecap:round; stroke-linejoin:round; "
 transform="translate(0 0) scale(1 1)">
</g>
<g style="fill:#000000; fill-opacity:0.0; 
stroke:#000000; stroke-width:-0.000393701; stroke-opacity:1; 
stroke-linecap:round; stroke-linejoin:round;">
</g>
<g style="fill:#000000; fill-opacity:0.0; 
stroke:#000000; stroke-width:0; stroke-opacity:1; 
stroke-linecap:round; stroke-linejoin:round;">
</g>
<g style="fill:#000000; fill-opacity:1.0; 
stroke:#000000; stroke-width:0; stroke-opacity:1; 
stroke-linecap:round; stroke-linejoin:round;">
<polyline style="fill-rule:evenodd;"
points="68761,38613
68761,37826
67973,37826
67973,38613
68761,38613
" /> 
<polyline style="fill-rule:evenodd;"
points="67186,38613
67186,37826
66398,37826
66398,38613
67186,38613
" /> 
<polyline style="fill-rule:evenodd;"
points="64981,38648
64981,37861
64193,37861
64193,38648
64981,38648
" /> 
<polyline style="fill-rule:evenodd;"
points="63406,38648
63406,37861
62618,37861
62618,38648
63406,38648
" /> 
<polyline style="fill-rule:evenodd;"
points="58348,35315
58348,35944
59136,35944
59136,35315
58348,35315
" /> 
<polyline style="fill-rule:evenodd;"
points="59923,35315
59923,35944
60711,35944
60711,35315
59923,35315
" /> 
<polyline style="fill-rule:evenodd;"
points="65051,33319
65051,32690
64263,32690
64263,33319
65051,33319
" /> 
<polyline style="fill-rule:evenodd;"
points="63476,33319
63476,32690
62688,32690
62688,33319
63476,33319
" /> 
<polyline style="fill-rule:evenodd;"
points="68866,35909
68866,35280
68078,35280
68078,35909
68866,35909
" /> 
<polyline style="fill-rule:evenodd;"
points="67291,35909
67291,35280
66503,35280
66503,35909
67291,35909
" /> 
<polyline style="fill-rule:evenodd;"
points="60641,33354
60641,32725
59853,32725
59853,33354
60641,33354
" /> 
<polyline style="fill-rule:evenodd;"
points="59066,33354
59066,32725
58278,32725
58278,33354
59066,33354
" /> 
<polyline style="fill-rule:evenodd;"
points="68901,33319
68901,32690
68113,32690
68113,33319
68901,33319
" /> 
<polyline style="fill-rule:evenodd;"
points="67326,33319
67326,32690
66538,32690
66538,33319
67326,33319
" /> 
<polyline style="fill-rule:evenodd;"
points="65086,35874
65086,35245
64298,35245
64298,35874
65086,35874
" /> 
<polyline style="fill-rule:evenodd;"
points="63511,35874
63511,35245
62723,35245
62723,35874
63511,35874
" /> 
<polyline style="fill-rule:evenodd;"
points="72744,41490
72075,41490
72075,42159
72744,42159
72744,41490
" /> 
</g>
<g style="fill:#000000; fill-opacity:1.0; 
stroke:#000000; stroke-width:669.291; stroke-opacity:1; 
stroke-linecap:round; stroke-linejoin:round;">
</g>
<g style="fill:#000000; fill-opacity:0.0; 
stroke:#000000; stroke-width:669.291; stroke-opacity:1; 
stroke-linecap:round; stroke-linejoin:round;">
<path d="M71410 41825
L71410 41825
" />
<path d="M70410 41825
L70410 41825
" />
<path d="M69410 41825
L69410 41825
" />
<path d="M68410 41825
L68410 41825
" />
<path d="M67410 41825
L67410 41825
" />
</g>
<g style="fill:#000000; fill-opacity:0.0; 
stroke:#000000; stroke-width:0; stroke-opacity:1; 
stroke-linecap:round; stroke-linejoin:round;">
</g>
<g style="fill:#000000; fill-opacity:1.0; 
stroke:#000000; stroke-width:0; stroke-opacity:1; 
stroke-linecap:round; stroke-linejoin:round;">
<polyline style="fill-rule:evenodd;"
points="76709,30993
76709,31662
77378,31662
77378,30993
76709,30993
" /> 
</g>
<g style="fill:#000000; fill-opacity:1.0; 
stroke:#000000; stroke-width:669.291; stroke-opacity:1; 
stroke-linecap:round; stroke-linejoin:round;">
</g>
<g style="fill:#000000; fill-opacity:0.0; 
stroke:#000000; stroke-width:669.291; stroke-opacity:1; 
stroke-linecap:round; stroke-linejoin:round;">
<path d="M77044 32328
L77044 32328
" />
<path d="M77044 33328
L77044 33328
" />
<path d="M77044 34328
L77044 34328
" />
<path d="M77044 35328
L77044 35328
" />
<path d="M77044 36328
L77044 36328
" />
<path d="M77044 37328
L77044 37328
" />
<path d="M77044 38328
L77044 38328
" />
<path d="M77044 39328
L77044 39328
" />
</g>
<g style="fill:#000000; fill-opacity:0.0; 
stroke:#000000; stroke-width:0; stroke-opacity:1; 
stroke-linecap:round; stroke-linejoin:round;">
</g>
<g style="fill:#000000; fill-opacity:1.0; 
stroke:#000000; stroke-width:0; stroke-opacity:1; 
stroke-linecap:round; stroke-linejoin:round;">
<polyline style="fill-rule:evenodd;"
points="67634,28750
66965,28750
66965,29419
67634,29419
67634,28750
" /> 
</g>
<g style="fill:#000000; fill-opacity:1.0; 
stroke:#000000; stroke-width:669.291; stroke-opacity:1; 
stroke-linecap:round; stroke-linejoin:round;">
</g>
<g style="fill:#000000; fill-opacity:0.0; 
stroke:#000000; stroke-width:669.291; stroke-opacity:1; 
stroke-linecap:round; stroke-linejoin:round;">
<path d="M66300 29085
L66300 29085
" />
<path d="M65300 29085
L65300 29085
" />
</g>
<g style="fill:#000000; fill-opacity:0.0; 
stroke:#000000; stroke-width:0; stroke-opacity:1; 
stroke-linecap:round; stroke-linejoin:round;">
</g>
<g style="fill:#000000; fill-opacity:1.0; 
stroke:#000000; stroke-width:0; stroke-opacity:1; 
stroke-linecap:round; stroke-linejoin:round;">
<polyline style="fill-rule:evenodd;"
points="57834,28855
57165,28855
57165,29524
57834,29524
57834,28855
" /> 
</g>
<g style="fill:#000000; fill-opacity:1.0; 
stroke:#000000; stroke-width:669.291; stroke-opacity:1; 
stroke-linecap:round; stroke-linejoin:round;">
</g>
<g style="fill:#000000; fill-opacity:0.0; 
stroke:#000000; stroke-width:669.291; stroke-opacity:1; 
stroke-linecap:round; stroke-linejoin:round;">
<path d="M56500 29190
L56500 29190
" />
<path d="M55500 29190
L55500 29190
" />
</g>
<g style="fill:#000000; fill-opacity:0.0; 
stroke:#000000; stroke-width:0; stroke-opacity:1; 
stroke-linecap:round; stroke-linejoin:round;">
</g>
<g style="fill:#000000; fill-opacity:1.0; 
stroke:#000000; stroke-width:0; stroke-opacity:1; 
stroke-linecap:round; stroke-linejoin:round;">
<polyline style="fill-rule:evenodd;"
points="52246,37719
52561,37719
52561,37640
52246,37640
52246,37719
" /> 
<polyline style="fill-rule:evenodd;"
points="52246,37522
52561,37522
52561,37444
52246,37444
52246,37522
" /> 
<polyline style="fill-rule:evenodd;"
points="52246,37326
52561,37326
52561,37247
52246,37247
52246,37326
" /> 
<polyline style="fill-rule:evenodd;"
points="52246,37129
52561,37129
52561,37050
52246,37050
52246,37129
" /> 
<polyline style="fill-rule:evenodd;"
points="52246,36932
52561,36932
52561,36853
52246,36853
52246,36932
" /> 
<polyline style="fill-rule:evenodd;"
points="52246,36735
52561,36735
52561,36656
52246,36656
52246,36735
" /> 
<polyline style="fill-rule:evenodd;"
points="52246,36538
52561,36538
52561,36459
52246,36459
52246,36538
" /> 
<polyline style="fill-rule:evenodd;"
points="52246,36341
52561,36341
52561,36263
52246,36263
52246,36341
" /> 
<polyline style="fill-rule:evenodd;"
points="52246,36144
52561,36144
52561,36066
52246,36066
52246,36144
" /> 
<polyline style="fill-rule:evenodd;"
points="52246,35948
52561,35948
52561,35869
52246,35869
52246,35948
" /> 
<polyline style="fill-rule:evenodd;"
points="52246,35751
52561,35751
52561,35672
52246,35672
52246,35751
" /> 
<polyline style="fill-rule:evenodd;"
points="52246,35554
52561,35554
52561,35475
52246,35475
52246,35554
" /> 
<polyline style="fill-rule:evenodd;"
points="52246,35357
52561,35357
52561,35278
52246,35278
52246,35357
" /> 
<polyline style="fill-rule:evenodd;"
points="52246,35160
52561,35160
52561,35081
52246,35081
52246,35160
" /> 
<polyline style="fill-rule:evenodd;"
points="52246,34963
52561,34963
52561,34885
52246,34885
52246,34963
" /> 
<polyline style="fill-rule:evenodd;"
points="52246,34766
52561,34766
52561,34688
52246,34688
52246,34766
" /> 
<polyline style="fill-rule:evenodd;"
points="52246,34570
52561,34570
52561,34491
52246,34491
52246,34570
" /> 
<polyline style="fill-rule:evenodd;"
points="52246,34373
52561,34373
52561,34294
52246,34294
52246,34373
" /> 
<polyline style="fill-rule:evenodd;"
points="52246,34176
52561,34176
52561,34097
52246,34097
52246,34176
" /> 
<polyline style="fill-rule:evenodd;"
points="52246,33979
52561,33979
52561,33900
52246,33900
52246,33979
" /> 
<polyline style="fill-rule:evenodd;"
points="52246,33782
52561,33782
52561,33703
52246,33703
52246,33782
" /> 
<polyline style="fill-rule:evenodd;"
points="52246,33585
52561,33585
52561,33507
52246,33507
52246,33585
" /> 
<polyline style="fill-rule:evenodd;"
points="52246,33388
52561,33388
52561,33310
52246,33310
52246,33388
" /> 
<polyline style="fill-rule:evenodd;"
points="52246,33192
52561,33192
52561,33113
52246,33113
52246,33192
" /> 
<polyline style="fill-rule:evenodd;"
points="52246,32995
52561,32995
52561,32916
52246,32916
52246,32995
" /> 
<polyline style="fill-rule:evenodd;"
points="52246,32798
52561,32798
52561,32719
52246,32719
52246,32798
" /> 
<polyline style="fill-rule:evenodd;"
points="52246,32601
52561,32601
52561,32522
52246,32522
52246,32601
" /> 
<polyline style="fill-rule:evenodd;"
points="52246,32404
52561,32404
52561,32326
52246,32326
52246,32404
" /> 
<polyline style="fill-rule:evenodd;"
points="52246,32207
52561,32207
52561,32129
52246,32129
52246,32207
" /> 
<polyline style="fill-rule:evenodd;"
points="52246,32011
52561,32011
52561,31932
52246,31932
52246,32011
" /> 
<polyline style="fill-rule:evenodd;"
points="51026,38723
51813,38723
51813,38133
51026,38133
51026,38723
" /> 
<polyline style="fill-rule:evenodd;"
points="51026,31518
51813,31518
51813,30928
51026,30928
51026,31518
" /> 
<circle cx="56378" cy="35584" r="236.22" /> 
</g>
<g style="fill:#000000; fill-opacity:1.0; 
stroke:#000000; stroke-width:39.3701; stroke-opacity:1; 
stroke-linecap:round; stroke-linejoin:round;">
</g>
<g style="fill:#000000; fill-opacity:1.0; 
stroke:#000000; stroke-width:0; stroke-opacity:1; 
stroke-linecap:round; stroke-linejoin:round;">
<circle cx="72125" cy="34395" r="275.591" /> 
</g>
<g style="fill:#000000; fill-opacity:1.0; 
stroke:#000000; stroke-width:39.3701; stroke-opacity:1; 
stroke-linecap:round; stroke-linejoin:round;">
</g>
<g style="fill:#000000; fill-opacity:1.0; 
stroke:#000000; stroke-width:0; stroke-opacity:1; 
stroke-linecap:round; stroke-linejoin:round;">
<circle cx="56331" cy="36212" r="236.22" /> 
</g>
<g style="fill:#000000; fill-opacity:1.0; 
stroke:#000000; stroke-width:39.3701; stroke-opacity:1; 
stroke-linecap:round; stroke-linejoin:round;">
</g>
<g style="fill:#000000; fill-opacity:1.0; 
stroke:#000000; stroke-width:0; stroke-opacity:1; 
stroke-linecap:round; stroke-linejoin:round;">
<circle cx="71960" cy="36270" r="275.591" /> 
</g>
<g style="fill:#000000; fill-opacity:1.0; 
stroke:#000000; stroke-width:39.3701; stroke-opacity:1; 
stroke-linecap:round; stroke-linejoin:round;">
</g>
<g style="fill:#000000; fill-opacity:1.0; 
stroke:#000000; stroke-width:0; stroke-opacity:1; 
stroke-linecap:round; stroke-linejoin:round;">
<circle cx="56338" cy="36856" r="236.22" /> 
</g>
<g style="fill:#000000; fill-opacity:1.0; 
stroke:#000000; stroke-width:39.3701; stroke-opacity:1; 
stroke-linecap:round; stroke-linejoin:round;">
</g>
<g style="fill:#000000; fill-opacity:1.0; 
stroke:#000000; stroke-width:0; stroke-opacity:1; 
stroke-linecap:round; stroke-linejoin:round;">
<circle cx="71940" cy="37334" r="275.591" /> 
</g>
<g style="fill:#000000; fill-opacity:1.0; 
stroke:#000000; stroke-width:39.3701; stroke-opacity:1; 
stroke-linecap:round; stroke-linejoin:round;">
</g>
<g style="fill:#000000; fill-opacity:1.0; 
stroke:#000000; stroke-width:0; stroke-opacity:1; 
stroke-linecap:round; stroke-linejoin:round;">
<circle cx="56370" cy="34344" r="236.22" /> 
</g>
<g style="fill:#000000; fill-opacity:1.0; 
stroke:#000000; stroke-width:39.3701; stroke-opacity:1; 
stroke-linecap:round; stroke-linejoin:round;">
</g>
<g style="fill:#000000; fill-opacity:1.0; 
stroke:#000000; stroke-width:0; stroke-opacity:1; 
stroke-linecap:round; stroke-linejoin:round;">
<circle cx="72125" cy="31320" r="275.591" /> 
</g>
<g style="fill:#000000; fill-opacity:1.0; 
stroke:#000000; stroke-width:39.3701; stroke-opacity:1; 
stroke-linecap:round; stroke-linejoin:round;">
</g>
<g style="fill:#000000; fill-opacity:1.0; 
stroke:#000000; stroke-width:0; stroke-opacity:1; 
stroke-linecap:round; stroke-linejoin:round;">
<circle cx="56362" cy="34952" r="236.22" /> 
</g>
<g style="fill:#000000; fill-opacity:1.0; 
stroke:#000000; stroke-width:39.3701; stroke-opacity:1; 
stroke-linecap:round; stroke-linejoin:round;">
</g>
<g style="fill:#000000; fill-opacity:1.0; 
stroke:#000000; stroke-width:0; stroke-opacity:1; 
stroke-linecap:round; stroke-linejoin:round;">
<circle cx="72170" cy="32355" r="275.591" /> 
</g>
<g style="fill:#000000; fill-opacity:1.0; 
stroke:#000000; stroke-width:39.3701; stroke-opacity:1; 
stroke-linecap:round; stroke-linejoin:round;">
</g>
<g style="fill:#000000; fill-opacity:1.0; 
stroke:#000000; stroke-width:0; stroke-opacity:1; 
stroke-linecap:round; stroke-linejoin:round;">
<circle cx="56330" cy="37472" r="236.22" /> 
</g>
<g style="fill:#000000; fill-opacity:1.0; 
stroke:#000000; stroke-width:39.3701; stroke-opacity:1; 
stroke-linecap:round; stroke-linejoin:round;">
</g>
<g style="fill:#000000; fill-opacity:1.0; 
stroke:#000000; stroke-width:0; stroke-opacity:1; 
stroke-linecap:round; stroke-linejoin:round;">
<circle cx="71870" cy="38280" r="275.591" /> 
</g>
<g style="fill:#000000; fill-opacity:1.0; 
stroke:#000000; stroke-width:39.3701; stroke-opacity:1; 
stroke-linecap:round; stroke-linejoin:round;">
</g>
<g style="fill:#000000; fill-opacity:1.0; 
stroke:#000000; stroke-width:0; stroke-opacity:1; 
stroke-linecap:round; stroke-linejoin:round;">
<circle cx="53867" cy="30855" r="275.591" /> 
</g>
<g style="fill:#000000; fill-opacity:1.0; 
stroke:#000000; stroke-width:39.3701; stroke-opacity:1; 
stroke-linecap:round; stroke-linejoin:round;">
</g>
<g style="fill:#000000; fill-opacity:1.0; 
stroke:#000000; stroke-width:0; stroke-opacity:1; 
stroke-linecap:round; stroke-linejoin:round;">
<circle cx="56298" cy="38225" r="236.22" /> 
</g>
<g style="fill:#000000; fill-opacity:1.0; 
stroke:#000000; stroke-width:39.3701; stroke-opacity:1; 
stroke-linecap:round; stroke-linejoin:round;">
</g>
<g style="fill:#000000; fill-opacity:1.0; 
stroke:#000000; stroke-width:98.4252; stroke-opacity:1; 
stroke-linecap:round; stroke-linejoin:round;">
</g>
<g style="fill:#000000; fill-opacity:0.0; 
stroke:#000000; stroke-width:98.4252; stroke-opacity:1; 
stroke-linecap:round; stroke-linejoin:round;">
<path d="M52404 33940
L51784 33940
" />
<path d="M51784 33940
L51783 33939
" />
<path d="M52404 34137
L52404 33940
" />
<path d="M52404 35121
L51834 35121
" />
<path d="M51834 35121
L51779 35177
" />
<path d="M52404 35318
L52404 35121
" />
<path d="M52404 36302
L51863 36302
" />
<path d="M51863 36302
L51836 36330
" />
<path d="M52404 36499
L52404 36302
" />
</g>
<g style="fill:#000000; fill-opacity:0.0; 
stroke:#000000; stroke-width:118.11; stroke-opacity:1; 
stroke-linecap:round; stroke-linejoin:round;">
<path d="M52404 37680
L52404 38147
" />
<path d="M52404 38147
L52413 38156
" />
<path d="M52404 37483
L52404 37680
" />
<path d="M52404 35711
L52404 35514
" />
</g>
<g style="fill:#000000; fill-opacity:0.0; 
stroke:#000000; stroke-width:314.961; stroke-opacity:1; 
stroke-linecap:round; stroke-linejoin:round;">
<path d="M77044 34328
L72195 34325
" />
</g>
<g style="fill:#000000; fill-opacity:0.0; 
stroke:#000000; stroke-width:118.11; stroke-opacity:1; 
stroke-linecap:round; stroke-linejoin:round;">
<path d="M56308 35514
L52404 35514
" />
<path d="M56378 35584
L56308 35514
" />
</g>
<g style="fill:#000000; fill-opacity:0.0; 
stroke:#000000; stroke-width:236.22; stroke-opacity:1; 
stroke-linecap:round; stroke-linejoin:round;">
<path d="M72195 34325
L72125 34395
" />
</g>
<g style="fill:#000000; fill-opacity:0.0; 
stroke:#000000; stroke-width:118.11; stroke-opacity:1; 
stroke-linecap:round; stroke-linejoin:round;">
<path d="M52404 36105
L52404 35908
" />
</g>
<g style="fill:#000000; fill-opacity:0.0; 
stroke:#000000; stroke-width:314.961; stroke-opacity:1; 
stroke-linecap:round; stroke-linejoin:round;">
<path d="M77044 35328
L72905 35325
" />
</g>
<g style="fill:#000000; fill-opacity:0.0; 
stroke:#000000; stroke-width:118.11; stroke-opacity:1; 
stroke-linecap:round; stroke-linejoin:round;">
<path d="M56027 35908
L52404 35908
" />
<path d="M56331 36212
L56027 35908
" />
</g>
<g style="fill:#000000; fill-opacity:0.0; 
stroke:#000000; stroke-width:314.961; stroke-opacity:1; 
stroke-linecap:round; stroke-linejoin:round;">
<path d="M72905 35325
L71960 36270
" />
</g>
<g style="fill:#000000; fill-opacity:0.0; 
stroke:#000000; stroke-width:118.11; stroke-opacity:1; 
stroke-linecap:round; stroke-linejoin:round;">
<path d="M52404 36892
L52404 36696
" />
</g>
<g style="fill:#000000; fill-opacity:0.0; 
stroke:#000000; stroke-width:314.961; stroke-opacity:1; 
stroke-linecap:round; stroke-linejoin:round;">
<path d="M77044 37328
L71949 37325
" />
</g>
<g style="fill:#000000; fill-opacity:0.0; 
stroke:#000000; stroke-width:118.11; stroke-opacity:1; 
stroke-linecap:round; stroke-linejoin:round;">
<path d="M56178 36696
L52404 36696
" />
<path d="M56338 36856
L56178 36696
" />
</g>
<g style="fill:#000000; fill-opacity:0.0; 
stroke:#000000; stroke-width:236.22; stroke-opacity:1; 
stroke-linecap:round; stroke-linejoin:round;">
<path d="M71949 37325
L71940 37334
" />
</g>
<g style="fill:#000000; fill-opacity:0.0; 
stroke:#000000; stroke-width:118.11; stroke-opacity:1; 
stroke-linecap:round; stroke-linejoin:round;">
<path d="M52404 34530
L52404 34333
" />
</g>
<g style="fill:#000000; fill-opacity:0.0; 
stroke:#000000; stroke-width:314.961; stroke-opacity:1; 
stroke-linecap:round; stroke-linejoin:round;">
<path d="M77044 31328
L72130 31325
" />
</g>
<g style="fill:#000000; fill-opacity:0.0; 
stroke:#000000; stroke-width:118.11; stroke-opacity:1; 
stroke-linecap:round; stroke-linejoin:round;">
<path d="M56359 34333
L52404 34333
" />
<path d="M56370 34344
L56359 34333
" />
</g>
<g style="fill:#000000; fill-opacity:0.0; 
stroke:#000000; stroke-width:236.22; stroke-opacity:1; 
stroke-linecap:round; stroke-linejoin:round;">
<path d="M72130 31325
L72125 31320
" />
</g>
<g style="fill:#000000; fill-opacity:0.0; 
stroke:#000000; stroke-width:118.11; stroke-opacity:1; 
stroke-linecap:round; stroke-linejoin:round;">
<path d="M52404 34727
L52404 34924
" />
</g>
<g style="fill:#000000; fill-opacity:0.0; 
stroke:#000000; stroke-width:314.961; stroke-opacity:1; 
stroke-linecap:round; stroke-linejoin:round;">
<path d="M77044 32328
L72200 32325
" />
</g>
<g style="fill:#000000; fill-opacity:0.0; 
stroke:#000000; stroke-width:118.11; stroke-opacity:1; 
stroke-linecap:round; stroke-linejoin:round;">
<path d="M56137 34727
L52404 34727
" />
<path d="M56362 34952
L56137 34727
" />
</g>
<g style="fill:#000000; fill-opacity:0.0; 
stroke:#000000; stroke-width:236.22; stroke-opacity:1; 
stroke-linecap:round; stroke-linejoin:round;">
<path d="M72200 32325
L72170 32355
" />
</g>
<g style="fill:#000000; fill-opacity:0.0; 
stroke:#000000; stroke-width:118.11; stroke-opacity:1; 
stroke-linecap:round; stroke-linejoin:round;">
<path d="M52404 32955
L52404 32759
" />
<path d="M56500 29190
L56500 30206
" />
<path d="M53946 32759
L52404 32759
" />
<path d="M56500 30206
L53946 32759
" />
</g>
<g style="fill:#000000; fill-opacity:0.0; 
stroke:#000000; stroke-width:98.4252; stroke-opacity:1; 
stroke-linecap:round; stroke-linejoin:round;">
<path d="M52404 32562
L52404 32365
" />
</g>
<g style="fill:#000000; fill-opacity:0.0; 
stroke:#000000; stroke-width:118.11; stroke-opacity:1; 
stroke-linecap:round; stroke-linejoin:round;">
<path d="M55500 29190
L55500 30278
" />
<path d="M53412 32365
L52404 32365
" />
<path d="M55500 30278
L53412 32365
" />
</g>
<g style="fill:#000000; fill-opacity:0.0; 
stroke:#000000; stroke-width:236.22; stroke-opacity:1; 
stroke-linecap:round; stroke-linejoin:round;">
<path d="M64692 35560
L64692 36353
" />
<path d="M60160 37048
L58742 35630
" />
<path d="M63998 37048
L60160 37048
" />
<path d="M64692 36353
L63998 37048
" />
</g>
<g style="fill:#000000; fill-opacity:0.0; 
stroke:#000000; stroke-width:118.11; stroke-opacity:1; 
stroke-linecap:round; stroke-linejoin:round;">
<path d="M68507 33005
L68195 33005
" />
</g>
<g style="fill:#000000; fill-opacity:0.0; 
stroke:#000000; stroke-width:236.22; stroke-opacity:1; 
stroke-linecap:round; stroke-linejoin:round;">
<path d="M68195 33005
L67034 34166
" />
<path d="M66086 34166
L64692 35560
" />
<path d="M67034 34166
L66086 34166
" />
<path d="M68472 35595
L68472 33040
" />
</g>
<g style="fill:#000000; fill-opacity:0.0; 
stroke:#000000; stroke-width:118.11; stroke-opacity:1; 
stroke-linecap:round; stroke-linejoin:round;">
<path d="M68472 33040
L68507 33005
" />
</g>
<g style="fill:#000000; fill-opacity:0.0; 
stroke:#000000; stroke-width:236.22; stroke-opacity:1; 
stroke-linecap:round; stroke-linejoin:round;">
<path d="M68367 38220
L68367 35700
" />
</g>
<g style="fill:#000000; fill-opacity:0.0; 
stroke:#000000; stroke-width:118.11; stroke-opacity:1; 
stroke-linecap:round; stroke-linejoin:round;">
<path d="M68367 35700
L68472 35595
" />
</g>
<g style="fill:#000000; fill-opacity:0.0; 
stroke:#000000; stroke-width:236.22; stroke-opacity:1; 
stroke-linecap:round; stroke-linejoin:round;">
<path d="M71410 41825
L71410 41262
" />
<path d="M71410 41262
L68367 38220
" />
</g>
<g style="fill:#000000; fill-opacity:0.0; 
stroke:#000000; stroke-width:118.11; stroke-opacity:1; 
stroke-linecap:round; stroke-linejoin:round;">
<path d="M52404 37286
L52404 37089
" />
</g>
<g style="fill:#000000; fill-opacity:0.0; 
stroke:#000000; stroke-width:314.961; stroke-opacity:1; 
stroke-linecap:round; stroke-linejoin:round;">
<path d="M77044 38328
L71915 38325
" />
</g>
<g style="fill:#000000; fill-opacity:0.0; 
stroke:#000000; stroke-width:118.11; stroke-opacity:1; 
stroke-linecap:round; stroke-linejoin:round;">
<path d="M55947 37089
L52404 37089
" />
<path d="M56330 37472
L55947 37089
" />
</g>
<g style="fill:#000000; fill-opacity:0.0; 
stroke:#000000; stroke-width:236.22; stroke-opacity:1; 
stroke-linecap:round; stroke-linejoin:round;">
<path d="M71915 38325
L71870 38280
" />
</g>
<g style="fill:#000000; fill-opacity:0.0; 
stroke:#000000; stroke-width:118.11; stroke-opacity:1; 
stroke-linecap:round; stroke-linejoin:round;">
<path d="M52404 33349
L52404 33152
" />
<path d="M65300 29085
L59377 29085
" />
<path d="M55309 33152
L52404 33152
" />
<path d="M59377 29085
L55309 33152
" />
<path d="M52404 33743
L52404 33546
" />
<path d="M66300 29085
L66300 29312
" />
<path d="M66300 29312
L65538 30074
" />
<path d="M65538 30074
L58904 30074
" />
<path d="M58904 30074
L55431 33546
" />
<path d="M55431 33546
L52404 33546
" />
<path d="M52404 32168
L52404 31971
" />
</g>
<g style="fill:#000000; fill-opacity:0.0; 
stroke:#000000; stroke-width:236.22; stroke-opacity:1; 
stroke-linecap:round; stroke-linejoin:round;">
<path d="M69410 41825
L69410 42510
" />
</g>
<g style="fill:#000000; fill-opacity:0.0; 
stroke:#000000; stroke-width:118.11; stroke-opacity:1; 
stroke-linecap:round; stroke-linejoin:round;">
<path d="M52404 31196
L52404 31971
" />
<path d="M53009 30591
L52404 31196
" />
<path d="M53603 30591
L53009 30591
" />
<path d="M53867 30855
L53603 30591
" />
</g>
<g style="fill:#000000; fill-opacity:0.0; 
stroke:#000000; stroke-width:236.22; stroke-opacity:1; 
stroke-linecap:round; stroke-linejoin:round;">
<path d="M56298 39644
L56298 38225
" />
<path d="M59424 42770
L56298 39644
" />
<path d="M69150 42770
L59424 42770
" />
<path d="M69410 42510
L69150 42770
" />
<path d="M60247 33040
L60247 32439
" />
<path d="M63352 39490
L64587 38255
" />
<path d="M60016 39490
L63352 39490
" />
<path d="M57574 37048
L60016 39490
" />
<path d="M57574 32780
L57574 37048
" />
<path d="M58322 32032
L57574 32780
" />
<path d="M59840 32032
L58322 32032
" />
<path d="M60247 32439
L59840 32032
" />
<path d="M64657 33005
L64657 33990
" />
<path d="M60247 34023
L60247 33040
" />
<path d="M60698 34474
L60247 34023
" />
<path d="M64174 34474
L60698 34474
" />
<path d="M64657 33990
L64174 34474
" />
<path d="M64587 38255
L64587 40717
" />
<path d="M64587 40717
L65695 41825
" />
<path d="M65695 41825
L67410 41825
" />
</g>
<g style="fill:#000000; fill-opacity:1.0; 
stroke:#000000; stroke-width:118.11; stroke-opacity:1; 
stroke-linecap:round; stroke-linejoin:round;">
<polyline style="fill-rule:evenodd;"
points="50246,43061
59268,43061
59187,43006
58582,42401
51700,42401
51602,42640
51419,42823
51180,42922
50922,42922
50683,42824
50500,42641
50401,42402
50401,42144
50499,41905
50682,41722
50921,41623
51179,41623
51418,41721
51601,41904
51700,42143
51700,42401
58582,42401
56061,39880
55988,39772
55963,39644
55963,38530
55934,38502
52029,38502
52029,38766
51997,38846
51936,38907
51856,38940
51493,38940
51439,38886
51439,38448
51400,38448
51400,38886
51345,38940
50982,38940
50903,38907
50842,38846
50809,38766
50809,38502
50863,38448
51400,38448
51439,38448
51975,38448
52029,38502
55934,38502
55914,38481
55845,38315
55845,38135
55863,38090
52029,38090
52029,38354
51975,38408
51439,38408
51439,37970
51400,37970
51400,38408
50863,38408
50809,38354
50809,38090
50842,38010
50903,37949
50982,37916
51345,37916
51400,37970
51439,37970
51493,37916
51856,37916
51936,37949
51997,38010
52029,38090
55863,38090
55913,37968
56041,37841
56053,37836
55946,37728
55877,37562
55877,37408
55833,37365
52774,37365
52771,37384
52778,37401
52778,37409
52741,37446
52719,37479
52711,37485
52745,37518
52749,37528
52778,37557
52778,37565
52771,37581
52778,37597
52778,37606
52749,37635
52745,37645
52690,37700
52723,37700
52778,37754
52778,37762
52745,37842
52684,37903
52604,37936
52477,37936
52423,37882
52423,37700
52438,37700
52423,37685
52423,37652
52384,37652
52384,37685
52369,37700
52384,37700
52384,37882
52330,37936
52203,37936
52123,37903
52062,37842
52029,37762
52029,37754
52084,37700
52117,37700
52062,37645
52058,37635
52029,37606
52029,37597
52036,37581
52029,37565
52029,37557
52058,37528
52062,37518
52095,37485
52092,37484
52066,37446
52029,37409
52029,37401
52037,37383
52025,37326
52025,37247
52037,37186
52025,37129
52025,37050
52037,36989
52025,36932
52025,36853
52037,36792
52025,36735
52025,36656
52036,36598
52029,36581
52029,36573
52066,36536
52088,36502
52096,36497
52062,36464
52058,36454
52029,36425
52029,36416
52036,36400
52029,36384
52029,36376
52058,36347
52062,36337
52095,36304
52092,36303
52066,36265
52029,36228
52029,36219
52037,36202
52025,36144
52025,36066
52037,36004
52025,35948
52025,35869
52037,35808
52025,35751
52025,35672
52037,35611
52025,35554
52025,35475
52036,35416
52029,35400
52029,35391
52066,35355
52088,35321
52096,35316
52062,35283
52058,35273
52029,35244
52029,35235
52036,35219
52029,35203
52029,35195
52058,35166
52062,35156
52095,35123
52092,35122
52066,35084
52029,35047
52029,35038
52037,35021
52025,34963
52025,34885
52037,34823
52025,34766
52025,34688
52037,34626
52025,34570
52025,34491
52037,34430
52025,34373
52025,34294
52036,34235
52029,34219
52029,34210
52066,34174
52088,34140
52096,34135
52062,34102
52058,34091
52029,34063
52029,34054
52036,34038
52029,34022
52029,34013
52058,33985
52062,33974
52095,33942
52092,33940
52066,33903
52029,33866
52029,33857
52037,33839
52025,33782
52025,33703
52037,33642
52025,33585
52025,33507
52037,33445
52025,33388
52025,33310
52037,33249
52025,33192
52025,33113
52037,33052
52025,32995
52025,32916
52037,32855
52025,32798
52025,32719
52037,32658
52025,32601
52025,32522
52037,32461
52025,32404
52025,32326
52037,32264
52025,32207
52025,32129
52037,32067
52025,32011
52025,31932
52040,31852
52088,31778
52128,31750
52128,31297
52029,31297
52029,31561
51997,31641
51936,31702
51856,31735
51493,31735
51439,31681
51439,31243
51400,31243
51400,31681
51345,31735
50982,31735
50903,31702
50842,31641
50809,31561
50809,31297
50863,31243
51400,31243
51439,31243
51975,31243
52029,31297
52128,31297
52128,31196
52149,31090
52149,31090
52209,31001
52324,30885
52029,30885
52029,31149
51975,31203
51439,31203
51439,30765
51400,30765
51400,31203
50863,31203
50809,31149
50809,30885
50842,30805
50903,30744
50982,30711
51345,30711
51400,30765
51439,30765
51493,30711
51856,30711
51936,30744
51997,30805
52029,30885
52324,30885
52814,30396
52903,30336
53009,30315
53603,30315
53708,30336
53756,30368
53768,30362
53964,30362
54145,30437
54283,30575
54359,30756
54359,30952
54305,31082
55224,30163
55224,29666
55110,29590
54990,29411
54948,29200
54948,29179
54990,28968
55110,28789
55249,28696
51659,28696
51561,28935
51378,29118
51139,29217
50881,29217
50642,29119
50459,28936
50360,28697
50360,28439
50458,28200
50641,28017
50880,27918
51138,27918
51377,28016
51560,28199
51659,28438
51659,28696
55249,28696
55289,28669
55500,28628
55710,28669
55889,28789
56000,28954
56110,28789
56289,28669
56500,28628
56710,28669
56889,28789
56948,28877
56948,28812
56981,28732
57042,28671
57122,28638
57426,28638
57480,28692
57480,29170
57472,29170
57472,29209
57480,29209
57480,29687
57426,29741
57122,29741
57042,29708
56981,29647
56948,29567
56948,29502
56889,29590
56775,29666
56775,30206
56754,30311
56694,30400
54218,32877
55195,32877
58808,29263
58051,29263
58051,29567
58018,29647
57957,29708
57877,29741
57573,29741
57519,29687
57519,29209
57997,29209
58051,29263
58808,29263
59182,28890
59271,28830
59362,28812
58051,28812
58051,29116
57997,29170
57519,29170
57519,28692
57573,28638
57877,28638
57957,28671
58018,28732
58051,28812
59362,28812
59377,28809
64826,28809
64910,28684
65089,28564
65300,28523
65510,28564
65689,28684
65800,28849
65910,28684
66089,28564
66300,28523
66510,28564
66689,28684
66748,28772
66748,28707
66781,28627
66842,28566
66922,28533
67226,28533
67280,28587
67280,29065
67272,29065
67272,29104
67280,29104
67280,29582
67226,29636
66922,29636
66842,29603
66781,29542
66748,29462
66748,29397
66689,29485
66510,29605
66368,29633
65732,30268
65643,30328
65538,30349
59018,30349
55626,33741
55536,33801
55431,33822
55431,33822
52774,33822
52771,33841
52778,33857
52778,33866
52741,33902
52719,33936
52711,33941
52745,33974
52749,33985
52778,34013
52778,34022
52771,34038
52778,34054
52778,34058
56015,34058
56113,33960
56279,33891
56459,33891
56626,33959
56753,34087
56822,34253
56822,34433
56754,34600
56702,34651
56745,34695
56814,34861
56814,35041
56746,35208
56694,35259
56761,35327
56830,35493
56830,35673
56762,35840
56680,35921
56714,35955
56783,36121
56783,36301
56715,36468
56652,36530
56721,36599
56790,36765
56790,36945
56722,37112
56666,37167
56713,37215
56782,37381
56782,37561
56714,37728
56586,37855
56574,37860
56681,37968
56750,38134
56750,38314
56682,38481
56632,38530
56632,39505
59562,42435
69011,42435
69075,42371
69075,42262
69020,42225
68902,42049
68869,42129
68717,42282
68519,42365
68515,42365
68429,42321
68429,41844
68437,41844
68437,41805
68429,41805
68429,41328
68390,41328
68390,41805
68382,41805
68382,41844
68390,41844
68390,42321
68304,42365
68300,42365
68102,42282
67950,42129
67917,42049
67799,42225
67620,42345
67410,42386
67199,42345
67020,42225
66976,42159
65695,42159
65566,42134
65458,42061
64350,40954
64278,40845
64252,40717
64252,39062
63589,39726
63589,39726
63498,39787
63480,39799
63352,39824
63352,39824
60016,39824
59887,39799
59779,39726
57337,37284
57264,37176
57239,37048
57239,32780
57239,32780
57264,32651
57337,32543
58085,31795
58193,31722
58322,31697
59840,31697
59968,31722
60076,31795
60484,32202
60556,32311
60582,32439
60582,32504
60641,32504
60721,32519
60795,32566
60844,32639
60861,32725
60861,33354
60846,33435
60799,33508
60726,33558
60641,33575
60582,33575
60582,33884
60836,34139
64035,34139
64322,33851
64322,33540
64263,33540
64183,33525
64109,33478
64060,33405
64042,33319
64042,33078
63692,33078
63692,33363
63659,33442
63598,33503
63519,33536
63156,33536
63102,33482
63102,33024
63062,33024
63062,33482
63008,33536
62645,33536
62566,33503
62505,33442
62472,33363
62472,33078
62526,33024
63062,33024
63102,33024
63638,33024
63692,33078
64042,33078
64042,32690
64051,32646
63692,32646
63692,32931
63638,32985
63102,32985
63102,32527
63062,32527
63062,32985
62526,32985
62472,32931
62472,32646
62505,32567
62566,32506
62645,32473
63008,32473
63062,32527
63102,32527
63156,32473
63519,32473
63598,32506
63659,32567
63692,32646
64051,32646
64058,32609
64105,32536
64177,32486
64263,32469
65051,32469
65131,32484
65205,32531
65254,32604
65271,32690
65271,33319
65256,33400
65209,33473
65136,33523
65051,33540
64992,33540
64992,33990
64966,34118
64894,34227
64410,34710
64302,34783
64174,34808
60698,34808
60569,34783
60461,34710
60010,34260
59938,34151
59912,34023
59912,34023
59912,33575
59853,33575
59773,33560
59699,33513
59650,33440
59632,33354
59632,33113
59282,33113
59282,33398
59249,33477
59188,33538
59109,33571
58746,33571
58692,33517
58692,33059
58652,33059
58652,33517
58598,33571
58235,33571
58156,33538
58095,33477
58062,33398
58062,33113
58116,33059
58652,33059
58692,33059
59228,33059
59282,33113
59632,33113
59632,32725
59641,32681
59282,32681
59282,32966
59228,33020
58692,33020
58692,32562
58746,32508
59109,32508
59188,32541
59249,32602
59282,32681
59641,32681
59648,32644
59695,32571
59767,32521
59841,32506
59701,32366
58460,32366
58318,32508
58598,32508
58652,32562
58652,33020
58116,33020
58062,32966
58062,32764
57908,32918
57908,36909
60154,39155
63213,39155
63972,38396
63972,38328
63622,38328
63622,38691
63589,38771
63528,38832
63449,38865
63086,38865
63032,38811
63032,38274
62992,38274
62992,38811
62938,38865
62575,38865
62496,38832
62435,38771
62402,38691
62402,38328
62456,38274
62992,38274
63032,38274
63568,38274
63622,38328
63972,38328
63972,37861
63981,37818
63622,37818
63622,38181
63568,38235
63032,38235
63032,37698
62992,37698
62992,38235
62456,38235
62402,38181
62402,37818
62435,37738
62496,37677
62575,37644
62938,37644
62992,37698
63032,37698
63086,37644
63449,37644
63528,37677
63589,37738
63622,37818
63981,37818
63988,37781
64035,37707
64107,37657
64193,37640
64981,37640
65061,37655
65135,37703
65184,37775
65201,37861
65201,38648
65186,38728
65139,38802
65066,38852
64981,38869
64922,38869
64922,40578
65833,41490
66976,41490
67020,41424
67199,41304
67410,41263
67620,41304
67799,41424
67917,41600
67950,41520
68102,41367
68300,41284
68304,41284
68390,41328
68429,41328
68515,41284
68519,41284
68717,41367
68869,41520
68902,41600
69020,41424
69199,41304
69410,41263
69620,41304
69799,41424
69917,41600
69950,41520
70102,41367
70300,41284
70304,41284
70390,41328
70390,41805
70382,41805
70382,41844
70390,41844
70390,42321
70304,42365
70300,42365
70102,42282
69950,42129
69917,42049
69799,42225
69744,42262
69744,42510
69719,42638
69646,42746
69386,43006
69305,43061
77707,43061
77707,42434
77594,42434
77496,42673
77313,42856
77074,42955
76816,42955
76577,42857
76394,42674
76295,42435
76295,42177
76393,41938
76433,41898
72961,41898
72961,42202
72928,42282
72867,42343
72787,42376
72483,42376
72429,42322
72429,41844
72907,41844
72961,41898
76433,41898
76576,41755
76815,41656
77073,41656
77312,41754
77495,41937
77594,42176
77594,42434
77707,42434
77707,41447
72961,41447
72961,41751
72907,41805
72429,41805
72429,41327
72390,41327
72390,41805
72382,41805
72382,41844
72390,41844
72390,42322
72336,42376
72032,42376
71952,42343
71891,42282
71858,42202
71858,42137
71799,42225
71620,42345
71410,42386
71199,42345
71020,42225
70902,42049
70869,42129
70717,42282
70519,42365
70515,42365
70429,42321
70429,41844
70437,41844
70437,41805
70429,41805
70429,41328
70515,41284
70519,41284
70717,41367
70869,41520
70902,41600
71020,41424
71067,41393
68508,38834
67973,38834
67893,38819
67819,38771
67770,38699
67752,38613
67752,38293
67402,38293
67402,38656
67369,38736
67308,38797
67229,38830
66866,38830
66812,38776
66812,38239
66772,38239
66772,38776
66718,38830
66355,38830
66276,38797
66215,38736
66182,38656
66182,38293
66236,38239
66772,38239
66812,38239
67348,38239
67402,38293
67752,38293
67752,37826
67761,37783
67402,37783
67402,38146
67348,38200
66812,38200
66812,37663
66772,37663
66772,38200
66236,38200
66182,38146
66182,37783
66215,37703
66276,37642
66355,37609
66718,37609
66772,37663
66812,37663
66866,37609
67229,37609
67308,37642
67369,37703
67402,37783
67761,37783
67768,37746
67815,37672
67887,37622
67973,37605
68032,37605
68032,36122
67998,36115
67924,36068
67875,35995
67857,35909
67857,35668
67507,35668
67507,35953
67474,36032
67413,36093
67334,36126
66971,36126
66917,36072
66917,35614
66877,35614
66877,36072
66823,36126
66460,36126
66381,36093
66320,36032
66287,35953
66287,35668
66341,35614
66877,35614
66917,35614
67453,35614
67507,35668
67857,35668
67857,35280
67866,35236
67507,35236
67507,35521
67453,35575
66917,35575
66917,35117
66877,35117
66877,35575
66341,35575
66287,35521
66287,35236
66320,35157
66381,35096
66460,35063
66823,35063
66877,35117
66917,35117
66971,35063
67334,35063
67413,35096
67474,35157
67507,35236
67866,35236
67873,35199
67920,35126
67992,35076
68078,35059
68137,35059
68137,33540
68132,33540
67270,34402
67162,34475
67034,34500
66225,34500
65306,35418
65306,35874
65291,35955
65244,36028
65171,36078
65086,36095
65027,36095
65027,36353
65001,36481
64929,36590
64234,37284
64234,37284
64160,37334
64126,37357
63998,37382
63997,37382
60160,37382
60032,37357
59923,37284
58805,36165
58348,36165
58268,36150
58194,36103
58145,36030
58128,35944
58128,35315
58143,35234
58190,35161
58263,35111
58348,35094
59136,35094
59216,35109
59290,35156
59339,35229
59357,35315
59357,35771
60299,36713
63859,36713
64357,36214
64357,36095
64298,36095
64218,36080
64144,36033
64095,35960
64077,35874
64077,35633
63727,35633
63727,35918
63694,35997
63633,36058
63554,36091
63191,36091
63137,36037
63137,35579
63097,35579
63097,36037
63043,36091
62680,36091
62601,36058
62540,35997
62507,35918
62507,35703
60927,35703
60927,35988
60894,36067
60833,36128
60754,36161
60391,36161
60337,36107
60337,35649
60297,35649
60297,36107
60243,36161
59880,36161
59801,36128
59740,36067
59707,35988
59707,35703
59761,35649
60297,35649
60337,35649
60873,35649
60927,35703
62507,35703
62507,35633
62561,35579
63097,35579
63137,35579
63673,35579
63727,35633
64077,35633
64077,35245
64086,35201
63727,35201
63727,35486
63673,35540
63137,35540
63137,35082
63097,35082
63097,35540
62561,35540
62507,35486
62507,35271
60927,35271
60927,35556
60873,35610
60337,35610
60337,35152
60297,35152
60297,35610
59761,35610
59707,35556
59707,35271
59740,35192
59801,35131
59880,35098
60243,35098
60297,35152
60337,35152
60391,35098
60754,35098
60833,35131
60894,35192
60927,35271
62507,35271
62507,35201
62540,35122
62601,35061
62680,35028
63043,35028
63097,35082
63137,35082
63191,35028
63554,35028
63633,35061
63694,35122
63727,35201
64086,35201
64093,35164
64140,35091
64212,35041
64298,35024
64754,35024
65849,33929
65958,33856
66086,33831
66895,33831
67190,33536
67006,33536
66952,33482
66952,33024
66912,33024
66912,33482
66858,33536
66495,33536
66416,33503
66355,33442
66322,33363
66322,33078
66376,33024
66912,33024
66952,33024
67488,33024
67542,33078
67542,33183
67892,32833
67892,32690
67901,32646
67542,32646
67542,32931
67488,32985
66952,32985
66952,32527
66912,32527
66912,32985
66376,32985
66322,32931
66322,32646
66355,32567
66416,32506
66495,32473
66858,32473
66912,32527
66952,32527
67006,32473
67369,32473
67448,32506
67509,32567
67542,32646
67901,32646
67908,32609
67955,32536
68027,32486
68113,32469
68901,32469
68981,32484
69055,32531
69104,32604
69121,32690
69121,33319
69106,33400
69059,33473
68986,33523
68901,33540
68807,33540
68807,35059
68866,35059
68946,35074
69020,35121
69069,35194
69086,35280
69086,35909
69071,35990
69024,36063
68951,36113
68866,36130
68702,36130
68702,37605
68761,37605
68841,37620
68915,37668
68964,37740
68981,37826
68981,38361
71646,41025
71719,41134
71744,41262
71744,41387
71799,41424
71858,41512
71858,41447
71891,41367
71952,41306
72032,41273
72336,41273
72390,41327
72429,41327
72483,41273
72787,41273
72867,41306
72928,41367
72961,41447
77707,41447
77707,39433
77584,39433
77584,39437
77501,39635
77348,39787
77149,39868
77063,39824
77063,39347
77024,39347
77024,39824
76938,39868
76739,39787
76586,39635
76503,39437
76503,39433
76547,39347
77024,39347
77063,39347
77540,39347
77584,39433
77707,39433
77707,37328
77605,37328
77564,37538
77444,37717
77279,37828
77444,37938
77564,38117
77605,38328
77564,38538
77444,38717
77268,38835
77348,38868
77501,39020
77584,39218
77584,39222
77540,39308
77063,39308
77063,39300
77024,39300
77024,39308
76547,39308
76503,39222
76503,39218
76586,39020
76739,38868
76819,38835
76643,38717
76632,38701
72143,38699
71968,38772
71772,38772
71591,38697
71453,38559
71377,38378
71377,38182
71452,38001
71590,37863
71760,37792
71661,37751
71523,37613
71447,37432
71447,37236
71522,37055
71660,36917
71841,36841
72037,36841
72218,36916
72253,36951
76633,36953
76643,36938
76819,36820
76739,36787
76586,36635
76503,36437
76503,36433
76547,36347
77024,36347
77024,36355
77063,36355
77063,36347
77540,36347
77584,36433
77584,36437
77501,36635
77348,36787
77268,36820
77444,36938
77564,37117
77605,37328
77707,37328
77707,34328
77605,34328
77564,34538
77444,34717
77279,34828
77444,34938
77564,35117
77605,35328
77564,35538
77444,35717
77268,35835
77348,35868
77501,36020
77584,36218
77584,36222
77540,36308
77063,36308
77063,36300
77024,36300
77024,36308
76547,36308
76503,36222
76503,36218
76586,36020
76739,35868
76819,35835
76643,35717
76632,35701
73059,35699
72452,36306
72452,36367
72377,36548
72239,36686
72058,36762
71862,36762
71681,36687
71543,36549
71467,36368
71467,36172
71542,35991
71680,35853
71861,35777
71923,35777
72640,35060
72640,35060
72640,35060
72701,35019
72761,34979
72762,34979
72762,34979
72833,34965
72905,34950
72905,34951
72905,34950
76633,34953
76643,34938
76808,34828
76643,34717
76632,34701
72516,34699
72404,34811
72223,34887
72027,34887
71846,34812
71708,34674
71632,34493
71632,34297
71707,34116
71845,33978
72026,33902
72222,33902
72339,33951
76633,33953
76643,33938
76819,33820
76739,33787
76586,33635
76503,33437
76503,33433
76547,33347
77024,33347
77024,33355
77063,33355
77063,33347
77540,33347
77584,33433
77584,33437
77501,33635
77348,33787
77268,33820
77444,33938
77564,34117
77605,34328
77707,34328
77707,32328
77605,32328
77564,32538
77444,32717
77268,32835
77348,32868
77501,33020
77584,33218
77584,33222
77540,33308
77063,33308
77063,33300
77024,33300
77024,33308
76547,33308
76503,33222
76503,33218
76586,33020
76739,32868
76819,32835
76643,32717
76632,32701
72521,32699
72449,32771
72268,32847
72072,32847
71891,32772
71753,32634
71677,32453
71677,32257
71752,32076
71890,31938
72071,31862
72267,31862
72448,31937
72462,31951
76633,31953
76643,31938
76725,31883
76709,31883
76629,31868
76555,31820
76505,31748
76496,31701
72441,31699
72404,31736
72223,31812
72027,31812
71846,31737
71708,31599
71632,31418
71632,31222
71707,31041
71845,30903
72026,30827
72222,30827
72403,30902
72452,30951
76496,30953
76503,30913
76551,30839
76623,30789
76709,30772
77378,30772
77458,30787
77532,30835
77582,30907
77599,30993
77599,31662
77584,31742
77536,31816
77464,31866
77378,31883
77362,31883
77444,31938
77564,32117
77605,32328
77707,32328
77707,28706
77572,28706
77474,28945
77291,29128
77052,29227
76794,29227
76627,29158
67851,29158
67851,29462
67818,29542
67757,29603
67677,29636
67373,29636
67319,29582
67319,29104
67797,29104
67851,29158
76627,29158
76555,29129
76372,28946
76273,28707
76273,28707
67851,28707
67851,29011
67797,29065
67319,29065
67319,28587
67373,28533
67677,28533
67757,28566
67818,28627
67851,28707
76273,28707
76273,28449
76371,28210
76554,28027
76793,27928
77051,27928
77290,28026
77473,28209
77572,28448
77572,28706
77707,28706
77707,27805
50246,27805
50246,43061
" /> 
</g>
<g style="fill:#FFFFFF; fill-opacity:1.0; 
stroke:#FFFFFF; stroke-width:118.11; stroke-opacity:1; 
stroke-linecap:round; stroke-linejoin:round;">
</g>
<g style="fill:#FFFFFF; fill-opacity:1.0; 
stroke:#FFFFFF; stroke-width:0; stroke-opacity:1; 
stroke-linecap:round; stroke-linejoin:round;">
<circle cx="56378" cy="35584" r="68.8976" /> 
</g>
<g style="fill:#FFFFFF; fill-opacity:1.0; 
stroke:#FFFFFF; stroke-width:39.3701; stroke-opacity:1; 
stroke-linecap:round; stroke-linejoin:round;">
</g>
<g style="fill:#FFFFFF; fill-opacity:1.0; 
stroke:#FFFFFF; stroke-width:0; stroke-opacity:1; 
stroke-linecap:round; stroke-linejoin:round;">
<circle cx="72125" cy="34395" r="68.8976" /> 
</g>
<g style="fill:#FFFFFF; fill-opacity:1.0; 
stroke:#FFFFFF; stroke-width:39.3701; stroke-opacity:1; 
stroke-linecap:round; stroke-linejoin:round;">
</g>
<g style="fill:#FFFFFF; fill-opacity:1.0; 
stroke:#FFFFFF; stroke-width:0; stroke-opacity:1; 
stroke-linecap:round; stroke-linejoin:round;">
<circle cx="56331" cy="36212" r="68.8976" /> 
</g>
<g style="fill:#FFFFFF; fill-opacity:1.0; 
stroke:#FFFFFF; stroke-width:39.3701; stroke-opacity:1; 
stroke-linecap:round; stroke-linejoin:round;">
</g>
<g style="fill:#FFFFFF; fill-opacity:1.0; 
stroke:#FFFFFF; stroke-width:0; stroke-opacity:1; 
stroke-linecap:round; stroke-linejoin:round;">
<circle cx="71960" cy="36270" r="68.8976" /> 
</g>
<g style="fill:#FFFFFF; fill-opacity:1.0; 
stroke:#FFFFFF; stroke-width:39.3701; stroke-opacity:1; 
stroke-linecap:round; stroke-linejoin:round;">
</g>
<g style="fill:#FFFFFF; fill-opacity:1.0; 
stroke:#FFFFFF; stroke-width:0; stroke-opacity:1; 
stroke-linecap:round; stroke-linejoin:round;">
<circle cx="56338" cy="36856" r="68.8976" /> 
</g>
<g style="fill:#FFFFFF; fill-opacity:1.0; 
stroke:#FFFFFF; stroke-width:39.3701; stroke-opacity:1; 
stroke-linecap:round; stroke-linejoin:round;">
</g>
<g style="fill:#FFFFFF; fill-opacity:1.0; 
stroke:#FFFFFF; stroke-width:0; stroke-opacity:1; 
stroke-linecap:round; stroke-linejoin:round;">
<circle cx="71940" cy="37334" r="68.8976" /> 
</g>
<g style="fill:#FFFFFF; fill-opacity:1.0; 
stroke:#FFFFFF; stroke-width:39.3701; stroke-opacity:1; 
stroke-linecap:round; stroke-linejoin:round;">
</g>
<g style="fill:#FFFFFF; fill-opacity:1.0; 
stroke:#FFFFFF; stroke-width:0; stroke-opacity:1; 
stroke-linecap:round; stroke-linejoin:round;">
<circle cx="56370" cy="34344" r="68.8976" /> 
</g>
<g style="fill:#FFFFFF; fill-opacity:1.0; 
stroke:#FFFFFF; stroke-width:39.3701; stroke-opacity:1; 
stroke-linecap:round; stroke-linejoin:round;">
</g>
<g style="fill:#FFFFFF; fill-opacity:1.0; 
stroke:#FFFFFF; stroke-width:0; stroke-opacity:1; 
stroke-linecap:round; stroke-linejoin:round;">
<circle cx="72125" cy="31320" r="68.8976" /> 
</g>
<g style="fill:#FFFFFF; fill-opacity:1.0; 
stroke:#FFFFFF; stroke-width:39.3701; stroke-opacity:1; 
stroke-linecap:round; stroke-linejoin:round;">
</g>
<g style="fill:#FFFFFF; fill-opacity:1.0; 
stroke:#FFFFFF; stroke-width:0; stroke-opacity:1; 
stroke-linecap:round; stroke-linejoin:round;">
<circle cx="56362" cy="34952" r="68.8976" /> 
</g>
<g style="fill:#FFFFFF; fill-opacity:1.0; 
stroke:#FFFFFF; stroke-width:39.3701; stroke-opacity:1; 
stroke-linecap:round; stroke-linejoin:round;">
</g>
<g style="fill:#FFFFFF; fill-opacity:1.0; 
stroke:#FFFFFF; stroke-width:0; stroke-opacity:1; 
stroke-linecap:round; stroke-linejoin:round;">
<circle cx="72170" cy="32355" r="68.8976" /> 
</g>
<g style="fill:#FFFFFF; fill-opacity:1.0; 
stroke:#FFFFFF; stroke-width:39.3701; stroke-opacity:1; 
stroke-linecap:round; stroke-linejoin:round;">
</g>
<g style="fill:#FFFFFF; fill-opacity:1.0; 
stroke:#FFFFFF; stroke-width:0; stroke-opacity:1; 
stroke-linecap:round; stroke-linejoin:round;">
<circle cx="56330" cy="37472" r="68.8976" /> 
</g>
<g style="fill:#FFFFFF; fill-opacity:1.0; 
stroke:#FFFFFF; stroke-width:39.3701; stroke-opacity:1; 
stroke-linecap:round; stroke-linejoin:round;">
</g>
<g style="fill:#FFFFFF; fill-opacity:1.0; 
stroke:#FFFFFF; stroke-width:0; stroke-opacity:1; 
stroke-linecap:round; stroke-linejoin:round;">
<circle cx="71870" cy="38280" r="68.8976" /> 
</g>
<g style="fill:#FFFFFF; fill-opacity:1.0; 
stroke:#FFFFFF; stroke-width:39.3701; stroke-opacity:1; 
stroke-linecap:round; stroke-linejoin:round;">
</g>
<g style="fill:#FFFFFF; fill-opacity:1.0; 
stroke:#FFFFFF; stroke-width:0; stroke-opacity:1; 
stroke-linecap:round; stroke-linejoin:round;">
<circle cx="53867" cy="30855" r="68.8976" /> 
</g>
<g style="fill:#FFFFFF; fill-opacity:1.0; 
stroke:#FFFFFF; stroke-width:39.3701; stroke-opacity:1; 
stroke-linecap:round; stroke-linejoin:round;">
</g>
<g style="fill:#FFFFFF; fill-opacity:1.0; 
stroke:#FFFFFF; stroke-width:0; stroke-opacity:1; 
stroke-linecap:round; stroke-linejoin:round;">
<circle cx="56298" cy="38225" r="68.8976" /> 
</g>
<g style="fill:#FFFFFF; fill-opacity:1.0; 
stroke:#FFFFFF; stroke-width:39.3701; stroke-opacity:1; 
stroke-linecap:round; stroke-linejoin:round;">
</g>
<g style="fill:#FFFFFF; fill-opacity:1.0; 
stroke:#FFFFFF; stroke-width:0; stroke-opacity:1; 
stroke-linecap:round; stroke-linejoin:round;">
<circle cx="72410" cy="41825" r="68.8976" /> 
</g>
<g style="fill:#FFFFFF; fill-opacity:1.0; 
stroke:#FFFFFF; stroke-width:39.3701; stroke-opacity:1; 
stroke-linecap:round; stroke-linejoin:round;">
</g>
<g style="fill:#FFFFFF; fill-opacity:1.0; 
stroke:#FFFFFF; stroke-width:0; stroke-opacity:1; 
stroke-linecap:round; stroke-linejoin:round;">
<circle cx="71410" cy="41825" r="68.8976" /> 
</g>
<g style="fill:#FFFFFF; fill-opacity:1.0; 
stroke:#FFFFFF; stroke-width:39.3701; stroke-opacity:1; 
stroke-linecap:round; stroke-linejoin:round;">
</g>
<g style="fill:#FFFFFF; fill-opacity:1.0; 
stroke:#FFFFFF; stroke-width:0; stroke-opacity:1; 
stroke-linecap:round; stroke-linejoin:round;">
<circle cx="70410" cy="41825" r="68.8976" /> 
</g>
<g style="fill:#FFFFFF; fill-opacity:1.0; 
stroke:#FFFFFF; stroke-width:39.3701; stroke-opacity:1; 
stroke-linecap:round; stroke-linejoin:round;">
</g>
<g style="fill:#FFFFFF; fill-opacity:1.0; 
stroke:#FFFFFF; stroke-width:0; stroke-opacity:1; 
stroke-linecap:round; stroke-linejoin:round;">
<circle cx="69410" cy="41825" r="68.8976" /> 
</g>
<g style="fill:#FFFFFF; fill-opacity:1.0; 
stroke:#FFFFFF; stroke-width:39.3701; stroke-opacity:1; 
stroke-linecap:round; stroke-linejoin:round;">
</g>
<g style="fill:#FFFFFF; fill-opacity:1.0; 
stroke:#FFFFFF; stroke-width:0; stroke-opacity:1; 
stroke-linecap:round; stroke-linejoin:round;">
<circle cx="68410" cy="41825" r="68.8976" /> 
</g>
<g style="fill:#FFFFFF; fill-opacity:1.0; 
stroke:#FFFFFF; stroke-width:39.3701; stroke-opacity:1; 
stroke-linecap:round; stroke-linejoin:round;">
</g>
<g style="fill:#FFFFFF; fill-opacity:1.0; 
stroke:#FFFFFF; stroke-width:0; stroke-opacity:1; 
stroke-linecap:round; stroke-linejoin:round;">
<circle cx="67410" cy="41825" r="68.8976" /> 
</g>
<g style="fill:#FFFFFF; fill-opacity:1.0; 
stroke:#FFFFFF; stroke-width:39.3701; stroke-opacity:1; 
stroke-linecap:round; stroke-linejoin:round;">
</g>
<g style="fill:#FFFFFF; fill-opacity:1.0; 
stroke:#FFFFFF; stroke-width:0; stroke-opacity:1; 
stroke-linecap:round; stroke-linejoin:round;">
<circle cx="77044" cy="31328" r="68.8976" /> 
</g>
<g style="fill:#FFFFFF; fill-opacity:1.0; 
stroke:#FFFFFF; stroke-width:39.3701; stroke-opacity:1; 
stroke-linecap:round; stroke-linejoin:round;">
</g>
<g style="fill:#FFFFFF; fill-opacity:1.0; 
stroke:#FFFFFF; stroke-width:0; stroke-opacity:1; 
stroke-linecap:round; stroke-linejoin:round;">
<circle cx="77044" cy="32328" r="68.8976" /> 
</g>
<g style="fill:#FFFFFF; fill-opacity:1.0; 
stroke:#FFFFFF; stroke-width:39.3701; stroke-opacity:1; 
stroke-linecap:round; stroke-linejoin:round;">
</g>
<g style="fill:#FFFFFF; fill-opacity:1.0; 
stroke:#FFFFFF; stroke-width:0; stroke-opacity:1; 
stroke-linecap:round; stroke-linejoin:round;">
<circle cx="77044" cy="33328" r="68.8976" /> 
</g>
<g style="fill:#FFFFFF; fill-opacity:1.0; 
stroke:#FFFFFF; stroke-width:39.3701; stroke-opacity:1; 
stroke-linecap:round; stroke-linejoin:round;">
</g>
<g style="fill:#FFFFFF; fill-opacity:1.0; 
stroke:#FFFFFF; stroke-width:0; stroke-opacity:1; 
stroke-linecap:round; stroke-linejoin:round;">
<circle cx="77044" cy="34328" r="68.8976" /> 
</g>
<g style="fill:#FFFFFF; fill-opacity:1.0; 
stroke:#FFFFFF; stroke-width:39.3701; stroke-opacity:1; 
stroke-linecap:round; stroke-linejoin:round;">
</g>
<g style="fill:#FFFFFF; fill-opacity:1.0; 
stroke:#FFFFFF; stroke-width:0; stroke-opacity:1; 
stroke-linecap:round; stroke-linejoin:round;">
<circle cx="77044" cy="35328" r="68.8976" /> 
</g>
<g style="fill:#FFFFFF; fill-opacity:1.0; 
stroke:#FFFFFF; stroke-width:39.3701; stroke-opacity:1; 
stroke-linecap:round; stroke-linejoin:round;">
</g>
<g style="fill:#FFFFFF; fill-opacity:1.0; 
stroke:#FFFFFF; stroke-width:0; stroke-opacity:1; 
stroke-linecap:round; stroke-linejoin:round;">
<circle cx="77044" cy="36328" r="68.8976" /> 
</g>
<g style="fill:#FFFFFF; fill-opacity:1.0; 
stroke:#FFFFFF; stroke-width:39.3701; stroke-opacity:1; 
stroke-linecap:round; stroke-linejoin:round;">
</g>
<g style="fill:#FFFFFF; fill-opacity:1.0; 
stroke:#FFFFFF; stroke-width:0; stroke-opacity:1; 
stroke-linecap:round; stroke-linejoin:round;">
<circle cx="77044" cy="37328" r="68.8976" /> 
</g>
<g style="fill:#FFFFFF; fill-opacity:1.0; 
stroke:#FFFFFF; stroke-width:39.3701; stroke-opacity:1; 
stroke-linecap:round; stroke-linejoin:round;">
</g>
<g style="fill:#FFFFFF; fill-opacity:1.0; 
stroke:#FFFFFF; stroke-width:0; stroke-opacity:1; 
stroke-linecap:round; stroke-linejoin:round;">
<circle cx="77044" cy="38328" r="68.8976" /> 
</g>
<g style="fill:#FFFFFF; fill-opacity:1.0; 
stroke:#FFFFFF; stroke-width:39.3701; stroke-opacity:1; 
stroke-linecap:round; stroke-linejoin:round;">
</g>
<g style="fill:#FFFFFF; fill-opacity:1.0; 
stroke:#FFFFFF; stroke-width:0; stroke-opacity:1; 
stroke-linecap:round; stroke-linejoin:round;">
<circle cx="77044" cy="39328" r="68.8976" /> 
</g>
<g style="fill:#FFFFFF; fill-opacity:1.0; 
stroke:#FFFFFF; stroke-width:39.3701; stroke-opacity:1; 
stroke-linecap:round; stroke-linejoin:round;">
</g>
<g style="fill:#FFFFFF; fill-opacity:1.0; 
stroke:#FFFFFF; stroke-width:0; stroke-opacity:1; 
stroke-linecap:round; stroke-linejoin:round;">
<circle cx="67300" cy="29085" r="68.8976" /> 
</g>
<g style="fill:#FFFFFF; fill-opacity:1.0; 
stroke:#FFFFFF; stroke-width:39.3701; stroke-opacity:1; 
stroke-linecap:round; stroke-linejoin:round;">
</g>
<g style="fill:#FFFFFF; fill-opacity:1.0; 
stroke:#FFFFFF; stroke-width:0; stroke-opacity:1; 
stroke-linecap:round; stroke-linejoin:round;">
<circle cx="66300" cy="29085" r="68.8976" /> 
</g>
<g style="fill:#FFFFFF; fill-opacity:1.0; 
stroke:#FFFFFF; stroke-width:39.3701; stroke-opacity:1; 
stroke-linecap:round; stroke-linejoin:round;">
</g>
<g style="fill:#FFFFFF; fill-opacity:1.0; 
stroke:#FFFFFF; stroke-width:0; stroke-opacity:1; 
stroke-linecap:round; stroke-linejoin:round;">
<circle cx="65300" cy="29085" r="68.8976" /> 
</g>
<g style="fill:#FFFFFF; fill-opacity:1.0; 
stroke:#FFFFFF; stroke-width:39.3701; stroke-opacity:1; 
stroke-linecap:round; stroke-linejoin:round;">
</g>
<g style="fill:#FFFFFF; fill-opacity:1.0; 
stroke:#FFFFFF; stroke-width:0; stroke-opacity:1; 
stroke-linecap:round; stroke-linejoin:round;">
<circle cx="57500" cy="29190" r="68.8976" /> 
</g>
<g style="fill:#FFFFFF; fill-opacity:1.0; 
stroke:#FFFFFF; stroke-width:39.3701; stroke-opacity:1; 
stroke-linecap:round; stroke-linejoin:round;">
</g>
<g style="fill:#FFFFFF; fill-opacity:1.0; 
stroke:#FFFFFF; stroke-width:0; stroke-opacity:1; 
stroke-linecap:round; stroke-linejoin:round;">
<circle cx="56500" cy="29190" r="68.8976" /> 
</g>
<g style="fill:#FFFFFF; fill-opacity:1.0; 
stroke:#FFFFFF; stroke-width:39.3701; stroke-opacity:1; 
stroke-linecap:round; stroke-linejoin:round;">
</g>
<g style="fill:#FFFFFF; fill-opacity:1.0; 
stroke:#FFFFFF; stroke-width:0; stroke-opacity:1; 
stroke-linecap:round; stroke-linejoin:round;">
<circle cx="55500" cy="29190" r="68.8976" /> 
</g>
<g style="fill:#FFFFFF; fill-opacity:1.0; 
stroke:#FFFFFF; stroke-width:39.3701; stroke-opacity:1; 
stroke-linecap:round; stroke-linejoin:round;">
</g>
<g style="fill:#FFFFFF; fill-opacity:1.0; 
stroke:#FFFFFF; stroke-width:0; stroke-opacity:1; 
stroke-linecap:round; stroke-linejoin:round;">
<circle cx="51051" cy="42273" r="68.8976" /> 
</g>
<g style="fill:#FFFFFF; fill-opacity:1.0; 
stroke:#FFFFFF; stroke-width:39.3701; stroke-opacity:1; 
stroke-linecap:round; stroke-linejoin:round;">
</g>
<g style="fill:#FFFFFF; fill-opacity:1.0; 
stroke:#FFFFFF; stroke-width:0; stroke-opacity:1; 
stroke-linecap:round; stroke-linejoin:round;">
<circle cx="76945" cy="42306" r="68.8976" /> 
</g>
<g style="fill:#FFFFFF; fill-opacity:1.0; 
stroke:#FFFFFF; stroke-width:39.3701; stroke-opacity:1; 
stroke-linecap:round; stroke-linejoin:round;">
</g>
<g style="fill:#FFFFFF; fill-opacity:1.0; 
stroke:#FFFFFF; stroke-width:0; stroke-opacity:1; 
stroke-linecap:round; stroke-linejoin:round;">
<circle cx="51010" cy="28568" r="68.8976" /> 
</g>
<g style="fill:#FFFFFF; fill-opacity:1.0; 
stroke:#FFFFFF; stroke-width:39.3701; stroke-opacity:1; 
stroke-linecap:round; stroke-linejoin:round;">
</g>
<g style="fill:#FFFFFF; fill-opacity:1.0; 
stroke:#FFFFFF; stroke-width:0; stroke-opacity:1; 
stroke-linecap:round; stroke-linejoin:round;">
<circle cx="76923" cy="28578" r="68.8976" /> 
</g>
<g style="fill:#FFFFFF; fill-opacity:1.0; 
stroke:#FFFFFF; stroke-width:39.3701; stroke-opacity:1; 
stroke-linecap:round; stroke-linejoin:round;">
</g>
<g style="fill:#000000; fill-opacity:1.0; 
stroke:#000000; stroke-width:39.3701; stroke-opacity:1; 
stroke-linecap:round; stroke-linejoin:round;">
</g> 
</svg>
