<?xml version="1.0" standalone="no"?>
<!DOCTYPE svg PUBLIC "-//W3C//DTD SVG 1.1//EN"
"http://www.w3.org/Graphics/SVG/1.1/DTD/svg11.dtd">
<svg width="3098" height="1523" viewBox="0 0 3098 1523" version="1.1"
xmlns="http://www.w3.org/2000/svg"
xmlns:xlink="http://www.w3.org/1999/xlink">
<g fill-rule="evenodd"><path d="M 2507.64,1356.15 L 2573.84,1289.95 L 2577.04,1287.36 L 2580.71,1285.49 L 2584.68,1284.43 L 2588.79,1284.21 L 2592.85,1284.86 L 2596.69,1286.33 L 2600.14,1288.57 L 2603.05,1291.48 L 2605.29,1294.93 L 2606.76,1298.77 L 2607.41,1302.83 L 2607.19,1306.94 L 2606.13,1310.91 L 2604.26,1314.58 L 2601.67,1317.78 L 2529.7,1389.75 L 2526.72,1392.2 L 2523.31,1394.01 L 2519.62,1395.13 L 2515.78,1395.51 L 1190.87,1395.1 L 1186.78,1394.67 L 1182.87,1393.4 L 1179.3,1391.34 L 1176.25,1388.58 L 1173.83,1385.26 L 1172.16,1381.5 L 1171.31,1377.47 L 1171.31,1373.36 L 1172.17,1369.34 L 1173.84,1365.58 L 1176.26,1362.25 L 1179.32,1359.5 L 1182.88,1357.45 L 1186.79,1356.18 L 1190.88,1355.75 L 2507.64,1356.15 z " style="fill-opacity:1.000000;fill:rgb(103,198,105);stroke:rgb(0,0,0);stroke-width:2"/></g>
<g fill-rule="evenodd"><path d="M 2467.69,1183.36 L 2539.84,1111.21 L 2542.4,1109.13 L 2545.33,1107.64 L 2548.51,1106.79 L 2551.8,1106.62 L 2555.05,1107.13 L 2558.12,1108.31 L 2560.88,1110.1 L 2563.21,1112.43 L 2565,1115.19 L 2566.18,1118.26 L 2566.69,1121.51 L 2566.52,1124.8 L 2565.67,1127.98 L 2564.18,1130.91 L 2562.1,1133.47 L 2485.33,1210.24 L 2482.95,1212.19 L 2480.22,1213.65 L 2477.27,1214.55 L 2474.2,1214.85 L 1186.93,1214.07 L 1183.66,1213.73 L 1180.53,1212.71 L 1177.68,1211.06 L 1175.24,1208.86 L 1173.3,1206.19 L 1171.97,1203.19 L 1171.29,1199.97 L 1171.29,1196.67 L 1171.97,1193.46 L 1173.31,1190.45 L 1175.25,1187.79 L 1177.7,1185.59 L 1180.55,1183.95 L 1183.68,1182.93 L 1186.95,1182.59 L 2467.69,1183.36 z " style="fill-opacity:1.000000;fill:rgb(115,81,255);stroke:rgb(0,0,0);stroke-width:2"/></g>
<g fill-rule="evenodd"><path d="M 2397.54,993.777 L 2482.05,909.272 L 2483.97,907.72 L 2486.17,906.599 L 2488.55,905.959 L 2491.01,905.831 L 2493.45,906.217 L 2495.76,907.101 L 2497.83,908.444 L 2499.57,910.189 L 2500.92,912.259 L 2501.8,914.562 L 2502.19,917.001 L 2502.06,919.466 L 2501.42,921.849 L 2500.3,924.048 L 2498.75,925.967 L 2410.78,1013.93 L 2408.99,1015.4 L 2406.95,1016.49 L 2404.74,1017.16 L 2402.43,1017.39 L 1179.07,1017.3 L 1176.62,1017.04 L 1174.27,1016.28 L 1172.13,1015.04 L 1170.3,1013.39 L 1168.85,1011.4 L 1167.84,1009.14 L 1167.33,1006.73 L 1167.33,1004.26 L 1167.85,1001.85 L 1168.85,999.591 L 1170.3,997.596 L 1172.13,995.945 L 1174.27,994.711 L 1176.62,993.947 L 1179.07,993.691 L 2397.54,993.777 z " style="fill-opacity:1.000000;fill:rgb(74,236,41);stroke:rgb(0,0,0);stroke-width:2"/></g>
<g fill-rule="evenodd"><path d="M 3097.58,813.387 L 3097.39,846.907 L 3096.83,848.752 L 3094.7,851.943 L 3091.51,854.076 L 3089.66,854.636 L 2568.49,854.824 L 2568.49,1035.85 L 3087.74,1035.85 L 3091.51,1036.6 L 3094.7,1038.74 L 3096.83,1041.93 L 3097.39,1043.77 L 3097.39,1085.81 L 3096.83,1087.66 L 3094.7,1090.85 L 3091.51,1092.98 L 3087.74,1093.73 L 2573.33,1093.73 L 2569.56,1092.98 L 2564.46,1089.79 L 2550.97,1087.11 L 2537.49,1089.79 L 2525.24,1097.98 L 2462.42,1160.79 L 2459.23,1162.93 L 2455.46,1163.67 L 1187.94,1162.91 L 1173.48,1165.78 L 1162.05,1173.41 L 1154.4,1184.83 L 1151.72,1198.3 L 1154.39,1211.79 L 1162.02,1223.23 L 1173.44,1230.87 L 1187.89,1233.75 L 2473.23,1234.52 L 2487.68,1231.65 L 2499.92,1223.48 L 2560.49,1162.91 L 2563.68,1160.78 L 2565.52,1160.22 L 2569.36,1160.22 L 2572.91,1161.69 L 2575.62,1164.4 L 2576.53,1166.1 L 2577.28,1169.87 L 2577.28,1259.41 L 2576.53,1263.17 L 2574.4,1266.37 L 2572.91,1267.59 L 2559.24,1276.72 L 2502.37,1333.59 L 2500.88,1334.82 L 2497.33,1336.28 L 1191.86,1336.07 L 1175.9,1339.24 L 1163.2,1347.72 L 1154.7,1360.42 L 1151.71,1375.41 L 1154.69,1390.4 L 1163.17,1403.11 L 1175.88,1411.6 L 1191.84,1414.78 L 2514.81,1415.19 L 2530.77,1412.02 L 2544.28,1402.99 L 2555.58,1391.96 L 2559.13,1390.49 L 2562.97,1390.49 L 2564.81,1391.05 L 2568,1393.19 L 2570.14,1396.38 L 2570.89,1400.14 L 2570.89,1513.16 L 2570.14,1516.93 L 2568,1520.12 L 2564.81,1522.25 L 2562.97,1522.81 L 601.032,1523 L 597.279,1522.26 L 594.095,1520.14 L 591.958,1516.97 L 591.392,1515.13 L 591.37,1511.31 L 593.175,1506.09 L 594.083,1499.73 L 593.411,1494.22 L 596.058,1481.78 L 596.054,1476.01 L 595.222,1465.68 L 594.153,1461.73 L 593.801,1459.17 L 592.04,1454.09 L 588.633,1447.43 L 585.568,1443.06 L 583.533,1440.85 L 582.579,1439.14 L 581.762,1435.34 L 582.479,1431.53 L 584.621,1428.28 L 586.13,1427.04 L 587.887,1426.11 L 591.222,1425.37 L 594.605,1425.83 L 602.641,1429.35 L 604.888,1429.68 L 607.341,1430.5 L 613.155,1431.41 L 615.722,1431.3 L 619.814,1431.64 L 625.858,1431.14 L 628.205,1430.46 L 632.213,1429.87 L 637.801,1428.08 L 644.384,1424.94 L 648.804,1422.05 L 656.064,1415.94 L 658.74,1412.88 L 661.201,1408.87 L 662.273,1405.97 L 663.015,1401.33 L 662.893,1398.23 L 662.051,1395.24 L 661.619,1391.54 L 663.137,1383.13 L 662.989,1370.42 L 661.769,1360.07 L 659.816,1353.7 L 657.061,1348.66 L 654.348,1344.77 L 649.382,1339.37 L 645.354,1336.03 L 639.374,1332.25 L 634.672,1330.07 L 627.659,1327.78 L 621.943,1326.96 L 615.85,1326.67 L 607.877,1327.53 L 602.595,1328.93 L 595.446,1332.12 L 591.688,1332.82 L 589.778,1332.61 L 582.525,1329.73 L 575.66,1327.82 L 569.619,1326.96 L 562.626,1326.86 L 556.75,1327.52 L 549.845,1329.23 L 546.594,1330.34 L 543.213,1330.42 L 536.886,1328.31 L 528.919,1326.79 L 520.759,1326.69 L 516.746,1327.64 L 511.214,1328.17 L 507.538,1327.45 L 505.691,1326.8 L 502.556,1324.5 L 500.561,1321.16 L 500.097,1319.26 L 500.325,1315.37 L 502.04,1311.88 L 521.11,1293.75 L 540.788,1273.6 L 543.711,1270.23 L 545.009,1268.04 L 546.622,1266.18 L 549.515,1258.87 L 549.763,1253.8 L 549.509,1250.94 L 547.404,1244.77 L 544.167,1238.85 L 539.777,1231.77 L 522.594,1206.3 L 521.112,1202.91 L 520.992,1199.2 L 521.458,1197.4 L 527.052,1182.75 L 529.365,1177.58 L 532.104,1174.83 L 535.693,1173.36 L 567.865,1167.28 L 575.636,1165.5 L 582.086,1163.52 L 588.791,1159.45 L 592.845,1154.4 L 593.719,1153.01 L 596.042,1145.37 L 596.93,1136.41 L 597.419,1122.3 L 597.353,1098.74 L 596.774,1085.87 L 596.274,1080.97 L 594.982,1075.14 L 590.554,1067.38 L 584.347,1062.69 L 579.505,1060.78 L 564.513,1057.33 L 533.843,1051.45 L 530.285,1050.02 L 527.544,1047.34 L 526.616,1045.65 L 519.581,1028.59 L 519.569,1024.71 L 521.054,1021.13 L 540.732,991.926 L 545.958,983.564 L 547.752,980.147 L 549.233,975.723 L 549.813,971.772 L 549.615,967.976 L 548.641,964.108 L 546.838,960.203 L 543.191,955.197 L 533.855,945.047 L 517.522,928.312 L 500.235,911.645 L 496.872,909.032 L 491.389,906.307 L 489.01,905.641 L 483.71,905.231 L 481.255,905.525 L 475.789,907.285 L 472.85,908.794 L 465.929,913.176 L 433.164,935.221 L 429.604,936.725 L 425.741,936.741 L 409.886,930.411 L 406.657,928.252 L 405.426,926.739 L 403.968,923.138 L 395.262,876.945 L 393.72,872.097 L 391.995,868.828 L 389.41,865.648 L 386.567,863.291 L 382.963,861.339 L 379.43,860.248 L 374.38,859.632 L 310.68,859.632 L 305.63,860.246 L 302.098,861.337 L 298.493,863.289 L 295.65,865.646 L 293.065,868.826 L 291.34,872.093 L 289.799,876.939 L 281.09,923.138 L 279.631,926.739 L 276.894,929.494 L 261.174,936.181 L 259.315,936.741 L 255.455,936.725 L 251.898,935.223 L 220.767,914.242 L 210.347,907.762 L 204.835,905.741 L 202.148,905.295 L 197.086,905.453 L 194.285,906.085 L 189.359,908.324 L 185.567,911.029 L 174.791,921.119 L 157.922,938.068 L 144.054,952.698 L 138.886,959.078 L 137.109,962.428 L 135.605,966.998 L 135.25,969.957 L 135.539,974.587 L 136.455,977.93 L 138.284,982.114 L 142.726,989.435 L 164.04,1021.12 L 165.507,1024.69 L 165.491,1028.55 L 158.446,1045.64 L 157.52,1047.33 L 154.786,1050.01 L 151.237,1051.44 L 116.983,1058.08 L 103.66,1061.39 L 96.3514,1065.56 L 92.1491,1070.73 L 91.5873,1071.61 L 89.1563,1078.7 L 88.4986,1083.43 L 87.8488,1093.97 L 87.5529,1110.1 L 87.7249,1126.34 L 88.0487,1134.92 L 88.8244,1144.14 L 90.0839,1149.84 L 93.8964,1156.99 L 96.8452,1159.77 L 99.9699,1162.08 L 105.208,1164.31 L 113.161,1166.39 L 149.394,1173.36 L 152.974,1174.85 L 155.703,1177.6 L 158.316,1183.53 L 163.608,1197.41 L 164.184,1201.07 L 163.946,1202.91 L 162.466,1206.3 L 147.828,1227.82 L 138.842,1242.29 L 138.056,1244.36 L 136.913,1246.23 L 135.156,1253.84 L 135.891,1260.08 L 136.303,1261.72 L 139.53,1267.84 L 145.915,1275.48 L 162.882,1292.7 L 183.886,1312.6 L 184.913,1314.36 L 185.551,1316.3 L 185.775,1318.34 L 185.575,1320.37 L 184.957,1322.32 L 183.952,1324.1 L 182.6,1325.63 L 180.959,1326.85 L 179.104,1327.71 L 171.921,1329.91 L 164.718,1333.55 L 161.539,1334.39 L 158.262,1334.13 L 156.703,1333.6 L 151.977,1330.82 L 148.064,1329.64 L 145.765,1328.6 L 141.085,1327.53 L 134.08,1326.84 L 129.09,1326.99 L 124.874,1327.89 L 120.256,1328.24 L 115.218,1327.36 L 104.786,1327.21 L 96.2054,1328.91 L 93.6725,1330.37 L 89.808,1331.1 L 87.8428,1330.87 L 77.7689,1327.91 L 71.1516,1327.13 L 64.9801,1326.95 L 55.462,1328.27 L 47.9611,1330.79 L 44.2646,1332.68 L 38.1031,1337.03 L 34.4646,1340.45 L 29.5446,1346.23 L 25.4962,1353.45 L 23.1552,1361.08 L 22.6893,1363.77 L 22.0276,1372.45 L 22.2855,1386.79 L 23.1891,1396.19 L 25.0184,1403.26 L 26.7877,1406.57 L 27.7373,1409.07 L 31.9916,1415.07 L 34.8024,1418.18 L 37.9991,1420.71 L 39.7444,1422.51 L 43.175,1424.88 L 49.6224,1428.16 L 53.6308,1429.57 L 60.446,1431.04 L 66.1996,1431.54 L 70.3959,1431.17 L 76.0176,1431.48 L 79.4862,1432.99 L 82.1292,1435.7 L 83.0128,1437.38 L 83.7405,1441.09 L 83.9164,1514.66 L 83.4166,1516.58 L 82.539,1518.37 L 81.3215,1519.94 L 79.8121,1521.24 L 78.0708,1522.2 L 76.1736,1522.8 L 74.1944,1523 L 10.2564,1523 L 6.48994,1522.25 L 3.29924,1520.12 L 2.07574,1518.63 L 0.606338,1515.08 L 0.418414,1513.16 L 0.418414,9.838 L 0.606338,7.91878 L 2.07574,4.37422 L 3.29924,2.88283 L 6.48994,0.749695 L 10.2564,0 L 3087.74,0 L 3091.51,0.749695 L 3093.21,1.65932 L 3094.7,2.88283 L 3096.83,6.07353 L 3097.58,9.838 L 3097.58,245.83 L 3097.1,248.871 L 3096.26,250.75 L 3095.05,252.413 L 3093.53,253.791 L 3091.74,254.818 L 3088.77,255.616 L 3020.7,255.668 L 3018.78,255.48 L 3015.24,254.011 L 3013.75,252.787 L 3011.61,249.596 L 3010.86,245.83 L 3010.86,76.5408 L 2468.53,76.5408 L 2468.53,245.83 L 2467.78,249.596 L 2466.87,251.296 L 2465.64,252.787 L 2464.09,254.047 L 2464.09,436.698 L 2477.88,436.698 L 2481.65,437.448 L 2484.84,439.581 L 2486.06,441.072 L 2486.97,442.772 L 2487.72,446.536 L 2487.72,612.681 L 2486.97,616.447 L 2486.06,618.146 L 2483.35,620.861 L 2481.48,621.821 L 2481.29,664.438 L 2480.73,666.283 L 2478.6,669.475 L 2475.4,671.607 L 2471.64,672.354 L 2467.81,671.787 L 2456.58,674.018 L 2446.25,680.921 L 2365.57,761.606 L 2362.36,763.747 L 2358.57,764.487 L 1168.36,759.539 L 1156.16,761.91 L 1146.62,768.227 L 1140.22,777.717 L 1137.94,788.927 L 1140.12,800.156 L 1146.44,809.694 L 1155.93,816.094 L 1168.12,818.571 L 2373.89,823.583 L 2386.01,821.196 L 2396.3,814.356 L 2464.68,745.974 L 2467.87,743.841 L 2471.64,743.093 L 2475.4,743.841 L 2478.6,745.974 L 2479.82,747.464 L 2481.29,751.01 L 2481.48,803.549 L 3089.66,803.739 L 3091.51,804.299 L 3094.7,806.432 L 3096.83,809.622 L 3097.58,813.387M 1180.04,1036.98 L 2401.46,1037.07 L 2414.41,1034.49 L 2425.38,1027.17 L 2511.97,940.569 L 2519.3,929.598 L 2521.69,917.62 L 2519.3,905.645 L 2512.52,895.495 L 2502.37,888.714 L 2490.4,886.331 L 2478.42,888.712 L 2467.45,896.041 L 2392.27,971.219 L 2389.08,973.352 L 2385.32,974.099 L 1180.05,974.013 L 1167.1,976.586 L 1156.95,983.366 L 1150.16,993.52 L 1147.78,1005.49 L 1150.16,1017.47 L 1156.94,1027.62 L 1167.09,1034.4 L 1180.04,1036.98M 1168.2,604.086 L 2369.28,605.705 L 2380.7,603.442 L 2390.38,596.985 L 2454.21,533.155 L 2460.69,523.455 L 2462.78,512.985 L 2460.69,502.519 L 2454.76,493.643 L 2445.89,487.711 L 2435.42,485.63 L 2424.95,487.709 L 2415.25,494.193 L 2361.74,547.707 L 2358.54,549.842 L 2354.77,550.588 L 1168.27,548.991 L 1156.83,551.25 L 1147.95,557.163 L 1142.01,566.036 L 1139.91,576.501 L 1141.98,586.969 L 1147.9,595.855 L 1156.76,601.793 L 1168.2,604.086M 1168.22,436.832 L 2328.89,437.406 L 2339.57,435.289 L 2348.62,429.243 L 2417.64,360.229 L 2423.69,351.173 L 2425.62,341.455 L 2423.69,331.739 L 2418.19,323.504 L 2409.95,318.003 L 2400.24,316.069 L 2390.52,318.001 L 2381.46,324.05 L 2322.16,383.356 L 2318.96,385.491 L 2315.19,386.237 L 1168.25,385.671 L 1157.56,387.788 L 1149.32,393.29 L 1143.81,401.519 L 1141.88,411.241 L 1143.8,420.951 L 1149.3,429.193 L 1157.54,434.701 L 1168.22,436.832M 1164.33,269.576 L 2302.52,268.311 L 2312.46,266.322 L 2320.86,260.704 L 2393.85,187.712 L 2399.48,179.289 L 2401.26,170.325 L 2399.48,161.362 L 2394.4,153.765 L 2386.81,148.689 L 2377.84,146.906 L 2368.88,148.687 L 2360.46,154.315 L 2296.56,218.215 L 2293.37,220.346 L 2289.61,221.096 L 1164.28,222.347 L 1154.34,224.337 L 1146.75,229.421 L 1141.68,237.024 L 1139.91,245.988 L 1141.7,254.948 L 1146.79,262.541 L 1154.39,267.609 L 1164.33,269.576M 510.761,766.712 L 514.353,775.388 L 520.994,782.03 L 529.671,785.624 L 598.677,785.624 L 600.64,783.927 L 602.341,783.017 L 606.108,782.268 L 621.971,782.457 L 625.518,783.925 L 627.483,785.624 L 696.487,785.624 L 705.164,782.032 L 711.805,775.39 L 715.403,766.706 L 715.403,709.519 L 713.702,707.552 L 712.792,705.851 L 712.045,702.084 L 712.233,686.217 L 713.702,682.67 L 715.403,680.705 L 715.403,623.518 L 711.807,614.834 L 705.166,608.192 L 696.483,604.596 L 627.487,604.596 L 625.516,606.297 L 623.817,607.205 L 620.054,607.953 L 604.187,607.765 L 600.642,606.295 L 598.675,604.596 L 529.677,604.596 L 520.996,608.19 L 514.355,614.832 L 510.761,623.508 L 510.761,680.707 L 512.458,682.672 L 513.368,684.371 L 514.117,688.136 L 513.927,704.005 L 512.458,707.552 L 510.761,709.515 L 510.761,766.712M 825.592,766.71 L 829.187,775.388 L 835.828,782.03 L 844.505,785.624 L 913.509,785.624 L 915.476,783.927 L 917.177,783.017 L 920.942,782.268 L 936.807,782.457 L 940.352,783.927 L 942.317,785.624 L 1011.32,785.624 L 1020,782.032 L 1026.64,775.39 L 1030.24,766.71 L 1030.24,709.517 L 1028.54,707.55 L 1027.63,705.851 L 1026.88,702.084 L 1027.07,686.219 L 1028.54,682.672 L 1030.24,680.705 L 1030.24,623.514 L 1026.64,614.834 L 1020,608.192 L 1011.32,604.596 L 942.319,604.596 L 940.352,606.295 L 938.65,607.205 L 934.888,607.953 L 919.022,607.765 L 915.476,606.297 L 913.509,604.596 L 844.513,604.596 L 835.83,608.19 L 829.189,614.832 L 825.592,623.51 L 825.592,680.705 L 827.292,682.67 L 828.201,684.371 L 828.951,688.136 L 828.761,704.005 L 827.29,707.554 L 825.592,709.515 L 825.592,766.71M 105.43,378.98 L 107.589,390.857 L 107.383,392.818 L 105.596,397.474 L 109.648,411.904 L 129.15,442.352 L 158.414,462.738 L 190.433,469.975 L 192.2,471.006 L 193.718,472.382 L 195.359,475.047 L 195.969,472.702 L 196.878,471.002 L 198.102,469.511 L 201.293,467.378 L 205.059,466.628 L 210.913,466.818 L 212.758,467.378 L 215.949,469.511 L 218.082,472.702 L 218.69,475.049 L 220.335,472.382 L 221.85,471.006 L 223.618,469.975 L 255.635,462.74 L 284.899,442.354 L 304.401,411.906 L 308.457,397.476 L 306.67,392.816 L 306.464,390.857 L 308.623,378.982 L 306.464,367.107 L 306.67,365.147 L 308.455,360.487 L 304.401,346.055 L 284.901,315.608 L 255.637,295.222 L 232.242,290.094 L 230.293,289.448 L 228.522,288.413 L 227.004,287.031 L 225.807,285.364 L 224.979,283.487 L 224.561,281.477 L 224.567,279.424 L 225.001,277.419 L 225.839,275.546 L 227.05,273.889 L 228.576,272.517 L 230.355,271.493 L 232.308,270.862 L 234.349,270.646 L 291.692,270.646 L 300.368,267.053 L 307.01,260.412 L 310.606,251.732 L 310.606,193.467 L 308.907,191.5 L 307.997,189.801 L 307.25,186.034 L 307.437,170.171 L 308.905,166.626 L 310.606,164.657 L 310.606,106.397 L 307.012,97.7142 L 300.37,91.0729 L 291.686,87.4744 L 221.432,87.4744 L 219.465,89.1757 L 217.764,90.0853 L 213.999,90.833 L 198.132,90.6451 L 194.585,89.1757 L 192.62,87.4744 L 122.367,87.4744 L 113.682,91.0709 L 107.041,97.7122 L 103.446,106.389 L 103.446,164.657 L 105.146,166.624 L 106.053,168.325 L 106.803,172.088 L 106.613,187.955 L 105.144,191.502 L 103.446,193.465 L 103.446,251.734 L 107.039,260.41 L 113.68,267.051 L 122.357,270.646 L 179.703,270.646 L 181.743,270.862 L 183.696,271.493 L 185.475,272.517 L 187.002,273.889 L 188.212,275.548 L 189.052,277.419 L 189.483,279.426 L 189.489,281.479 L 189.072,283.487 L 188.244,285.366 L 187.046,287.031 L 185.527,288.413 L 183.756,289.448 L 158.416,295.22 L 129.152,315.606 L 109.652,346.053 L 105.594,360.485 L 107.383,365.145 L 107.589,367.107 L 105.43,378.98M 105.43,578.898 L 107.589,590.776 L 107.383,592.737 L 105.596,597.393 L 109.648,611.823 L 129.15,642.271 L 158.414,662.656 L 194.12,670.483 L 197.236,670.483 L 199.593,668.206 L 201.293,667.296 L 205.059,666.547 L 210.913,666.737 L 214.457,668.206 L 216.812,670.483 L 219.929,670.483 L 255.635,662.658 L 284.899,642.273 L 304.401,611.825 L 308.457,597.395 L 306.67,592.735 L 306.464,590.776 L 308.625,578.9 L 306.464,567.025 L 306.67,565.066 L 308.455,560.406 L 304.401,545.974 L 284.901,515.526 L 255.637,495.14 L 223.62,487.905 L 221.85,486.874 L 220.335,485.498 L 218.694,482.837 L 217.98,485.412 L 216.305,487.993 L 213.912,489.931 L 211.039,491.034 L 205.059,491.248 L 201.293,490.5 L 198.102,488.367 L 196.878,486.876 L 195.969,485.176 L 195.361,482.835 L 193.716,485.498 L 192.2,486.874 L 190.433,487.905 L 158.416,495.138 L 129.152,515.524 L 109.652,545.972 L 105.594,560.404 L 107.383,565.064 L 107.589,567.025 L 105.43,578.898M 571.68,482.48 L 622.975,482.48 L 631.651,478.887 L 638.293,472.246 L 641.889,463.565 L 641.889,449.663 L 640.188,447.694 L 639.28,445.992 L 638.533,442.228 L 638.533,428.282 L 639.28,424.519 L 640.19,422.818 L 641.889,420.851 L 641.889,406.948 L 638.295,398.268 L 631.036,390.743 L 629.566,387.196 L 629.378,385.277 L 629.566,383.358 L 631.034,379.811 L 638.293,372.286 L 641.889,363.606 L 641.889,349.704 L 640.188,347.734 L 639.28,346.033 L 638.533,342.269 L 638.533,328.322 L 639.28,324.56 L 640.19,322.859 L 641.889,320.891 L 641.889,306.989 L 638.295,298.309 L 631.036,290.784 L 629.566,287.237 L 629.378,285.318 L 629.566,283.399 L 631.034,279.852 L 638.293,272.327 L 641.889,263.647 L 641.889,249.744 L 640.188,247.775 L 639.28,246.074 L 638.533,242.309 L 638.533,228.363 L 639.28,224.601 L 640.19,222.899 L 641.889,220.932 L 641.889,207.03 L 638.295,198.349 L 631.036,190.824 L 629.566,187.278 L 629.378,185.359 L 629.566,183.439 L 631.034,179.893 L 638.293,172.368 L 641.889,163.687 L 641.889,149.785 L 640.188,147.816 L 639.28,146.115 L 638.533,142.35 L 638.533,128.404 L 639.28,124.641 L 640.19,122.94 L 641.889,120.973 L 641.889,107.07 L 638.295,98.3899 L 631.653,91.7486 L 622.973,88.1521 L 571.682,88.1521 L 569.715,89.8514 L 568.013,90.7611 L 564.251,91.5087 L 548.383,91.3208 L 544.839,89.8514 L 542.872,88.1521 L 491.582,88.1521 L 482.902,91.7467 L 476.261,98.3879 L 472.666,107.064 L 472.666,120.975 L 474.363,122.94 L 475.273,124.639 L 476.023,128.404 L 476.023,142.35 L 475.273,146.115 L 474.363,147.816 L 472.666,149.781 L 472.666,163.689 L 476.259,172.366 L 483.518,179.893 L 484.427,181.592 L 485.175,185.359 L 484.987,187.278 L 483.518,190.824 L 476.261,198.347 L 472.666,207.024 L 472.666,220.934 L 474.363,222.899 L 475.273,224.599 L 476.023,228.363 L 476.023,242.309 L 475.273,246.074 L 474.363,247.775 L 472.666,249.74 L 472.666,263.649 L 476.259,272.325 L 483.518,279.852 L 484.427,281.551 L 485.175,285.318 L 484.987,287.237 L 483.518,290.784 L 476.261,298.307 L 472.666,306.983 L 472.666,320.893 L 474.363,322.859 L 475.273,324.558 L 476.023,328.322 L 476.023,342.269 L 475.273,346.033 L 474.363,347.734 L 472.666,349.7 L 472.666,363.608 L 476.259,372.284 L 483.518,379.811 L 484.427,381.511 L 485.175,385.277 L 484.987,387.196 L 483.518,390.743 L 476.261,398.266 L 472.666,406.942 L 472.666,420.853 L 474.363,422.818 L 475.273,424.517 L 476.023,428.282 L 476.023,442.228 L 475.273,445.992 L 474.363,447.694 L 472.666,449.659 L 472.666,463.567 L 476.259,472.244 L 482.9,478.885 L 491.576,482.48 L 542.874,482.48 L 544.837,480.782 L 546.538,479.873 L 550.305,479.123 L 566.17,479.313 L 569.715,480.782 L 571.68,482.48M 967.897,482.48 L 969.86,480.782 L 971.561,479.873 L 975.328,479.123 L 991.191,479.313 L 994.738,480.78 L 996.703,482.48 L 1048,482.48 L 1056.67,478.887 L 1063.32,472.246 L 1066.91,463.565 L 1066.91,449.663 L 1065.21,447.694 L 1064.3,445.992 L 1063.56,442.228 L 1063.56,428.282 L 1064.3,424.519 L 1065.21,422.818 L 1066.91,420.851 L 1066.91,406.948 L 1063.32,398.268 L 1056.06,390.743 L 1054.59,387.196 L 1054.4,385.277 L 1054.59,383.358 L 1056.06,379.811 L 1063.32,372.286 L 1066.91,363.606 L 1066.91,349.704 L 1065.21,347.734 L 1064.3,346.033 L 1063.56,342.269 L 1063.56,328.322 L 1064.3,324.56 L 1065.21,322.859 L 1066.91,320.891 L 1066.91,306.989 L 1063.32,298.309 L 1056.06,290.784 L 1054.59,287.237 L 1054.4,285.318 L 1054.59,283.399 L 1056.06,279.852 L 1063.32,272.327 L 1066.91,263.647 L 1066.91,249.744 L 1065.21,247.775 L 1064.3,246.074 L 1063.56,242.309 L 1063.56,228.363 L 1064.3,224.601 L 1065.21,222.899 L 1066.91,220.932 L 1066.91,207.03 L 1063.32,198.349 L 1056.06,190.824 L 1054.59,187.278 L 1054.4,185.359 L 1054.59,183.439 L 1056.06,179.893 L 1063.32,172.368 L 1066.91,163.687 L 1066.91,149.785 L 1065.21,147.816 L 1064.3,146.115 L 1063.56,142.35 L 1063.56,128.404 L 1064.3,124.641 L 1065.21,122.94 L 1066.91,120.973 L 1066.91,107.07 L 1063.32,98.3899 L 1056.68,91.7486 L 1048,88.1521 L 996.707,88.1521 L 994.736,89.8534 L 993.036,90.7611 L 989.274,91.5087 L 973.406,91.3208 L 969.862,89.8514 L 967.895,88.1521 L 916.609,88.1521 L 907.927,91.7467 L 901.286,98.3879 L 897.689,107.066 L 897.689,120.973 L 899.388,122.938 L 900.298,124.639 L 901.048,128.404 L 901.048,142.35 L 900.298,146.117 L 899.388,147.818 L 897.689,149.783 L 897.689,163.687 L 901.284,172.366 L 908.543,179.893 L 909.452,181.592 L 910.2,185.359 L 910.012,187.278 L 908.543,190.824 L 901.286,198.347 L 897.689,207.026 L 897.689,220.932 L 899.388,222.897 L 900.298,224.599 L 901.048,228.363 L 901.048,242.309 L 900.298,246.076 L 899.388,247.777 L 897.689,249.742 L 897.689,263.647 L 901.284,272.325 L 908.543,279.852 L 909.452,281.551 L 910.2,285.318 L 910.012,287.237 L 908.543,290.784 L 901.286,298.307 L 897.689,306.985 L 897.689,320.891 L 899.388,322.857 L 900.298,324.558 L 901.048,328.322 L 901.048,342.269 L 900.298,346.035 L 899.388,347.736 L 897.689,349.702 L 897.689,363.606 L 901.284,372.284 L 908.543,379.811 L 909.452,381.511 L 910.2,385.277 L 910.012,387.196 L 908.543,390.743 L 901.286,398.266 L 897.689,406.944 L 897.689,420.851 L 899.388,422.816 L 900.298,424.517 L 901.048,428.282 L 901.048,442.228 L 900.298,445.994 L 899.388,447.696 L 897.689,449.661 L 897.689,463.565 L 901.284,472.244 L 907.925,478.885 L 916.601,482.48 L 967.897,482.48 z " style="fill-opacity:1.000000;fill:rgb(205,186,171);stroke:rgb(0,0,0);stroke-width:2"/></g>
<g fill-rule="evenodd"><path d="M 2370.79,784.215 L 2460.85,694.151 L 2462.45,692.858 L 2464.28,691.924 L 2466.27,691.391 L 2468.32,691.283 L 2470.35,691.604 L 2472.27,692.342 L 2474,693.462 L 2475.45,694.915 L 2476.57,696.64 L 2477.31,698.56 L 2477.63,700.591 L 2477.52,702.646 L 2476.99,704.631 L 2476.06,706.464 L 2474.76,708.064 L 2381.8,801.026 L 2378.59,803.167 L 2374.8,803.907 L 1167.22,798.887 L 1165.18,798.665 L 1163.23,798.019 L 1161.45,796.984 L 1159.92,795.602 L 1158.72,793.933 L 1157.9,792.05 L 1157.48,790.036 L 1157.49,787.979 L 1157.92,785.97 L 1158.76,784.095 L 1159.98,782.435 L 1161.52,781.066 L 1163.3,780.044 L 1165.26,779.419 L 1167.31,779.213 L 2370.79,784.215 z " style="fill-opacity:1.000000;fill:rgb(242,251,227);stroke:rgb(0,0,0);stroke-width:2"/></g>
<g fill-rule="evenodd"><path d="M 387.971,1327.4 L 385.638,1328.02 L 383.44,1328.18 L 378.307,1329.91 L 372.199,1332.71 L 368.671,1333.61 L 365.054,1333.17 L 356.392,1329.59 L 348.021,1327.51 L 345.48,1327.47 L 342.983,1326.96 L 334.868,1326.9 L 331.172,1327.14 L 328.475,1327.81 L 325.706,1328 L 319.996,1329.43 L 312.347,1332.72 L 308.173,1335.37 L 299.497,1343.49 L 295.884,1344.87 L 293.943,1345.01 L 292.014,1344.76 L 288.489,1343.16 L 284.817,1339.24 L 278.713,1334.14 L 272.524,1330.67 L 268.601,1329.54 L 266.282,1328.54 L 261.586,1327.53 L 254.833,1326.91 L 249.911,1327.06 L 245.713,1327.96 L 241.492,1328.26 L 236.22,1327.36 L 227.474,1327.02 L 225.631,1326.46 L 223.931,1325.55 L 221.219,1322.85 L 220.307,1321.15 L 219.553,1317.39 L 220.289,1313.63 L 222.408,1310.44 L 224.343,1308.87 L 247.828,1293.04 L 251.182,1292.2 L 254.623,1292.58 L 262.624,1296.23 L 266.856,1297.81 L 275.466,1298.68 L 282.905,1296.46 L 289.307,1291.24 L 292.368,1286.73 L 294.183,1283.23 L 302.863,1264.23 L 318.941,1226.51 L 334.185,1188.91 L 335.408,1187.33 L 336.923,1186.03 L 338.669,1185.07 L 340.576,1184.47 L 342.561,1184.28 L 344.546,1184.49 L 346.448,1185.09 L 348.189,1186.07 L 349.698,1187.37 L 350.912,1188.96 L 365.426,1224.85 L 381.459,1262.56 L 390.48,1282.44 L 392.341,1286.1 L 393.906,1288.16 L 394.966,1290.24 L 400.971,1295.84 L 408.264,1298.57 L 416.101,1298.3 L 420.557,1297 L 428.132,1293.47 L 432.059,1292.26 L 433.818,1292.21 L 437.221,1293.04 L 464.204,1311.2 L 466.966,1313.94 L 468.474,1317.49 L 468.496,1321.35 L 467.032,1324.93 L 464.306,1327.66 L 462.594,1328.57 L 459.532,1329.55 L 455.693,1329.55 L 444.804,1327.21 L 433.598,1327.21 L 425.024,1328.91 L 422.567,1330.36 L 419.17,1331.17 L 415.705,1330.74 L 408.386,1328.13 L 402.401,1327.05 L 394.998,1326.73 L 387.971,1327.4 z " style="fill-opacity:1.000000;fill:rgb(70,124,194);stroke:rgb(0,0,0);stroke-width:2"/></g>
<g fill-rule="evenodd"><path d="M 334.089,1163.6 L 331.23,1159.92 L 329.187,1158.37 L 327.549,1156.59 L 319.449,1150.77 L 312.967,1145.42 L 306.224,1137.42 L 302.046,1129.88 L 299.385,1121.99 L 298.353,1114.2 L 298.855,1106.63 L 300.508,1099.62 L 303.503,1092.44 L 307.449,1086.51 L 312.681,1080.82 L 314.966,1078.83 L 322.849,1073.74 L 330.374,1070.77 L 338.247,1069.28 L 346.28,1069.26 L 352.511,1070.26 L 361.871,1073.59 L 368.92,1077.87 L 375.184,1083.52 L 380.616,1090.55 L 384.166,1098.2 L 386.185,1106.07 L 386.635,1114.13 L 385.534,1122.2 L 382.127,1131.72 L 377.677,1139.01 L 371.749,1145.62 L 357.215,1156.83 L 355.572,1158.67 L 353.629,1160.17 L 350.464,1164.78 L 349.056,1166.28 L 347.369,1167.45 L 345.476,1168.25 L 343.459,1168.63 L 341.406,1168.59 L 339.406,1168.12 L 337.547,1167.25 L 335.908,1166.01 L 334.089,1163.6 z " style="fill-opacity:1.000000;fill:rgb(84,248,27);stroke:rgb(0,0,0);stroke-width:2"/></g>
<g fill-rule="evenodd"><path d="M 196.878,286.955 L 194.152,285.734 L 192.66,284.508 L 191.437,283.015 L 189.971,279.462 L 189.785,277.541 L 190.539,273.775 L 192.682,270.584 L 194.599,268.939 L 196.297,268.035 L 200.053,267.289 L 215.913,267.479 L 219.449,268.939 L 221.74,270.974 L 222.948,272.637 L 223.785,274.516 L 224.213,276.527 L 224.213,278.585 L 223.204,282.001 L 222.088,283.73 L 220.637,285.188 L 218.915,286.311 L 217.14,286.997 L 214.457,289.672 L 210.913,291.141 L 203.138,291.141 L 199.593,289.672 L 196.878,286.955 z " style="fill-opacity:1.000000;fill:rgb(232,231,141);stroke:rgb(0,0,0);stroke-width:2"/></g>
<g fill-rule="evenodd"><path d="M 2623.85,1288.41 L 2623.07,1284.61 L 2623.26,1282.68 L 2624.73,1279.14 L 2625.95,1277.64 L 2629.14,1275.51 L 2632.91,1274.76 L 3087.74,1274.76 L 3091.51,1275.51 L 3094.7,1277.64 L 3096.83,1280.83 L 3097.39,1282.68 L 3097.53,1331.22 L 3096.73,1334.19 L 3095.7,1335.97 L 3094.32,1337.5 L 3092.66,1338.71 L 3090.78,1339.55 L 3087.74,1340.03 L 2628.19,1340.03 L 2624.43,1339.28 L 2621.24,1337.15 L 2619.1,1333.95 L 2618.36,1330.19 L 2619.1,1326.43 L 2623.94,1318.85 L 2626.92,1303.87 L 2623.85,1288.41 z " style="fill-opacity:1.000000;fill:rgb(118,90,46);stroke:rgb(0,0,0);stroke-width:2"/></g>
<g fill-rule="evenodd"><path d="M 3097.58,446.536 L 3097.53,613.192 L 3096.73,616.683 L 3095.7,618.464 L 3094.32,619.994 L 3092.66,621.201 L 3090.78,622.039 L 3087.74,622.519 L 3037.97,622.331 L 3036.13,621.771 L 3032.94,619.638 L 3030.8,616.447 L 3030.06,612.681 L 3030.06,446.536 L 3030.24,444.617 L 3031.71,441.072 L 3032.94,439.581 L 3036.13,437.448 L 3039.9,436.698 L 3087.74,436.698 L 3091.51,437.448 L 3093.21,438.358 L 3094.7,439.581 L 3096.83,442.772 L 3097.58,446.536 z " style="fill-opacity:1.000000;fill:rgb(99,51,159);stroke:rgb(0,0,0);stroke-width:2"/></g>
<g fill-rule="evenodd"><path d="M 2366.99,570.282 L 2429.86,507.419 L 2432.6,505.636 L 2435.83,505.124 L 2438.99,505.97 L 2441.54,508.029 L 2443.02,510.946 L 2443.19,514.215 L 2442.02,517.269 L 2440.98,518.549 L 2375.81,583.722 L 2373.25,585.432 L 2370.24,586.027 L 1167.25,584.406 L 1164.05,583.722 L 1162.63,582.897 L 1160.44,580.462 L 1159.43,577.347 L 1159.78,574.092 L 1161.42,571.261 L 1164.07,569.34 L 1167.28,568.667 L 2366.99,570.282 z " style="fill-opacity:1.000000;fill:rgb(201,154,102);stroke:rgb(0,0,0);stroke-width:2"/></g>
<g fill-rule="evenodd"><path d="M 2327.42,405.923 L 2396.06,337.281 L 2398.12,335.945 L 2400.54,335.561 L 2402.91,336.195 L 2404.82,337.739 L 2405.94,339.926 L 2406.06,342.377 L 2405.19,344.668 L 2404.41,345.627 L 2334.04,415.999 L 2332.12,417.278 L 2329.86,417.726 L 1167.26,417.15 L 1166.03,417.022 L 1163.79,416.023 L 1162.15,414.197 L 1161.39,411.862 L 1161.65,409.421 L 1162.88,407.298 L 1164.87,405.857 L 1167.27,405.349 L 2327.42,405.923 z " style="fill-opacity:1.000000;fill:rgb(50,13,183);stroke:rgb(0,0,0);stroke-width:2"/></g>
<g fill-rule="evenodd"><path d="M 2633.93,1126.61 L 2642.31,1126.6 L 2644.1,1126.88 L 2654.01,1131.84 L 2658.85,1136.57 L 2659.96,1138.11 L 2664.34,1146.95 L 2668.78,1164.76 L 2668.78,1186.82 L 2664.34,1204.64 L 2659.47,1214.29 L 2654.73,1219.13 L 2653.19,1220.24 L 2644.95,1224.36 L 2643.22,1224.91 L 2634.07,1224.98 L 2632.27,1224.7 L 2622.37,1219.75 L 2617.52,1215.01 L 2616.42,1213.47 L 2612.04,1204.64 L 2607.6,1186.82 L 2607.6,1164.76 L 2612.3,1146.36 L 2616.91,1137.3 L 2621.65,1132.45 L 2623.18,1131.35 L 2631.43,1127.22 L 2633.93,1126.61M 2619.35,1185.38 L 2623.14,1200.52 L 2626.55,1207.34 L 2629.31,1210.11 L 2635.45,1213.18 L 2640.92,1213.18 L 2647.06,1210.11 L 2649.82,1207.34 L 2653.23,1200.53 L 2657.02,1185.37 L 2657.02,1166.22 L 2653.23,1151.05 L 2649.83,1144.24 L 2647.06,1141.48 L 2640.92,1138.4 L 2635.46,1138.4 L 2629.32,1141.47 L 2626.55,1144.24 L 2623.14,1151.05 L 2619.35,1166.2 L 2619.35,1185.38 z " style="fill-opacity:1.000000;fill:rgb(49,88,163);stroke:rgb(0,0,0);stroke-width:2"/></g>
<g fill-rule="evenodd"><path d="M 2745.32,1184.32 L 2772.46,1184.32 L 2772.46,1161.36 L 2772.97,1158.96 L 2774.41,1156.98 L 2776.54,1155.75 L 2777.75,1155.49 L 2780.19,1155.75 L 2782.31,1156.98 L 2783.75,1158.96 L 2784.27,1161.36 L 2784.27,1184.32 L 2790.73,1184.32 L 2793.13,1184.83 L 2794.2,1185.45 L 2795.84,1187.27 L 2796.6,1189.6 L 2796.34,1192.04 L 2795.84,1193.17 L 2794.2,1195 L 2793.13,1195.61 L 2790.73,1196.12 L 2784.27,1196.12 L 2784.27,1219.08 L 2783.75,1221.48 L 2782.31,1223.47 L 2780.19,1224.69 L 2778.98,1224.95 L 2776.54,1224.69 L 2774.41,1223.47 L 2772.97,1221.48 L 2772.46,1219.08 L 2772.46,1196.12 L 2736.02,1196.02 L 2734.96,1195.71 L 2733.08,1194.51 L 2731.78,1192.71 L 2731.41,1191.66 L 2731.28,1189.44 L 2731.54,1188.35 L 2752.15,1126.51 L 2753.39,1124.4 L 2755.39,1122.97 L 2757.79,1122.48 L 2759.02,1122.61 L 2761.25,1123.63 L 2762.88,1125.46 L 2763.62,1127.8 L 2763.35,1130.24 L 2745.32,1184.32 z " style="fill-opacity:1.000000;fill:rgb(90,37,93);stroke:rgb(0,0,0);stroke-width:2"/></g>
<g fill-rule="evenodd"><path d="M 2697.68,1469.66 L 2696.58,1470.49 L 2694.78,1471.17 L 2693.02,1471.25 L 2691.37,1470.83 L 2689.46,1469.55 L 2685.34,1465.43 L 2684.06,1463.52 L 2683.72,1462.41 L 2683.72,1460.11 L 2684.6,1457.98 L 2689.92,1452.55 L 2692.11,1451.43 L 2694.56,1451.31 L 2696.91,1452.23 L 2701.93,1457.09 L 2703.21,1459 L 2703.66,1461.26 L 2703.21,1463.52 L 2701.93,1465.43 L 2697.68,1469.66 z " style="fill-opacity:1.000000;fill:rgb(5,23,88);stroke:rgb(0,0,0);stroke-width:2"/></g>
<g fill-rule="evenodd"><path d="M 2625.15,1373.48 L 2627.4,1372.91 L 2635.91,1372.9 L 2637.71,1373.18 L 2647.61,1378.13 L 2652.45,1382.87 L 2653.56,1384.41 L 2657.94,1393.25 L 2662.38,1411.06 L 2662.38,1433.12 L 2657.94,1450.94 L 2653.07,1460.59 L 2648.33,1465.43 L 2646.8,1466.54 L 2638.55,1470.66 L 2636.82,1471.21 L 2627.67,1471.28 L 2625.87,1471 L 2615.97,1466.05 L 2611.13,1461.31 L 2610.02,1459.77 L 2605.64,1450.94 L 2601.2,1433.12 L 2601.2,1411.06 L 2605.64,1393.25 L 2610.02,1384.41 L 2611.13,1382.87 L 2615.97,1378.14 L 2625.15,1373.48M 2622.92,1387.77 L 2620.15,1390.54 L 2616.75,1397.35 L 2612.96,1412.5 L 2612.96,1431.68 L 2616.74,1446.82 L 2620.15,1453.64 L 2622.91,1456.41 L 2629.06,1459.48 L 2634.52,1459.48 L 2640.66,1456.41 L 2643.43,1453.64 L 2646.84,1446.83 L 2650.63,1431.67 L 2650.63,1412.51 L 2646.84,1397.35 L 2643.43,1390.54 L 2640.66,1387.78 L 2634.52,1384.7 L 2629.06,1384.7 L 2622.92,1387.77 z " style="fill-opacity:1.000000;fill:rgb(233,94,212);stroke:rgb(0,0,0);stroke-width:2"/></g>
<g fill-rule="evenodd"><path d="M 2737.89,1407.79 L 2741.31,1406.16 L 2743.11,1405.88 L 2764.63,1405.95 L 2766.36,1406.51 L 2775.41,1411.12 L 2780.88,1416.58 L 2785.49,1425.64 L 2786.04,1427.37 L 2786.04,1449.8 L 2785.49,1451.53 L 2780.88,1460.59 L 2775.41,1466.05 L 2766.36,1470.66 L 2764.63,1471.21 L 2743.11,1471.28 L 2740.47,1470.66 L 2732.22,1466.54 L 2730.69,1465.43 L 2725.79,1460.35 L 2724.91,1458.06 L 2725.04,1455.61 L 2726.15,1453.42 L 2727.02,1452.55 L 2729.21,1451.43 L 2731.66,1451.31 L 2733.95,1452.18 L 2738.35,1456.41 L 2744.5,1459.48 L 2762.33,1459.48 L 2768.47,1456.41 L 2771.24,1453.64 L 2774.31,1447.49 L 2774.31,1429.67 L 2771.24,1423.52 L 2768.48,1420.76 L 2762.32,1417.68 L 2744.5,1417.68 L 2738.36,1420.76 L 2733.98,1424.96 L 2731.74,1425.84 L 2730.54,1425.93 L 2728.21,1425.36 L 2726.3,1423.92 L 2725.12,1421.83 L 2724.87,1419.44 L 2728.99,1378.21 L 2729.59,1376.14 L 2730.9,1374.43 L 2732.74,1373.29 L 2734.86,1372.9 L 2776.09,1372.9 L 2778.49,1373.41 L 2780.47,1374.85 L 2781.7,1376.98 L 2781.96,1378.18 L 2781.7,1380.63 L 2780.47,1382.75 L 2779.56,1383.58 L 2777.32,1384.57 L 2740.2,1384.7 L 2737.89,1407.79 z " style="fill-opacity:1.000000;fill:rgb(171,178,205);stroke:rgb(0,0,0);stroke-width:2"/></g>
<g fill-rule="evenodd"><path d="M 2704.08,1223.36 L 2702.98,1224.19 L 2701.18,1224.87 L 2699.41,1224.95 L 2697.77,1224.53 L 2695.86,1223.25 L 2691.73,1219.13 L 2690.46,1217.22 L 2690.12,1216.11 L 2690.12,1213.81 L 2691,1211.68 L 2696.32,1206.25 L 2698.5,1205.13 L 2700.96,1205.01 L 2703.31,1205.93 L 2708.33,1210.79 L 2709.61,1212.7 L 2710.05,1214.96 L 2709.61,1217.22 L 2708.33,1219.13 L 2704.08,1223.36 z " style="fill-opacity:1.000000;fill:rgb(198,155,180);stroke:rgb(0,0,0);stroke-width:2"/></g>
<g fill-rule="evenodd"><path d="M 2897.05,1413.56 L 2890.9,1416.63 L 2889.18,1418.35 L 2889.05,1466.61 L 2888.06,1468.85 L 2886.23,1470.49 L 2885.11,1470.99 L 2883.9,1471.25 L 2881.46,1470.99 L 2879.33,1469.77 L 2877.89,1467.78 L 2877.38,1465.38 L 2877.38,1407.66 L 2877.51,1406.43 L 2878.51,1404.19 L 2880.33,1402.55 L 2882.67,1401.79 L 2885.11,1402.05 L 2886.23,1402.55 L 2887.23,1403.27 L 2888.35,1404.71 L 2893.01,1402.38 L 2894.74,1401.83 L 2908.93,1401.83 L 2910.66,1402.38 L 2918.9,1406.51 L 2920.39,1407.57 L 2921.87,1406.51 L 2930.12,1402.38 L 2931.85,1401.83 L 2945.13,1401.76 L 2947.76,1402.38 L 2956.82,1407 L 2958.65,1409.14 L 2962.77,1417.39 L 2963.32,1419.12 L 2963.39,1465.38 L 2963.26,1466.61 L 2962.27,1468.85 L 2960.44,1470.49 L 2959.32,1470.99 L 2958.11,1471.25 L 2955.67,1470.99 L 2953.54,1469.77 L 2952.72,1468.85 L 2951.72,1466.61 L 2951.59,1421.43 L 2948.97,1416.18 L 2943.73,1413.56 L 2934.15,1413.56 L 2928.91,1416.18 L 2926.29,1421.42 L 2926.16,1466.61 L 2925.16,1468.85 L 2923.34,1470.49 L 2922.21,1470.99 L 2919.77,1471.25 L 2918.56,1470.99 L 2916.44,1469.77 L 2915.61,1468.85 L 2914.61,1466.61 L 2914.49,1421.43 L 2911.87,1416.18 L 2906.62,1413.56 L 2897.05,1413.56 z " style="fill-opacity:1.000000;fill:rgb(84,17,14);stroke:rgb(0,0,0);stroke-width:2"/></g>
<g fill-rule="evenodd"><path d="M 3022.06,1413.56 L 3012.49,1413.56 L 3006.34,1416.63 L 3004.62,1418.35 L 3004.49,1466.61 L 3003.5,1468.85 L 3001.67,1470.49 L 3000.55,1470.99 L 2999.34,1471.25 L 2996.9,1470.99 L 2994.77,1469.77 L 2993.33,1467.78 L 2992.82,1465.38 L 2992.95,1406.43 L 2993.95,1404.19 L 2994.77,1403.27 L 2996.9,1402.05 L 2998.1,1401.79 L 3000.55,1402.05 L 3002.67,1403.27 L 3003.79,1404.71 L 3009.29,1402.04 L 3011.09,1401.76 L 3023.46,1401.76 L 3025.25,1402.04 L 3034.34,1406.51 L 3035.83,1407.57 L 3037.31,1406.51 L 3045.55,1402.38 L 3047.29,1401.83 L 3061.47,1401.83 L 3063.2,1402.38 L 3071.45,1406.51 L 3072.98,1407.61 L 3074.09,1409.14 L 3078.21,1417.39 L 3078.83,1420.03 L 3078.83,1465.38 L 3078.32,1467.78 L 3076.88,1469.77 L 3074.75,1470.99 L 3073.55,1471.25 L 3071.11,1470.99 L 3068.98,1469.77 L 3068.16,1468.85 L 3067.16,1466.61 L 3067.03,1421.43 L 3064.41,1416.18 L 3059.17,1413.56 L 3049.59,1413.56 L 3044.35,1416.18 L 3041.73,1421.42 L 3041.6,1466.61 L 3040.6,1468.85 L 3038.78,1470.49 L 3037.65,1470.99 L 3036.44,1471.25 L 3034,1470.99 L 3031.88,1469.77 L 3030.43,1467.78 L 3029.93,1465.38 L 3029.93,1421.43 L 3027.3,1416.18 L 3022.06,1413.56 z " style="fill-opacity:1.000000;fill:rgb(130,116,65);stroke:rgb(0,0,0);stroke-width:2"/></g>
<g fill-rule="evenodd"><path d="M 2895.58,1172.05 L 2895.45,1220.31 L 2894.45,1222.55 L 2892.63,1224.19 L 2890.3,1224.95 L 2887.85,1224.69 L 2886.73,1224.19 L 2884.9,1222.55 L 2883.91,1220.31 L 2883.78,1219.08 L 2883.78,1161.36 L 2883.91,1160.13 L 2884.9,1157.89 L 2886.73,1156.25 L 2889.06,1155.49 L 2891.5,1155.75 L 2892.63,1156.25 L 2893.63,1156.98 L 2894.75,1158.41 L 2899.41,1156.08 L 2901.14,1155.53 L 2915.32,1155.53 L 2917.06,1156.08 L 2925.3,1160.21 L 2926.79,1161.27 L 2928.27,1160.21 L 2936.51,1156.08 L 2938.24,1155.53 L 2951.52,1155.46 L 2954.16,1156.08 L 2963.22,1160.7 L 2965.05,1162.84 L 2969.17,1171.09 L 2969.72,1172.82 L 2969.79,1219.08 L 2969.66,1220.31 L 2968.66,1222.55 L 2966.84,1224.19 L 2965.71,1224.69 L 2964.51,1224.95 L 2962.06,1224.69 L 2959.94,1223.47 L 2959.11,1222.55 L 2958.12,1220.31 L 2957.99,1175.13 L 2955.37,1169.88 L 2950.13,1167.26 L 2940.55,1167.26 L 2935.31,1169.88 L 2932.69,1175.12 L 2932.56,1220.31 L 2931.56,1222.55 L 2930.73,1223.47 L 2929.74,1224.19 L 2927.4,1224.95 L 2924.96,1224.69 L 2922.83,1223.47 L 2922.01,1222.55 L 2921.01,1220.31 L 2920.88,1175.13 L 2918.26,1169.88 L 2913.02,1167.26 L 2903.45,1167.26 L 2897.3,1170.33 L 2895.58,1172.05 z " style="fill-opacity:1.000000;fill:rgb(33,61,220);stroke:rgb(0,0,0);stroke-width:2"/></g>
<g fill-rule="evenodd"><path d="M 3011.02,1172.05 L 3010.89,1220.31 L 3009.89,1222.55 L 3008.07,1224.19 L 3005.73,1224.95 L 3003.29,1224.69 L 3002.17,1224.19 L 3000.34,1222.55 L 2999.35,1220.31 L 2999.22,1219.08 L 2999.22,1161.36 L 2999.35,1160.13 L 3000.34,1157.89 L 3002.17,1156.25 L 3004.5,1155.49 L 3006.94,1155.75 L 3008.07,1156.25 L 3009.07,1156.98 L 3010.19,1158.41 L 3014.85,1156.08 L 3016.58,1155.53 L 3030.76,1155.53 L 3032.49,1156.08 L 3040.74,1160.21 L 3042.22,1161.27 L 3043.71,1160.21 L 3051.95,1156.08 L 3053.68,1155.53 L 3066.96,1155.46 L 3069.6,1156.08 L 3078.66,1160.7 L 3080.48,1162.84 L 3084.61,1171.09 L 3085.16,1172.82 L 3085.23,1219.08 L 3085.1,1220.31 L 3084.1,1222.55 L 3082.28,1224.19 L 3081.15,1224.69 L 3079.94,1224.95 L 3077.5,1224.69 L 3075.38,1223.47 L 3074.55,1222.55 L 3073.56,1220.31 L 3073.43,1175.13 L 3070.81,1169.88 L 3065.56,1167.26 L 3055.99,1167.26 L 3050.75,1169.88 L 3048.13,1175.12 L 3048,1220.31 L 3047,1222.55 L 3046.17,1223.47 L 3045.17,1224.19 L 3042.84,1224.95 L 3040.4,1224.69 L 3038.27,1223.47 L 3037.45,1222.55 L 3036.45,1220.31 L 3036.32,1175.13 L 3033.7,1169.88 L 3028.46,1167.26 L 3018.88,1167.26 L 3012.74,1170.33 L 3011.02,1172.05 z " style="fill-opacity:1.000000;fill:rgb(135,112,233);stroke:rgb(0,0,0);stroke-width:2"/></g>
<g fill-rule="evenodd"><path d="M 2771.91,962.29 L 2771.91,944.468 L 2768.84,938.322 L 2766.08,935.559 L 2759.93,932.482 L 2748.95,932.482 L 2746.57,931.979 L 2744.59,930.553 L 2743.35,928.45 L 2743.09,927.253 L 2743.32,924.826 L 2744.51,922.696 L 2764.81,899.5 L 2722.99,899.372 L 2720.75,898.374 L 2719.83,897.549 L 2718.6,895.423 L 2718.35,894.216 L 2718.6,891.775 L 2719.11,890.647 L 2720.75,888.824 L 2722.99,887.827 L 2724.22,887.697 L 2777.81,887.697 L 2780.2,888.202 L 2782.18,889.628 L 2782.91,890.615 L 2783.68,892.93 L 2783.69,894.156 L 2782.96,896.485 L 2761.92,920.725 L 2763.96,921.303 L 2773.02,925.917 L 2777.86,930.653 L 2778.97,932.189 L 2783.09,940.435 L 2783.64,942.164 L 2783.72,963.686 L 2783.09,966.327 L 2778.97,974.571 L 2777.86,976.105 L 2773.02,980.845 L 2763.96,985.457 L 2762.23,986.009 L 2736.58,986.079 L 2734.79,985.801 L 2724.89,980.843 L 2719.27,975.145 L 2718.39,972.854 L 2718.52,970.403 L 2718.96,969.251 L 2720.5,967.344 L 2722.69,966.231 L 2723.91,966.039 L 2725.14,966.103 L 2727.43,966.982 L 2731.83,971.203 L 2737.98,974.275 L 2759.93,974.275 L 2766.07,971.205 L 2768.84,968.436 L 2771.91,962.29 z " style="fill-opacity:1.000000;fill:rgb(62,161,65);stroke:rgb(0,0,0);stroke-width:2"/></g>
<g fill-rule="evenodd"><path d="M 2695.28,984.453 L 2694.19,985.289 L 2692.38,985.967 L 2690.62,986.047 L 2688.98,985.631 L 2687.06,984.351 L 2682.94,980.229 L 2681.66,978.316 L 2681.32,977.208 L 2681.32,974.905 L 2682.2,972.778 L 2687.52,967.344 L 2689.71,966.231 L 2692.16,966.103 L 2694.51,967.024 L 2699.53,971.884 L 2700.81,973.798 L 2701.26,976.057 L 2700.81,978.316 L 2699.53,980.229 L 2695.28,984.453 z " style="fill-opacity:1.000000;fill:rgb(225,252,103);stroke:rgb(0,0,0);stroke-width:2"/></g>
<g fill-rule="evenodd"><path d="M 2622.75,888.274 L 2625,887.703 L 2633.51,887.697 L 2635.31,887.977 L 2645.21,892.932 L 2650.06,897.671 L 2651.16,899.206 L 2655.54,908.044 L 2659.99,925.861 L 2659.99,947.918 L 2655.54,965.737 L 2650.67,975.383 L 2645.93,980.227 L 2644.4,981.335 L 2636.15,985.457 L 2634.42,986.009 L 2625.27,986.079 L 2623.47,985.801 L 2613.57,980.843 L 2608.73,976.103 L 2607.62,974.571 L 2603.24,965.735 L 2598.8,947.916 L 2598.8,925.861 L 2603.24,908.044 L 2607.62,899.206 L 2608.73,897.671 L 2613.57,892.934 L 2622.75,888.274M 2614.34,961.621 L 2617.75,968.44 L 2620.52,971.205 L 2626.66,974.275 L 2632.12,974.275 L 2638.26,971.207 L 2641.03,968.442 L 2644.44,961.623 L 2648.23,946.467 L 2648.23,927.312 L 2644.44,912.151 L 2641.03,905.341 L 2638.26,902.573 L 2632.12,899.5 L 2626.66,899.5 L 2620.52,902.571 L 2617.75,905.339 L 2614.35,912.151 L 2610.56,927.299 L 2610.56,946.477 L 2614.34,961.621 z " style="fill-opacity:1.000000;fill:rgb(62,1,126);stroke:rgb(0,0,0);stroke-width:2"/></g>
<g fill-rule="evenodd"><path d="M 2886.79,933.148 L 2886.66,981.404 L 2885.66,983.648 L 2883.83,985.289 L 2881.5,986.047 L 2879.06,985.791 L 2877.93,985.289 L 2876.11,983.648 L 2875.11,981.404 L 2874.98,980.177 L 2874.98,922.456 L 2875.11,921.231 L 2876.11,918.988 L 2877.93,917.347 L 2880.27,916.589 L 2882.71,916.845 L 2883.83,917.347 L 2884.83,918.072 L 2885.96,919.506 L 2890.61,917.179 L 2892.34,916.627 L 2906.53,916.627 L 2908.26,917.179 L 2916.51,921.303 L 2917.99,922.365 L 2919.47,921.303 L 2927.72,917.179 L 2929.45,916.627 L 2942.73,916.555 L 2945.37,917.179 L 2954.42,921.795 L 2956.25,923.942 L 2960.37,932.187 L 2960.92,933.918 L 2961,980.177 L 2960.87,981.404 L 2959.87,983.648 L 2958.04,985.289 L 2956.92,985.791 L 2955.71,986.047 L 2953.27,985.791 L 2951.14,984.563 L 2950.32,983.648 L 2949.32,981.404 L 2949.19,936.223 L 2946.57,930.981 L 2941.33,928.358 L 2931.76,928.358 L 2926.51,930.979 L 2923.89,936.219 L 2923.76,981.404 L 2922.76,983.648 L 2921.94,984.563 L 2920.94,985.289 L 2918.6,986.047 L 2916.16,985.791 L 2914.04,984.563 L 2913.21,983.648 L 2912.22,981.404 L 2912.09,936.223 L 2909.47,930.981 L 2904.22,928.358 L 2894.65,928.358 L 2888.5,931.431 L 2886.79,933.148 z " style="fill-opacity:1.000000;fill:rgb(151,234,220);stroke:rgb(0,0,0);stroke-width:2"/></g>
<g fill-rule="evenodd"><path d="M 3002.22,933.148 L 3002.09,981.404 L 3001.1,983.648 L 2999.27,985.289 L 2996.94,986.047 L 2994.5,985.791 L 2993.37,985.289 L 2991.55,983.648 L 2990.55,981.404 L 2990.42,980.177 L 2990.42,922.456 L 2990.55,921.231 L 2991.55,918.988 L 2993.37,917.347 L 2995.71,916.589 L 2998.15,916.845 L 2999.27,917.347 L 3000.27,918.072 L 3001.39,919.506 L 3006.05,917.179 L 3007.78,916.627 L 3021.97,916.627 L 3023.7,917.179 L 3031.94,921.303 L 3033.43,922.365 L 3034.91,921.303 L 3043.16,917.179 L 3044.89,916.627 L 3058.16,916.555 L 3060.8,917.179 L 3069.86,921.795 L 3071.69,923.942 L 3075.81,932.187 L 3076.36,933.918 L 3076.43,980.177 L 3076.3,981.404 L 3075.31,983.648 L 3073.48,985.289 L 3072.36,985.791 L 3071.15,986.047 L 3068.71,985.791 L 3066.58,984.563 L 3065.76,983.648 L 3064.76,981.404 L 3064.63,936.223 L 3062.01,930.981 L 3056.77,928.358 L 3047.19,928.358 L 3041.95,930.979 L 3039.33,936.219 L 3039.2,981.404 L 3038.2,983.648 L 3037.38,984.563 L 3036.38,985.289 L 3034.04,986.047 L 3031.6,985.791 L 3029.48,984.563 L 3028.65,983.648 L 3027.65,981.404 L 3027.53,936.223 L 3024.91,930.981 L 3019.66,928.358 L 3010.09,928.358 L 3003.94,931.431 L 3002.22,933.148 z " style="fill-opacity:1.000000;fill:rgb(107,150,143);stroke:rgb(0,0,0);stroke-width:2"/></g>
<g fill-rule="evenodd"><path d="M 2604.55,753.741 L 2601.96,753.325 L 2600.05,752.046 L 2595.19,747.03 L 2594.31,744.903 L 2594.2,743.751 L 2594.31,742.6 L 2595.19,740.473 L 2600.05,735.455 L 2601.96,734.175 L 2604.22,733.725 L 2606.48,734.173 L 2608.4,735.453 L 2613.25,740.473 L 2614.14,742.6 L 2614.25,743.751 L 2613.8,746.01 L 2612.52,747.924 L 2607.5,752.782 L 2606.05,753.485 L 2604.55,753.741 z " style="fill-opacity:1.000000;fill:rgb(56,92,42);stroke:rgb(0,0,0);stroke-width:2"/></g>
<g fill-rule="evenodd"><path d="M 2538.13,655.407 L 2546.51,655.391 L 2548.3,655.671 L 2558.2,660.629 L 2563.05,665.365 L 2564.15,666.901 L 2568.53,675.739 L 2572.98,693.556 L 2572.98,715.611 L 2568.53,733.429 L 2563.66,743.077 L 2558.92,747.924 L 2557.39,749.029 L 2549.14,753.151 L 2547.41,753.703 L 2538.26,753.773 L 2536.46,753.495 L 2526.56,748.537 L 2521.72,743.797 L 2520.61,742.266 L 2516.23,733.429 L 2511.79,715.613 L 2511.79,693.556 L 2516.49,675.147 L 2521.1,666.089 L 2525.84,661.243 L 2527.37,660.137 L 2535.62,656.015 L 2538.13,655.407M 2523.55,714.167 L 2527.33,729.315 L 2530.74,736.134 L 2533.51,738.897 L 2539.65,741.97 L 2545.11,741.97 L 2551.25,738.899 L 2554.02,736.13 L 2557.43,729.317 L 2561.22,714.165 L 2561.22,695.003 L 2557.43,679.847 L 2554.02,673.034 L 2551.26,670.271 L 2545.11,667.194 L 2539.65,667.194 L 2533.51,670.267 L 2530.74,673.034 L 2527.34,679.843 L 2523.55,694.997 L 2523.55,714.167 z " style="fill-opacity:1.000000;fill:rgb(236,176,59);stroke:rgb(0,0,0);stroke-width:2"/></g>
<g fill-rule="evenodd"><path d="M 2541.99,471.444 L 2544.24,470.872 L 2552.75,470.866 L 2554.54,471.146 L 2564.44,476.102 L 2569.29,480.84 L 2570.39,482.376 L 2574.77,491.214 L 2579.22,509.031 L 2579.22,531.088 L 2574.77,548.907 L 2569.9,558.553 L 2565.17,563.397 L 2563.63,564.504 L 2555.38,568.627 L 2553.65,569.178 L 2544.5,569.248 L 2542.71,568.97 L 2532.8,564.012 L 2527.96,559.272 L 2526.85,557.741 L 2522.48,548.905 L 2518.03,531.086 L 2518.03,509.031 L 2522.47,491.214 L 2526.85,482.376 L 2527.96,480.84 L 2532.8,476.104 L 2541.99,471.444M 2533.58,544.79 L 2536.99,551.609 L 2539.75,554.374 L 2545.89,557.445 L 2551.36,557.445 L 2557.5,554.376 L 2560.26,551.611 L 2563.67,544.792 L 2567.46,529.636 L 2567.46,510.482 L 2563.67,495.32 L 2560.27,488.511 L 2557.5,485.742 L 2551.35,482.67 L 2545.9,482.67 L 2539.75,485.74 L 2536.98,488.509 L 2533.58,495.32 L 2529.79,510.468 L 2529.79,529.646 L 2533.58,544.79 z " style="fill-opacity:1.000000;fill:rgb(251,50,175);stroke:rgb(0,0,0);stroke-width:2"/></g>
<g fill-rule="evenodd"><path d="M 2590.88,385.293 L 2589.78,386.133 L 2587.98,386.811 L 2586.21,386.891 L 2584.57,386.475 L 2582.66,385.195 L 2578.53,381.073 L 2577.26,379.16 L 2576.92,378.052 L 2576.92,375.749 L 2577.8,373.622 L 2583.12,368.188 L 2585.3,367.075 L 2587.75,366.947 L 2590.11,367.868 L 2595.13,372.726 L 2596.41,374.641 L 2596.86,376.901 L 2596.41,379.16 L 2595.13,381.073 L 2590.88,385.293 z " style="fill-opacity:1.000000;fill:rgb(60,84,236);stroke:rgb(0,0,0);stroke-width:2"/></g>
<g fill-rule="evenodd"><path d="M 2518.35,289.116 L 2520.6,288.547 L 2529.11,288.541 L 2530.91,288.82 L 2540.81,293.778 L 2545.65,298.514 L 2546.76,300.05 L 2551.14,308.888 L 2555.58,326.705 L 2555.58,348.76 L 2551.14,366.579 L 2546.27,376.227 L 2541.53,381.073 L 2540,382.178 L 2531.75,386.301 L 2530.02,386.853 L 2520.87,386.922 L 2519.07,386.645 L 2509.17,381.687 L 2504.33,376.947 L 2503.22,375.415 L 2498.84,366.579 L 2494.4,348.762 L 2494.4,326.705 L 2498.84,308.888 L 2503.22,300.05 L 2504.33,298.514 L 2509.17,293.778 L 2518.35,289.116M 2513.35,369.284 L 2516.11,372.047 L 2522.26,375.119 L 2527.72,375.119 L 2533.86,372.049 L 2536.63,369.28 L 2540.04,362.466 L 2543.83,347.315 L 2543.83,328.152 L 2540.04,312.997 L 2536.63,306.183 L 2533.87,303.42 L 2527.72,300.344 L 2522.26,300.344 L 2516.12,303.416 L 2513.35,306.183 L 2509.94,312.993 L 2506.15,328.146 L 2506.15,347.317 L 2509.94,362.464 L 2513.35,369.284 z " style="fill-opacity:1.000000;fill:rgb(24,219,92);stroke:rgb(0,0,0);stroke-width:2"/></g>
<g fill-rule="evenodd"><path d="M 2595.32,206.17 L 2594.23,207.006 L 2592.43,207.683 L 2590.66,207.763 L 2589.02,207.348 L 2587.1,206.068 L 2582.98,201.946 L 2581.7,200.033 L 2581.36,198.925 L 2581.36,196.622 L 2582.24,194.495 L 2587.56,189.061 L 2589.75,187.947 L 2592.2,187.82 L 2594.55,188.741 L 2599.57,193.601 L 2600.85,195.514 L 2601.3,197.773 L 2600.85,200.033 L 2599.57,201.946 L 2595.32,206.17 z " style="fill-opacity:1.000000;fill:rgb(2,26,254);stroke:rgb(0,0,0);stroke-width:2"/></g>
<g fill-rule="evenodd"><path d="M 2525.18,109.427 L 2533.56,109.413 L 2535.35,109.693 L 2545.25,114.649 L 2550.1,119.387 L 2551.2,120.923 L 2555.58,129.761 L 2560.03,147.578 L 2560.03,169.635 L 2555.58,187.454 L 2550.71,197.1 L 2545.97,201.944 L 2544.44,203.051 L 2536.19,207.174 L 2534.46,207.725 L 2525.31,207.795 L 2523.52,207.518 L 2513.61,202.56 L 2508.77,197.819 L 2507.66,196.288 L 2503.28,187.452 L 2498.84,169.633 L 2498.84,147.578 L 2503.54,129.169 L 2508.15,120.111 L 2512.89,115.265 L 2514.42,114.16 L 2522.67,110.037 L 2525.18,109.427M 2526.7,195.992 L 2532.16,195.992 L 2538.31,192.923 L 2541.07,190.159 L 2544.48,183.339 L 2548.27,168.184 L 2548.27,149.029 L 2544.48,133.868 L 2541.07,127.058 L 2538.31,124.289 L 2532.16,121.217 L 2526.7,121.217 L 2520.56,124.287 L 2517.79,127.056 L 2514.39,133.868 L 2510.6,149.015 L 2510.6,168.194 L 2514.38,183.337 L 2517.79,190.157 L 2520.56,192.921 L 2526.7,195.992 z " style="fill-opacity:1.000000;fill:rgb(67,251,250);stroke:rgb(0,0,0);stroke-width:2"/></g>
<g fill-rule="evenodd"><path d="M 2845.74,514.149 L 2843.12,519.389 L 2843.12,563.347 L 2842.61,565.748 L 2841.17,567.733 L 2839.04,568.96 L 2837.84,569.216 L 2835.4,568.96 L 2833.27,567.733 L 2832.45,566.817 L 2831.45,564.574 L 2831.32,519.393 L 2828.7,514.151 L 2823.46,511.528 L 2813.88,511.528 L 2807.74,514.601 L 2806.02,516.318 L 2805.89,564.574 L 2804.89,566.817 L 2803.07,568.459 L 2801.94,568.96 L 2800.73,569.216 L 2798.29,568.96 L 2796.17,567.733 L 2794.72,565.748 L 2794.22,563.347 L 2794.34,504.401 L 2795.34,502.158 L 2796.17,501.242 L 2798.29,500.014 L 2799.5,499.759 L 2801.94,500.014 L 2804.07,501.242 L 2805.19,502.675 L 2810.69,500.006 L 2812.49,499.725 L 2824.85,499.725 L 2826.65,500.004 L 2835.74,504.473 L 2837.22,505.534 L 2838.7,504.473 L 2846.95,500.348 L 2848.68,499.797 L 2862.87,499.797 L 2864.6,500.348 L 2872.84,504.473 L 2874.38,505.578 L 2875.48,507.112 L 2879.6,515.356 L 2880.23,517.995 L 2880.23,563.347 L 2879.72,565.748 L 2878.27,567.733 L 2876.15,568.96 L 2874.94,569.216 L 2872.5,568.96 L 2870.38,567.733 L 2869.55,566.817 L 2868.55,564.574 L 2868.42,519.393 L 2865.8,514.151 L 2860.56,511.528 L 2850.99,511.528 L 2845.74,514.149 z " style="fill-opacity:1.000000;fill:rgb(170,58,251);stroke:rgb(0,0,0);stroke-width:2"/></g>
<g fill-rule="evenodd"><path d="M 2651.46,741.97 L 2692.03,742.1 L 2694.27,743.097 L 2695.91,744.921 L 2696.67,747.256 L 2696.41,749.697 L 2695.19,751.822 L 2694.27,752.648 L 2692.03,753.645 L 2690.8,753.773 L 2637.21,753.773 L 2634.95,753.325 L 2633.03,752.046 L 2631.75,750.133 L 2631.42,749.025 L 2631.42,746.722 L 2631.75,745.614 L 2633.03,743.699 L 2681.52,695.211 L 2684.9,685.071 L 2684.9,679.18 L 2681.83,673.036 L 2679.06,670.267 L 2672.92,667.194 L 2655.09,667.194 L 2648.95,670.267 L 2644.54,674.489 L 2643.44,675.049 L 2641.02,675.431 L 2638.65,674.795 L 2636.74,673.252 L 2635.63,671.065 L 2635.5,668.614 L 2635.82,667.422 L 2637.16,665.365 L 2642,660.629 L 2651.9,655.673 L 2653.7,655.391 L 2674.31,655.391 L 2676.11,655.671 L 2686.01,660.627 L 2691.47,666.089 L 2696.08,675.147 L 2696.63,676.876 L 2696.7,686.029 L 2696.4,687.896 L 2692.28,700.265 L 2691.44,701.88 L 2651.46,741.97 z " style="fill-opacity:1.000000;fill:rgb(41,209,230);stroke:rgb(0,0,0);stroke-width:2"/></g>
<g fill-rule="evenodd"><path d="M 2764.29,706.019 L 2761.52,703.25 L 2755.37,700.177 L 2737.55,700.177 L 2731.4,703.252 L 2727.96,706.694 L 2725.95,708.012 L 2723.59,708.42 L 2722.39,708.256 L 2721.26,707.854 L 2719.34,706.408 L 2718.16,704.319 L 2717.91,701.934 L 2722.04,660.707 L 2722.64,658.636 L 2723.95,656.919 L 2725.79,655.787 L 2727.91,655.391 L 2769.14,655.391 L 2771.54,655.903 L 2773.52,657.344 L 2774.75,659.47 L 2775,660.677 L 2774.75,663.118 L 2773.52,665.243 L 2772.61,666.069 L 2770.36,667.066 L 2733.25,667.194 L 2730.94,690.285 L 2734.36,688.656 L 2736.15,688.374 L 2757.68,688.446 L 2759.41,688.998 L 2767.65,693.12 L 2769.19,694.225 L 2773.93,699.071 L 2778.88,708.973 L 2779.16,710.767 L 2779.16,731.38 L 2778.54,734.021 L 2774.42,742.266 L 2773.31,743.797 L 2768.46,748.539 L 2759.41,753.151 L 2757.67,753.703 L 2736.15,753.773 L 2734.36,753.495 L 2724.46,748.537 L 2719.61,743.799 L 2718.84,742.84 L 2717.96,740.549 L 2718.08,738.098 L 2718.53,736.946 L 2719.2,735.912 L 2721.1,734.367 L 2723.48,733.733 L 2724.71,733.797 L 2727,734.677 L 2731.4,738.899 L 2737.55,741.97 L 2755.38,741.97 L 2761.52,738.901 L 2764.28,736.136 L 2767.36,729.985 L 2767.36,712.162 L 2764.29,706.019 z " style="fill-opacity:1.000000;fill:rgb(5,60,124);stroke:rgb(0,0,0);stroke-width:2"/></g>
<g fill-rule="evenodd"><path d="M 2657.7,557.445 L 2698.27,557.575 L 2700.52,558.573 L 2702.16,560.396 L 2702.91,562.731 L 2702.66,565.172 L 2701.43,567.297 L 2700.52,568.123 L 2698.27,569.12 L 2697.05,569.248 L 2643.45,569.248 L 2641.19,568.8 L 2639.28,567.521 L 2638,565.608 L 2637.66,564.5 L 2637.66,562.197 L 2638,561.09 L 2639.28,559.174 L 2687.76,510.686 L 2691.15,500.546 L 2691.15,494.655 L 2688.07,488.509 L 2685.31,485.746 L 2679.16,482.67 L 2661.34,482.67 L 2655.19,485.74 L 2650.79,489.965 L 2649.69,490.524 L 2647.26,490.906 L 2644.89,490.27 L 2642.98,488.727 L 2641.87,486.54 L 2641.74,484.089 L 2642.06,482.897 L 2643.4,480.84 L 2648.24,476.104 L 2658.15,471.146 L 2659.94,470.866 L 2680.56,470.866 L 2682.35,471.146 L 2692.25,476.104 L 2697.71,481.564 L 2702.32,490.622 L 2702.88,492.352 L 2702.95,501.504 L 2702.64,503.371 L 2698.52,515.74 L 2697.69,517.355 L 2657.7,557.445 z " style="fill-opacity:1.000000;fill:rgb(148,117,216);stroke:rgb(0,0,0);stroke-width:2"/></g>
<g fill-rule="evenodd"><path d="M 2614.52,567.623 L 2613.42,568.459 L 2611.62,569.136 L 2609.85,569.216 L 2608.21,568.8 L 2606.29,567.521 L 2602.17,563.399 L 2600.89,561.485 L 2600.56,560.378 L 2600.56,558.075 L 2601.44,555.948 L 2606.75,550.514 L 2608.94,549.4 L 2611.39,549.272 L 2613.74,550.194 L 2618.76,555.054 L 2620.04,556.967 L 2620.49,559.226 L 2620.04,561.485 L 2618.76,563.399 L 2614.52,567.623 z " style="fill-opacity:1.000000;fill:rgb(190,97,137);stroke:rgb(0,0,0);stroke-width:2"/></g>
<g fill-rule="evenodd"><path d="M 2882.23,700.841 L 2882.1,749.099 L 2881.1,751.342 L 2879.28,752.983 L 2876.95,753.741 L 2874.5,753.485 L 2873.38,752.983 L 2871.55,751.342 L 2870.56,749.099 L 2870.43,747.872 L 2870.43,690.151 L 2870.56,688.926 L 2871.55,686.682 L 2873.38,685.041 L 2875.71,684.283 L 2878.15,684.539 L 2879.28,685.041 L 2880.28,685.767 L 2881.4,687.2 L 2886.06,684.873 L 2887.79,684.321 L 2901.98,684.321 L 2903.71,684.873 L 2911.95,688.998 L 2913.43,690.061 L 2914.92,688.998 L 2923.16,684.873 L 2924.89,684.321 L 2938.17,684.249 L 2940.81,684.873 L 2949.87,689.489 L 2951.69,691.636 L 2955.82,699.881 L 2956.37,701.612 L 2956.44,747.872 L 2956.31,749.099 L 2955.32,751.342 L 2953.49,752.983 L 2952.36,753.485 L 2951.16,753.741 L 2948.72,753.485 L 2946.59,752.258 L 2945.77,751.342 L 2944.77,749.099 L 2944.64,703.919 L 2942.02,698.676 L 2936.78,696.053 L 2927.2,696.053 L 2921.96,698.674 L 2919.34,703.913 L 2919.21,749.099 L 2918.21,751.342 L 2917.38,752.258 L 2916.39,752.983 L 2914.05,753.741 L 2911.61,753.485 L 2909.49,752.258 L 2908.66,751.342 L 2907.66,749.099 L 2907.53,703.919 L 2904.91,698.676 L 2899.67,696.053 L 2890.1,696.053 L 2883.94,699.127 L 2882.23,700.841 z " style="fill-opacity:1.000000;fill:rgb(249,92,187);stroke:rgb(0,0,0);stroke-width:2"/></g>
<g fill-rule="evenodd"><path d="M 2997.67,700.843 L 2997.54,749.099 L 2996.54,751.342 L 2994.72,752.983 L 2992.38,753.741 L 2989.94,753.485 L 2988.82,752.983 L 2986.99,751.342 L 2986,749.099 L 2985.87,747.872 L 2985.87,690.151 L 2986,688.926 L 2986.99,686.682 L 2988.82,685.041 L 2991.15,684.283 L 2993.59,684.539 L 2994.72,685.041 L 2995.72,685.767 L 2996.84,687.2 L 3001.5,684.873 L 3003.23,684.321 L 3017.41,684.321 L 3019.15,684.873 L 3027.39,688.998 L 3028.87,690.061 L 3030.36,688.998 L 3038.6,684.873 L 3040.33,684.321 L 3053.61,684.249 L 3056.25,684.873 L 3065.31,689.489 L 3067.13,691.636 L 3071.26,699.881 L 3071.81,701.612 L 3071.88,747.872 L 3071.75,749.099 L 3070.75,751.342 L 3068.93,752.983 L 3067.8,753.485 L 3066.59,753.741 L 3064.15,753.485 L 3062.03,752.258 L 3061.2,751.342 L 3060.2,749.099 L 3060.08,703.917 L 3057.46,698.676 L 3052.21,696.053 L 3042.64,696.053 L 3037.4,698.674 L 3034.78,703.913 L 3034.65,749.099 L 3033.65,751.342 L 3032.82,752.258 L 3031.82,752.983 L 3029.49,753.741 L 3027.05,753.485 L 3024.92,752.258 L 3024.1,751.342 L 3023.1,749.099 L 3022.97,703.917 L 3020.35,698.676 L 3015.11,696.053 L 3005.54,696.053 L 2999.39,699.125 L 2997.67,700.843 z " style="fill-opacity:1.000000;fill:rgb(168,153,15);stroke:rgb(0,0,0);stroke-width:2"/></g>
<g fill-rule="evenodd"><path d="M 2961.18,514.149 L 2958.56,519.389 L 2958.56,563.347 L 2958.05,565.748 L 2956.61,567.733 L 2954.48,568.96 L 2953.28,569.216 L 2950.84,568.96 L 2948.71,567.733 L 2947.88,566.817 L 2946.89,564.574 L 2946.76,519.393 L 2944.14,514.151 L 2938.89,511.528 L 2929.32,511.528 L 2923.17,514.601 L 2921.46,516.318 L 2921.33,564.574 L 2920.33,566.817 L 2918.51,568.459 L 2917.38,568.96 L 2916.17,569.216 L 2913.73,568.96 L 2911.61,567.733 L 2910.16,565.748 L 2909.65,563.347 L 2909.78,504.401 L 2910.78,502.158 L 2911.61,501.242 L 2913.73,500.014 L 2914.94,499.759 L 2917.38,500.014 L 2919.5,501.242 L 2920.63,502.675 L 2926.13,500.006 L 2927.92,499.725 L 2940.29,499.725 L 2942.08,500.004 L 2951.18,504.473 L 2952.66,505.534 L 2954.14,504.473 L 2962.39,500.348 L 2964.12,499.797 L 2978.3,499.797 L 2980.04,500.348 L 2988.28,504.473 L 2989.82,505.578 L 2990.92,507.112 L 2995.04,515.356 L 2995.67,517.995 L 2995.67,563.347 L 2995.16,565.748 L 2993.71,567.733 L 2991.59,568.96 L 2990.38,569.216 L 2987.94,568.96 L 2985.82,567.733 L 2984.99,566.817 L 2983.99,564.574 L 2983.86,519.393 L 2981.24,514.151 L 2976,511.528 L 2966.43,511.528 L 2961.18,514.149 z " style="fill-opacity:1.000000;fill:rgb(149,177,235);stroke:rgb(0,0,0);stroke-width:2"/></g>
<g fill-rule="evenodd"><path d="M 2841.37,150.075 L 2831.8,150.075 L 2826.55,152.696 L 2823.93,157.936 L 2823.8,203.121 L 2822.8,205.364 L 2821.98,206.28 L 2820.98,207.006 L 2818.65,207.763 L 2816.2,207.508 L 2814.08,206.28 L 2813.25,205.364 L 2812.26,203.121 L 2812.13,157.94 L 2809.51,152.698 L 2804.26,150.075 L 2794.69,150.075 L 2788.54,153.148 L 2786.83,154.865 L 2786.7,203.121 L 2785.7,205.364 L 2783.88,207.006 L 2782.75,207.508 L 2781.54,207.763 L 2779.1,207.508 L 2776.97,206.28 L 2776.15,205.364 L 2775.15,203.121 L 2775.02,201.894 L 2775.02,144.173 L 2775.53,141.774 L 2776.97,139.789 L 2779.1,138.562 L 2781.54,138.306 L 2783.88,139.063 L 2784.87,139.789 L 2786,141.223 L 2790.65,138.895 L 2792.38,138.344 L 2806.57,138.344 L 2808.3,138.895 L 2816.55,143.02 L 2818.03,144.081 L 2819.51,143.02 L 2827.76,138.895 L 2829.49,138.344 L 2842.77,138.272 L 2845.41,138.895 L 2853.65,143.02 L 2855.18,144.125 L 2856.29,145.659 L 2860.76,154.749 L 2861.04,156.542 L 2861.04,201.894 L 2860.52,204.295 L 2859.08,206.28 L 2856.96,207.508 L 2855.75,207.763 L 2853.31,207.508 L 2851.18,206.28 L 2850.36,205.364 L 2849.36,203.121 L 2849.23,157.94 L 2846.61,152.698 L 2841.37,150.075 z " style="fill-opacity:1.000000;fill:rgb(241,179,5);stroke:rgb(0,0,0);stroke-width:2"/></g>
<g fill-rule="evenodd"><path d="M 2715.86,300.344 L 2713.55,323.434 L 2716.96,321.805 L 2718.76,321.523 L 2739.38,321.523 L 2741.17,321.803 L 2750.26,326.269 L 2751.79,327.375 L 2756.53,332.221 L 2761.49,342.123 L 2761.77,343.916 L 2761.77,364.53 L 2761.14,367.171 L 2756.53,376.227 L 2751.79,381.071 L 2750.26,382.178 L 2741.17,386.645 L 2739.38,386.922 L 2718.76,386.922 L 2716.96,386.645 L 2707.06,381.687 L 2702.22,376.949 L 2700.88,374.889 L 2700.5,372.466 L 2701.13,370.095 L 2701.8,369.062 L 2703.71,367.516 L 2706.08,366.883 L 2707.31,366.947 L 2709.61,367.826 L 2714.01,372.049 L 2720.15,375.119 L 2737.98,375.119 L 2744.13,372.051 L 2746.89,369.286 L 2749.97,363.134 L 2749.97,345.311 L 2746.89,339.168 L 2744.13,336.399 L 2737.98,333.326 L 2720.16,333.326 L 2714.01,336.401 L 2709.63,340.605 L 2707.4,341.485 L 2706.19,341.569 L 2703.86,341.003 L 2701.95,339.558 L 2701.25,338.574 L 2700.77,337.469 L 2700.52,335.084 L 2704.64,293.856 L 2705.25,291.785 L 2706.55,290.068 L 2708.39,288.936 L 2710.52,288.541 L 2751.74,288.541 L 2752.97,288.67 L 2755.21,289.668 L 2756.85,291.491 L 2757.36,292.619 L 2757.61,295.06 L 2756.85,297.393 L 2755.21,299.218 L 2752.97,300.216 L 2715.86,300.344 z " style="fill-opacity:1.000000;fill:rgb(239,247,0);stroke:rgb(0,0,0);stroke-width:2"/></g>
<g fill-rule="evenodd"><path d="M 2642.77,375.119 L 2642.77,312.813 L 2635.63,319.846 L 2625.42,324.892 L 2624.2,325.076 L 2621.78,324.672 L 2619.73,323.32 L 2618.41,321.251 L 2618.05,318.824 L 2618.7,316.459 L 2620.26,314.564 L 2628.69,310.206 L 2635.84,303.051 L 2644.5,290.276 L 2646.41,288.992 L 2648.67,288.543 L 2650.93,288.99 L 2652.84,290.268 L 2654.13,292.183 L 2654.58,294.442 L 2654.58,375.119 L 2674.64,375.249 L 2676.88,376.247 L 2678.52,378.07 L 2679.02,379.198 L 2679.28,381.639 L 2678.52,383.972 L 2676.88,385.797 L 2674.64,386.795 L 2673.41,386.922 L 2623.94,386.922 L 2622.71,386.795 L 2620.47,385.797 L 2619.55,384.971 L 2618.32,382.846 L 2618.07,380.405 L 2618.83,378.07 L 2620.47,376.247 L 2622.71,375.249 L 2642.77,375.119 z " style="fill-opacity:1.000000;fill:rgb(233,161,58);stroke:rgb(0,0,0);stroke-width:2"/></g>
<g fill-rule="evenodd"><path d="M 2647.21,195.992 L 2647.21,133.686 L 2640.07,140.719 L 2629.86,145.765 L 2628.64,145.949 L 2626.22,145.545 L 2624.17,144.193 L 2622.85,142.124 L 2622.49,139.697 L 2623.14,137.332 L 2624.7,135.437 L 2633.13,131.079 L 2640.28,123.924 L 2648.94,111.149 L 2650.85,109.865 L 2653.11,109.415 L 2655.37,109.863 L 2657.29,111.141 L 2658.57,113.056 L 2659.02,115.315 L 2659.02,195.992 L 2679.08,196.122 L 2681.32,197.12 L 2682.96,198.943 L 2683.47,200.071 L 2683.72,202.512 L 2682.96,204.845 L 2681.32,206.67 L 2679.08,207.667 L 2677.85,207.795 L 2628.38,207.795 L 2627.15,207.667 L 2624.91,206.67 L 2623.99,205.844 L 2622.77,203.719 L 2622.51,201.278 L 2623.27,198.943 L 2624.91,197.12 L 2627.15,196.122 L 2647.21,195.992 z " style="fill-opacity:1.000000;fill:rgb(229,202,11);stroke:rgb(0,0,0);stroke-width:2"/></g>
<g fill-rule="evenodd"><path d="M 2864.84,333.99 L 2864.71,382.248 L 2863.71,384.491 L 2861.89,386.133 L 2859.55,386.891 L 2857.11,386.635 L 2855.99,386.133 L 2854.16,384.491 L 2853.16,382.248 L 2853.04,381.021 L 2853.04,323.3 L 2853.16,322.075 L 2854.16,319.832 L 2855.99,318.19 L 2858.32,317.433 L 2860.76,317.689 L 2861.89,318.19 L 2862.89,318.916 L 2864.01,320.35 L 2868.66,318.023 L 2870.4,317.471 L 2884.58,317.471 L 2886.31,318.023 L 2894.56,322.147 L 2896.04,323.21 L 2897.53,322.147 L 2905.77,318.023 L 2907.5,317.471 L 2920.78,317.399 L 2923.42,318.023 L 2932.47,322.639 L 2934.3,324.786 L 2938.43,333.03 L 2938.98,334.762 L 2939.05,381.021 L 2938.92,382.248 L 2937.92,384.491 L 2936.1,386.133 L 2934.97,386.635 L 2933.76,386.891 L 2931.32,386.635 L 2929.2,385.407 L 2928.37,384.491 L 2927.37,382.248 L 2927.25,337.069 L 2924.63,331.825 L 2919.38,329.202 L 2909.81,329.202 L 2904.57,331.823 L 2901.95,337.063 L 2901.82,382.248 L 2900.82,384.491 L 2899.99,385.407 L 2898.99,386.133 L 2896.66,386.891 L 2894.22,386.635 L 2892.09,385.407 L 2891.27,384.491 L 2890.27,382.248 L 2890.14,337.069 L 2887.52,331.825 L 2882.28,329.202 L 2872.7,329.202 L 2866.55,332.277 L 2864.84,333.99 z " style="fill-opacity:1.000000;fill:rgb(203,208,72);stroke:rgb(0,0,0);stroke-width:2"/></g>
<g fill-rule="evenodd"><path d="M 2980.28,333.992 L 2980.15,382.248 L 2979.15,384.491 L 2977.33,386.133 L 2974.99,386.891 L 2972.55,386.635 L 2971.42,386.133 L 2969.6,384.491 L 2968.6,382.248 L 2968.47,381.021 L 2968.47,323.3 L 2968.6,322.075 L 2969.6,319.832 L 2971.42,318.19 L 2973.76,317.433 L 2976.2,317.689 L 2977.33,318.19 L 2978.32,318.916 L 2979.45,320.35 L 2984.1,318.023 L 2985.84,317.471 L 3000.02,317.471 L 3001.75,318.023 L 3010,322.147 L 3011.48,323.21 L 3012.96,322.147 L 3021.21,318.023 L 3022.94,317.471 L 3036.22,317.399 L 3038.86,318.023 L 3047.91,322.639 L 3049.74,324.786 L 3053.86,333.03 L 3054.42,334.762 L 3054.49,381.021 L 3054.36,382.248 L 3053.36,384.491 L 3051.54,386.133 L 3050.41,386.635 L 3049.2,386.891 L 3046.76,386.635 L 3044.64,385.407 L 3043.81,384.491 L 3042.81,382.248 L 3042.68,337.067 L 3040.06,331.825 L 3034.82,329.202 L 3025.25,329.202 L 3020,331.823 L 3017.38,337.063 L 3017.25,382.248 L 3016.25,384.491 L 3015.43,385.407 L 3014.43,386.133 L 3012.1,386.891 L 3009.66,386.635 L 3007.53,385.407 L 3006.7,384.491 L 3005.71,382.248 L 3005.58,337.067 L 3002.96,331.825 L 2997.72,329.202 L 2988.14,329.202 L 2981.99,332.275 L 2980.28,333.992 z " style="fill-opacity:1.000000;fill:rgb(71,100,189);stroke:rgb(0,0,0);stroke-width:2"/></g>
<g fill-rule="evenodd"><path d="M 2964.67,157.94 L 2962.05,152.698 L 2956.81,150.075 L 2947.23,150.075 L 2941.99,152.696 L 2939.37,157.936 L 2939.24,203.121 L 2938.24,205.364 L 2936.42,207.006 L 2935.29,207.508 L 2932.85,207.763 L 2931.64,207.508 L 2929.52,206.28 L 2928.69,205.364 L 2927.69,203.121 L 2927.57,157.94 L 2924.95,152.698 L 2919.7,150.075 L 2910.13,150.075 L 2903.98,153.148 L 2902.27,154.865 L 2902.14,203.121 L 2901.14,205.364 L 2899.31,207.006 L 2898.19,207.508 L 2896.98,207.763 L 2894.54,207.508 L 2892.41,206.28 L 2891.59,205.364 L 2890.59,203.121 L 2890.46,201.894 L 2890.46,144.173 L 2890.59,142.948 L 2891.59,140.705 L 2893.41,139.063 L 2895.75,138.306 L 2898.19,138.562 L 2900.31,139.789 L 2901.44,141.223 L 2906.09,138.895 L 2907.82,138.344 L 2922.01,138.344 L 2923.74,138.895 L 2931.98,143.02 L 2933.47,144.081 L 2934.95,143.02 L 2943.2,138.895 L 2944.93,138.344 L 2958.2,138.272 L 2960.84,138.895 L 2969.09,143.02 L 2970.62,144.125 L 2971.73,145.659 L 2975.85,153.903 L 2976.47,156.542 L 2976.47,201.894 L 2976.34,203.121 L 2975.35,205.364 L 2973.52,207.006 L 2971.19,207.763 L 2968.75,207.508 L 2966.62,206.28 L 2965.8,205.364 L 2964.8,203.121 L 2964.67,157.94 z " style="fill-opacity:1.000000;fill:rgb(31,35,30);stroke:rgb(0,0,0);stroke-width:2"/></g>
<g fill-rule="evenodd"><path d="M 2301.84,240.762 L 2375.06,167.542 L 2376.43,166.65 L 2378.05,166.394 L 2379.63,166.818 L 2380.9,167.846 L 2381.77,170.117 L 2381.52,171.732 L 2380.63,173.106 L 2306.26,247.475 L 2304.98,248.327 L 2303.48,248.627 L 1163.34,249.896 L 1161.02,249.149 L 1159.92,247.933 L 1159.42,246.378 L 1159.59,244.75 L 1160.4,243.333 L 1161.73,242.369 L 1163.33,242.029 L 2301.84,240.762 z " style="fill-opacity:1.000000;fill:rgb(168,28,123);stroke:rgb(0,0,0);stroke-width:2"/></g>
<g fill-rule="evenodd"><path d="M 336.346,1479.91 L 326.026,1447.62 L 326.496,1446.17 L 328.589,1445.72 L 332.771,1445.76 L 341.348,1446.33 L 352.001,1484.72 L 353.347,1482.03 L 357.193,1471.75 L 365.774,1445.61 L 366.146,1445.41 L 376.695,1446.23 L 390.098,1486.04 L 401.321,1445.69 L 416.597,1445.53 L 416.969,1445.8 L 396.531,1510.06 L 384.184,1510.89 L 383.812,1510.69 L 374.19,1478.57 L 372.745,1474.11 L 370.968,1470.46 L 358.645,1510.73 L 346.09,1510.61 L 336.346,1479.91 z " style="fill-opacity:1.000000;fill:rgb(100,197,20);stroke:rgb(0,0,0);stroke-width:2"/></g>
<g fill-rule="evenodd"><path d="M 339.428,1360.5 L 334.474,1360.43 L 330.672,1361.35 L 329.864,1361.86 L 328.181,1364.41 L 327.977,1367.31 L 329.207,1369.54 L 332.157,1370.5 L 350.62,1373.37 L 356.793,1375.89 L 360.796,1379.57 L 363.073,1384.81 L 363.77,1391.12 L 362.805,1398.3 L 359.596,1404.03 L 354.324,1408.1 L 346.893,1410.67 L 338.583,1411.69 L 331.845,1411.67 L 326.37,1410.75 L 322.633,1409.47 L 317.963,1407.28 L 313.613,1404.72 L 308.085,1400.35 L 308.001,1399.83 L 317.771,1390.03 L 323.457,1393.65 L 328.823,1396.31 L 334.536,1397.7 L 340.004,1397.85 L 344.648,1396.79 L 347.849,1394.59 L 348.831,1392.83 L 348.687,1390 L 346.188,1387.79 L 341.11,1386.19 L 326.582,1383.96 L 320.01,1381.2 L 315.61,1377.07 L 313.223,1371.27 L 312.909,1364.66 L 314.467,1357.76 L 318.111,1352.39 L 323.779,1348.78 L 331.434,1346.85 L 337.131,1346.47 L 343.381,1346.66 L 348.457,1347.63 L 353.649,1349.61 L 358.139,1351.94 L 360.946,1353.92 L 361.929,1355.34 L 361.034,1357.65 L 359.004,1360.6 L 354.172,1366.19 L 349.118,1363.35 L 344.616,1361.49 L 339.428,1360.5 z " style="fill-opacity:1.000000;fill:rgb(115,90,197);stroke:rgb(0,0,0);stroke-width:2"/></g>
<g fill-rule="evenodd"><path d="M 335.062,1049.66 L 323.559,1052.09 L 312.551,1056.72 L 302.351,1063.61 L 299.227,1066.37 L 291.188,1075.13 L 285.342,1084.32 L 281.336,1094.63 L 279.103,1104.84 L 278.551,1116.31 L 280.384,1127.83 L 284.429,1139.04 L 290.488,1149.52 L 298.373,1158.89 L 307.917,1166.76 L 316.214,1172.7 L 317.835,1174.57 L 316.266,1180.05 L 311.538,1192.48 L 296.65,1228.81 L 281.362,1264.16 L 276.128,1275.37 L 273.889,1279.13 L 273.469,1279.26 L 271.548,1278.66 L 267.912,1277.05 L 250.039,1267.61 L 208.544,1295.81 L 201.694,1299.92 L 200.517,1300.29 L 199.034,1299.32 L 191.89,1293.04 L 176.827,1278.82 L 159.824,1261.54 L 154.876,1255.47 L 154.686,1254.74 L 155.457,1252.88 L 160.573,1244.34 L 186.733,1205.55 L 185.529,1200.54 L 181.659,1189.44 L 174.046,1169.94 L 169.893,1160.57 L 168.664,1158.43 L 167.914,1157.8 L 164.596,1156.54 L 156.771,1154.76 L 116.783,1147.04 L 112.259,1145.91 L 109.14,1144.74 L 108.482,1142.78 L 107.657,1133.21 L 107.231,1110.58 L 107.785,1088.95 L 108.191,1084.07 L 109.092,1080.39 L 111.027,1079.65 L 120.687,1077.41 L 170.121,1067.73 L 179.599,1046.23 L 188.888,1023.56 L 183.156,1014.31 L 159.032,978.408 L 154.971,971.632 L 154.78,970.651 L 161.885,962.382 L 177.442,946.271 L 192.99,930.889 L 199.166,925.289 L 200.185,924.692 L 204.975,927.452 L 215.707,934.492 L 253.973,960.433 L 297.463,942.508 L 309.485,879.38 L 375.432,879.32 L 375.74,879.632 L 387.593,942.506 L 431.083,960.435 L 471.271,933.218 L 484.739,924.704 L 486.383,925.661 L 489.223,928.188 L 503.456,942.074 L 524.237,963.538 L 529.755,969.803 L 530.339,970.829 L 529.571,972.622 L 524.459,980.857 L 503.951,1011.3 L 496.175,1023.58 L 505.049,1045.27 L 514.915,1067.72 L 553.135,1075.12 L 572.268,1079.19 L 575.872,1080.31 L 576.6,1082.24 L 577.43,1091.85 L 577.823,1114.46 L 577.242,1136.11 L 576.828,1141.01 L 575.924,1144.73 L 573.861,1145.6 L 564.437,1147.89 L 529.349,1154.54 L 518.715,1157.08 L 516.48,1158.33 L 515.335,1160.24 L 511.268,1169.33 L 501.43,1194.91 L 498.572,1203.8 L 498.302,1205.5 L 523.499,1242.84 L 529.153,1252.2 L 530.337,1255.08 L 529.339,1256.75 L 526.81,1259.73 L 512.836,1274.25 L 496.057,1290.52 L 485.155,1299.96 L 484.126,1300.28 L 479.353,1297.65 L 435.021,1267.6 L 415.21,1277.94 L 411.481,1279.27 L 410.286,1277.95 L 406.089,1269.43 L 399.57,1254.86 L 383.548,1217.17 L 370.384,1184.33 L 368.503,1179.18 L 367.251,1174.56 L 368.748,1172.81 L 386.165,1159.29 L 394.352,1149.81 L 400.496,1139.29 L 404.536,1128.01 L 406.395,1116.3 L 406.009,1104.44 L 403.304,1092.76 L 398.2,1081.51 L 396.715,1079.08 L 388.904,1069.14 L 379.686,1061.16 L 369.376,1055.19 L 358.295,1051.26 L 346.739,1049.4 L 335.062,1049.66 z " style="fill-opacity:1.000000;fill:rgb(94,75,121);stroke:rgb(0,0,0);stroke-width:2"/></g>
<g fill-rule="evenodd"><path d="M 190.475,1459.16 L 185.647,1459.38 L 181.397,1460.21 L 177.486,1462.49 L 175.757,1462.72 L 173.596,1461.82 L 170.531,1459.75 L 165.357,1455.5 L 165.623,1454.15 L 167.51,1452.01 L 170.283,1449.73 L 173.306,1447.83 L 177.828,1446.44 L 182.948,1445.79 L 188.956,1445.53 L 197.186,1446.05 L 203.43,1447.72 L 208.282,1450.82 L 211.604,1454.74 L 212.698,1456.51 L 214.017,1460.57 L 214.369,1463.76 L 214.685,1484.92 L 214.685,1510.37 L 214.443,1510.73 L 203.926,1510.48 L 200.827,1509.74 L 198.19,1508.59 L 192.782,1510.26 L 187.724,1510.65 L 182.12,1510.49 L 177.071,1509.79 L 174.012,1508.87 L 168.202,1505.13 L 164.55,1499.93 L 162.898,1492.87 L 163.254,1485.37 L 165.745,1479.4 L 170.375,1474.92 L 173.87,1473.13 L 177.334,1472.31 L 182.038,1471.93 L 199.433,1471.84 L 199.433,1467.16 L 198.93,1463.29 L 197.672,1460.76 L 194.807,1459.6 L 190.475,1459.16M 187.52,1496.8 L 192.33,1496.53 L 196.151,1495.41 L 197.124,1494.76 L 198.958,1491.53 L 199.433,1487.77 L 199.433,1483.14 L 192.578,1483.14 L 185.709,1483.67 L 180.571,1485.15 L 177.464,1487.38 L 176.567,1489.85 L 177.606,1493.04 L 179.296,1494.83 L 182.808,1496.24 L 187.52,1496.8 z " style="fill-opacity:1.000000;fill:rgb(99,59,112);stroke:rgb(0,0,0);stroke-width:2"/></g>
<g fill-rule="evenodd"><path d="M 176.357,1384.49 L 177.08,1387.59 L 179.116,1391.77 L 182.664,1395.38 L 186.885,1397.7 L 189.505,1398.17 L 193.154,1397.59 L 197.55,1396.11 L 204.929,1392.6 L 212.678,1398.86 L 214.179,1400.95 L 214.293,1401.67 L 212.884,1403.43 L 207.324,1407.42 L 200.139,1410.56 L 192.16,1411.96 L 184.288,1411.6 L 177.96,1409.67 L 171.439,1405.54 L 166.793,1400.09 L 163.894,1393.07 L 162.586,1384.23 L 162.468,1380.14 L 162.928,1370.92 L 164.466,1363.61 L 167.274,1357.68 L 170.747,1353.45 L 177.031,1348.95 L 184.525,1346.52 L 192.376,1346.31 L 200.063,1348.36 L 201.505,1349.04 L 206.073,1352.39 L 210.435,1357.33 L 213.638,1362.67 L 214.579,1365.19 L 215.435,1369.67 L 215.931,1374.97 L 215.885,1384.38 L 176.357,1384.49M 188.556,1371.87 L 198.28,1371.55 L 200.173,1371.07 L 200.739,1370.37 L 199.969,1368.36 L 197.934,1365.41 L 193.86,1361.51 L 190.553,1360.39 L 188.814,1360.3 L 183.942,1361.48 L 179.869,1364.66 L 177.264,1369.31 L 176.953,1370.64 L 177.198,1371.22 L 178.468,1371.63 L 188.556,1371.87 z " style="fill-opacity:1.000000;fill:rgb(100,36,17);stroke:rgb(0,0,0);stroke-width:2"/></g>
<g fill-rule="evenodd"><path d="M 103.42,1379.91 L 103.42,1347.28 L 103.66,1346.91 L 115.49,1347.07 L 117.871,1347.75 L 118.872,1350.02 L 119.802,1349.93 L 122.435,1348.66 L 128.646,1346.69 L 135.729,1346.49 L 142.305,1348 L 145.215,1349.43 L 148.634,1351.82 L 151.185,1354.47 L 152.976,1357.88 L 154.064,1362.36 L 154.626,1368.31 L 154.828,1376.3 L 154.662,1392.64 L 153.78,1399.02 L 152.013,1402.29 L 146.529,1407.73 L 139.91,1411.1 L 132.751,1412.09 L 125.695,1410.66 L 118.67,1407.15 L 118.67,1449.29 L 121.977,1447.58 L 127.201,1445.99 L 133.532,1445.59 L 139.92,1446.33 L 144.816,1448.05 L 148.782,1451.23 L 152.203,1455.81 L 154.342,1460.75 L 155.219,1467.01 L 155.497,1486.24 L 155.497,1510.37 L 155.255,1510.73 L 140.639,1510.76 L 140.275,1510.52 L 140.247,1466.07 L 136.349,1462.79 L 132.251,1460.13 L 128.442,1459.66 L 124.566,1460.89 L 122.523,1462.09 L 121.017,1463.77 L 119.932,1466.36 L 119.186,1470.27 L 118.712,1475.9 L 117.981,1509.86 L 117.643,1510.1 L 103.834,1510.9 L 103.45,1510.66 L 103.42,1379.91M 122.463,1395.07 L 125.913,1396.56 L 129.458,1396.86 L 133.47,1396.52 L 136.079,1395.18 L 137.715,1393.41 L 139.022,1391.47 L 139.792,1389.34 L 140.142,1386.29 L 140.154,1381.66 L 139.354,1368.07 L 138.69,1365.71 L 137.631,1364.15 L 136.657,1363.27 L 132.369,1361.25 L 127.287,1360.92 L 124.438,1361.61 L 121.621,1364.02 L 119.708,1368.83 L 118.764,1376.08 L 119.034,1387.13 L 120.252,1392.08 L 122.463,1395.07 z " style="fill-opacity:1.000000;fill:rgb(158,9,220);stroke:rgb(0,0,0);stroke-width:2"/></g>
<g fill-rule="evenodd"><path d="M 41.7336,1378.73 L 41.9155,1368.12 L 42.7332,1363.39 L 44.1826,1359.71 L 46.3817,1356.47 L 52.2933,1350.7 L 57.851,1347.84 L 64.5303,1346.66 L 67.873,1346.56 L 76.4994,1347.59 L 83.4706,1350.68 L 88.7485,1355.8 L 92.421,1363.08 L 94.5101,1373.78 L 94.6161,1383.98 L 93.1986,1392.88 L 90.3498,1400.1 L 88.7944,1402.48 L 83.3447,1407.51 L 76.5574,1410.69 L 68.9705,1412.02 L 61.1277,1411.34 L 55.1881,1409.25 L 50.1182,1405.76 L 45.9399,1401.15 L 44.1546,1398.18 L 43.0231,1395.23 L 42.3593,1391.63 L 41.7336,1378.73M 79.2183,1388.55 L 79.6502,1385.83 L 79.6781,1381.69 L 79.2483,1372.36 L 78.7885,1368.83 L 77.9848,1366.6 L 75.5578,1363.92 L 70.9797,1361.32 L 66.0877,1361.19 L 61.9754,1362.72 L 58.4728,1365.92 L 56.3656,1371.22 L 55.6659,1378.74 L 56.2577,1387.33 L 57.0554,1390.4 L 58.4768,1392.57 L 59.8042,1393.83 L 64.6063,1396.52 L 69.5843,1396.88 L 74.2404,1394.96 L 76.5634,1392.8 L 78.2487,1390.61 L 79.2183,1388.55 z " style="fill-opacity:1.000000;fill:rgb(170,212,172);stroke:rgb(0,0,0);stroke-width:2"/></g>
<g fill-rule="evenodd"><path d="M 241.53,1471.78 L 241.002,1485.35 L 240.96,1510.52 L 240.599,1510.76 L 227.294,1510.73 L 227.054,1510.37 L 227.12,1445.7 L 238.06,1445.68 L 240.245,1446.41 L 240.948,1447.85 L 241.082,1449.87 L 241.458,1449.99 L 244.723,1448.17 L 248.691,1446.54 L 253.577,1445.7 L 258.605,1445.64 L 263.331,1446.26 L 267.194,1447.47 L 269.713,1449.24 L 270.299,1451.64 L 269.985,1452.44 L 265.491,1457.79 L 262.314,1460.53 L 259.893,1461.28 L 251.62,1459.68 L 249.019,1460.01 L 246.804,1461.21 L 244.757,1462.82 L 243.262,1464.83 L 242.212,1467.67 L 241.53,1471.78 z " style="fill-opacity:1.000000;fill:rgb(242,27,16);stroke:rgb(0,0,0);stroke-width:2"/></g>
<g fill-rule="evenodd"><path d="M 261.25,1388.89 L 260.978,1371.17 L 260.608,1368.5 L 260.023,1366.78 L 257.922,1364.2 L 253.555,1361.39 L 248.849,1360.87 L 244.335,1362.64 L 241.632,1365.18 L 240.825,1366.47 L 239.931,1371.08 L 239.645,1410.56 L 239.283,1410.8 L 224.537,1410.69 L 224.537,1347 L 236.494,1347.07 L 238.875,1347.75 L 239.875,1350.02 L 240.807,1349.93 L 243.439,1348.66 L 249.487,1346.77 L 256.444,1346.55 L 263.095,1347.98 L 266.444,1349.57 L 269.733,1351.92 L 272.148,1354.52 L 273.999,1358 L 275.203,1362.4 L 275.956,1368.33 L 276.468,1386.02 L 276.326,1410.73 L 261.316,1410.63 L 261.25,1388.89 z " style="fill-opacity:1.000000;fill:rgb(175,59,51);stroke:rgb(0,0,0);stroke-width:2"/></g>
<g fill-rule="evenodd"><path d="M 305.968,1450.71 L 305.996,1420.78 L 306.36,1420.54 L 320.978,1420.57 L 321.22,1420.93 L 321.186,1510.53 L 320.828,1510.76 L 309.385,1510.64 L 307.12,1510.12 L 306.066,1508.8 L 305.86,1506.67 L 305.402,1506.51 L 301.596,1508.25 L 294.971,1510.31 L 287.721,1510.43 L 281.8,1508.88 L 276.242,1505.07 L 272.09,1499.57 L 269.791,1493.03 L 269.227,1483.08 L 269.343,1473.18 L 269.985,1464.65 L 271.358,1458.1 L 273.613,1453.31 L 276.992,1449.71 L 280.28,1447.59 L 284.853,1446.11 L 290.472,1445.6 L 296.314,1446.02 L 301.296,1447.32 L 303.877,1448.83 L 305.968,1450.71M 304.587,1490.22 L 305.45,1487.81 L 305.864,1484.23 L 305.968,1478.8 L 305.298,1468.68 L 304.535,1465.35 L 301.83,1462.07 L 297.885,1460.27 L 293.455,1459.98 L 289.353,1461.23 L 286.046,1464.53 L 285.045,1468 L 284.495,1473.04 L 284.389,1478.8 L 284.721,1484.42 L 285.468,1489.02 L 286.444,1491.53 L 290.188,1495 L 294.605,1496.24 L 299.173,1495.24 L 303.117,1492.21 L 304.587,1490.22 z " style="fill-opacity:1.000000;fill:rgb(205,227,80);stroke:rgb(0,0,0);stroke-width:2"/></g>
<g fill-rule="evenodd"><path d="M 469.06,1367.75 L 469.126,1347.06 L 484.135,1346.95 L 484.243,1410.63 L 472.262,1410.62 L 469.833,1409.92 L 468.814,1407.82 L 467.688,1407.98 L 464.661,1409.46 L 457.648,1411.77 L 450.213,1411.61 L 443.032,1409.1 L 439.55,1407.07 L 436.947,1404.9 L 435.015,1402.16 L 433.686,1398.47 L 432.874,1393.63 L 432.255,1378.55 L 432.299,1347.06 L 445.777,1346.88 L 446.139,1347.13 L 446.289,1377.37 L 446.745,1384.67 L 447.64,1389.92 L 449.074,1393.41 L 451.129,1395.48 L 453.992,1396.51 L 457.61,1396.78 L 461.403,1396.48 L 464.22,1395.4 L 466.241,1393.27 L 467.644,1389.7 L 468.516,1384.35 L 469.06,1367.75 z " style="fill-opacity:1.000000;fill:rgb(72,71,21);stroke:rgb(0,0,0);stroke-width:2"/></g>
<g fill-rule="evenodd"><path d="M 415.929,1490.89 L 416.169,1486.71 L 418.586,1480.62 L 421.903,1476.47 L 423.864,1474.73 L 425.845,1473.53 L 428.5,1472.78 L 432.221,1472.37 L 453.276,1471.61 L 453.258,1467.86 L 452.742,1463.62 L 450.941,1461.14 L 447.127,1459.49 L 441.711,1458.84 L 436.441,1459.68 L 430.859,1462.82 L 428.886,1462.69 L 424.528,1460.07 L 419.494,1456.02 L 419.112,1455.18 L 420.495,1452.45 L 425.839,1448.39 L 430.527,1446.6 L 436.829,1445.59 L 443.788,1445.36 L 450.521,1445.92 L 456.191,1447.3 L 460.943,1449.91 L 463.422,1452.09 L 465.241,1454.88 L 466.505,1458.6 L 467.356,1463.7 L 468.182,1479.18 L 468.556,1510.69 L 456.491,1510.57 L 454.018,1509.85 L 453.068,1507.76 L 445.349,1510.27 L 439.174,1510.66 L 432.662,1510.04 L 426.823,1508.39 L 420.953,1504.41 L 417.461,1499.25 L 415.819,1493.16 L 415.929,1490.89M 433.932,1495.5 L 439.302,1496.59 L 442.147,1496.74 L 446.919,1496.36 L 450.037,1494.95 L 450.727,1494.34 L 452.796,1490.66 L 453.278,1487.32 L 453.278,1483.14 L 439.866,1483.51 L 434.726,1484.69 L 431.539,1486.71 L 430.881,1487.54 L 429.682,1490.91 L 430.719,1493.53 L 433.932,1495.5 z " style="fill-opacity:1.000000;fill:rgb(92,187,111);stroke:rgb(0,0,0);stroke-width:2"/></g>
<g fill-rule="evenodd"><path d="M 369.47,1378.15 L 369.528,1372.2 L 371.351,1363.04 L 374.922,1355.83 L 380.196,1350.66 L 387.249,1347.47 L 388.862,1347.08 L 397.871,1346.23 L 405.905,1347.69 L 412.699,1351.42 L 417.934,1357.17 L 420.431,1361.91 L 421.507,1366.11 L 422.191,1371.97 L 422.485,1378.74 L 422.369,1385.58 L 421.823,1391.53 L 421.167,1394.8 L 418.978,1399.23 L 415.194,1403.93 L 410.711,1407.97 L 406.155,1410.65 L 400.402,1411.86 L 393.812,1411.89 L 387.549,1410.83 L 385.092,1409.97 L 378.878,1406.44 L 374.35,1401.72 L 371.417,1395.57 L 369.79,1387.58 L 369.424,1383.41 L 369.47,1378.15M 388.267,1395.04 L 389.676,1396.01 L 393.514,1396.72 L 398.141,1396.51 L 402.129,1395.47 L 403.088,1394.94 L 405.817,1391.63 L 407.641,1386.51 L 408.422,1380.22 L 408.04,1373.46 L 407.195,1369.44 L 404.78,1364.82 L 400.993,1361.95 L 396.445,1360.96 L 391.717,1362 L 388.067,1364.57 L 386.153,1366.68 L 385.056,1368.73 L 384.522,1371.55 L 384.358,1375.97 L 384.824,1385.73 L 386.165,1391.45 L 388.267,1395.04 z " style="fill-opacity:1.000000;fill:rgb(34,25,186);stroke:rgb(0,0,0);stroke-width:2"/></g>
<g fill-rule="evenodd"><path d="M 536.736,1483.14 L 537.462,1486.23 L 538.953,1489.43 L 542.094,1493.28 L 546.798,1496.16 L 552.118,1496.65 L 558.323,1494.75 L 565.476,1491.62 L 569.561,1494.51 L 573.605,1498.15 L 574.567,1500.06 L 573.485,1502.27 L 571.222,1504.12 L 564.985,1507.63 L 557.638,1509.93 L 549.497,1510.67 L 541.9,1509.8 L 539.707,1509.16 L 532.992,1505.57 L 528.024,1500.04 L 524.773,1492.56 L 523.202,1483.12 L 523.028,1478.12 L 523.755,1467.71 L 526.028,1459.29 L 529.905,1452.94 L 535.377,1448.63 L 542.656,1446.21 L 546.542,1445.76 L 554.563,1445.88 L 560.974,1447.57 L 566.274,1450.97 L 568.853,1453.51 L 573.105,1459.57 L 575.534,1466.58 L 576.366,1475.12 L 576.264,1483.02 L 536.736,1483.14M 541.068,1471.55 L 549.025,1471.83 L 558.443,1471.61 L 560.32,1471.2 L 560.984,1470.58 L 561.116,1469.65 L 560.043,1466.27 L 557.282,1462.87 L 553.645,1460.25 L 550.061,1459.2 L 545.153,1460.14 L 540.888,1462.88 L 537.932,1466.81 L 536.986,1470.77 L 537.852,1471.14 L 541.068,1471.55 z " style="fill-opacity:1.000000;fill:rgb(155,125,245);stroke:rgb(0,0,0);stroke-width:2"/></g>
<g fill-rule="evenodd"><path d="M 567.947,1361.01 L 564.449,1361.19 L 558.827,1362.59 L 555.029,1365.43 L 552.702,1370.08 L 551.628,1376.89 L 551.718,1384.49 L 553.149,1390.02 L 555.978,1393.75 L 557.857,1394.98 L 563.025,1396.58 L 568.549,1396.58 L 573.335,1395.04 L 577.414,1392.31 L 579.936,1391.96 L 582.585,1393.52 L 589.703,1400.96 L 584.803,1405.09 L 577.336,1409.59 L 568.921,1411.8 L 560.139,1411.65 L 554.347,1410.17 L 547.584,1406.53 L 542.182,1400.82 L 539.717,1396.77 L 537.72,1390.94 L 536.738,1383.7 L 536.732,1375.76 L 537.692,1368.23 L 539.951,1361.16 L 544.505,1354.72 L 550.664,1350.03 L 557.939,1347.2 L 565.842,1346.31 L 573.923,1347.46 L 581.626,1350.74 L 587.122,1354.76 L 589.079,1356.69 L 589.529,1357.54 L 588.467,1359.24 L 586.052,1361.58 L 578.583,1367.58 L 570.976,1361.76 L 567.947,1361.01 z " style="fill-opacity:1.000000;fill:rgb(11,225,26);stroke:rgb(0,0,0);stroke-width:2"/></g>
<g fill-rule="evenodd"><path d="M 495.721,1467.9 L 494.957,1479.73 L 494.803,1510.52 L 494.441,1510.76 L 479.821,1510.73 L 479.581,1510.37 L 479.647,1445.7 L 491.389,1445.64 L 493.636,1446.13 L 494.733,1447.51 L 494.833,1450.56 L 497.7,1448.31 L 501.76,1446.42 L 507.152,1445.48 L 512.992,1445.52 L 518.152,1446.55 L 521.098,1448.07 L 524.225,1450.64 L 524.187,1451.07 L 517.22,1459.81 L 515.309,1461.51 L 513.262,1461.8 L 509.373,1460.56 L 504.481,1459.91 L 500.053,1461.28 L 496.79,1464.37 L 496.301,1465.28 L 495.721,1467.9 z " style="fill-opacity:1.000000;fill:rgb(28,127,35);stroke:rgb(0,0,0);stroke-width:2"/></g>
<g fill-rule="evenodd"><path d="M 510.617,1367.05 L 510.587,1410.56 L 510.225,1410.8 L 495.605,1410.77 L 495.365,1410.41 L 495.431,1347.06 L 507.436,1347.07 L 509.817,1347.75 L 510.827,1350.1 L 511.808,1349.99 L 517.658,1347.43 L 520.919,1346.41 L 525.241,1346.14 L 530.149,1346.83 L 534.777,1348.24 L 537.776,1350.04 L 538.801,1351.5 L 538.571,1353.53 L 536.832,1356.18 L 532.388,1361.35 L 530.123,1362.77 L 527.928,1362.72 L 522.368,1361.31 L 518.388,1361.37 L 515.159,1362.93 L 510.617,1367.05 z " style="fill-opacity:1.000000;fill:rgb(248,41,248);stroke:rgb(0,0,0);stroke-width:2"/></g>
<g fill-rule="evenodd"><path d="M 605.584,1385.95 L 605.258,1387.12 L 607.127,1391.59 L 610.524,1395.69 L 615.2,1397.71 L 620.97,1397.65 L 627.593,1395.39 L 633.579,1392.55 L 643.395,1400.24 L 643.419,1400.83 L 638.845,1405.05 L 632.805,1409 L 625.284,1411.43 L 617.163,1412.11 L 609.335,1410.9 L 601.188,1406.89 L 596.052,1401.51 L 592.587,1394.23 L 590.682,1384.95 L 590.49,1374.53 L 592.206,1365.59 L 595.61,1358.07 L 600.462,1352.23 L 606.59,1348.25 L 613.909,1346.29 L 622.069,1346.67 L 625.51,1347.52 L 632.009,1350.53 L 637.611,1355.18 L 641.487,1360.74 L 642.771,1365.3 L 643.457,1374.98 L 643.341,1384.38 L 610.632,1384.7 L 607.177,1385.16 L 605.584,1385.95M 605.352,1370.78 L 606.254,1371.18 L 609.522,1371.6 L 617.509,1371.87 L 626.883,1371.71 L 628.641,1371.36 L 629.078,1370.86 L 628.829,1369.46 L 626.526,1365.17 L 622.917,1361.73 L 619.786,1360.24 L 615.622,1360.33 L 611.348,1362.21 L 607.757,1365.33 L 605.612,1369.11 L 605.352,1370.78 z " style="fill-opacity:1.000000;fill:rgb(164,27,19);stroke:rgb(0,0,0);stroke-width:2"/></g>
<g fill-rule="evenodd"><path d="M 496.281,158.989 L 496.281,111.765 L 618.275,111.765 L 618.275,158.989 L 496.281,158.989 z " style="fill-opacity:1.000000;fill:rgb(181,202,78);stroke:rgb(0,0,0);stroke-width:2"/></g>
<g fill-rule="evenodd"><path d="M 496.281,258.949 L 496.281,211.724 L 618.275,211.724 L 618.275,258.949 L 496.281,258.949 z " style="fill-opacity:1.000000;fill:rgb(232,152,50);stroke:rgb(0,0,0);stroke-width:2"/></g>
<g fill-rule="evenodd"><path d="M 496.281,358.908 L 496.281,311.683 L 618.275,311.683 L 618.275,358.908 L 496.281,358.908 z " style="fill-opacity:1.000000;fill:rgb(56,224,121);stroke:rgb(0,0,0);stroke-width:2"/></g>
<g fill-rule="evenodd"><path d="M 496.281,458.867 L 496.281,411.642 L 618.275,411.642 L 618.275,458.867 L 496.281,458.867 z " style="fill-opacity:1.000000;fill:rgb(77,61,52);stroke:rgb(0,0,0);stroke-width:2"/></g>
<g fill-rule="evenodd"><path d="M 921.304,458.867 L 921.304,411.642 L 1043.3,411.642 L 1043.3,458.867 L 921.304,458.867 z " style="fill-opacity:1.000000;fill:rgb(188,95,78);stroke:rgb(0,0,0);stroke-width:2"/></g>
<g fill-rule="evenodd"><path d="M 921.304,358.908 L 921.304,311.683 L 1043.3,311.683 L 1043.3,358.908 L 921.304,358.908 z " style="fill-opacity:1.000000;fill:rgb(119,250,203);stroke:rgb(0,0,0);stroke-width:2"/></g>
<g fill-rule="evenodd"><path d="M 921.304,258.949 L 921.304,211.724 L 1043.3,211.724 L 1043.3,258.949 L 921.304,258.949 z " style="fill-opacity:1.000000;fill:rgb(108,5,172);stroke:rgb(0,0,0);stroke-width:2"/></g>
<g fill-rule="evenodd"><path d="M 921.304,158.989 L 921.304,111.765 L 1043.3,111.765 L 1043.3,158.989 L 921.304,158.989 z " style="fill-opacity:1.000000;fill:rgb(134,33,43);stroke:rgb(0,0,0);stroke-width:2"/></g>
<g fill-rule="evenodd"><path d="M 534.373,762.01 L 534.373,628.208 L 691.789,628.208 L 691.789,762.01 L 534.373,762.01 z " style="fill-opacity:1.000000;fill:rgb(170,26,85);stroke:rgb(0,0,0);stroke-width:2"/></g>
<g fill-rule="evenodd"><path d="M 849.207,762.01 L 849.207,628.208 L 1006.62,628.208 L 1006.62,762.01 L 849.207,762.01 z " style="fill-opacity:1.000000;fill:rgb(162,190,112);stroke:rgb(0,0,0);stroke-width:2"/></g>
<g fill-rule="evenodd"><path d="M 127.059,247.033 L 127.059,111.089 L 286.994,111.089 L 286.994,247.033 L 127.059,247.033 z " style="fill-opacity:1.000000;fill:rgb(181,115,59);stroke:rgb(0,0,0);stroke-width:2"/></g>
<g fill-rule="evenodd"><path d="M 195.033,446.952 L 181.349,445.561 L 168.226,441.442 L 156.201,434.767 L 145.767,425.809 L 137.349,414.933 L 131.291,402.586 L 127.845,389.272 L 127.147,375.537 L 129.23,361.943 L 134.006,349.046 L 141.281,337.375 L 150.757,327.407 L 162.045,319.55 L 174.683,314.126 L 188.156,311.357 L 219.021,311.007 L 232.704,312.399 L 245.827,316.517 L 257.852,323.192 L 268.285,332.151 L 276.704,343.026 L 282.761,355.373 L 286.208,368.688 L 286.906,382.422 L 284.823,396.017 L 280.047,408.914 L 272.772,420.585 L 263.295,430.553 L 252.008,438.41 L 239.369,443.833 L 225.897,446.602 L 195.033,446.952 z " style="fill-opacity:1.000000;fill:rgb(4,92,211);stroke:rgb(0,0,0);stroke-width:2"/></g>
<g fill-rule="evenodd"><path d="M 195.033,646.871 L 181.349,645.479 L 168.226,641.361 L 156.201,634.686 L 145.767,625.727 L 137.349,614.852 L 131.291,602.505 L 127.845,589.19 L 127.147,575.456 L 129.23,561.861 L 134.006,548.965 L 141.281,537.293 L 150.757,527.325 L 162.045,519.469 L 174.683,514.045 L 188.156,511.276 L 219.021,510.926 L 232.704,512.317 L 245.827,516.436 L 257.852,523.111 L 268.285,532.069 L 276.704,542.945 L 282.761,555.292 L 286.208,568.607 L 286.906,582.341 L 284.823,595.935 L 280.047,608.832 L 272.772,620.503 L 263.295,630.471 L 252.008,638.328 L 239.369,643.752 L 225.897,646.521 L 195.033,646.871 z " style="fill-opacity:1.000000;fill:rgb(54,148,179);stroke:rgb(0,0,0);stroke-width:2"/></g>
</svg>
