<?xml version="1.0" standalone="no"?>
 <!DOCTYPE svg PUBLIC "-//W3C//DTD SVG 1.1//EN" 
 "http://www.w3.org/Graphics/SVG/1.1/DTD/svg11.dtd"> 
<svg xmlns="http://www.w3.org/2000/svg" version="1.1" 
    width="29.7002cm" height="21.0007cm" viewBox="0 0 116930 82680 ">
<title>SVG Picture created as Puente_OV5680X1-B.Cu.svg date 2018/04/16 18:32:31 </title>
  <desc>Picture generated by PCBNEW </desc>
<g style="fill:#000000; fill-opacity:1;stroke:#000000; stroke-opacity:1;
stroke-linecap:round; stroke-linejoin:round; "
 transform="translate(0 0) scale(1 1)">
</g>
<g style="fill:#000000; fill-opacity:0.0; 
stroke:#000000; stroke-width:-0.000393701; stroke-opacity:1; 
stroke-linecap:round; stroke-linejoin:round;">
</g>
<g style="fill:#000000; fill-opacity:0.0; 
stroke:#000000; stroke-width:118.11; stroke-opacity:1; 
stroke-linecap:round; stroke-linejoin:round;">
<path d="M39770 37792
L39770 38270
L39742 38326
L39713 38355
L39657 38383
L39545 38383
L39489 38355
L39460 38326
L39432 38270
L39432 37792
" />
<path d="M39151 37989
L39151 38383
" />
<path d="M39151 38045
L39123 38017
L39067 37989
L38982 37989
L38926 38017
L38898 38073
L38898 38383
" />
<path d="M38617 38383
L38617 37989
" />
<path d="M38617 37792
L38645 37820
L38617 37848
L38589 37820
L38617 37792
L38617 37848
" />
<path d="M38392 37989
L38251 38383
L38111 37989
" />
<path d="M37661 38355
L37717 38383
L37829 38383
L37886 38355
L37914 38298
L37914 38073
L37886 38017
L37829 37989
L37717 37989
L37661 38017
L37633 38073
L37633 38130
L37914 38186
" />
<path d="M37379 38383
L37379 37989
" />
<path d="M37379 38101
L37351 38045
L37323 38017
L37267 37989
L37211 37989
" />
<path d="M37042 38355
L36986 38383
L36873 38383
L36817 38355
L36789 38298
L36789 38270
L36817 38214
L36873 38186
L36958 38186
L37014 38158
L37042 38101
L37042 38073
L37014 38017
L36958 37989
L36873 37989
L36817 38017
" />
<path d="M36536 38383
L36536 37989
" />
<path d="M36536 37792
L36564 37820
L36536 37848
L36508 37820
L36536 37792
L36536 37848
" />
<path d="M36001 38383
L36001 37792
" />
<path d="M36001 38355
L36058 38383
L36170 38383
L36226 38355
L36255 38326
L36283 38270
L36283 38101
L36255 38045
L36226 38017
L36170 37989
L36058 37989
L36001 38017
" />
<path d="M35467 38383
L35467 38073
L35495 38017
L35552 37989
L35664 37989
L35720 38017
" />
<path d="M35467 38355
L35523 38383
L35664 38383
L35720 38355
L35748 38298
L35748 38242
L35720 38186
L35664 38158
L35523 38158
L35467 38130
" />
<path d="M34933 38383
L34933 37792
" />
<path d="M34933 38355
L34989 38383
L35102 38383
L35158 38355
L35186 38326
L35214 38270
L35214 38101
L35186 38045
L35158 38017
L35102 37989
L34989 37989
L34933 38017
" />
<path d="M33949 38383
L33949 37792
" />
<path d="M33949 38355
L34005 38383
L34117 38383
L34174 38355
L34202 38326
L34230 38270
L34230 38101
L34202 38045
L34174 38017
L34117 37989
L34005 37989
L33949 38017
" />
<path d="M33442 38355
L33499 38383
L33611 38383
L33667 38355
L33695 38298
L33695 38073
L33667 38017
L33611 37989
L33499 37989
L33442 38017
L33414 38073
L33414 38130
L33695 38186
" />
<path d="M32627 38383
L32683 38355
L32711 38298
L32711 37792
" />
<path d="M32149 38383
L32149 38073
L32177 38017
L32233 37989
L32346 37989
L32402 38017
" />
<path d="M32149 38355
L32205 38383
L32346 38383
L32402 38355
L32430 38298
L32430 38242
L32402 38186
L32346 38158
L32205 38158
L32149 38130
" />
<path d="M31136 38383
L31418 38383
L31418 37792
" />
<path d="M30686 38383
L30686 38073
L30715 38017
L30771 37989
L30883 37989
L30940 38017
" />
<path d="M30686 38355
L30743 38383
L30883 38383
L30940 38355
L30968 38298
L30968 38242
L30940 38186
L30883 38158
L30743 38158
L30686 38130
" />
<path d="M30152 37989
L30152 38467
L30180 38523
L30208 38551
L30265 38580
L30349 38580
L30405 38551
" />
<path d="M30152 38355
L30208 38383
L30321 38383
L30377 38355
L30405 38326
L30433 38270
L30433 38101
L30405 38045
L30377 38017
L30321 37989
L30208 37989
L30152 38017
" />
<path d="M29618 37989
L29618 38383
" />
<path d="M29871 37989
L29871 38298
L29843 38355
L29787 38383
L29702 38383
L29646 38355
L29618 38326
" />
<path d="M29337 37989
L29337 38383
" />
<path d="M29337 38045
L29309 38017
L29252 37989
L29168 37989
L29112 38017
L29084 38073
L29084 38383
" />
<path d="M28549 38383
L28549 38073
L28577 38017
L28634 37989
L28746 37989
L28802 38017
" />
<path d="M28549 38355
L28606 38383
L28746 38383
L28802 38355
L28830 38298
L28830 38242
L28802 38186
L28746 38158
L28606 38158
L28549 38130
" />
<path d="M55265 38417
L55265 37826
" />
<path d="M55040 38023
L54900 38417
L54759 38023
" />
<path d="M54281 38417
L54281 38107
L54309 38051
L54365 38023
L54478 38023
L54534 38051
" />
<path d="M54281 38389
L54337 38417
L54478 38417
L54534 38389
L54562 38332
L54562 38276
L54534 38220
L54478 38192
L54337 38192
L54281 38164
" />
<path d="M54365 37798
L54450 37882
" />
<path d="M54000 38023
L54000 38417
" />
<path d="M54000 38079
L53972 38051
L53915 38023
L53831 38023
L53775 38051
L53747 38107
L53747 38417
" />
<path d="M52678 38417
L52875 38135
" />
<path d="M53015 38417
L53015 37826
L52790 37826
L52734 37854
L52706 37882
L52678 37939
L52678 38023
L52706 38079
L52734 38107
L52790 38135
L53015 38135
" />
<path d="M52340 38417
L52397 38389
L52425 38360
L52453 38304
L52453 38135
L52425 38079
L52397 38051
L52340 38023
L52256 38023
L52200 38051
L52172 38079
L52144 38135
L52144 38304
L52172 38360
L52200 38389
L52256 38417
L52340 38417
" />
<path d="M51637 38417
L51637 37826
" />
<path d="M51637 38389
L51694 38417
L51806 38417
L51862 38389
L51891 38360
L51919 38304
L51919 38135
L51891 38079
L51862 38051
L51806 38023
L51694 38023
L51637 38051
" />
<path d="M51356 38417
L51356 38023
" />
<path d="M51356 38135
L51328 38079
L51300 38051
L51244 38023
L51188 38023
" />
<path d="M50991 38417
L50991 38023
" />
<path d="M50934 37798
L51019 37882
" />
<path d="M50456 38023
L50456 38501
L50484 38557
L50513 38585
L50569 38614
L50653 38614
L50709 38585
" />
<path d="M50456 38389
L50513 38417
L50625 38417
L50681 38389
L50709 38360
L50738 38304
L50738 38135
L50709 38079
L50681 38051
L50625 38023
L50513 38023
L50456 38051
" />
<path d="M49922 38023
L49922 38417
" />
<path d="M50175 38023
L50175 38332
L50147 38389
L50091 38417
L50006 38417
L49950 38389
L49922 38360
" />
<path d="M49416 38389
L49472 38417
L49585 38417
L49641 38389
L49669 38332
L49669 38107
L49641 38051
L49585 38023
L49472 38023
L49416 38051
L49388 38107
L49388 38164
L49669 38220
" />
<path d="M49191 38023
L48882 38023
L49191 38417
L48882 38417
" />
<path d="M48207 38417
L48207 37826
L48010 38248
L47813 37826
L47813 38417
" />
<path d="M47307 38389
L47363 38417
L47475 38417
L47532 38389
L47560 38332
L47560 38107
L47532 38051
L47475 38023
L47363 38023
L47307 38051
L47279 38107
L47279 38164
L47560 38220
" />
<path d="M47363 37798
L47447 37882
" />
<path d="M47026 38023
L47026 38417
" />
<path d="M47026 38079
L46997 38051
L46941 38023
L46857 38023
L46801 38051
L46772 38107
L46772 38417
" />
<path d="M46238 38417
L46238 37826
" />
<path d="M46238 38389
L46294 38417
L46407 38417
L46463 38389
L46491 38360
L46519 38304
L46519 38135
L46491 38079
L46463 38051
L46407 38023
L46294 38023
L46238 38051
" />
<path d="M45732 38389
L45788 38417
L45901 38417
L45957 38389
L45985 38332
L45985 38107
L45957 38051
L45901 38023
L45788 38023
L45732 38051
L45704 38107
L45704 38164
L45985 38220
" />
<path d="M45507 38023
L45198 38023
L45507 38417
L45198 38417
" />
</g>
<g style="fill:#000000; fill-opacity:0.0; 
stroke:#000000; stroke-width:0; stroke-opacity:1; 
stroke-linecap:round; stroke-linejoin:round;">
</g>
<g style="fill:#000000; fill-opacity:1.0; 
stroke:#000000; stroke-width:0; stroke-opacity:1; 
stroke-linecap:round; stroke-linejoin:round;">
<polyline style="fill-rule:evenodd;"
points="49014,28190
49014,27324
49093,27324
49093,28190
49014,28190
" /> 
<polyline style="fill-rule:evenodd;"
points="49014,26143
49014,25277
49093,25277
49093,26143
49014,26143
" /> 
<polyline style="fill-rule:evenodd;"
points="48818,28190
48818,27324
48896,27324
48896,28190
48818,28190
" /> 
<polyline style="fill-rule:evenodd;"
points="48818,26143
48818,25277
48896,25277
48896,26143
48818,26143
" /> 
<polyline style="fill-rule:evenodd;"
points="48621,28190
48621,27324
48699,27324
48699,28190
48621,28190
" /> 
<polyline style="fill-rule:evenodd;"
points="48621,26143
48621,25277
48699,25277
48699,26143
48621,26143
" /> 
<polyline style="fill-rule:evenodd;"
points="48424,28190
48424,27324
48503,27324
48503,28190
48424,28190
" /> 
<polyline style="fill-rule:evenodd;"
points="48424,26143
48424,25277
48503,25277
48503,26143
48424,26143
" /> 
<polyline style="fill-rule:evenodd;"
points="48227,28190
48227,27324
48306,27324
48306,28190
48227,28190
" /> 
<polyline style="fill-rule:evenodd;"
points="48227,26143
48227,25277
48306,25277
48306,26143
48227,26143
" /> 
<polyline style="fill-rule:evenodd;"
points="48030,28190
48030,27324
48109,27324
48109,28190
48030,28190
" /> 
<polyline style="fill-rule:evenodd;"
points="48030,26143
48030,25277
48109,25277
48109,26143
48030,26143
" /> 
<polyline style="fill-rule:evenodd;"
points="47833,28190
47833,27324
47912,27324
47912,28190
47833,28190
" /> 
<polyline style="fill-rule:evenodd;"
points="47833,26143
47833,25277
47912,25277
47912,26143
47833,26143
" /> 
<polyline style="fill-rule:evenodd;"
points="47636,28190
47636,27324
47715,27324
47715,28190
47636,28190
" /> 
<polyline style="fill-rule:evenodd;"
points="47636,26143
47636,25277
47715,25277
47715,26143
47636,26143
" /> 
<polyline style="fill-rule:evenodd;"
points="47440,28190
47440,27324
47518,27324
47518,28190
47440,28190
" /> 
<polyline style="fill-rule:evenodd;"
points="47440,26143
47440,25277
47518,25277
47518,26143
47440,26143
" /> 
<polyline style="fill-rule:evenodd;"
points="47243,28190
47243,27324
47322,27324
47322,28190
47243,28190
" /> 
<polyline style="fill-rule:evenodd;"
points="47243,26143
47243,25277
47322,25277
47322,26143
47243,26143
" /> 
<polyline style="fill-rule:evenodd;"
points="47046,28190
47046,27324
47125,27324
47125,28190
47046,28190
" /> 
<polyline style="fill-rule:evenodd;"
points="47046,26143
47046,25277
47125,25277
47125,26143
47046,26143
" /> 
<polyline style="fill-rule:evenodd;"
points="46849,28190
46849,27324
46928,27324
46928,28190
46849,28190
" /> 
<polyline style="fill-rule:evenodd;"
points="46849,26143
46849,25277
46928,25277
46928,26143
46849,26143
" /> 
<polyline style="fill-rule:evenodd;"
points="46652,28190
46652,27324
46731,27324
46731,28190
46652,28190
" /> 
<polyline style="fill-rule:evenodd;"
points="46652,26143
46652,25277
46731,25277
46731,26143
46652,26143
" /> 
<polyline style="fill-rule:evenodd;"
points="46455,28190
46455,27324
46534,27324
46534,28190
46455,28190
" /> 
<polyline style="fill-rule:evenodd;"
points="46455,26143
46455,25277
46534,25277
46534,26143
46455,26143
" /> 
<polyline style="fill-rule:evenodd;"
points="46259,28190
46259,27324
46337,27324
46337,28190
46259,28190
" /> 
<polyline style="fill-rule:evenodd;"
points="46259,26143
46259,25277
46337,25277
46337,26143
46259,26143
" /> 
<polyline style="fill-rule:evenodd;"
points="46062,28190
46062,27324
46140,27324
46140,28190
46062,28190
" /> 
<polyline style="fill-rule:evenodd;"
points="46062,26143
46062,25277
46140,25277
46140,26143
46062,26143
" /> 
<polyline style="fill-rule:evenodd;"
points="45865,28190
45865,27324
45944,27324
45944,28190
45865,28190
" /> 
<polyline style="fill-rule:evenodd;"
points="45865,26143
45865,25277
45944,25277
45944,26143
45865,26143
" /> 
<polyline style="fill-rule:evenodd;"
points="45668,28190
45668,27324
45747,27324
45747,28190
45668,28190
" /> 
<polyline style="fill-rule:evenodd;"
points="45668,26143
45668,25277
45747,25277
45747,26143
45668,26143
" /> 
<polyline style="fill-rule:evenodd;"
points="45471,28190
45471,27324
45550,27324
45550,28190
45471,28190
" /> 
<polyline style="fill-rule:evenodd;"
points="45471,26143
45471,25277
45550,25277
45550,26143
45471,26143
" /> 
<polyline style="fill-rule:evenodd;"
points="45274,28190
45274,27324
45353,27324
45353,28190
45274,28190
" /> 
<polyline style="fill-rule:evenodd;"
points="45274,26143
45274,25277
45353,25277
45353,26143
45274,26143
" /> 
<polyline style="fill-rule:evenodd;"
points="45077,28190
45077,27324
45156,27324
45156,28190
45077,28190
" /> 
<polyline style="fill-rule:evenodd;"
points="45077,26143
45077,25277
45156,25277
45156,26143
45077,26143
" /> 
<polyline style="fill-rule:evenodd;"
points="44881,28190
44881,27324
44959,27324
44959,28190
44881,28190
" /> 
<polyline style="fill-rule:evenodd;"
points="44881,26143
44881,25277
44959,25277
44959,26143
44881,26143
" /> 
<polyline style="fill-rule:evenodd;"
points="44684,28190
44684,27324
44762,27324
44762,28190
44684,28190
" /> 
<polyline style="fill-rule:evenodd;"
points="44684,26143
44684,25277
44762,25277
44762,26143
44684,26143
" /> 
<polyline style="fill-rule:evenodd;"
points="44487,28190
44487,27324
44566,27324
44566,28190
44487,28190
" /> 
<polyline style="fill-rule:evenodd;"
points="44487,26143
44487,25277
44566,25277
44566,26143
44487,26143
" /> 
<polyline style="fill-rule:evenodd;"
points="44290,28190
44290,27324
44369,27324
44369,28190
44290,28190
" /> 
<polyline style="fill-rule:evenodd;"
points="44290,26143
44290,25277
44369,25277
44369,26143
44290,26143
" /> 
<polyline style="fill-rule:evenodd;"
points="44093,28190
44093,27324
44172,27324
44172,28190
44093,28190
" /> 
<polyline style="fill-rule:evenodd;"
points="44093,26143
44093,25277
44172,25277
44172,26143
44093,26143
" /> 
<polyline style="fill-rule:evenodd;"
points="43896,28190
43896,27324
43975,27324
43975,28190
43896,28190
" /> 
<polyline style="fill-rule:evenodd;"
points="43896,26143
43896,25277
43975,25277
43975,26143
43896,26143
" /> 
<polyline style="fill-rule:evenodd;"
points="43699,28190
43699,27324
43778,27324
43778,28190
43699,28190
" /> 
<polyline style="fill-rule:evenodd;"
points="43699,26143
43699,25277
43778,25277
43778,26143
43699,26143
" /> 
<polyline style="fill-rule:evenodd;"
points="43503,28190
43503,27324
43581,27324
43581,28190
43503,28190
" /> 
<polyline style="fill-rule:evenodd;"
points="43503,26143
43503,25277
43581,25277
43581,26143
43503,26143
" /> 
<polyline style="fill-rule:evenodd;"
points="43306,28190
43306,27324
43385,27324
43385,28190
43306,28190
" /> 
<polyline style="fill-rule:evenodd;"
points="43306,26143
43306,25277
43385,25277
43385,26143
43306,26143
" /> 
<polyline style="fill-rule:evenodd;"
points="41119,28195
41119,27329
41198,27329
41198,28195
41119,28195
" /> 
<polyline style="fill-rule:evenodd;"
points="41119,26148
41119,25282
41198,25282
41198,26148
41119,26148
" /> 
<polyline style="fill-rule:evenodd;"
points="40922,28195
40922,27329
41001,27329
41001,28195
40922,28195
" /> 
<polyline style="fill-rule:evenodd;"
points="40922,26148
40922,25282
41001,25282
41001,26148
40922,26148
" /> 
<polyline style="fill-rule:evenodd;"
points="40725,28195
40725,27329
40804,27329
40804,28195
40725,28195
" /> 
<polyline style="fill-rule:evenodd;"
points="40725,26148
40725,25282
40804,25282
40804,26148
40725,26148
" /> 
<polyline style="fill-rule:evenodd;"
points="40528,28195
40528,27329
40607,27329
40607,28195
40528,28195
" /> 
<polyline style="fill-rule:evenodd;"
points="40528,26148
40528,25282
40607,25282
40607,26148
40528,26148
" /> 
<polyline style="fill-rule:evenodd;"
points="40332,28195
40332,27329
40410,27329
40410,28195
40332,28195
" /> 
<polyline style="fill-rule:evenodd;"
points="40332,26148
40332,25282
40410,25282
40410,26148
40332,26148
" /> 
<polyline style="fill-rule:evenodd;"
points="40135,28195
40135,27329
40213,27329
40213,28195
40135,28195
" /> 
<polyline style="fill-rule:evenodd;"
points="40135,26148
40135,25282
40213,25282
40213,26148
40135,26148
" /> 
<polyline style="fill-rule:evenodd;"
points="39938,28195
39938,27329
40017,27329
40017,28195
39938,28195
" /> 
<polyline style="fill-rule:evenodd;"
points="39938,26148
39938,25282
40017,25282
40017,26148
39938,26148
" /> 
<polyline style="fill-rule:evenodd;"
points="39741,28195
39741,27329
39820,27329
39820,28195
39741,28195
" /> 
<polyline style="fill-rule:evenodd;"
points="39741,26148
39741,25282
39820,25282
39820,26148
39741,26148
" /> 
<polyline style="fill-rule:evenodd;"
points="39544,28195
39544,27329
39623,27329
39623,28195
39544,28195
" /> 
<polyline style="fill-rule:evenodd;"
points="39544,26148
39544,25282
39623,25282
39623,26148
39544,26148
" /> 
<polyline style="fill-rule:evenodd;"
points="39347,28195
39347,27329
39426,27329
39426,28195
39347,28195
" /> 
<polyline style="fill-rule:evenodd;"
points="39347,26148
39347,25282
39426,25282
39426,26148
39347,26148
" /> 
<polyline style="fill-rule:evenodd;"
points="39150,28195
39150,27329
39229,27329
39229,28195
39150,28195
" /> 
<polyline style="fill-rule:evenodd;"
points="39150,26148
39150,25282
39229,25282
39229,26148
39150,26148
" /> 
<polyline style="fill-rule:evenodd;"
points="38954,28195
38954,27329
39032,27329
39032,28195
38954,28195
" /> 
<polyline style="fill-rule:evenodd;"
points="38954,26148
38954,25282
39032,25282
39032,26148
38954,26148
" /> 
<polyline style="fill-rule:evenodd;"
points="38757,28195
38757,27329
38835,27329
38835,28195
38757,28195
" /> 
<polyline style="fill-rule:evenodd;"
points="38757,26148
38757,25282
38835,25282
38835,26148
38757,26148
" /> 
<polyline style="fill-rule:evenodd;"
points="38560,28195
38560,27329
38639,27329
38639,28195
38560,28195
" /> 
<polyline style="fill-rule:evenodd;"
points="38560,26148
38560,25282
38639,25282
38639,26148
38560,26148
" /> 
<polyline style="fill-rule:evenodd;"
points="38363,28195
38363,27329
38442,27329
38442,28195
38363,28195
" /> 
<polyline style="fill-rule:evenodd;"
points="38363,26148
38363,25282
38442,25282
38442,26148
38363,26148
" /> 
<polyline style="fill-rule:evenodd;"
points="38166,28195
38166,27329
38245,27329
38245,28195
38166,28195
" /> 
<polyline style="fill-rule:evenodd;"
points="38166,26148
38166,25282
38245,25282
38245,26148
38166,26148
" /> 
<polyline style="fill-rule:evenodd;"
points="37969,28195
37969,27329
38048,27329
38048,28195
37969,28195
" /> 
<polyline style="fill-rule:evenodd;"
points="37969,26148
37969,25282
38048,25282
38048,26148
37969,26148
" /> 
<polyline style="fill-rule:evenodd;"
points="37772,28195
37772,27329
37851,27329
37851,28195
37772,28195
" /> 
<polyline style="fill-rule:evenodd;"
points="37772,26148
37772,25282
37851,25282
37851,26148
37772,26148
" /> 
<polyline style="fill-rule:evenodd;"
points="37576,28195
37576,27329
37654,27329
37654,28195
37576,28195
" /> 
<polyline style="fill-rule:evenodd;"
points="37576,26148
37576,25282
37654,25282
37654,26148
37576,26148
" /> 
<polyline style="fill-rule:evenodd;"
points="37379,28195
37379,27329
37458,27329
37458,28195
37379,28195
" /> 
<polyline style="fill-rule:evenodd;"
points="37379,26148
37379,25282
37458,25282
37458,26148
37379,26148
" /> 
<polyline style="fill-rule:evenodd;"
points="37182,28195
37182,27329
37261,27329
37261,28195
37182,28195
" /> 
<polyline style="fill-rule:evenodd;"
points="37182,26148
37182,25282
37261,25282
37261,26148
37182,26148
" /> 
<polyline style="fill-rule:evenodd;"
points="36985,28195
36985,27329
37064,27329
37064,28195
36985,28195
" /> 
<polyline style="fill-rule:evenodd;"
points="36985,26148
36985,25282
37064,25282
37064,26148
36985,26148
" /> 
<polyline style="fill-rule:evenodd;"
points="36788,28195
36788,27329
36867,27329
36867,28195
36788,28195
" /> 
<polyline style="fill-rule:evenodd;"
points="36788,26148
36788,25282
36867,25282
36867,26148
36788,26148
" /> 
<polyline style="fill-rule:evenodd;"
points="36591,28195
36591,27329
36670,27329
36670,28195
36591,28195
" /> 
<polyline style="fill-rule:evenodd;"
points="36591,26148
36591,25282
36670,25282
36670,26148
36591,26148
" /> 
<polyline style="fill-rule:evenodd;"
points="36395,28195
36395,27329
36473,27329
36473,28195
36395,28195
" /> 
<polyline style="fill-rule:evenodd;"
points="36395,26148
36395,25282
36473,25282
36473,26148
36395,26148
" /> 
<polyline style="fill-rule:evenodd;"
points="36198,28195
36198,27329
36276,27329
36276,28195
36198,28195
" /> 
<polyline style="fill-rule:evenodd;"
points="36198,26148
36198,25282
36276,25282
36276,26148
36198,26148
" /> 
<polyline style="fill-rule:evenodd;"
points="36001,28195
36001,27329
36080,27329
36080,28195
36001,28195
" /> 
<polyline style="fill-rule:evenodd;"
points="36001,26148
36001,25282
36080,25282
36080,26148
36001,26148
" /> 
<polyline style="fill-rule:evenodd;"
points="35804,28195
35804,27329
35883,27329
35883,28195
35804,28195
" /> 
<polyline style="fill-rule:evenodd;"
points="35804,26148
35804,25282
35883,25282
35883,26148
35804,26148
" /> 
<polyline style="fill-rule:evenodd;"
points="35607,28195
35607,27329
35686,27329
35686,28195
35607,28195
" /> 
<polyline style="fill-rule:evenodd;"
points="35607,26148
35607,25282
35686,25282
35686,26148
35607,26148
" /> 
<polyline style="fill-rule:evenodd;"
points="35410,28195
35410,27329
35489,27329
35489,28195
35410,28195
" /> 
<polyline style="fill-rule:evenodd;"
points="35410,26148
35410,25282
35489,25282
35489,26148
35410,26148
" /> 
<polyline style="fill-rule:evenodd;"
points="49949,26702
49949,26860
42469,26860
42469,26702
49949,26702
" /> 
<polyline style="fill-rule:evenodd;"
points="41954,26697
41954,26855
34474,26855
34474,26697
41954,26697
" /> 
<circle cx="40020" cy="36525" r="275.591" /> 
</g>
<g style="fill:#000000; fill-opacity:1.0; 
stroke:#000000; stroke-width:39.3701; stroke-opacity:1; 
stroke-linecap:round; stroke-linejoin:round;">
</g>
<g style="fill:#000000; fill-opacity:1.0; 
stroke:#000000; stroke-width:0; stroke-opacity:1; 
stroke-linecap:round; stroke-linejoin:round;">
<circle cx="46485" cy="34770" r="275.591" /> 
</g>
<g style="fill:#000000; fill-opacity:1.0; 
stroke:#000000; stroke-width:39.3701; stroke-opacity:1; 
stroke-linecap:round; stroke-linejoin:round;">
</g>
<g style="fill:#000000; fill-opacity:1.0; 
stroke:#000000; stroke-width:0; stroke-opacity:1; 
stroke-linecap:round; stroke-linejoin:round;">
<circle cx="48345" cy="24101" r="275.591" /> 
</g>
<g style="fill:#000000; fill-opacity:1.0; 
stroke:#000000; stroke-width:39.3701; stroke-opacity:1; 
stroke-linecap:round; stroke-linejoin:round;">
</g>
<g style="fill:#000000; fill-opacity:1.0; 
stroke:#000000; stroke-width:0; stroke-opacity:1; 
stroke-linecap:round; stroke-linejoin:round;">
<circle cx="49610" cy="30162" r="275.591" /> 
</g>
<g style="fill:#000000; fill-opacity:1.0; 
stroke:#000000; stroke-width:39.3701; stroke-opacity:1; 
stroke-linecap:round; stroke-linejoin:round;">
</g>
<g style="fill:#000000; fill-opacity:1.0; 
stroke:#000000; stroke-width:0; stroke-opacity:1; 
stroke-linecap:round; stroke-linejoin:round;">
<circle cx="44085" cy="32445" r="275.591" /> 
</g>
<g style="fill:#000000; fill-opacity:1.0; 
stroke:#000000; stroke-width:39.3701; stroke-opacity:1; 
stroke-linecap:round; stroke-linejoin:round;">
</g>
<g style="fill:#000000; fill-opacity:1.0; 
stroke:#000000; stroke-width:0; stroke-opacity:1; 
stroke-linecap:round; stroke-linejoin:round;">
<circle cx="46519" cy="24068" r="275.591" /> 
</g>
<g style="fill:#000000; fill-opacity:1.0; 
stroke:#000000; stroke-width:39.3701; stroke-opacity:1; 
stroke-linecap:round; stroke-linejoin:round;">
</g>
<g style="fill:#000000; fill-opacity:1.0; 
stroke:#000000; stroke-width:0; stroke-opacity:1; 
stroke-linecap:round; stroke-linejoin:round;">
<circle cx="49654" cy="33242" r="275.591" /> 
</g>
<g style="fill:#000000; fill-opacity:1.0; 
stroke:#000000; stroke-width:39.3701; stroke-opacity:1; 
stroke-linecap:round; stroke-linejoin:round;">
</g>
<g style="fill:#000000; fill-opacity:1.0; 
stroke:#000000; stroke-width:0; stroke-opacity:1; 
stroke-linecap:round; stroke-linejoin:round;">
<circle cx="44154" cy="33286" r="275.591" /> 
</g>
<g style="fill:#000000; fill-opacity:1.0; 
stroke:#000000; stroke-width:39.3701; stroke-opacity:1; 
stroke-linecap:round; stroke-linejoin:round;">
</g>
<g style="fill:#000000; fill-opacity:1.0; 
stroke:#000000; stroke-width:0; stroke-opacity:1; 
stroke-linecap:round; stroke-linejoin:round;">
<circle cx="36840" cy="33975" r="275.591" /> 
</g>
<g style="fill:#000000; fill-opacity:1.0; 
stroke:#000000; stroke-width:39.3701; stroke-opacity:1; 
stroke-linecap:round; stroke-linejoin:round;">
</g>
<g style="fill:#000000; fill-opacity:1.0; 
stroke:#000000; stroke-width:0; stroke-opacity:1; 
stroke-linecap:round; stroke-linejoin:round;">
<circle cx="38456" cy="31768" r="275.591" /> 
</g>
<g style="fill:#000000; fill-opacity:1.0; 
stroke:#000000; stroke-width:39.3701; stroke-opacity:1; 
stroke-linecap:round; stroke-linejoin:round;">
</g>
<g style="fill:#000000; fill-opacity:1.0; 
stroke:#000000; stroke-width:0; stroke-opacity:1; 
stroke-linecap:round; stroke-linejoin:round;">
<circle cx="48650" cy="31465" r="275.591" /> 
</g>
<g style="fill:#000000; fill-opacity:1.0; 
stroke:#000000; stroke-width:39.3701; stroke-opacity:1; 
stroke-linecap:round; stroke-linejoin:round;">
</g>
<g style="fill:#000000; fill-opacity:1.0; 
stroke:#000000; stroke-width:0; stroke-opacity:1; 
stroke-linecap:round; stroke-linejoin:round;">
<circle cx="52888" cy="31372" r="275.591" /> 
</g>
<g style="fill:#000000; fill-opacity:1.0; 
stroke:#000000; stroke-width:39.3701; stroke-opacity:1; 
stroke-linecap:round; stroke-linejoin:round;">
</g>
<g style="fill:#000000; fill-opacity:1.0; 
stroke:#000000; stroke-width:0; stroke-opacity:1; 
stroke-linecap:round; stroke-linejoin:round;">
<circle cx="37260" cy="32175" r="275.591" /> 
</g>
<g style="fill:#000000; fill-opacity:1.0; 
stroke:#000000; stroke-width:39.3701; stroke-opacity:1; 
stroke-linecap:round; stroke-linejoin:round;">
</g>
<g style="fill:#000000; fill-opacity:1.0; 
stroke:#000000; stroke-width:0; stroke-opacity:1; 
stroke-linecap:round; stroke-linejoin:round;">
<circle cx="48735" cy="30675" r="275.591" /> 
</g>
<g style="fill:#000000; fill-opacity:1.0; 
stroke:#000000; stroke-width:39.3701; stroke-opacity:1; 
stroke-linecap:round; stroke-linejoin:round;">
</g>
<g style="fill:#000000; fill-opacity:1.0; 
stroke:#000000; stroke-width:0; stroke-opacity:1; 
stroke-linecap:round; stroke-linejoin:round;">
<circle cx="53669" cy="30844" r="275.591" /> 
</g>
<g style="fill:#000000; fill-opacity:1.0; 
stroke:#000000; stroke-width:39.3701; stroke-opacity:1; 
stroke-linecap:round; stroke-linejoin:round;">
</g>
<g style="fill:#000000; fill-opacity:1.0; 
stroke:#000000; stroke-width:0; stroke-opacity:1; 
stroke-linecap:round; stroke-linejoin:round;">
<circle cx="40305" cy="24165" r="275.591" /> 
</g>
<g style="fill:#000000; fill-opacity:1.0; 
stroke:#000000; stroke-width:39.3701; stroke-opacity:1; 
stroke-linecap:round; stroke-linejoin:round;">
</g>
<g style="fill:#000000; fill-opacity:1.0; 
stroke:#000000; stroke-width:0; stroke-opacity:1; 
stroke-linecap:round; stroke-linejoin:round;">
<circle cx="39690" cy="29535" r="275.591" /> 
</g>
<g style="fill:#000000; fill-opacity:1.0; 
stroke:#000000; stroke-width:39.3701; stroke-opacity:1; 
stroke-linecap:round; stroke-linejoin:round;">
</g>
<g style="fill:#000000; fill-opacity:1.0; 
stroke:#000000; stroke-width:0; stroke-opacity:1; 
stroke-linecap:round; stroke-linejoin:round;">
<circle cx="41030" cy="29568" r="275.591" /> 
</g>
<g style="fill:#000000; fill-opacity:1.0; 
stroke:#000000; stroke-width:39.3701; stroke-opacity:1; 
stroke-linecap:round; stroke-linejoin:round;">
</g>
<g style="fill:#000000; fill-opacity:1.0; 
stroke:#000000; stroke-width:0; stroke-opacity:1; 
stroke-linecap:round; stroke-linejoin:round;">
<circle cx="38984" cy="24123" r="275.591" /> 
</g>
<g style="fill:#000000; fill-opacity:1.0; 
stroke:#000000; stroke-width:39.3701; stroke-opacity:1; 
stroke-linecap:round; stroke-linejoin:round;">
</g>
<g style="fill:#000000; fill-opacity:1.0; 
stroke:#000000; stroke-width:0; stroke-opacity:1; 
stroke-linecap:round; stroke-linejoin:round;">
<circle cx="41190" cy="35310" r="275.591" /> 
</g>
<g style="fill:#000000; fill-opacity:1.0; 
stroke:#000000; stroke-width:39.3701; stroke-opacity:1; 
stroke-linecap:round; stroke-linejoin:round;">
</g>
<g style="fill:#000000; fill-opacity:1.0; 
stroke:#000000; stroke-width:0; stroke-opacity:1; 
stroke-linecap:round; stroke-linejoin:round;">
<circle cx="36861" cy="34716" r="275.591" /> 
</g>
<g style="fill:#000000; fill-opacity:1.0; 
stroke:#000000; stroke-width:39.3701; stroke-opacity:1; 
stroke-linecap:round; stroke-linejoin:round;">
</g>
<g style="fill:#000000; fill-opacity:1.0; 
stroke:#000000; stroke-width:0; stroke-opacity:1; 
stroke-linecap:round; stroke-linejoin:round;">
<circle cx="31290" cy="30645" r="275.591" /> 
</g>
<g style="fill:#000000; fill-opacity:1.0; 
stroke:#000000; stroke-width:39.3701; stroke-opacity:1; 
stroke-linecap:round; stroke-linejoin:round;">
</g>
<g style="fill:#000000; fill-opacity:1.0; 
stroke:#000000; stroke-width:0; stroke-opacity:1; 
stroke-linecap:round; stroke-linejoin:round;">
<circle cx="32098" cy="31262" r="275.591" /> 
</g>
<g style="fill:#000000; fill-opacity:1.0; 
stroke:#000000; stroke-width:39.3701; stroke-opacity:1; 
stroke-linecap:round; stroke-linejoin:round;">
</g>
<g style="fill:#000000; fill-opacity:1.0; 
stroke:#000000; stroke-width:0; stroke-opacity:1; 
stroke-linecap:round; stroke-linejoin:round;">
<circle cx="33848" cy="28864" r="275.591" /> 
</g>
<g style="fill:#000000; fill-opacity:1.0; 
stroke:#000000; stroke-width:39.3701; stroke-opacity:1; 
stroke-linecap:round; stroke-linejoin:round;">
</g>
<g style="fill:#000000; fill-opacity:1.0; 
stroke:#000000; stroke-width:98.4252; stroke-opacity:1; 
stroke-linecap:round; stroke-linejoin:round;">
</g>
<g style="fill:#000000; fill-opacity:0.0; 
stroke:#000000; stroke-width:98.4252; stroke-opacity:1; 
stroke-linecap:round; stroke-linejoin:round;">
<path d="M46298 25710
L46298 26692
" />
<path d="M46298 26692
L46209 26781
" />
<path d="M45707 25710
L45707 26519
" />
<path d="M45707 26519
L45969 26781
" />
<path d="M45969 26781
L46209 26781
" />
<path d="M46298 27757
L46298 26870
" />
<path d="M46298 26870
L46209 26781
" />
</g>
<g style="fill:#000000; fill-opacity:0.0; 
stroke:#000000; stroke-width:196.85; stroke-opacity:1; 
stroke-linecap:round; stroke-linejoin:round;">
<path d="M40425 36120
L40020 36525
" />
<path d="M45135 36120
L40425 36120
" />
<path d="M46485 34770
L45135 36120
" />
</g>
<g style="fill:#000000; fill-opacity:0.0; 
stroke:#000000; stroke-width:98.4252; stroke-opacity:1; 
stroke-linecap:round; stroke-linejoin:round;">
<path d="M40371 25715
L40371 25012
" />
<path d="M40371 25012
L40488 24896
" />
<path d="M39387 25715
L39387 26483
" />
<path d="M39387 26483
L39093 26776
" />
<path d="M39093 26776
L38214 26776
" />
<path d="M35843 25715
L35843 26459
" />
<path d="M35843 26459
L36160 26776
" />
<path d="M36160 26776
L38214 26776
" />
<path d="M37418 25715
L37418 26360
" />
<path d="M37418 26360
L37834 26776
" />
<path d="M37834 26776
L38214 26776
" />
<path d="M35843 27762
L35843 26964
" />
<path d="M35843 26964
L36031 26776
" />
<path d="M36031 26776
L38214 26776
" />
<path d="M37418 27762
L37418 26966
" />
<path d="M37418 26966
L37608 26776
" />
<path d="M37608 26776
L38214 26776
" />
<path d="M39387 27762
L39387 28576
" />
<path d="M39371 28593
L39371 28598
" />
<path d="M39387 28576
L39371 28593
" />
<path d="M40371 27762
L40371 28554
" />
<path d="M40371 28554
L40379 28562
" />
<path d="M48660 25710
L48660 26579
" />
<path d="M48660 26579
L48458 26781
" />
<path d="M48458 26781
L46209 26781
" />
<path d="M48070 25710
L48070 26500
" />
<path d="M48070 26500
L47788 26781
" />
<path d="M47788 26781
L46209 26781
" />
</g>
<g style="fill:#000000; fill-opacity:0.0; 
stroke:#000000; stroke-width:118.11; stroke-opacity:1; 
stroke-linecap:round; stroke-linejoin:round;">
<path d="M47479 25710
L47479 25081
" />
<path d="M47479 25081
L47238 24840
" />
</g>
<g style="fill:#000000; fill-opacity:0.0; 
stroke:#000000; stroke-width:98.4252; stroke-opacity:1; 
stroke-linecap:round; stroke-linejoin:round;">
<path d="M46888 25710
L46888 24889
" />
<path d="M46888 24889
L46908 24870
" />
<path d="M43936 25710
L43936 24613
" />
<path d="M43936 24613
L44034 24516
" />
<path d="M44526 25710
L44526 24707
" />
<path d="M44526 24707
L44664 24570
" />
<path d="M45117 25710
L45117 24758
" />
<path d="M45117 24758
L45216 24660
" />
<path d="M45707 25710
L45707 24690
" />
<path d="M45707 24690
L45732 24666
" />
<path d="M46298 25710
L46298 24531
" />
<path d="M46298 24531
L46344 24486
" />
<path d="M43936 27757
L43936 28999
" />
<path d="M44000 29064
L44202 29064
" />
<path d="M43936 28999
L44000 29064
" />
<path d="M44526 27757
L44526 28866
" />
<path d="M44526 28866
L44658 28998
" />
<path d="M45117 27757
L45117 28935
" />
<path d="M45117 28935
L45180 28998
" />
<path d="M45707 27757
L45707 29027
" />
<path d="M45707 29027
L45852 29172
" />
<path d="M46298 27757
L46298 29012
" />
<path d="M46298 29012
L46464 29178
" />
<path d="M46888 27757
L46888 28816
" />
<path d="M46888 28816
L46998 28926
" />
<path d="M47479 27757
L47479 28933
" />
<path d="M47479 28933
L47646 29100
" />
<path d="M48070 27757
L48070 28996
" />
<path d="M48070 28996
L48084 29010
" />
<path d="M48660 27757
L48660 29245
" />
<path d="M48660 29245
L48708 29293
" />
<path d="M47853 24592
L47853 25710
" />
<path d="M48345 24101
L47853 24592
" />
</g>
<g style="fill:#000000; fill-opacity:0.0; 
stroke:#000000; stroke-width:196.85; stroke-opacity:1; 
stroke-linecap:round; stroke-linejoin:round;">
<path d="M49610 32274
L49610 30162
" />
<path d="M49456 32428
L49610 32274
" />
<path d="M44102 32428
L49456 32428
" />
</g>
<g style="fill:#000000; fill-opacity:0.0; 
stroke:#000000; stroke-width:98.4252; stroke-opacity:1; 
stroke-linecap:round; stroke-linejoin:round;">
<path d="M44085 32445
L44102 32428
" />
<path d="M47853 25710
L47873 25710
" />
<path d="M47676 24565
L47676 25710
" />
<path d="M47223 24112
L47676 24565
" />
<path d="M46563 24112
L47223 24112
" />
<path d="M46519 24068
L46563 24112
" />
</g>
<g style="fill:#000000; fill-opacity:0.0; 
stroke:#000000; stroke-width:196.85; stroke-opacity:1; 
stroke-linecap:round; stroke-linejoin:round;">
<path d="M44198 33242
L49654 33242
" />
</g>
<g style="fill:#000000; fill-opacity:0.0; 
stroke:#000000; stroke-width:98.4252; stroke-opacity:1; 
stroke-linecap:round; stroke-linejoin:round;">
<path d="M44154 33286
L44198 33242
" />
<path d="M49054 25710
L50768 25710
" />
<path d="M50340 33975
L36840 33975
" />
<path d="M51310 33005
L50340 33975
" />
<path d="M51310 26252
L51310 33005
" />
<path d="M50768 25710
L51310 26252
" />
<path d="M48463 25710
L48463 25128
" />
</g>
<g style="fill:#000000; fill-opacity:0.0; 
stroke:#000000; stroke-width:196.85; stroke-opacity:1; 
stroke-linecap:round; stroke-linejoin:round;">
<path d="M48347 31768
L38456 31768
" />
<path d="M48650 31465
L48347 31768
" />
</g>
<g style="fill:#000000; fill-opacity:0.0; 
stroke:#000000; stroke-width:98.4252; stroke-opacity:1; 
stroke-linecap:round; stroke-linejoin:round;">
<path d="M52888 25828
L52888 31372
" />
<path d="M51628 24568
L52888 25828
" />
<path d="M49024 24568
L51628 24568
" />
<path d="M48463 25128
L49024 24568
" />
<path d="M48266 25710
L48266 24901
" />
</g>
<g style="fill:#000000; fill-opacity:0.0; 
stroke:#000000; stroke-width:196.85; stroke-opacity:1; 
stroke-linecap:round; stroke-linejoin:round;">
<path d="M38415 31020
L37260 32175
" />
<path d="M48390 31020
L38415 31020
" />
<path d="M48735 30675
L48390 31020
" />
</g>
<g style="fill:#000000; fill-opacity:0.0; 
stroke:#000000; stroke-width:98.4252; stroke-opacity:1; 
stroke-linecap:round; stroke-linejoin:round;">
<path d="M53669 26149
L53669 30844
" />
<path d="M51808 24288
L53669 26149
" />
<path d="M48880 24288
L51808 24288
" />
<path d="M48266 24901
L48880 24288
" />
</g>
<g style="fill:#000000; fill-opacity:0.0; 
stroke:#000000; stroke-width:118.11; stroke-opacity:1; 
stroke-linecap:round; stroke-linejoin:round;">
<path d="M40305 24165
L40233 24165
" />
<path d="M40233 24165
L39780 24617
" />
<path d="M39780 24617
L39780 25715
" />
</g>
<g style="fill:#000000; fill-opacity:0.0; 
stroke:#000000; stroke-width:98.4252; stroke-opacity:1; 
stroke-linecap:round; stroke-linejoin:round;">
<path d="M41030 29568
L40997 29535
" />
</g>
<g style="fill:#000000; fill-opacity:0.0; 
stroke:#000000; stroke-width:196.85; stroke-opacity:1; 
stroke-linecap:round; stroke-linejoin:round;">
<path d="M40997 29535
L39690 29535
" />
</g>
<g style="fill:#000000; fill-opacity:0.0; 
stroke:#000000; stroke-width:98.4252; stroke-opacity:1; 
stroke-linecap:round; stroke-linejoin:round;">
<path d="M39583 24722
L39583 25715
" />
<path d="M38984 24123
L39583 24722
" />
</g>
<g style="fill:#000000; fill-opacity:0.0; 
stroke:#000000; stroke-width:118.11; stroke-opacity:1; 
stroke-linecap:round; stroke-linejoin:round;">
<path d="M37221 29378
L37221 27762
" />
<path d="M35280 31320
L37221 29378
" />
<path d="M35280 34905
L35280 31320
" />
<path d="M35640 35265
L35280 34905
" />
<path d="M41145 35265
L35640 35265
" />
<path d="M41190 35310
L41145 35265
" />
</g>
<g style="fill:#000000; fill-opacity:0.0; 
stroke:#000000; stroke-width:98.4252; stroke-opacity:1; 
stroke-linecap:round; stroke-linejoin:round;">
<path d="M48857 25174
L49032 25000
" />
<path d="M49032 25000
L50984 25000
" />
<path d="M50984 25000
L52035 26051
" />
<path d="M52035 26051
L52035 33255
" />
<path d="M52035 33255
L51002 34288
" />
<path d="M51002 34288
L44024 34288
" />
<path d="M44024 34288
L43596 34716
" />
<path d="M43596 34716
L36861 34716
" />
<path d="M48857 25710
L48857 25174
" />
<path d="M38206 25715
L38206 24226
" />
<path d="M31290 24945
L31290 30645
" />
<path d="M32190 24045
L31290 24945
" />
<path d="M38025 24045
L32190 24045
" />
<path d="M38206 24226
L38025 24045
" />
<path d="M38009 24897
L38009 25715
" />
<path d="M37592 24480
L38009 24897
" />
<path d="M33160 24480
L37592 24480
" />
<path d="M32274 25366
L33160 24480
" />
<path d="M32274 31086
L32274 25366
" />
<path d="M32098 31262
L32274 31086
" />
</g>
<g style="fill:#000000; fill-opacity:0.0; 
stroke:#000000; stroke-width:118.11; stroke-opacity:1; 
stroke-linecap:round; stroke-linejoin:round;">
<path d="M36631 28624
L36631 27762
" />
<path d="M36432 28824
L36631 28624
" />
<path d="M33888 28824
L36432 28824
" />
<path d="M33848 28864
L33888 28824
" />
</g>
<g style="fill:#000000; fill-opacity:1.0; 
stroke:#000000; stroke-width:100; stroke-opacity:1; 
stroke-linecap:round; stroke-linejoin:round;">
<polyline style="fill-rule:evenodd;"
points="31078,24733
31013,24830
30990,24945
30990,30201
30844,30346
30764,30539
30764,30749
30844,30942
30991,31090
31184,31170
31394,31170
31587,31090
31608,31069
31572,31156
31572,31366
31652,31559
31799,31707
31992,31787
32202,31787
32395,31707
32543,31560
32623,31367
32623,31157
32573,31035
32573,26648
34224,26648
34224,26705
34287,26767
38205,26767
38205,26510
38223,26510
38223,26767
42142,26767
42204,26705
42204,26653
42219,26653
42219,26710
42282,26772
46200,26772
46200,26515
46218,26515
46218,26772
50137,26772
50199,26710
50199,26653
50161,26561
50091,26490
49999,26452
46281,26452
46218,26515
46200,26515
46138,26452
42419,26452
42327,26490
42257,26561
42219,26653
42204,26653
42204,26648
42166,26556
42096,26485
42004,26447
38286,26447
38223,26510
38205,26510
38143,26447
34424,26447
34332,26485
34262,26556
34224,26648
32573,26648
32573,25489
33283,24779
37468,24779
37709,25021
37709,25038
37654,25027
37576,25027
37520,25037
37507,25032
37490,25032
37467,25055
37418,25087
37366,25051
37347,25032
37329,25032
37315,25038
37261,25027
37182,25027
37121,25039
37064,25027
36985,25027
36924,25039
36867,25027
36788,25027
36727,25039
36670,25027
36591,25027
36530,25039
36473,25027
36395,25027
36333,25039
36276,25027
36198,25027
36136,25039
36080,25027
36001,25027
35946,25037
35932,25032
35915,25032
35892,25055
35843,25087
35791,25051
35772,25032
35754,25032
35740,25038
35686,25027
35607,25027
35546,25039
35489,25027
35410,25027
35318,25044
35233,25099
35175,25183
35155,25282
35155,26148
35173,26241
35228,26326
35311,26383
35410,26403
35489,26403
35550,26391
35607,26403
35686,26403
35741,26393
35754,26398
35772,26398
35795,26375
35844,26343
35896,26379
35915,26398
35932,26398
35947,26392
36001,26403
36080,26403
36141,26391
36198,26403
36276,26403
36338,26391
36395,26403
36473,26403
36534,26391
36591,26403
36670,26403
36731,26391
36788,26403
36867,26403
36928,26391
36985,26403
37064,26403
37125,26391
37182,26403
37261,26403
37316,26393
37329,26398
37347,26398
37370,26375
37419,26343
37470,26379
37490,26398
37507,26398
37522,26392
37576,26403
37654,26403
37716,26391
37772,26403
37851,26403
37912,26391
37969,26403
38048,26403
38109,26391
38166,26403
38245,26403
38306,26391
38363,26403
38442,26403
38503,26391
38560,26403
38639,26403
38700,26391
38757,26403
38835,26403
38897,26391
38954,26403
39032,26403
39094,26391
39150,26403
39229,26403
39284,26393
39298,26398
39315,26398
39338,26375
39387,26343
39439,26379
39458,26398
39476,26398
39490,26392
39544,26403
39623,26403
39684,26391
39741,26403
39820,26403
39881,26391
39938,26403
40017,26403
40078,26391
40135,26403
40213,26403
40269,26393
40282,26398
40299,26398
40322,26375
40371,26343
40423,26379
40442,26398
40460,26398
40475,26392
40528,26403
40607,26403
40668,26391
40725,26403
40804,26403
40865,26391
40922,26403
41001,26403
41062,26391
41119,26403
41198,26403
41290,26386
41375,26331
41432,26247
41453,26148
41453,25282
41435,25189
41380,25104
41297,25047
41198,25027
41119,25027
41058,25039
41001,25027
40922,25027
40861,25039
40804,25027
40725,25027
40664,25039
40607,25027
40528,25027
40473,25037
40460,25032
40442,25032
40419,25055
40370,25087
40319,25051
40299,25032
40282,25032
40267,25038
40213,25027
40135,25027
40089,25036
40089,24745
40160,24674
40199,24690
40409,24690
40602,24610
40750,24463
40830,24270
40830,24060
40764,23901
46019,23901
45993,23962
45993,24172
46073,24365
46220,24513
46413,24593
46623,24593
46816,24513
46919,24411
47099,24411
47377,24689
47377,25032
47375,25033
47322,25022
47243,25022
47182,25034
47125,25022
47046,25022
46991,25032
46978,25027
46960,25027
46937,25050
46888,25082
46836,25046
46817,25027
46799,25027
46785,25033
46731,25022
46652,25022
46591,25034
46534,25022
46455,25022
46400,25032
46387,25027
46369,25027
46346,25050
46297,25082
46246,25046
46226,25027
46209,25027
46194,25033
46140,25022
46062,25022
46000,25034
45944,25022
45865,25022
45810,25032
45796,25027
45779,25027
45756,25050
45707,25082
45655,25046
45636,25027
45618,25027
45604,25033
45550,25022
45471,25022
45410,25034
45353,25022
45274,25022
45219,25032
45206,25027
45188,25027
45165,25050
45116,25082
45065,25046
45045,25027
45028,25027
45013,25033
44959,25022
44881,25022
44819,25034
44762,25022
44684,25022
44629,25032
44615,25027
44598,25027
44575,25050
44526,25082
44474,25046
44455,25027
44437,25027
44423,25033
44369,25022
44290,25022
44229,25034
44172,25022
44093,25022
44038,25032
44025,25027
44007,25027
43984,25050
43935,25082
43884,25046
43864,25027
43847,25027
43832,25033
43778,25022
43699,25022
43638,25034
43581,25022
43503,25022
43441,25034
43385,25022
43306,25022
43213,25039
43128,25094
43071,25178
43051,25277
43051,26143
43068,26236
43123,26321
43207,26378
43306,26398
43385,26398
43446,26386
43503,26398
43581,26398
43643,26386
43699,26398
43778,26398
43833,26388
43847,26393
43864,26393
43887,26370
43936,26338
43988,26374
44007,26393
44025,26393
44039,26387
44093,26398
44172,26398
44233,26386
44290,26398
44369,26398
44424,26388
44437,26393
44455,26393
44478,26370
44527,26338
44578,26374
44598,26393
44615,26393
44630,26387
44684,26398
44762,26398
44824,26386
44881,26398
44959,26398
45014,26388
45028,26393
45045,26393
45068,26370
45117,26338
45169,26374
45188,26393
45206,26393
45220,26387
45274,26398
45353,26398
45414,26386
45471,26398
45550,26398
45605,26388
45618,26393
45636,26393
45659,26370
45708,26338
45760,26374
45779,26393
45796,26393
45811,26387
45865,26398
45944,26398
46005,26386
46062,26398
46140,26398
46196,26388
46209,26393
46226,26393
46249,26370
46298,26338
46350,26374
46369,26393
46387,26393
46402,26387
46455,26398
46534,26398
46595,26386
46652,26398
46731,26398
46786,26388
46799,26393
46817,26393
46840,26370
46889,26338
46941,26374
46960,26393
46978,26393
46992,26387
47046,26398
47125,26398
47186,26386
47243,26398
47322,26398
47377,26388
47390,26393
47407,26393
47430,26370
47480,26338
47531,26374
47551,26393
47568,26393
47583,26387
47636,26398
47715,26398
47776,26386
47833,26398
47912,26398
47967,26388
47980,26393
47998,26393
48021,26370
48070,26338
48122,26374
48141,26393
48159,26393
48173,26387
48227,26398
48306,26398
48367,26386
48424,26398
48503,26398
48558,26388
48571,26393
48589,26393
48612,26370
48661,26338
48712,26374
48732,26393
48749,26393
48764,26387
48818,26398
48896,26398
48958,26386
49014,26398
49093,26398
49186,26381
49271,26326
49328,26242
49348,26143
49348,26009
50644,26009
51010,26375
51010,32881
50216,33675
49963,33675
50099,33540
50179,33347
50179,33137
50099,32944
49952,32796
49759,32716
49639,32716
49702,32674
49856,32520
49856,32520
49931,32407
49936,32385
49958,32274
49958,32273
49958,30556
50055,30460
50135,30267
50135,30057
50055,29864
49908,29716
49715,29636
49505,29636
49312,29716
49164,29863
49084,30056
49084,30266
49094,30291
49033,30229
48840,30149
48630,30149
48437,30229
48289,30376
48209,30569
48209,30671
38415,30671
38281,30698
38168,30773
38168,30773
37292,31649
37155,31649
36962,31729
36814,31876
36734,32069
36734,32279
36814,32472
36961,32620
37154,32700
37364,32700
37557,32620
37705,32473
37785,32280
37785,32142
37966,31960
38010,32065
38157,32213
38350,32293
38560,32293
38753,32213
38850,32116
43670,32116
43639,32146
43559,32339
43559,32549
43639,32742
43786,32890
43800,32896
43708,32987
43628,33180
43628,33390
43708,33583
43800,33675
37283,33675
37138,33529
36945,33449
36735,33449
36542,33529
36394,33676
36314,33869
36314,34079
36394,34272
36477,34355
36415,34417
36335,34610
36335,34820
36391,34955
35768,34955
35589,34776
35589,31448
37397,29639
39164,29639
39244,29832
39391,29980
39584,30060
39794,30060
39987,29980
40084,29883
40602,29883
40731,30013
40924,30093
41134,30093
41327,30013
41475,29866
41555,29673
41555,29463
41475,29270
41328,29122
41135,29042
40925,29042
40732,29122
40668,29186
40084,29186
39988,29089
39795,29009
39585,29009
39392,29089
39244,29236
39164,29429
39164,29639
37397,29639
37440,29596
37507,29496
37507,29496
37530,29378
37530,28441
37576,28450
37654,28450
37716,28439
37772,28450
37851,28450
37912,28439
37969,28450
38048,28450
38109,28439
38166,28450
38245,28450
38306,28439
38363,28450
38442,28450
38503,28439
38560,28450
38639,28450
38700,28439
38757,28450
38835,28450
38897,28439
38954,28450
39032,28450
39094,28439
39150,28450
39229,28450
39284,28440
39298,28445
39315,28445
39338,28422
39387,28391
39439,28426
39458,28445
39476,28445
39490,28439
39544,28450
39623,28450
39684,28439
39741,28450
39820,28450
39881,28439
39938,28450
40017,28450
40078,28439
40135,28450
40213,28450
40269,28440
40282,28445
40299,28445
40322,28422
40371,28391
40423,28426
40442,28445
40460,28445
40475,28439
40528,28450
40607,28450
40668,28439
40725,28450
40804,28450
40865,28439
40922,28450
41001,28450
41062,28439
41119,28450
41198,28450
41290,28433
41375,28378
41432,28295
41453,28195
41453,27329
41435,27237
41380,27151
41312,27105
42004,27105
42096,27067
42166,26997
42204,26905
42204,26853
42219,26853
42219,26910
42257,27002
42327,27072
42419,27110
43177,27110
43128,27141
43071,27225
43051,27324
43051,28190
43068,28283
43123,28368
43207,28425
43306,28445
43385,28445
43446,28434
43503,28445
43581,28445
43643,28434
43699,28445
43778,28445
43833,28435
43847,28440
43864,28440
43887,28417
43936,28386
43988,28421
44007,28440
44025,28440
44039,28434
44093,28445
44172,28445
44233,28434
44290,28445
44369,28445
44424,28435
44437,28440
44455,28440
44478,28417
44527,28386
44578,28421
44598,28440
44615,28440
44630,28434
44684,28445
44762,28445
44824,28434
44881,28445
44959,28445
45014,28435
45028,28440
45045,28440
45068,28417
45117,28386
45169,28421
45188,28440
45206,28440
45220,28434
45274,28445
45353,28445
45414,28434
45471,28445
45550,28445
45605,28435
45618,28440
45636,28440
45659,28417
45708,28386
45760,28421
45779,28440
45796,28440
45811,28434
45865,28445
45944,28445
46005,28434
46062,28445
46140,28445
46196,28435
46209,28440
46226,28440
46249,28417
46298,28386
46350,28421
46369,28440
46387,28440
46402,28434
46455,28445
46534,28445
46595,28434
46652,28445
46731,28445
46786,28435
46799,28440
46817,28440
46840,28417
46889,28386
46941,28421
46960,28440
46978,28440
46992,28434
47046,28445
47125,28445
47186,28434
47243,28445
47322,28445
47377,28435
47390,28440
47407,28440
47430,28417
47480,28386
47531,28421
47551,28440
47568,28440
47583,28434
47636,28445
47715,28445
47776,28434
47833,28445
47912,28445
47967,28435
47980,28440
47998,28440
48021,28417
48070,28386
48122,28421
48141,28440
48159,28440
48173,28434
48227,28445
48306,28445
48367,28434
48424,28445
48503,28445
48558,28435
48571,28440
48589,28440
48612,28417
48661,28386
48712,28421
48732,28440
48749,28440
48764,28434
48818,28445
48896,28445
48958,28434
49014,28445
49093,28445
49186,28428
49271,28373
49328,28290
49348,28190
49348,27324
49331,27232
49276,27146
49222,27110
49999,27110
50091,27072
50161,27002
50199,26910
50199,26853
50137,26790
46218,26790
46218,26798
46200,26798
46200,26790
42282,26790
42219,26853
42204,26853
42204,26848
42142,26785
38223,26785
38223,26793
38205,26793
38205,26785
34287,26785
34224,26848
34224,26905
34262,26997
34332,27067
34424,27105
35297,27105
35233,27146
35175,27230
35155,27329
35155,28195
35173,28288
35228,28373
35311,28430
35410,28450
35489,28450
35550,28439
35607,28450
35686,28450
35741,28440
35754,28445
35772,28445
35795,28422
35844,28391
35896,28426
35915,28445
35932,28445
35947,28439
36001,28450
36080,28450
36141,28439
36198,28450
36276,28450
36322,28442
36322,28496
36303,28514
34242,28514
34146,28418
33953,28338
33743,28338
33550,28418
33402,28565
33322,28758
33322,28968
33402,29161
33549,29309
33742,29389
33952,29389
34145,29309
34293,29162
34305,29133
36432,29133
36550,29109
36650,29042
36849,28843
36912,28749
36912,29250
35061,31101
34994,31201
34994,31201
34970,31320
34970,34905
34994,35023
35061,35123
35421,35483
35521,35550
35640,35574
40730,35574
40744,35607
40891,35755
41084,35835
41294,35835
41487,35755
41635,35608
41715,35415
41715,35205
41636,35015
43596,35015
43710,34992
43807,34927
44147,34587
51002,34587
51116,34564
51213,34499
52246,33466
52311,33369
52334,33255
52334,26051
52311,25936
52246,25839
51274,24867
51504,24867
52588,25951
52588,30928
52442,31073
52362,31266
52362,31476
52442,31669
52589,31817
52782,31897
52992,31897
53185,31817
53333,31670
53413,31477
53413,31307
53563,31369
53773,31369
53966,31289
54114,31142
54194,30949
54194,30739
54114,30546
53968,30399
53968,26149
53945,26034
53880,25937
53314,25371
54631,25371
54765,25694
55012,25942
55336,26076
55686,26076
56009,25943
56257,25695
56391,25372
56391,25022
56258,24699
56010,24451
55687,24317
55337,24316
55014,24450
54766,24697
54632,25021
54631,25371
53314,25371
52019,24076
51922,24011
51808,23988
48880,23988
48868,23991
48831,23901
56807,23901
56807,39090
27838,39090
27838,37393
28159,37393
28159,38897
40160,38897
40160,37969
41442,37969
41576,38293
41823,38540
42147,38675
42497,38675
42820,38541
43068,38294
43202,37971
43202,37621
43122,37427
44863,37427
44863,38931
55656,38931
55656,37427
44863,37427
43122,37427
43069,37297
42821,37049
42498,36915
42148,36915
41825,37048
41577,37296
41443,37619
41442,37969
40160,37969
40160,37393
28159,37393
27838,37393
27838,25371
28253,25371
28387,25694
28634,25942
28958,26076
29308,26076
29631,25943
29879,25695
30013,25372
30013,25022
29880,24699
29632,24451
29309,24317
28959,24316
28636,24450
28388,24697
28254,25021
28253,25371
27838,25371
27838,23901
31910,23901
31078,24733
" /> 
</g>
<g style="fill:#FFFFFF; fill-opacity:1.0; 
stroke:#FFFFFF; stroke-width:100; stroke-opacity:1; 
stroke-linecap:round; stroke-linejoin:round;">
</g>
<g style="fill:#FFFFFF; fill-opacity:1.0; 
stroke:#FFFFFF; stroke-width:0; stroke-opacity:1; 
stroke-linecap:round; stroke-linejoin:round;">
<circle cx="40020" cy="36525" r="68.8976" /> 
</g>
<g style="fill:#FFFFFF; fill-opacity:1.0; 
stroke:#FFFFFF; stroke-width:39.3701; stroke-opacity:1; 
stroke-linecap:round; stroke-linejoin:round;">
</g>
<g style="fill:#FFFFFF; fill-opacity:1.0; 
stroke:#FFFFFF; stroke-width:0; stroke-opacity:1; 
stroke-linecap:round; stroke-linejoin:round;">
<circle cx="46485" cy="34770" r="68.8976" /> 
</g>
<g style="fill:#FFFFFF; fill-opacity:1.0; 
stroke:#FFFFFF; stroke-width:39.3701; stroke-opacity:1; 
stroke-linecap:round; stroke-linejoin:round;">
</g>
<g style="fill:#FFFFFF; fill-opacity:1.0; 
stroke:#FFFFFF; stroke-width:0; stroke-opacity:1; 
stroke-linecap:round; stroke-linejoin:round;">
<circle cx="48345" cy="24101" r="68.8976" /> 
</g>
<g style="fill:#FFFFFF; fill-opacity:1.0; 
stroke:#FFFFFF; stroke-width:39.3701; stroke-opacity:1; 
stroke-linecap:round; stroke-linejoin:round;">
</g>
<g style="fill:#FFFFFF; fill-opacity:1.0; 
stroke:#FFFFFF; stroke-width:0; stroke-opacity:1; 
stroke-linecap:round; stroke-linejoin:round;">
<circle cx="49610" cy="30162" r="68.8976" /> 
</g>
<g style="fill:#FFFFFF; fill-opacity:1.0; 
stroke:#FFFFFF; stroke-width:39.3701; stroke-opacity:1; 
stroke-linecap:round; stroke-linejoin:round;">
</g>
<g style="fill:#FFFFFF; fill-opacity:1.0; 
stroke:#FFFFFF; stroke-width:0; stroke-opacity:1; 
stroke-linecap:round; stroke-linejoin:round;">
<circle cx="44085" cy="32445" r="68.8976" /> 
</g>
<g style="fill:#FFFFFF; fill-opacity:1.0; 
stroke:#FFFFFF; stroke-width:39.3701; stroke-opacity:1; 
stroke-linecap:round; stroke-linejoin:round;">
</g>
<g style="fill:#FFFFFF; fill-opacity:1.0; 
stroke:#FFFFFF; stroke-width:0; stroke-opacity:1; 
stroke-linecap:round; stroke-linejoin:round;">
<circle cx="46519" cy="24068" r="68.8976" /> 
</g>
<g style="fill:#FFFFFF; fill-opacity:1.0; 
stroke:#FFFFFF; stroke-width:39.3701; stroke-opacity:1; 
stroke-linecap:round; stroke-linejoin:round;">
</g>
<g style="fill:#FFFFFF; fill-opacity:1.0; 
stroke:#FFFFFF; stroke-width:0; stroke-opacity:1; 
stroke-linecap:round; stroke-linejoin:round;">
<circle cx="49654" cy="33242" r="68.8976" /> 
</g>
<g style="fill:#FFFFFF; fill-opacity:1.0; 
stroke:#FFFFFF; stroke-width:39.3701; stroke-opacity:1; 
stroke-linecap:round; stroke-linejoin:round;">
</g>
<g style="fill:#FFFFFF; fill-opacity:1.0; 
stroke:#FFFFFF; stroke-width:0; stroke-opacity:1; 
stroke-linecap:round; stroke-linejoin:round;">
<circle cx="44154" cy="33286" r="68.8976" /> 
</g>
<g style="fill:#FFFFFF; fill-opacity:1.0; 
stroke:#FFFFFF; stroke-width:39.3701; stroke-opacity:1; 
stroke-linecap:round; stroke-linejoin:round;">
</g>
<g style="fill:#FFFFFF; fill-opacity:1.0; 
stroke:#FFFFFF; stroke-width:0; stroke-opacity:1; 
stroke-linecap:round; stroke-linejoin:round;">
<circle cx="36840" cy="33975" r="68.8976" /> 
</g>
<g style="fill:#FFFFFF; fill-opacity:1.0; 
stroke:#FFFFFF; stroke-width:39.3701; stroke-opacity:1; 
stroke-linecap:round; stroke-linejoin:round;">
</g>
<g style="fill:#FFFFFF; fill-opacity:1.0; 
stroke:#FFFFFF; stroke-width:0; stroke-opacity:1; 
stroke-linecap:round; stroke-linejoin:round;">
<circle cx="38456" cy="31768" r="68.8976" /> 
</g>
<g style="fill:#FFFFFF; fill-opacity:1.0; 
stroke:#FFFFFF; stroke-width:39.3701; stroke-opacity:1; 
stroke-linecap:round; stroke-linejoin:round;">
</g>
<g style="fill:#FFFFFF; fill-opacity:1.0; 
stroke:#FFFFFF; stroke-width:0; stroke-opacity:1; 
stroke-linecap:round; stroke-linejoin:round;">
<circle cx="48650" cy="31465" r="68.8976" /> 
</g>
<g style="fill:#FFFFFF; fill-opacity:1.0; 
stroke:#FFFFFF; stroke-width:39.3701; stroke-opacity:1; 
stroke-linecap:round; stroke-linejoin:round;">
</g>
<g style="fill:#FFFFFF; fill-opacity:1.0; 
stroke:#FFFFFF; stroke-width:0; stroke-opacity:1; 
stroke-linecap:round; stroke-linejoin:round;">
<circle cx="52888" cy="31372" r="68.8976" /> 
</g>
<g style="fill:#FFFFFF; fill-opacity:1.0; 
stroke:#FFFFFF; stroke-width:39.3701; stroke-opacity:1; 
stroke-linecap:round; stroke-linejoin:round;">
</g>
<g style="fill:#FFFFFF; fill-opacity:1.0; 
stroke:#FFFFFF; stroke-width:0; stroke-opacity:1; 
stroke-linecap:round; stroke-linejoin:round;">
<circle cx="37260" cy="32175" r="68.8976" /> 
</g>
<g style="fill:#FFFFFF; fill-opacity:1.0; 
stroke:#FFFFFF; stroke-width:39.3701; stroke-opacity:1; 
stroke-linecap:round; stroke-linejoin:round;">
</g>
<g style="fill:#FFFFFF; fill-opacity:1.0; 
stroke:#FFFFFF; stroke-width:0; stroke-opacity:1; 
stroke-linecap:round; stroke-linejoin:round;">
<circle cx="48735" cy="30675" r="68.8976" /> 
</g>
<g style="fill:#FFFFFF; fill-opacity:1.0; 
stroke:#FFFFFF; stroke-width:39.3701; stroke-opacity:1; 
stroke-linecap:round; stroke-linejoin:round;">
</g>
<g style="fill:#FFFFFF; fill-opacity:1.0; 
stroke:#FFFFFF; stroke-width:0; stroke-opacity:1; 
stroke-linecap:round; stroke-linejoin:round;">
<circle cx="53669" cy="30844" r="68.8976" /> 
</g>
<g style="fill:#FFFFFF; fill-opacity:1.0; 
stroke:#FFFFFF; stroke-width:39.3701; stroke-opacity:1; 
stroke-linecap:round; stroke-linejoin:round;">
</g>
<g style="fill:#FFFFFF; fill-opacity:1.0; 
stroke:#FFFFFF; stroke-width:0; stroke-opacity:1; 
stroke-linecap:round; stroke-linejoin:round;">
<circle cx="40305" cy="24165" r="68.8976" /> 
</g>
<g style="fill:#FFFFFF; fill-opacity:1.0; 
stroke:#FFFFFF; stroke-width:39.3701; stroke-opacity:1; 
stroke-linecap:round; stroke-linejoin:round;">
</g>
<g style="fill:#FFFFFF; fill-opacity:1.0; 
stroke:#FFFFFF; stroke-width:0; stroke-opacity:1; 
stroke-linecap:round; stroke-linejoin:round;">
<circle cx="39690" cy="29535" r="68.8976" /> 
</g>
<g style="fill:#FFFFFF; fill-opacity:1.0; 
stroke:#FFFFFF; stroke-width:39.3701; stroke-opacity:1; 
stroke-linecap:round; stroke-linejoin:round;">
</g>
<g style="fill:#FFFFFF; fill-opacity:1.0; 
stroke:#FFFFFF; stroke-width:0; stroke-opacity:1; 
stroke-linecap:round; stroke-linejoin:round;">
<circle cx="41030" cy="29568" r="68.8976" /> 
</g>
<g style="fill:#FFFFFF; fill-opacity:1.0; 
stroke:#FFFFFF; stroke-width:39.3701; stroke-opacity:1; 
stroke-linecap:round; stroke-linejoin:round;">
</g>
<g style="fill:#FFFFFF; fill-opacity:1.0; 
stroke:#FFFFFF; stroke-width:0; stroke-opacity:1; 
stroke-linecap:round; stroke-linejoin:round;">
<circle cx="38984" cy="24123" r="68.8976" /> 
</g>
<g style="fill:#FFFFFF; fill-opacity:1.0; 
stroke:#FFFFFF; stroke-width:39.3701; stroke-opacity:1; 
stroke-linecap:round; stroke-linejoin:round;">
</g>
<g style="fill:#FFFFFF; fill-opacity:1.0; 
stroke:#FFFFFF; stroke-width:0; stroke-opacity:1; 
stroke-linecap:round; stroke-linejoin:round;">
<circle cx="41190" cy="35310" r="68.8976" /> 
</g>
<g style="fill:#FFFFFF; fill-opacity:1.0; 
stroke:#FFFFFF; stroke-width:39.3701; stroke-opacity:1; 
stroke-linecap:round; stroke-linejoin:round;">
</g>
<g style="fill:#FFFFFF; fill-opacity:1.0; 
stroke:#FFFFFF; stroke-width:0; stroke-opacity:1; 
stroke-linecap:round; stroke-linejoin:round;">
<circle cx="36861" cy="34716" r="68.8976" /> 
</g>
<g style="fill:#FFFFFF; fill-opacity:1.0; 
stroke:#FFFFFF; stroke-width:39.3701; stroke-opacity:1; 
stroke-linecap:round; stroke-linejoin:round;">
</g>
<g style="fill:#FFFFFF; fill-opacity:1.0; 
stroke:#FFFFFF; stroke-width:0; stroke-opacity:1; 
stroke-linecap:round; stroke-linejoin:round;">
<circle cx="31290" cy="30645" r="68.8976" /> 
</g>
<g style="fill:#FFFFFF; fill-opacity:1.0; 
stroke:#FFFFFF; stroke-width:39.3701; stroke-opacity:1; 
stroke-linecap:round; stroke-linejoin:round;">
</g>
<g style="fill:#FFFFFF; fill-opacity:1.0; 
stroke:#FFFFFF; stroke-width:0; stroke-opacity:1; 
stroke-linecap:round; stroke-linejoin:round;">
<circle cx="32098" cy="31262" r="68.8976" /> 
</g>
<g style="fill:#FFFFFF; fill-opacity:1.0; 
stroke:#FFFFFF; stroke-width:39.3701; stroke-opacity:1; 
stroke-linecap:round; stroke-linejoin:round;">
</g>
<g style="fill:#FFFFFF; fill-opacity:1.0; 
stroke:#FFFFFF; stroke-width:0; stroke-opacity:1; 
stroke-linecap:round; stroke-linejoin:round;">
<circle cx="33848" cy="28864" r="68.8976" /> 
</g>
<g style="fill:#FFFFFF; fill-opacity:1.0; 
stroke:#FFFFFF; stroke-width:39.3701; stroke-opacity:1; 
stroke-linecap:round; stroke-linejoin:round;">
</g>
<g style="fill:#FFFFFF; fill-opacity:1.0; 
stroke:#FFFFFF; stroke-width:0; stroke-opacity:1; 
stroke-linecap:round; stroke-linejoin:round;">
<circle cx="29133.9" cy="25196.9" r="68.8976" /> 
</g>
<g style="fill:#FFFFFF; fill-opacity:1.0; 
stroke:#FFFFFF; stroke-width:39.3701; stroke-opacity:1; 
stroke-linecap:round; stroke-linejoin:round;">
</g>
<g style="fill:#FFFFFF; fill-opacity:1.0; 
stroke:#FFFFFF; stroke-width:0; stroke-opacity:1; 
stroke-linecap:round; stroke-linejoin:round;">
<circle cx="42322.8" cy="37795.3" r="68.8976" /> 
</g>
<g style="fill:#FFFFFF; fill-opacity:1.0; 
stroke:#FFFFFF; stroke-width:39.3701; stroke-opacity:1; 
stroke-linecap:round; stroke-linejoin:round;">
</g>
<g style="fill:#FFFFFF; fill-opacity:1.0; 
stroke:#FFFFFF; stroke-width:0; stroke-opacity:1; 
stroke-linecap:round; stroke-linejoin:round;">
<circle cx="55511.8" cy="25196.9" r="68.8976" /> 
</g>
<g style="fill:#FFFFFF; fill-opacity:1.0; 
stroke:#FFFFFF; stroke-width:39.3701; stroke-opacity:1; 
stroke-linecap:round; stroke-linejoin:round;">
</g>
<g style="fill:#FFFFFF; fill-opacity:1.0; 
stroke:#FFFFFF; stroke-width:0; stroke-opacity:1; 
stroke-linecap:round; stroke-linejoin:round;">
<circle cx="23622" cy="19685" r="68.8976" /> 
</g>
<g style="fill:#FFFFFF; fill-opacity:1.0; 
stroke:#FFFFFF; stroke-width:39.3701; stroke-opacity:1; 
stroke-linecap:round; stroke-linejoin:round;">
</g>
<g style="fill:#FFFFFF; fill-opacity:1.0; 
stroke:#FFFFFF; stroke-width:0; stroke-opacity:1; 
stroke-linecap:round; stroke-linejoin:round;">
<circle cx="59055.1" cy="19685" r="68.8976" /> 
</g>
<g style="fill:#FFFFFF; fill-opacity:1.0; 
stroke:#FFFFFF; stroke-width:39.3701; stroke-opacity:1; 
stroke-linecap:round; stroke-linejoin:round;">
</g>
<g style="fill:#FFFFFF; fill-opacity:1.0; 
stroke:#FFFFFF; stroke-width:0; stroke-opacity:1; 
stroke-linecap:round; stroke-linejoin:round;">
<circle cx="41338.6" cy="45275.6" r="68.8976" /> 
</g>
<g style="fill:#FFFFFF; fill-opacity:1.0; 
stroke:#FFFFFF; stroke-width:39.3701; stroke-opacity:1; 
stroke-linecap:round; stroke-linejoin:round;">
</g>
<g style="fill:#000000; fill-opacity:1.0; 
stroke:#000000; stroke-width:39.3701; stroke-opacity:1; 
stroke-linecap:round; stroke-linejoin:round;">
</g> 
</svg>
