<?xml version="1.0" standalone="no"?>
 <!DOCTYPE svg PUBLIC "-//W3C//DTD SVG 1.1//EN" 
 "http://www.w3.org/Graphics/SVG/1.1/DTD/svg11.dtd"> 
<svg xmlns="http://www.w3.org/2000/svg" version="1.1" 
    width="29.7002cm" height="21.0007cm" viewBox="0 0 116930 82680 ">
<title>SVG Picture created as Puente_OV5680X1-F.Cu.svg date 2018/04/16 18:32:28 </title>
  <desc>Picture generated by PCBNEW </desc>
<g style="fill:#000000; fill-opacity:1;stroke:#000000; stroke-opacity:1;
stroke-linecap:round; stroke-linejoin:round; "
 transform="translate(0 0) scale(1 1)">
</g>
<g style="fill:#000000; fill-opacity:0.0; 
stroke:#000000; stroke-width:-0.000393701; stroke-opacity:1; 
stroke-linecap:round; stroke-linejoin:round;">
</g>
<g style="fill:#000000; fill-opacity:0.0; 
stroke:#000000; stroke-width:118.11; stroke-opacity:1; 
stroke-linecap:round; stroke-linejoin:round;">
<path d="M63830 38417
L63992 38135
" />
<path d="M64168 38417
L64094 37826
L63869 37826
L63816 37854
L63792 37882
L63770 37939
L63781 38023
L63816 38079
L63848 38107
L63908 38135
L64132 38135
" />
<path d="M63349 38389
L63408 38417
L63521 38417
L63574 38389
L63595 38332
L63567 38107
L63531 38051
L63472 38023
L63359 38023
L63306 38051
L63285 38107
L63292 38164
L63581 38220
" />
<path d="M63078 38023
L62987 38417
L62797 38023
" />
<path d="M62132 37882
L62101 37854
L62041 37826
L61900 37826
L61848 37854
L61823 37882
L61802 37939
L61809 37995
L61848 38079
L62227 38417
L61862 38417
" />
<path d="M61602 38360
L61577 38389
L61609 38417
L61633 38389
L61602 38360
L61609 38417
" />
<path d="M61141 37826
L61085 37826
L61032 37854
L61007 37882
L60986 37939
L60972 38051
L60990 38192
L61032 38304
L61067 38360
L61099 38389
L61159 38417
L61215 38417
L61268 38389
L61292 38360
L61313 38304
L61327 38192
L61310 38051
L61268 37939
L61232 37882
L61201 37854
L61141 37826
" />
<path d="M72074 38453
L72074 37862
L71877 38284
L71680 37862
L71680 38453
" />
<path d="M71315 38453
L71371 38425
L71399 38396
L71427 38340
L71427 38171
L71399 38115
L71371 38087
L71315 38059
L71230 38059
L71174 38087
L71146 38115
L71118 38171
L71118 38340
L71146 38396
L71174 38425
L71230 38453
L71315 38453
" />
<path d="M71202 37834
L71287 37918
" />
<path d="M70612 38453
L70612 37862
" />
<path d="M70612 38425
L70668 38453
L70780 38453
L70837 38425
L70865 38396
L70893 38340
L70893 38171
L70865 38115
L70837 38087
L70780 38059
L70668 38059
L70612 38087
" />
<path d="M70077 38059
L70077 38453
" />
<path d="M70331 38059
L70331 38368
L70302 38425
L70246 38453
L70162 38453
L70106 38425
L70077 38396
" />
<path d="M69712 38453
L69768 38425
L69796 38368
L69796 37862
" />
<path d="M69403 38453
L69459 38425
L69487 38396
L69515 38340
L69515 38171
L69487 38115
L69459 38087
L69403 38059
L69318 38059
L69262 38087
L69234 38115
L69206 38171
L69206 38340
L69234 38396
L69262 38425
L69318 38453
L69403 38453
" />
<path d="M68503 38453
L68503 37862
L68278 37862
L68221 37890
L68193 37918
L68165 37975
L68165 38059
L68193 38115
L68221 38143
L68278 38171
L68503 38171
" />
<path d="M67659 38059
L67659 38453
" />
<path d="M67912 38059
L67912 38368
L67884 38425
L67828 38453
L67743 38453
L67687 38425
L67659 38396
" />
<path d="M67153 38425
L67209 38453
L67322 38453
L67378 38425
L67406 38368
L67406 38143
L67378 38087
L67322 38059
L67209 38059
L67153 38087
L67125 38143
L67125 38200
L67406 38256
" />
<path d="M66872 38059
L66872 38453
" />
<path d="M66872 38115
L66843 38087
L66787 38059
L66703 38059
L66647 38087
L66619 38143
L66619 38453
" />
<path d="M66422 38059
L66197 38059
" />
<path d="M66337 37862
L66337 38368
L66309 38425
L66253 38453
L66197 38453
" />
<path d="M65775 38425
L65831 38453
L65944 38453
L66000 38425
L66028 38368
L66028 38143
L66000 38087
L65944 38059
L65831 38059
L65775 38087
L65747 38143
L65747 38200
L66028 38256
" />
</g>
<g style="fill:#000000; fill-opacity:1.0; 
stroke:#000000; stroke-width:3.93701; stroke-opacity:1; 
stroke-linecap:round; stroke-linejoin:round;">
<polyline style="fill-rule:evenodd;"
points="65447,28287
65417,28302
65391,28329
65384,28339
65376,28352
65371,28366
65368,28385
65367,28412
65367,28448
65368,28498
65373,28535
65381,28563
65395,28584
65414,28601
65416,28602
65435,28613
65458,28618
65488,28620
65536,28620
65536,28666
65536,28692
65539,28707
65546,28717
65560,28724
65563,28726
65579,28733
65590,28738
65599,28738
65605,28733
65609,28720
65612,28699
65612,28667
65612,28623
65612,28565
65611,28548
65611,28489
65610,28451
65536,28451
65536,28483
65534,28505
65530,28519
65522,28530
65517,28535
65497,28551
65478,28552
65460,28539
65459,28539
65451,28529
65447,28515
65444,28495
65444,28463
65444,28456
65445,28412
65451,28382
65462,28363
65477,28355
65486,28354
65508,28358
65523,28371
65532,28395
65536,28431
65536,28451
65610,28451
65610,28444
65609,28409
65607,28384
65605,28366
65602,28354
65598,28344
65593,28336
65591,28333
65562,28304
65526,28287
65484,28282
65447,28287
" /> 
<polyline style="fill-rule:evenodd;"
points="64855,28291
64830,28305
64813,28320
64801,28334
64792,28353
64786,28377
64783,28409
64782,28453
64782,28485
64782,28601
64848,28630
64851,28503
64853,28456
64855,28421
64857,28397
64860,28382
64863,28372
64869,28366
64870,28365
64895,28355
64921,28359
64936,28370
64942,28377
64946,28387
64949,28402
64951,28424
64951,28458
64951,28492
64951,28536
64952,28567
64955,28587
64960,28601
64969,28609
64983,28616
65001,28623
65022,28631
65019,28494
65018,28445
65017,28409
65015,28383
65013,28365
65009,28351
65004,28341
64998,28332
64969,28303
64933,28286
64894,28282
64855,28291
" /> 
<polyline style="fill-rule:evenodd;"
points="65743,28288
65707,28307
65680,28338
65671,28357
65663,28387
65659,28424
65659,28464
65662,28504
65668,28538
65677,28563
65679,28567
65711,28599
65749,28618
65790,28624
65832,28615
65844,28610
65866,28594
65886,28573
65888,28570
65895,28557
65900,28544
65903,28526
65905,28500
65905,28462
65905,28454
65905,28451
65828,28451
65828,28487
65826,28510
65822,28525
65816,28535
65813,28539
65795,28552
65777,28551
65759,28540
65748,28528
65741,28510
65738,28482
65738,28479
65737,28428
65743,28390
65757,28366
65777,28355
65784,28354
65803,28357
65816,28367
65824,28387
65828,28419
65828,28451
65905,28451
65905,28414
65904,28387
65901,28368
65897,28353
65890,28341
65888,28339
65862,28307
65833,28289
65799,28282
65787,28282
65743,28288
" /> 
<polyline style="fill-rule:evenodd;"
points="65145,28293
65115,28313
65092,28343
65078,28380
65075,28408
65075,28420
65078,28428
65085,28436
65100,28445
65123,28456
65159,28472
65159,28472
65192,28487
65219,28501
65237,28511
65244,28516
65244,28517
65238,28529
65224,28542
65207,28552
65199,28554
65177,28547
65158,28531
65148,28512
65139,28498
65122,28483
65101,28470
65082,28462
65079,28462
65074,28468
65074,28485
65077,28508
65083,28532
65091,28554
65092,28554
65116,28589
65148,28612
65184,28623
65222,28622
65258,28607
65259,28606
65288,28580
65306,28547
65317,28503
65318,28491
65320,28432
65318,28405
65244,28405
65243,28422
65238,28427
65224,28423
65204,28415
65181,28404
65180,28403
65161,28393
65153,28386
65155,28379
65163,28370
65184,28356
65206,28355
65226,28365
65240,28384
65244,28405
65318,28405
65315,28386
65303,28349
65285,28323
65252,28297
65216,28284
65180,28283
65145,28293
" /> 
<polyline style="fill-rule:evenodd;"
points="64505,28251
64503,28282
64500,28301
64497,28309
64492,28309
64490,28308
64467,28301
64438,28301
64408,28308
64389,28318
64370,28333
64356,28349
64346,28371
64340,28399
64337,28437
64336,28488
64336,28498
64336,28606
64360,28615
64377,28621
64387,28623
64387,28623
64388,28616
64389,28596
64389,28566
64390,28528
64390,28505
64390,28460
64391,28428
64392,28406
64394,28391
64398,28382
64404,28374
64408,28371
64432,28357
64459,28356
64484,28368
64489,28372
64495,28380
64500,28390
64503,28404
64504,28425
64505,28456
64505,28498
64505,28606
64529,28615
64547,28621
64556,28623
64556,28623
64557,28616
64558,28595
64558,28563
64559,28521
64559,28472
64559,28418
64559,28207
64509,28186
64505,28251
" /> 
<polyline style="fill-rule:evenodd;"
points="64153,28303
64123,28315
64123,28315
64104,28329
64091,28345
64081,28366
64074,28394
64071,28432
64068,28483
64068,28490
64065,28599
64089,28611
64106,28619
64116,28623
64116,28623
64118,28616
64120,28597
64120,28569
64121,28546
64121,28509
64122,28486
64128,28475
64141,28474
64163,28482
64196,28498
64220,28511
64232,28522
64236,28534
64236,28535
64230,28555
64212,28567
64185,28568
64165,28568
64155,28574
64148,28587
64144,28605
64150,28615
64152,28616
64171,28622
64198,28622
64225,28619
64245,28612
64272,28589
64287,28557
64290,28532
64288,28510
64279,28491
64263,28475
64236,28459
64196,28440
64194,28439
64158,28423
64136,28409
64127,28397
64129,28385
64141,28371
64145,28368
64170,28355
64196,28355
64218,28368
64233,28391
64235,28395
64248,28417
64265,28428
64290,28438
64290,28411
64282,28372
64260,28336
64248,28324
64222,28309
64188,28302
64153,28303
" /> 
<polyline style="fill-rule:evenodd;"
points="63894,28303
63859,28316
63830,28339
63819,28355
63807,28384
63808,28405
63820,28420
63825,28422
63845,28430
63855,28428
63859,28415
63859,28408
63866,28382
63882,28364
63905,28355
63931,28357
63952,28369
63960,28375
63965,28383
63968,28395
63970,28414
63972,28442
63973,28482
63973,28495
63974,28538
63975,28569
63977,28589
63980,28601
63984,28608
63991,28613
63995,28615
64012,28621
64022,28623
64025,28616
64027,28594
64028,28558
64027,28506
64027,28498
64026,28451
64025,28417
64023,28393
64020,28376
64016,28363
64010,28353
64007,28348
63989,28328
63969,28313
63967,28312
63931,28301
63894,28303
" /> 
<polyline style="fill-rule:evenodd;"
points="63544,28364
63544,28422
63544,28466
63545,28499
63546,28523
63549,28540
63552,28552
63556,28562
63559,28568
63585,28598
63618,28616
63655,28623
63692,28617
63714,28606
63737,28587
63752,28563
63762,28533
63766,28492
63767,28462
63767,28460
63713,28460
63713,28494
63711,28517
63708,28532
63701,28542
63694,28551
63669,28566
63643,28568
63617,28555
63615,28553
63607,28544
63602,28533
63599,28516
63598,28491
63598,28463
63598,28428
63600,28404
63603,28389
63609,28378
63614,28372
63638,28357
63665,28355
63690,28367
63695,28371
63704,28380
63709,28391
63712,28408
63713,28433
63713,28460
63767,28460
63765,28414
63759,28377
63747,28350
63728,28329
63714,28318
63687,28306
63657,28300
63629,28302
63613,28308
63607,28310
63603,28303
63600,28286
63598,28261
63595,28232
63592,28215
63586,28205
63575,28199
63569,28196
63544,28186
63544,28364
" /> 
<polyline style="fill-rule:evenodd;"
points="63231,28308
63230,28328
63229,28359
63229,28397
63228,28438
63228,28576
63253,28600
63269,28615
63284,28621
63304,28621
63312,28620
63337,28617
63358,28616
63363,28615
63380,28616
63404,28619
63414,28620
63437,28622
63452,28618
63468,28606
63473,28600
63498,28576
63498,28318
63478,28309
63461,28303
63451,28300
63449,28308
63446,28328
63444,28359
63443,28399
63442,28433
63440,28566
63422,28568
63405,28566
63397,28561
63394,28550
63392,28526
63391,28493
63390,28454
63390,28434
63390,28317
63366,28309
63349,28303
63339,28300
63339,28300
63338,28308
63337,28328
63336,28358
63335,28397
63334,28433
63332,28566
63286,28566
63284,28445
63282,28324
63259,28312
63243,28304
63233,28300
63233,28300
63231,28308
" /> 
<polyline style="fill-rule:evenodd;"
points="63038,28306
63016,28316
62998,28329
62985,28342
62977,28360
62971,28384
62968,28417
62967,28462
62967,28491
62967,28605
62986,28614
63002,28621
63009,28623
63011,28616
63012,28597
63013,28569
63013,28546
63014,28514
63015,28489
63018,28473
63020,28470
63034,28473
63055,28482
63080,28493
63103,28506
63122,28518
63130,28525
63130,28525
63130,28540
63123,28554
63111,28565
63095,28569
63080,28568
63060,28568
63049,28573
63042,28585
63041,28588
63039,28606
63046,28617
63066,28622
63087,28623
63125,28616
63145,28606
63169,28582
63182,28552
63183,28521
63172,28492
63156,28473
63139,28463
63114,28450
63084,28437
63079,28435
63046,28421
63027,28408
63021,28395
63026,28381
63036,28370
63059,28356
63085,28355
63108,28365
63125,28386
63127,28392
63140,28412
63159,28427
63182,28439
63182,28404
63181,28383
63175,28367
63162,28349
63149,28335
63129,28316
63114,28305
63097,28301
63079,28300
63038,28306
" /> 
<polyline style="fill-rule:evenodd;"
points="62769,28308
62759,28312
62738,28329
62719,28354
62707,28381
62705,28394
62712,28413
62725,28422
62740,28428
62747,28429
62751,28421
62757,28404
62760,28397
62776,28370
62799,28356
62829,28357
62832,28357
62848,28365
62859,28379
62867,28403
62872,28438
62874,28485
62875,28510
62875,28550
62875,28577
62877,28594
62880,28604
62886,28610
62894,28614
62894,28614
62910,28621
62917,28623
62918,28616
62919,28596
62920,28566
62921,28528
62921,28500
62920,28446
62918,28405
62915,28375
62908,28353
62899,28337
62885,28324
62872,28315
62840,28304
62803,28301
62769,28308
" /> 
<polyline style="fill-rule:evenodd;"
points="62503,28312
62473,28332
62458,28350
62446,28382
62445,28408
62448,28442
62526,28476
62565,28494
62590,28508
62603,28520
62605,28532
62598,28545
62590,28554
62567,28568
62541,28569
62518,28558
62501,28537
62498,28529
62484,28505
62467,28495
62444,28486
62444,28519
62446,28542
62454,28561
62470,28582
62473,28585
62492,28604
62508,28615
62528,28620
62544,28621
62574,28621
62595,28617
62608,28609
62629,28593
62643,28576
62652,28554
62657,28524
62659,28484
62659,28463
62659,28439
62612,28439
62612,28452
62610,28454
62601,28451
62582,28443
62557,28432
62551,28430
62519,28414
62502,28399
62498,28386
62507,28372
62515,28366
62542,28354
62568,28356
62590,28371
62605,28397
62610,28418
62612,28439
62659,28439
62658,28415
62654,28380
62647,28354
62635,28335
62618,28320
62611,28315
62577,28303
62539,28302
62503,28312
" /> 
<polyline style="fill-rule:evenodd;"
points="64119,25808
64078,25808
64048,25809
64027,25810
64014,25812
64007,25815
64003,25819
64002,25825
64001,25825
63999,25838
63994,25863
63987,25898
63979,25940
63971,25987
63970,25988
63962,26034
63954,26074
63947,26107
63941,26129
63938,26139
63938,26139
63928,26144
63908,26152
63882,26161
63882,26161
63850,26174
63811,26189
63775,26205
63773,26206
63714,26233
63583,26143
63543,26116
63507,26092
63476,26072
63454,26057
63442,26050
63440,26049
63431,26052
63415,26064
63389,26085
63355,26117
63320,26151
63286,26185
63256,26216
63231,26241
63213,26261
63205,26271
63204,26272
63203,26279
63207,26290
63216,26308
63231,26334
63254,26369
63284,26414
63311,26453
63335,26489
63355,26518
63369,26539
63376,26550
63377,26551
63376,26561
63369,26582
63358,26608
63354,26616
63337,26654
63319,26696
63304,26733
63293,26760
63285,26781
63280,26792
63279,26793
63270,26794
63249,26798
63218,26803
63181,26810
63140,26818
63098,26826
63058,26834
63022,26841
62994,26846
62977,26850
62973,26851
62968,26853
62965,26859
62962,26870
62961,26888
62960,26915
62959,26952
62959,27003
62959,27023
62959,27191
63000,27199
63022,27204
63055,27210
63096,27218
63139,27226
63151,27228
63191,27236
63226,27243
63253,27250
63269,27255
63272,27257
63278,27268
63287,27290
63298,27317
63300,27323
63313,27360
63330,27402
63346,27440
63346,27440
63373,27499
63194,27762
63309,27877
63344,27912
63376,27942
63403,27966
63423,27984
63435,27992
63437,27993
63447,27988
63467,27977
63495,27959
63530,27937
63567,27912
63605,27886
63639,27864
63666,27847
63685,27835
63694,27831
63704,27834
63724,27844
63749,27856
63752,27858
63786,27875
63809,27883
63823,27883
63831,27875
63831,27875
63834,27866
63843,27844
63857,27812
63874,27770
63894,27721
63917,27666
63939,27613
63963,27554
63986,27499
64005,27451
64021,27410
64034,27379
64041,27358
64044,27350
64038,27342
64022,27328
64002,27312
63943,27264
63897,27208
63865,27146
63846,27080
63842,27010
63845,26977
63861,26910
63889,26851
63928,26800
63974,26758
64027,26726
64085,26704
64146,26693
64209,26693
64271,26705
64330,26729
64386,26767
64410,26788
64454,26843
64485,26903
64503,26966
64508,27031
64499,27095
64478,27158
64445,27217
64399,27270
64347,27312
64326,27328
64311,27342
64305,27350
64308,27360
64316,27381
64329,27413
64346,27455
64365,27504
64388,27559
64410,27613
64434,27672
64457,27726
64477,27775
64494,27816
64507,27847
64515,27868
64519,27875
64526,27883
64540,27883
64563,27875
64597,27858
64597,27858
64623,27845
64643,27835
64655,27831
64655,27831
64664,27835
64683,27847
64711,27864
64744,27887
64782,27912
64820,27937
64854,27960
64883,27977
64903,27989
64912,27993
64921,27987
64939,27973
64964,27950
64995,27922
65029,27888
65040,27877
65155,27762
65067,27634
65041,27594
65017,27559
64998,27530
64986,27508
64980,27497
64980,27497
64983,27486
64991,27465
65003,27438
65011,27419
65026,27384
65041,27348
65052,27317
65055,27308
65064,27283
65073,27264
65077,27257
65088,27253
65110,27246
65142,27239
65180,27231
65198,27228
65241,27220
65283,27212
65319,27205
65345,27200
65350,27199
65390,27191
65390,27023
65390,26968
65389,26926
65389,26896
65387,26875
65385,26862
65382,26855
65378,26852
65376,26851
65366,26849
65344,26844
65313,26838
65275,26831
65234,26823
65192,26815
65152,26807
65117,26801
65090,26796
65073,26793
65070,26793
65066,26786
65059,26768
65049,26743
65045,26733
65029,26695
65011,26652
64995,26616
64983,26589
64975,26567
64972,26553
64972,26551
64978,26542
64991,26523
65010,26495
65033,26461
65059,26422
65065,26414
65095,26368
65118,26334
65133,26308
65142,26291
65146,26279
65145,26272
65145,26272
65137,26262
65120,26244
65096,26219
65066,26188
65033,26155
65029,26151
64987,26110
64954,26080
64931,26061
64915,26051
64909,26049
64899,26055
64878,26068
64849,26087
64814,26110
64775,26137
64766,26143
64635,26233
64576,26206
64540,26190
64501,26175
64468,26162
64467,26161
64441,26152
64421,26144
64411,26139
64411,26139
64408,26130
64403,26109
64396,26077
64388,26037
64379,25992
64379,25988
64370,25942
64362,25900
64355,25864
64350,25839
64348,25825
64348,25825
64346,25820
64343,25815
64336,25812
64324,25810
64304,25809
64275,25808
64235,25808
64181,25808
64175,25808
64119,25808
" /> 
<polyline style="fill-rule:evenodd;"
points="83923,35659
83943,35743
83971,35860
83989,35934
84074,36296
84149,36641
84210,36961
84258,37250
84292,37499
84309,37702
84309,37852
84303,37902
84230,38141
84113,38333
83960,38477
83778,38567
83572,38602
83351,38576
83143,38498
83034,38439
82939,38374
82855,38297
82779,38204
82709,38088
82644,37944
82581,37767
82517,37551
82451,37292
82381,36982
82304,36618
82219,36194
82218,36192
82094,35567
81849,35567
81710,35572
81626,35585
81604,35603
81609,35643
81627,35740
81653,35888
81688,36078
81729,36302
81776,36554
81827,36825
81880,37108
81933,37395
81987,37678
82038,37949
82086,38202
82129,38428
82166,38619
82195,38768
82215,38867
82224,38909
82246,38942
82298,38960
82395,38966
82450,38967
82659,38967
82644,38867
82641,38802
82662,38773
82715,38782
82811,38828
82879,38865
83167,38991
83469,39053
83778,39050
83895,39032
84163,38950
84387,38818
84565,38638
84698,38409
84756,38247
84782,38130
84795,37995
84795,37835
84782,37644
84753,37415
84709,37140
84649,36814
84587,36497
84539,36260
84496,36046
84459,35862
84430,35718
84411,35621
84404,35579
84404,35579
84373,35573
84292,35569
84177,35567
84153,35567
83902,35567
83923,35659
" /> 
<polyline style="fill-rule:evenodd;"
points="80119,36934
80144,38300
80065,38299
80003,38285
79897,38250
79763,38197
79654,38151
79517,38093
79403,38051
79326,38028
79298,38027
79279,38072
79255,38161
79231,38273
79211,38390
79197,38491
79194,38557
79197,38571
79235,38587
79325,38621
79461,38668
79631,38726
79826,38792
79904,38818
80107,38885
80290,38946
80443,38996
80557,39034
80620,39056
80629,39059
80638,39050
80646,39012
80653,38941
80658,38833
80662,38683
80666,38486
80668,38239
80669,37936
80670,37575
80670,37320
80670,35567
80095,35567
80119,36934
" /> 
<polyline style="fill-rule:evenodd;"
points="77946,36861
77950,37151
77953,37422
77955,37667
77955,37877
77954,38045
77952,38163
77949,38224
77948,38229
77931,38265
77898,38282
77841,38276
77749,38247
77614,38192
77466,38128
77337,38072
77231,38029
77163,38004
77146,38000
77125,38030
77099,38109
77076,38209
77052,38330
77030,38435
77017,38488
77015,38512
77026,38535
77060,38560
77122,38590
77221,38629
77363,38680
77557,38746
77709,38796
77916,38865
78104,38926
78261,38976
78380,39012
78449,39031
78462,39034
78472,39021
78480,38981
78486,38907
78491,38797
78495,38646
78497,38448
78498,38200
78498,37896
78497,37533
78495,37309
78487,35584
77926,35564
77946,36861
" /> 
</g>
<g style="fill:#000000; fill-opacity:1.0; 
stroke:#000000; stroke-width:0; stroke-opacity:1; 
stroke-linecap:round; stroke-linejoin:round;">
<polyline style="fill-rule:evenodd;"
points="69688,36085
69688,36714
70476,36714
70476,36085
69688,36085
" /> 
<polyline style="fill-rule:evenodd;"
points="71263,36085
71263,36714
72051,36714
72051,36085
71263,36085
" /> 
<polyline style="fill-rule:evenodd;"
points="64526,33164
64526,32495
63738,32495
63738,33164
64526,33164
" /> 
<polyline style="fill-rule:evenodd;"
points="62951,33164
62951,32495
62163,32495
62163,33164
62951,33164
" /> 
<polyline style="fill-rule:evenodd;"
points="64421,34809
64421,34140
63633,34140
63633,34809
64421,34809
" /> 
<polyline style="fill-rule:evenodd;"
points="62846,34809
62846,34140
62058,34140
62058,34809
62846,34809
" /> 
<polyline style="fill-rule:evenodd;"
points="64456,36664
64456,35995
63668,35995
63668,36664
64456,36664
" /> 
<polyline style="fill-rule:evenodd;"
points="62881,36664
62881,35995
62093,35995
62093,36664
62881,36664
" /> 
<polyline style="fill-rule:evenodd;"
points="87698,34893
88013,34893
88013,34814
87698,34814
87698,34893
" /> 
<polyline style="fill-rule:evenodd;"
points="87698,34696
88013,34696
88013,34618
87698,34618
87698,34696
" /> 
<polyline style="fill-rule:evenodd;"
points="87698,34500
88013,34500
88013,34421
87698,34421
87698,34500
" /> 
<polyline style="fill-rule:evenodd;"
points="87698,34303
88013,34303
88013,34224
87698,34224
87698,34303
" /> 
<polyline style="fill-rule:evenodd;"
points="87698,34106
88013,34106
88013,34027
87698,34027
87698,34106
" /> 
<polyline style="fill-rule:evenodd;"
points="87698,33909
88013,33909
88013,33830
87698,33830
87698,33909
" /> 
<polyline style="fill-rule:evenodd;"
points="87698,33712
88013,33712
88013,33633
87698,33633
87698,33712
" /> 
<polyline style="fill-rule:evenodd;"
points="87698,33515
88013,33515
88013,33437
87698,33437
87698,33515
" /> 
<polyline style="fill-rule:evenodd;"
points="87698,33318
88013,33318
88013,33240
87698,33240
87698,33318
" /> 
<polyline style="fill-rule:evenodd;"
points="87698,33122
88013,33122
88013,33043
87698,33043
87698,33122
" /> 
<polyline style="fill-rule:evenodd;"
points="87698,32925
88013,32925
88013,32846
87698,32846
87698,32925
" /> 
<polyline style="fill-rule:evenodd;"
points="87698,32728
88013,32728
88013,32649
87698,32649
87698,32728
" /> 
<polyline style="fill-rule:evenodd;"
points="87698,32531
88013,32531
88013,32452
87698,32452
87698,32531
" /> 
<polyline style="fill-rule:evenodd;"
points="87698,32334
88013,32334
88013,32255
87698,32255
87698,32334
" /> 
<polyline style="fill-rule:evenodd;"
points="87698,32137
88013,32137
88013,32059
87698,32059
87698,32137
" /> 
<polyline style="fill-rule:evenodd;"
points="87698,31940
88013,31940
88013,31862
87698,31862
87698,31940
" /> 
<polyline style="fill-rule:evenodd;"
points="87698,31744
88013,31744
88013,31665
87698,31665
87698,31744
" /> 
<polyline style="fill-rule:evenodd;"
points="87698,31547
88013,31547
88013,31468
87698,31468
87698,31547
" /> 
<polyline style="fill-rule:evenodd;"
points="87698,31350
88013,31350
88013,31271
87698,31271
87698,31350
" /> 
<polyline style="fill-rule:evenodd;"
points="87698,31153
88013,31153
88013,31074
87698,31074
87698,31153
" /> 
<polyline style="fill-rule:evenodd;"
points="87698,30956
88013,30956
88013,30877
87698,30877
87698,30956
" /> 
<polyline style="fill-rule:evenodd;"
points="87698,30759
88013,30759
88013,30681
87698,30681
87698,30759
" /> 
<polyline style="fill-rule:evenodd;"
points="87698,30562
88013,30562
88013,30484
87698,30484
87698,30562
" /> 
<polyline style="fill-rule:evenodd;"
points="87698,30366
88013,30366
88013,30287
87698,30287
87698,30366
" /> 
<polyline style="fill-rule:evenodd;"
points="87698,30169
88013,30169
88013,30090
87698,30090
87698,30169
" /> 
<polyline style="fill-rule:evenodd;"
points="87698,29972
88013,29972
88013,29893
87698,29893
87698,29972
" /> 
<polyline style="fill-rule:evenodd;"
points="87698,29775
88013,29775
88013,29696
87698,29696
87698,29775
" /> 
<polyline style="fill-rule:evenodd;"
points="87698,29578
88013,29578
88013,29500
87698,29500
87698,29578
" /> 
<polyline style="fill-rule:evenodd;"
points="87698,29381
88013,29381
88013,29303
87698,29303
87698,29381
" /> 
<polyline style="fill-rule:evenodd;"
points="87698,29185
88013,29185
88013,29106
87698,29106
87698,29185
" /> 
<polyline style="fill-rule:evenodd;"
points="86478,35897
87265,35897
87265,35307
86478,35307
86478,35897
" /> 
<polyline style="fill-rule:evenodd;"
points="86478,28692
87265,28692
87265,28102
86478,28102
86478,28692
" /> 
<polyline style="fill-rule:evenodd;"
points="65581,36296
65581,36533
66192,36533
66192,36296
65581,36296
" /> 
<polyline style="fill-rule:evenodd;"
points="65581,35796
65581,36033
66192,36033
66192,35796
65581,35796
" /> 
<polyline style="fill-rule:evenodd;"
points="65581,35296
65581,35533
66192,35533
66192,35296
65581,35296
" /> 
<polyline style="fill-rule:evenodd;"
points="65581,34796
65581,35033
66192,35033
66192,34796
65581,34796
" /> 
<polyline style="fill-rule:evenodd;"
points="67707,34796
67707,35033
68318,35033
68318,34796
67707,34796
" /> 
<polyline style="fill-rule:evenodd;"
points="67707,35296
67707,35533
68318,35533
68318,35296
67707,35296
" /> 
<polyline style="fill-rule:evenodd;"
points="67707,35796
67707,36033
68318,36033
68318,35796
67707,35796
" /> 
<polyline style="fill-rule:evenodd;"
points="67707,36296
67707,36533
68318,36533
68318,36296
67707,36296
" /> 
<circle cx="76910" cy="36525" r="275.591" /> 
</g>
<g style="fill:#000000; fill-opacity:1.0; 
stroke:#000000; stroke-width:39.3701; stroke-opacity:1; 
stroke-linecap:round; stroke-linejoin:round;">
</g>
<g style="fill:#000000; fill-opacity:1.0; 
stroke:#000000; stroke-width:0; stroke-opacity:1; 
stroke-linecap:round; stroke-linejoin:round;">
<circle cx="70445" cy="34770" r="275.591" /> 
</g>
<g style="fill:#000000; fill-opacity:1.0; 
stroke:#000000; stroke-width:39.3701; stroke-opacity:1; 
stroke-linecap:round; stroke-linejoin:round;">
</g>
<g style="fill:#000000; fill-opacity:1.0; 
stroke:#000000; stroke-width:0; stroke-opacity:1; 
stroke-linecap:round; stroke-linejoin:round;">
<circle cx="68585" cy="24101" r="275.591" /> 
</g>
<g style="fill:#000000; fill-opacity:1.0; 
stroke:#000000; stroke-width:39.3701; stroke-opacity:1; 
stroke-linecap:round; stroke-linejoin:round;">
</g>
<g style="fill:#000000; fill-opacity:1.0; 
stroke:#000000; stroke-width:0; stroke-opacity:1; 
stroke-linecap:round; stroke-linejoin:round;">
<circle cx="67320" cy="30162" r="275.591" /> 
</g>
<g style="fill:#000000; fill-opacity:1.0; 
stroke:#000000; stroke-width:39.3701; stroke-opacity:1; 
stroke-linecap:round; stroke-linejoin:round;">
</g>
<g style="fill:#000000; fill-opacity:1.0; 
stroke:#000000; stroke-width:0; stroke-opacity:1; 
stroke-linecap:round; stroke-linejoin:round;">
<circle cx="72845" cy="32445" r="275.591" /> 
</g>
<g style="fill:#000000; fill-opacity:1.0; 
stroke:#000000; stroke-width:39.3701; stroke-opacity:1; 
stroke-linecap:round; stroke-linejoin:round;">
</g>
<g style="fill:#000000; fill-opacity:1.0; 
stroke:#000000; stroke-width:0; stroke-opacity:1; 
stroke-linecap:round; stroke-linejoin:round;">
<circle cx="70411" cy="24068" r="275.591" /> 
</g>
<g style="fill:#000000; fill-opacity:1.0; 
stroke:#000000; stroke-width:39.3701; stroke-opacity:1; 
stroke-linecap:round; stroke-linejoin:round;">
</g>
<g style="fill:#000000; fill-opacity:1.0; 
stroke:#000000; stroke-width:0; stroke-opacity:1; 
stroke-linecap:round; stroke-linejoin:round;">
<circle cx="67276" cy="33242" r="275.591" /> 
</g>
<g style="fill:#000000; fill-opacity:1.0; 
stroke:#000000; stroke-width:39.3701; stroke-opacity:1; 
stroke-linecap:round; stroke-linejoin:round;">
</g>
<g style="fill:#000000; fill-opacity:1.0; 
stroke:#000000; stroke-width:0; stroke-opacity:1; 
stroke-linecap:round; stroke-linejoin:round;">
<circle cx="72776" cy="33286" r="275.591" /> 
</g>
<g style="fill:#000000; fill-opacity:1.0; 
stroke:#000000; stroke-width:39.3701; stroke-opacity:1; 
stroke-linecap:round; stroke-linejoin:round;">
</g>
<g style="fill:#000000; fill-opacity:1.0; 
stroke:#000000; stroke-width:0; stroke-opacity:1; 
stroke-linecap:round; stroke-linejoin:round;">
<circle cx="80090" cy="33975" r="275.591" /> 
</g>
<g style="fill:#000000; fill-opacity:1.0; 
stroke:#000000; stroke-width:39.3701; stroke-opacity:1; 
stroke-linecap:round; stroke-linejoin:round;">
</g>
<g style="fill:#000000; fill-opacity:1.0; 
stroke:#000000; stroke-width:0; stroke-opacity:1; 
stroke-linecap:round; stroke-linejoin:round;">
<circle cx="78474" cy="31768" r="275.591" /> 
</g>
<g style="fill:#000000; fill-opacity:1.0; 
stroke:#000000; stroke-width:39.3701; stroke-opacity:1; 
stroke-linecap:round; stroke-linejoin:round;">
</g>
<g style="fill:#000000; fill-opacity:1.0; 
stroke:#000000; stroke-width:0; stroke-opacity:1; 
stroke-linecap:round; stroke-linejoin:round;">
<circle cx="68280" cy="31465" r="275.591" /> 
</g>
<g style="fill:#000000; fill-opacity:1.0; 
stroke:#000000; stroke-width:39.3701; stroke-opacity:1; 
stroke-linecap:round; stroke-linejoin:round;">
</g>
<g style="fill:#000000; fill-opacity:1.0; 
stroke:#000000; stroke-width:0; stroke-opacity:1; 
stroke-linecap:round; stroke-linejoin:round;">
<circle cx="64042" cy="31372" r="275.591" /> 
</g>
<g style="fill:#000000; fill-opacity:1.0; 
stroke:#000000; stroke-width:39.3701; stroke-opacity:1; 
stroke-linecap:round; stroke-linejoin:round;">
</g>
<g style="fill:#000000; fill-opacity:1.0; 
stroke:#000000; stroke-width:0; stroke-opacity:1; 
stroke-linecap:round; stroke-linejoin:round;">
<circle cx="79670" cy="32175" r="275.591" /> 
</g>
<g style="fill:#000000; fill-opacity:1.0; 
stroke:#000000; stroke-width:39.3701; stroke-opacity:1; 
stroke-linecap:round; stroke-linejoin:round;">
</g>
<g style="fill:#000000; fill-opacity:1.0; 
stroke:#000000; stroke-width:0; stroke-opacity:1; 
stroke-linecap:round; stroke-linejoin:round;">
<circle cx="68195" cy="30675" r="275.591" /> 
</g>
<g style="fill:#000000; fill-opacity:1.0; 
stroke:#000000; stroke-width:39.3701; stroke-opacity:1; 
stroke-linecap:round; stroke-linejoin:round;">
</g>
<g style="fill:#000000; fill-opacity:1.0; 
stroke:#000000; stroke-width:0; stroke-opacity:1; 
stroke-linecap:round; stroke-linejoin:round;">
<circle cx="63261" cy="30844" r="275.591" /> 
</g>
<g style="fill:#000000; fill-opacity:1.0; 
stroke:#000000; stroke-width:39.3701; stroke-opacity:1; 
stroke-linecap:round; stroke-linejoin:round;">
</g>
<g style="fill:#000000; fill-opacity:1.0; 
stroke:#000000; stroke-width:0; stroke-opacity:1; 
stroke-linecap:round; stroke-linejoin:round;">
<circle cx="76625" cy="24165" r="275.591" /> 
</g>
<g style="fill:#000000; fill-opacity:1.0; 
stroke:#000000; stroke-width:39.3701; stroke-opacity:1; 
stroke-linecap:round; stroke-linejoin:round;">
</g>
<g style="fill:#000000; fill-opacity:1.0; 
stroke:#000000; stroke-width:0; stroke-opacity:1; 
stroke-linecap:round; stroke-linejoin:round;">
<circle cx="77240" cy="29535" r="275.591" /> 
</g>
<g style="fill:#000000; fill-opacity:1.0; 
stroke:#000000; stroke-width:39.3701; stroke-opacity:1; 
stroke-linecap:round; stroke-linejoin:round;">
</g>
<g style="fill:#000000; fill-opacity:1.0; 
stroke:#000000; stroke-width:0; stroke-opacity:1; 
stroke-linecap:round; stroke-linejoin:round;">
<circle cx="75900" cy="29568" r="275.591" /> 
</g>
<g style="fill:#000000; fill-opacity:1.0; 
stroke:#000000; stroke-width:39.3701; stroke-opacity:1; 
stroke-linecap:round; stroke-linejoin:round;">
</g>
<g style="fill:#000000; fill-opacity:1.0; 
stroke:#000000; stroke-width:0; stroke-opacity:1; 
stroke-linecap:round; stroke-linejoin:round;">
<circle cx="77946" cy="24123" r="275.591" /> 
</g>
<g style="fill:#000000; fill-opacity:1.0; 
stroke:#000000; stroke-width:39.3701; stroke-opacity:1; 
stroke-linecap:round; stroke-linejoin:round;">
</g>
<g style="fill:#000000; fill-opacity:1.0; 
stroke:#000000; stroke-width:0; stroke-opacity:1; 
stroke-linecap:round; stroke-linejoin:round;">
<circle cx="75740" cy="35310" r="275.591" /> 
</g>
<g style="fill:#000000; fill-opacity:1.0; 
stroke:#000000; stroke-width:39.3701; stroke-opacity:1; 
stroke-linecap:round; stroke-linejoin:round;">
</g>
<g style="fill:#000000; fill-opacity:1.0; 
stroke:#000000; stroke-width:0; stroke-opacity:1; 
stroke-linecap:round; stroke-linejoin:round;">
<circle cx="80069" cy="34716" r="275.591" /> 
</g>
<g style="fill:#000000; fill-opacity:1.0; 
stroke:#000000; stroke-width:39.3701; stroke-opacity:1; 
stroke-linecap:round; stroke-linejoin:round;">
</g>
<g style="fill:#000000; fill-opacity:1.0; 
stroke:#000000; stroke-width:0; stroke-opacity:1; 
stroke-linecap:round; stroke-linejoin:round;">
<circle cx="85640" cy="30645" r="275.591" /> 
</g>
<g style="fill:#000000; fill-opacity:1.0; 
stroke:#000000; stroke-width:39.3701; stroke-opacity:1; 
stroke-linecap:round; stroke-linejoin:round;">
</g>
<g style="fill:#000000; fill-opacity:1.0; 
stroke:#000000; stroke-width:0; stroke-opacity:1; 
stroke-linecap:round; stroke-linejoin:round;">
<circle cx="84832" cy="31262" r="275.591" /> 
</g>
<g style="fill:#000000; fill-opacity:1.0; 
stroke:#000000; stroke-width:39.3701; stroke-opacity:1; 
stroke-linecap:round; stroke-linejoin:round;">
</g>
<g style="fill:#000000; fill-opacity:1.0; 
stroke:#000000; stroke-width:0; stroke-opacity:1; 
stroke-linecap:round; stroke-linejoin:round;">
<circle cx="83082" cy="28864" r="275.591" /> 
</g>
<g style="fill:#000000; fill-opacity:1.0; 
stroke:#000000; stroke-width:39.3701; stroke-opacity:1; 
stroke-linecap:round; stroke-linejoin:round;">
</g>
<g style="fill:#000000; fill-opacity:1.0; 
stroke:#000000; stroke-width:118.11; stroke-opacity:1; 
stroke-linecap:round; stroke-linejoin:round;">
</g>
<g style="fill:#000000; fill-opacity:0.0; 
stroke:#000000; stroke-width:118.11; stroke-opacity:1; 
stroke-linecap:round; stroke-linejoin:round;">
<path d="M87856 31114
L88317 31114
" />
<path d="M88317 31114
L88328 31104
" />
<path d="M87856 31114
L87856 31311
" />
<path d="M87856 32295
L88378 32295
" />
<path d="M88378 32295
L88382 32292
" />
<path d="M87856 32492
L87856 32295
" />
<path d="M87856 33476
L87856 33673
" />
<path d="M87856 34854
L87856 34657
" />
</g>
<g style="fill:#000000; fill-opacity:0.0; 
stroke:#000000; stroke-width:196.85; stroke-opacity:1; 
stroke-linecap:round; stroke-linejoin:round;">
<path d="M68012 35915
L69300 35915
" />
<path d="M69300 35915
L70445 34770
" />
</g>
<g style="fill:#000000; fill-opacity:0.0; 
stroke:#000000; stroke-width:98.4252; stroke-opacity:1; 
stroke-linecap:round; stroke-linejoin:round;">
<path d="M87856 34854
L88339 34854
" />
<path d="M88339 34854
L88358 34836
" />
<path d="M87856 33673
L88275 33673
" />
<path d="M88275 33673
L88298 33696
" />
<path d="M87856 32885
L73285 32885
" />
</g>
<g style="fill:#000000; fill-opacity:0.0; 
stroke:#000000; stroke-width:196.85; stroke-opacity:1; 
stroke-linecap:round; stroke-linejoin:round;">
<path d="M68585 28897
L68585 24101
" />
<path d="M67320 30162
L68585 28897
" />
</g>
<g style="fill:#000000; fill-opacity:0.0; 
stroke:#000000; stroke-width:98.4252; stroke-opacity:1; 
stroke-linecap:round; stroke-linejoin:round;">
<path d="M73285 32885
L72845 32445
" />
<path d="M87856 32688
L87856 32885
" />
<path d="M87856 33279
L72782 33279
" />
</g>
<g style="fill:#000000; fill-opacity:0.0; 
stroke:#000000; stroke-width:196.85; stroke-opacity:1; 
stroke-linecap:round; stroke-linejoin:round;">
<path d="M70411 30107
L70411 24068
" />
<path d="M67276 33242
L70411 30107
" />
</g>
<g style="fill:#000000; fill-opacity:0.0; 
stroke:#000000; stroke-width:98.4252; stroke-opacity:1; 
stroke-linecap:round; stroke-linejoin:round;">
<path d="M72782 33279
L72776 33286
" />
<path d="M87856 33279
L87856 33082
" />
<path d="M80181 34066
L87856 34066
" />
<path d="M80090 33975
L80181 34066
" />
<path d="M87856 34066
L87856 33870
" />
<path d="M78537 31704
L87856 31704
" />
<path d="M78474 31768
L78537 31704
" />
</g>
<g style="fill:#000000; fill-opacity:0.0; 
stroke:#000000; stroke-width:196.85; stroke-opacity:1; 
stroke-linecap:round; stroke-linejoin:round;">
<path d="M64135 31465
L68280 31465
" />
</g>
<g style="fill:#000000; fill-opacity:0.0; 
stroke:#000000; stroke-width:98.4252; stroke-opacity:1; 
stroke-linecap:round; stroke-linejoin:round;">
<path d="M64042 31372
L64135 31465
" />
<path d="M87856 31507
L87856 31704
" />
<path d="M79746 32098
L87856 32098
" />
<path d="M79670 32175
L79746 32098
" />
</g>
<g style="fill:#000000; fill-opacity:0.0; 
stroke:#000000; stroke-width:196.85; stroke-opacity:1; 
stroke-linecap:round; stroke-linejoin:round;">
<path d="M63430 30675
L68195 30675
" />
</g>
<g style="fill:#000000; fill-opacity:0.0; 
stroke:#000000; stroke-width:98.4252; stroke-opacity:1; 
stroke-linecap:round; stroke-linejoin:round;">
<path d="M63261 30844
L63430 30675
" />
<path d="M87856 31901
L87856 32098
" />
<path d="M87856 30129
L83605 30129
" />
<path d="M77814 31273
L76607 30066
" />
<path d="M82462 31273
L77814 31273
" />
<path d="M83605 30129
L82462 31273
" />
</g>
<g style="fill:#000000; fill-opacity:0.0; 
stroke:#000000; stroke-width:118.11; stroke-opacity:1; 
stroke-linecap:round; stroke-linejoin:round;">
<path d="M87856 29933
L87856 30129
" />
</g>
<g style="fill:#000000; fill-opacity:0.0; 
stroke:#000000; stroke-width:196.85; stroke-opacity:1; 
stroke-linecap:round; stroke-linejoin:round;">
<path d="M76625 30049
L76625 24165
" />
<path d="M76607 30066
L76625 30049
" />
<path d="M68690 35415
L73545 30560
" />
<path d="M68012 35415
L68690 35415
" />
<path d="M76114 30560
L76607 30066
" />
<path d="M73545 30560
L76114 30560
" />
</g>
<g style="fill:#000000; fill-opacity:0.0; 
stroke:#000000; stroke-width:98.4252; stroke-opacity:1; 
stroke-linecap:round; stroke-linejoin:round;">
<path d="M87856 29539
L83111 29539
" />
<path d="M77988 30283
L77240 29535
" />
<path d="M82368 30283
L77988 30283
" />
<path d="M83111 29539
L82368 30283
" />
</g>
<g style="fill:#000000; fill-opacity:0.0; 
stroke:#000000; stroke-width:118.11; stroke-opacity:1; 
stroke-linecap:round; stroke-linejoin:round;">
<path d="M87856 29539
L87856 29736
" />
</g>
<g style="fill:#000000; fill-opacity:0.0; 
stroke:#000000; stroke-width:196.85; stroke-opacity:1; 
stroke-linecap:round; stroke-linejoin:round;">
<path d="M68012 34915
L68012 33759
" />
<path d="M68012 33759
L72204 29568
" />
<path d="M72204 29568
L75900 29568
" />
<path d="M77946 28829
L77946 24123
" />
<path d="M77240 29535
L77946 28829
" />
</g>
<g style="fill:#000000; fill-opacity:0.0; 
stroke:#000000; stroke-width:118.11; stroke-opacity:1; 
stroke-linecap:round; stroke-linejoin:round;">
<path d="M75680 35310
L75740 35310
" />
</g>
<g style="fill:#000000; fill-opacity:0.0; 
stroke:#000000; stroke-width:196.85; stroke-opacity:1; 
stroke-linecap:round; stroke-linejoin:round;">
<path d="M70082 36928
L70510 37356
" />
<path d="M70510 37356
L72270 37356
" />
<path d="M72270 37356
L74316 35310
" />
<path d="M74316 35310
L75680 35310
" />
<path d="M70082 36400
L70082 36928
" />
</g>
<g style="fill:#000000; fill-opacity:0.0; 
stroke:#000000; stroke-width:236.22; stroke-opacity:1; 
stroke-linecap:round; stroke-linejoin:round;">
<path d="M68012 36415
L68012 37157
" />
<path d="M61175 34212
L62557 32830
" />
<path d="M61175 37005
L61175 34212
" />
<path d="M61550 37380
L61175 37005
" />
<path d="M67790 37380
L61550 37380
" />
<path d="M68012 37157
L67790 37380
" />
<path d="M70082 36400
L68027 36400
" />
<path d="M68027 36400
L68012 36415
" />
<path d="M65887 36415
L64147 36415
" />
<path d="M64147 36415
L64062 36330
" />
<path d="M65887 35915
L65065 35915
" />
<path d="M64027 34877
L64027 34475
" />
<path d="M65065 35915
L64027 34877
" />
<path d="M65887 35415
L65379 35415
" />
<path d="M64823 33520
L64132 32830
" />
<path d="M64823 34859
L64823 33520
" />
<path d="M65379 35415
L64823 34859
" />
</g>
<g style="fill:#000000; fill-opacity:0.0; 
stroke:#000000; stroke-width:98.4252; stroke-opacity:1; 
stroke-linecap:round; stroke-linejoin:round;">
<path d="M86013 34661
L86985 34661
" />
<path d="M80069 34716
L80124 34661
" />
<path d="M80124 34661
L86013 34661
" />
<path d="M87185 34460
L87856 34460
" />
<path d="M86985 34661
L87185 34460
" />
</g>
<g style="fill:#000000; fill-opacity:0.0; 
stroke:#000000; stroke-width:118.11; stroke-opacity:1; 
stroke-linecap:round; stroke-linejoin:round;">
<path d="M87856 34460
L87856 34263
" />
</g>
<g style="fill:#000000; fill-opacity:0.0; 
stroke:#000000; stroke-width:98.4252; stroke-opacity:1; 
stroke-linecap:round; stroke-linejoin:round;">
<path d="M85761 30523
L87856 30523
" />
<path d="M85640 30645
L85761 30523
" />
</g>
<g style="fill:#000000; fill-opacity:0.0; 
stroke:#000000; stroke-width:118.11; stroke-opacity:1; 
stroke-linecap:round; stroke-linejoin:round;">
<path d="M87856 30326
L87856 30523
" />
</g>
<g style="fill:#000000; fill-opacity:0.0; 
stroke:#000000; stroke-width:98.4252; stroke-opacity:1; 
stroke-linecap:round; stroke-linejoin:round;">
<path d="M87856 30917
L86892 30917
" />
<path d="M86548 31262
L84832 31262
" />
<path d="M86892 30917
L86548 31262
" />
<path d="M87856 30917
L87856 30720
" />
</g>
<g style="fill:#000000; fill-opacity:0.0; 
stroke:#000000; stroke-width:118.11; stroke-opacity:1; 
stroke-linecap:round; stroke-linejoin:round;">
<path d="M87856 29145
L83363 29145
" />
<path d="M83363 29145
L83082 28864
" />
<path d="M87856 29342
L87856 29145
" />
</g>
<g style="fill:#000000; fill-opacity:1.0; 
stroke:#000000; stroke-width:100; stroke-opacity:1; 
stroke-linecap:round; stroke-linejoin:round;">
<polyline style="fill-rule:evenodd;"
points="78471,24017
78471,24227
78391,24420
78294,24517
78294,28828
78294,28829
78273,28936
78267,28962
78198,29065
78192,29075
77765,29502
77765,29637
78111,29983
82244,29983
82879,29348
82784,29309
82636,29162
82556,28969
82556,28759
82636,28566
82783,28418
82976,28338
83186,28338
83379,28418
83527,28565
83607,28758
83607,28836
86273,28836
86243,28792
86223,28692
86223,28102
86240,28009
86295,27924
86378,27867
86478,27847
87265,27847
87358,27864
87443,27919
87500,28003
87520,28102
87520,28692
87502,28785
87470,28836
87856,28836
87930,28851
88013,28851
88106,28868
88191,28923
88248,29007
88268,29106
88268,29185
88256,29246
88268,29303
88268,29381
88256,29443
88268,29500
88268,29578
88256,29639
88268,29696
88268,29775
88256,29836
88268,29893
88268,29972
88256,30033
88268,30090
88268,30169
88256,30230
88268,30287
88268,30366
88256,30427
88268,30484
88268,30562
88256,30624
88268,30681
88268,30759
88256,30821
88268,30877
88268,30956
88258,31011
88263,31025
88263,31042
88240,31065
88209,31113
88225,31130
88237,31160
88263,31185
88263,31203
88259,31212
88263,31221
88263,31239
88237,31265
88225,31295
88208,31311
88244,31363
88263,31382
88263,31400
88257,31414
88268,31468
88268,31547
88256,31608
88268,31665
88268,31744
88256,31805
88268,31862
88268,31940
88256,32002
88268,32059
88268,32137
88258,32192
88263,32206
88263,32223
88240,32246
88209,32295
88225,32311
88237,32341
88263,32366
88263,32384
88259,32393
88263,32403
88263,32420
88237,32446
88225,32476
88208,32492
88244,32544
88263,32563
88263,32581
88257,32595
88268,32649
88268,32728
88256,32789
88268,32846
88268,32925
88256,32986
88268,33043
88268,33122
88256,33183
88268,33240
88268,33318
88258,33374
88263,33387
88263,33404
88240,33427
88209,33476
88225,33492
88237,33522
88263,33547
88263,33565
88259,33574
88263,33584
88263,33601
88237,33627
88225,33657
88208,33673
88244,33725
88263,33744
88263,33762
88257,33776
88268,33830
88268,33909
88256,33970
88268,34027
88268,34106
88256,34167
88268,34224
88268,34303
88256,34364
88268,34421
88268,34500
88258,34555
88263,34568
88263,34585
88240,34608
88209,34657
88225,34673
88237,34703
88263,34729
88263,34746
88259,34755
88263,34765
88263,34782
88237,34808
88225,34838
88200,34863
88200,34863
88263,34925
88263,34943
88225,35035
88155,35105
88063,35143
87927,35143
87865,35081
87865,34837
87846,34837
87846,35081
87784,35143
87648,35143
87556,35105
87486,35035
87448,34943
87448,34925
87511,34863
87511,34863
87486,34838
87474,34808
87448,34782
87448,34765
87450,34759
87309,34759
87196,34872
87099,34937
86985,34960
80536,34960
80514,35013
80367,35161
80174,35241
79964,35241
79771,35161
79623,35014
79543,34821
79543,34611
79623,34418
79706,34335
79644,34273
79564,34080
79564,33870
79644,33677
79742,33578
73223,33578
73221,33583
73074,33731
72881,33811
72671,33811
72478,33731
72330,33584
72250,33391
72250,33181
72330,32988
72477,32840
72491,32834
72399,32743
72319,32550
72319,32340
72363,32234
68936,35661
68936,35661
68824,35736
68823,35736
68690,35763
68568,35763
68568,35843
68505,35905
68022,35905
68022,35898
68003,35898
68003,35905
67520,35905
67457,35843
67457,35747
67493,35661
67473,35632
67452,35533
67452,35296
66447,35296
66447,35533
66429,35625
66404,35664
66426,35697
66447,35796
66447,36033
66429,36125
66404,36164
66426,36197
66447,36296
66447,36533
66429,36625
66374,36710
66291,36767
66192,36788
65581,36788
65555,36783
64676,36783
64638,36842
64555,36899
64456,36919
63668,36919
63576,36902
63490,36847
63433,36763
63413,36664
63413,36401
63131,36401
63131,36714
63093,36806
63022,36876
62931,36914
62559,36914
62496,36852
62496,36339
62478,36339
62478,36852
62416,36914
62044,36914
61952,36876
61881,36806
61843,36714
61843,36401
61906,36339
62478,36339
62496,36339
63068,36339
63131,36401
63413,36401
63413,35995
63423,35945
63131,35945
63131,36258
63068,36320
62496,36320
62496,35807
62478,35807
62478,36320
61906,36320
61843,36258
61843,35945
61881,35853
61952,35783
62044,35745
62416,35745
62478,35807
62496,35807
62559,35745
62931,35745
63022,35783
63093,35853
63131,35945
63423,35945
63431,35902
63485,35817
63569,35760
63668,35740
64369,35740
63767,35137
63718,35064
63633,35064
63541,35047
63455,34992
63398,34908
63378,34809
63378,34546
63096,34546
63096,34859
63058,34951
62987,35021
62896,35059
62524,35059
62461,34997
62461,34484
62443,34484
62443,34997
62381,35059
62009,35059
61917,35021
61846,34951
61808,34859
61808,34546
61871,34484
62443,34484
62461,34484
63033,34484
63096,34546
63378,34546
63378,34140
63388,34090
63096,34090
63096,34403
63033,34465
62461,34465
62461,33952
62524,33890
62896,33890
62987,33928
63058,33998
63096,34090
63388,34090
63396,34047
63450,33962
63534,33905
63633,33885
64421,33885
64454,33891
64454,33673
64201,33419
63738,33419
63646,33402
63560,33347
63503,33263
63483,33164
63483,32495
63501,32402
63555,32317
63639,32260
63738,32240
64526,32240
64618,32257
64703,32312
64760,32396
64781,32495
64781,32958
65083,33260
65163,33379
65191,33520
65191,34706
65390,34905
65394,34905
65331,34843
65331,34747
65369,34655
65440,34584
65532,34546
65815,34546
65877,34609
65877,34905
65870,34905
65870,34924
65877,34924
65877,34931
65896,34931
65896,34924
66379,34924
66442,34986
66442,35082
66406,35168
66426,35197
66447,35296
67452,35296
67470,35204
67495,35165
67473,35132
67452,35033
67452,34796
67462,34747
66442,34747
66442,34843
66379,34905
65896,34905
65896,34609
65958,34546
66241,34546
66333,34584
66404,34655
66442,34747
67462,34747
67470,34704
67525,34619
67608,34562
67664,34550
67664,33759
67664,33759
67691,33625
67691,33625
67766,33512
67766,33512
71957,29321
71985,29303
72070,29246
72100,29240
72204,29219
72204,29219
75505,29219
75601,29122
75794,29042
76004,29042
76197,29122
76276,29201
76276,24559
76179,24463
76099,24270
76099,24060
76165,23901
70910,23901
70936,23962
70936,24172
70856,24365
70759,24462
70759,30106
70759,30107
70740,30199
70732,30240
70661,30347
70657,30353
67801,33209
67801,33346
67721,33539
67574,33687
67381,33767
67171,33767
66978,33687
66830,33540
66750,33347
66750,33137
66830,32944
66977,32796
67170,32716
67308,32716
68075,31949
67982,31910
67885,31813
64343,31813
64340,31817
64147,31897
63937,31897
63744,31817
63596,31670
63516,31477
63516,31307
63366,31369
63156,31369
62963,31289
62815,31142
62735,30949
62735,30739
62815,30546
62962,30398
63155,30318
63365,30318
63399,30332
63430,30326
66819,30326
66794,30267
66794,30057
66874,29864
67021,29716
67214,29636
67352,29636
68236,28752
68236,28454
66157,28454
66157,28463
66157,28464
66157,28465
66157,28502
66156,28508
66156,28514
66155,28539
66152,28553
66152,28566
66149,28584
66141,28607
66137,28630
66132,28644
66122,28661
66122,28662
66119,28666
66112,28686
66105,28699
66098,28706
66094,28715
66092,28718
66079,28730
66069,28746
66050,28767
66029,28782
66011,28800
65989,28816
65975,28822
65973,28824
65963,28828
65946,28840
65934,28845
65910,28851
65899,28856
65897,28856
65883,28862
65841,28870
65812,28871
65799,28895
65783,28907
65771,28923
65764,28928
65737,28944
65722,28956
65711,28959
65685,28975
65682,28976
65679,28977
65633,28983
65610,28987
65595,28990
65592,28989
65588,28990
65579,28989
65539,28980
65499,28972
65487,28968
65484,28966
65484,28966
65481,28964
65479,28963
65470,28960
65454,28953
65454,28953
65451,28951
65444,28946
65436,28944
65423,28936
65422,28936
65422,28936
65399,28916
65395,28914
65386,28905
65385,28904
65348,28872
65348,28872
65348,28871
65340,28862
65335,28852
65333,28849
65319,28855
65275,28864
65231,28874
65193,28875
65151,28868
65113,28864
65076,28872
65029,28883
65028,28883
65026,28883
64979,28874
64933,28867
64888,28874
64840,28882
64840,28882
64840,28882
64792,28871
64745,28860
64689,28835
64679,28843
64655,28851
64632,28864
64631,28864
64630,28864
64607,28867
64585,28874
64565,28872
64564,28872
64562,28872
64560,28872
64534,28874
64534,28874
64533,28874
64532,28874
64510,28868
64487,28866
64478,28863
64473,28860
64470,28860
64463,28864
64458,28864
64453,28867
64434,28868
64416,28874
64395,28872
64395,28872
64393,28872
64391,28872
64365,28874
64364,28874
64360,28873
64355,28873
64337,28867
64318,28866
64309,28863
64304,28860
64298,28860
64294,28858
64283,28860
64259,28868
64232,28872
64211,28871
64190,28874
64163,28874
64156,28872
64154,28872
64138,28872
64124,28875
64107,28872
64091,28874
64090,28874
64073,28869
64067,28871
64039,28871
64012,28875
63991,28870
63969,28870
63959,28868
63941,28860
63922,28857
63905,28850
63896,28845
63887,28842
63883,28840
63867,28828
63848,28820
63844,28818
63828,28831
63806,28842
63769,28852
63734,28865
63697,28872
63653,28870
63610,28871
63573,28864
63539,28851
63521,28860
63517,28861
63514,28862
63499,28866
63458,28868
63417,28873
63394,28871
63388,28870
63383,28870
63376,28869
63363,28868
63361,28868
63342,28870
63335,28871
63322,28870
63309,28873
63289,28873
63287,28873
63285,28873
63238,28864
63192,28856
63192,28856
63172,28864
63134,28871
63104,28871
63102,28871
63099,28872
63095,28872
63075,28875
63054,28874
63043,28871
63032,28874
63007,28872
63000,28873
62988,28870
62959,28870
62957,28869
62939,28874
62914,28872
62908,28873
62900,28871
62877,28872
62860,28866
62842,28864
62834,28861
62823,28855
62811,28853
62796,28846
62793,28844
62790,28844
62789,28843
62785,28840
62782,28840
62780,28838
62777,28837
62769,28833
62747,28816
62746,28816
62742,28821
62738,28823
62730,28829
62717,28837
62685,28847
62675,28852
62673,28852
62669,28854
62667,28855
62666,28856
62652,28862
62631,28867
62601,28868
62570,28873
62541,28873
62531,28871
62520,28872
62504,28870
62487,28865
62469,28865
62449,28860
62413,28843
62410,28842
62409,28841
62397,28837
62391,28835
62387,28833
62370,28826
62354,28816
62334,28796
62310,28779
62291,28760
62288,28755
62284,28752
62281,28749
62277,28741
62271,28736
62254,28714
62240,28685
62222,28658
62214,28640
62211,28627
62210,28626
62210,28623
62206,28602
62195,28564
62193,28542
62194,28530
62192,28519
62192,28486
62197,28460
62196,28457
62194,28423
62196,28411
62194,28398
62195,28373
62204,28335
62209,28297
62221,28264
62243,28227
62264,28189
62278,28172
62308,28148
62335,28121
62365,28101
62401,28087
62436,28069
62472,28059
62508,28056
62545,28050
62582,28051
62623,28060
62664,28066
62683,28073
62691,28069
62701,28068
62721,28060
62756,28053
62789,28054
62822,28050
62859,28052
62893,28062
62928,28067
62946,28074
62960,28071
62961,28070
62961,28070
62968,28069
63001,28057
63042,28051
63060,28052
63061,28052
63067,28052
63088,28048
63107,28049
63130,28055
63016,27940
63002,27919
62984,27901
62975,27878
62962,27858
62957,27833
62947,27809
62947,27786
62942,27762
62947,27737
62948,27711
62957,27689
62962,27666
62976,27644
62986,27621
63087,27473
63086,27472
63050,27465
63050,27465
63050,27465
63009,27458
63009,27458
63009,27458
62975,27451
62975,27451
62974,27451
62952,27447
62951,27447
62951,27447
62910,27439
62887,27429
62863,27424
62842,27411
62819,27401
62802,27384
62781,27370
62767,27349
62750,27332
62740,27309
62726,27288
62722,27264
62712,27241
62712,27216
62707,27191
62707,27023
62707,27023
62707,27023
62707,27003
62707,27002
62707,27002
62707,26951
62708,26950
62707,26949
62708,26911
62708,26908
62708,26905
62709,26878
62711,26872
62710,26865
62711,26847
62716,26833
62715,26825
62716,26821
62716,26815
62719,26804
62725,26791
62725,26787
62735,26767
62739,26753
62741,26751
62747,26732
62751,26726
62756,26720
62759,26714
62764,26709
62769,26699
62794,26677
62816,26653
62822,26650
62825,26647
62834,26643
62835,26642
62835,26642
62835,26641
62843,26635
62848,26632
62882,26621
62882,26621
62904,26610
62906,26610
62914,26606
62918,26605
62922,26605
62926,26603
62943,26600
62944,26600
62945,26599
62973,26594
62974,26594
62974,26593
63009,26587
63010,26587
63010,26586
63050,26579
63050,26579
63051,26579
63087,26572
63076,26555
63076,26555
63075,26555
63045,26510
63044,26508
63043,26506
63020,26471
63019,26467
63016,26464
63000,26439
62997,26430
62991,26422
62982,26405
62976,26384
62966,26365
62962,26353
62962,26348
62960,26344
62958,26319
62956,26310
62956,26304
62954,26295
62955,26281
62952,26255
62954,26250
62954,26245
62955,26238
62955,26237
62955,26235
62962,26215
62964,26197
62977,26172
62978,26168
62981,26161
62981,26160
62986,26145
62987,26144
62988,26142
62988,26142
63001,26127
63011,26110
63019,26100
63025,26095
63028,26089
63046,26070
63048,26069
63050,26067
63074,26041
63076,26040
63077,26039
63107,26008
63108,26007
63109,26006
63142,25973
63144,25972
63144,25971
63179,25937
63182,25935
63183,25933
63218,25901
63222,25898
63226,25894
63251,25872
63262,25866
63270,25857
63287,25845
63327,25828
63339,25822
63354,25813
63359,25812
63366,25809
63375,25806
63376,25806
63377,25806
63380,25806
63380,25806
63389,25805
63413,25804
63451,25798
63462,25800
63473,25800
63476,25801
63478,25801
63510,25812
63547,25821
63548,25822
63556,25828
63566,25831
63568,25832
63571,25834
63583,25841
63586,25844
63590,25845
63613,25860
63614,25861
63615,25861
63646,25881
63646,25882
63647,25882
63683,25907
63684,25907
63685,25908
63724,25934
63732,25894
63732,25894
63732,25894
63740,25852
63740,25852
63740,25851
63746,25816
63747,25816
63747,25815
63751,25790
63752,25788
63752,25787
63755,25774
63756,25771
63756,25767
63757,25766
63760,25757
63762,25748
63763,25743
63764,25742
63764,25740
63773,25724
63775,25717
63786,25700
63793,25684
63796,25681
63798,25677
63802,25673
63811,25656
63812,25656
63812,25655
63816,25651
63824,25644
63830,25635
63863,25614
63875,25604
63884,25596
63886,25596
63893,25590
63903,25587
63912,25581
63919,25579
63948,25573
63976,25563
63989,25561
64001,25561
64012,25559
64033,25557
64038,25558
64043,25557
64073,25556
64075,25557
64076,25556
64118,25556
64119,25556
64119,25556
64174,25556
64174,25556
64175,25556
64181,25556
64182,25556
64182,25556
64235,25556
64236,25556
64237,25556
64277,25556
64279,25557
64281,25556
64310,25557
64315,25558
64320,25558
64340,25559
64353,25562
64366,25562
64378,25564
64409,25575
64440,25583
64447,25586
64457,25593
64470,25598
64497,25622
64527,25643
64534,25654
64534,25655
64542,25661
64542,25662
64543,25663
64546,25667
64551,25677
64552,25678
64553,25681
64556,25684
64565,25705
64579,25727
64580,25733
64588,25748
64589,25754
64589,25755
64590,25755
64590,25761
64593,25767
64593,25767
64593,25771
64594,25775
64597,25788
64597,25789
64598,25791
64603,25816
64603,25817
64603,25817
64610,25853
64610,25853
64610,25853
64618,25895
64618,25896
64618,25896
64625,25934
64633,25929
64633,25929
64634,25928
64673,25902
64674,25901
64674,25901
64710,25877
64711,25877
64711,25876
64740,25857
64742,25857
64743,25855
64764,25842
64767,25841
64767,25841
64770,25840
64774,25836
64784,25831
64821,25818
64858,25803
64867,25803
64877,25799
64916,25802
64956,25802
64963,25803
64969,25806
64975,25806
64995,25816
65004,25820
65006,25820
65010,25822
65053,25840
65068,25850
65079,25860
65092,25867
65116,25887
65120,25892
65125,25895
65158,25925
65159,25928
65162,25929
65204,25970
65205,25971
65206,25972
65210,25976
65210,25976
65211,25976
65244,26010
65245,26011
65246,26012
65276,26042
65277,26043
65278,26044
65302,26069
65304,26072
65306,26073
65323,26092
65327,26099
65333,26104
65341,26114
65350,26131
65363,26145
65364,26149
65366,26151
65366,26151
65374,26175
65374,26175
65374,26176
65374,26177
65387,26201
65388,26220
65395,26238
65395,26245
65395,26250
65397,26255
65394,26282
65395,26299
65393,26306
65393,26310
65391,26319
65389,26343
65387,26348
65387,26352
65383,26364
65373,26383
65367,26404
65358,26422
65352,26430
65349,26438
65334,26464
65331,26467
65329,26471
65307,26506
65305,26507
65304,26509
65274,26555
65273,26555
65273,26556
65268,26563
65268,26563
65262,26572
65281,26575
65281,26575
65282,26575
65323,26583
65323,26583
65323,26583
65361,26591
65361,26591
65362,26591
65393,26597
65394,26597
65394,26597
65416,26602
65419,26603
65422,26603
65432,26605
65443,26610
65454,26611
65460,26614
65466,26615
65468,26616
65477,26622
65478,26622
65495,26633
65495,26633
65521,26645
65529,26652
65540,26659
65545,26662
65548,26666
65551,26668
65554,26673
65560,26677
65580,26706
65589,26716
65591,26720
65592,26721
65599,26730
65600,26732
65606,26739
65609,26749
65615,26758
65618,26766
65624,26794
65634,26822
65636,26835
65636,26847
65639,26858
65640,26879
65639,26884
65640,26889
65641,26920
65641,26922
65641,26924
65642,26966
65642,26967
65642,26968
65642,27023
65642,27023
65642,27023
65642,27191
65637,27216
65637,27241
65627,27264
65623,27288
65609,27309
65599,27332
65582,27349
65568,27370
65547,27384
65530,27401
65507,27411
65486,27424
65462,27429
65439,27439
65398,27447
65398,27447
65398,27447
65393,27448
65392,27448
65392,27448
65366,27453
65365,27453
65365,27453
65329,27460
65329,27460
65329,27460
65287,27468
65287,27468
65287,27468
65262,27472
65262,27472
65276,27492
65363,27620
65373,27644
65387,27666
65392,27689
65401,27711
65402,27737
65407,27762
65402,27785
65402,27809
65393,27833
65388,27858
65374,27878
65365,27900
65347,27919
65333,27940
65238,28035
65262,28041
65303,28047
65338,28060
65339,28060
65375,28050
65415,28037
65452,28032
65482,28034
65511,28032
65553,28037
65591,28049
65630,28058
65638,28061
65666,28053
65706,28039
65750,28032
65772,28033
65794,28030
65806,28030
65828,28035
65850,28035
65885,28042
65926,28060
65969,28077
65997,28095
66025,28122
66055,28146
66081,28177
66088,28189
66097,28198
66099,28201
66103,28210
66109,28217
66116,28230
66124,28254
66136,28276
66141,28290
66143,28312
66151,28333
66153,28353
66153,28364
66156,28376
66157,28404
66156,28408
66157,28413
66157,28450
66157,28450
66157,28450
66157,28452
66157,28453
66157,28454
68236,28454
68236,25371
62298,25371
62164,25694
61917,25942
61593,26076
61243,26076
60920,25943
60672,25695
60538,25372
60538,25022
60671,24699
60919,24451
61242,24317
61592,24316
61915,24450
62163,24697
62297,25021
62298,25371
68236,25371
68236,24495
68139,24399
68059,24206
68059,23996
68098,23901
60122,23901
60122,39090
77794,39090
77630,39036
77630,39035
77629,39035
77477,38985
77477,38984
77476,38984
77282,38919
77281,38918
77279,38917
77136,38867
77133,38865
77129,38864
77030,38825
77022,38820
77012,38817
76950,38787
76930,38772
76909,38762
76875,38737
76870,38731
76862,38727
76837,38694
76810,38664
76807,38656
76802,38650
76790,38627
76784,38605
76773,38584
76771,38558
76763,38532
76766,38509
76764,38486
76767,38462
76771,38446
76772,38430
76784,38379
76805,38280
76829,38160
76830,38157
76830,38153
76853,38053
76858,38041
76859,38029
76879,37969
75487,37969
75353,38293
75106,38540
74782,38675
74432,38675
74109,38541
73861,38294
73727,37971
73727,37621
73860,37297
74108,37049
74431,36915
74781,36915
75104,37048
75352,37296
75486,37619
75487,37969
76879,37969
76886,37951
76905,37917
76921,37882
76943,37852
76978,37819
77014,37786
77014,37786
77015,37785
77060,37768
77106,37751
77106,37752
77107,37751
77149,37753
77152,37752
77159,37753
77204,37755
77220,37759
77234,37765
77249,37767
77318,37792
77322,37795
77327,37796
77433,37839
77435,37841
77437,37841
77566,37897
77566,37897
77566,37897
77703,37956
77703,37876
77703,37668
77701,37424
77698,37154
77694,36865
77674,35568
77675,35562
77674,35555
77684,35513
77692,35471
77695,35466
77697,35459
77722,35425
77729,35414
76265,35414
76185,35607
76038,35755
75845,35835
75635,35835
75442,35755
75345,35658
74460,35658
72516,37602
72516,37602
72465,37636
72465,38967
64934,38967
64934,37748
64562,37748
64562,38931
60585,38931
60585,37427
61076,37427
60914,37265
60834,37145
60806,37005
60806,34212
60834,34071
60914,33952
61909,32958
61909,32495
61926,32402
61981,32317
62064,32260
62163,32240
62951,32240
63043,32257
63129,32312
63186,32396
63206,32495
63206,33164
63188,33257
63134,33342
63050,33399
62951,33419
62488,33419
62017,33890
62381,33890
62443,33952
62443,34465
61871,34465
61808,34403
61808,34099
61543,34365
61543,36852
61702,37011
67637,37011
67644,37004
67644,36776
67615,36770
67530,36715
67473,36632
67452,36533
67452,36296
67470,36204
67493,36168
67457,36082
67457,35986
67520,35924
68003,35924
68003,35931
68022,35931
68022,35924
68505,35924
68568,35986
68568,36031
69444,36031
69451,35992
69506,35907
69589,35850
69688,35830
70476,35830
70568,35847
70654,35902
70711,35985
70731,36085
70731,36714
70713,36807
70659,36892
70587,36941
70654,37007
72125,37007
72661,36471
72301,36471
72301,36764
72263,36856
72192,36926
72100,36964
71728,36964
71666,36902
71666,36409
71648,36409
71648,36902
71585,36964
71213,36964
71122,36926
71051,36856
71013,36764
71013,36471
71076,36409
71648,36409
71666,36409
72238,36409
72301,36471
72661,36471
73097,36035
72301,36035
72301,36328
72238,36390
71666,36390
71666,35897
71648,35897
71648,36390
71076,36390
71013,36328
71013,36035
71051,35943
71122,35873
71213,35835
71585,35835
71648,35897
71666,35897
71728,35835
72100,35835
72192,35873
72263,35943
72301,36035
73097,36035
74069,35063
74128,35024
74182,34988
74204,34983
74316,34961
74316,34961
75345,34961
75441,34864
75634,34784
75844,34784
76037,34864
76185,35011
76265,35204
76265,35414
77729,35414
77745,35389
77751,35385
77754,35380
77791,35357
77826,35333
77832,35331
77838,35328
77880,35321
77922,35312
77929,35313
77935,35312
78496,35332
78539,35342
78582,35350
78586,35353
78591,35354
78627,35380
78664,35404
78667,35409
78671,35412
78694,35449
78719,35486
78720,35491
78723,35495
78730,35539
78739,35582
78747,37307
78747,37307
78747,37307
78748,37532
78748,37532
78748,37532
78750,37895
78750,37896
78750,37896
78750,38200
78750,38200
78750,38201
78749,38449
78749,38450
78749,38451
78746,38649
78746,38650
78746,38652
78743,38803
78742,38806
78743,38809
78738,38919
78737,38924
78737,38929
78731,39002
78727,39016
78727,39029
78719,39070
78716,39078
78715,39086
78713,39090
79925,39090
79824,39057
79824,39057
79824,39057
79746,39031
79746,39031
79746,39031
79550,38965
79550,38965
79549,38965
79379,38907
79378,38906
79377,38906
79242,38858
79240,38857
79238,38857
79147,38824
79141,38820
79134,38818
79097,38802
79085,38794
79071,38789
79045,38766
79016,38746
79008,38734
78997,38724
78982,38693
78963,38663
78960,38649
78958,38645
78956,38641
78956,38640
78954,38636
78950,38622
78948,38583
78942,38544
78945,38478
78948,38467
78947,38457
78961,38356
78963,38351
78963,38346
78983,38229
78985,38225
78985,38221
79009,38109
79011,38103
79012,38096
79035,38008
79043,37991
79047,37973
79067,37927
79068,37925
79069,37923
79096,37885
79123,37846
79125,37845
79126,37843
79166,37818
79205,37793
79208,37792
79210,37791
79256,37783
79302,37775
79304,37775
79307,37775
79334,37776
79365,37783
79397,37786
79475,37809
79483,37813
79491,37815
79605,37857
79610,37860
79615,37861
79751,37918
79752,37919
79752,37919
79858,37964
79886,37975
79867,36938
79843,35571
79843,35569
79843,35567
79852,35521
79860,35475
79861,35473
79862,35470
79888,35431
79913,35392
79915,35391
79917,35389
79956,35363
79994,35336
79996,35335
79998,35334
80044,35325
80090,35315
80092,35315
80095,35315
80670,35315
80767,35334
80848,35389
80903,35470
80922,35567
80922,37320
80922,37320
80922,37321
80922,37575
80922,37575
80922,37575
80921,37937
80921,37937
80921,37938
80920,38240
80920,38241
80920,38241
80918,38488
80917,38489
80918,38490
80914,38687
80914,38688
80914,38690
80910,38840
80909,38843
80910,38845
80904,38954
80903,38959
80904,38965
80897,39036
80893,39050
80892,39064
80887,39090
82045,39090
82037,39082
82015,39049
81997,39006
81978,38963
81969,38922
81969,38919
81968,38917
81948,38818
81948,38817
81948,38816
81919,38667
81919,38667
81919,38666
81882,38475
81882,38475
81882,38475
81839,38249
81839,38249
81839,38249
81791,37996
81791,37996
81791,37996
81739,37724
81739,37724
81739,37724
81686,37441
81686,37441
81686,37441
81632,37154
81632,37154
81632,37154
81579,36872
81579,36871
81579,36871
81528,36600
81528,36600
81528,36600
81482,36348
81482,36348
81482,36348
81440,36124
81440,36123
81440,36123
81405,35933
81405,35933
81405,35933
81379,35785
81379,35784
81378,35784
81361,35686
81361,35684
81360,35681
81354,35641
81356,35607
81353,35573
81358,35558
81359,35543
81373,35512
81384,35480
81394,35468
81401,35454
81426,35431
81448,35405
81471,35387
81483,35381
81493,35372
81527,35359
81559,35343
81572,35342
81585,35337
81669,35323
81685,35324
81701,35320
81840,35315
81844,35316
81849,35315
82094,35315
82118,35320
82143,35320
82166,35329
82190,35334
82211,35348
82234,35357
82251,35375
82272,35389
82286,35409
82303,35427
82313,35450
82327,35470
82331,35495
82341,35518
82465,36143
82465,36143
82465,36143
82466,36144
82551,36567
82627,36929
82696,37233
82760,37485
82820,37689
82878,37849
82933,37970
82986,38059
83038,38124
83096,38176
83166,38224
83248,38268
83411,38329
83566,38347
83699,38325
83815,38267
83916,38173
83998,38037
84056,37850
84057,37837
84057,37713
84041,37527
84009,37287
83962,37006
83902,36691
83829,36351
83744,35992
83726,35920
83726,35920
83726,35919
83698,35802
83698,35802
83698,35801
83678,35716
83678,35715
83677,35714
83656,35623
83656,35594
83650,35567
83654,35546
83654,35524
83664,35498
83669,35470
83681,35453
83689,35432
83708,35412
83724,35389
83742,35377
83757,35361
83782,35350
83806,35334
83827,35330
83847,35321
83875,35320
83902,35315
84153,35315
84153,35315
84153,35315
84177,35315
84179,35315
84181,35315
84296,35317
84300,35318
84305,35317
84386,35321
84402,35325
84418,35325
84449,35331
84454,35333
84455,35333
84462,35336
84474,35337
84506,35354
84540,35367
84544,35371
84546,35371
84551,35377
84561,35382
84585,35410
84611,35435
84613,35440
84615,35442
84618,35450
84625,35458
84635,35492
84650,35526
84650,35530
84651,35533
84659,35573
84678,35669
84706,35813
84743,35996
84786,36211
84834,36447
84834,36448
84834,36448
84897,36765
84897,36767
84897,36769
84957,37095
84957,37098
84958,37101
85002,37375
85002,37379
85003,37384
85032,37613
85031,37619
85033,37626
85047,37817
85046,37826
85047,37835
85047,37995
85045,38007
85046,38019
85033,38154
85028,38169
85028,38184
85002,38301
84995,38316
84993,38332
84935,38494
84923,38514
84916,38536
84783,38764
84762,38789
84744,38815
84566,38995
84539,39014
84514,39036
84421,39090
89091,39090
89091,35307
87520,35307
87520,35897
87502,35990
87448,36075
87364,36132
87265,36152
86478,36152
86385,36135
86300,36080
86243,35996
86223,35897
86223,35307
86240,35214
86295,35129
86378,35072
86478,35052
87265,35052
87358,35069
87443,35124
87500,35207
87520,35307
89091,35307
89091,25371
88676,25371
88542,25694
88295,25942
87971,26076
87621,26076
87298,25943
87050,25695
86916,25372
86916,25022
87049,24699
87297,24451
87620,24317
87970,24316
88293,24450
88541,24697
88675,25021
88676,25371
89091,25371
89091,23901
78423,23901
78471,24017
" /> 
</g>
<g style="fill:#FFFFFF; fill-opacity:1.0; 
stroke:#FFFFFF; stroke-width:100; stroke-opacity:1; 
stroke-linecap:round; stroke-linejoin:round;">
</g>
<g style="fill:#FFFFFF; fill-opacity:1.0; 
stroke:#FFFFFF; stroke-width:0; stroke-opacity:1; 
stroke-linecap:round; stroke-linejoin:round;">
<circle cx="76910" cy="36525" r="68.8976" /> 
</g>
<g style="fill:#FFFFFF; fill-opacity:1.0; 
stroke:#FFFFFF; stroke-width:39.3701; stroke-opacity:1; 
stroke-linecap:round; stroke-linejoin:round;">
</g>
<g style="fill:#FFFFFF; fill-opacity:1.0; 
stroke:#FFFFFF; stroke-width:0; stroke-opacity:1; 
stroke-linecap:round; stroke-linejoin:round;">
<circle cx="70445" cy="34770" r="68.8976" /> 
</g>
<g style="fill:#FFFFFF; fill-opacity:1.0; 
stroke:#FFFFFF; stroke-width:39.3701; stroke-opacity:1; 
stroke-linecap:round; stroke-linejoin:round;">
</g>
<g style="fill:#FFFFFF; fill-opacity:1.0; 
stroke:#FFFFFF; stroke-width:0; stroke-opacity:1; 
stroke-linecap:round; stroke-linejoin:round;">
<circle cx="68585" cy="24101" r="68.8976" /> 
</g>
<g style="fill:#FFFFFF; fill-opacity:1.0; 
stroke:#FFFFFF; stroke-width:39.3701; stroke-opacity:1; 
stroke-linecap:round; stroke-linejoin:round;">
</g>
<g style="fill:#FFFFFF; fill-opacity:1.0; 
stroke:#FFFFFF; stroke-width:0; stroke-opacity:1; 
stroke-linecap:round; stroke-linejoin:round;">
<circle cx="67320" cy="30162" r="68.8976" /> 
</g>
<g style="fill:#FFFFFF; fill-opacity:1.0; 
stroke:#FFFFFF; stroke-width:39.3701; stroke-opacity:1; 
stroke-linecap:round; stroke-linejoin:round;">
</g>
<g style="fill:#FFFFFF; fill-opacity:1.0; 
stroke:#FFFFFF; stroke-width:0; stroke-opacity:1; 
stroke-linecap:round; stroke-linejoin:round;">
<circle cx="72845" cy="32445" r="68.8976" /> 
</g>
<g style="fill:#FFFFFF; fill-opacity:1.0; 
stroke:#FFFFFF; stroke-width:39.3701; stroke-opacity:1; 
stroke-linecap:round; stroke-linejoin:round;">
</g>
<g style="fill:#FFFFFF; fill-opacity:1.0; 
stroke:#FFFFFF; stroke-width:0; stroke-opacity:1; 
stroke-linecap:round; stroke-linejoin:round;">
<circle cx="70411" cy="24068" r="68.8976" /> 
</g>
<g style="fill:#FFFFFF; fill-opacity:1.0; 
stroke:#FFFFFF; stroke-width:39.3701; stroke-opacity:1; 
stroke-linecap:round; stroke-linejoin:round;">
</g>
<g style="fill:#FFFFFF; fill-opacity:1.0; 
stroke:#FFFFFF; stroke-width:0; stroke-opacity:1; 
stroke-linecap:round; stroke-linejoin:round;">
<circle cx="67276" cy="33242" r="68.8976" /> 
</g>
<g style="fill:#FFFFFF; fill-opacity:1.0; 
stroke:#FFFFFF; stroke-width:39.3701; stroke-opacity:1; 
stroke-linecap:round; stroke-linejoin:round;">
</g>
<g style="fill:#FFFFFF; fill-opacity:1.0; 
stroke:#FFFFFF; stroke-width:0; stroke-opacity:1; 
stroke-linecap:round; stroke-linejoin:round;">
<circle cx="72776" cy="33286" r="68.8976" /> 
</g>
<g style="fill:#FFFFFF; fill-opacity:1.0; 
stroke:#FFFFFF; stroke-width:39.3701; stroke-opacity:1; 
stroke-linecap:round; stroke-linejoin:round;">
</g>
<g style="fill:#FFFFFF; fill-opacity:1.0; 
stroke:#FFFFFF; stroke-width:0; stroke-opacity:1; 
stroke-linecap:round; stroke-linejoin:round;">
<circle cx="80090" cy="33975" r="68.8976" /> 
</g>
<g style="fill:#FFFFFF; fill-opacity:1.0; 
stroke:#FFFFFF; stroke-width:39.3701; stroke-opacity:1; 
stroke-linecap:round; stroke-linejoin:round;">
</g>
<g style="fill:#FFFFFF; fill-opacity:1.0; 
stroke:#FFFFFF; stroke-width:0; stroke-opacity:1; 
stroke-linecap:round; stroke-linejoin:round;">
<circle cx="78474" cy="31768" r="68.8976" /> 
</g>
<g style="fill:#FFFFFF; fill-opacity:1.0; 
stroke:#FFFFFF; stroke-width:39.3701; stroke-opacity:1; 
stroke-linecap:round; stroke-linejoin:round;">
</g>
<g style="fill:#FFFFFF; fill-opacity:1.0; 
stroke:#FFFFFF; stroke-width:0; stroke-opacity:1; 
stroke-linecap:round; stroke-linejoin:round;">
<circle cx="68280" cy="31465" r="68.8976" /> 
</g>
<g style="fill:#FFFFFF; fill-opacity:1.0; 
stroke:#FFFFFF; stroke-width:39.3701; stroke-opacity:1; 
stroke-linecap:round; stroke-linejoin:round;">
</g>
<g style="fill:#FFFFFF; fill-opacity:1.0; 
stroke:#FFFFFF; stroke-width:0; stroke-opacity:1; 
stroke-linecap:round; stroke-linejoin:round;">
<circle cx="64042" cy="31372" r="68.8976" /> 
</g>
<g style="fill:#FFFFFF; fill-opacity:1.0; 
stroke:#FFFFFF; stroke-width:39.3701; stroke-opacity:1; 
stroke-linecap:round; stroke-linejoin:round;">
</g>
<g style="fill:#FFFFFF; fill-opacity:1.0; 
stroke:#FFFFFF; stroke-width:0; stroke-opacity:1; 
stroke-linecap:round; stroke-linejoin:round;">
<circle cx="79670" cy="32175" r="68.8976" /> 
</g>
<g style="fill:#FFFFFF; fill-opacity:1.0; 
stroke:#FFFFFF; stroke-width:39.3701; stroke-opacity:1; 
stroke-linecap:round; stroke-linejoin:round;">
</g>
<g style="fill:#FFFFFF; fill-opacity:1.0; 
stroke:#FFFFFF; stroke-width:0; stroke-opacity:1; 
stroke-linecap:round; stroke-linejoin:round;">
<circle cx="68195" cy="30675" r="68.8976" /> 
</g>
<g style="fill:#FFFFFF; fill-opacity:1.0; 
stroke:#FFFFFF; stroke-width:39.3701; stroke-opacity:1; 
stroke-linecap:round; stroke-linejoin:round;">
</g>
<g style="fill:#FFFFFF; fill-opacity:1.0; 
stroke:#FFFFFF; stroke-width:0; stroke-opacity:1; 
stroke-linecap:round; stroke-linejoin:round;">
<circle cx="63261" cy="30844" r="68.8976" /> 
</g>
<g style="fill:#FFFFFF; fill-opacity:1.0; 
stroke:#FFFFFF; stroke-width:39.3701; stroke-opacity:1; 
stroke-linecap:round; stroke-linejoin:round;">
</g>
<g style="fill:#FFFFFF; fill-opacity:1.0; 
stroke:#FFFFFF; stroke-width:0; stroke-opacity:1; 
stroke-linecap:round; stroke-linejoin:round;">
<circle cx="76625" cy="24165" r="68.8976" /> 
</g>
<g style="fill:#FFFFFF; fill-opacity:1.0; 
stroke:#FFFFFF; stroke-width:39.3701; stroke-opacity:1; 
stroke-linecap:round; stroke-linejoin:round;">
</g>
<g style="fill:#FFFFFF; fill-opacity:1.0; 
stroke:#FFFFFF; stroke-width:0; stroke-opacity:1; 
stroke-linecap:round; stroke-linejoin:round;">
<circle cx="77240" cy="29535" r="68.8976" /> 
</g>
<g style="fill:#FFFFFF; fill-opacity:1.0; 
stroke:#FFFFFF; stroke-width:39.3701; stroke-opacity:1; 
stroke-linecap:round; stroke-linejoin:round;">
</g>
<g style="fill:#FFFFFF; fill-opacity:1.0; 
stroke:#FFFFFF; stroke-width:0; stroke-opacity:1; 
stroke-linecap:round; stroke-linejoin:round;">
<circle cx="75900" cy="29568" r="68.8976" /> 
</g>
<g style="fill:#FFFFFF; fill-opacity:1.0; 
stroke:#FFFFFF; stroke-width:39.3701; stroke-opacity:1; 
stroke-linecap:round; stroke-linejoin:round;">
</g>
<g style="fill:#FFFFFF; fill-opacity:1.0; 
stroke:#FFFFFF; stroke-width:0; stroke-opacity:1; 
stroke-linecap:round; stroke-linejoin:round;">
<circle cx="77946" cy="24123" r="68.8976" /> 
</g>
<g style="fill:#FFFFFF; fill-opacity:1.0; 
stroke:#FFFFFF; stroke-width:39.3701; stroke-opacity:1; 
stroke-linecap:round; stroke-linejoin:round;">
</g>
<g style="fill:#FFFFFF; fill-opacity:1.0; 
stroke:#FFFFFF; stroke-width:0; stroke-opacity:1; 
stroke-linecap:round; stroke-linejoin:round;">
<circle cx="75740" cy="35310" r="68.8976" /> 
</g>
<g style="fill:#FFFFFF; fill-opacity:1.0; 
stroke:#FFFFFF; stroke-width:39.3701; stroke-opacity:1; 
stroke-linecap:round; stroke-linejoin:round;">
</g>
<g style="fill:#FFFFFF; fill-opacity:1.0; 
stroke:#FFFFFF; stroke-width:0; stroke-opacity:1; 
stroke-linecap:round; stroke-linejoin:round;">
<circle cx="80069" cy="34716" r="68.8976" /> 
</g>
<g style="fill:#FFFFFF; fill-opacity:1.0; 
stroke:#FFFFFF; stroke-width:39.3701; stroke-opacity:1; 
stroke-linecap:round; stroke-linejoin:round;">
</g>
<g style="fill:#FFFFFF; fill-opacity:1.0; 
stroke:#FFFFFF; stroke-width:0; stroke-opacity:1; 
stroke-linecap:round; stroke-linejoin:round;">
<circle cx="85640" cy="30645" r="68.8976" /> 
</g>
<g style="fill:#FFFFFF; fill-opacity:1.0; 
stroke:#FFFFFF; stroke-width:39.3701; stroke-opacity:1; 
stroke-linecap:round; stroke-linejoin:round;">
</g>
<g style="fill:#FFFFFF; fill-opacity:1.0; 
stroke:#FFFFFF; stroke-width:0; stroke-opacity:1; 
stroke-linecap:round; stroke-linejoin:round;">
<circle cx="84832" cy="31262" r="68.8976" /> 
</g>
<g style="fill:#FFFFFF; fill-opacity:1.0; 
stroke:#FFFFFF; stroke-width:39.3701; stroke-opacity:1; 
stroke-linecap:round; stroke-linejoin:round;">
</g>
<g style="fill:#FFFFFF; fill-opacity:1.0; 
stroke:#FFFFFF; stroke-width:0; stroke-opacity:1; 
stroke-linecap:round; stroke-linejoin:round;">
<circle cx="83082" cy="28864" r="68.8976" /> 
</g>
<g style="fill:#FFFFFF; fill-opacity:1.0; 
stroke:#FFFFFF; stroke-width:39.3701; stroke-opacity:1; 
stroke-linecap:round; stroke-linejoin:round;">
</g>
<g style="fill:#FFFFFF; fill-opacity:1.0; 
stroke:#FFFFFF; stroke-width:0; stroke-opacity:1; 
stroke-linecap:round; stroke-linejoin:round;">
<circle cx="87796.1" cy="25196.9" r="68.8976" /> 
</g>
<g style="fill:#FFFFFF; fill-opacity:1.0; 
stroke:#FFFFFF; stroke-width:39.3701; stroke-opacity:1; 
stroke-linecap:round; stroke-linejoin:round;">
</g>
<g style="fill:#FFFFFF; fill-opacity:1.0; 
stroke:#FFFFFF; stroke-width:0; stroke-opacity:1; 
stroke-linecap:round; stroke-linejoin:round;">
<circle cx="74607.2" cy="37795.3" r="68.8976" /> 
</g>
<g style="fill:#FFFFFF; fill-opacity:1.0; 
stroke:#FFFFFF; stroke-width:39.3701; stroke-opacity:1; 
stroke-linecap:round; stroke-linejoin:round;">
</g>
<g style="fill:#FFFFFF; fill-opacity:1.0; 
stroke:#FFFFFF; stroke-width:0; stroke-opacity:1; 
stroke-linecap:round; stroke-linejoin:round;">
<circle cx="61418.2" cy="25196.9" r="68.8976" /> 
</g>
<g style="fill:#FFFFFF; fill-opacity:1.0; 
stroke:#FFFFFF; stroke-width:39.3701; stroke-opacity:1; 
stroke-linecap:round; stroke-linejoin:round;">
</g>
<g style="fill:#FFFFFF; fill-opacity:1.0; 
stroke:#FFFFFF; stroke-width:0; stroke-opacity:1; 
stroke-linecap:round; stroke-linejoin:round;">
<circle cx="93308" cy="19685" r="68.8976" /> 
</g>
<g style="fill:#FFFFFF; fill-opacity:1.0; 
stroke:#FFFFFF; stroke-width:39.3701; stroke-opacity:1; 
stroke-linecap:round; stroke-linejoin:round;">
</g>
<g style="fill:#FFFFFF; fill-opacity:1.0; 
stroke:#FFFFFF; stroke-width:0; stroke-opacity:1; 
stroke-linecap:round; stroke-linejoin:round;">
<circle cx="57874.9" cy="19685" r="68.8976" /> 
</g>
<g style="fill:#FFFFFF; fill-opacity:1.0; 
stroke:#FFFFFF; stroke-width:39.3701; stroke-opacity:1; 
stroke-linecap:round; stroke-linejoin:round;">
</g>
<g style="fill:#FFFFFF; fill-opacity:1.0; 
stroke:#FFFFFF; stroke-width:0; stroke-opacity:1; 
stroke-linecap:round; stroke-linejoin:round;">
<circle cx="75591.4" cy="45275.6" r="68.8976" /> 
</g>
<g style="fill:#FFFFFF; fill-opacity:1.0; 
stroke:#FFFFFF; stroke-width:39.3701; stroke-opacity:1; 
stroke-linecap:round; stroke-linejoin:round;">
</g>
<g style="fill:#000000; fill-opacity:1.0; 
stroke:#000000; stroke-width:39.3701; stroke-opacity:1; 
stroke-linecap:round; stroke-linejoin:round;">
</g> 
</svg>
