M48
METRIC,TZ
T1C0.700
%
G90
G05
T1
X16914Y39642
X16914Y34176
X16955Y37257
X18519Y47595
X18560Y29065
X22644Y41562
X22738Y44940
X22738Y43208
X22794Y53434
X23254Y37671
X24432Y53398
X24920Y38768
X26147Y53406
X27175Y37833
X27516Y43320
X28001Y33805
X28270Y36586
X29053Y49187
X29144Y30833
X30249Y47178
X31623Y43515
X31763Y37117
X33160Y40833
X36307Y44892
X37450Y38986
X39251Y34323
X41633Y57274
X41989Y36614
X42479Y44778
X45761Y45303
X53147Y57655
X53718Y41615
X55034Y58824
X57262Y26642
X58417Y40190
X60881Y40168
X62385Y31026
X65606Y30719
X66408Y33652
X66825Y28966
X73149Y45578
X74958Y45443
X76731Y45540
X78504Y45555
X80239Y45499
X81912Y45578
X85240Y41979
T0
M30
