<?xml version="1.0" standalone="no"?>
<!DOCTYPE svg PUBLIC "-//W3C//DTD SVG 1.1//EN"
"http://www.w3.org/Graphics/SVG/1.1/DTD/svg11.dtd">
<svg width="1169" height="1562" viewBox="0 0 1169 1562" version="1.1"
xmlns="http://www.w3.org/2000/svg"
xmlns:xlink="http://www.w3.org/1999/xlink">
<g fill-rule="evenodd"><path d="M 140.986,1562 L 35.6345,1562 L 33.3319,1561.89 L 31.0274,1561.66 L 26.4723,1560.76 L 24.2596,1560.08 L 19.9843,1558.31 L 17.9436,1557.22 L 14.1061,1554.66 L 12.3172,1553.19 L 9.03526,1549.91 L 7.56818,1548.12 L 5.0038,1544.28 L 3.91249,1542.24 L 2.14161,1537.97 L 1.47003,1535.75 L 0.564605,1531.2 L 0.338747,1528.89 L 0.226818,1526.59 L 0.226818,996.574 L 0.338747,994.271 L 0.564605,991.969 L 1.47003,987.416 L 2.14161,985.203 L 3.91249,980.928 L 5.0038,978.887 L 6.49286,976.66 L 9.52895,976.658 L 13.1786,976.658 L 17.7977,976.658 L 20.7898,976.658 L 23.672,976.658 L 26.2964,976.658 L 28.381,976.658 L 28.383,976.66 L 30.7975,976.66 L 30.8015,976.66 L 32.5104,976.66 L 32.5124,976.66 L 34.835,976.66 L 34.837,976.66 L 36.428,976.658 L 36.43,976.658 L 38.7525,976.658 L 38.7545,976.658 L 40.4634,976.658 L 40.4654,976.658 L 42.8819,976.658 L 42.8839,976.658 L 44.9686,976.658 L 44.9706,976.658 L 47.5929,976.658 L 47.5949,976.658 L 50.4751,976.658 L 50.4871,976.658 L 51.4925,976.658 L 51.8942,977.436 L 52.27,978.132 L 53.0874,979.779 L 53.809,981.368 L 55.39,984.29 L 56.7072,986.362 L 58.608,988.935 L 58.9318,989.191 L 59.9071,989.95 L 62.9172,991.933 L 64.3923,992.748 L 65.1358,992.984 L 69.7909,993.946 L 73.3826,994.305 L 93.5199,994.339 L 94.6872,994.369 L 96.9997,994.487 L 99.3642,994.725 L 101.675,995.073 L 102.89,995.285 L 103.939,996.024 L 105.818,997.417 L 107.651,998.92 L 109.368,1000.48 L 110.211,1001.28 L 169.016,1060.08 L 170.827,1061.57 L 172.644,1062.92 L 174.559,1064.2 L 176.498,1065.36 L 178.698,1065.91 L 180.957,1066.36 L 183.187,1066.69 L 185.508,1066.92 L 909.205,1066.92 L 910.37,1066.95 L 912.683,1067.06 L 915.045,1067.29 L 917.358,1067.64 L 918.593,1067.85 L 919.624,1068.58 L 921.503,1069.97 L 923.336,1071.47 L 925.053,1073.03 L 925.896,1073.83 L 969.853,1117.79 L 970.656,1118.63 L 972.211,1120.35 L 973.714,1122.18 L 975.107,1124.06 L 975.843,1125.1 L 976.057,1126.33 L 976.403,1128.64 L 976.638,1131 L 976.754,1133.32 L 976.784,1134.48 L 976.828,1172.21 L 977.184,1175.79 L 978.148,1180.45 L 978.441,1181.38 L 979.141,1182.7 L 980.912,1185.52 L 981.088,1185.77 L 981.795,1186.79 L 981.963,1187.04 L 983.482,1188.1 L 984.751,1188.91 L 986.856,1190.18 L 987.608,1190.61 L 991.455,1191.53 L 993.884,1191.9 L 994.473,1191.98 L 998.627,1191.3 L 1001.01,1190.68 L 1001.14,1190.65 L 1004.14,1188.88 L 1005.15,1188.17 L 1006.82,1186.89 L 1007.01,1186.66 L 1007.76,1185.68 L 1009.75,1182.67 L 1010.56,1181.2 L 1010.8,1180.45 L 1011.76,1175.78 L 1012.12,1172.2 L 1012.18,1119.7 L 1011.95,1117.39 L 1011.62,1115.13 L 1011.17,1112.87 L 1010.47,1110.21 L 1010.17,1109.64 L 1010.05,1109.41 L 1009.63,1108.61 L 1008.94,1107.21 L 1008,1105.49 L 1007.79,1105.14 L 1006.57,1102.85 L 1005.52,1100.63 L 1004.36,1097.81 L 1003.5,1095.4 L 1002.4,1091.78 L 1001.75,1089.16 L 1000.81,1084.38 L 1000.42,1081.71 L 1000.48,1081.58 L 1003.06,1077.74 L 1004.52,1075.95 L 1007.78,1072.69 L 1009.57,1071.22 L 1013.44,1068.64 L 1015.48,1067.55 L 1015.91,1067.37 L 1020.5,1068.28 L 1023.12,1068.93 L 1027.09,1070.13 L 1029.5,1070.99 L 1032.6,1072.28 L 1034.83,1073.33 L 1037.37,1074.68 L 1039.41,1075.91 L 1041.53,1077.33 L 1043.41,1078.72 L 1045.25,1080.22 L 1046.96,1081.78 L 1047.81,1082.58 L 1058.26,1093.04 L 1059.06,1093.88 L 1060.62,1095.6 L 1062.12,1097.43 L 1063.52,1099.31 L 1064.24,1100.34 L 1064.46,1101.58 L 1064.8,1103.89 L 1065.03,1106.25 L 1065.15,1108.56 L 1065.18,1109.73 L 1065.18,1388.84 L 1065.15,1390.01 L 1065.03,1392.33 L 1064.8,1394.68 L 1064.46,1397 L 1064.24,1398.24 L 1063.51,1399.27 L 1062.12,1401.15 L 1060.61,1402.99 L 1059.06,1404.7 L 1058.26,1405.54 L 1001.22,1462.58 L 1000.38,1463.38 L 998.665,1464.93 L 996.818,1466.45 L 994.939,1467.84 L 993.92,1468.56 L 992.676,1468.78 L 990.362,1469.12 L 987.993,1469.35 L 985.683,1469.47 L 984.527,1469.49 L 170.124,1469.49 L 167.797,1469.72 L 166.592,1469.87 L 164.555,1470.18 L 162.221,1470.66 L 160.23,1471.18 L 159.6,1471.36 L 158.071,1472.23 L 156.324,1473.31 L 154.362,1474.68 L 152.735,1475.95 L 152.663,1476 L 151.239,1477.84 L 150.064,1479.53 L 148.807,1481.55 L 148.036,1482.95 L 147.894,1483.39 L 147.286,1485.72 L 146.87,1487.74 L 146.512,1490.1 L 146.411,1491.13 L 146.512,1492.16 L 146.87,1494.53 L 147.284,1496.55 L 147.894,1498.87 L 148.036,1499.32 L 148.807,1500.72 L 150.064,1502.74 L 151.237,1504.43 L 152.723,1506.33 L 152.801,1506.43 L 154.31,1507.65 L 156.064,1508.93 L 156.262,1509.06 L 157.933,1510.28 L 158.493,1510.72 L 159.988,1511.83 L 160.428,1512.13 L 161.741,1513.08 L 162.578,1513.73 L 164.265,1514.95 L 164.683,1515.23 L 166.194,1516.31 L 167.545,1517.33 L 167.795,1517.52 L 169.858,1519.04 L 173.705,1522.22 L 176.02,1524.31 L 176.278,1524.57 L 176.278,1528.9 L 176.052,1531.2 L 175.148,1535.75 L 174.477,1537.96 L 172.704,1542.24 L 171.613,1544.28 L 169.048,1548.12 L 167.581,1549.91 L 164.299,1553.19 L 162.51,1554.66 L 158.673,1557.22 L 156.632,1558.31 L 152.357,1560.08 L 150.144,1560.76 L 145.591,1561.66 L 143.289,1561.89 L 140.986,1562M 172.304,1390 L 172.454,1391.19 L 172.638,1392.41 L 173.455,1395.92 L 173.691,1396.66 L 174.505,1398.14 L 176.49,1401.15 L 177.249,1402.12 L 177.427,1402.35 L 180.105,1404.3 L 182.19,1405.59 L 183.099,1406.13 L 186.763,1407 L 189.192,1407.37 L 189.781,1407.45 L 193.935,1406.77 L 196.315,1406.15 L 196.449,1406.11 L 200.408,1403.63 L 202.099,1402.32 L 202.307,1402.08 L 205.056,1398.14 L 205.869,1396.66 L 206.105,1395.92 L 206.92,1392.43 L 207.106,1391.21 L 207.258,1390 L 207.488,1387.67 L 207.488,1275.19 L 207.516,1274.04 L 207.628,1271.73 L 207.862,1269.36 L 208.206,1267.04 L 208.421,1265.8 L 209.139,1264.78 L 210.532,1262.9 L 212.045,1261.05 L 213.602,1259.34 L 214.4,1258.5 L 264.952,1207.95 L 265.791,1207.15 L 267.506,1205.6 L 269.343,1204.09 L 271.222,1202.7 L 272.257,1201.97 L 273.492,1201.75 L 275.807,1201.41 L 278.165,1201.18 L 280.482,1201.06 L 281.647,1201.03 L 871.829,1201.03 L 872.994,1201.06 L 875.306,1201.18 L 877.669,1201.41 L 879.981,1201.75 L 881.217,1201.97 L 882.248,1202.69 L 884.127,1204.09 L 885.96,1205.59 L 887.677,1207.14 L 888.52,1207.95 L 939.072,1258.5 L 939.876,1259.34 L 941.431,1261.06 L 942.934,1262.89 L 944.327,1264.77 L 945.052,1265.8 L 945.268,1267.04 L 945.612,1269.35 L 945.844,1271.71 L 945.96,1274.03 L 945.988,1275.19 L 945.988,1378.88 L 946.216,1381.2 L 946.366,1382.39 L 946.549,1383.62 L 947.367,1387.12 L 947.603,1387.86 L 948.416,1389.34 L 951.171,1393.29 L 951.372,1393.52 L 953.071,1394.84 L 957.021,1397.31 L 957.159,1397.35 L 959.535,1397.97 L 963.693,1398.65 L 964.282,1398.57 L 966.711,1398.2 L 970.221,1397.39 L 970.37,1397.34 L 971.318,1396.82 L 974.32,1394.84 L 976.011,1393.53 L 976.219,1393.28 L 978.967,1389.34 L 979.78,1387.87 L 980.016,1387.12 L 980.982,1382.44 L 981.336,1378.86 L 981.397,1260.41 L 981.17,1258.09 L 980.836,1255.84 L 980.386,1253.58 L 979.838,1251.4 L 978.677,1249.46 L 977.398,1247.54 L 976.049,1245.72 L 974.566,1243.92 L 956.167,1225.52 L 955.364,1224.67 L 953.809,1222.96 L 952.306,1221.12 L 950.913,1219.25 L 950.431,1218.58 L 949.761,1218.09 L 947.883,1216.7 L 946.05,1215.2 L 944.333,1213.64 L 943.491,1212.84 L 903.107,1172.46 L 901.296,1170.97 L 900.405,1170.27 L 899.475,1169.58 L 896.625,1167.78 L 895.604,1167.24 L 894.496,1166.9 L 890.093,1166.02 L 886.603,1165.68 L 266.867,1165.62 L 264.538,1165.85 L 262.297,1166.18 L 260.037,1166.63 L 257.848,1167.18 L 255.901,1168.35 L 253.989,1169.63 L 252.176,1170.97 L 250.367,1172.45 L 178.908,1243.91 L 177.423,1245.72 L 176.076,1247.54 L 174.797,1249.45 L 173.635,1251.4 L 173.084,1253.59 L 172.636,1255.85 L 172.306,1258.08 L 172.076,1260.4 L 172.076,1387.68 L 172.304,1390 z " style="fill-opacity:1.000000;fill:rgb(103,198,105);stroke:rgb(0,0,0);stroke-width:2"/></g>
<g fill-rule="evenodd"><path d="M 23.0544,976.66 L 23.672,976.658 L 26.2964,976.658 L 28.381,976.658 L 28.383,976.66 L 30.7975,976.66 L 30.8015,976.66 L 32.5104,976.66 L 32.5124,976.66 L 34.835,976.66 L 34.837,976.66 L 36.428,976.658 L 36.43,976.658 L 38.7525,976.658 L 38.7545,976.658 L 40.4634,976.658 L 40.4654,976.658 L 42.8819,976.658 L 42.8839,976.658 L 44.9686,976.658 L 44.9706,976.658 L 47.5929,976.658 L 47.5949,976.658 L 48.2105,976.658 L 49.6816,977.642 L 51.4685,979.109 L 52.6437,980.216 L 53.6551,981.473 L 54.5885,982.811 L 55.39,984.29 L 56.7072,986.362 L 58.608,988.935 L 58.9318,989.191 L 59.9071,989.95 L 62.9172,991.933 L 64.3923,992.748 L 65.1358,992.984 L 69.7909,993.946 L 72.753,994.241 L 73.3786,994.367 L 93.5199,994.365 L 94.6812,994.423 L 96.9837,994.651 L 99.2503,995.103 L 101.463,995.774 L 103.6,996.66 L 105.64,997.751 L 107.559,999.034 L 109.348,1000.5 L 110.209,1001.28 L 169.016,1060.09 L 169.04,1060.1 L 170.827,1061.57 L 172.644,1062.92 L 174.559,1064.2 L 176.498,1065.36 L 178.698,1065.91 L 180.957,1066.36 L 183.187,1066.69 L 185.476,1066.91 L 185.508,1066.92 L 909.205,1066.92 L 910.366,1066.98 L 912.669,1067.21 L 914.935,1067.66 L 917.148,1068.33 L 919.285,1069.21 L 921.325,1070.31 L 923.244,1071.59 L 925.033,1073.06 L 925.894,1073.84 L 969.851,1117.79 L 970.63,1118.65 L 972.097,1120.44 L 973.381,1122.36 L 974.472,1124.4 L 975.357,1126.54 L 976.029,1128.75 L 976.481,1131.02 L 976.708,1133.32 L 976.766,1134.48 L 976.766,1172.21 L 976.892,1172.85 L 977.184,1175.79 L 978.148,1180.45 L 978.441,1181.38 L 979.141,1182.7 L 980.912,1185.52 L 981.088,1185.77 L 981.795,1186.79 L 981.919,1186.98 L 981.949,1187.06 L 982.023,1187.09 L 983.482,1188.1 L 984.751,1188.91 L 986.856,1190.18 L 987.608,1190.61 L 991.455,1191.53 L 993.884,1191.9 L 994.473,1191.98 L 998.627,1191.3 L 1001.01,1190.68 L 1001.14,1190.65 L 1004.14,1188.88 L 1005.15,1188.17 L 1006.82,1186.89 L 1007.01,1186.66 L 1007.76,1185.68 L 1009.75,1182.67 L 1010.56,1181.2 L 1010.8,1180.45 L 1011.76,1175.78 L 1012.05,1172.84 L 1012.18,1172.2 L 1012.18,1119.7 L 1012.17,1119.66 L 1011.95,1117.39 L 1011.62,1115.13 L 1011.17,1112.87 L 1010.47,1110.21 L 1010.17,1109.64 L 1010.05,1109.41 L 1009.63,1108.61 L 1008.94,1107.21 L 1008.88,1107.1 L 1008.24,1105.01 L 1007.79,1102.73 L 1007.56,1100.43 L 1007.56,1098.12 L 1007.79,1095.82 L 1008.24,1093.55 L 1008.91,1091.33 L 1009.8,1089.19 L 1010.89,1087.15 L 1012.18,1085.23 L 1013.65,1083.44 L 1015.28,1081.81 L 1017.06,1080.34 L 1019,1079.05 L 1021.04,1077.96 L 1023.17,1077.08 L 1025.39,1076.41 L 1027.66,1075.95 L 1029.96,1075.73 L 1032.27,1075.73 L 1034.57,1075.95 L 1036.84,1076.41 L 1039.06,1077.08 L 1041.19,1077.96 L 1043.23,1079.05 L 1045.15,1080.34 L 1046.94,1081.8 L 1047.8,1082.58 L 1058.26,1093.04 L 1059.04,1093.9 L 1060.51,1095.69 L 1061.79,1097.61 L 1062.88,1099.65 L 1063.77,1101.78 L 1064.44,1104 L 1064.89,1106.26 L 1065.12,1108.57 L 1065.17,1109.73 L 1065.17,1388.84 L 1065.12,1390.01 L 1064.89,1392.31 L 1064.44,1394.57 L 1063.77,1396.79 L 1062.88,1398.93 L 1061.79,1400.97 L 1060.5,1402.9 L 1059.03,1404.68 L 1058.26,1405.54 L 1001.22,1462.58 L 1000.36,1463.36 L 998.573,1464.82 L 996.64,1466.12 L 994.599,1467.2 L 992.466,1468.09 L 990.252,1468.76 L 987.979,1469.21 L 985.679,1469.44 L 984.527,1469.49 L 170.124,1469.49 L 170.114,1469.49 L 167.797,1469.72 L 166.592,1469.87 L 164.555,1470.18 L 162.221,1470.66 L 160.23,1471.18 L 159.6,1471.36 L 158.071,1472.23 L 156.324,1473.31 L 154.362,1474.68 L 152.735,1475.95 L 152.663,1476 L 151.239,1477.84 L 150.064,1479.53 L 148.807,1481.55 L 148.036,1482.95 L 147.894,1483.39 L 147.286,1485.72 L 146.87,1487.74 L 146.512,1490.1 L 146.411,1491.13 L 146.512,1492.16 L 146.87,1494.53 L 147.284,1496.55 L 147.894,1498.87 L 148.036,1499.32 L 148.807,1500.72 L 150.064,1502.74 L 151.237,1504.43 L 152.723,1506.33 L 152.801,1506.43 L 154.31,1507.65 L 156.064,1508.93 L 156.262,1509.06 L 157.933,1510.28 L 158.203,1510.49 L 158.451,1510.76 L 159.918,1512.54 L 161.205,1514.47 L 162.297,1516.51 L 163.182,1518.65 L 163.854,1520.86 L 164.305,1523.14 L 164.531,1525.44 L 164.531,1527.74 L 164.305,1530.05 L 163.854,1532.32 L 163.182,1534.53 L 162.297,1536.67 L 161.205,1538.72 L 159.922,1540.63 L 158.455,1542.42 L 156.814,1544.06 L 155.025,1545.53 L 153.106,1546.81 L 151.066,1547.91 L 148.929,1548.79 L 146.716,1549.46 L 144.44,1549.91 L 142.137,1550.14 L 140.986,1550.2 L 35.6345,1550.2 L 34.4832,1550.14 L 32.1786,1549.91 L 29.9001,1549.46 L 27.6875,1548.79 L 25.5508,1547.91 L 23.5101,1546.81 L 21.5913,1545.53 L 19.8025,1544.06 L 18.1615,1542.42 L 16.6944,1540.63 L 15.4112,1538.72 L 14.3199,1536.67 L 13.4345,1534.54 L 12.7629,1532.33 L 12.3112,1530.05 L 12.0853,1527.74 L 12.0294,1526.59 L 12.0294,996.574 L 12.0853,995.423 L 12.3112,993.12 L 12.7629,990.844 L 13.4345,988.631 L 14.3199,986.494 L 15.4112,984.454 L 16.6944,982.535 L 18.1615,980.746 L 19.8025,979.105 L 21.5913,977.638 L 23.0544,976.66M 887.197,1165.74 L 886.607,1165.62 L 266.867,1165.62 L 266.845,1165.63 L 264.538,1165.85 L 262.297,1166.18 L 260.037,1166.63 L 257.848,1167.18 L 255.901,1168.35 L 253.989,1169.63 L 252.176,1170.97 L 250.387,1172.44 L 250.367,1172.45 L 178.906,1243.91 L 178.894,1243.93 L 177.423,1245.72 L 176.076,1247.54 L 174.797,1249.45 L 173.635,1251.4 L 173.084,1253.59 L 172.636,1255.85 L 172.306,1258.08 L 172.08,1260.37 L 172.074,1260.4 L 172.074,1387.68 L 172.08,1387.71 L 172.304,1390 L 172.454,1391.19 L 172.638,1392.41 L 173.455,1395.92 L 173.691,1396.66 L 174.505,1398.14 L 176.49,1401.15 L 177.249,1402.12 L 177.427,1402.35 L 180.105,1404.3 L 182.19,1405.59 L 183.099,1406.13 L 186.763,1407 L 189.192,1407.37 L 189.781,1407.45 L 193.935,1406.77 L 196.315,1406.15 L 196.449,1406.11 L 200.408,1403.63 L 202.099,1402.32 L 202.307,1402.08 L 205.056,1398.14 L 205.869,1396.66 L 206.105,1395.92 L 206.92,1392.43 L 207.106,1391.21 L 207.258,1390 L 207.486,1387.69 L 207.49,1387.67 L 207.49,1275.19 L 207.546,1274.04 L 207.772,1271.74 L 208.224,1269.47 L 208.895,1267.25 L 209.777,1265.12 L 210.866,1263.08 L 212.157,1261.15 L 213.626,1259.36 L 214.402,1258.5 L 264.954,1207.95 L 265.809,1207.17 L 267.596,1205.71 L 269.521,1204.42 L 271.562,1203.33 L 273.702,1202.44 L 275.917,1201.77 L 278.179,1201.32 L 280.484,1201.09 L 281.647,1201.03 L 871.829,1201.03 L 872.99,1201.09 L 875.292,1201.32 L 877.559,1201.77 L 879.772,1202.44 L 881.908,1203.33 L 883.949,1204.42 L 885.868,1205.7 L 887.657,1207.17 L 888.518,1207.95 L 939.07,1258.5 L 939.85,1259.36 L 941.317,1261.15 L 942.6,1263.07 L 943.691,1265.11 L 944.577,1267.25 L 945.248,1269.46 L 945.7,1271.73 L 945.928,1274.03 L 945.986,1275.19 L 945.986,1378.88 L 945.992,1378.91 L 946.216,1381.2 L 946.366,1382.39 L 946.549,1383.62 L 947.367,1387.12 L 947.603,1387.86 L 948.416,1389.34 L 951.171,1393.29 L 951.372,1393.52 L 953.071,1394.84 L 957.021,1397.31 L 957.159,1397.35 L 959.535,1397.97 L 963.693,1398.65 L 964.282,1398.57 L 966.711,1398.2 L 970.221,1397.39 L 970.37,1397.34 L 971.318,1396.82 L 974.32,1394.84 L 976.011,1393.53 L 976.219,1393.28 L 978.967,1389.34 L 979.78,1387.87 L 980.016,1387.12 L 980.982,1382.44 L 981.27,1379.53 L 981.401,1378.87 L 981.401,1260.41 L 981.393,1260.38 L 981.17,1258.09 L 980.836,1255.84 L 980.386,1253.58 L 979.838,1251.4 L 978.677,1249.46 L 977.398,1247.54 L 976.049,1245.72 L 974.576,1243.93 L 974.568,1243.92 L 956.167,1225.52 L 955.388,1224.65 L 953.921,1222.87 L 952.638,1220.95 L 951.546,1218.91 L 951.123,1217.88 L 950.101,1217.46 L 948.061,1216.37 L 946.142,1215.09 L 944.353,1213.62 L 943.491,1212.84 L 903.107,1172.45 L 903.095,1172.45 L 901.296,1170.97 L 900.405,1170.27 L 899.475,1169.58 L 896.625,1167.78 L 895.604,1167.24 L 894.496,1166.9 L 890.093,1166.02 L 887.197,1165.74 z " style="fill:none;stroke:rgb(0,0,0);stroke-width:1"/></g>
<g fill-rule="evenodd"><path d="M 0.226818,956.741 L 0.226818,35.4066 L 0.338747,33.1041 L 0.564605,30.8016 L 1.47003,26.2484 L 2.14161,24.0358 L 3.91249,19.7605 L 5.0038,17.7198 L 7.56818,13.8822 L 9.03526,12.0934 L 12.3172,8.81144 L 14.1061,7.34436 L 17.9436,4.77998 L 19.9843,3.68867 L 24.2596,1.91779 L 26.4723,1.24621 L 31.0054,0.342784 L 33.3099,0.114927 L 35.6345,-0.000999369 L 1133.37,-0.000999369 L 1135.69,0.114927 L 1137.99,0.342784 L 1142.52,1.24621 L 1144.74,1.91779 L 1149.01,3.68867 L 1151.05,4.77998 L 1154.89,7.34436 L 1156.68,8.81144 L 1159.96,12.0934 L 1161.43,13.8822 L 1163.99,17.7198 L 1165.08,19.7605 L 1166.85,24.0358 L 1167.53,26.2484 L 1168.43,30.7796 L 1168.66,33.0821 L 1168.77,35.4066 L 1168.77,1526.59 L 1168.48,1530.3 L 1167.9,1533.94 L 1167.04,1537.54 L 1165.62,1540.95 L 1163.95,1544.24 L 1162.01,1547.4 L 1159.6,1550.22 L 1156.99,1552.83 L 1154.17,1555.24 L 1151.01,1557.18 L 1147.72,1558.85 L 1144.3,1560.27 L 1140.7,1561.13 L 1137.06,1561.71 L 1133.37,1562 L 1030.08,1562 L 1027.77,1561.89 L 1025.47,1561.66 L 1020.92,1560.76 L 1018.71,1560.09 L 1014.43,1558.31 L 1012.39,1557.22 L 1008.55,1554.66 L 1006.76,1553.19 L 1003.48,1549.91 L 1002.01,1548.12 L 999.448,1544.28 L 998.357,1542.24 L 996.586,1537.97 L 995.914,1535.75 L 995.009,1531.2 L 994.783,1528.9 L 994.783,1524.57 L 995.041,1524.31 L 997.353,1522.22 L 1001.2,1519.05 L 1003.27,1517.51 L 1003.52,1517.33 L 1006.13,1515.36 L 1006.33,1515.21 L 1008.39,1513.69 L 1009.54,1512.87 L 1010.64,1512.14 L 1012.56,1510.72 L 1013.52,1509.94 L 1015,1508.82 L 1016.64,1507.69 L 1018.44,1506.31 L 1020.09,1504.92 L 1100.47,1424.53 L 1101.96,1422.73 L 1103.3,1420.91 L 1105.43,1417.72 L 1106.59,1415.79 L 1107.15,1413.59 L 1107.89,1409.82 L 1108.23,1407.58 L 1108.46,1405.26 L 1108.36,1093.32 L 1107.94,1089.06 L 1107.37,1085.76 L 1106.9,1083.88 L 1106.6,1082.79 L 1105.43,1080.85 L 1103.3,1077.66 L 1101.96,1075.85 L 1100.48,1074.05 L 985.033,958.602 L 983.23,957.121 L 981.415,955.776 L 978.225,953.643 L 976.287,952.482 L 974.094,951.932 L 970.33,951.183 L 968.09,950.851 L 965.763,950.621 L 217.318,950.621 L 216.163,950.593 L 213.848,950.479 L 211.475,950.245 L 209.163,949.901 L 207.924,949.688 L 206.894,948.962 L 205.016,947.569 L 203.183,946.066 L 201.468,944.511 L 200.624,943.707 L 143.582,886.665 L 142.779,885.822 L 141.224,884.107 L 139.721,882.274 L 138.328,880.395 L 137.602,879.366 L 137.388,878.127 L 137.044,875.814 L 136.811,873.442 L 136.697,871.127 L 136.669,869.972 L 136.669,121.528 L 136.439,119.198 L 136.289,117.993 L 135.979,115.958 L 135.499,113.625 L 134.98,111.635 L 134.806,111.005 L 133.934,109.476 L 132.849,107.729 L 131.482,105.768 L 130.215,104.139 L 130.161,104.069 L 128.32,102.644 L 126.635,101.469 L 124.612,100.212 L 123.217,99.4422 L 122.767,99.2983 L 120.441,98.6907 L 118.426,98.277 L 116.058,97.9172 L 115.028,97.8173 L 113.999,97.9172 L 111.63,98.277 L 109.616,98.6907 L 107.289,99.2983 L 106.84,99.4402 L 105.442,100.212 L 103.422,101.469 L 101.735,102.644 L 99.8959,104.067 L 99.8419,104.139 L 98.5747,105.766 L 97.2076,107.729 L 96.1223,109.476 L 95.2508,111.005 L 95.0769,111.633 L 94.5573,113.625 L 94.0756,115.968 L 93.7658,118.005 L 93.6179,119.198 L 93.39,121.516 L 93.39,886.395 L 93.6179,888.712 L 93.9477,890.945 L 94.6952,894.71 L 95.2468,896.911 L 96.4101,898.852 L 98.5408,902.042 L 99.8879,903.854 L 101.365,905.655 L 114.363,918.653 L 115.166,919.497 L 116.721,921.213 L 118.224,923.046 L 119.619,924.925 L 121.037,927.048 L 122.262,929.093 L 123.613,931.621 L 124.662,933.844 L 125.957,936.976 L 126.819,939.388 L 128.014,943.346 L 128.67,945.962 L 129.575,950.551 L 129.391,950.995 L 128.3,953.035 L 128.296,953.039 L 123.337,954.107 L 122.56,954.269 L 121.864,954.407 L 119.677,954.896 L 115.966,955.824 L 115.954,955.826 L 113.485,956.443 L 113.483,956.443 L 110.643,957.155 L 110.633,957.157 L 108.329,957.734 L 105.824,958.234 L 103.512,958.578 L 101.141,958.812 L 98.8266,958.924 L 97.6733,958.952 L 73.3886,958.952 L 71.0581,959.182 L 69.8469,959.333 L 68.6256,959.519 L 65.1358,960.335 L 64.3943,960.569 L 62.9172,961.384 L 58.9757,964.132 L 58.6439,964.418 L 57.3867,966.001 L 54.7904,970.089 L 53.849,971.981 L 53.6831,972.309 L 52.222,975.139 L 51.4925,976.658 L 50.4871,976.658 L 50.4751,976.658 L 47.5949,976.658 L 47.5929,976.658 L 44.9706,976.658 L 44.9686,976.658 L 42.8839,976.658 L 42.8819,976.658 L 40.4654,976.658 L 40.4634,976.658 L 38.7545,976.658 L 38.7525,976.658 L 36.43,976.658 L 36.428,976.658 L 34.837,976.66 L 34.835,976.66 L 32.5124,976.66 L 32.5104,976.66 L 30.8015,976.66 L 30.7975,976.66 L 28.383,976.66 L 28.381,976.658 L 26.2964,976.658 L 23.672,976.658 L 20.7898,976.658 L 17.7977,976.658 L 13.1786,976.658 L 9.52895,976.658 L 6.49286,976.66 L 5.0038,974.432 L 3.91249,972.391 L 2.13961,968.11 L 1.46803,965.895 L 0.564605,961.348 L 0.338747,959.046 L 0.226818,956.741M 341.659,247.645 L 341.777,250.053 L 343.616,254.49 L 347.014,257.886 L 351.451,259.725 L 353.858,259.843 L 442.837,259.843 L 511.238,259.843 L 513.643,259.725 L 518.078,257.888 L 521.478,254.49 L 523.317,250.049 L 523.437,247.645 L 523.437,113.873 L 523.317,111.475 L 521.48,107.033 L 518.082,103.636 L 513.639,101.795 L 511.238,101.677 L 353.858,101.677 L 351.457,101.795 L 347.014,103.634 L 343.616,107.031 L 341.777,111.469 L 341.659,113.873 L 341.659,247.645M 656.423,247.645 L 656.541,250.053 L 658.377,254.488 L 661.775,257.886 L 666.212,259.725 L 668.621,259.843 L 826.002,259.843 L 828.404,259.725 L 832.839,257.888 L 836.239,254.49 L 838.08,250.051 L 838.198,247.645 L 838.198,113.873 L 838.08,111.475 L 836.241,107.033 L 832.843,103.636 L 828.4,101.795 L 826.002,101.677 L 668.621,101.677 L 666.218,101.795 L 661.775,103.636 L 658.377,107.033 L 656.541,111.469 L 656.423,113.873 L 656.423,247.645M 326.899,522.187 L 326.943,522.639 L 326.943,527.246 L 326.899,527.7 L 325.04,529.385 L 321.07,532.657 L 318.756,534.374 L 316.481,535.943 L 315.664,536.464 L 313.527,537.949 L 311.336,539.61 L 309.528,541.117 L 308.636,541.931 L 306.238,544.463 L 304.401,548.901 L 304.283,551.305 L 304.283,598.519 L 304.401,600.926 L 306.236,605.359 L 308.634,607.891 L 309.524,608.705 L 311.334,610.214 L 313.521,611.873 L 315.656,613.356 L 316.481,613.881 L 318.754,615.451 L 321.068,617.165 L 325.038,620.437 L 326.899,622.124 L 326.943,622.576 L 326.943,627.183 L 326.899,627.635 L 325.04,629.322 L 321.07,632.594 L 318.756,634.311 L 316.481,635.88 L 315.662,636.401 L 313.527,637.884 L 311.336,639.547 L 309.528,641.052 L 308.636,641.868 L 306.238,644.4 L 304.401,648.837 L 304.283,651.24 L 304.283,698.454 L 304.401,700.863 L 306.238,705.296 L 308.634,707.828 L 309.526,708.642 L 311.334,710.151 L 313.523,711.81 L 315.656,713.293 L 316.481,713.816 L 318.756,715.385 L 321.07,717.102 L 325.04,720.374 L 326.899,722.061 L 326.943,722.513 L 326.943,727.12 L 326.899,727.572 L 325.04,729.259 L 321.07,732.531 L 318.756,734.248 L 316.481,735.817 L 315.662,736.338 L 313.527,737.821 L 311.336,739.484 L 309.528,740.989 L 308.636,741.805 L 306.238,744.337 L 304.401,748.774 L 304.283,751.177 L 304.283,798.391 L 304.401,800.8 L 306.238,805.235 L 309.638,808.633 L 314.073,810.471 L 316.481,810.589 L 438.448,810.589 L 440.853,810.471 L 445.29,808.635 L 448.686,805.237 L 450.527,800.796 L 450.646,798.391 L 450.646,751.177 L 450.033,745.712 L 449.745,744.427 L 449.101,742.041 L 448.102,738.875 L 447.139,736.164 L 445.226,731.315 L 443.909,728.223 L 444.007,728.041 L 446.587,724.178 L 448.054,722.391 L 451.316,719.129 L 453.105,717.66 L 456.963,715.082 L 459.001,713.992 L 463.257,712.229 L 465.471,711.556 L 470.036,710.646 L 472.339,710.421 L 473.866,710.421 L 476.674,713.217 L 478.771,715.527 L 480.332,717.338 L 481.567,718.847 L 483.366,720.888 L 485.433,723.053 L 487.165,724.718 L 489.286,726.576 L 490.234,727.366 L 495.062,729.421 L 497.471,729.538 L 553.995,729.538 L 589.929,729.538 L 589.929,729.538 L 589.931,729.538 L 682.388,729.538 L 684.791,729.421 L 689.622,727.368 L 690.567,726.578 L 692.68,724.728 L 694.415,723.063 L 696.487,720.89 L 698.288,718.849 L 699.525,717.338 L 701.084,715.529 L 703.183,713.217 L 705.991,710.421 L 707.516,710.421 L 709.819,710.646 L 714.372,711.552 L 716.585,712.223 L 720.86,713.994 L 722.901,715.086 L 726.76,717.668 L 728.547,719.137 L 731.789,722.379 L 733.258,724.166 L 735.848,728.041 L 735.946,728.223 L 734.629,731.315 L 732.716,736.164 L 731.753,738.875 L 730.384,743.216 L 729.449,747.201 L 729.155,751.177 L 729.257,765.26 L 729.257,765.466 L 729.217,798.391 L 729.335,800.813 L 731.167,805.235 L 734.565,808.633 L 739,810.471 L 741.411,810.589 L 863.378,810.589 L 865.782,810.471 L 870.218,808.635 L 873.617,805.237 L 875.456,800.796 L 875.576,798.391 L 875.576,751.177 L 875.458,748.78 L 873.619,744.339 L 871.219,741.805 L 870.324,740.985 L 868.513,739.478 L 866.332,737.823 L 864.199,736.34 L 863.378,735.817 L 861.099,734.248 L 858.785,732.531 L 854.815,729.259 L 852.957,727.572 L 852.913,727.12 L 852.913,722.513 L 852.957,722.061 L 854.815,720.374 L 858.785,717.102 L 861.099,715.385 L 863.378,713.816 L 864.199,713.293 L 866.332,711.81 L 868.521,710.151 L 870.332,708.642 L 871.221,707.828 L 873.617,705.298 L 875.456,700.857 L 875.576,698.454 L 875.576,651.24 L 875.458,648.843 L 873.619,644.402 L 871.219,641.868 L 870.324,641.048 L 868.513,639.541 L 866.332,637.886 L 864.199,636.403 L 863.378,635.88 L 861.099,634.311 L 858.785,632.594 L 854.815,629.322 L 852.957,627.635 L 852.913,627.183 L 852.913,622.576 L 852.957,622.124 L 854.817,620.437 L 858.787,617.165 L 861.101,615.451 L 863.378,613.879 L 864.199,613.356 L 866.334,611.873 L 868.521,610.214 L 870.332,608.705 L 871.221,607.891 L 873.617,605.361 L 875.456,600.92 L 875.576,598.519 L 875.576,551.305 L 875.456,548.907 L 873.617,544.465 L 871.219,541.931 L 870.322,541.111 L 868.513,539.604 L 866.332,537.951 L 864.197,536.468 L 863.378,535.945 L 861.099,534.374 L 858.785,532.657 L 854.815,529.385 L 852.957,527.7 L 852.913,527.246 L 852.913,522.639 L 852.957,522.187 L 854.815,520.5 L 858.785,517.229 L 861.099,515.512 L 863.378,513.943 L 864.199,513.419 L 866.332,511.936 L 868.521,510.277 L 870.332,508.768 L 871.221,507.954 L 873.617,505.424 L 875.456,500.983 L 875.576,498.58 L 875.576,451.366 L 875.458,448.97 L 873.619,444.528 L 870.22,441.129 L 865.778,439.288 L 863.378,439.17 L 741.411,439.17 L 739.006,439.288 L 734.565,441.129 L 731.167,444.526 L 729.335,448.948 L 729.217,451.368 L 729.257,484.295 L 729.257,484.501 L 729.155,498.58 L 729.449,502.56 L 730.386,506.547 L 731.755,510.891 L 732.72,513.601 L 734.633,518.45 L 735.948,521.536 L 735.848,521.722 L 733.268,525.585 L 731.801,527.372 L 728.539,530.634 L 726.75,532.103 L 722.893,534.681 L 720.854,535.771 L 716.599,537.534 L 714.384,538.207 L 709.819,539.117 L 707.516,539.343 L 705.991,539.343 L 703.181,536.544 L 701.084,534.234 L 699.523,532.421 L 698.29,530.914 L 696.489,528.873 L 694.423,526.709 L 692.69,525.044 L 690.571,523.187 L 689.624,522.395 L 684.787,520.341 L 682.388,520.223 L 589.931,520.223 L 589.929,520.223 L 589.929,520.223 L 497.471,520.223 L 495.07,520.341 L 490.232,522.397 L 489.28,523.189 L 487.167,525.042 L 485.437,526.705 L 483.376,528.865 L 481.577,530.906 L 480.336,532.421 L 478.755,534.254 L 476.654,536.568 L 473.866,539.343 L 472.337,539.343 L 470.034,539.117 L 465.463,538.207 L 463.251,537.534 L 459.001,535.771 L 456.963,534.681 L 453.105,532.103 L 451.316,530.634 L 448.046,527.362 L 446.579,525.573 L 444.011,521.728 L 443.909,521.536 L 445.218,518.462 L 447.137,513.601 L 448.1,510.891 L 449.471,506.547 L 450.409,502.56 L 450.702,498.58 L 450.601,484.499 L 450.601,484.295 L 450.64,451.366 L 450.523,448.954 L 448.688,444.526 L 445.292,441.129 L 440.851,439.288 L 438.448,439.17 L 316.481,439.17 L 314.079,439.288 L 309.638,441.127 L 306.238,444.526 L 304.401,448.964 L 304.283,451.366 L 304.283,498.58 L 304.401,500.989 L 306.238,505.422 L 308.634,507.954 L 309.526,508.768 L 311.334,510.277 L 313.523,511.936 L 315.656,513.419 L 316.481,513.943 L 318.756,515.512 L 321.07,517.229 L 325.04,520.5 L 326.899,522.187 z " style="fill-opacity:1.000000;fill:rgb(115,81,255);stroke:rgb(0,0,0);stroke-width:2"/></g>
<g fill-rule="evenodd"><path d="M 93.39,886.415 L 93.6179,888.712 L 93.9477,890.945 L 94.6952,894.71 L 95.2468,896.911 L 96.4101,898.852 L 98.5408,902.042 L 99.8879,903.854 L 101.345,905.631 L 101.363,905.657 L 114.363,918.655 L 115.142,919.517 L 116.609,921.305 L 117.893,923.224 L 118.984,925.265 L 119.869,927.402 L 120.541,929.614 L 120.993,931.881 L 121.22,934.183 L 121.22,936.508 L 120.993,938.812 L 120.541,941.079 L 119.869,943.292 L 118.984,945.428 L 117.893,947.469 L 116.609,949.388 L 115.142,951.177 L 113.501,952.818 L 111.712,954.285 L 109.794,955.568 L 107.753,956.659 L 105.616,957.545 L 103.404,958.216 L 101.127,958.668 L 98.8246,958.894 L 97.6733,958.95 L 73.3886,958.95 L 73.3686,958.954 L 71.0581,959.182 L 69.8469,959.333 L 68.6256,959.519 L 65.1358,960.335 L 64.3943,960.569 L 62.9172,961.384 L 58.9757,964.132 L 58.6439,964.418 L 57.3867,966.001 L 54.7904,970.089 L 54.5645,970.544 L 53.6551,971.846 L 52.6397,973.105 L 51.4625,974.214 L 49.6736,975.681 L 48.2125,976.658 L 47.5949,976.658 L 47.5929,976.658 L 44.9706,976.658 L 44.9686,976.658 L 42.8839,976.658 L 42.8819,976.658 L 40.4654,976.658 L 40.4634,976.658 L 38.7545,976.658 L 38.7525,976.658 L 36.43,976.658 L 36.428,976.658 L 34.837,976.66 L 34.835,976.66 L 32.5124,976.66 L 32.5104,976.66 L 30.8015,976.66 L 30.7975,976.66 L 28.383,976.66 L 28.381,976.658 L 26.2964,976.658 L 23.672,976.658 L 23.0544,976.658 L 21.5913,975.681 L 19.8025,974.214 L 18.1615,972.573 L 16.6944,970.784 L 15.4112,968.865 L 14.3199,966.825 L 13.4345,964.684 L 12.7629,962.469 L 12.3112,960.197 L 12.0853,957.894 L 12.0294,956.741 L 12.0294,35.4066 L 12.0853,34.2554 L 12.3112,31.9528 L 12.7629,29.6763 L 13.4345,27.4637 L 14.3199,25.327 L 15.4112,23.2863 L 16.6944,21.3675 L 18.1615,19.5786 L 19.8025,17.9377 L 21.5913,16.4706 L 23.5101,15.1874 L 25.5508,14.0961 L 27.6875,13.2107 L 29.9001,12.5391 L 32.1667,12.0874 L 34.4712,11.8595 L 35.6345,11.8016 L 1133.37,11.8016 L 1134.53,11.8595 L 1136.83,12.0874 L 1139.1,12.5391 L 1141.31,13.2107 L 1143.45,14.0961 L 1145.49,15.1874 L 1147.4,16.4706 L 1149.19,17.9377 L 1150.83,19.5786 L 1152.3,21.3675 L 1153.58,23.2863 L 1154.68,25.327 L 1155.56,27.4637 L 1156.23,29.6763 L 1156.68,31.9428 L 1156.91,34.2454 L 1156.97,35.4066 L 1156.97,1526.59 L 1156.82,1528.44 L 1156.24,1532.09 L 1155.81,1533.89 L 1155.11,1535.6 L 1153.43,1538.89 L 1152.46,1540.47 L 1151.26,1541.88 L 1148.65,1544.49 L 1147.24,1545.69 L 1145.66,1546.66 L 1142.37,1548.34 L 1140.65,1549.04 L 1138.86,1549.47 L 1135.21,1550.05 L 1133.37,1550.2 L 1030.08,1550.2 L 1028.93,1550.14 L 1026.62,1549.91 L 1024.35,1549.46 L 1022.14,1548.79 L 1020,1547.91 L 1017.95,1546.81 L 1016.04,1545.53 L 1014.25,1544.06 L 1012.61,1542.42 L 1011.14,1540.63 L 1009.86,1538.72 L 1008.76,1536.67 L 1007.88,1534.54 L 1007.21,1532.33 L 1006.76,1530.05 L 1006.53,1527.75 L 1006.53,1525.44 L 1006.76,1523.14 L 1007.21,1520.87 L 1007.88,1518.65 L 1008.76,1516.51 L 1009.86,1514.47 L 1011.14,1512.55 L 1012.61,1510.76 L 1012.93,1510.42 L 1013.52,1509.94 L 1015,1508.82 L 1016.64,1507.69 L 1018.44,1506.31 L 1020.07,1504.94 L 1020.09,1504.92 L 1100.48,1424.53 L 1100.49,1424.51 L 1101.96,1422.73 L 1103.3,1420.91 L 1105.43,1417.72 L 1106.59,1415.79 L 1107.15,1413.59 L 1107.89,1409.82 L 1108.23,1407.58 L 1108.45,1405.28 L 1108.46,1405.26 L 1108.46,1093.31 L 1108.27,1092.36 L 1107.94,1089.06 L 1107.37,1085.76 L 1106.9,1083.88 L 1106.6,1082.79 L 1105.43,1080.85 L 1103.3,1077.66 L 1101.96,1075.85 L 1100.49,1074.06 L 1100.48,1074.05 L 985.033,958.6 L 985.021,958.592 L 983.23,957.121 L 981.415,955.776 L 978.225,953.643 L 976.287,952.482 L 974.094,951.932 L 970.33,951.183 L 968.09,950.851 L 965.773,950.621 L 965.763,950.619 L 217.318,950.619 L 216.167,950.563 L 213.862,950.337 L 211.583,949.885 L 209.371,949.214 L 207.234,948.328 L 205.193,947.237 L 203.275,945.954 L 201.486,944.487 L 200.624,943.707 L 143.582,886.665 L 142.803,885.804 L 141.336,884.015 L 140.053,882.096 L 138.961,880.055 L 138.076,877.919 L 137.404,875.706 L 136.953,873.428 L 136.727,871.123 L 136.671,869.972 L 136.671,121.528 L 136.669,121.518 L 136.439,119.198 L 136.289,117.993 L 135.979,115.958 L 135.499,113.625 L 134.98,111.635 L 134.806,111.005 L 133.934,109.476 L 132.849,107.729 L 131.482,105.768 L 130.215,104.139 L 130.161,104.069 L 128.32,102.644 L 126.635,101.469 L 124.612,100.212 L 123.217,99.4422 L 122.767,99.2983 L 120.441,98.6907 L 118.426,98.277 L 116.058,97.9172 L 115.028,97.8173 L 113.999,97.9172 L 111.63,98.277 L 109.616,98.6907 L 107.289,99.2983 L 106.84,99.4402 L 105.442,100.212 L 103.422,101.469 L 101.735,102.644 L 99.8959,104.067 L 99.8419,104.139 L 98.5747,105.766 L 97.2076,107.729 L 96.1223,109.476 L 95.2508,111.005 L 95.0769,111.633 L 94.5573,113.625 L 94.0756,115.968 L 93.7658,118.005 L 93.6179,119.198 L 93.392,121.496 L 93.388,121.516 L 93.388,886.395 L 93.39,886.415M 494.967,519.827 L 489.932,521.912 L 488.928,522.783 L 487.885,523.59 L 486.758,524.276 L 484.719,525.365 L 482.582,526.249 L 480.368,526.92 L 478.085,527.374 L 475.783,527.598 L 473.488,527.596 L 471.186,527.37 L 468.901,526.916 L 466.688,526.243 L 464.564,525.361 L 462.525,524.272 L 460.596,522.983 L 458.807,521.514 L 457.172,519.877 L 455.705,518.088 L 454.42,516.165 L 453.331,514.126 L 452.447,511.99 L 451.776,509.775 L 451.408,508.166 L 451.268,506.521 L 450.95,484.495 L 450.95,484.295 L 451.036,448.854 L 449.123,444.237 L 445.582,440.693 L 440.953,438.776 L 313.977,438.774 L 309.346,440.693 L 305.802,444.237 L 303.885,448.86 L 303.887,501.091 L 305.8,505.714 L 308.338,508.25 L 309.114,509.106 L 310.583,510.895 L 311.87,512.819 L 312.961,514.86 L 313.847,517.001 L 314.518,519.215 L 314.97,521.488 L 315.196,523.79 L 315.196,526.095 L 314.97,528.397 L 314.518,530.67 L 313.847,532.885 L 312.963,535.021 L 311.872,537.064 L 310.583,538.993 L 309.116,540.78 L 308.34,541.635 L 305.802,544.173 L 303.885,548.797 L 303.887,601.028 L 305.8,605.651 L 308.338,608.187 L 309.114,609.043 L 310.583,610.831 L 311.87,612.756 L 312.961,614.797 L 313.847,616.938 L 314.518,619.152 L 314.97,621.425 L 315.196,623.727 L 315.196,626.032 L 314.97,628.334 L 314.518,630.607 L 313.847,632.822 L 312.963,634.958 L 311.872,637.001 L 310.583,638.93 L 309.116,640.717 L 308.34,641.572 L 305.802,644.11 L 303.885,648.733 L 303.887,700.965 L 305.8,705.588 L 308.338,708.124 L 309.114,708.979 L 310.583,710.768 L 311.87,712.693 L 312.961,714.734 L 313.847,716.874 L 314.518,719.089 L 314.97,721.362 L 315.196,723.664 L 315.196,725.969 L 314.97,728.271 L 314.518,730.544 L 313.847,732.758 L 312.963,734.895 L 311.872,736.938 L 310.583,738.867 L 309.116,740.653 L 308.34,741.509 L 305.802,744.047 L 303.885,748.67 L 303.887,800.901 L 305.802,805.527 L 309.346,809.07 L 313.969,810.987 L 440.955,810.987 L 445.582,809.07 L 449.123,805.529 L 451.04,800.897 L 451.042,745.712 L 451.098,744.561 L 451.324,742.26 L 451.776,739.988 L 452.447,737.773 L 453.329,735.641 L 454.418,733.6 L 455.709,731.667 L 457.176,729.88 L 458.807,728.249 L 460.596,726.78 L 462.525,725.491 L 464.564,724.402 L 466.69,723.52 L 468.905,722.847 L 471.188,722.393 L 473.49,722.167 L 475.795,722.167 L 478.095,722.393 L 480.358,722.841 L 482.572,723.51 L 484.715,724.396 L 486.756,725.485 L 487.887,726.173 L 488.932,726.982 L 489.934,727.852 L 494.961,729.934 L 553.995,729.934 L 684.893,729.936 L 689.921,727.852 L 690.921,726.984 L 691.962,726.177 L 693.089,725.491 L 695.13,724.4 L 697.281,723.51 L 699.495,722.841 L 701.758,722.393 L 704.061,722.167 L 706.365,722.167 L 708.668,722.393 L 710.944,722.845 L 713.157,723.516 L 715.293,724.402 L 717.334,725.493 L 719.265,726.784 L 721.052,728.253 L 722.673,729.874 L 724.142,731.661 L 725.437,733.6 L 726.526,735.641 L 727.408,737.773 L 728.079,739.988 L 728.447,741.597 L 728.587,743.242 L 728.907,765.266 L 728.907,765.466 L 728.821,800.915 L 730.732,805.527 L 734.273,809.07 L 738.899,810.985 L 865.884,810.985 L 870.509,809.07 L 874.053,805.527 L 875.97,800.897 L 875.972,748.678 L 874.053,744.047 L 871.515,741.509 L 870.735,740.647 L 869.268,738.859 L 867.985,736.94 L 866.894,734.899 L 866.008,732.758 L 865.337,730.544 L 864.885,728.271 L 864.659,725.969 L 864.659,723.664 L 864.885,721.362 L 865.337,719.089 L 866.008,716.874 L 866.894,714.734 L 867.985,712.693 L 869.272,710.768 L 870.741,708.979 L 871.517,708.124 L 874.053,705.588 L 875.972,700.959 L 875.972,648.741 L 874.053,644.11 L 871.515,641.572 L 870.735,640.711 L 869.268,638.922 L 867.985,637.003 L 866.894,634.962 L 866.008,632.822 L 865.337,630.607 L 864.885,628.334 L 864.659,626.032 L 864.659,623.727 L 864.885,621.425 L 865.337,619.152 L 866.008,616.938 L 866.894,614.797 L 867.985,612.756 L 869.272,610.831 L 870.741,609.043 L 871.517,608.187 L 874.053,605.651 L 875.972,601.022 L 875.972,548.805 L 874.053,544.173 L 871.515,541.635 L 870.735,540.774 L 869.268,538.985 L 867.985,537.066 L 866.894,535.025 L 866.008,532.885 L 865.337,530.67 L 864.885,528.397 L 864.659,526.095 L 864.659,523.79 L 864.885,521.488 L 865.337,519.215 L 866.008,517.001 L 866.894,514.86 L 867.985,512.819 L 869.272,510.895 L 870.741,509.106 L 871.517,508.25 L 874.053,505.714 L 875.972,501.085 L 875.972,448.868 L 874.053,444.237 L 870.509,440.693 L 865.88,438.776 L 738.905,438.774 L 734.275,440.693 L 730.732,444.235 L 728.821,448.848 L 728.907,484.295 L 728.907,484.495 L 728.587,506.521 L 728.447,508.166 L 728.079,509.775 L 727.408,511.99 L 726.526,514.122 L 725.437,516.163 L 724.146,518.096 L 722.679,519.883 L 721.048,521.514 L 719.259,522.983 L 717.33,524.272 L 715.291,525.361 L 713.165,526.243 L 710.95,526.916 L 708.668,527.37 L 706.365,527.596 L 704.061,527.596 L 701.76,527.37 L 699.497,526.922 L 697.283,526.253 L 695.14,525.367 L 693.099,524.278 L 691.968,523.59 L 690.923,522.781 L 689.921,521.914 L 684.889,519.825 L 494.967,519.827M 351.355,101.281 L 346.724,103.2 L 343.18,106.742 L 341.266,111.367 L 341.264,250.155 L 343.18,254.782 L 346.722,258.324 L 351.347,260.241 L 442.837,260.239 L 513.745,260.239 L 518.37,258.324 L 521.914,254.782 L 523.83,250.153 L 523.832,111.373 L 521.914,106.744 L 518.372,103.2 L 513.741,101.283 L 351.355,101.281M 666.108,260.241 L 828.506,260.239 L 833.131,258.324 L 836.675,254.782 L 838.592,250.153 L 838.594,111.373 L 836.675,106.744 L 833.133,103.2 L 828.502,101.283 L 666.116,101.281 L 661.485,103.2 L 657.942,106.742 L 656.027,111.367 L 656.025,250.155 L 657.942,254.782 L 661.483,258.324 L 666.108,260.241 z " style="fill:none;stroke:rgb(0,0,0);stroke-width:1"/></g>
<g fill-rule="evenodd"><path d="M 176.278,1524.57 L 176.02,1524.31 L 173.705,1522.22 L 169.858,1519.04 L 167.795,1517.52 L 167.545,1517.33 L 166.194,1516.31 L 164.683,1515.23 L 164.265,1514.95 L 162.578,1513.73 L 161.741,1513.08 L 160.428,1512.13 L 159.988,1511.83 L 158.493,1510.72 L 157.933,1510.28 L 156.262,1509.06 L 156.064,1508.93 L 154.31,1507.65 L 152.801,1506.43 L 152.723,1506.33 L 151.237,1504.43 L 150.064,1502.74 L 148.807,1500.72 L 148.036,1499.32 L 147.894,1498.87 L 147.284,1496.55 L 146.87,1494.53 L 146.512,1492.16 L 146.411,1491.13 L 146.512,1490.1 L 146.87,1487.74 L 147.286,1485.72 L 147.894,1483.39 L 148.036,1482.95 L 148.807,1481.55 L 150.064,1479.53 L 151.239,1477.84 L 152.663,1476 L 152.735,1475.95 L 154.362,1474.68 L 156.324,1473.31 L 158.071,1472.23 L 159.6,1471.36 L 160.23,1471.18 L 162.221,1470.66 L 164.555,1470.18 L 166.592,1469.87 L 167.797,1469.72 L 170.124,1469.49 L 984.527,1469.49 L 985.683,1469.47 L 987.993,1469.35 L 990.362,1469.12 L 992.676,1468.78 L 993.92,1468.56 L 994.939,1467.84 L 996.818,1466.45 L 998.665,1464.93 L 1000.38,1463.38 L 1001.22,1462.58 L 1058.26,1405.54 L 1059.06,1404.7 L 1060.61,1402.99 L 1062.12,1401.15 L 1063.51,1399.27 L 1064.24,1398.24 L 1064.46,1397 L 1064.8,1394.68 L 1065.03,1392.33 L 1065.15,1390.01 L 1065.18,1388.84 L 1065.18,1109.73 L 1065.15,1108.56 L 1065.03,1106.25 L 1064.8,1103.89 L 1064.46,1101.58 L 1064.24,1100.34 L 1063.52,1099.31 L 1062.12,1097.43 L 1060.62,1095.6 L 1059.06,1093.88 L 1058.26,1093.04 L 1047.81,1082.58 L 1046.96,1081.78 L 1045.25,1080.22 L 1043.41,1078.72 L 1041.53,1077.33 L 1039.41,1075.91 L 1037.37,1074.68 L 1034.83,1073.33 L 1032.6,1072.28 L 1029.5,1070.99 L 1027.09,1070.13 L 1023.12,1068.93 L 1020.5,1068.28 L 1015.91,1067.37 L 954.235,1005.7 L 196.651,1005.51 L 193.189,1005.26 L 189.803,1004.5 L 187.958,1003.94 L 184.716,1002.69 L 181.692,1000.97 L 178.502,998.838 L 174.931,995.906 L 129.575,950.553 L 128.67,945.962 L 128.014,943.346 L 126.819,939.388 L 125.957,936.976 L 124.662,933.844 L 123.613,931.621 L 122.262,929.093 L 121.037,927.048 L 119.619,924.925 L 118.224,923.046 L 116.721,921.213 L 115.166,919.497 L 114.363,918.653 L 101.365,905.655 L 99.8879,903.854 L 98.5408,902.042 L 96.4101,898.852 L 95.2468,896.911 L 94.6952,894.71 L 93.9477,890.945 L 93.6179,888.712 L 93.39,886.395 L 93.39,121.516 L 93.6179,119.198 L 93.7658,118.005 L 94.0756,115.968 L 94.5573,113.625 L 95.0769,111.633 L 95.2508,111.005 L 96.1223,109.476 L 97.2076,107.729 L 98.5747,105.766 L 99.8419,104.139 L 99.8959,104.067 L 101.735,102.644 L 103.422,101.469 L 105.442,100.212 L 106.84,99.4402 L 107.289,99.2983 L 109.616,98.6907 L 111.63,98.277 L 113.999,97.9172 L 115.028,97.8173 L 116.058,97.9172 L 118.426,98.277 L 120.441,98.6907 L 122.767,99.2983 L 123.217,99.4422 L 124.612,100.212 L 126.635,101.469 L 128.32,102.644 L 130.161,104.069 L 130.215,104.139 L 131.482,105.768 L 132.849,107.729 L 133.934,109.476 L 134.806,111.005 L 134.98,111.635 L 135.499,113.625 L 135.979,115.958 L 136.289,117.993 L 136.439,119.198 L 136.669,121.528 L 136.669,869.972 L 136.697,871.127 L 136.811,873.442 L 137.044,875.814 L 137.388,878.127 L 137.602,879.366 L 138.328,880.395 L 139.721,882.274 L 141.224,884.107 L 142.779,885.822 L 143.582,886.665 L 200.624,943.707 L 201.468,944.511 L 203.183,946.066 L 205.016,947.569 L 206.894,948.962 L 207.924,949.688 L 209.163,949.901 L 211.475,950.245 L 213.848,950.479 L 216.163,950.593 L 217.318,950.621 L 965.763,950.621 L 968.09,950.851 L 970.33,951.183 L 974.094,951.932 L 976.287,952.482 L 978.225,953.643 L 981.415,955.776 L 983.23,957.121 L 985.033,958.602 L 1100.48,1074.05 L 1101.96,1075.85 L 1103.3,1077.66 L 1105.43,1080.85 L 1106.6,1082.79 L 1106.9,1083.88 L 1107.37,1085.76 L 1107.94,1089.06 L 1108.36,1093.32 L 1108.46,1405.26 L 1108.23,1407.58 L 1107.89,1409.82 L 1107.15,1413.59 L 1106.59,1415.79 L 1105.43,1417.72 L 1103.3,1420.91 L 1101.96,1422.73 L 1100.47,1424.53 L 1020.09,1504.92 L 1018.44,1506.31 L 1016.64,1507.69 L 1015,1508.82 L 1013.52,1509.94 L 1012.56,1510.72 L 1010.64,1512.14 L 1009.54,1512.87 L 1008.39,1513.69 L 1006.33,1515.21 L 1006.13,1515.36 L 1003.52,1517.33 L 1003.27,1517.51 L 1001.2,1519.05 L 997.353,1522.22 L 995.041,1524.31 L 994.783,1524.57 L 176.278,1524.57 z " style="fill-opacity:1.000000;fill:rgb(74,236,41);stroke:rgb(0,0,0);stroke-width:2"/></g>
<g fill-rule="evenodd"><path d="M 170.114,1469.49 L 994.305,1469.49 L 1065.18,1398.62 L 1065.18,1099.95 L 959.126,993.898 L 196.653,993.71 L 194.922,993.582 L 193.229,993.202 L 191.384,992.642 L 189.763,992.017 L 188.252,991.159 L 185.062,989.027 L 183.275,987.562 L 101.345,905.631 L 99.8879,903.854 L 98.5408,902.042 L 96.4101,898.852 L 95.2468,896.911 L 94.6952,894.71 L 93.9477,890.945 L 93.6179,888.712 L 93.392,886.415 L 93.392,121.496 L 93.6179,119.198 L 93.7658,118.005 L 94.0756,115.968 L 94.5573,113.625 L 95.0769,111.633 L 95.2508,111.005 L 96.1223,109.476 L 97.2076,107.729 L 98.5747,105.766 L 99.8419,104.139 L 99.8959,104.067 L 101.735,102.644 L 103.422,101.469 L 105.442,100.212 L 106.84,99.4402 L 107.289,99.2983 L 109.616,98.6907 L 111.63,98.277 L 113.999,97.9172 L 115.028,97.8173 L 116.058,97.9172 L 118.426,98.277 L 120.441,98.6907 L 122.767,99.2983 L 123.217,99.4422 L 124.612,100.212 L 126.635,101.469 L 128.32,102.644 L 130.161,104.069 L 130.215,104.139 L 131.482,105.768 L 132.849,107.729 L 133.934,109.476 L 134.806,111.005 L 134.98,111.635 L 135.499,113.625 L 135.979,115.958 L 136.289,117.993 L 136.439,119.198 L 136.669,121.52 L 136.669,879.752 L 207.538,950.621 L 965.771,950.621 L 968.09,950.851 L 970.33,951.183 L 974.094,951.932 L 976.287,952.482 L 978.225,953.643 L 981.415,955.776 L 983.23,957.121 L 985.021,958.592 L 1100.49,1074.06 L 1101.96,1075.85 L 1103.3,1077.66 L 1105.43,1080.85 L 1106.6,1082.79 L 1106.9,1083.88 L 1107.37,1085.76 L 1107.94,1089.06 L 1108.27,1092.36 L 1108.45,1405.28 L 1108.23,1407.58 L 1107.89,1409.82 L 1107.15,1413.59 L 1106.59,1415.79 L 1105.43,1417.72 L 1103.3,1420.91 L 1101.96,1422.73 L 1100.49,1424.51 L 1020.07,1504.94 L 1018.44,1506.31 L 1016.64,1507.69 L 1015,1508.82 L 1013.52,1509.94 L 1013.04,1510.33 L 1011.55,1511.13 L 1009.33,1511.8 L 1005.57,1512.54 L 1003.27,1512.77 L 167.797,1512.77 L 166.57,1512.71 L 164.523,1512.49 L 163.298,1512.3 L 162.101,1511.98 L 160.146,1511.34 L 158.163,1510.46 L 157.933,1510.28 L 156.262,1509.06 L 156.064,1508.93 L 154.31,1507.65 L 152.801,1506.43 L 152.723,1506.33 L 151.237,1504.43 L 150.064,1502.74 L 148.807,1500.72 L 148.036,1499.32 L 147.894,1498.87 L 147.284,1496.55 L 146.87,1494.53 L 146.512,1492.16 L 146.411,1491.13 L 146.512,1490.1 L 146.87,1487.74 L 147.286,1485.72 L 147.894,1483.39 L 148.036,1482.95 L 148.807,1481.55 L 150.064,1479.53 L 151.239,1477.84 L 152.663,1476 L 152.735,1475.95 L 154.362,1474.68 L 156.324,1473.31 L 158.071,1472.23 L 159.6,1471.36 L 160.23,1471.18 L 162.221,1470.66 L 164.555,1470.18 L 166.592,1469.87 L 167.797,1469.72 L 170.114,1469.49 z " style="fill:none;stroke:rgb(0,0,0);stroke-width:1"/></g>
<g fill-rule="evenodd"><path d="M 172.454,1391.19 L 172.304,1390 L 172.076,1387.68 L 172.076,1260.4 L 172.306,1258.08 L 172.636,1255.85 L 173.084,1253.59 L 173.635,1251.4 L 174.797,1249.45 L 176.076,1247.54 L 177.423,1245.72 L 178.908,1243.91 L 250.367,1172.45 L 252.176,1170.97 L 253.989,1169.63 L 255.901,1168.35 L 257.848,1167.18 L 260.037,1166.63 L 262.297,1166.18 L 264.538,1165.85 L 266.867,1165.62 L 886.603,1165.68 L 890.093,1166.02 L 894.496,1166.9 L 895.604,1167.24 L 896.625,1167.78 L 899.475,1169.58 L 900.405,1170.27 L 901.296,1170.97 L 903.107,1172.46 L 943.491,1212.84 L 944.333,1213.64 L 946.05,1215.2 L 947.883,1216.7 L 949.761,1218.09 L 950.431,1218.58 L 950.913,1219.25 L 952.306,1221.12 L 953.809,1222.96 L 955.364,1224.67 L 956.167,1225.52 L 974.566,1243.92 L 976.049,1245.72 L 977.398,1247.54 L 978.677,1249.46 L 979.838,1251.4 L 980.386,1253.58 L 980.836,1255.84 L 981.17,1258.09 L 981.397,1260.41 L 981.336,1378.86 L 980.982,1382.44 L 980.016,1387.12 L 979.78,1387.87 L 978.967,1389.34 L 976.219,1393.28 L 976.011,1393.53 L 974.32,1394.84 L 971.318,1396.82 L 970.37,1397.34 L 970.221,1397.39 L 966.711,1398.2 L 964.282,1398.57 L 963.693,1398.65 L 959.535,1397.97 L 957.159,1397.35 L 957.021,1397.31 L 953.071,1394.84 L 951.372,1393.52 L 951.171,1393.29 L 948.416,1389.34 L 947.603,1387.86 L 947.367,1387.12 L 946.549,1383.62 L 946.366,1382.39 L 946.216,1381.2 L 945.988,1378.88 L 945.988,1275.19 L 945.96,1274.03 L 945.844,1271.71 L 945.612,1269.35 L 945.268,1267.04 L 945.052,1265.8 L 944.327,1264.77 L 942.934,1262.89 L 941.431,1261.06 L 939.876,1259.34 L 939.072,1258.5 L 888.52,1207.95 L 887.677,1207.14 L 885.96,1205.59 L 884.127,1204.09 L 882.248,1202.69 L 881.217,1201.97 L 879.981,1201.75 L 877.669,1201.41 L 875.306,1201.18 L 872.994,1201.06 L 871.829,1201.03 L 281.647,1201.03 L 280.482,1201.06 L 278.165,1201.18 L 275.807,1201.41 L 273.492,1201.75 L 272.257,1201.97 L 271.222,1202.7 L 269.343,1204.09 L 267.506,1205.6 L 265.791,1207.15 L 264.952,1207.95 L 214.4,1258.5 L 213.602,1259.34 L 212.045,1261.05 L 210.532,1262.9 L 209.139,1264.78 L 208.421,1265.8 L 208.206,1267.04 L 207.862,1269.36 L 207.628,1271.73 L 207.516,1274.04 L 207.488,1275.19 L 207.488,1387.67 L 207.258,1390 L 207.106,1391.21 L 206.92,1392.43 L 206.105,1395.92 L 205.869,1396.66 L 205.056,1398.14 L 202.307,1402.08 L 202.099,1402.32 L 200.408,1403.63 L 196.449,1406.11 L 196.315,1406.15 L 193.935,1406.77 L 189.781,1407.45 L 189.192,1407.37 L 186.763,1407 L 183.099,1406.13 L 182.19,1405.59 L 180.105,1404.3 L 177.427,1402.35 L 177.249,1402.12 L 176.49,1401.15 L 174.505,1398.14 L 173.691,1396.66 L 173.455,1395.92 L 172.638,1392.41 L 172.454,1391.19 z " style="fill-opacity:1.000000;fill:rgb(205,186,171);stroke:rgb(0,0,0);stroke-width:2"/></g>
<g fill-rule="evenodd"><path d="M 887.199,1165.74 L 890.093,1166.02 L 894.496,1166.9 L 895.604,1167.24 L 896.625,1167.78 L 899.475,1169.58 L 900.405,1170.27 L 901.296,1170.97 L 903.095,1172.45 L 974.576,1243.93 L 976.049,1245.72 L 977.398,1247.54 L 978.677,1249.46 L 979.838,1251.4 L 980.386,1253.58 L 980.836,1255.84 L 981.17,1258.09 L 981.393,1260.38 L 981.27,1379.53 L 980.982,1382.44 L 980.016,1387.12 L 979.78,1387.87 L 978.967,1389.34 L 976.219,1393.28 L 976.011,1393.53 L 974.32,1394.84 L 971.318,1396.82 L 970.37,1397.34 L 970.221,1397.39 L 966.711,1398.2 L 964.282,1398.57 L 963.693,1398.65 L 959.535,1397.97 L 957.159,1397.35 L 957.021,1397.31 L 953.071,1394.84 L 951.372,1393.52 L 951.171,1393.29 L 948.416,1389.34 L 947.603,1387.86 L 947.367,1387.12 L 946.549,1383.62 L 946.366,1382.39 L 946.216,1381.2 L 945.992,1378.91 L 945.992,1265.41 L 881.606,1201.03 L 271.867,1201.03 L 207.484,1265.41 L 207.484,1387.69 L 207.258,1390 L 207.106,1391.21 L 206.92,1392.43 L 206.105,1395.92 L 205.869,1396.66 L 205.056,1398.14 L 202.307,1402.08 L 202.099,1402.32 L 200.408,1403.63 L 196.449,1406.11 L 196.315,1406.15 L 193.935,1406.77 L 189.781,1407.45 L 189.192,1407.37 L 186.763,1407 L 183.099,1406.13 L 182.19,1405.59 L 180.105,1404.3 L 177.427,1402.35 L 177.249,1402.12 L 176.49,1401.15 L 174.505,1398.14 L 173.691,1396.66 L 173.455,1395.92 L 172.638,1392.41 L 172.454,1391.19 L 172.304,1390 L 172.078,1387.71 L 172.078,1260.37 L 172.306,1258.08 L 172.636,1255.85 L 173.084,1253.59 L 173.635,1251.4 L 174.797,1249.45 L 176.076,1247.54 L 177.423,1245.72 L 178.894,1243.93 L 250.385,1172.44 L 252.176,1170.97 L 253.989,1169.63 L 255.901,1168.35 L 257.848,1167.18 L 260.037,1166.63 L 262.297,1166.18 L 264.538,1165.85 L 266.845,1165.63 L 887.199,1165.74 z " style="fill:none;stroke:rgb(0,0,0);stroke-width:1"/></g>
<g fill-rule="evenodd"><path d="M 1000.42,1081.71 L 1000.81,1084.38 L 1001.75,1089.16 L 1002.4,1091.78 L 1003.5,1095.4 L 1004.36,1097.81 L 1005.52,1100.63 L 1006.57,1102.85 L 1007.79,1105.14 L 1008,1105.49 L 1008.94,1107.21 L 1009.63,1108.61 L 1010.05,1109.41 L 1010.17,1109.64 L 1010.47,1110.21 L 1011.17,1112.87 L 1011.62,1115.13 L 1011.95,1117.39 L 1012.18,1119.7 L 1012.12,1172.2 L 1011.76,1175.78 L 1010.8,1180.45 L 1010.56,1181.2 L 1009.75,1182.67 L 1007.76,1185.68 L 1007.01,1186.66 L 1006.82,1186.89 L 1005.15,1188.17 L 1004.14,1188.88 L 1001.14,1190.65 L 1001.01,1190.68 L 998.627,1191.3 L 994.473,1191.98 L 993.884,1191.9 L 991.455,1191.53 L 987.608,1190.61 L 986.856,1190.18 L 984.751,1188.91 L 983.482,1188.1 L 981.963,1187.04 L 981.795,1186.79 L 981.088,1185.77 L 980.912,1185.52 L 979.141,1182.7 L 978.441,1181.38 L 978.148,1180.45 L 977.184,1175.79 L 976.828,1172.21 L 976.784,1134.48 L 976.754,1133.32 L 976.638,1131 L 976.403,1128.64 L 976.057,1126.33 L 975.843,1125.1 L 975.107,1124.06 L 973.714,1122.18 L 972.211,1120.35 L 970.656,1118.63 L 969.853,1117.79 L 925.896,1073.83 L 925.053,1073.03 L 923.336,1071.47 L 921.503,1069.97 L 919.624,1068.58 L 918.593,1067.85 L 917.358,1067.64 L 915.045,1067.29 L 912.683,1067.06 L 910.37,1066.95 L 909.205,1066.92 L 185.508,1066.92 L 183.187,1066.69 L 180.957,1066.36 L 178.698,1065.91 L 176.498,1065.36 L 174.559,1064.2 L 172.644,1062.92 L 170.827,1061.57 L 169.016,1060.08 L 110.211,1001.28 L 109.368,1000.48 L 107.651,998.92 L 105.818,997.417 L 103.939,996.024 L 102.89,995.285 L 101.675,995.073 L 99.3642,994.725 L 96.9997,994.487 L 94.6872,994.369 L 93.5199,994.339 L 73.3826,994.305 L 69.7909,993.946 L 65.1358,992.984 L 64.3923,992.748 L 62.9172,991.933 L 59.9071,989.95 L 58.9318,989.191 L 58.608,988.935 L 56.7072,986.362 L 55.39,984.29 L 53.809,981.368 L 53.0874,979.779 L 52.27,978.132 L 51.8942,977.436 L 51.4925,976.658 L 52.222,975.139 L 53.6831,972.309 L 53.849,971.981 L 54.7904,970.089 L 57.3867,966.001 L 58.6439,964.418 L 58.9757,964.132 L 62.9172,961.384 L 64.3943,960.569 L 65.1358,960.335 L 68.6256,959.519 L 69.8469,959.333 L 71.0581,959.182 L 73.3886,958.952 L 97.6733,958.952 L 98.8266,958.924 L 101.141,958.812 L 103.512,958.578 L 105.824,958.234 L 108.329,957.734 L 110.633,957.157 L 110.643,957.155 L 113.483,956.443 L 113.485,956.443 L 115.954,955.826 L 115.966,955.824 L 119.677,954.896 L 121.864,954.407 L 122.56,954.269 L 123.337,954.107 L 128.264,953.045 L 130.583,955.042 L 195.392,1019.71 L 927.47,1019.82 L 932.073,1020.27 L 936.498,1021.62 L 938.626,1022.5 L 941.732,1024.06 L 944.575,1026.06 L 945.468,1026.8 L 947.199,1028.37 L 1000.42,1081.71 z " style="fill-opacity:1.000000;fill:rgb(242,251,227);stroke:rgb(0,0,0);stroke-width:2"/></g>
<g fill-rule="evenodd"><path d="M 1008.85,1107.05 L 1008.94,1107.21 L 1009.63,1108.61 L 1010.05,1109.41 L 1010.17,1109.64 L 1010.47,1110.21 L 1011.17,1112.87 L 1011.62,1115.13 L 1011.95,1117.39 L 1012.17,1119.66 L 1012.05,1172.84 L 1011.76,1175.78 L 1010.8,1180.45 L 1010.56,1181.2 L 1009.75,1182.67 L 1007.76,1185.68 L 1007.01,1186.66 L 1006.82,1186.89 L 1005.15,1188.17 L 1004.14,1188.88 L 1001.14,1190.65 L 1001.01,1190.68 L 998.627,1191.3 L 994.473,1191.98 L 993.884,1191.9 L 991.455,1191.53 L 987.608,1190.61 L 986.856,1190.18 L 984.751,1188.91 L 983.482,1188.1 L 982.077,1187.12 L 981.913,1186.97 L 981.795,1186.79 L 981.088,1185.77 L 980.912,1185.52 L 979.141,1182.7 L 978.441,1181.38 L 978.148,1180.45 L 977.184,1175.79 L 976.892,1172.85 L 976.782,1124.72 L 918.983,1066.91 L 185.478,1066.91 L 183.187,1066.69 L 180.957,1066.36 L 178.698,1065.91 L 176.498,1065.36 L 174.559,1064.2 L 172.644,1062.92 L 170.827,1061.57 L 169.04,1060.1 L 103.28,994.343 L 72.753,994.241 L 69.7909,993.946 L 65.1358,992.984 L 64.3923,992.748 L 62.9172,991.933 L 59.9071,989.95 L 58.9318,989.191 L 58.608,988.935 L 56.7072,986.362 L 55.39,984.29 L 54.2947,982.265 L 53.9929,981.336 L 53.7071,979.713 L 53.4512,977.272 L 53.4512,974.81 L 53.9629,972.399 L 54.5645,970.542 L 54.7904,970.089 L 57.3867,966.001 L 58.6439,964.418 L 58.9757,964.132 L 62.9172,961.384 L 64.3943,960.569 L 65.1358,960.335 L 68.6256,959.519 L 69.8469,959.333 L 71.0581,959.182 L 73.3686,958.956 L 110.633,958.954 L 112.94,959.182 L 115.196,959.631 L 116.865,960.095 L 118.45,960.797 L 119.472,961.342 L 120.935,962.268 L 122.246,963.397 L 190.511,1031.51 L 927.468,1031.62 L 929.77,1031.85 L 931.983,1032.52 L 934.111,1033.4 L 935.664,1034.18 L 937.085,1035.19 L 937.979,1035.92 L 938.844,1036.7 L 1007.73,1105.76 L 1008.85,1107.05 z " style="fill:none;stroke:rgb(0,0,0);stroke-width:1"/></g>
<g fill-rule="evenodd"><path d="M 341.777,250.053 L 341.659,247.645 L 341.659,113.873 L 341.777,111.469 L 343.616,107.031 L 347.014,103.634 L 351.457,101.795 L 353.858,101.677 L 511.238,101.677 L 513.639,101.795 L 518.082,103.636 L 521.48,107.033 L 523.317,111.475 L 523.437,113.873 L 523.437,247.645 L 523.317,250.049 L 521.478,254.49 L 518.078,257.888 L 513.643,259.725 L 511.238,259.843 L 442.837,259.843 L 353.858,259.843 L 351.451,259.725 L 347.014,257.886 L 343.616,254.49 L 341.777,250.053 z " style="fill-opacity:1.000000;fill:rgb(70,124,194);stroke:rgb(0,0,0);stroke-width:2"/></g>
<g fill-rule="evenodd"><path d="M 342.055,247.645 L 342.055,113.873 L 342.281,111.571 L 342.952,109.358 L 344.044,107.317 L 345.511,105.528 L 347.3,104.061 L 349.34,102.97 L 351.553,102.298 L 353.858,102.071 L 511.238,102.071 L 513.541,102.298 L 515.753,102.97 L 517.794,104.061 L 519.583,105.528 L 521.05,107.317 L 522.141,109.358 L 522.813,111.571 L 523.041,113.873 L 523.041,247.645 L 522.813,249.949 L 522.141,252.162 L 521.05,254.203 L 519.583,255.991 L 517.794,257.458 L 515.753,258.55 L 513.541,259.221 L 511.238,259.447 L 353.858,259.447 L 351.553,259.221 L 349.34,258.55 L 347.3,257.458 L 345.511,255.991 L 344.044,254.203 L 342.952,252.162 L 342.281,249.949 L 342.055,247.645 z " style="fill:none;stroke:rgb(0,0,0);stroke-width:1"/></g>
<g fill-rule="evenodd"><path d="M 656.541,250.053 L 656.423,247.645 L 656.423,113.873 L 656.541,111.469 L 658.377,107.033 L 661.775,103.636 L 666.218,101.795 L 668.621,101.677 L 826.002,101.677 L 828.4,101.795 L 832.843,103.636 L 836.241,107.033 L 838.08,111.475 L 838.198,113.873 L 838.198,247.645 L 838.08,250.051 L 836.239,254.49 L 832.839,257.888 L 828.404,259.725 L 826.002,259.843 L 668.621,259.843 L 666.212,259.725 L 661.775,257.886 L 658.377,254.488 L 656.541,250.053 z " style="fill-opacity:1.000000;fill:rgb(84,248,27);stroke:rgb(0,0,0);stroke-width:2"/></g>
<g fill-rule="evenodd"><path d="M 656.818,247.645 L 656.818,113.873 L 657.044,111.571 L 657.716,109.358 L 658.807,107.317 L 660.274,105.528 L 662.063,104.061 L 664.104,102.97 L 666.316,102.298 L 668.621,102.071 L 826.002,102.071 L 828.304,102.298 L 830.517,102.97 L 832.557,104.061 L 834.346,105.528 L 835.813,107.317 L 836.905,109.358 L 837.576,111.571 L 837.804,113.873 L 837.804,247.645 L 837.576,249.949 L 836.905,252.162 L 835.813,254.203 L 834.346,255.991 L 832.557,257.458 L 830.517,258.55 L 828.304,259.221 L 826.002,259.447 L 668.621,259.447 L 666.316,259.221 L 664.104,258.55 L 662.063,257.458 L 660.274,255.991 L 658.807,254.203 L 657.716,252.162 L 657.044,249.949 L 656.818,247.645 z " style="fill:none;stroke:rgb(0,0,0);stroke-width:1"/></g>
<g fill-rule="evenodd"><path d="M 443.939,521.464 L 443.053,521.734 L 438.448,522.185 L 326.899,522.185 L 325.04,520.5 L 321.07,517.229 L 318.756,515.512 L 316.481,513.943 L 315.656,513.419 L 313.523,511.936 L 311.334,510.277 L 309.526,508.768 L 308.634,507.954 L 306.238,505.422 L 304.401,500.989 L 304.283,498.58 L 304.283,451.366 L 304.401,448.964 L 306.238,444.526 L 309.638,441.127 L 314.079,439.288 L 316.481,439.17 L 438.448,439.17 L 440.851,439.288 L 445.292,441.129 L 448.688,444.526 L 450.523,448.954 L 450.64,451.366 L 450.601,484.295 L 450.601,484.499 L 450.702,498.58 L 450.409,502.56 L 449.471,506.547 L 448.1,510.891 L 447.137,513.601 L 445.218,518.462 L 443.939,521.464 z " style="fill-opacity:1.000000;fill:rgb(232,231,141);stroke:rgb(0,0,0);stroke-width:2"/></g>
<g fill-rule="evenodd"><path d="M 304.679,498.58 L 304.679,451.366 L 304.904,449.064 L 305.576,446.851 L 306.667,444.81 L 308.134,443.021 L 309.923,441.554 L 311.964,440.463 L 314.177,439.791 L 316.481,439.564 L 438.448,439.564 L 440.751,439.791 L 442.963,440.463 L 445.004,441.554 L 446.793,443.021 L 448.26,444.81 L 449.351,446.851 L 450.023,449.064 L 450.251,451.366 L 450.251,498.58 L 450.023,500.885 L 449.351,503.097 L 448.26,505.138 L 446.793,506.927 L 445.004,508.394 L 442.963,509.485 L 440.751,510.157 L 438.448,510.383 L 316.481,510.383 L 314.177,510.157 L 311.964,509.485 L 309.923,508.394 L 308.134,506.927 L 306.667,505.138 L 305.576,503.097 L 304.904,500.885 L 304.679,498.58 z " style="fill:none;stroke:rgb(0,0,0);stroke-width:1"/></g>
<g fill-rule="evenodd"><path d="M 326.899,527.7 L 438.448,527.7 L 443.053,528.154 L 447.48,529.497 L 451.562,531.679 L 455.138,534.616 L 458.074,538.191 L 460.256,542.273 L 461.6,546.7 L 462.053,551.305 L 462.053,598.519 L 461.6,603.126 L 460.256,607.553 L 458.074,611.635 L 455.138,615.211 L 451.562,618.147 L 447.48,620.329 L 443.053,621.673 L 438.448,622.124 L 326.899,622.124 L 325.038,620.437 L 321.068,617.165 L 318.754,615.451 L 316.481,613.881 L 315.656,613.356 L 313.521,611.873 L 311.334,610.214 L 309.524,608.705 L 308.634,607.891 L 306.236,605.359 L 304.401,600.926 L 304.283,598.519 L 304.283,551.305 L 304.401,548.901 L 306.238,544.463 L 308.636,541.931 L 309.528,541.117 L 311.336,539.61 L 313.527,537.949 L 315.664,536.464 L 316.481,535.943 L 318.756,534.374 L 321.07,532.657 L 325.04,529.385 L 326.899,527.7 z " style="fill-opacity:1.000000;fill:rgb(118,90,46);stroke:rgb(0,0,0);stroke-width:2"/></g>
<g fill-rule="evenodd"><path d="M 304.679,598.519 L 304.679,551.305 L 304.904,549.002 L 305.576,546.79 L 306.667,544.749 L 308.134,542.96 L 309.923,541.493 L 311.964,540.402 L 314.177,539.73 L 316.481,539.502 L 438.448,539.502 L 440.751,539.73 L 442.963,540.402 L 445.004,541.493 L 446.793,542.96 L 448.26,544.749 L 449.351,546.79 L 450.023,549.002 L 450.251,551.305 L 450.251,598.519 L 450.023,600.824 L 449.351,603.036 L 448.26,605.077 L 446.793,606.866 L 445.004,608.333 L 442.963,609.424 L 440.751,610.096 L 438.448,610.322 L 316.481,610.322 L 314.177,610.096 L 311.964,609.424 L 309.923,608.333 L 308.134,606.866 L 306.667,605.077 L 305.576,603.036 L 304.904,600.824 L 304.679,598.519 z " style="fill:none;stroke:rgb(0,0,0);stroke-width:1"/></g>
<g fill-rule="evenodd"><path d="M 326.899,627.637 L 438.448,627.635 L 443.053,628.089 L 447.48,629.432 L 451.562,631.614 L 455.138,634.55 L 458.074,638.126 L 460.256,642.208 L 461.6,646.635 L 462.053,651.24 L 462.053,698.454 L 461.6,703.061 L 460.256,707.488 L 458.074,711.57 L 455.138,715.146 L 451.562,718.082 L 447.48,720.264 L 443.053,721.607 L 438.448,722.059 L 326.899,722.059 L 325.04,720.374 L 321.07,717.102 L 318.756,715.385 L 316.481,713.816 L 315.656,713.293 L 313.523,711.81 L 311.334,710.151 L 309.526,708.642 L 308.634,707.828 L 306.238,705.296 L 304.401,700.863 L 304.283,698.454 L 304.283,651.24 L 304.401,648.837 L 306.238,644.4 L 308.636,641.868 L 309.528,641.052 L 311.336,639.547 L 313.527,637.884 L 315.662,636.401 L 316.481,635.88 L 318.756,634.311 L 321.07,632.594 L 325.04,629.322 L 326.899,627.637 z " style="fill-opacity:1.000000;fill:rgb(99,51,159);stroke:rgb(0,0,0);stroke-width:2"/></g>
<g fill-rule="evenodd"><path d="M 304.679,698.454 L 304.679,651.24 L 304.904,648.937 L 305.576,646.725 L 306.667,644.684 L 308.134,642.895 L 309.923,641.428 L 311.964,640.337 L 314.177,639.665 L 316.481,639.437 L 438.448,639.437 L 440.751,639.665 L 442.963,640.337 L 445.004,641.428 L 446.793,642.895 L 448.26,644.684 L 449.351,646.725 L 450.023,648.937 L 450.251,651.24 L 450.251,698.454 L 450.023,700.759 L 449.351,702.971 L 448.26,705.012 L 446.793,706.801 L 445.004,708.268 L 442.963,709.359 L 440.751,710.031 L 438.448,710.257 L 316.481,710.257 L 314.177,710.031 L 311.964,709.359 L 309.923,708.268 L 308.134,706.801 L 306.667,705.012 L 305.576,702.971 L 304.904,700.759 L 304.679,698.454 z " style="fill:none;stroke:rgb(0,0,0);stroke-width:1"/></g>
<g fill-rule="evenodd"><path d="M 326.899,727.574 L 438.448,727.572 L 443.053,728.025 L 443.941,728.295 L 445.226,731.315 L 447.139,736.164 L 448.102,738.875 L 449.101,742.041 L 449.745,744.427 L 450.033,745.712 L 450.646,751.177 L 450.646,798.391 L 450.527,800.796 L 448.686,805.237 L 445.29,808.635 L 440.853,810.471 L 438.448,810.589 L 316.481,810.589 L 314.073,810.471 L 309.638,808.633 L 306.238,805.235 L 304.401,800.8 L 304.283,798.391 L 304.283,751.177 L 304.401,748.774 L 306.238,744.337 L 308.636,741.805 L 309.528,740.989 L 311.336,739.484 L 313.527,737.821 L 315.662,736.338 L 316.481,735.817 L 318.756,734.248 L 321.07,732.531 L 325.04,729.259 L 326.899,727.574 z " style="fill-opacity:1.000000;fill:rgb(201,154,102);stroke:rgb(0,0,0);stroke-width:2"/></g>
<g fill-rule="evenodd"><path d="M 304.679,798.391 L 304.679,751.177 L 304.904,748.874 L 305.576,746.662 L 306.667,744.621 L 308.134,742.832 L 309.923,741.365 L 311.964,740.274 L 314.177,739.602 L 316.481,739.374 L 438.448,739.374 L 440.751,739.602 L 442.963,740.274 L 445.004,741.365 L 446.793,742.832 L 448.26,744.621 L 449.351,746.662 L 450.023,748.874 L 450.251,751.177 L 450.251,798.391 L 450.023,800.696 L 449.351,802.908 L 448.26,804.949 L 446.793,806.738 L 445.004,808.205 L 442.963,809.296 L 440.751,809.968 L 438.448,810.194 L 316.481,810.194 L 314.177,809.968 L 311.964,809.296 L 309.923,808.205 L 308.134,806.738 L 306.667,804.949 L 305.576,802.908 L 304.904,800.696 L 304.679,798.391 z " style="fill:none;stroke:rgb(0,0,0);stroke-width:1"/></g>
<g fill-rule="evenodd"><path d="M 735.914,728.297 L 736.804,728.025 L 741.411,727.572 L 852.957,727.574 L 854.815,729.259 L 858.785,732.531 L 861.099,734.248 L 863.378,735.817 L 864.199,736.34 L 866.332,737.823 L 868.513,739.478 L 870.324,740.985 L 871.219,741.805 L 873.619,744.339 L 875.458,748.78 L 875.576,751.177 L 875.576,798.391 L 875.456,800.796 L 873.617,805.237 L 870.218,808.635 L 865.782,810.471 L 863.378,810.589 L 741.411,810.589 L 739,810.471 L 734.565,808.633 L 731.167,805.235 L 729.335,800.813 L 729.217,798.391 L 729.257,765.466 L 729.257,765.26 L 729.155,751.177 L 729.449,747.201 L 730.384,743.216 L 731.753,738.875 L 732.716,736.164 L 734.629,731.315 L 735.914,728.297 z " style="fill-opacity:1.000000;fill:rgb(50,13,183);stroke:rgb(0,0,0);stroke-width:2"/></g>
<g fill-rule="evenodd"><path d="M 729.608,798.391 L 729.608,751.177 L 729.834,748.874 L 730.506,746.662 L 731.597,744.621 L 733.064,742.832 L 734.853,741.365 L 736.894,740.274 L 739.106,739.602 L 741.411,739.374 L 863.378,739.374 L 865.681,739.602 L 867.893,740.274 L 869.934,741.365 L 871.723,742.832 L 873.19,744.621 L 874.281,746.662 L 874.953,748.874 L 875.181,751.177 L 875.181,798.391 L 874.953,800.696 L 874.281,802.908 L 873.19,804.949 L 871.723,806.738 L 869.934,808.205 L 867.893,809.296 L 865.681,809.968 L 863.378,810.194 L 741.411,810.194 L 739.106,809.968 L 736.894,809.296 L 734.853,808.205 L 733.064,806.738 L 731.597,804.949 L 730.506,802.908 L 729.834,800.696 L 729.608,798.391 z " style="fill:none;stroke:rgb(0,0,0);stroke-width:1"/></g>
<g fill-rule="evenodd"><path d="M 852.957,627.637 L 854.815,629.322 L 858.785,632.594 L 861.099,634.311 L 863.378,635.88 L 864.199,636.403 L 866.332,637.886 L 868.513,639.541 L 870.324,641.048 L 871.219,641.868 L 873.619,644.402 L 875.458,648.843 L 875.576,651.24 L 875.576,698.454 L 875.456,700.857 L 873.617,705.298 L 871.221,707.828 L 870.332,708.642 L 868.521,710.151 L 866.332,711.81 L 864.199,713.293 L 863.378,713.816 L 861.099,715.385 L 858.785,717.102 L 854.815,720.374 L 852.957,722.059 L 741.411,722.059 L 736.804,721.607 L 732.377,720.264 L 728.295,718.082 L 724.719,715.146 L 721.783,711.57 L 719.601,707.488 L 718.258,703.061 L 717.806,698.454 L 717.806,651.24 L 718.258,646.635 L 719.601,642.208 L 721.783,638.126 L 724.719,634.55 L 728.295,631.614 L 732.377,629.432 L 736.804,628.089 L 741.411,627.635 L 852.957,627.637 z " style="fill-opacity:1.000000;fill:rgb(49,88,163);stroke:rgb(0,0,0);stroke-width:2"/></g>
<g fill-rule="evenodd"><path d="M 729.608,698.454 L 729.608,651.24 L 729.834,648.937 L 730.506,646.725 L 731.597,644.684 L 733.064,642.895 L 734.853,641.428 L 736.894,640.337 L 739.106,639.665 L 741.411,639.437 L 863.378,639.437 L 865.681,639.665 L 867.893,640.337 L 869.934,641.428 L 871.723,642.895 L 873.19,644.684 L 874.281,646.725 L 874.953,648.937 L 875.181,651.24 L 875.181,698.454 L 874.953,700.759 L 874.281,702.971 L 873.19,705.012 L 871.723,706.801 L 869.934,708.268 L 867.893,709.359 L 865.681,710.031 L 863.378,710.257 L 741.411,710.257 L 739.106,710.031 L 736.894,709.359 L 734.853,708.268 L 733.064,706.801 L 731.597,705.012 L 730.506,702.971 L 729.834,700.759 L 729.608,698.454 z " style="fill:none;stroke:rgb(0,0,0);stroke-width:1"/></g>
<g fill-rule="evenodd"><path d="M 852.957,527.7 L 854.815,529.385 L 858.785,532.657 L 861.099,534.374 L 863.378,535.945 L 864.197,536.468 L 866.332,537.951 L 868.513,539.604 L 870.322,541.111 L 871.219,541.931 L 873.617,544.465 L 875.456,548.907 L 875.576,551.305 L 875.576,598.519 L 875.456,600.92 L 873.617,605.361 L 871.221,607.891 L 870.332,608.705 L 868.521,610.214 L 866.334,611.873 L 864.199,613.356 L 863.378,613.879 L 861.101,615.451 L 858.787,617.165 L 854.817,620.437 L 852.957,622.124 L 741.411,622.124 L 736.804,621.673 L 732.377,620.329 L 728.295,618.147 L 724.719,615.211 L 721.783,611.635 L 719.601,607.553 L 718.258,603.126 L 717.806,598.519 L 717.806,551.305 L 718.258,546.7 L 719.601,542.273 L 721.783,538.191 L 724.719,534.616 L 728.295,531.679 L 732.377,529.497 L 736.804,528.154 L 741.411,527.7 L 852.957,527.7 z " style="fill-opacity:1.000000;fill:rgb(90,37,93);stroke:rgb(0,0,0);stroke-width:2"/></g>
<g fill-rule="evenodd"><path d="M 729.608,598.519 L 729.608,551.305 L 729.834,549.002 L 730.506,546.79 L 731.597,544.749 L 733.064,542.96 L 734.853,541.493 L 736.894,540.402 L 739.106,539.73 L 741.411,539.502 L 863.378,539.502 L 865.681,539.73 L 867.893,540.402 L 869.934,541.493 L 871.723,542.96 L 873.19,544.749 L 874.281,546.79 L 874.953,549.002 L 875.181,551.305 L 875.181,598.519 L 874.953,600.824 L 874.281,603.036 L 873.19,605.077 L 871.723,606.866 L 869.934,608.333 L 867.893,609.424 L 865.681,610.096 L 863.378,610.322 L 741.411,610.322 L 739.106,610.096 L 736.894,609.424 L 734.853,608.333 L 733.064,606.866 L 731.597,605.077 L 730.506,603.036 L 729.834,600.824 L 729.608,598.519 z " style="fill:none;stroke:rgb(0,0,0);stroke-width:1"/></g>
<g fill-rule="evenodd"><path d="M 852.957,522.185 L 741.411,522.185 L 736.804,521.734 L 735.916,521.464 L 734.633,518.45 L 732.72,513.601 L 731.755,510.891 L 730.386,506.547 L 729.449,502.56 L 729.155,498.58 L 729.257,484.501 L 729.257,484.295 L 729.217,451.368 L 729.335,448.948 L 731.167,444.526 L 734.565,441.129 L 739.006,439.288 L 741.411,439.17 L 863.378,439.17 L 865.778,439.288 L 870.22,441.129 L 873.619,444.528 L 875.458,448.97 L 875.576,451.366 L 875.576,498.58 L 875.456,500.983 L 873.617,505.424 L 871.221,507.954 L 870.332,508.768 L 868.521,510.277 L 866.332,511.936 L 864.199,513.419 L 863.378,513.943 L 861.099,515.512 L 858.785,517.229 L 854.815,520.5 L 852.957,522.185 z " style="fill-opacity:1.000000;fill:rgb(5,23,88);stroke:rgb(0,0,0);stroke-width:2"/></g>
<g fill-rule="evenodd"><path d="M 729.608,498.58 L 729.608,451.366 L 729.834,449.064 L 730.506,446.851 L 731.597,444.81 L 733.064,443.021 L 734.853,441.554 L 736.894,440.463 L 739.106,439.791 L 741.411,439.564 L 863.378,439.564 L 865.681,439.791 L 867.893,440.463 L 869.934,441.554 L 871.723,443.021 L 873.19,444.81 L 874.281,446.851 L 874.953,449.064 L 875.181,451.366 L 875.181,498.58 L 874.953,500.885 L 874.281,503.097 L 873.19,505.138 L 871.723,506.927 L 869.934,508.394 L 867.893,509.485 L 865.681,510.157 L 863.378,510.383 L 741.411,510.383 L 739.106,510.157 L 736.894,509.485 L 734.853,508.394 L 733.064,506.927 L 731.597,505.138 L 730.506,503.097 L 729.834,500.885 L 729.608,498.58 z " style="fill:none;stroke:rgb(0,0,0);stroke-width:1"/></g>
<g fill-rule="evenodd"><path d="M 705.991,624.881 L 705.993,624.881 L 705.993,710.421 L 703.183,713.217 L 701.084,715.529 L 699.525,717.338 L 698.288,718.849 L 696.487,720.89 L 694.415,723.063 L 692.68,724.728 L 690.567,726.578 L 689.622,727.368 L 684.791,729.421 L 682.388,729.538 L 589.931,729.538 L 589.929,729.538 L 589.929,717.338 L 589.929,624.881 L 589.929,624.881 L 589.931,624.881 L 682.388,624.881 L 705.991,624.881 z " style="fill-opacity:1.000000;fill:rgb(233,94,212);stroke:rgb(0,0,0);stroke-width:2"/></g>
<g fill-rule="evenodd"><path d="M 694.189,624.881 L 694.191,624.881 L 694.191,717.338 L 693.963,719.643 L 693.291,721.855 L 692.2,723.896 L 690.733,725.685 L 688.944,727.152 L 686.903,728.243 L 684.691,728.915 L 682.388,729.141 L 589.931,729.141 L 589.929,729.141 L 589.929,717.338 L 589.929,624.881 L 589.929,624.881 L 589.931,624.881 L 682.388,624.881 L 694.189,624.881 z " style="fill:none;stroke:rgb(0,0,0);stroke-width:1"/></g>
<g fill-rule="evenodd"><path d="M 705.993,539.343 L 705.993,624.879 L 705.991,624.881 L 682.388,624.881 L 589.931,624.881 L 589.929,624.881 L 589.929,624.879 L 589.929,532.421 L 589.929,520.223 L 589.931,520.223 L 682.388,520.223 L 684.787,520.341 L 689.624,522.395 L 690.571,523.187 L 692.69,525.044 L 694.423,526.709 L 696.489,528.873 L 698.29,530.914 L 699.523,532.421 L 701.084,534.234 L 703.181,536.544 L 705.993,539.343 z " style="fill-opacity:1.000000;fill:rgb(171,178,205);stroke:rgb(0,0,0);stroke-width:2"/></g>
<g fill-rule="evenodd"><path d="M 589.929,520.62 L 589.931,520.618 L 682.388,520.618 L 684.691,520.846 L 686.903,521.518 L 688.944,522.609 L 690.733,524.076 L 692.2,525.865 L 693.291,527.906 L 693.963,530.118 L 694.191,532.421 L 694.191,624.879 L 694.189,624.881 L 682.388,624.881 L 589.931,624.881 L 589.929,624.881 L 589.929,624.879 L 589.929,532.421 L 589.929,520.62 z " style="fill:none;stroke:rgb(0,0,0);stroke-width:1"/></g>
<g fill-rule="evenodd"><path d="M 473.866,710.421 L 473.866,624.881 L 473.866,624.881 L 497.471,624.881 L 589.929,624.881 L 589.929,624.881 L 589.929,624.881 L 589.929,717.338 L 589.929,729.538 L 589.929,729.538 L 553.995,729.538 L 497.471,729.538 L 495.062,729.421 L 490.234,727.366 L 489.286,726.576 L 487.165,724.718 L 485.433,723.053 L 483.366,720.888 L 481.567,718.847 L 480.332,717.338 L 478.771,715.527 L 476.674,713.217 L 473.866,710.421 z " style="fill-opacity:1.000000;fill:rgb(198,155,180);stroke:rgb(0,0,0);stroke-width:2"/></g>
<g fill-rule="evenodd"><path d="M 485.668,624.881 L 497.471,624.881 L 589.929,624.881 L 589.929,624.881 L 589.929,624.881 L 589.929,717.338 L 589.929,729.141 L 589.929,729.141 L 497.471,729.141 L 495.166,728.915 L 492.954,728.243 L 490.913,727.152 L 489.124,725.685 L 487.657,723.896 L 486.566,721.855 L 485.894,719.643 L 485.668,717.338 L 485.668,624.881 L 485.668,624.881 z " style="fill:none;stroke:rgb(0,0,0);stroke-width:1"/></g>
<g fill-rule="evenodd"><path d="M 473.866,539.343 L 476.654,536.568 L 478.755,534.254 L 480.336,532.421 L 481.577,530.906 L 483.376,528.865 L 485.437,526.705 L 487.167,525.042 L 489.28,523.189 L 490.232,522.397 L 495.07,520.341 L 497.471,520.223 L 589.929,520.223 L 589.929,520.223 L 589.929,532.421 L 589.929,624.879 L 589.929,624.881 L 589.929,624.881 L 497.471,624.881 L 473.866,624.881 L 473.866,624.879 L 473.866,539.343 z " style="fill-opacity:1.000000;fill:rgb(84,17,14);stroke:rgb(0,0,0);stroke-width:2"/></g>
<g fill-rule="evenodd"><path d="M 589.929,520.62 L 589.929,532.421 L 589.929,624.879 L 589.929,624.881 L 589.929,624.881 L 497.471,624.881 L 485.668,624.881 L 485.668,624.879 L 485.668,532.421 L 485.894,530.118 L 486.566,527.906 L 487.657,525.865 L 489.124,524.076 L 490.913,522.609 L 492.954,521.518 L 495.166,520.846 L 497.471,520.618 L 589.929,520.618 L 589.929,520.62 z " style="fill:none;stroke:rgb(0,0,0);stroke-width:1"/></g>
</svg>
