<?xml version="1.0" standalone="no"?>
<!DOCTYPE svg PUBLIC "-//W3C//DTD SVG 1.1//EN"
"http://www.w3.org/Graphics/SVG/1.1/DTD/svg11.dtd">
<svg width="1122" height="1515" viewBox="0 0 1122 1515" version="1.1"
xmlns="http://www.w3.org/2000/svg"
xmlns:xlink="http://www.w3.org/1999/xlink">
<g fill-rule="evenodd"><path d="M 117.424,1515 L 12.0583,1515 L 9.75344,1514.77 L 7.54053,1514.1 L 5.49953,1513.01 L 3.71041,1511.54 L 2.24314,1509.75 L 1.15167,1507.71 L 0.480005,1505.5 L 0.254116,1503.19 L 0.254116,973.104 L 0.480005,970.801 L 1.15167,968.588 L 2.24314,966.547 L 3.71041,964.758 L 5.49953,963.291 L 7.54053,962.199 L 9.75544,961.528 L 12.0583,961.302 L 14.3612,961.528 L 16.5761,962.199 L 18.6171,963.291 L 20.4042,964.758 L 26.7791,973.889 L 36.2804,980.238 L 48.6443,982.699 L 69.9518,982.699 L 72.2547,982.927 L 74.4676,983.599 L 76.5086,984.69 L 78.2977,986.157 L 137.934,1045.79 L 148.425,1052.8 L 160.789,1055.26 L 885.75,1055.26 L 888.053,1055.49 L 890.266,1056.16 L 892.307,1057.25 L 894.096,1058.72 L 938.058,1102.68 L 939.526,1104.47 L 940.617,1106.51 L 941.289,1108.73 L 941.517,1111.03 L 941.517,1149.93 L 943.975,1162.29 L 947.642,1168.19 L 948.313,1170.4 L 948.445,1173.67 L 951.716,1173.81 L 953.931,1174.48 L 959.826,1178.14 L 971.03,1180.37 L 982.233,1178.14 L 991.734,1171.79 L 998.083,1162.29 L 1000.55,1149.92 L 1000.55,1095.09 L 998.085,1082.71 L 996.769,1080.33 L 996.098,1078.12 L 995.872,1075.82 L 996.098,1073.51 L 996.769,1071.3 L 997.861,1069.26 L 999.328,1067.47 L 1001.12,1066 L 1003.16,1064.91 L 1005.37,1064.24 L 1007.68,1064.02 L 1009.98,1064.24 L 1012.19,1064.91 L 1014.23,1066 L 1016.02,1067.47 L 1026.48,1077.93 L 1027.95,1079.72 L 1029.04,1081.76 L 1029.71,1083.97 L 1029.94,1086.27 L 1029.94,1365.43 L 1029.71,1367.73 L 1029.04,1369.95 L 1027.95,1371.99 L 1026.48,1373.78 L 969.429,1430.83 L 967.64,1432.3 L 965.599,1433.39 L 963.384,1434.06 L 961.083,1434.28 L 145.405,1434.28 L 131.523,1437.04 L 120.749,1444.24 L 113.548,1455.02 L 111.022,1467.73 L 113.546,1480.45 L 120.745,1491.22 L 125.77,1494.85 L 127.238,1496.64 L 128.329,1498.68 L 129.001,1500.89 L 129.227,1503.19 L 129.001,1505.5 L 128.329,1507.71 L 127.238,1509.75 L 125.77,1511.54 L 123.981,1513.01 L 121.94,1514.1 L 119.727,1514.77 L 117.424,1515M 242.161,1130.37 L 229.787,1132.83 L 219.296,1139.84 L 146.182,1212.95 L 139.174,1223.44 L 136.713,1235.8 L 136.713,1365.42 L 139.172,1377.78 L 145.521,1387.29 L 155.022,1393.63 L 166.226,1395.87 L 177.429,1393.64 L 186.93,1387.29 L 193.279,1377.79 L 195.742,1365.41 L 195.742,1251.76 L 195.968,1249.46 L 196.639,1247.24 L 197.729,1245.2 L 199.198,1243.41 L 249.757,1192.86 L 251.544,1191.39 L 253.585,1190.3 L 255.8,1189.63 L 258.105,1189.4 L 848.368,1189.4 L 850.671,1189.63 L 852.884,1190.3 L 854.925,1191.39 L 856.714,1192.86 L 907.273,1243.41 L 908.741,1245.2 L 909.832,1247.24 L 910.504,1249.46 L 910.732,1251.76 L 910.732,1356.62 L 913.191,1368.99 L 919.539,1378.49 L 929.041,1384.84 L 940.245,1387.07 L 951.448,1384.84 L 960.949,1378.49 L 967.298,1368.99 L 969.761,1356.62 L 969.761,1235.82 L 967.3,1223.44 L 960.291,1212.95 L 941.067,1193.73 L 939.6,1191.94 L 938.508,1189.9 L 937.836,1187.69 L 937.707,1184.41 L 934.432,1184.28 L 932.219,1183.61 L 930.178,1182.52 L 928.389,1181.05 L 887.177,1139.84 L 876.687,1132.83 L 864.315,1130.37 L 242.161,1130.37 z " style="fill-opacity:1.000000;fill:rgb(103,198,105);stroke:rgb(0,0,0);stroke-width:2"/></g>
<g fill-rule="evenodd"><path d="M 0.254116,933.265 L 0.254116,11.8032 L 0.480005,9.50032 L 1.15167,7.28741 L 2.24314,5.24642 L 3.71041,3.4573 L 5.49953,1.99002 L 7.54053,0.898558 L 9.75344,0.226888 L 12.0583,-0.000999508 L 1109.94,-0.000999508 L 1112.24,0.226888 L 1114.46,0.898558 L 1116.5,1.99002 L 1118.29,3.4573 L 1119.75,5.24642 L 1120.85,7.28741 L 1121.52,9.50032 L 1121.75,11.8032 L 1121.75,1503.19 L 1121.17,1506.84 L 1119.49,1510.13 L 1116.88,1512.75 L 1113.59,1514.42 L 1109.94,1515 L 1006.64,1515 L 1004.34,1514.77 L 1002.12,1514.1 L 1000.08,1513.01 L 998.293,1511.54 L 996.825,1509.75 L 995.734,1507.71 L 995.062,1505.5 L 994.836,1503.2 L 995.062,1500.89 L 995.734,1498.68 L 996.825,1496.64 L 998.293,1494.85 L 1004.3,1490.56 L 1086.22,1408.65 L 1094.07,1396.89 L 1096.83,1383.01 L 1096.83,1068.69 L 1094.08,1054.82 L 1086.22,1043.06 L 969.115,925.955 L 957.359,918.099 L 943.48,915.338 L 193.767,915.338 L 191.462,915.112 L 189.249,914.441 L 187.208,913.349 L 185.419,911.882 L 128.369,854.832 L 126.902,853.043 L 125.81,851.002 L 125.139,848.789 L 124.913,846.484 L 124.913,96.7733 L 122.152,82.8942 L 114.954,72.1195 L 104.179,64.919 L 91.4652,62.3923 L 78.7495,64.917 L 67.9748,72.1175 L 60.7743,82.8922 L 58.0157,96.7614 L 58.0157,864.072 L 60.7723,877.943 L 68.6284,889.699 L 82.4516,903.52 L 83.9189,905.309 L 85.0104,907.35 L 85.6821,909.563 L 85.9099,911.866 L 85.6821,914.171 L 85.0104,916.384 L 83.9189,918.425 L 82.4516,920.214 L 80.6625,921.681 L 78.6215,922.773 L 76.4086,923.444 L 74.1058,923.67 L 48.6563,923.67 L 36.2824,926.131 L 26.7811,932.48 L 20.4042,941.613 L 18.6151,943.081 L 16.5741,944.172 L 14.3592,944.844 L 12.0563,945.07 L 9.75344,944.844 L 7.54053,944.172 L 5.49953,943.081 L 3.71041,941.613 L 2.24314,939.824 L 1.15167,937.783 L 0.480005,935.568 L 0.254116,933.265M 530.491,718.231 L 663.757,718.231 L 672.725,714.515 L 675.172,712.392 L 677.213,711.301 L 679.428,710.631 L 681.731,710.405 L 684.033,710.631 L 686.246,711.303 L 688.287,712.394 L 690.074,713.863 L 691.544,715.651 L 692.633,717.692 L 693.305,719.907 L 693.625,741.934 L 693.533,779.751 L 697.245,788.715 L 704.108,795.579 L 713.073,799.293 L 844.772,799.293 L 853.736,795.581 L 860.6,788.717 L 864.317,779.747 L 864.317,722.825 L 860.602,713.855 L 856.403,709.656 L 854.935,707.866 L 853.844,705.825 L 853.172,703.611 L 852.946,701.308 L 853.172,699.005 L 853.844,696.79 L 854.935,694.749 L 856.405,692.96 L 860.6,688.764 L 864.317,679.796 L 864.317,622.874 L 860.602,613.905 L 856.403,609.705 L 854.935,607.916 L 853.844,605.875 L 853.172,603.66 L 852.946,601.357 L 853.172,599.054 L 853.844,596.839 L 854.935,594.798 L 856.405,593.009 L 860.6,588.813 L 864.317,579.845 L 864.317,522.924 L 860.602,513.954 L 856.403,509.754 L 854.935,507.965 L 853.844,505.924 L 853.172,503.709 L 852.946,501.406 L 853.172,499.103 L 853.844,496.888 L 854.935,494.847 L 856.405,493.058 L 860.6,488.862 L 864.317,479.895 L 864.317,422.973 L 860.602,414.003 L 853.738,407.139 L 844.768,403.422 L 713.079,403.422 L 704.11,407.137 L 697.247,414.001 L 693.533,422.965 L 693.625,460.782 L 693.305,482.811 L 692.633,485.026 L 691.544,487.067 L 690.076,488.854 L 688.287,490.324 L 686.248,491.413 L 684.033,492.087 L 681.731,492.313 L 679.43,492.087 L 677.215,491.417 L 675.174,490.328 L 672.727,488.205 L 663.753,484.484 L 469.107,484.484 L 460.134,488.203 L 457.683,490.328 L 455.644,491.417 L 453.429,492.089 L 451.126,492.313 L 448.823,492.087 L 446.61,491.413 L 444.571,490.324 L 442.782,488.854 L 441.315,487.065 L 440.225,485.026 L 439.554,482.811 L 439.236,460.782 L 439.328,422.973 L 435.614,414.003 L 428.751,407.139 L 419.782,403.422 L 288.092,403.422 L 279.123,407.137 L 272.258,414.001 L 268.544,422.965 L 268.544,479.899 L 272.256,488.86 L 276.454,493.058 L 277.923,494.847 L 279.015,496.888 L 279.687,499.103 L 279.912,501.406 L 279.687,503.709 L 279.015,505.924 L 277.923,507.967 L 276.456,509.754 L 272.258,513.952 L 268.544,522.916 L 268.544,579.849 L 272.256,588.811 L 276.454,593.009 L 277.923,594.798 L 279.015,596.839 L 279.687,599.054 L 279.912,601.357 L 279.687,603.66 L 279.015,605.875 L 277.923,607.918 L 276.456,609.705 L 272.258,613.903 L 268.544,622.866 L 268.544,679.8 L 272.256,688.762 L 276.454,692.96 L 277.923,694.749 L 279.015,696.79 L 279.687,699.005 L 279.912,701.308 L 279.687,703.611 L 279.015,705.825 L 277.923,707.868 L 276.456,709.656 L 272.258,713.853 L 268.544,722.817 L 268.544,779.751 L 272.256,788.715 L 279.121,795.579 L 288.084,799.293 L 419.784,799.293 L 428.749,795.581 L 435.612,788.717 L 439.328,779.747 L 439.328,722.207 L 439.554,719.907 L 440.225,717.692 L 441.315,715.651 L 442.782,713.863 L 444.571,712.394 L 446.61,711.305 L 448.825,710.631 L 451.128,710.405 L 453.429,710.631 L 455.644,711.301 L 457.685,712.39 L 460.132,714.513 L 469.099,718.231 L 530.491,718.231M 419.318,248.471 L 492.584,248.471 L 501.547,244.758 L 508.412,237.896 L 512.128,228.926 L 512.128,85.4309 L 508.414,76.4613 L 501.549,69.5987 L 492.58,65.8826 L 325.476,65.8826 L 316.506,69.5967 L 309.642,76.4594 L 305.928,85.4249 L 305.928,228.928 L 309.64,237.894 L 316.504,244.756 L 325.468,248.471 L 419.318,248.471M 640.273,248.471 L 807.389,248.471 L 816.352,244.758 L 823.217,237.896 L 826.933,228.926 L 826.933,85.4309 L 823.219,76.4613 L 816.354,69.5987 L 807.385,65.8826 L 640.281,65.8826 L 631.311,69.5967 L 624.447,76.4594 L 620.733,85.4249 L 620.733,228.928 L 624.445,237.894 L 631.309,244.756 L 640.273,248.471 z " style="fill-opacity:1.000000;fill:rgb(115,81,255);stroke:rgb(0,0,0);stroke-width:2"/></g>
<g fill-rule="evenodd"><path d="M 179.096,938.949 L 944.645,938.949 L 948.409,939.698 L 951.6,941.831 L 1070.34,1060.57 L 1072.47,1063.76 L 1073.03,1065.61 L 1073.22,1384.17 L 1072.47,1387.94 L 1070.34,1391.13 L 986.782,1474.69 L 983.59,1476.82 L 979.828,1477.57 L 144.239,1477.57 L 142.192,1477.35 L 140.237,1476.72 L 138.456,1475.69 L 136.927,1474.31 L 135.719,1472.65 L 134.882,1470.77 L 134.454,1468.76 L 134.454,1466.7 L 134.882,1464.69 L 135.719,1462.81 L 136.927,1461.15 L 138.456,1459.77 L 140.237,1458.74 L 142.192,1458.11 L 144.239,1457.89 L 975.754,1457.89 L 1053.55,1380.1 L 1053.55,1071.6 L 940.569,958.623 L 173.103,958.435 L 171.258,957.875 L 168.067,955.742 L 84.5086,872.184 L 82.3757,868.993 L 81.628,865.227 L 81.628,95.6059 L 81.8419,93.5609 L 82.4776,91.6059 L 83.5051,89.8248 L 84.8824,88.2955 L 86.5456,87.0881 L 88.4247,86.2505 L 90.4357,85.8227 L 92.4927,85.8227 L 94.5037,86.2505 L 96.3828,87.0881 L 98.046,88.2955 L 99.4233,89.8248 L 100.451,91.6059 L 101.086,93.5609 L 101.302,95.6059 L 101.302,861.155 L 179.096,938.949 z " style="fill-opacity:1.000000;fill:rgb(74,236,41);stroke:rgb(0,0,0);stroke-width:2"/></g>
<g fill-rule="evenodd"><path d="M 243.436,1165.78 L 172.129,1237.09 L 172.129,1366.58 L 172,1367.81 L 171.002,1370.05 L 169.179,1371.69 L 166.844,1372.45 L 164.403,1372.19 L 162.278,1370.97 L 161.453,1370.05 L 160.455,1367.81 L 160.327,1366.58 L 160.327,1234.65 L 160.775,1232.39 L 162.054,1230.47 L 236.818,1155.71 L 238.731,1154.43 L 240.992,1153.98 L 866.634,1154.09 L 868.762,1154.98 L 869.656,1155.71 L 944.419,1230.47 L 945.699,1232.39 L 946.148,1234.65 L 946.018,1359.01 L 945.021,1361.25 L 943.198,1362.9 L 942.07,1363.4 L 939.63,1363.65 L 937.297,1362.9 L 935.472,1361.25 L 934.474,1359.01 L 934.346,1357.78 L 934.346,1237.09 L 863.037,1165.78 L 243.436,1165.78 z " style="fill-opacity:1.000000;fill:rgb(205,186,171);stroke:rgb(0,0,0);stroke-width:2"/></g>
<g fill-rule="evenodd"><path d="M 162.074,1019.85 L 904.015,1019.96 L 906.144,1020.84 L 907.038,1021.58 L 975.938,1090.64 L 976.483,1091.66 L 976.933,1093.91 L 976.803,1152.31 L 975.806,1154.56 L 974.98,1155.47 L 973.983,1156.2 L 971.648,1156.96 L 969.207,1156.7 L 967.082,1155.47 L 966.256,1154.56 L 965.259,1152.31 L 965.131,1096.36 L 900.419,1031.65 L 159.632,1031.65 L 157.373,1031.2 L 155.458,1029.92 L 84.6206,959.085 L 46.2595,958.957 L 44.0166,957.959 L 43.101,957.134 L 41.8736,955.009 L 41.6177,952.568 L 42.3754,950.233 L 44.0166,948.41 L 46.2595,947.412 L 47.4869,947.283 L 87.0674,947.283 L 89.3243,947.732 L 90.3458,948.278 L 162.074,1019.85 z " style="fill-opacity:1.000000;fill:rgb(242,251,227);stroke:rgb(0,0,0);stroke-width:2"/></g>
<g fill-rule="evenodd"><path d="M 330.326,224.071 L 330.326,90.2805 L 487.728,90.2805 L 487.728,224.071 L 330.326,224.071 z " style="fill-opacity:1.000000;fill:rgb(70,124,194);stroke:rgb(0,0,0);stroke-width:2"/></g>
<g fill-rule="evenodd"><path d="M 645.133,224.071 L 645.133,90.2805 L 802.535,90.2805 L 802.535,224.071 L 645.133,224.071 z " style="fill-opacity:1.000000;fill:rgb(84,248,27);stroke:rgb(0,0,0);stroke-width:2"/></g>
<g fill-rule="evenodd"><path d="M 292.944,475.041 L 292.944,427.82 L 414.928,427.82 L 414.928,475.041 L 292.944,475.041 z " style="fill-opacity:1.000000;fill:rgb(232,231,141);stroke:rgb(0,0,0);stroke-width:2"/></g>
<g fill-rule="evenodd"><path d="M 292.944,574.994 L 292.944,527.773 L 414.928,527.773 L 414.928,574.994 L 292.944,574.994 z " style="fill-opacity:1.000000;fill:rgb(118,90,46);stroke:rgb(0,0,0);stroke-width:2"/></g>
<g fill-rule="evenodd"><path d="M 292.944,674.943 L 292.944,627.722 L 414.928,627.722 L 414.928,674.943 L 292.944,674.943 z " style="fill-opacity:1.000000;fill:rgb(99,51,159);stroke:rgb(0,0,0);stroke-width:2"/></g>
<g fill-rule="evenodd"><path d="M 292.944,774.893 L 292.944,727.673 L 414.928,727.673 L 414.928,774.893 L 292.944,774.893 z " style="fill-opacity:1.000000;fill:rgb(201,154,102);stroke:rgb(0,0,0);stroke-width:2"/></g>
<g fill-rule="evenodd"><path d="M 717.933,774.893 L 717.933,727.673 L 839.917,727.673 L 839.917,774.893 L 717.933,774.893 z " style="fill-opacity:1.000000;fill:rgb(50,13,183);stroke:rgb(0,0,0);stroke-width:2"/></g>
<g fill-rule="evenodd"><path d="M 717.933,674.943 L 717.933,627.722 L 839.917,627.722 L 839.917,674.943 L 717.933,674.943 z " style="fill-opacity:1.000000;fill:rgb(49,88,163);stroke:rgb(0,0,0);stroke-width:2"/></g>
<g fill-rule="evenodd"><path d="M 717.933,574.994 L 717.933,527.773 L 839.917,527.773 L 839.917,574.994 L 717.933,574.994 z " style="fill-opacity:1.000000;fill:rgb(90,37,93);stroke:rgb(0,0,0);stroke-width:2"/></g>
<g fill-rule="evenodd"><path d="M 717.933,475.041 L 717.933,427.82 L 839.917,427.82 L 839.917,475.041 L 717.933,475.041 z " style="fill-opacity:1.000000;fill:rgb(5,23,88);stroke:rgb(0,0,0);stroke-width:2"/></g>
<g fill-rule="evenodd"><path d="M 566.431,693.829 L 566.431,601.359 L 658.902,601.359 L 658.902,693.829 L 566.431,693.829 z " style="fill-opacity:1.000000;fill:rgb(233,94,212);stroke:rgb(0,0,0);stroke-width:2"/></g>
<g fill-rule="evenodd"><path d="M 566.431,601.357 L 566.431,508.886 L 658.902,508.886 L 658.902,601.357 L 566.431,601.357 z " style="fill-opacity:1.000000;fill:rgb(171,178,205);stroke:rgb(0,0,0);stroke-width:2"/></g>
<g fill-rule="evenodd"><path d="M 473.959,693.829 L 473.959,601.359 L 566.429,601.359 L 566.429,693.829 L 473.959,693.829 z " style="fill-opacity:1.000000;fill:rgb(198,155,180);stroke:rgb(0,0,0);stroke-width:2"/></g>
<g fill-rule="evenodd"><path d="M 473.959,601.357 L 473.959,508.886 L 566.429,508.886 L 566.429,601.357 L 473.959,601.357 z " style="fill-opacity:1.000000;fill:rgb(84,17,14);stroke:rgb(0,0,0);stroke-width:2"/></g>
</svg>
