G04 #@! TF.FileFunction,Copper,L1,Top,Signal*
%FSLAX46Y46*%
G04 Gerber Fmt 4.6, Leading zero omitted, Abs format (unit mm)*
G04 Created by KiCad (PCBNEW 4.0.7-e2-6376~60~ubuntu17.10.1) date Tue Apr 10 15:37:57 2018*
%MOMM*%
%LPD*%
G01*
G04 APERTURE LIST*
%ADD10C,0.100000*%
%ADD11C,0.300000*%
%ADD12R,2.000000X1.600000*%
%ADD13R,2.000000X1.700000*%
%ADD14R,0.800000X0.200000*%
%ADD15R,2.000000X1.500000*%
%ADD16R,1.550000X0.600000*%
%ADD17C,1.400000*%
%ADD18C,0.250000*%
%ADD19C,0.600000*%
%ADD20C,0.254000*%
G04 APERTURE END LIST*
D10*
D11*
X79853337Y22407489D02*
X79442622Y23121774D01*
X78996194Y22407489D02*
X79183694Y23907489D01*
X79755122Y23907489D01*
X79889051Y23836060D01*
X79951550Y23764631D01*
X80005122Y23621774D01*
X79978337Y23407489D01*
X79889050Y23264631D01*
X79808694Y23193203D01*
X79656907Y23121774D01*
X79085479Y23121774D01*
X81076550Y22478917D02*
X80924765Y22407489D01*
X80639051Y22407489D01*
X80505122Y22478917D01*
X80451550Y22621774D01*
X80522979Y23193203D01*
X80612265Y23336060D01*
X80764051Y23407489D01*
X81049765Y23407489D01*
X81183693Y23336060D01*
X81237265Y23193203D01*
X81219408Y23050346D01*
X80487265Y22907489D01*
X81764051Y23407489D02*
X81996194Y22407489D01*
X82478336Y23407489D01*
X84853336Y22407489D02*
X83996193Y22407489D01*
X84424765Y22407489D02*
X84612265Y23907489D01*
X84442622Y23693203D01*
X84281907Y23550346D01*
X84130121Y23478917D01*
X85514050Y22550346D02*
X85576549Y22478917D01*
X85496193Y22407489D01*
X85433692Y22478917D01*
X85514050Y22550346D01*
X85496193Y22407489D01*
X86683693Y23907489D02*
X86826550Y23907489D01*
X86960478Y23836060D01*
X87022978Y23764631D01*
X87076550Y23621774D01*
X87112264Y23336060D01*
X87067621Y22978917D01*
X86960479Y22693203D01*
X86871193Y22550346D01*
X86790835Y22478917D01*
X86639050Y22407489D01*
X86496193Y22407489D01*
X86362264Y22478917D01*
X86299764Y22550346D01*
X86246193Y22693203D01*
X86210478Y22978917D01*
X86255121Y23336060D01*
X86362264Y23621774D01*
X86451549Y23764631D01*
X86531907Y23836060D01*
X86683693Y23907489D01*
X58913832Y22316049D02*
X58913832Y23816049D01*
X59413832Y22744620D01*
X59913832Y23816049D01*
X59913832Y22316049D01*
X60842404Y22316049D02*
X60699546Y22387477D01*
X60628118Y22458906D01*
X60556689Y22601763D01*
X60556689Y23030334D01*
X60628118Y23173191D01*
X60699546Y23244620D01*
X60842404Y23316049D01*
X61056689Y23316049D01*
X61199546Y23244620D01*
X61270975Y23173191D01*
X61342404Y23030334D01*
X61342404Y22601763D01*
X61270975Y22458906D01*
X61199546Y22387477D01*
X61056689Y22316049D01*
X60842404Y22316049D01*
X61128118Y23887477D02*
X60913832Y23673191D01*
X62628118Y22316049D02*
X62628118Y23816049D01*
X62628118Y22387477D02*
X62485261Y22316049D01*
X62199547Y22316049D01*
X62056689Y22387477D01*
X61985261Y22458906D01*
X61913832Y22601763D01*
X61913832Y23030334D01*
X61985261Y23173191D01*
X62056689Y23244620D01*
X62199547Y23316049D01*
X62485261Y23316049D01*
X62628118Y23244620D01*
X63985261Y23316049D02*
X63985261Y22316049D01*
X63342404Y23316049D02*
X63342404Y22530334D01*
X63413832Y22387477D01*
X63556690Y22316049D01*
X63770975Y22316049D01*
X63913832Y22387477D01*
X63985261Y22458906D01*
X64913833Y22316049D02*
X64770975Y22387477D01*
X64699547Y22530334D01*
X64699547Y23816049D01*
X65699547Y22316049D02*
X65556689Y22387477D01*
X65485261Y22458906D01*
X65413832Y22601763D01*
X65413832Y23030334D01*
X65485261Y23173191D01*
X65556689Y23244620D01*
X65699547Y23316049D01*
X65913832Y23316049D01*
X66056689Y23244620D01*
X66128118Y23173191D01*
X66199547Y23030334D01*
X66199547Y22601763D01*
X66128118Y22458906D01*
X66056689Y22387477D01*
X65913832Y22316049D01*
X65699547Y22316049D01*
X67985261Y22316049D02*
X67985261Y23816049D01*
X68556689Y23816049D01*
X68699547Y23744620D01*
X68770975Y23673191D01*
X68842404Y23530334D01*
X68842404Y23316049D01*
X68770975Y23173191D01*
X68699547Y23101763D01*
X68556689Y23030334D01*
X67985261Y23030334D01*
X70128118Y23316049D02*
X70128118Y22316049D01*
X69485261Y23316049D02*
X69485261Y22530334D01*
X69556689Y22387477D01*
X69699547Y22316049D01*
X69913832Y22316049D01*
X70056689Y22387477D01*
X70128118Y22458906D01*
X71413832Y22387477D02*
X71270975Y22316049D01*
X70985261Y22316049D01*
X70842404Y22387477D01*
X70770975Y22530334D01*
X70770975Y23101763D01*
X70842404Y23244620D01*
X70985261Y23316049D01*
X71270975Y23316049D01*
X71413832Y23244620D01*
X71485261Y23101763D01*
X71485261Y22958906D01*
X70770975Y22816049D01*
X72128118Y23316049D02*
X72128118Y22316049D01*
X72128118Y23173191D02*
X72199546Y23244620D01*
X72342404Y23316049D01*
X72556689Y23316049D01*
X72699546Y23244620D01*
X72770975Y23101763D01*
X72770975Y22316049D01*
X73270975Y23316049D02*
X73842404Y23316049D01*
X73485261Y23816049D02*
X73485261Y22530334D01*
X73556689Y22387477D01*
X73699547Y22316049D01*
X73842404Y22316049D01*
X74913832Y22387477D02*
X74770975Y22316049D01*
X74485261Y22316049D01*
X74342404Y22387477D01*
X74270975Y22530334D01*
X74270975Y23101763D01*
X74342404Y23244620D01*
X74485261Y23316049D01*
X74770975Y23316049D01*
X74913832Y23244620D01*
X74985261Y23101763D01*
X74985261Y22958906D01*
X74270975Y22816049D01*
X18321974Y22585289D02*
X18321974Y24085289D01*
X18893403Y23585289D02*
X19250546Y22585289D01*
X19607688Y23585289D01*
X20821974Y22585289D02*
X20821974Y23371003D01*
X20750545Y23513860D01*
X20607688Y23585289D01*
X20321974Y23585289D01*
X20179117Y23513860D01*
X20821974Y22656717D02*
X20679117Y22585289D01*
X20321974Y22585289D01*
X20179117Y22656717D01*
X20107688Y22799574D01*
X20107688Y22942431D01*
X20179117Y23085289D01*
X20321974Y23156717D01*
X20679117Y23156717D01*
X20821974Y23228146D01*
X20607688Y24156717D02*
X20393403Y23942431D01*
X21536260Y23585289D02*
X21536260Y22585289D01*
X21536260Y23442431D02*
X21607688Y23513860D01*
X21750546Y23585289D01*
X21964831Y23585289D01*
X22107688Y23513860D01*
X22179117Y23371003D01*
X22179117Y22585289D01*
X24893403Y22585289D02*
X24393403Y23299574D01*
X24036260Y22585289D02*
X24036260Y24085289D01*
X24607688Y24085289D01*
X24750546Y24013860D01*
X24821974Y23942431D01*
X24893403Y23799574D01*
X24893403Y23585289D01*
X24821974Y23442431D01*
X24750546Y23371003D01*
X24607688Y23299574D01*
X24036260Y23299574D01*
X25750546Y22585289D02*
X25607688Y22656717D01*
X25536260Y22728146D01*
X25464831Y22871003D01*
X25464831Y23299574D01*
X25536260Y23442431D01*
X25607688Y23513860D01*
X25750546Y23585289D01*
X25964831Y23585289D01*
X26107688Y23513860D01*
X26179117Y23442431D01*
X26250546Y23299574D01*
X26250546Y22871003D01*
X26179117Y22728146D01*
X26107688Y22656717D01*
X25964831Y22585289D01*
X25750546Y22585289D01*
X27536260Y22585289D02*
X27536260Y24085289D01*
X27536260Y22656717D02*
X27393403Y22585289D01*
X27107689Y22585289D01*
X26964831Y22656717D01*
X26893403Y22728146D01*
X26821974Y22871003D01*
X26821974Y23299574D01*
X26893403Y23442431D01*
X26964831Y23513860D01*
X27107689Y23585289D01*
X27393403Y23585289D01*
X27536260Y23513860D01*
X28250546Y22585289D02*
X28250546Y23585289D01*
X28250546Y23299574D02*
X28321974Y23442431D01*
X28393403Y23513860D01*
X28536260Y23585289D01*
X28679117Y23585289D01*
X29179117Y22585289D02*
X29179117Y23585289D01*
X29321974Y24156717D02*
X29107688Y23942431D01*
X30536260Y23585289D02*
X30536260Y22371003D01*
X30464831Y22228146D01*
X30393403Y22156717D01*
X30250546Y22085289D01*
X30036260Y22085289D01*
X29893403Y22156717D01*
X30536260Y22656717D02*
X30393403Y22585289D01*
X30107689Y22585289D01*
X29964831Y22656717D01*
X29893403Y22728146D01*
X29821974Y22871003D01*
X29821974Y23299574D01*
X29893403Y23442431D01*
X29964831Y23513860D01*
X30107689Y23585289D01*
X30393403Y23585289D01*
X30536260Y23513860D01*
X31893403Y23585289D02*
X31893403Y22585289D01*
X31250546Y23585289D02*
X31250546Y22799574D01*
X31321974Y22656717D01*
X31464832Y22585289D01*
X31679117Y22585289D01*
X31821974Y22656717D01*
X31893403Y22728146D01*
X33179117Y22656717D02*
X33036260Y22585289D01*
X32750546Y22585289D01*
X32607689Y22656717D01*
X32536260Y22799574D01*
X32536260Y23371003D01*
X32607689Y23513860D01*
X32750546Y23585289D01*
X33036260Y23585289D01*
X33179117Y23513860D01*
X33250546Y23371003D01*
X33250546Y23228146D01*
X32536260Y23085289D01*
X33750546Y23585289D02*
X34536260Y23585289D01*
X33750546Y22585289D01*
X34536260Y22585289D01*
X36250546Y22585289D02*
X36250546Y24085289D01*
X36750546Y23013860D01*
X37250546Y24085289D01*
X37250546Y22585289D01*
X38536260Y22656717D02*
X38393403Y22585289D01*
X38107689Y22585289D01*
X37964832Y22656717D01*
X37893403Y22799574D01*
X37893403Y23371003D01*
X37964832Y23513860D01*
X38107689Y23585289D01*
X38393403Y23585289D01*
X38536260Y23513860D01*
X38607689Y23371003D01*
X38607689Y23228146D01*
X37893403Y23085289D01*
X38393403Y24156717D02*
X38179118Y23942431D01*
X39250546Y23585289D02*
X39250546Y22585289D01*
X39250546Y23442431D02*
X39321974Y23513860D01*
X39464832Y23585289D01*
X39679117Y23585289D01*
X39821974Y23513860D01*
X39893403Y23371003D01*
X39893403Y22585289D01*
X41250546Y22585289D02*
X41250546Y24085289D01*
X41250546Y22656717D02*
X41107689Y22585289D01*
X40821975Y22585289D01*
X40679117Y22656717D01*
X40607689Y22728146D01*
X40536260Y22871003D01*
X40536260Y23299574D01*
X40607689Y23442431D01*
X40679117Y23513860D01*
X40821975Y23585289D01*
X41107689Y23585289D01*
X41250546Y23513860D01*
X42536260Y22656717D02*
X42393403Y22585289D01*
X42107689Y22585289D01*
X41964832Y22656717D01*
X41893403Y22799574D01*
X41893403Y23371003D01*
X41964832Y23513860D01*
X42107689Y23585289D01*
X42393403Y23585289D01*
X42536260Y23513860D01*
X42607689Y23371003D01*
X42607689Y23228146D01*
X41893403Y23085289D01*
X43107689Y23585289D02*
X43893403Y23585289D01*
X43107689Y22585289D01*
X43893403Y22585289D01*
D12*
X63973460Y27531060D03*
X59973460Y27531060D03*
D13*
X79086960Y36598860D03*
X83086960Y36598860D03*
X79353660Y32420560D03*
X83353660Y32420560D03*
X79264760Y27708860D03*
X83264760Y27708860D03*
D14*
X18829020Y31457060D03*
X18829020Y31957060D03*
X18829020Y32457060D03*
X18829020Y32957060D03*
X18829020Y33457060D03*
X18829020Y33957060D03*
X18829020Y34457060D03*
X18829020Y34957060D03*
X18829020Y35457060D03*
X18829020Y35957060D03*
X18829020Y36457060D03*
X18829020Y36957060D03*
X18829020Y37457060D03*
X18829020Y37957060D03*
X18829020Y38457060D03*
X18829020Y38957060D03*
X18829020Y39457060D03*
X18829020Y39957060D03*
X18829020Y40457060D03*
X18829020Y40957060D03*
X18829020Y41457060D03*
X18829020Y41957060D03*
X18829020Y42457060D03*
X18829020Y42957060D03*
X18829020Y43457060D03*
X18829020Y43957060D03*
X18829020Y44457060D03*
X18829020Y44957060D03*
X18829020Y45457060D03*
X18829020Y45957060D03*
D15*
X21329020Y29557060D03*
X21329020Y47857060D03*
D16*
X74630260Y27492960D03*
X74630260Y28762960D03*
X74630260Y30032960D03*
X74630260Y31302960D03*
X69230260Y31302960D03*
X69230260Y30032960D03*
X69230260Y28762960D03*
X69230260Y27492960D03*
D17*
X18559780Y29065220D03*
X16913860Y34175700D03*
X31623000Y43515280D03*
X29052520Y49187100D03*
X18519140Y47594520D03*
X42478960Y44777660D03*
X36306760Y44891960D03*
X85239860Y41978580D03*
X80238600Y45499020D03*
X66408300Y33652460D03*
X62384940Y31026100D03*
X81912460Y45577760D03*
X73149460Y45577760D03*
X37449760Y38986460D03*
X29143960Y30833060D03*
X76730860Y45539660D03*
X39250620Y34323020D03*
X41988740Y36614100D03*
X78503780Y45554900D03*
X28270200Y36586160D03*
X16954500Y37256720D03*
X66824860Y28966160D03*
X58417460Y40190420D03*
X53146960Y57655460D03*
X53718460Y41615360D03*
X27175460Y37833300D03*
X23253700Y37670740D03*
X65605660Y30718760D03*
X60881260Y40167560D03*
X55034180Y58823860D03*
X24919940Y38768020D03*
X45760640Y45303440D03*
X24432260Y53398420D03*
X22793960Y53433980D03*
X30248860Y47177960D03*
X27515820Y43319700D03*
X22738080Y43207940D03*
X57261760Y26642060D03*
X22738080Y44940220D03*
X74957940Y45443140D03*
X31762700Y37117020D03*
X28000960Y33804860D03*
X26146760Y53406040D03*
X22644100Y41562020D03*
X33159700Y40833040D03*
X41633140Y57274460D03*
X16913860Y39641780D03*
D18*
X18829020Y34457060D02*
X17195220Y34457060D01*
X18829020Y29334460D02*
X18829020Y31457060D01*
X18559780Y29065220D02*
X18829020Y29334460D01*
X17195220Y34457060D02*
X16913860Y34175700D01*
X18829020Y42957060D02*
X18185820Y42957060D01*
X31623000Y48153320D02*
X31623000Y43515280D01*
X30924500Y48851820D02*
X31623000Y48153320D01*
X29387800Y48851820D02*
X30924500Y48851820D01*
X29052520Y49187100D02*
X29387800Y48851820D01*
X17541240Y46616620D02*
X18519140Y47594520D01*
X17541240Y43601640D02*
X17541240Y46616620D01*
X18185820Y42957060D02*
X17541240Y43601640D01*
X36306760Y44891960D02*
X36421060Y44777660D01*
X36421060Y44777660D02*
X42478960Y44777660D01*
X85239860Y41978580D02*
X85183980Y41978580D01*
X18829020Y31457060D02*
X18161840Y31457060D01*
X18161840Y31457060D02*
X17871440Y31747460D01*
X17871440Y31747460D02*
X17871440Y32537400D01*
X17871440Y32537400D02*
X18291100Y32957060D01*
X18291100Y32957060D02*
X18829020Y32957060D01*
X17940020Y36111180D02*
X17940020Y34648140D01*
X18131100Y34457060D02*
X18829020Y34457060D01*
X17940020Y34648140D02*
X18131100Y34457060D01*
X18829020Y35957060D02*
X18094140Y35957060D01*
X18107720Y36957060D02*
X18829020Y36957060D01*
X17940020Y36789360D02*
X18107720Y36957060D01*
X17940020Y36111180D02*
X17940020Y36789360D01*
X18094140Y35957060D02*
X17940020Y36111180D01*
X18829020Y41957060D02*
X18284260Y41957060D01*
X18065898Y39907062D02*
X18829020Y39907062D01*
X17904460Y40068500D02*
X18065898Y39907062D01*
X17904460Y41577260D02*
X17904460Y40068500D01*
X18284260Y41957060D02*
X17904460Y41577260D01*
X18829020Y39907062D02*
X18829020Y39957060D01*
X18829020Y42957060D02*
X19770780Y42957060D01*
X19942880Y41957060D02*
X18829020Y41957060D01*
X20180300Y42194480D02*
X19942880Y41957060D01*
X20180300Y42547540D02*
X20180300Y42194480D01*
X19770780Y42957060D02*
X20180300Y42547540D01*
X18829020Y31957060D02*
X61453980Y31957060D01*
X80238600Y42732960D02*
X80238600Y45499020D01*
X78087220Y40581580D02*
X80238600Y42732960D01*
X77249020Y40581580D02*
X78087220Y40581580D01*
X70934580Y34267140D02*
X77249020Y40581580D01*
X67022980Y34267140D02*
X70934580Y34267140D01*
X66408300Y33652460D02*
X67022980Y34267140D01*
X61453980Y31957060D02*
X62384940Y31026100D01*
X81912460Y45577760D02*
X81912460Y42115740D01*
X71080300Y32457060D02*
X18829020Y32457060D01*
X77472540Y38849300D02*
X71080300Y32457060D01*
X78646020Y38849300D02*
X77472540Y38849300D01*
X81912460Y42115740D02*
X78646020Y38849300D01*
X81912460Y45577760D02*
X81912460Y45539660D01*
X18829020Y33457060D02*
X17899560Y33457060D01*
X66215260Y38643560D02*
X73149460Y45577760D01*
X37792660Y38643560D02*
X66215260Y38643560D01*
X37449760Y38986460D02*
X37792660Y38643560D01*
X25638760Y27327860D02*
X29143960Y30833060D01*
X18552160Y27327860D02*
X25638760Y27327860D01*
X17104360Y28775660D02*
X18552160Y27327860D01*
X17104360Y32661860D02*
X17104360Y28775660D01*
X17899560Y33457060D02*
X17104360Y32661860D01*
X76730860Y45539660D02*
X76730860Y43863260D01*
X38616580Y34957060D02*
X18829020Y34957060D01*
X39250620Y34323020D02*
X38616580Y34957060D01*
X69481700Y36614100D02*
X41988740Y36614100D01*
X76730860Y43863260D02*
X69481700Y36614100D01*
X78503780Y45554900D02*
X78503780Y43769280D01*
X70191560Y35457060D02*
X18829020Y35457060D01*
X78503780Y43769280D02*
X70191560Y35457060D01*
X18829020Y37457060D02*
X17154840Y37457060D01*
X36736020Y40190420D02*
X58417460Y40190420D01*
X35478720Y38933120D02*
X36736020Y40190420D01*
X30617160Y38933120D02*
X35478720Y38933120D01*
X28270200Y36586160D02*
X30617160Y38933120D01*
X17154840Y37457060D02*
X16954500Y37256720D01*
D19*
X67891660Y30032960D02*
X69230260Y30032960D01*
X66824860Y28966160D02*
X67891660Y30032960D01*
X58417460Y52384960D02*
X58417460Y40190420D01*
X53146960Y57655460D02*
X58417460Y52384960D01*
D18*
X18829020Y37957060D02*
X22967380Y37957060D01*
X36847780Y41615360D02*
X53718460Y41615360D01*
X34864040Y39631620D02*
X36847780Y41615360D01*
X28973780Y39631620D02*
X34864040Y39631620D01*
X27175460Y37833300D02*
X28973780Y39631620D01*
X22967380Y37957060D02*
X23253700Y37670740D01*
D19*
X66189860Y31302960D02*
X69230260Y31302960D01*
X65605660Y30718760D02*
X66189860Y31302960D01*
X60881260Y52976780D02*
X60881260Y40167560D01*
X55034180Y58823860D02*
X60881260Y52976780D01*
D18*
X18829020Y38957060D02*
X24730900Y38957060D01*
X24730900Y38957060D02*
X24919940Y38768020D01*
X24432260Y53398420D02*
X24432260Y53675280D01*
X45760640Y55897780D02*
X45760640Y45303440D01*
X43088560Y58569860D02*
X45760640Y55897780D01*
X29326840Y58569860D02*
X43088560Y58569860D01*
X24432260Y53675280D02*
X29326840Y58569860D01*
X24432260Y53398420D02*
X24432260Y49420780D01*
X23111460Y39457060D02*
X18829020Y39457060D01*
X24655780Y40840660D02*
X23111460Y39457060D01*
X24670990Y48557090D02*
X24655780Y40840660D01*
X24432260Y49420780D02*
X24670990Y48557090D01*
X22793960Y53433980D02*
X22793960Y49641760D01*
X23113940Y40457060D02*
X18829020Y40457060D01*
X24190960Y41534080D02*
X23113940Y40457060D01*
X24190960Y48244760D02*
X24190960Y41534080D01*
X22793960Y49641760D02*
X24190960Y48244760D01*
X18829020Y41457060D02*
X20987200Y41457060D01*
D19*
X30248860Y46052740D02*
X30248860Y47177960D01*
X27515820Y43319700D02*
X30248860Y46052740D01*
D18*
X20987200Y41457060D02*
X22738080Y43207940D01*
D19*
X60607960Y24165560D02*
X63973460Y27531060D01*
X59738260Y24165560D02*
X60607960Y24165560D01*
X57261760Y26642060D02*
X59738260Y24165560D01*
D18*
X18829020Y42457060D02*
X16650660Y42457060D01*
X62043060Y29461460D02*
X63973460Y27531060D01*
X51368960Y29461460D02*
X62043060Y29461460D01*
X47127160Y25219660D02*
X51368960Y29461460D01*
X17078960Y25219660D02*
X47127160Y25219660D01*
X15836900Y26461720D02*
X17078960Y25219660D01*
X15836900Y41643300D02*
X15836900Y26461720D01*
X16650660Y42457060D02*
X15836900Y41643300D01*
D19*
X69230260Y27492960D02*
X69230260Y25798760D01*
X87170260Y32515560D02*
X83086960Y36598860D01*
X87170260Y26642060D02*
X87170260Y32515560D01*
X85417660Y24889460D02*
X87170260Y26642060D01*
X70139560Y24889460D02*
X85417660Y24889460D01*
X69230260Y25798760D02*
X70139560Y24889460D01*
X63973460Y27531060D02*
X69192160Y27531060D01*
X69192160Y27531060D02*
X69230260Y27492960D01*
D18*
X18829020Y43457060D02*
X21254920Y43457060D01*
X21254920Y43457060D02*
X22738080Y44940220D01*
D19*
X74630260Y27492960D02*
X79048860Y27492960D01*
X79048860Y27492960D02*
X79264760Y27708860D01*
X79353660Y32420560D02*
X79353660Y31322260D01*
X76794360Y28762960D02*
X74630260Y28762960D01*
X79353660Y31322260D02*
X76794360Y28762960D01*
X74630260Y30032960D02*
X75854560Y30032960D01*
X77073760Y34585660D02*
X79086960Y36598860D01*
X77073760Y31252160D02*
X77073760Y34585660D01*
X75854560Y30032960D02*
X77073760Y31252160D01*
D18*
X18829020Y33957060D02*
X27848760Y33957060D01*
X74957940Y43878500D02*
X74957940Y45443140D01*
X68922900Y37843460D02*
X74957940Y43878500D01*
X32489140Y37843460D02*
X68922900Y37843460D01*
X31762700Y37117020D02*
X32489140Y37843460D01*
X27848760Y33957060D02*
X28000960Y33804860D01*
X25090560Y36457060D02*
X18829020Y36457060D01*
X26146760Y37513260D02*
X25090560Y36457060D01*
X26146760Y53406040D02*
X26146760Y37513260D01*
X22039140Y40957060D02*
X18829020Y40957060D01*
X22644100Y41562020D02*
X22039140Y40957060D01*
X33159700Y48801020D02*
X33159700Y40833040D01*
X41633140Y57274460D02*
X33159700Y48801020D01*
X18829020Y40907062D02*
X18829020Y40957060D01*
X18098580Y38457060D02*
X18829020Y38457060D01*
X16913860Y39641780D02*
X18098580Y38457060D01*
D20*
G36*
X89271060Y20697060D02*
X15691060Y20697060D01*
X15691060Y25532758D01*
X16541559Y24682259D01*
X16788121Y24517512D01*
X17078960Y24459660D01*
X17329831Y24459660D01*
X17329831Y21278860D01*
X44742689Y21278860D01*
X44742689Y23544441D01*
X50245673Y23544441D01*
X50585215Y22722688D01*
X51213381Y22093424D01*
X52034541Y21752449D01*
X52923679Y21751673D01*
X53745432Y22091215D01*
X54374696Y22719381D01*
X54715671Y23540541D01*
X54716447Y24429679D01*
X54376905Y25251432D01*
X53748739Y25880696D01*
X52927579Y26221671D01*
X52038441Y26222447D01*
X51216688Y25882905D01*
X50587424Y25254739D01*
X50246449Y24433579D01*
X50245673Y23544441D01*
X44742689Y23544441D01*
X44742689Y24459660D01*
X47127160Y24459660D01*
X47417999Y24517512D01*
X47664561Y24682259D01*
X51683762Y28701460D01*
X58445834Y28701460D01*
X58435133Y28690759D01*
X58338460Y28457370D01*
X58338460Y27712810D01*
X58497210Y27554060D01*
X59950460Y27554060D01*
X59950460Y27574060D01*
X59996460Y27574060D01*
X59996460Y27554060D01*
X61449710Y27554060D01*
X61608460Y27712810D01*
X61608460Y28457370D01*
X61511787Y28690759D01*
X61501086Y28701460D01*
X61728258Y28701460D01*
X62326020Y28103698D01*
X62326020Y27205910D01*
X61526153Y26406043D01*
X61608460Y26604750D01*
X61608460Y27349310D01*
X61449710Y27508060D01*
X59996460Y27508060D01*
X59996460Y26254810D01*
X60155210Y26096060D01*
X61099769Y26096060D01*
X61298478Y26178368D01*
X60220670Y25100560D01*
X60125550Y25100560D01*
X59130050Y26096060D01*
X59791710Y26096060D01*
X59950460Y26254810D01*
X59950460Y27508060D01*
X58497210Y27508060D01*
X58390312Y27401162D01*
X58018964Y27773158D01*
X57528473Y27976828D01*
X56997377Y27977291D01*
X56506531Y27774478D01*
X56130662Y27399264D01*
X55926992Y26908773D01*
X55926529Y26377677D01*
X56129342Y25886831D01*
X56504556Y25510962D01*
X56995047Y25307292D01*
X57274482Y25307048D01*
X57921689Y24659841D01*
X57921689Y21009620D01*
X77048832Y21009620D01*
X77048832Y23954460D01*
X77995122Y23954460D01*
X77995122Y21101060D01*
X88095478Y21101060D01*
X88095478Y24921060D01*
X86771550Y24921060D01*
X87831405Y25980915D01*
X88034087Y26284251D01*
X88105260Y26642060D01*
X88105260Y32515560D01*
X88034087Y32873369D01*
X87831405Y33176705D01*
X84734400Y36273710D01*
X84734400Y37448860D01*
X84690122Y37684177D01*
X84551050Y37900301D01*
X84338850Y38045291D01*
X84086960Y38096300D01*
X82086960Y38096300D01*
X81851643Y38052022D01*
X81635519Y37912950D01*
X81490529Y37700750D01*
X81439520Y37448860D01*
X81439520Y35748860D01*
X81483798Y35513543D01*
X81622870Y35297419D01*
X81835070Y35152429D01*
X82086960Y35101420D01*
X83262110Y35101420D01*
X84457970Y33905560D01*
X83535410Y33905560D01*
X83376660Y33746810D01*
X83376660Y32443560D01*
X84829910Y32443560D01*
X84988660Y32602310D01*
X84988660Y33374870D01*
X86235260Y32128270D01*
X86235260Y27029350D01*
X85030370Y25824460D01*
X70526850Y25824460D01*
X70165260Y26186050D01*
X70165260Y26575626D01*
X70240577Y26589798D01*
X70456701Y26728870D01*
X70601691Y26941070D01*
X70652700Y27192960D01*
X70652700Y27792960D01*
X70608422Y28028277D01*
X70550082Y28118940D01*
X70640260Y28336650D01*
X70640260Y28581210D01*
X70481510Y28739960D01*
X69253260Y28739960D01*
X69253260Y28719960D01*
X69207260Y28719960D01*
X69207260Y28739960D01*
X69187260Y28739960D01*
X69187260Y28785960D01*
X69207260Y28785960D01*
X69207260Y28805960D01*
X69253260Y28805960D01*
X69253260Y28785960D01*
X70481510Y28785960D01*
X70640260Y28944710D01*
X70640260Y29189270D01*
X70550454Y29406082D01*
X70601691Y29481070D01*
X70652700Y29732960D01*
X70652700Y30332960D01*
X70608422Y30568277D01*
X70544582Y30667488D01*
X70601691Y30751070D01*
X70652700Y31002960D01*
X70652700Y31602960D01*
X70634994Y31697060D01*
X71080300Y31697060D01*
X71242229Y31729270D01*
X73220260Y31729270D01*
X73220260Y31484710D01*
X73379010Y31325960D01*
X74607260Y31325960D01*
X74607260Y32079210D01*
X74448510Y32237960D01*
X73728951Y32237960D01*
X73495562Y32141287D01*
X73316933Y31962659D01*
X73220260Y31729270D01*
X71242229Y31729270D01*
X71371139Y31754912D01*
X71617701Y31919659D01*
X77787343Y38089300D01*
X78049758Y38089300D01*
X77851643Y38052022D01*
X77635519Y37912950D01*
X77490529Y37700750D01*
X77439520Y37448860D01*
X77439520Y36273710D01*
X76412615Y35246805D01*
X76209933Y34943469D01*
X76138760Y34585660D01*
X76138760Y31639450D01*
X76040260Y31540950D01*
X76040260Y31729270D01*
X75943587Y31962659D01*
X75764958Y32141287D01*
X75531569Y32237960D01*
X74812010Y32237960D01*
X74653260Y32079210D01*
X74653260Y31325960D01*
X74673260Y31325960D01*
X74673260Y31279960D01*
X74653260Y31279960D01*
X74653260Y31259960D01*
X74607260Y31259960D01*
X74607260Y31279960D01*
X73379010Y31279960D01*
X73220260Y31121210D01*
X73220260Y30876650D01*
X73310066Y30659838D01*
X73258829Y30584850D01*
X73207820Y30332960D01*
X73207820Y29732960D01*
X73252098Y29497643D01*
X73315938Y29398432D01*
X73258829Y29314850D01*
X73207820Y29062960D01*
X73207820Y28462960D01*
X73252098Y28227643D01*
X73315938Y28128432D01*
X73258829Y28044850D01*
X73207820Y27792960D01*
X73207820Y27192960D01*
X73252098Y26957643D01*
X73391170Y26741519D01*
X73603370Y26596529D01*
X73855260Y26545520D01*
X75405260Y26545520D01*
X75471373Y26557960D01*
X77703800Y26557960D01*
X77800670Y26407419D01*
X78012870Y26262429D01*
X78264760Y26211420D01*
X80264760Y26211420D01*
X80500077Y26255698D01*
X80716201Y26394770D01*
X80861191Y26606970D01*
X80912200Y26858860D01*
X80912200Y27527110D01*
X81629760Y27527110D01*
X81629760Y26732550D01*
X81726433Y26499161D01*
X81905062Y26320533D01*
X82138451Y26223860D01*
X83083010Y26223860D01*
X83241760Y26382610D01*
X83241760Y27685860D01*
X83287760Y27685860D01*
X83287760Y26382610D01*
X83446510Y26223860D01*
X84391069Y26223860D01*
X84624458Y26320533D01*
X84803087Y26499161D01*
X84899760Y26732550D01*
X84899760Y27527110D01*
X84741010Y27685860D01*
X83287760Y27685860D01*
X83241760Y27685860D01*
X81788510Y27685860D01*
X81629760Y27527110D01*
X80912200Y27527110D01*
X80912200Y28558860D01*
X80888434Y28685170D01*
X81629760Y28685170D01*
X81629760Y27890610D01*
X81788510Y27731860D01*
X83241760Y27731860D01*
X83241760Y29035110D01*
X83287760Y29035110D01*
X83287760Y27731860D01*
X84741010Y27731860D01*
X84899760Y27890610D01*
X84899760Y28685170D01*
X84803087Y28918559D01*
X84624458Y29097187D01*
X84391069Y29193860D01*
X83446510Y29193860D01*
X83287760Y29035110D01*
X83241760Y29035110D01*
X83083010Y29193860D01*
X82138451Y29193860D01*
X81905062Y29097187D01*
X81726433Y28918559D01*
X81629760Y28685170D01*
X80888434Y28685170D01*
X80867922Y28794177D01*
X80728850Y29010301D01*
X80516650Y29155291D01*
X80264760Y29206300D01*
X78559990Y29206300D01*
X80014805Y30661115D01*
X80189871Y30923120D01*
X80353660Y30923120D01*
X80588977Y30967398D01*
X80805101Y31106470D01*
X80950091Y31318670D01*
X81001100Y31570560D01*
X81001100Y32238810D01*
X81718660Y32238810D01*
X81718660Y31444250D01*
X81815333Y31210861D01*
X81993962Y31032233D01*
X82227351Y30935560D01*
X83171910Y30935560D01*
X83330660Y31094310D01*
X83330660Y32397560D01*
X83376660Y32397560D01*
X83376660Y31094310D01*
X83535410Y30935560D01*
X84479969Y30935560D01*
X84713358Y31032233D01*
X84891987Y31210861D01*
X84988660Y31444250D01*
X84988660Y32238810D01*
X84829910Y32397560D01*
X83376660Y32397560D01*
X83330660Y32397560D01*
X81877410Y32397560D01*
X81718660Y32238810D01*
X81001100Y32238810D01*
X81001100Y33270560D01*
X80977334Y33396870D01*
X81718660Y33396870D01*
X81718660Y32602310D01*
X81877410Y32443560D01*
X83330660Y32443560D01*
X83330660Y33746810D01*
X83171910Y33905560D01*
X82227351Y33905560D01*
X81993962Y33808887D01*
X81815333Y33630259D01*
X81718660Y33396870D01*
X80977334Y33396870D01*
X80956822Y33505877D01*
X80817750Y33722001D01*
X80605550Y33866991D01*
X80353660Y33918000D01*
X78353660Y33918000D01*
X78118343Y33873722D01*
X78008760Y33803207D01*
X78008760Y34198370D01*
X78911810Y35101420D01*
X80086960Y35101420D01*
X80322277Y35145698D01*
X80538401Y35284770D01*
X80683391Y35496970D01*
X80734400Y35748860D01*
X80734400Y37448860D01*
X80690122Y37684177D01*
X80551050Y37900301D01*
X80338850Y38045291D01*
X80086960Y38096300D01*
X78681211Y38096300D01*
X78936859Y38147152D01*
X79183421Y38311899D01*
X82449861Y41578339D01*
X82614608Y41824901D01*
X82672460Y42115740D01*
X82672460Y44450105D01*
X83043558Y44820556D01*
X83247228Y45311047D01*
X83247691Y45842143D01*
X83044878Y46332989D01*
X82669664Y46708858D01*
X82179173Y46912528D01*
X81648077Y46912991D01*
X81157231Y46710178D01*
X81036347Y46589504D01*
X80995804Y46630118D01*
X80505313Y46833788D01*
X79974217Y46834251D01*
X79483371Y46631438D01*
X79399264Y46547477D01*
X79260984Y46685998D01*
X78770493Y46889668D01*
X78239397Y46890131D01*
X77748551Y46687318D01*
X77609800Y46548809D01*
X77488064Y46670758D01*
X76997573Y46874428D01*
X76466477Y46874891D01*
X75975631Y46672078D01*
X75796240Y46493000D01*
X75715144Y46574238D01*
X75224653Y46777908D01*
X74693557Y46778371D01*
X74202711Y46575558D01*
X74121079Y46494068D01*
X73906664Y46708858D01*
X73416173Y46912528D01*
X72885077Y46912991D01*
X72394231Y46710178D01*
X72018362Y46334964D01*
X71814692Y45844473D01*
X71814232Y45317334D01*
X65900458Y39403560D01*
X62005550Y39403560D01*
X62012358Y39410356D01*
X62216028Y39900847D01*
X62216491Y40431943D01*
X62013678Y40922789D01*
X61816260Y41120552D01*
X61816260Y52976780D01*
X61745087Y53334589D01*
X61542405Y53637925D01*
X59635889Y55544441D01*
X83745673Y55544441D01*
X84085215Y54722688D01*
X84713381Y54093424D01*
X85534541Y53752449D01*
X86423679Y53751673D01*
X87245432Y54091215D01*
X87874696Y54719381D01*
X88215671Y55540541D01*
X88216447Y56429679D01*
X87876905Y57251432D01*
X87248739Y57880696D01*
X86427579Y58221671D01*
X85538441Y58222447D01*
X84716688Y57882905D01*
X84087424Y57254739D01*
X83746449Y56433579D01*
X83745673Y55544441D01*
X59635889Y55544441D01*
X56369169Y58811161D01*
X56369411Y59088243D01*
X56291394Y59277060D01*
X89271060Y59277060D01*
X89271060Y20697060D01*
X89271060Y20697060D01*
G37*
X89271060Y20697060D02*
X15691060Y20697060D01*
X15691060Y25532758D01*
X16541559Y24682259D01*
X16788121Y24517512D01*
X17078960Y24459660D01*
X17329831Y24459660D01*
X17329831Y21278860D01*
X44742689Y21278860D01*
X44742689Y23544441D01*
X50245673Y23544441D01*
X50585215Y22722688D01*
X51213381Y22093424D01*
X52034541Y21752449D01*
X52923679Y21751673D01*
X53745432Y22091215D01*
X54374696Y22719381D01*
X54715671Y23540541D01*
X54716447Y24429679D01*
X54376905Y25251432D01*
X53748739Y25880696D01*
X52927579Y26221671D01*
X52038441Y26222447D01*
X51216688Y25882905D01*
X50587424Y25254739D01*
X50246449Y24433579D01*
X50245673Y23544441D01*
X44742689Y23544441D01*
X44742689Y24459660D01*
X47127160Y24459660D01*
X47417999Y24517512D01*
X47664561Y24682259D01*
X51683762Y28701460D01*
X58445834Y28701460D01*
X58435133Y28690759D01*
X58338460Y28457370D01*
X58338460Y27712810D01*
X58497210Y27554060D01*
X59950460Y27554060D01*
X59950460Y27574060D01*
X59996460Y27574060D01*
X59996460Y27554060D01*
X61449710Y27554060D01*
X61608460Y27712810D01*
X61608460Y28457370D01*
X61511787Y28690759D01*
X61501086Y28701460D01*
X61728258Y28701460D01*
X62326020Y28103698D01*
X62326020Y27205910D01*
X61526153Y26406043D01*
X61608460Y26604750D01*
X61608460Y27349310D01*
X61449710Y27508060D01*
X59996460Y27508060D01*
X59996460Y26254810D01*
X60155210Y26096060D01*
X61099769Y26096060D01*
X61298478Y26178368D01*
X60220670Y25100560D01*
X60125550Y25100560D01*
X59130050Y26096060D01*
X59791710Y26096060D01*
X59950460Y26254810D01*
X59950460Y27508060D01*
X58497210Y27508060D01*
X58390312Y27401162D01*
X58018964Y27773158D01*
X57528473Y27976828D01*
X56997377Y27977291D01*
X56506531Y27774478D01*
X56130662Y27399264D01*
X55926992Y26908773D01*
X55926529Y26377677D01*
X56129342Y25886831D01*
X56504556Y25510962D01*
X56995047Y25307292D01*
X57274482Y25307048D01*
X57921689Y24659841D01*
X57921689Y21009620D01*
X77048832Y21009620D01*
X77048832Y23954460D01*
X77995122Y23954460D01*
X77995122Y21101060D01*
X88095478Y21101060D01*
X88095478Y24921060D01*
X86771550Y24921060D01*
X87831405Y25980915D01*
X88034087Y26284251D01*
X88105260Y26642060D01*
X88105260Y32515560D01*
X88034087Y32873369D01*
X87831405Y33176705D01*
X84734400Y36273710D01*
X84734400Y37448860D01*
X84690122Y37684177D01*
X84551050Y37900301D01*
X84338850Y38045291D01*
X84086960Y38096300D01*
X82086960Y38096300D01*
X81851643Y38052022D01*
X81635519Y37912950D01*
X81490529Y37700750D01*
X81439520Y37448860D01*
X81439520Y35748860D01*
X81483798Y35513543D01*
X81622870Y35297419D01*
X81835070Y35152429D01*
X82086960Y35101420D01*
X83262110Y35101420D01*
X84457970Y33905560D01*
X83535410Y33905560D01*
X83376660Y33746810D01*
X83376660Y32443560D01*
X84829910Y32443560D01*
X84988660Y32602310D01*
X84988660Y33374870D01*
X86235260Y32128270D01*
X86235260Y27029350D01*
X85030370Y25824460D01*
X70526850Y25824460D01*
X70165260Y26186050D01*
X70165260Y26575626D01*
X70240577Y26589798D01*
X70456701Y26728870D01*
X70601691Y26941070D01*
X70652700Y27192960D01*
X70652700Y27792960D01*
X70608422Y28028277D01*
X70550082Y28118940D01*
X70640260Y28336650D01*
X70640260Y28581210D01*
X70481510Y28739960D01*
X69253260Y28739960D01*
X69253260Y28719960D01*
X69207260Y28719960D01*
X69207260Y28739960D01*
X69187260Y28739960D01*
X69187260Y28785960D01*
X69207260Y28785960D01*
X69207260Y28805960D01*
X69253260Y28805960D01*
X69253260Y28785960D01*
X70481510Y28785960D01*
X70640260Y28944710D01*
X70640260Y29189270D01*
X70550454Y29406082D01*
X70601691Y29481070D01*
X70652700Y29732960D01*
X70652700Y30332960D01*
X70608422Y30568277D01*
X70544582Y30667488D01*
X70601691Y30751070D01*
X70652700Y31002960D01*
X70652700Y31602960D01*
X70634994Y31697060D01*
X71080300Y31697060D01*
X71242229Y31729270D01*
X73220260Y31729270D01*
X73220260Y31484710D01*
X73379010Y31325960D01*
X74607260Y31325960D01*
X74607260Y32079210D01*
X74448510Y32237960D01*
X73728951Y32237960D01*
X73495562Y32141287D01*
X73316933Y31962659D01*
X73220260Y31729270D01*
X71242229Y31729270D01*
X71371139Y31754912D01*
X71617701Y31919659D01*
X77787343Y38089300D01*
X78049758Y38089300D01*
X77851643Y38052022D01*
X77635519Y37912950D01*
X77490529Y37700750D01*
X77439520Y37448860D01*
X77439520Y36273710D01*
X76412615Y35246805D01*
X76209933Y34943469D01*
X76138760Y34585660D01*
X76138760Y31639450D01*
X76040260Y31540950D01*
X76040260Y31729270D01*
X75943587Y31962659D01*
X75764958Y32141287D01*
X75531569Y32237960D01*
X74812010Y32237960D01*
X74653260Y32079210D01*
X74653260Y31325960D01*
X74673260Y31325960D01*
X74673260Y31279960D01*
X74653260Y31279960D01*
X74653260Y31259960D01*
X74607260Y31259960D01*
X74607260Y31279960D01*
X73379010Y31279960D01*
X73220260Y31121210D01*
X73220260Y30876650D01*
X73310066Y30659838D01*
X73258829Y30584850D01*
X73207820Y30332960D01*
X73207820Y29732960D01*
X73252098Y29497643D01*
X73315938Y29398432D01*
X73258829Y29314850D01*
X73207820Y29062960D01*
X73207820Y28462960D01*
X73252098Y28227643D01*
X73315938Y28128432D01*
X73258829Y28044850D01*
X73207820Y27792960D01*
X73207820Y27192960D01*
X73252098Y26957643D01*
X73391170Y26741519D01*
X73603370Y26596529D01*
X73855260Y26545520D01*
X75405260Y26545520D01*
X75471373Y26557960D01*
X77703800Y26557960D01*
X77800670Y26407419D01*
X78012870Y26262429D01*
X78264760Y26211420D01*
X80264760Y26211420D01*
X80500077Y26255698D01*
X80716201Y26394770D01*
X80861191Y26606970D01*
X80912200Y26858860D01*
X80912200Y27527110D01*
X81629760Y27527110D01*
X81629760Y26732550D01*
X81726433Y26499161D01*
X81905062Y26320533D01*
X82138451Y26223860D01*
X83083010Y26223860D01*
X83241760Y26382610D01*
X83241760Y27685860D01*
X83287760Y27685860D01*
X83287760Y26382610D01*
X83446510Y26223860D01*
X84391069Y26223860D01*
X84624458Y26320533D01*
X84803087Y26499161D01*
X84899760Y26732550D01*
X84899760Y27527110D01*
X84741010Y27685860D01*
X83287760Y27685860D01*
X83241760Y27685860D01*
X81788510Y27685860D01*
X81629760Y27527110D01*
X80912200Y27527110D01*
X80912200Y28558860D01*
X80888434Y28685170D01*
X81629760Y28685170D01*
X81629760Y27890610D01*
X81788510Y27731860D01*
X83241760Y27731860D01*
X83241760Y29035110D01*
X83287760Y29035110D01*
X83287760Y27731860D01*
X84741010Y27731860D01*
X84899760Y27890610D01*
X84899760Y28685170D01*
X84803087Y28918559D01*
X84624458Y29097187D01*
X84391069Y29193860D01*
X83446510Y29193860D01*
X83287760Y29035110D01*
X83241760Y29035110D01*
X83083010Y29193860D01*
X82138451Y29193860D01*
X81905062Y29097187D01*
X81726433Y28918559D01*
X81629760Y28685170D01*
X80888434Y28685170D01*
X80867922Y28794177D01*
X80728850Y29010301D01*
X80516650Y29155291D01*
X80264760Y29206300D01*
X78559990Y29206300D01*
X80014805Y30661115D01*
X80189871Y30923120D01*
X80353660Y30923120D01*
X80588977Y30967398D01*
X80805101Y31106470D01*
X80950091Y31318670D01*
X81001100Y31570560D01*
X81001100Y32238810D01*
X81718660Y32238810D01*
X81718660Y31444250D01*
X81815333Y31210861D01*
X81993962Y31032233D01*
X82227351Y30935560D01*
X83171910Y30935560D01*
X83330660Y31094310D01*
X83330660Y32397560D01*
X83376660Y32397560D01*
X83376660Y31094310D01*
X83535410Y30935560D01*
X84479969Y30935560D01*
X84713358Y31032233D01*
X84891987Y31210861D01*
X84988660Y31444250D01*
X84988660Y32238810D01*
X84829910Y32397560D01*
X83376660Y32397560D01*
X83330660Y32397560D01*
X81877410Y32397560D01*
X81718660Y32238810D01*
X81001100Y32238810D01*
X81001100Y33270560D01*
X80977334Y33396870D01*
X81718660Y33396870D01*
X81718660Y32602310D01*
X81877410Y32443560D01*
X83330660Y32443560D01*
X83330660Y33746810D01*
X83171910Y33905560D01*
X82227351Y33905560D01*
X81993962Y33808887D01*
X81815333Y33630259D01*
X81718660Y33396870D01*
X80977334Y33396870D01*
X80956822Y33505877D01*
X80817750Y33722001D01*
X80605550Y33866991D01*
X80353660Y33918000D01*
X78353660Y33918000D01*
X78118343Y33873722D01*
X78008760Y33803207D01*
X78008760Y34198370D01*
X78911810Y35101420D01*
X80086960Y35101420D01*
X80322277Y35145698D01*
X80538401Y35284770D01*
X80683391Y35496970D01*
X80734400Y35748860D01*
X80734400Y37448860D01*
X80690122Y37684177D01*
X80551050Y37900301D01*
X80338850Y38045291D01*
X80086960Y38096300D01*
X78681211Y38096300D01*
X78936859Y38147152D01*
X79183421Y38311899D01*
X82449861Y41578339D01*
X82614608Y41824901D01*
X82672460Y42115740D01*
X82672460Y44450105D01*
X83043558Y44820556D01*
X83247228Y45311047D01*
X83247691Y45842143D01*
X83044878Y46332989D01*
X82669664Y46708858D01*
X82179173Y46912528D01*
X81648077Y46912991D01*
X81157231Y46710178D01*
X81036347Y46589504D01*
X80995804Y46630118D01*
X80505313Y46833788D01*
X79974217Y46834251D01*
X79483371Y46631438D01*
X79399264Y46547477D01*
X79260984Y46685998D01*
X78770493Y46889668D01*
X78239397Y46890131D01*
X77748551Y46687318D01*
X77609800Y46548809D01*
X77488064Y46670758D01*
X76997573Y46874428D01*
X76466477Y46874891D01*
X75975631Y46672078D01*
X75796240Y46493000D01*
X75715144Y46574238D01*
X75224653Y46777908D01*
X74693557Y46778371D01*
X74202711Y46575558D01*
X74121079Y46494068D01*
X73906664Y46708858D01*
X73416173Y46912528D01*
X72885077Y46912991D01*
X72394231Y46710178D01*
X72018362Y46334964D01*
X71814692Y45844473D01*
X71814232Y45317334D01*
X65900458Y39403560D01*
X62005550Y39403560D01*
X62012358Y39410356D01*
X62216028Y39900847D01*
X62216491Y40431943D01*
X62013678Y40922789D01*
X61816260Y41120552D01*
X61816260Y52976780D01*
X61745087Y53334589D01*
X61542405Y53637925D01*
X59635889Y55544441D01*
X83745673Y55544441D01*
X84085215Y54722688D01*
X84713381Y54093424D01*
X85534541Y53752449D01*
X86423679Y53751673D01*
X87245432Y54091215D01*
X87874696Y54719381D01*
X88215671Y55540541D01*
X88216447Y56429679D01*
X87876905Y57251432D01*
X87248739Y57880696D01*
X86427579Y58221671D01*
X85538441Y58222447D01*
X84716688Y57882905D01*
X84087424Y57254739D01*
X83746449Y56433579D01*
X83745673Y55544441D01*
X59635889Y55544441D01*
X56369169Y58811161D01*
X56369411Y59088243D01*
X56291394Y59277060D01*
X89271060Y59277060D01*
X89271060Y20697060D01*
G36*
X18829020Y31197060D02*
X18852020Y31197060D01*
X18852020Y30880810D01*
X19010770Y30722060D01*
X19355330Y30722060D01*
X19588719Y30818733D01*
X19767347Y30997362D01*
X19850065Y31197060D01*
X27849589Y31197060D01*
X27809192Y31099773D01*
X27808732Y30572634D01*
X25323958Y28087860D01*
X18866962Y28087860D01*
X17864360Y29090462D01*
X17864360Y30307060D01*
X19681580Y30307060D01*
X19681580Y28807060D01*
X19725858Y28571743D01*
X19864930Y28355619D01*
X20077130Y28210629D01*
X20329020Y28159620D01*
X22329020Y28159620D01*
X22564337Y28203898D01*
X22780461Y28342970D01*
X22925451Y28555170D01*
X22976460Y28807060D01*
X22976460Y30307060D01*
X22932182Y30542377D01*
X22793110Y30758501D01*
X22580910Y30903491D01*
X22329020Y30954500D01*
X20329020Y30954500D01*
X20093703Y30910222D01*
X19877579Y30771150D01*
X19732589Y30558950D01*
X19681580Y30307060D01*
X17864360Y30307060D01*
X17864360Y31060935D01*
X17890693Y30997362D01*
X18069321Y30818733D01*
X18302710Y30722060D01*
X18647270Y30722060D01*
X18806020Y30880810D01*
X18806020Y31201635D01*
X18829020Y31197060D01*
X18829020Y31197060D01*
G37*
X18829020Y31197060D02*
X18852020Y31197060D01*
X18852020Y30880810D01*
X19010770Y30722060D01*
X19355330Y30722060D01*
X19588719Y30818733D01*
X19767347Y30997362D01*
X19850065Y31197060D01*
X27849589Y31197060D01*
X27809192Y31099773D01*
X27808732Y30572634D01*
X25323958Y28087860D01*
X18866962Y28087860D01*
X17864360Y29090462D01*
X17864360Y30307060D01*
X19681580Y30307060D01*
X19681580Y28807060D01*
X19725858Y28571743D01*
X19864930Y28355619D01*
X20077130Y28210629D01*
X20329020Y28159620D01*
X22329020Y28159620D01*
X22564337Y28203898D01*
X22780461Y28342970D01*
X22925451Y28555170D01*
X22976460Y28807060D01*
X22976460Y30307060D01*
X22932182Y30542377D01*
X22793110Y30758501D01*
X22580910Y30903491D01*
X22329020Y30954500D01*
X20329020Y30954500D01*
X20093703Y30910222D01*
X19877579Y30771150D01*
X19732589Y30558950D01*
X19681580Y30307060D01*
X17864360Y30307060D01*
X17864360Y31060935D01*
X17890693Y30997362D01*
X18069321Y30818733D01*
X18302710Y30722060D01*
X18647270Y30722060D01*
X18806020Y30880810D01*
X18806020Y31201635D01*
X18829020Y31197060D01*
G36*
X17807939Y36216973D02*
X17794020Y36183369D01*
X17794020Y36138810D01*
X17852518Y36080312D01*
X17932779Y35955583D01*
X17843222Y35824512D01*
X17794020Y35775310D01*
X17794020Y35730751D01*
X17809289Y35693889D01*
X17781580Y35557060D01*
X17781580Y35357060D01*
X17810841Y35201553D01*
X17781580Y35057060D01*
X17781580Y34857060D01*
X17807939Y34716973D01*
X17794020Y34683369D01*
X17794020Y34638810D01*
X17852518Y34580312D01*
X17932779Y34455583D01*
X17843222Y34324512D01*
X17794020Y34275310D01*
X17794020Y34230751D01*
X17807293Y34198707D01*
X17608721Y34159208D01*
X17362159Y33994461D01*
X16596900Y33229202D01*
X16596900Y35959692D01*
X16687787Y35921952D01*
X17218883Y35921489D01*
X17709729Y36124302D01*
X17807089Y36221492D01*
X17807939Y36216973D01*
X17807939Y36216973D01*
G37*
X17807939Y36216973D02*
X17794020Y36183369D01*
X17794020Y36138810D01*
X17852518Y36080312D01*
X17932779Y35955583D01*
X17843222Y35824512D01*
X17794020Y35775310D01*
X17794020Y35730751D01*
X17809289Y35693889D01*
X17781580Y35557060D01*
X17781580Y35357060D01*
X17810841Y35201553D01*
X17781580Y35057060D01*
X17781580Y34857060D01*
X17807939Y34716973D01*
X17794020Y34683369D01*
X17794020Y34638810D01*
X17852518Y34580312D01*
X17932779Y34455583D01*
X17843222Y34324512D01*
X17794020Y34275310D01*
X17794020Y34230751D01*
X17807293Y34198707D01*
X17608721Y34159208D01*
X17362159Y33994461D01*
X16596900Y33229202D01*
X16596900Y35959692D01*
X16687787Y35921952D01*
X17218883Y35921489D01*
X17709729Y36124302D01*
X17807089Y36221492D01*
X17807939Y36216973D01*
G36*
X40298372Y57541173D02*
X40297912Y57014034D01*
X32622299Y49338421D01*
X32457552Y49091859D01*
X32399700Y48801020D01*
X32399700Y41960695D01*
X32028602Y41590244D01*
X31824932Y41099753D01*
X31824469Y40568657D01*
X31897619Y40391620D01*
X28973780Y40391620D01*
X28682941Y40333768D01*
X28436379Y40169021D01*
X27435432Y39168074D01*
X26911077Y39168531D01*
X26906760Y39166747D01*
X26906760Y42127087D01*
X27249107Y41984932D01*
X27780203Y41984469D01*
X28271049Y42187282D01*
X28646918Y42562496D01*
X28850588Y43052987D01*
X28850832Y43332422D01*
X30910005Y45391595D01*
X31112687Y45694931D01*
X31183860Y46052740D01*
X31183860Y46225000D01*
X31379958Y46420756D01*
X31583628Y46911247D01*
X31584091Y47442343D01*
X31381278Y47933189D01*
X31006064Y48309058D01*
X30515573Y48512728D01*
X29984477Y48513191D01*
X29493631Y48310378D01*
X29117762Y47935164D01*
X28914092Y47444673D01*
X28913629Y46913577D01*
X29116442Y46422731D01*
X29206423Y46332593D01*
X27528519Y44654689D01*
X27251437Y44654931D01*
X26906760Y44512514D01*
X26906760Y52278385D01*
X27277858Y52648836D01*
X27481528Y53139327D01*
X27481991Y53670423D01*
X27279178Y54161269D01*
X26903964Y54537138D01*
X26525904Y54694122D01*
X29641642Y57809860D01*
X40409941Y57809860D01*
X40298372Y57541173D01*
X40298372Y57541173D01*
G37*
X40298372Y57541173D02*
X40297912Y57014034D01*
X32622299Y49338421D01*
X32457552Y49091859D01*
X32399700Y48801020D01*
X32399700Y41960695D01*
X32028602Y41590244D01*
X31824932Y41099753D01*
X31824469Y40568657D01*
X31897619Y40391620D01*
X28973780Y40391620D01*
X28682941Y40333768D01*
X28436379Y40169021D01*
X27435432Y39168074D01*
X26911077Y39168531D01*
X26906760Y39166747D01*
X26906760Y42127087D01*
X27249107Y41984932D01*
X27780203Y41984469D01*
X28271049Y42187282D01*
X28646918Y42562496D01*
X28850588Y43052987D01*
X28850832Y43332422D01*
X30910005Y45391595D01*
X31112687Y45694931D01*
X31183860Y46052740D01*
X31183860Y46225000D01*
X31379958Y46420756D01*
X31583628Y46911247D01*
X31584091Y47442343D01*
X31381278Y47933189D01*
X31006064Y48309058D01*
X30515573Y48512728D01*
X29984477Y48513191D01*
X29493631Y48310378D01*
X29117762Y47935164D01*
X28914092Y47444673D01*
X28913629Y46913577D01*
X29116442Y46422731D01*
X29206423Y46332593D01*
X27528519Y44654689D01*
X27251437Y44654931D01*
X26906760Y44512514D01*
X26906760Y52278385D01*
X27277858Y52648836D01*
X27481528Y53139327D01*
X27481991Y53670423D01*
X27279178Y54161269D01*
X26903964Y54537138D01*
X26525904Y54694122D01*
X29641642Y57809860D01*
X40409941Y57809860D01*
X40298372Y57541173D01*
G36*
X53699412Y59090573D02*
X53699221Y58871658D01*
X53413673Y58990228D01*
X52882577Y58990691D01*
X52391731Y58787878D01*
X52015862Y58412664D01*
X51812192Y57922173D01*
X51811729Y57391077D01*
X52014542Y56900231D01*
X52389756Y56524362D01*
X52880247Y56320692D01*
X53159682Y56320448D01*
X57482460Y51997670D01*
X57482460Y41143380D01*
X57289163Y40950420D01*
X54887869Y40950420D01*
X55053228Y41348647D01*
X55053691Y41879743D01*
X54850878Y42370589D01*
X54475664Y42746458D01*
X53985173Y42950128D01*
X53454077Y42950591D01*
X52963231Y42747778D01*
X52590163Y42375360D01*
X36847780Y42375360D01*
X36556941Y42317508D01*
X36310379Y42152761D01*
X34549238Y40391620D01*
X34421923Y40391620D01*
X34494468Y40566327D01*
X34494931Y41097423D01*
X34292118Y41588269D01*
X33919700Y41961337D01*
X33919700Y48486218D01*
X41373168Y55939686D01*
X41897523Y55939229D01*
X42388369Y56142042D01*
X42764238Y56517256D01*
X42967908Y57007747D01*
X42968371Y57538843D01*
X42914573Y57669045D01*
X45000640Y55582978D01*
X45000640Y46431095D01*
X44629542Y46060644D01*
X44425872Y45570153D01*
X44425409Y45039057D01*
X44628222Y44548211D01*
X45003436Y44172342D01*
X45493927Y43968672D01*
X46025023Y43968209D01*
X46515869Y44171022D01*
X46891738Y44546236D01*
X47095408Y45036727D01*
X47095871Y45567823D01*
X46893058Y46058669D01*
X46520640Y46431737D01*
X46520640Y55897780D01*
X46462788Y56188619D01*
X46298041Y56435181D01*
X43625961Y59107261D01*
X43379399Y59272008D01*
X43354001Y59277060D01*
X53776848Y59277060D01*
X53699412Y59090573D01*
X53699412Y59090573D01*
G37*
X53699412Y59090573D02*
X53699221Y58871658D01*
X53413673Y58990228D01*
X52882577Y58990691D01*
X52391731Y58787878D01*
X52015862Y58412664D01*
X51812192Y57922173D01*
X51811729Y57391077D01*
X52014542Y56900231D01*
X52389756Y56524362D01*
X52880247Y56320692D01*
X53159682Y56320448D01*
X57482460Y51997670D01*
X57482460Y41143380D01*
X57289163Y40950420D01*
X54887869Y40950420D01*
X55053228Y41348647D01*
X55053691Y41879743D01*
X54850878Y42370589D01*
X54475664Y42746458D01*
X53985173Y42950128D01*
X53454077Y42950591D01*
X52963231Y42747778D01*
X52590163Y42375360D01*
X36847780Y42375360D01*
X36556941Y42317508D01*
X36310379Y42152761D01*
X34549238Y40391620D01*
X34421923Y40391620D01*
X34494468Y40566327D01*
X34494931Y41097423D01*
X34292118Y41588269D01*
X33919700Y41961337D01*
X33919700Y48486218D01*
X41373168Y55939686D01*
X41897523Y55939229D01*
X42388369Y56142042D01*
X42764238Y56517256D01*
X42967908Y57007747D01*
X42968371Y57538843D01*
X42914573Y57669045D01*
X45000640Y55582978D01*
X45000640Y46431095D01*
X44629542Y46060644D01*
X44425872Y45570153D01*
X44425409Y45039057D01*
X44628222Y44548211D01*
X45003436Y44172342D01*
X45493927Y43968672D01*
X46025023Y43968209D01*
X46515869Y44171022D01*
X46891738Y44546236D01*
X47095408Y45036727D01*
X47095871Y45567823D01*
X46893058Y46058669D01*
X46520640Y46431737D01*
X46520640Y55897780D01*
X46462788Y56188619D01*
X46298041Y56435181D01*
X43625961Y59107261D01*
X43379399Y59272008D01*
X43354001Y59277060D01*
X53776848Y59277060D01*
X53699412Y59090573D01*
G36*
X20672398Y42217060D02*
X19850065Y42217060D01*
X19848751Y42220231D01*
X19876460Y42357060D01*
X19876460Y42557060D01*
X19850117Y42697060D01*
X21152398Y42697060D01*
X20672398Y42217060D01*
X20672398Y42217060D01*
G37*
X20672398Y42217060D02*
X19850065Y42217060D01*
X19848751Y42220231D01*
X19876460Y42357060D01*
X19876460Y42557060D01*
X19850117Y42697060D01*
X21152398Y42697060D01*
X20672398Y42217060D01*
G36*
X29036000Y59272008D02*
X28789439Y59107261D01*
X24415613Y54733435D01*
X24167877Y54733651D01*
X23677031Y54530838D01*
X23631108Y54484995D01*
X23551164Y54565078D01*
X23060673Y54768748D01*
X22529577Y54769211D01*
X22038731Y54566398D01*
X21662862Y54191184D01*
X21459192Y53700693D01*
X21458729Y53169597D01*
X21661542Y52678751D01*
X22033960Y52305683D01*
X22033960Y49641760D01*
X22091812Y49350921D01*
X22156238Y49254500D01*
X20329020Y49254500D01*
X20093703Y49210222D01*
X19877579Y49071150D01*
X19732589Y48858950D01*
X19681580Y48607060D01*
X19681580Y47107060D01*
X19725858Y46871743D01*
X19864930Y46655619D01*
X20077130Y46510629D01*
X20329020Y46459620D01*
X22329020Y46459620D01*
X22564337Y46503898D01*
X22780461Y46642970D01*
X22925451Y46855170D01*
X22976460Y47107060D01*
X22976460Y48384458D01*
X23430960Y47929958D01*
X23430960Y46098028D01*
X23004793Y46274988D01*
X22473697Y46275451D01*
X21982851Y46072638D01*
X21606982Y45697424D01*
X21403312Y45206933D01*
X21402852Y44679794D01*
X20940118Y44217060D01*
X19848109Y44217060D01*
X19876460Y44357060D01*
X19876460Y44557060D01*
X19847199Y44712567D01*
X19876460Y44857060D01*
X19876460Y45057060D01*
X19847199Y45212567D01*
X19876460Y45357060D01*
X19876460Y45557060D01*
X19847199Y45712567D01*
X19876460Y45857060D01*
X19876460Y46057060D01*
X19832182Y46292377D01*
X19693110Y46508501D01*
X19480910Y46653491D01*
X19229020Y46704500D01*
X18429020Y46704500D01*
X18193703Y46660222D01*
X17977579Y46521150D01*
X17832589Y46308950D01*
X17781580Y46057060D01*
X17781580Y45857060D01*
X17810841Y45701553D01*
X17781580Y45557060D01*
X17781580Y45357060D01*
X17810841Y45201553D01*
X17781580Y45057060D01*
X17781580Y44857060D01*
X17810841Y44701553D01*
X17781580Y44557060D01*
X17781580Y44357060D01*
X17810841Y44201553D01*
X17781580Y44057060D01*
X17781580Y43857060D01*
X17810841Y43701553D01*
X17781580Y43557060D01*
X17781580Y43357060D01*
X17807923Y43217060D01*
X16650660Y43217060D01*
X16408074Y43168806D01*
X16359820Y43159208D01*
X16113259Y42994461D01*
X15691060Y42572262D01*
X15691060Y55544441D01*
X16745673Y55544441D01*
X17085215Y54722688D01*
X17713381Y54093424D01*
X18534541Y53752449D01*
X19423679Y53751673D01*
X20245432Y54091215D01*
X20874696Y54719381D01*
X21215671Y55540541D01*
X21216447Y56429679D01*
X20876905Y57251432D01*
X20248739Y57880696D01*
X19427579Y58221671D01*
X18538441Y58222447D01*
X17716688Y57882905D01*
X17087424Y57254739D01*
X16746449Y56433579D01*
X16745673Y55544441D01*
X15691060Y55544441D01*
X15691060Y59277060D01*
X29061398Y59277060D01*
X29036000Y59272008D01*
X29036000Y59272008D01*
G37*
X29036000Y59272008D02*
X28789439Y59107261D01*
X24415613Y54733435D01*
X24167877Y54733651D01*
X23677031Y54530838D01*
X23631108Y54484995D01*
X23551164Y54565078D01*
X23060673Y54768748D01*
X22529577Y54769211D01*
X22038731Y54566398D01*
X21662862Y54191184D01*
X21459192Y53700693D01*
X21458729Y53169597D01*
X21661542Y52678751D01*
X22033960Y52305683D01*
X22033960Y49641760D01*
X22091812Y49350921D01*
X22156238Y49254500D01*
X20329020Y49254500D01*
X20093703Y49210222D01*
X19877579Y49071150D01*
X19732589Y48858950D01*
X19681580Y48607060D01*
X19681580Y47107060D01*
X19725858Y46871743D01*
X19864930Y46655619D01*
X20077130Y46510629D01*
X20329020Y46459620D01*
X22329020Y46459620D01*
X22564337Y46503898D01*
X22780461Y46642970D01*
X22925451Y46855170D01*
X22976460Y47107060D01*
X22976460Y48384458D01*
X23430960Y47929958D01*
X23430960Y46098028D01*
X23004793Y46274988D01*
X22473697Y46275451D01*
X21982851Y46072638D01*
X21606982Y45697424D01*
X21403312Y45206933D01*
X21402852Y44679794D01*
X20940118Y44217060D01*
X19848109Y44217060D01*
X19876460Y44357060D01*
X19876460Y44557060D01*
X19847199Y44712567D01*
X19876460Y44857060D01*
X19876460Y45057060D01*
X19847199Y45212567D01*
X19876460Y45357060D01*
X19876460Y45557060D01*
X19847199Y45712567D01*
X19876460Y45857060D01*
X19876460Y46057060D01*
X19832182Y46292377D01*
X19693110Y46508501D01*
X19480910Y46653491D01*
X19229020Y46704500D01*
X18429020Y46704500D01*
X18193703Y46660222D01*
X17977579Y46521150D01*
X17832589Y46308950D01*
X17781580Y46057060D01*
X17781580Y45857060D01*
X17810841Y45701553D01*
X17781580Y45557060D01*
X17781580Y45357060D01*
X17810841Y45201553D01*
X17781580Y45057060D01*
X17781580Y44857060D01*
X17810841Y44701553D01*
X17781580Y44557060D01*
X17781580Y44357060D01*
X17810841Y44201553D01*
X17781580Y44057060D01*
X17781580Y43857060D01*
X17810841Y43701553D01*
X17781580Y43557060D01*
X17781580Y43357060D01*
X17807923Y43217060D01*
X16650660Y43217060D01*
X16408074Y43168806D01*
X16359820Y43159208D01*
X16113259Y42994461D01*
X15691060Y42572262D01*
X15691060Y55544441D01*
X16745673Y55544441D01*
X17085215Y54722688D01*
X17713381Y54093424D01*
X18534541Y53752449D01*
X19423679Y53751673D01*
X20245432Y54091215D01*
X20874696Y54719381D01*
X21215671Y55540541D01*
X21216447Y56429679D01*
X20876905Y57251432D01*
X20248739Y57880696D01*
X19427579Y58221671D01*
X18538441Y58222447D01*
X17716688Y57882905D01*
X17087424Y57254739D01*
X16746449Y56433579D01*
X16745673Y55544441D01*
X15691060Y55544441D01*
X15691060Y59277060D01*
X29061398Y59277060D01*
X29036000Y59272008D01*
M02*
