G04 #@! TF.FileFunction,Copper,L2,Bot,Signal*
%FSLAX46Y46*%
G04 Gerber Fmt 4.6, Leading zero omitted, Abs format (unit mm)*
G04 Created by KiCad (PCBNEW 4.0.7-e2-6376~60~ubuntu17.10.1) date Tue Mar 20 11:33:17 2018*
%MOMM*%
%LPD*%
G01*
G04 APERTURE LIST*
%ADD10C,0.020000*%
%ADD11C,0.200000*%
%ADD12R,1.700000X1.700000*%
%ADD13O,1.700000X1.700000*%
%ADD14R,2.200000X0.200000*%
%ADD15R,0.400000X19.000000*%
%ADD16C,0.250000*%
%ADD17C,0.400000*%
%ADD18C,0.300000*%
%ADD19C,0.254000*%
G04 APERTURE END LIST*
D10*
D11*
X94831843Y3105898D02*
X94831843Y5105898D01*
X94165176Y3677327D01*
X93498509Y5105898D01*
X93498509Y3105898D01*
X91688986Y3105898D02*
X91688986Y4153517D01*
X91784224Y4343993D01*
X91974700Y4439231D01*
X92355652Y4439231D01*
X92546129Y4343993D01*
X91688986Y3201136D02*
X91879462Y3105898D01*
X92355652Y3105898D01*
X92546129Y3201136D01*
X92641367Y3391612D01*
X92641367Y3582089D01*
X92546129Y3772565D01*
X92355652Y3867803D01*
X91879462Y3867803D01*
X91688986Y3963041D01*
X91974700Y5201136D02*
X92260414Y4915422D01*
X90831843Y3201136D02*
X90641366Y3105898D01*
X90260414Y3105898D01*
X90069938Y3201136D01*
X89974700Y3391612D01*
X89974700Y3486850D01*
X90069938Y3677327D01*
X90260414Y3772565D01*
X90546128Y3772565D01*
X90736605Y3867803D01*
X90831843Y4058279D01*
X90831843Y4153517D01*
X90736605Y4343993D01*
X90546128Y4439231D01*
X90260414Y4439231D01*
X90069938Y4343993D01*
X89403271Y4439231D02*
X88641366Y4439231D01*
X89117557Y5105898D02*
X89117557Y3391612D01*
X89022318Y3201136D01*
X88831842Y3105898D01*
X88641366Y3105898D01*
X87212795Y3201136D02*
X87403271Y3105898D01*
X87784223Y3105898D01*
X87974700Y3201136D01*
X88069938Y3391612D01*
X88069938Y4153517D01*
X87974700Y4343993D01*
X87784223Y4439231D01*
X87403271Y4439231D01*
X87212795Y4343993D01*
X87117557Y4153517D01*
X87117557Y3963041D01*
X88069938Y3772565D01*
X86260414Y3105898D02*
X86260414Y4439231D01*
X86260414Y4058279D02*
X86165175Y4248755D01*
X86069937Y4343993D01*
X85879461Y4439231D01*
X85688985Y4439231D01*
X82736604Y3201136D02*
X82927080Y3105898D01*
X83308032Y3105898D01*
X83498509Y3201136D01*
X83593747Y3391612D01*
X83593747Y4153517D01*
X83498509Y4343993D01*
X83308032Y4439231D01*
X82927080Y4439231D01*
X82736604Y4343993D01*
X82641366Y4153517D01*
X82641366Y3963041D01*
X83593747Y3772565D01*
X81784223Y4439231D02*
X81784223Y3105898D01*
X81784223Y4248755D02*
X81688984Y4343993D01*
X81498508Y4439231D01*
X81212794Y4439231D01*
X81022318Y4343993D01*
X80927080Y4153517D01*
X80927080Y3105898D01*
X78450889Y3105898D02*
X78450889Y5105898D01*
X77498508Y4439231D02*
X77498508Y3105898D01*
X77498508Y4248755D02*
X77403269Y4343993D01*
X77212793Y4439231D01*
X76927079Y4439231D01*
X76736603Y4343993D01*
X76641365Y4153517D01*
X76641365Y3105898D01*
X74831841Y4439231D02*
X74831841Y2820184D01*
X74927079Y2629708D01*
X75022317Y2534470D01*
X75212793Y2439231D01*
X75498507Y2439231D01*
X75688984Y2534470D01*
X74831841Y3201136D02*
X75022317Y3105898D01*
X75403269Y3105898D01*
X75593745Y3201136D01*
X75688984Y3296374D01*
X75784222Y3486850D01*
X75784222Y4058279D01*
X75688984Y4248755D01*
X75593745Y4343993D01*
X75403269Y4439231D01*
X75022317Y4439231D01*
X74831841Y4343993D01*
X73117555Y3201136D02*
X73308031Y3105898D01*
X73688983Y3105898D01*
X73879460Y3201136D01*
X73974698Y3391612D01*
X73974698Y4153517D01*
X73879460Y4343993D01*
X73688983Y4439231D01*
X73308031Y4439231D01*
X73117555Y4343993D01*
X73022317Y4153517D01*
X73022317Y3963041D01*
X73974698Y3772565D01*
X72165174Y4439231D02*
X72165174Y3105898D01*
X72165174Y4248755D02*
X72069935Y4343993D01*
X71879459Y4439231D01*
X71593745Y4439231D01*
X71403269Y4343993D01*
X71308031Y4153517D01*
X71308031Y3105898D01*
X70355650Y3105898D02*
X70355650Y4439231D01*
X70355650Y5105898D02*
X70450888Y5010660D01*
X70355650Y4915422D01*
X70260411Y5010660D01*
X70355650Y5105898D01*
X70355650Y4915422D01*
X68641364Y3201136D02*
X68831840Y3105898D01*
X69212792Y3105898D01*
X69403269Y3201136D01*
X69498507Y3391612D01*
X69498507Y4153517D01*
X69403269Y4343993D01*
X69212792Y4439231D01*
X68831840Y4439231D01*
X68641364Y4343993D01*
X68546126Y4153517D01*
X68546126Y3963041D01*
X69498507Y3772565D01*
X67688983Y3105898D02*
X67688983Y4439231D01*
X67688983Y4058279D02*
X67593744Y4248755D01*
X67498506Y4343993D01*
X67308030Y4439231D01*
X67117554Y4439231D01*
X66450888Y3105898D02*
X66450888Y4439231D01*
X66260411Y5201136D02*
X66546126Y4915422D01*
X64641364Y3105898D02*
X64641364Y4153517D01*
X64736602Y4343993D01*
X64927078Y4439231D01*
X65308030Y4439231D01*
X65498507Y4343993D01*
X64641364Y3201136D02*
X64831840Y3105898D01*
X65308030Y3105898D01*
X65498507Y3201136D01*
X65593745Y3391612D01*
X65593745Y3582089D01*
X65498507Y3772565D01*
X65308030Y3867803D01*
X64831840Y3867803D01*
X64641364Y3963041D01*
X62165173Y3105898D02*
X62165173Y5105898D01*
X61212792Y4439231D02*
X61212792Y3105898D01*
X61212792Y4248755D02*
X61117553Y4343993D01*
X60927077Y4439231D01*
X60641363Y4439231D01*
X60450887Y4343993D01*
X60355649Y4153517D01*
X60355649Y3105898D01*
X58546125Y3105898D02*
X58546125Y5105898D01*
X58546125Y3201136D02*
X58736601Y3105898D01*
X59117553Y3105898D01*
X59308029Y3201136D01*
X59403268Y3296374D01*
X59498506Y3486850D01*
X59498506Y4058279D01*
X59403268Y4248755D01*
X59308029Y4343993D01*
X59117553Y4439231D01*
X58736601Y4439231D01*
X58546125Y4343993D01*
X56736601Y4439231D02*
X56736601Y3105898D01*
X57593744Y4439231D02*
X57593744Y3391612D01*
X57498505Y3201136D01*
X57308029Y3105898D01*
X57022315Y3105898D01*
X56831839Y3201136D01*
X56736601Y3296374D01*
X55879458Y3201136D02*
X55688981Y3105898D01*
X55308029Y3105898D01*
X55117553Y3201136D01*
X55022315Y3391612D01*
X55022315Y3486850D01*
X55117553Y3677327D01*
X55308029Y3772565D01*
X55593743Y3772565D01*
X55784220Y3867803D01*
X55879458Y4058279D01*
X55879458Y4153517D01*
X55784220Y4343993D01*
X55593743Y4439231D01*
X55308029Y4439231D01*
X55117553Y4343993D01*
X54450886Y4439231D02*
X53688981Y4439231D01*
X54165172Y5105898D02*
X54165172Y3391612D01*
X54069933Y3201136D01*
X53879457Y3105898D01*
X53688981Y3105898D01*
X53022315Y3105898D02*
X53022315Y4439231D01*
X53022315Y4058279D02*
X52927076Y4248755D01*
X52831838Y4343993D01*
X52641362Y4439231D01*
X52450886Y4439231D01*
X51784220Y3105898D02*
X51784220Y4439231D01*
X51784220Y5105898D02*
X51879458Y5010660D01*
X51784220Y4915422D01*
X51688981Y5010660D01*
X51784220Y5105898D01*
X51784220Y4915422D01*
X49974696Y3105898D02*
X49974696Y4153517D01*
X50069934Y4343993D01*
X50260410Y4439231D01*
X50641362Y4439231D01*
X50831839Y4343993D01*
X49974696Y3201136D02*
X50165172Y3105898D01*
X50641362Y3105898D01*
X50831839Y3201136D01*
X50927077Y3391612D01*
X50927077Y3582089D01*
X50831839Y3772565D01*
X50641362Y3867803D01*
X50165172Y3867803D01*
X49974696Y3963041D01*
X48736600Y3105898D02*
X48927076Y3201136D01*
X49022315Y3391612D01*
X49022315Y5105898D01*
X94844403Y8031978D02*
X94844403Y6412930D01*
X94749164Y6222454D01*
X94653926Y6127216D01*
X94463450Y6031978D01*
X94082498Y6031978D01*
X93892022Y6127216D01*
X93796783Y6222454D01*
X93701545Y6412930D01*
X93701545Y8031978D01*
X92749165Y7365311D02*
X92749165Y6031978D01*
X92749165Y7174835D02*
X92653926Y7270073D01*
X92463450Y7365311D01*
X92177736Y7365311D01*
X91987260Y7270073D01*
X91892022Y7079597D01*
X91892022Y6031978D01*
X90939641Y6031978D02*
X90939641Y7365311D01*
X90939641Y8031978D02*
X91034879Y7936740D01*
X90939641Y7841502D01*
X90844402Y7936740D01*
X90939641Y8031978D01*
X90939641Y7841502D01*
X90177736Y7365311D02*
X89701545Y6031978D01*
X89225355Y7365311D01*
X87701545Y6127216D02*
X87892021Y6031978D01*
X88272973Y6031978D01*
X88463450Y6127216D01*
X88558688Y6317692D01*
X88558688Y7079597D01*
X88463450Y7270073D01*
X88272973Y7365311D01*
X87892021Y7365311D01*
X87701545Y7270073D01*
X87606307Y7079597D01*
X87606307Y6889121D01*
X88558688Y6698645D01*
X86749164Y6031978D02*
X86749164Y7365311D01*
X86749164Y6984359D02*
X86653925Y7174835D01*
X86558687Y7270073D01*
X86368211Y7365311D01*
X86177735Y7365311D01*
X85606307Y6127216D02*
X85415830Y6031978D01*
X85034878Y6031978D01*
X84844402Y6127216D01*
X84749164Y6317692D01*
X84749164Y6412930D01*
X84844402Y6603407D01*
X85034878Y6698645D01*
X85320592Y6698645D01*
X85511069Y6793883D01*
X85606307Y6984359D01*
X85606307Y7079597D01*
X85511069Y7270073D01*
X85320592Y7365311D01*
X85034878Y7365311D01*
X84844402Y7270073D01*
X83892021Y6031978D02*
X83892021Y7365311D01*
X83892021Y8031978D02*
X83987259Y7936740D01*
X83892021Y7841502D01*
X83796782Y7936740D01*
X83892021Y8031978D01*
X83892021Y7841502D01*
X82082497Y6031978D02*
X82082497Y8031978D01*
X82082497Y6127216D02*
X82272973Y6031978D01*
X82653925Y6031978D01*
X82844401Y6127216D01*
X82939640Y6222454D01*
X83034878Y6412930D01*
X83034878Y6984359D01*
X82939640Y7174835D01*
X82844401Y7270073D01*
X82653925Y7365311D01*
X82272973Y7365311D01*
X82082497Y7270073D01*
X80272973Y6031978D02*
X80272973Y7079597D01*
X80368211Y7270073D01*
X80558687Y7365311D01*
X80939639Y7365311D01*
X81130116Y7270073D01*
X80272973Y6127216D02*
X80463449Y6031978D01*
X80939639Y6031978D01*
X81130116Y6127216D01*
X81225354Y6317692D01*
X81225354Y6508169D01*
X81130116Y6698645D01*
X80939639Y6793883D01*
X80463449Y6793883D01*
X80272973Y6889121D01*
X78463449Y6031978D02*
X78463449Y8031978D01*
X78463449Y6127216D02*
X78653925Y6031978D01*
X79034877Y6031978D01*
X79225353Y6127216D01*
X79320592Y6222454D01*
X79415830Y6412930D01*
X79415830Y6984359D01*
X79320592Y7174835D01*
X79225353Y7270073D01*
X79034877Y7365311D01*
X78653925Y7365311D01*
X78463449Y7270073D01*
X75130115Y6031978D02*
X75130115Y8031978D01*
X75130115Y6127216D02*
X75320591Y6031978D01*
X75701543Y6031978D01*
X75892019Y6127216D01*
X75987258Y6222454D01*
X76082496Y6412930D01*
X76082496Y6984359D01*
X75987258Y7174835D01*
X75892019Y7270073D01*
X75701543Y7365311D01*
X75320591Y7365311D01*
X75130115Y7270073D01*
X73415829Y6127216D02*
X73606305Y6031978D01*
X73987257Y6031978D01*
X74177734Y6127216D01*
X74272972Y6317692D01*
X74272972Y7079597D01*
X74177734Y7270073D01*
X73987257Y7365311D01*
X73606305Y7365311D01*
X73415829Y7270073D01*
X73320591Y7079597D01*
X73320591Y6889121D01*
X74272972Y6698645D01*
X70653923Y6031978D02*
X70844399Y6127216D01*
X70939638Y6317692D01*
X70939638Y8031978D01*
X69034876Y6031978D02*
X69034876Y7079597D01*
X69130114Y7270073D01*
X69320590Y7365311D01*
X69701542Y7365311D01*
X69892019Y7270073D01*
X69034876Y6127216D02*
X69225352Y6031978D01*
X69701542Y6031978D01*
X69892019Y6127216D01*
X69987257Y6317692D01*
X69987257Y6508169D01*
X69892019Y6698645D01*
X69701542Y6793883D01*
X69225352Y6793883D01*
X69034876Y6889121D01*
X65606304Y6031978D02*
X66558685Y6031978D01*
X66558685Y8031978D01*
X64082494Y6031978D02*
X64082494Y7079597D01*
X64177732Y7270073D01*
X64368208Y7365311D01*
X64749160Y7365311D01*
X64939637Y7270073D01*
X64082494Y6127216D02*
X64272970Y6031978D01*
X64749160Y6031978D01*
X64939637Y6127216D01*
X65034875Y6317692D01*
X65034875Y6508169D01*
X64939637Y6698645D01*
X64749160Y6793883D01*
X64272970Y6793883D01*
X64082494Y6889121D01*
X62272970Y7365311D02*
X62272970Y5746264D01*
X62368208Y5555788D01*
X62463446Y5460550D01*
X62653922Y5365311D01*
X62939636Y5365311D01*
X63130113Y5460550D01*
X62272970Y6127216D02*
X62463446Y6031978D01*
X62844398Y6031978D01*
X63034874Y6127216D01*
X63130113Y6222454D01*
X63225351Y6412930D01*
X63225351Y6984359D01*
X63130113Y7174835D01*
X63034874Y7270073D01*
X62844398Y7365311D01*
X62463446Y7365311D01*
X62272970Y7270073D01*
X60463446Y7365311D02*
X60463446Y6031978D01*
X61320589Y7365311D02*
X61320589Y6317692D01*
X61225350Y6127216D01*
X61034874Y6031978D01*
X60749160Y6031978D01*
X60558684Y6127216D01*
X60463446Y6222454D01*
X59511065Y7365311D02*
X59511065Y6031978D01*
X59511065Y7174835D02*
X59415826Y7270073D01*
X59225350Y7365311D01*
X58939636Y7365311D01*
X58749160Y7270073D01*
X58653922Y7079597D01*
X58653922Y6031978D01*
X56844398Y6031978D02*
X56844398Y7079597D01*
X56939636Y7270073D01*
X57130112Y7365311D01*
X57511064Y7365311D01*
X57701541Y7270073D01*
X56844398Y6127216D02*
X57034874Y6031978D01*
X57511064Y6031978D01*
X57701541Y6127216D01*
X57796779Y6317692D01*
X57796779Y6508169D01*
X57701541Y6698645D01*
X57511064Y6793883D01*
X57034874Y6793883D01*
X56844398Y6889121D01*
D12*
X39497000Y17393920D03*
D13*
X42037000Y17393920D03*
X44577000Y17393920D03*
X47117000Y17393920D03*
X49657000Y17393920D03*
X52197000Y17393920D03*
X54737000Y17393920D03*
X57277000Y17393920D03*
X59817000Y17393920D03*
D12*
X27724100Y3202940D03*
D13*
X25184100Y3202940D03*
X22644100Y3202940D03*
X20104100Y3202940D03*
X17564100Y3202940D03*
X15024100Y3202940D03*
X12484100Y3202940D03*
X9944100Y3202940D03*
X7404100Y3202940D03*
D12*
X4655820Y43070780D03*
D13*
X7195820Y43070780D03*
X9735820Y43070780D03*
X12275820Y43070780D03*
X14815820Y43070780D03*
X17355820Y43070780D03*
X19895820Y43070780D03*
X22435820Y43070780D03*
X24975820Y43070780D03*
D12*
X5158740Y72184260D03*
D13*
X7698740Y72184260D03*
X10238740Y72184260D03*
X12778740Y72184260D03*
X15318740Y72184260D03*
X17858740Y72184260D03*
X20398740Y72184260D03*
X22938740Y72184260D03*
X25478740Y72184260D03*
D12*
X26885900Y63400940D03*
D13*
X29425900Y63400940D03*
X31965900Y63400940D03*
X34505900Y63400940D03*
X37045900Y63400940D03*
X39585900Y63400940D03*
D12*
X74930000Y71719440D03*
D13*
X77470000Y71719440D03*
X80010000Y71719440D03*
X82550000Y71719440D03*
X85090000Y71719440D03*
X87630000Y71719440D03*
X90170000Y71719440D03*
D12*
X97256600Y60010040D03*
D13*
X94716600Y60010040D03*
D12*
X94322900Y45227240D03*
D13*
X96862900Y45227240D03*
D12*
X51282600Y71808340D03*
D13*
X53822600Y71808340D03*
X56362600Y71808340D03*
X58902600Y71808340D03*
X61442600Y71808340D03*
X63982600Y71808340D03*
X66522600Y71808340D03*
D12*
X39458900Y41531540D03*
D13*
X41998900Y41531540D03*
X44538900Y41531540D03*
X47078900Y41531540D03*
X49618900Y41531540D03*
X52158900Y41531540D03*
X54698900Y41531540D03*
X57238900Y41531540D03*
X59778900Y41531540D03*
D12*
X65862200Y41417240D03*
D13*
X68402200Y41417240D03*
X70942200Y41417240D03*
X73482200Y41417240D03*
X76022200Y41417240D03*
X78562200Y41417240D03*
X81102200Y41417240D03*
X83642200Y41417240D03*
X86182200Y41417240D03*
D12*
X86210140Y17381220D03*
D13*
X83670140Y17381220D03*
X81130140Y17381220D03*
X78590140Y17381220D03*
X76050140Y17381220D03*
X73510140Y17381220D03*
X70970140Y17381220D03*
X68430140Y17381220D03*
X65890140Y17381220D03*
D14*
X29607150Y20207190D03*
X34807150Y20207190D03*
X29607150Y20707190D03*
X34807150Y20707190D03*
X29607150Y21207190D03*
X34807150Y21207190D03*
X29607150Y21707190D03*
X34807150Y21707190D03*
X29607150Y22207190D03*
X34807150Y22207190D03*
X29607150Y22707190D03*
X34807150Y22707190D03*
X29607150Y23207190D03*
X34807150Y23207190D03*
X29607150Y23707190D03*
X34807150Y23707190D03*
X29607150Y24207190D03*
X34807150Y24207190D03*
X29607150Y24707190D03*
X34807150Y24707190D03*
X29607150Y25207190D03*
X34807150Y25207190D03*
X29607150Y25707190D03*
X34807150Y25707190D03*
X29607150Y26207190D03*
X34807150Y26207190D03*
X29607150Y26707190D03*
X34807150Y26707190D03*
X29607150Y27207190D03*
X34807150Y27207190D03*
X29607150Y27707190D03*
X34807150Y27707190D03*
X29607150Y28207190D03*
X34807150Y28207190D03*
X29607150Y28707190D03*
X34807150Y28707190D03*
X29607150Y29207190D03*
X34807150Y29207190D03*
X29607150Y29707190D03*
X34807150Y29707190D03*
X29607150Y30207190D03*
X34807150Y30207190D03*
X29607150Y30707190D03*
X34807150Y30707190D03*
X29607150Y31207190D03*
X34807150Y31207190D03*
X29607150Y31707190D03*
X34807150Y31707190D03*
X29607150Y32207190D03*
X34807150Y32207190D03*
X29607150Y32707190D03*
X34807150Y32707190D03*
X29607150Y33207190D03*
X34807150Y33207190D03*
X29607150Y33707190D03*
X34807150Y33707190D03*
X29607150Y34207190D03*
X34807150Y34207190D03*
X29607150Y34707190D03*
X34807150Y34707190D03*
X29594450Y40261790D03*
X34794450Y40261790D03*
X29594450Y40761790D03*
X34794450Y40761790D03*
X29594450Y41261790D03*
X34794450Y41261790D03*
X29594450Y41761790D03*
X34794450Y41761790D03*
X29594450Y42261790D03*
X34794450Y42261790D03*
X29594450Y42761790D03*
X34794450Y42761790D03*
X29594450Y43261790D03*
X34794450Y43261790D03*
X29594450Y43761790D03*
X34794450Y43761790D03*
X29594450Y44261790D03*
X34794450Y44261790D03*
X29594450Y44761790D03*
X34794450Y44761790D03*
X29594450Y45261790D03*
X34794450Y45261790D03*
X29594450Y45761790D03*
X34794450Y45761790D03*
X29594450Y46261790D03*
X34794450Y46261790D03*
X29594450Y46761790D03*
X34794450Y46761790D03*
X29594450Y47261790D03*
X34794450Y47261790D03*
X29594450Y47761790D03*
X34794450Y47761790D03*
X29594450Y48261790D03*
X34794450Y48261790D03*
X29594450Y48761790D03*
X34794450Y48761790D03*
X29594450Y49261790D03*
X34794450Y49261790D03*
X29594450Y49761790D03*
X34794450Y49761790D03*
X29594450Y50261790D03*
X34794450Y50261790D03*
X29594450Y50761790D03*
X34794450Y50761790D03*
X29594450Y51261790D03*
X34794450Y51261790D03*
X29594450Y51761790D03*
X34794450Y51761790D03*
X29594450Y52261790D03*
X34794450Y52261790D03*
X29594450Y52761790D03*
X34794450Y52761790D03*
X29594450Y53261790D03*
X34794450Y53261790D03*
X29594450Y53761790D03*
X34794450Y53761790D03*
X29594450Y54261790D03*
X34794450Y54261790D03*
X29594450Y54761790D03*
X34794450Y54761790D03*
D15*
X32086500Y27432440D03*
X32099200Y47739740D03*
D16*
X34807150Y24207190D02*
X84494650Y24207190D01*
D17*
X86210140Y22491700D02*
X86210140Y17381220D01*
X84494650Y24207190D02*
X86210140Y22491700D01*
D16*
X34807150Y23707190D02*
X83003290Y23707190D01*
D17*
X83670140Y23040340D02*
X83670140Y17381220D01*
D16*
X83003290Y23707190D02*
X83670140Y23040340D01*
X34807150Y23207190D02*
X80567050Y23207190D01*
D17*
X81130140Y22644100D02*
X81130140Y17381220D01*
D16*
X80567050Y23207190D02*
X81130140Y22644100D01*
X34807150Y22707190D02*
X78194310Y22707190D01*
D17*
X78590140Y22311360D02*
X78590140Y17381220D01*
D16*
X78194310Y22707190D02*
X78590140Y22311360D01*
X34807150Y22207190D02*
X75623450Y22207190D01*
D17*
X76050140Y21780500D02*
X76050140Y17381220D01*
D16*
X75623450Y22207190D02*
X76050140Y21780500D01*
X34807150Y21707190D02*
X73075450Y21707190D01*
D17*
X73510140Y21272500D02*
X73510140Y17381220D01*
D16*
X73075450Y21707190D02*
X73510140Y21272500D01*
X34807150Y21207190D02*
X70385210Y21207190D01*
D17*
X70970140Y20622260D02*
X70970140Y17381220D01*
D16*
X70385210Y21207190D02*
X70970140Y20622260D01*
X34807150Y20707190D02*
X67755930Y20707190D01*
D17*
X68430140Y20032980D02*
X68430140Y17381220D01*
D16*
X67755930Y20707190D02*
X68430140Y20032980D01*
X34807150Y20207190D02*
X65370490Y20207190D01*
D17*
X65890140Y19687540D02*
X65890140Y17381220D01*
D16*
X65370490Y20207190D02*
X65890140Y19687540D01*
X34807150Y28207190D02*
X63243950Y28207190D01*
D17*
X68402200Y33365440D02*
X68402200Y41417240D01*
D16*
X63243950Y28207190D02*
X68402200Y33365440D01*
X34807150Y27707190D02*
X65563350Y27707190D01*
D17*
X70942200Y33086040D02*
X70942200Y41417240D01*
D16*
X65563350Y27707190D02*
X70942200Y33086040D01*
X34807150Y27207190D02*
X67844650Y27207190D01*
D17*
X73482200Y32844740D02*
X73482200Y41417240D01*
D16*
X67844650Y27207190D02*
X73482200Y32844740D01*
X34807150Y26707190D02*
X70278350Y26707190D01*
D17*
X76022200Y32451040D02*
X76022200Y41417240D01*
D16*
X70278350Y26707190D02*
X76022200Y32451040D01*
X34807150Y26207190D02*
X72483450Y26207190D01*
D17*
X78562200Y32285940D02*
X78562200Y41417240D01*
D16*
X72483450Y26207190D02*
X78562200Y32285940D01*
X34807150Y25707190D02*
X73469350Y25707190D01*
D17*
X79692500Y40007540D02*
X81102200Y41417240D01*
X79692500Y31930340D02*
X79692500Y40007540D01*
D16*
X73469350Y25707190D02*
X79692500Y31930340D01*
X34807150Y25207190D02*
X74340950Y25207190D01*
D17*
X80683100Y38458140D02*
X83642200Y41417240D01*
X80683100Y31549340D02*
X80683100Y38458140D01*
D16*
X74340950Y25207190D02*
X80683100Y31549340D01*
D17*
X86182200Y41417240D02*
X86182200Y39913560D01*
D16*
X75176990Y24707190D02*
X34807150Y24707190D01*
X81414620Y30944820D02*
X75176990Y24707190D01*
D17*
X81414620Y37904420D02*
X81414620Y30944820D01*
X82618580Y39108380D02*
X81414620Y37904420D01*
X85377020Y39108380D02*
X82618580Y39108380D01*
X86182200Y39913560D02*
X85377020Y39108380D01*
D16*
X34807150Y33207190D02*
X37469310Y33207190D01*
D17*
X39458900Y35196780D02*
X39458900Y41531540D01*
D16*
X37469310Y33207190D02*
X39458900Y35196780D01*
X34807150Y32707190D02*
X39021630Y32707190D01*
D17*
X41998900Y35684460D02*
X41998900Y41531540D01*
D16*
X39021630Y32707190D02*
X41998900Y35684460D01*
X34807150Y32207190D02*
X41183550Y32207190D01*
D17*
X44538900Y35562540D02*
X44538900Y41531540D01*
D16*
X41183550Y32207190D02*
X44538900Y35562540D01*
X34807150Y31707190D02*
X43609630Y31707190D01*
D17*
X47078900Y35176460D02*
X47078900Y41531540D01*
D16*
X43609630Y31707190D02*
X47078900Y35176460D01*
X34807150Y31207190D02*
X45730910Y31207190D01*
D17*
X49618900Y35095180D02*
X49618900Y41531540D01*
D16*
X45730910Y31207190D02*
X49618900Y35095180D01*
X34807150Y30707190D02*
X47994430Y30707190D01*
D17*
X52158900Y34871660D02*
X52158900Y41531540D01*
D16*
X47994430Y30707190D02*
X52158900Y34871660D01*
X34807150Y30207190D02*
X50115710Y30207190D01*
D17*
X54698900Y34790380D02*
X54698900Y41531540D01*
D16*
X50115710Y30207190D02*
X54698900Y34790380D01*
X34807150Y29707190D02*
X52399550Y29707190D01*
D17*
X57238900Y34546540D02*
X57238900Y41531540D01*
D16*
X52399550Y29707190D02*
X57238900Y34546540D01*
X34807150Y29207190D02*
X54967870Y29207190D01*
D17*
X59778900Y34018220D02*
X59778900Y41531540D01*
D16*
X54967870Y29207190D02*
X59778900Y34018220D01*
X34794450Y54261790D02*
X41330650Y54261790D01*
D17*
X53822600Y66753740D02*
X53822600Y71808340D01*
D16*
X41330650Y54261790D02*
X53822600Y66753740D01*
X34794450Y52261790D02*
X42873950Y52261790D01*
D17*
X56362600Y65750440D02*
X56362600Y71808340D01*
D16*
X42873950Y52261790D02*
X56362600Y65750440D01*
X34794450Y51761790D02*
X45002850Y51761790D01*
D17*
X58902600Y65661540D02*
X58902600Y71808340D01*
D16*
X45002850Y51761790D02*
X58902600Y65661540D01*
X34794450Y51261790D02*
X47017450Y51261790D01*
D17*
X61442600Y65686940D02*
X61442600Y71808340D01*
D16*
X47017450Y51261790D02*
X61442600Y65686940D01*
X34794450Y50761790D02*
X49562910Y50761790D01*
D17*
X63982600Y65181480D02*
X63982600Y71808340D01*
D16*
X49562910Y50761790D02*
X63982600Y65181480D01*
X34794450Y50261790D02*
X52415710Y50261790D01*
D17*
X66522600Y64368680D02*
X66522600Y71808340D01*
D16*
X52415710Y50261790D02*
X66522600Y64368680D01*
X34794450Y44261790D02*
X88925650Y44261790D01*
D17*
X94322900Y40871140D02*
X94322900Y45227240D01*
X93030040Y39578280D02*
X94322900Y40871140D01*
X91577160Y39578280D02*
X93030040Y39578280D01*
X91025980Y40129460D02*
X91577160Y39578280D01*
X91025980Y42161460D02*
X91025980Y40129460D01*
X88925650Y44261790D02*
X91025980Y42161460D01*
D16*
X34794450Y43761790D02*
X88203910Y43761790D01*
D17*
X96862900Y40142160D02*
X96862900Y45227240D01*
X95488760Y38768020D02*
X96862900Y40142160D01*
X91158060Y38768020D02*
X95488760Y38768020D01*
X90236040Y39690040D02*
X91158060Y38768020D01*
X90236040Y41729660D02*
X90236040Y39690040D01*
D16*
X88203910Y43761790D02*
X90236040Y41729660D01*
X34794450Y45761790D02*
X86025870Y45761790D01*
D17*
X97256600Y56992520D02*
X97256600Y60010040D01*
X86025870Y45761790D02*
X97256600Y56992520D01*
D16*
X34794450Y45261790D02*
X34794450Y45761790D01*
X34807150Y28707190D02*
X61000750Y28707190D01*
D17*
X65862200Y33568640D02*
X65862200Y41417240D01*
D16*
X61000750Y28707190D02*
X65862200Y33568640D01*
X34794450Y49261790D02*
X58344830Y49261790D01*
D17*
X74930000Y65846960D02*
X74930000Y71719440D01*
D16*
X58344830Y49261790D02*
X74930000Y65846960D01*
X34794450Y48761790D02*
X60481350Y48761790D01*
D17*
X77470000Y65750440D02*
X77470000Y71719440D01*
D16*
X60481350Y48761790D02*
X77470000Y65750440D01*
X34794450Y48261790D02*
X62381650Y48261790D01*
D17*
X80010000Y65890140D02*
X80010000Y71719440D01*
D16*
X62381650Y48261790D02*
X80010000Y65890140D01*
X34794450Y47761790D02*
X64193050Y47761790D01*
D17*
X82550000Y66118740D02*
X82550000Y71719440D01*
D16*
X64193050Y47761790D02*
X82550000Y66118740D01*
X34794450Y47261790D02*
X65763150Y47261790D01*
D17*
X85090000Y66588640D02*
X85090000Y71719440D01*
D16*
X65763150Y47261790D02*
X85090000Y66588640D01*
X34794450Y46761790D02*
X67803150Y46761790D01*
D17*
X87630000Y66588640D02*
X87630000Y71719440D01*
D16*
X67803150Y46761790D02*
X87630000Y66588640D01*
X34794450Y46261790D02*
X69584070Y46261790D01*
D17*
X90170000Y66847720D02*
X90170000Y71719440D01*
D16*
X69584070Y46261790D02*
X90170000Y66847720D01*
X29594450Y50261790D02*
X25935670Y50261790D01*
D17*
X29425900Y62196980D02*
X29425900Y63400940D01*
X24604980Y57376060D02*
X29425900Y62196980D01*
D16*
X24604980Y51592480D02*
X24604980Y57376060D01*
X25935670Y50261790D02*
X24604980Y51592480D01*
X29594450Y50761790D02*
X26413570Y50761790D01*
D17*
X31965900Y61412120D02*
X31965900Y63400940D01*
X31170880Y60617100D02*
X31965900Y61412120D01*
X29047440Y60617100D02*
X31170880Y60617100D01*
D16*
X25331420Y56901080D02*
X29047440Y60617100D01*
X25331420Y51843940D02*
X25331420Y56901080D01*
X26413570Y50761790D02*
X25331420Y51843940D01*
X29594450Y51261790D02*
X27003230Y51261790D01*
D17*
X34505900Y61018420D02*
X34505900Y63400940D01*
X33154620Y59667140D02*
X34505900Y61018420D01*
D16*
X29131260Y59667140D02*
X33154620Y59667140D01*
X25918160Y56454040D02*
X29131260Y59667140D01*
X25918160Y52346860D02*
X25918160Y56454040D01*
X27003230Y51261790D02*
X25918160Y52346860D01*
X29594450Y52261790D02*
X27077650Y52261790D01*
D17*
X37045900Y60485020D02*
X37045900Y63400940D01*
X35333940Y58773060D02*
X37045900Y60485020D01*
D16*
X29283660Y58773060D02*
X35333940Y58773060D01*
X26469340Y55958740D02*
X29283660Y58773060D01*
X26469340Y52870100D02*
X26469340Y55958740D01*
X27077650Y52261790D02*
X26469340Y52870100D01*
X29594450Y52261790D02*
X29594450Y51761790D01*
X29594450Y54761790D02*
X29594450Y56693710D01*
D17*
X39585900Y59281060D02*
X39585900Y63400940D01*
X37541200Y57236360D02*
X39585900Y59281060D01*
D16*
X30137100Y57236360D02*
X37541200Y57236360D01*
X29594450Y56693710D02*
X30137100Y57236360D01*
X29594450Y54261790D02*
X29594450Y54761790D01*
X34794450Y54761790D02*
X39163650Y54761790D01*
D17*
X51282600Y66880740D02*
X51282600Y71808340D01*
D16*
X39163650Y54761790D02*
X51282600Y66880740D01*
X29594450Y53761790D02*
X31287570Y53761790D01*
X31508700Y49766220D02*
X31513130Y49761790D01*
X31508700Y53540660D02*
X31508700Y49766220D01*
X31287570Y53761790D02*
X31508700Y53540660D01*
X34794450Y53761790D02*
X33388450Y53761790D01*
X33388450Y53761790D02*
X33040320Y53413660D01*
X34794450Y49761790D02*
X33072690Y49761790D01*
X33072690Y49761790D02*
X33042860Y49791620D01*
X29594450Y49761790D02*
X31513130Y49761790D01*
X31513130Y49761790D02*
X31610300Y49664620D01*
X31610300Y49664620D02*
X31610300Y48228640D01*
X31610300Y48228640D02*
X32099200Y47739740D01*
X34794450Y44761790D02*
X33301310Y44761790D01*
X33301310Y44761790D02*
X33027620Y44488100D01*
X34794450Y42261790D02*
X36988750Y42261790D01*
X36988750Y42261790D02*
X37050980Y42324020D01*
X29594450Y42261790D02*
X27280870Y42261790D01*
X27280870Y42261790D02*
X27266900Y42247820D01*
X29594450Y44761790D02*
X27967310Y44761790D01*
X27404060Y44198540D02*
X27404060Y44183300D01*
X27967310Y44761790D02*
X27404060Y44198540D01*
X34794450Y53761790D02*
X32745530Y53761790D01*
X32745530Y53761790D02*
X32722820Y53784500D01*
X32260540Y42261790D02*
X32260540Y43136820D01*
X32260540Y43136820D02*
X32280860Y43157140D01*
X32260540Y42261790D02*
X32983170Y42261790D01*
X32983170Y42261790D02*
X34794450Y42261790D01*
D17*
X5158740Y72184260D02*
X5158740Y56342280D01*
D16*
X16239230Y45261790D02*
X29594450Y45261790D01*
D18*
X5158740Y56342280D02*
X16239230Y45261790D01*
D16*
X29594450Y45761790D02*
X19678770Y45761790D01*
D17*
X7698740Y57741820D02*
X7698740Y72184260D01*
D16*
X19678770Y45761790D02*
X7698740Y57741820D01*
D17*
X10238740Y72184260D02*
X10238740Y57325260D01*
D16*
X21302210Y46261790D02*
X29594450Y46261790D01*
X10238740Y57325260D02*
X21302210Y46261790D01*
X29594450Y46311788D02*
X29594450Y46261790D01*
X29594450Y46761790D02*
X22900250Y46761790D01*
D17*
X12778740Y56883300D02*
X12778740Y72184260D01*
D16*
X22900250Y46761790D02*
X12778740Y56883300D01*
D17*
X15318740Y72184260D02*
X15318740Y55587900D01*
D16*
X23594852Y47311788D02*
X29594450Y47311788D01*
X15318740Y55587900D02*
X23594852Y47311788D01*
X29594450Y47311788D02*
X29594450Y47261790D01*
X29594450Y47761790D02*
X24046550Y47761790D01*
D17*
X17858740Y53949600D02*
X17858740Y72184260D01*
D16*
X24046550Y47761790D02*
X17858740Y53949600D01*
X29594450Y48261790D02*
X24689550Y48261790D01*
D17*
X20398740Y52552600D02*
X20398740Y72184260D01*
D16*
X24689550Y48261790D02*
X20398740Y52552600D01*
X29594450Y48761790D02*
X25233490Y48761790D01*
D17*
X22369780Y51625500D02*
X22369780Y71615300D01*
D16*
X25233490Y48761790D02*
X22369780Y51625500D01*
X22369780Y71615300D02*
X22938740Y72184260D01*
X29594450Y49261790D02*
X25861250Y49261790D01*
D17*
X25478740Y68112640D02*
X25478740Y72184260D01*
X23599140Y66233040D02*
X25478740Y68112640D01*
X23599140Y51523900D02*
X23599140Y66233040D01*
D16*
X25861250Y49261790D02*
X23599140Y51523900D01*
X29607150Y29207190D02*
X10780030Y29207190D01*
D17*
X4655820Y41562020D02*
X4655820Y43070780D01*
D16*
X4627880Y41534080D02*
X4655820Y41562020D01*
D17*
X5605780Y41534080D02*
X4627880Y41534080D01*
X8064500Y39075360D02*
X5605780Y41534080D01*
X8064500Y31922720D02*
X8064500Y39075360D01*
X10780030Y29207190D02*
X8064500Y31922720D01*
D16*
X29607150Y29707190D02*
X13940170Y29707190D01*
D17*
X8651240Y41615360D02*
X7195820Y43070780D01*
D16*
X8651240Y34996120D02*
X8651240Y41615360D01*
X13940170Y29707190D02*
X8651240Y34996120D01*
X29550360Y29657192D02*
X29607150Y29707190D01*
X29607150Y30207190D02*
X15787130Y30207190D01*
D17*
X9735820Y36258500D02*
X9735820Y43070780D01*
D16*
X15787130Y30207190D02*
X9735820Y36258500D01*
X29607150Y30707190D02*
X17997310Y30707190D01*
D17*
X12275820Y36428680D02*
X12275820Y43070780D01*
D16*
X17997310Y30707190D02*
X12275820Y36428680D01*
D17*
X14815820Y43070780D02*
X14815820Y36151820D01*
D16*
X19760450Y31207190D02*
X29607150Y31207190D01*
X14815820Y36151820D02*
X19760450Y31207190D01*
X14815820Y43070780D02*
X15143480Y43070780D01*
X29607150Y31707190D02*
X21175610Y31707190D01*
D17*
X17355820Y35526980D02*
X17355820Y43070780D01*
D16*
X21175610Y31707190D02*
X17355820Y35526980D01*
X29607150Y31757188D02*
X29607150Y31707190D01*
X29607150Y32207190D02*
X23581370Y32207190D01*
D17*
X19895820Y35892740D02*
X19895820Y43070780D01*
D16*
X23581370Y32207190D02*
X19895820Y35892740D01*
D17*
X22435820Y43070780D02*
X22435820Y36339780D01*
D16*
X26068410Y32707190D02*
X29607150Y32707190D01*
X22435820Y36339780D02*
X26068410Y32707190D01*
X22435820Y43070780D02*
X22435820Y42298620D01*
X29607150Y33207190D02*
X27133050Y33207190D01*
D17*
X24975820Y35364420D02*
X24975820Y43070780D01*
D16*
X27133050Y33207190D02*
X24975820Y35364420D01*
X29607150Y24707190D02*
X22027490Y24707190D01*
D17*
X27724100Y6830060D02*
X27724100Y3202940D01*
X27241500Y7312660D02*
X27724100Y6830060D01*
X26184860Y7312660D02*
X27241500Y7312660D01*
D16*
X19763740Y13733780D02*
X26184860Y7312660D01*
X19763740Y22443440D02*
X19763740Y13733780D01*
X22027490Y24707190D02*
X19763740Y22443440D01*
X29607150Y25207190D02*
X21300670Y25207190D01*
D17*
X25184100Y7114540D02*
X25184100Y3202940D01*
D16*
X18971260Y13327380D02*
X25184100Y7114540D01*
X18971260Y22877780D02*
X18971260Y13327380D01*
X21300670Y25207190D02*
X18971260Y22877780D01*
X29607150Y25157192D02*
X29607150Y25207190D01*
X29607150Y25707190D02*
X20947230Y25707190D01*
D17*
X22644100Y7927340D02*
X22644100Y3202940D01*
D16*
X18239740Y12331700D02*
X22644100Y7927340D01*
X18239740Y22999700D02*
X18239740Y12331700D01*
X20947230Y25707190D02*
X18239740Y22999700D01*
X29607150Y25757188D02*
X29607150Y25707190D01*
X29607150Y26207190D02*
X20370270Y26207190D01*
D17*
X20104100Y8516620D02*
X20104100Y3202940D01*
D16*
X17487900Y11132820D02*
X20104100Y8516620D01*
X17487900Y23324820D02*
X17487900Y11132820D01*
X20370270Y26207190D02*
X17487900Y23324820D01*
X29607150Y26707190D02*
X19529150Y26707190D01*
D17*
X17564100Y9011920D02*
X17564100Y3202940D01*
D16*
X16753840Y9822180D02*
X17564100Y9011920D01*
X16753840Y23931880D02*
X16753840Y9822180D01*
X19529150Y26707190D02*
X16753840Y23931880D01*
X29607150Y26757188D02*
X29607150Y26707190D01*
X29607150Y27207190D02*
X19135070Y27207190D01*
D17*
X15024100Y23096220D02*
X15024100Y3202940D01*
D16*
X19135070Y27207190D02*
X15024100Y23096220D01*
X29607150Y27707190D02*
X18517470Y27707190D01*
D17*
X12484100Y21673820D02*
X12484100Y3202940D01*
D16*
X18517470Y27707190D02*
X12484100Y21673820D01*
X29607150Y28207190D02*
X17788110Y28207190D01*
D17*
X9944100Y20363180D02*
X9944100Y3202940D01*
D16*
X17788110Y28207190D02*
X9944100Y20363180D01*
X10073150Y3331990D02*
X9944100Y3202940D01*
X29607150Y28707190D02*
X15356950Y28707190D01*
D17*
X7404100Y20754340D02*
X7404100Y3202940D01*
D16*
X15356950Y28707190D02*
X7404100Y20754340D01*
X29607150Y20207190D02*
X26356530Y20207190D01*
D17*
X39497000Y14963140D02*
X39497000Y17393920D01*
X38351460Y13817600D02*
X39497000Y14963140D01*
D16*
X29159200Y13817600D02*
X38351460Y13817600D01*
X25890220Y17086580D02*
X29159200Y13817600D01*
X25890220Y19740880D02*
X25890220Y17086580D01*
X26356530Y20207190D02*
X25890220Y19740880D01*
X29607150Y20707190D02*
X26158030Y20707190D01*
D17*
X42037000Y15659100D02*
X42037000Y17393920D01*
X39329360Y12951460D02*
X42037000Y15659100D01*
D16*
X28572460Y12951460D02*
X39329360Y12951460D01*
X25163780Y16360140D02*
X28572460Y12951460D01*
X25163780Y19712940D02*
X25163780Y16360140D01*
X26158030Y20707190D02*
X25163780Y19712940D01*
X29607150Y21207190D02*
X25568370Y21207190D01*
D17*
X44577000Y15935960D02*
X44577000Y17393920D01*
X40810180Y12169140D02*
X44577000Y15935960D01*
D16*
X28097480Y12169140D02*
X40810180Y12169140D01*
X24381460Y15885160D02*
X28097480Y12169140D01*
X24381460Y20020280D02*
X24381460Y15885160D01*
X25568370Y21207190D02*
X24381460Y20020280D01*
X29607150Y21707190D02*
X24699310Y21707190D01*
D17*
X47117000Y15151100D02*
X47117000Y17393920D01*
X43352720Y11386820D02*
X47117000Y15151100D01*
D16*
X27818080Y11386820D02*
X43352720Y11386820D01*
X23710900Y15494000D02*
X27818080Y11386820D01*
X23710900Y20718780D02*
X23710900Y15494000D01*
X24699310Y21707190D02*
X23710900Y20718780D01*
X29607150Y22207190D02*
X24221410Y22207190D01*
D17*
X49657000Y15455900D02*
X49657000Y17393920D01*
X44889420Y10688320D02*
X49657000Y15455900D01*
D16*
X27510740Y10688320D02*
X44889420Y10688320D01*
X22984460Y15214600D02*
X27510740Y10688320D01*
X22984460Y20970240D02*
X22984460Y15214600D01*
X24221410Y22207190D02*
X22984460Y20970240D01*
X29607150Y22707190D02*
X23659690Y22707190D01*
X52197000Y15240000D02*
X52197000Y17393920D01*
D17*
X47086520Y10129520D02*
X52197000Y15240000D01*
D16*
X27035760Y10129520D02*
X47086520Y10129520D01*
X22230080Y14935200D02*
X27035760Y10129520D01*
X22230080Y21277580D02*
X22230080Y14935200D01*
X23659690Y22707190D02*
X22230080Y21277580D01*
X29607150Y23207190D02*
X23384990Y23207190D01*
D17*
X54737000Y15138400D02*
X54737000Y17393920D01*
X49166780Y9568180D02*
X54737000Y15138400D01*
D16*
X26733500Y9568180D02*
X49166780Y9568180D01*
X21551900Y14749780D02*
X26733500Y9568180D01*
X21551900Y21374100D02*
X21551900Y14749780D01*
X23384990Y23207190D02*
X21551900Y21374100D01*
X29607150Y23707190D02*
X22950270Y23707190D01*
D17*
X57277000Y15057120D02*
X57277000Y17393920D01*
X51158140Y8938260D02*
X57277000Y15057120D01*
D16*
X26388060Y8938260D02*
X51158140Y8938260D01*
X21003260Y14323060D02*
X26388060Y8938260D01*
X21003260Y21760180D02*
X21003260Y14323060D01*
X22950270Y23707190D02*
X21003260Y21760180D01*
X29607150Y24207190D02*
X22556190Y24207190D01*
D17*
X59817000Y14886940D02*
X59817000Y17393920D01*
X53215540Y8285480D02*
X59817000Y14886940D01*
D16*
X26349960Y8285480D02*
X53215540Y8285480D01*
X20535900Y14099540D02*
X26349960Y8285480D01*
X20535900Y22186900D02*
X20535900Y14099540D01*
X22556190Y24207190D02*
X20535900Y22186900D01*
D19*
G36*
X99401900Y815140D02*
X821900Y815140D01*
X821900Y2261541D01*
X876599Y2261541D01*
X1140181Y1623625D01*
X1627818Y1135136D01*
X2265273Y870441D01*
X2955499Y869839D01*
X3593415Y1133421D01*
X4081904Y1621058D01*
X4346599Y2258513D01*
X4347201Y2948739D01*
X4083619Y3586655D01*
X3595982Y4075144D01*
X2958527Y4339839D01*
X2268301Y4340441D01*
X1630385Y4076859D01*
X1141896Y3589222D01*
X877201Y2951767D01*
X876599Y2261541D01*
X821900Y2261541D01*
X821900Y24761541D01*
X876599Y24761541D01*
X1140181Y24123625D01*
X1627818Y23635136D01*
X2265273Y23370441D01*
X2955499Y23369839D01*
X3593415Y23633421D01*
X4081904Y24121058D01*
X4346599Y24758513D01*
X4347201Y25448739D01*
X4083619Y26086655D01*
X3595982Y26575144D01*
X2958527Y26839839D01*
X2268301Y26840441D01*
X1630385Y26576859D01*
X1141896Y26089222D01*
X877201Y25451767D01*
X876599Y24761541D01*
X821900Y24761541D01*
X821900Y37162521D01*
X1876513Y37162521D01*
X2216055Y36340768D01*
X2844221Y35711504D01*
X3665381Y35370529D01*
X4554519Y35369753D01*
X5376272Y35709295D01*
X6005536Y36337461D01*
X6346511Y37158621D01*
X6347287Y38047759D01*
X6007745Y38869512D01*
X5379579Y39498776D01*
X4558419Y39839751D01*
X3669281Y39840527D01*
X2847528Y39500985D01*
X2218264Y38872819D01*
X1877289Y38051659D01*
X1876513Y37162521D01*
X821900Y37162521D01*
X821900Y43920780D01*
X3158380Y43920780D01*
X3158380Y42220780D01*
X3202658Y41985463D01*
X3341730Y41769339D01*
X3553930Y41624349D01*
X3800888Y41574339D01*
X3792880Y41534080D01*
X3856441Y41214539D01*
X4037446Y40943646D01*
X4308339Y40762641D01*
X4627880Y40699080D01*
X5259912Y40699080D01*
X7229500Y38729492D01*
X7229500Y31922720D01*
X7293061Y31603179D01*
X7433539Y31392939D01*
X7474066Y31332286D01*
X10189596Y28616756D01*
X10460490Y28435751D01*
X10780030Y28372190D01*
X11099570Y28435751D01*
X11116690Y28447190D01*
X14022148Y28447190D01*
X7104754Y21529796D01*
X7084559Y21525779D01*
X6813666Y21344774D01*
X6632661Y21073881D01*
X6569100Y20754340D01*
X6569100Y4425781D01*
X6354046Y4282087D01*
X6032139Y3800318D01*
X5919100Y3232033D01*
X5919100Y3173847D01*
X6032139Y2605562D01*
X6354046Y2123793D01*
X6835815Y1801886D01*
X7404100Y1688847D01*
X7972385Y1801886D01*
X8454154Y2123793D01*
X8674100Y2452966D01*
X8894046Y2123793D01*
X9375815Y1801886D01*
X9944100Y1688847D01*
X10512385Y1801886D01*
X10994154Y2123793D01*
X11214100Y2452966D01*
X11434046Y2123793D01*
X11915815Y1801886D01*
X12484100Y1688847D01*
X13052385Y1801886D01*
X13534154Y2123793D01*
X13754100Y2452966D01*
X13974046Y2123793D01*
X14455815Y1801886D01*
X15024100Y1688847D01*
X15592385Y1801886D01*
X16074154Y2123793D01*
X16294100Y2452966D01*
X16514046Y2123793D01*
X16995815Y1801886D01*
X17564100Y1688847D01*
X18132385Y1801886D01*
X18614154Y2123793D01*
X18834100Y2452966D01*
X19054046Y2123793D01*
X19535815Y1801886D01*
X20104100Y1688847D01*
X20672385Y1801886D01*
X21154154Y2123793D01*
X21374100Y2452966D01*
X21594046Y2123793D01*
X22075815Y1801886D01*
X22644100Y1688847D01*
X23212385Y1801886D01*
X23694154Y2123793D01*
X23914100Y2452966D01*
X24134046Y2123793D01*
X24615815Y1801886D01*
X25184100Y1688847D01*
X25752385Y1801886D01*
X26234154Y2123793D01*
X26261950Y2165392D01*
X26270938Y2117623D01*
X26410010Y1901499D01*
X26622210Y1756509D01*
X26874100Y1705500D01*
X28574100Y1705500D01*
X28809417Y1749778D01*
X29025541Y1888850D01*
X29170531Y2101050D01*
X29221540Y2352940D01*
X29221540Y3662521D01*
X33876513Y3662521D01*
X34216055Y2840768D01*
X34844221Y2211504D01*
X35665381Y1870529D01*
X36554519Y1869753D01*
X37376272Y2209295D01*
X38005536Y2837461D01*
X38346511Y3658621D01*
X38347287Y4547759D01*
X38007745Y5369512D01*
X37379579Y5998776D01*
X37025843Y6145660D01*
X47815887Y6145660D01*
X47815887Y1675660D01*
X95943034Y1675660D01*
X95943034Y2100756D01*
X96140181Y1623625D01*
X96627818Y1135136D01*
X97265273Y870441D01*
X97955499Y869839D01*
X98593415Y1133421D01*
X99081904Y1621058D01*
X99346599Y2258513D01*
X99347201Y2948739D01*
X99083619Y3586655D01*
X98595982Y4075144D01*
X97958527Y4339839D01*
X97268301Y4340441D01*
X96630385Y4076859D01*
X96141896Y3589222D01*
X95943034Y3110310D01*
X95943034Y4601740D01*
X95955593Y4601740D01*
X95955593Y9071740D01*
X55733207Y9071740D01*
X55733207Y6145660D01*
X47815887Y6145660D01*
X37025843Y6145660D01*
X36558419Y6339751D01*
X35669281Y6340527D01*
X34847528Y6000985D01*
X34218264Y5372819D01*
X33877289Y4551659D01*
X33876513Y3662521D01*
X29221540Y3662521D01*
X29221540Y4052940D01*
X29177262Y4288257D01*
X29038190Y4504381D01*
X28825990Y4649371D01*
X28574100Y4700380D01*
X28559100Y4700380D01*
X28559100Y6830060D01*
X28495539Y7149601D01*
X28314534Y7420494D01*
X28209548Y7525480D01*
X52878880Y7525480D01*
X52896000Y7514041D01*
X53215540Y7450480D01*
X53535080Y7514041D01*
X53805974Y7695046D01*
X60407434Y14296506D01*
X60446519Y14355001D01*
X60588439Y14567399D01*
X60652000Y14886940D01*
X60652000Y16171079D01*
X60867054Y16314773D01*
X61188961Y16796542D01*
X61302000Y17364827D01*
X61302000Y17423013D01*
X61188961Y17991298D01*
X60867054Y18473067D01*
X60385285Y18794974D01*
X59817000Y18908013D01*
X59248715Y18794974D01*
X58766946Y18473067D01*
X58547000Y18143894D01*
X58327054Y18473067D01*
X57845285Y18794974D01*
X57277000Y18908013D01*
X56708715Y18794974D01*
X56226946Y18473067D01*
X56007000Y18143894D01*
X55787054Y18473067D01*
X55305285Y18794974D01*
X54737000Y18908013D01*
X54168715Y18794974D01*
X53686946Y18473067D01*
X53467000Y18143894D01*
X53247054Y18473067D01*
X52765285Y18794974D01*
X52197000Y18908013D01*
X51628715Y18794974D01*
X51146946Y18473067D01*
X50927000Y18143894D01*
X50707054Y18473067D01*
X50225285Y18794974D01*
X49657000Y18908013D01*
X49088715Y18794974D01*
X48606946Y18473067D01*
X48387000Y18143894D01*
X48167054Y18473067D01*
X47685285Y18794974D01*
X47117000Y18908013D01*
X46548715Y18794974D01*
X46066946Y18473067D01*
X45847000Y18143894D01*
X45627054Y18473067D01*
X45145285Y18794974D01*
X44577000Y18908013D01*
X44008715Y18794974D01*
X43526946Y18473067D01*
X43307000Y18143894D01*
X43087054Y18473067D01*
X42605285Y18794974D01*
X42037000Y18908013D01*
X41468715Y18794974D01*
X40986946Y18473067D01*
X40959150Y18431468D01*
X40950162Y18479237D01*
X40811090Y18695361D01*
X40598890Y18840351D01*
X40347000Y18891360D01*
X38647000Y18891360D01*
X38411683Y18847082D01*
X38195559Y18708010D01*
X38050569Y18495810D01*
X37999560Y18243920D01*
X37999560Y16543920D01*
X38043838Y16308603D01*
X38182910Y16092479D01*
X38395110Y15947489D01*
X38647000Y15896480D01*
X38662000Y15896480D01*
X38662000Y15309008D01*
X37930592Y14577600D01*
X29474002Y14577600D01*
X26650220Y17401382D01*
X26650220Y19426078D01*
X26671332Y19447190D01*
X29607150Y19447190D01*
X29670293Y19459750D01*
X30707150Y19459750D01*
X30942467Y19504028D01*
X31158591Y19643100D01*
X31251500Y19779077D01*
X31251500Y17806131D01*
X31348173Y17572742D01*
X31526801Y17394113D01*
X31760190Y17297440D01*
X31904750Y17297440D01*
X32063500Y17456190D01*
X32063500Y27409440D01*
X32109500Y27409440D01*
X32109500Y17456190D01*
X32268250Y17297440D01*
X32412810Y17297440D01*
X32646199Y17394113D01*
X32824827Y17572742D01*
X32921500Y17806131D01*
X32921500Y27250690D01*
X32762750Y27409440D01*
X32109500Y27409440D01*
X32063500Y27409440D01*
X32043500Y27409440D01*
X32043500Y27455440D01*
X32063500Y27455440D01*
X32063500Y37408690D01*
X32109500Y37408690D01*
X32109500Y27455440D01*
X32762750Y27455440D01*
X32921500Y27614190D01*
X32921500Y37058749D01*
X32824827Y37292138D01*
X32646199Y37470767D01*
X32412810Y37567440D01*
X32268250Y37567440D01*
X32109500Y37408690D01*
X32063500Y37408690D01*
X31904750Y37567440D01*
X31760190Y37567440D01*
X31526801Y37470767D01*
X31348173Y37292138D01*
X31251500Y37058749D01*
X31251500Y35133903D01*
X31171240Y35258631D01*
X30959040Y35403621D01*
X30707150Y35454630D01*
X28507150Y35454630D01*
X28271833Y35410352D01*
X28055709Y35271280D01*
X27910719Y35059080D01*
X27859710Y34807190D01*
X27859710Y34607190D01*
X27888971Y34451683D01*
X27859710Y34307190D01*
X27859710Y34107190D01*
X27886053Y33967190D01*
X27447852Y33967190D01*
X25810820Y35604222D01*
X25810820Y41847939D01*
X26025874Y41991633D01*
X26347781Y42473402D01*
X26460820Y43041687D01*
X26460820Y43099873D01*
X26347781Y43668158D01*
X26025874Y44149927D01*
X25544105Y44471834D01*
X25393506Y44501790D01*
X27873405Y44501790D01*
X27874719Y44498619D01*
X27847010Y44361790D01*
X27847010Y44161790D01*
X27876271Y44006283D01*
X27847010Y43861790D01*
X27847010Y43661790D01*
X27876271Y43506283D01*
X27847010Y43361790D01*
X27847010Y43161790D01*
X27876271Y43006283D01*
X27847010Y42861790D01*
X27847010Y42661790D01*
X27873369Y42521703D01*
X27859450Y42488099D01*
X27859450Y42443540D01*
X27917948Y42385042D01*
X27998209Y42260313D01*
X27908652Y42129242D01*
X27859450Y42080040D01*
X27859450Y42035481D01*
X27874719Y41998619D01*
X27847010Y41861790D01*
X27847010Y41661790D01*
X27876271Y41506283D01*
X27847010Y41361790D01*
X27847010Y41161790D01*
X27876271Y41006283D01*
X27847010Y40861790D01*
X27847010Y40661790D01*
X27876271Y40506283D01*
X27847010Y40361790D01*
X27847010Y40161790D01*
X27891288Y39926473D01*
X28030360Y39710349D01*
X28242560Y39565359D01*
X28494450Y39514350D01*
X30694450Y39514350D01*
X30929767Y39558628D01*
X31145891Y39697700D01*
X31264200Y39870851D01*
X31264200Y38113431D01*
X31360873Y37880042D01*
X31539501Y37701413D01*
X31772890Y37604740D01*
X31917450Y37604740D01*
X32076200Y37763490D01*
X32076200Y47716740D01*
X32122200Y47716740D01*
X32122200Y37763490D01*
X32280950Y37604740D01*
X32425510Y37604740D01*
X32658899Y37701413D01*
X32837527Y37880042D01*
X32934200Y38113431D01*
X32934200Y47557990D01*
X32775450Y47716740D01*
X32122200Y47716740D01*
X32076200Y47716740D01*
X32056200Y47716740D01*
X32056200Y47762740D01*
X32076200Y47762740D01*
X32076200Y47782740D01*
X32122200Y47782740D01*
X32122200Y47762740D01*
X32775450Y47762740D01*
X32934200Y47921490D01*
X32934200Y54861790D01*
X33047010Y54861790D01*
X33047010Y54661790D01*
X33076271Y54506283D01*
X33047010Y54361790D01*
X33047010Y54161790D01*
X33073369Y54021703D01*
X33059450Y53988099D01*
X33059450Y53943540D01*
X33117948Y53885042D01*
X33198209Y53760313D01*
X33108652Y53629242D01*
X33059450Y53580040D01*
X33059450Y53535481D01*
X33074719Y53498619D01*
X33047010Y53361790D01*
X33047010Y53161790D01*
X33076271Y53006283D01*
X33047010Y52861790D01*
X33047010Y52661790D01*
X33076271Y52506283D01*
X33047010Y52361790D01*
X33047010Y52161790D01*
X33076271Y52006283D01*
X33047010Y51861790D01*
X33047010Y51661790D01*
X33076271Y51506283D01*
X33047010Y51361790D01*
X33047010Y51161790D01*
X33076271Y51006283D01*
X33047010Y50861790D01*
X33047010Y50661790D01*
X33076271Y50506283D01*
X33047010Y50361790D01*
X33047010Y50161790D01*
X33073369Y50021703D01*
X33059450Y49988099D01*
X33059450Y49943540D01*
X33117948Y49885042D01*
X33198209Y49760313D01*
X33108652Y49629242D01*
X33059450Y49580040D01*
X33059450Y49535481D01*
X33074719Y49498619D01*
X33047010Y49361790D01*
X33047010Y49161790D01*
X33076271Y49006283D01*
X33047010Y48861790D01*
X33047010Y48661790D01*
X33076271Y48506283D01*
X33047010Y48361790D01*
X33047010Y48161790D01*
X33076271Y48006283D01*
X33047010Y47861790D01*
X33047010Y47661790D01*
X33076271Y47506283D01*
X33047010Y47361790D01*
X33047010Y47161790D01*
X33076271Y47006283D01*
X33047010Y46861790D01*
X33047010Y46661790D01*
X33076271Y46506283D01*
X33047010Y46361790D01*
X33047010Y46161790D01*
X33076271Y46006283D01*
X33047010Y45861790D01*
X33047010Y45661790D01*
X33076271Y45506283D01*
X33047010Y45361790D01*
X33047010Y45161790D01*
X33073369Y45021703D01*
X33059450Y44988099D01*
X33059450Y44943540D01*
X33117948Y44885042D01*
X33198209Y44760313D01*
X33108652Y44629242D01*
X33059450Y44580040D01*
X33059450Y44535481D01*
X33074719Y44498619D01*
X33047010Y44361790D01*
X33047010Y44161790D01*
X33076271Y44006283D01*
X33047010Y43861790D01*
X33047010Y43661790D01*
X33076271Y43506283D01*
X33047010Y43361790D01*
X33047010Y43161790D01*
X33076271Y43006283D01*
X33047010Y42861790D01*
X33047010Y42661790D01*
X33073369Y42521703D01*
X33059450Y42488099D01*
X33059450Y42443540D01*
X33117948Y42385042D01*
X33198209Y42260313D01*
X33108652Y42129242D01*
X33059450Y42080040D01*
X33059450Y42035481D01*
X33074719Y41998619D01*
X33047010Y41861790D01*
X33047010Y41661790D01*
X33076271Y41506283D01*
X33047010Y41361790D01*
X33047010Y41161790D01*
X33076271Y41006283D01*
X33047010Y40861790D01*
X33047010Y40661790D01*
X33076271Y40506283D01*
X33047010Y40361790D01*
X33047010Y40161790D01*
X33091288Y39926473D01*
X33230360Y39710349D01*
X33442560Y39565359D01*
X33694450Y39514350D01*
X35894450Y39514350D01*
X36129767Y39558628D01*
X36345891Y39697700D01*
X36490881Y39909900D01*
X36541890Y40161790D01*
X36541890Y40361790D01*
X36512629Y40517297D01*
X36541890Y40661790D01*
X36541890Y40861790D01*
X36512629Y41017297D01*
X36541890Y41161790D01*
X36541890Y41361790D01*
X36512629Y41517297D01*
X36541890Y41661790D01*
X36541890Y41861790D01*
X36515531Y42001877D01*
X36529450Y42035481D01*
X36529450Y42080040D01*
X36470952Y42138538D01*
X36390691Y42263267D01*
X36480248Y42394338D01*
X36529450Y42443540D01*
X36529450Y42488099D01*
X36514181Y42524961D01*
X36541890Y42661790D01*
X36541890Y42861790D01*
X36515547Y43001790D01*
X38464398Y43001790D01*
X38373583Y42984702D01*
X38157459Y42845630D01*
X38012469Y42633430D01*
X37961460Y42381540D01*
X37961460Y40681540D01*
X38005738Y40446223D01*
X38144810Y40230099D01*
X38357010Y40085109D01*
X38608900Y40034100D01*
X38623900Y40034100D01*
X38623900Y35436582D01*
X37154508Y33967190D01*
X36526239Y33967190D01*
X36554590Y34107190D01*
X36554590Y34307190D01*
X36525329Y34462697D01*
X36554590Y34607190D01*
X36554590Y34807190D01*
X36510312Y35042507D01*
X36371240Y35258631D01*
X36159040Y35403621D01*
X35907150Y35454630D01*
X33707150Y35454630D01*
X33471833Y35410352D01*
X33255709Y35271280D01*
X33110719Y35059080D01*
X33059710Y34807190D01*
X33059710Y34607190D01*
X33088971Y34451683D01*
X33059710Y34307190D01*
X33059710Y34107190D01*
X33088971Y33951683D01*
X33059710Y33807190D01*
X33059710Y33607190D01*
X33088971Y33451683D01*
X33059710Y33307190D01*
X33059710Y33107190D01*
X33088971Y32951683D01*
X33059710Y32807190D01*
X33059710Y32607190D01*
X33088971Y32451683D01*
X33059710Y32307190D01*
X33059710Y32107190D01*
X33088971Y31951683D01*
X33059710Y31807190D01*
X33059710Y31607190D01*
X33088971Y31451683D01*
X33059710Y31307190D01*
X33059710Y31107190D01*
X33088971Y30951683D01*
X33059710Y30807190D01*
X33059710Y30607190D01*
X33088971Y30451683D01*
X33059710Y30307190D01*
X33059710Y30107190D01*
X33088971Y29951683D01*
X33059710Y29807190D01*
X33059710Y29607190D01*
X33088971Y29451683D01*
X33059710Y29307190D01*
X33059710Y29107190D01*
X33088971Y28951683D01*
X33059710Y28807190D01*
X33059710Y28607190D01*
X33088971Y28451683D01*
X33059710Y28307190D01*
X33059710Y28107190D01*
X33088971Y27951683D01*
X33059710Y27807190D01*
X33059710Y27607190D01*
X33088971Y27451683D01*
X33059710Y27307190D01*
X33059710Y27107190D01*
X33088971Y26951683D01*
X33059710Y26807190D01*
X33059710Y26607190D01*
X33088971Y26451683D01*
X33059710Y26307190D01*
X33059710Y26107190D01*
X33088971Y25951683D01*
X33059710Y25807190D01*
X33059710Y25607190D01*
X33088971Y25451683D01*
X33059710Y25307190D01*
X33059710Y25107190D01*
X33088971Y24951683D01*
X33059710Y24807190D01*
X33059710Y24607190D01*
X33088971Y24451683D01*
X33059710Y24307190D01*
X33059710Y24107190D01*
X33088971Y23951683D01*
X33059710Y23807190D01*
X33059710Y23607190D01*
X33088971Y23451683D01*
X33059710Y23307190D01*
X33059710Y23107190D01*
X33088971Y22951683D01*
X33059710Y22807190D01*
X33059710Y22607190D01*
X33088971Y22451683D01*
X33059710Y22307190D01*
X33059710Y22107190D01*
X33088971Y21951683D01*
X33059710Y21807190D01*
X33059710Y21607190D01*
X33088971Y21451683D01*
X33059710Y21307190D01*
X33059710Y21107190D01*
X33088971Y20951683D01*
X33059710Y20807190D01*
X33059710Y20607190D01*
X33088971Y20451683D01*
X33059710Y20307190D01*
X33059710Y20107190D01*
X33103988Y19871873D01*
X33243060Y19655749D01*
X33455260Y19510759D01*
X33707150Y19459750D01*
X34744007Y19459750D01*
X34807150Y19447190D01*
X65055140Y19447190D01*
X65055140Y18604061D01*
X64840086Y18460367D01*
X64518179Y17978598D01*
X64405140Y17410313D01*
X64405140Y17352127D01*
X64518179Y16783842D01*
X64840086Y16302073D01*
X65321855Y15980166D01*
X65890140Y15867127D01*
X66458425Y15980166D01*
X66940194Y16302073D01*
X67160140Y16631246D01*
X67380086Y16302073D01*
X67861855Y15980166D01*
X68430140Y15867127D01*
X68998425Y15980166D01*
X69480194Y16302073D01*
X69700140Y16631246D01*
X69920086Y16302073D01*
X70401855Y15980166D01*
X70970140Y15867127D01*
X71538425Y15980166D01*
X72020194Y16302073D01*
X72240140Y16631246D01*
X72460086Y16302073D01*
X72941855Y15980166D01*
X73510140Y15867127D01*
X74078425Y15980166D01*
X74560194Y16302073D01*
X74780140Y16631246D01*
X75000086Y16302073D01*
X75481855Y15980166D01*
X76050140Y15867127D01*
X76618425Y15980166D01*
X77100194Y16302073D01*
X77320140Y16631246D01*
X77540086Y16302073D01*
X78021855Y15980166D01*
X78590140Y15867127D01*
X79158425Y15980166D01*
X79640194Y16302073D01*
X79860140Y16631246D01*
X80080086Y16302073D01*
X80561855Y15980166D01*
X81130140Y15867127D01*
X81698425Y15980166D01*
X82180194Y16302073D01*
X82400140Y16631246D01*
X82620086Y16302073D01*
X83101855Y15980166D01*
X83670140Y15867127D01*
X84238425Y15980166D01*
X84720194Y16302073D01*
X84747990Y16343672D01*
X84756978Y16295903D01*
X84896050Y16079779D01*
X85108250Y15934789D01*
X85360140Y15883780D01*
X87060140Y15883780D01*
X87295457Y15928058D01*
X87511581Y16067130D01*
X87656571Y16279330D01*
X87707580Y16531220D01*
X87707580Y18231220D01*
X87663302Y18466537D01*
X87524230Y18682661D01*
X87312030Y18827651D01*
X87060140Y18878660D01*
X87045140Y18878660D01*
X87045140Y22491700D01*
X86981579Y22811241D01*
X86800574Y23082134D01*
X85121167Y24761541D01*
X95876599Y24761541D01*
X96140181Y24123625D01*
X96627818Y23635136D01*
X97265273Y23370441D01*
X97955499Y23369839D01*
X98593415Y23633421D01*
X99081904Y24121058D01*
X99346599Y24758513D01*
X99347201Y25448739D01*
X99083619Y26086655D01*
X98595982Y26575144D01*
X97958527Y26839839D01*
X97268301Y26840441D01*
X96630385Y26576859D01*
X96141896Y26089222D01*
X95877201Y25451767D01*
X95876599Y24761541D01*
X85121167Y24761541D01*
X85085084Y24797624D01*
X84814190Y24978629D01*
X84494650Y25042190D01*
X84175110Y24978629D01*
X84157990Y24967190D01*
X76511792Y24967190D01*
X81713966Y30169364D01*
X81734161Y30173381D01*
X82005054Y30354386D01*
X82186059Y30625279D01*
X82249620Y30944820D01*
X82249620Y34662521D01*
X82876513Y34662521D01*
X83216055Y33840768D01*
X83844221Y33211504D01*
X84665381Y32870529D01*
X85554519Y32869753D01*
X86376272Y33209295D01*
X87005536Y33837461D01*
X87346511Y34658621D01*
X87347287Y35547759D01*
X87007745Y36369512D01*
X86379579Y36998776D01*
X85558419Y37339751D01*
X84669281Y37340527D01*
X83847528Y37000985D01*
X83218264Y36372819D01*
X82877289Y35551659D01*
X82876513Y34662521D01*
X82249620Y34662521D01*
X82249620Y37558552D01*
X82964448Y38273380D01*
X85377020Y38273380D01*
X85696561Y38336941D01*
X85967454Y38517946D01*
X86772634Y39323126D01*
X86820592Y39394900D01*
X86953639Y39594019D01*
X87017200Y39913560D01*
X87017200Y40194399D01*
X87232254Y40338093D01*
X87554161Y40819862D01*
X87667200Y41388147D01*
X87667200Y41446333D01*
X87554161Y42014618D01*
X87232254Y42496387D01*
X86750485Y42818294D01*
X86182200Y42931333D01*
X85613915Y42818294D01*
X85132146Y42496387D01*
X84912200Y42167214D01*
X84692254Y42496387D01*
X84210485Y42818294D01*
X83642200Y42931333D01*
X83073915Y42818294D01*
X82592146Y42496387D01*
X82372200Y42167214D01*
X82152254Y42496387D01*
X81670485Y42818294D01*
X81102200Y42931333D01*
X80533915Y42818294D01*
X80052146Y42496387D01*
X79832200Y42167214D01*
X79612254Y42496387D01*
X79130485Y42818294D01*
X78562200Y42931333D01*
X77993915Y42818294D01*
X77512146Y42496387D01*
X77292200Y42167214D01*
X77072254Y42496387D01*
X76590485Y42818294D01*
X76022200Y42931333D01*
X75453915Y42818294D01*
X74972146Y42496387D01*
X74752200Y42167214D01*
X74532254Y42496387D01*
X74050485Y42818294D01*
X73482200Y42931333D01*
X72913915Y42818294D01*
X72432146Y42496387D01*
X72212200Y42167214D01*
X71992254Y42496387D01*
X71510485Y42818294D01*
X70942200Y42931333D01*
X70373915Y42818294D01*
X69892146Y42496387D01*
X69672200Y42167214D01*
X69452254Y42496387D01*
X68970485Y42818294D01*
X68402200Y42931333D01*
X67833915Y42818294D01*
X67352146Y42496387D01*
X67324350Y42454788D01*
X67315362Y42502557D01*
X67176290Y42718681D01*
X66964090Y42863671D01*
X66712200Y42914680D01*
X65012200Y42914680D01*
X64776883Y42870402D01*
X64560759Y42731330D01*
X64415769Y42519130D01*
X64364760Y42267240D01*
X64364760Y40567240D01*
X64409038Y40331923D01*
X64548110Y40115799D01*
X64760310Y39970809D01*
X65012200Y39919800D01*
X65027200Y39919800D01*
X65027200Y33808442D01*
X60685948Y29467190D01*
X56302672Y29467190D01*
X60078246Y33242764D01*
X60098441Y33246781D01*
X60369334Y33427786D01*
X60550339Y33698679D01*
X60613900Y34018220D01*
X60613900Y40308699D01*
X60828954Y40452393D01*
X61150861Y40934162D01*
X61263900Y41502447D01*
X61263900Y41560633D01*
X61150861Y42128918D01*
X60828954Y42610687D01*
X60347185Y42932594D01*
X59999313Y43001790D01*
X87889108Y43001790D01*
X89401040Y41489858D01*
X89401040Y39690040D01*
X89464601Y39370499D01*
X89472939Y39358021D01*
X89645606Y39099606D01*
X90567626Y38177586D01*
X90838519Y37996581D01*
X91158060Y37933020D01*
X95488760Y37933020D01*
X95808301Y37996581D01*
X96079194Y38177586D01*
X97453334Y39551726D01*
X97481594Y39594020D01*
X97634339Y39822619D01*
X97697900Y40142160D01*
X97697900Y44004399D01*
X97912954Y44148093D01*
X98234861Y44629862D01*
X98347900Y45198147D01*
X98347900Y45256333D01*
X98234861Y45824618D01*
X97912954Y46306387D01*
X97431185Y46628294D01*
X96862900Y46741333D01*
X96294615Y46628294D01*
X95812846Y46306387D01*
X95785050Y46264788D01*
X95776062Y46312557D01*
X95636990Y46528681D01*
X95424790Y46673671D01*
X95172900Y46724680D01*
X93472900Y46724680D01*
X93237583Y46680402D01*
X93021459Y46541330D01*
X92876469Y46329130D01*
X92825460Y46077240D01*
X92825460Y44377240D01*
X92869738Y44141923D01*
X93008810Y43925799D01*
X93221010Y43780809D01*
X93472900Y43729800D01*
X93487900Y43729800D01*
X93487900Y41217008D01*
X92684172Y40413280D01*
X91923028Y40413280D01*
X91860980Y40475328D01*
X91860980Y42161460D01*
X91797419Y42481001D01*
X91616414Y42751894D01*
X89516084Y44852224D01*
X89245190Y45033229D01*
X88925650Y45096790D01*
X88606110Y45033229D01*
X88588990Y45021790D01*
X86392462Y45021790D01*
X86616304Y45171356D01*
X97847034Y56402086D01*
X98028040Y56672980D01*
X98091600Y56992520D01*
X98091600Y58512600D01*
X98106600Y58512600D01*
X98341917Y58556878D01*
X98558041Y58695950D01*
X98703031Y58908150D01*
X98754040Y59160040D01*
X98754040Y60860040D01*
X98709762Y61095357D01*
X98570690Y61311481D01*
X98358490Y61456471D01*
X98106600Y61507480D01*
X96406600Y61507480D01*
X96171283Y61463202D01*
X95955159Y61324130D01*
X95810169Y61111930D01*
X95787084Y60997931D01*
X95570750Y61224807D01*
X95040860Y61459207D01*
X94971594Y61472983D01*
X94739600Y61336091D01*
X94739600Y60033040D01*
X94759600Y60033040D01*
X94759600Y59987040D01*
X94739600Y59987040D01*
X94739600Y58683989D01*
X94971594Y58547097D01*
X95040860Y58560873D01*
X95570750Y58795273D01*
X95785432Y59020417D01*
X95803438Y58924723D01*
X95942510Y58708599D01*
X96154710Y58563609D01*
X96406600Y58512600D01*
X96421600Y58512600D01*
X96421600Y57338388D01*
X85605002Y46521790D01*
X70918872Y46521790D01*
X84152128Y59755046D01*
X93253655Y59755046D01*
X93462597Y59214611D01*
X93862450Y58795273D01*
X94392340Y58560873D01*
X94461606Y58547097D01*
X94693600Y58683989D01*
X94693600Y59987040D01*
X93390526Y59987040D01*
X93253655Y59755046D01*
X84152128Y59755046D01*
X84662116Y60265034D01*
X93253655Y60265034D01*
X93390526Y60033040D01*
X94693600Y60033040D01*
X94693600Y61336091D01*
X94461606Y61472983D01*
X94392340Y61459207D01*
X93862450Y61224807D01*
X93462597Y60805469D01*
X93253655Y60265034D01*
X84662116Y60265034D01*
X90469346Y66072264D01*
X90489541Y66076281D01*
X90760434Y66257286D01*
X90941439Y66528179D01*
X91005000Y66847720D01*
X91005000Y70496599D01*
X91220054Y70640293D01*
X91541961Y71122062D01*
X91655000Y71690347D01*
X91655000Y71748533D01*
X91541961Y72316818D01*
X91220054Y72798587D01*
X90738285Y73120494D01*
X90170000Y73233533D01*
X89601715Y73120494D01*
X89119946Y72798587D01*
X88900000Y72469414D01*
X88680054Y72798587D01*
X88198285Y73120494D01*
X87630000Y73233533D01*
X87061715Y73120494D01*
X86579946Y72798587D01*
X86360000Y72469414D01*
X86140054Y72798587D01*
X85658285Y73120494D01*
X85090000Y73233533D01*
X84521715Y73120494D01*
X84039946Y72798587D01*
X83820000Y72469414D01*
X83600054Y72798587D01*
X83118285Y73120494D01*
X82550000Y73233533D01*
X81981715Y73120494D01*
X81499946Y72798587D01*
X81280000Y72469414D01*
X81060054Y72798587D01*
X80578285Y73120494D01*
X80010000Y73233533D01*
X79441715Y73120494D01*
X78959946Y72798587D01*
X78740000Y72469414D01*
X78520054Y72798587D01*
X78038285Y73120494D01*
X77470000Y73233533D01*
X76901715Y73120494D01*
X76419946Y72798587D01*
X76392150Y72756988D01*
X76383162Y72804757D01*
X76244090Y73020881D01*
X76031890Y73165871D01*
X75780000Y73216880D01*
X74080000Y73216880D01*
X73844683Y73172602D01*
X73628559Y73033530D01*
X73483569Y72821330D01*
X73432560Y72569440D01*
X73432560Y70869440D01*
X73476838Y70634123D01*
X73615910Y70417999D01*
X73828110Y70273009D01*
X74080000Y70222000D01*
X74095000Y70222000D01*
X74095000Y66086762D01*
X58030028Y50021790D01*
X53250512Y50021790D01*
X66821946Y63593224D01*
X66842141Y63597241D01*
X67113034Y63778246D01*
X67294039Y64049139D01*
X67357600Y64368680D01*
X67357600Y70585499D01*
X67572654Y70729193D01*
X67894561Y71210962D01*
X68007600Y71779247D01*
X68007600Y71837433D01*
X67894561Y72405718D01*
X67572654Y72887487D01*
X67090885Y73209394D01*
X66522600Y73322433D01*
X65954315Y73209394D01*
X65472546Y72887487D01*
X65252600Y72558314D01*
X65032654Y72887487D01*
X64550885Y73209394D01*
X63982600Y73322433D01*
X63414315Y73209394D01*
X62932546Y72887487D01*
X62712600Y72558314D01*
X62492654Y72887487D01*
X62010885Y73209394D01*
X61442600Y73322433D01*
X60874315Y73209394D01*
X60392546Y72887487D01*
X60172600Y72558314D01*
X59952654Y72887487D01*
X59470885Y73209394D01*
X58902600Y73322433D01*
X58334315Y73209394D01*
X57852546Y72887487D01*
X57632600Y72558314D01*
X57412654Y72887487D01*
X56930885Y73209394D01*
X56362600Y73322433D01*
X55794315Y73209394D01*
X55312546Y72887487D01*
X55092600Y72558314D01*
X54872654Y72887487D01*
X54390885Y73209394D01*
X53822600Y73322433D01*
X53254315Y73209394D01*
X52772546Y72887487D01*
X52744750Y72845888D01*
X52735762Y72893657D01*
X52596690Y73109781D01*
X52384490Y73254771D01*
X52132600Y73305780D01*
X50432600Y73305780D01*
X50197283Y73261502D01*
X49981159Y73122430D01*
X49836169Y72910230D01*
X49785160Y72658340D01*
X49785160Y70958340D01*
X49829438Y70723023D01*
X49968510Y70506899D01*
X50180710Y70361909D01*
X50432600Y70310900D01*
X50447600Y70310900D01*
X50447600Y67120542D01*
X38848848Y55521790D01*
X34794450Y55521790D01*
X34731307Y55509230D01*
X33694450Y55509230D01*
X33459133Y55464952D01*
X33243009Y55325880D01*
X33098019Y55113680D01*
X33047010Y54861790D01*
X32934200Y54861790D01*
X32934200Y56476360D01*
X37204540Y56476360D01*
X37221660Y56464921D01*
X37541200Y56401360D01*
X37860740Y56464921D01*
X38131634Y56645926D01*
X40176334Y58690626D01*
X40188343Y58708599D01*
X40357339Y58961519D01*
X40420900Y59281060D01*
X40420900Y62178099D01*
X40635954Y62321793D01*
X40957861Y62803562D01*
X41070900Y63371847D01*
X41070900Y63430033D01*
X40957861Y63998318D01*
X40635954Y64480087D01*
X40154185Y64801994D01*
X39585900Y64915033D01*
X39017615Y64801994D01*
X38535846Y64480087D01*
X38315900Y64150914D01*
X38095954Y64480087D01*
X37614185Y64801994D01*
X37045900Y64915033D01*
X36477615Y64801994D01*
X35995846Y64480087D01*
X35775900Y64150914D01*
X35555954Y64480087D01*
X35074185Y64801994D01*
X34505900Y64915033D01*
X33937615Y64801994D01*
X33455846Y64480087D01*
X33235900Y64150914D01*
X33015954Y64480087D01*
X32534185Y64801994D01*
X31965900Y64915033D01*
X31397615Y64801994D01*
X30915846Y64480087D01*
X30695900Y64150914D01*
X30475954Y64480087D01*
X29994185Y64801994D01*
X29425900Y64915033D01*
X28857615Y64801994D01*
X28375846Y64480087D01*
X28346497Y64436163D01*
X28274227Y64610638D01*
X28095599Y64789267D01*
X27862210Y64885940D01*
X27067650Y64885940D01*
X26908900Y64727190D01*
X26908900Y63423940D01*
X26928900Y63423940D01*
X26928900Y63377940D01*
X26908900Y63377940D01*
X26908900Y62074690D01*
X27067650Y61915940D01*
X27862210Y61915940D01*
X28035963Y61987911D01*
X24434140Y58386088D01*
X24434140Y63219190D01*
X25400900Y63219190D01*
X25400900Y62424631D01*
X25497573Y62191242D01*
X25676201Y62012613D01*
X25909590Y61915940D01*
X26704150Y61915940D01*
X26862900Y62074690D01*
X26862900Y63377940D01*
X25559650Y63377940D01*
X25400900Y63219190D01*
X24434140Y63219190D01*
X24434140Y64377249D01*
X25400900Y64377249D01*
X25400900Y63582690D01*
X25559650Y63423940D01*
X26862900Y63423940D01*
X26862900Y64727190D01*
X26704150Y64885940D01*
X25909590Y64885940D01*
X25676201Y64789267D01*
X25497573Y64610638D01*
X25400900Y64377249D01*
X24434140Y64377249D01*
X24434140Y65887172D01*
X26069174Y67522206D01*
X26148375Y67640739D01*
X26250179Y67793099D01*
X26313740Y68112640D01*
X26313740Y70662521D01*
X33876513Y70662521D01*
X34216055Y69840768D01*
X34844221Y69211504D01*
X35665381Y68870529D01*
X36554519Y68869753D01*
X37376272Y69209295D01*
X38005536Y69837461D01*
X38346511Y70658621D01*
X38347287Y71547759D01*
X38007745Y72369512D01*
X37379579Y72998776D01*
X36558419Y73339751D01*
X35669281Y73340527D01*
X34847528Y73000985D01*
X34218264Y72372819D01*
X33877289Y71551659D01*
X33876513Y70662521D01*
X26313740Y70662521D01*
X26313740Y70961419D01*
X26528794Y71105113D01*
X26850701Y71586882D01*
X26963740Y72155167D01*
X26963740Y72213353D01*
X26850701Y72781638D01*
X26528794Y73263407D01*
X26047025Y73585314D01*
X25478740Y73698353D01*
X24910455Y73585314D01*
X24428686Y73263407D01*
X24208740Y72934234D01*
X23988794Y73263407D01*
X23507025Y73585314D01*
X22938740Y73698353D01*
X22370455Y73585314D01*
X21888686Y73263407D01*
X21668740Y72934234D01*
X21448794Y73263407D01*
X20967025Y73585314D01*
X20398740Y73698353D01*
X19830455Y73585314D01*
X19348686Y73263407D01*
X19128740Y72934234D01*
X18908794Y73263407D01*
X18427025Y73585314D01*
X17858740Y73698353D01*
X17290455Y73585314D01*
X16808686Y73263407D01*
X16588740Y72934234D01*
X16368794Y73263407D01*
X15887025Y73585314D01*
X15318740Y73698353D01*
X14750455Y73585314D01*
X14268686Y73263407D01*
X14048740Y72934234D01*
X13828794Y73263407D01*
X13347025Y73585314D01*
X12778740Y73698353D01*
X12210455Y73585314D01*
X11728686Y73263407D01*
X11508740Y72934234D01*
X11288794Y73263407D01*
X10807025Y73585314D01*
X10238740Y73698353D01*
X9670455Y73585314D01*
X9188686Y73263407D01*
X8968740Y72934234D01*
X8748794Y73263407D01*
X8267025Y73585314D01*
X7698740Y73698353D01*
X7130455Y73585314D01*
X6648686Y73263407D01*
X6620890Y73221808D01*
X6611902Y73269577D01*
X6472830Y73485701D01*
X6260630Y73630691D01*
X6008740Y73681700D01*
X4308740Y73681700D01*
X4073423Y73637422D01*
X3857299Y73498350D01*
X3712309Y73286150D01*
X3661300Y73034260D01*
X3661300Y71334260D01*
X3705578Y71098943D01*
X3844650Y70882819D01*
X4056850Y70737829D01*
X4308740Y70686820D01*
X4323740Y70686820D01*
X4323740Y56342280D01*
X4387301Y56022739D01*
X4568306Y55751846D01*
X4781403Y55609459D01*
X15684151Y44706711D01*
X15938823Y44536545D01*
X16239230Y44476790D01*
X16364912Y44501790D01*
X16938134Y44501790D01*
X16787535Y44471834D01*
X16305766Y44149927D01*
X16085820Y43820754D01*
X15865874Y44149927D01*
X15384105Y44471834D01*
X14815820Y44584873D01*
X14247535Y44471834D01*
X13765766Y44149927D01*
X13545820Y43820754D01*
X13325874Y44149927D01*
X12844105Y44471834D01*
X12275820Y44584873D01*
X11707535Y44471834D01*
X11225766Y44149927D01*
X11005820Y43820754D01*
X10785874Y44149927D01*
X10304105Y44471834D01*
X9735820Y44584873D01*
X9167535Y44471834D01*
X8685766Y44149927D01*
X8465820Y43820754D01*
X8245874Y44149927D01*
X7764105Y44471834D01*
X7195820Y44584873D01*
X6627535Y44471834D01*
X6145766Y44149927D01*
X6117970Y44108328D01*
X6108982Y44156097D01*
X5969910Y44372221D01*
X5757710Y44517211D01*
X5505820Y44568220D01*
X3805820Y44568220D01*
X3570503Y44523942D01*
X3354379Y44384870D01*
X3209389Y44172670D01*
X3158380Y43920780D01*
X821900Y43920780D01*
X821900Y74395140D01*
X99401900Y74395140D01*
X99401900Y815140D01*
X99401900Y815140D01*
G37*
X99401900Y815140D02*
X821900Y815140D01*
X821900Y2261541D01*
X876599Y2261541D01*
X1140181Y1623625D01*
X1627818Y1135136D01*
X2265273Y870441D01*
X2955499Y869839D01*
X3593415Y1133421D01*
X4081904Y1621058D01*
X4346599Y2258513D01*
X4347201Y2948739D01*
X4083619Y3586655D01*
X3595982Y4075144D01*
X2958527Y4339839D01*
X2268301Y4340441D01*
X1630385Y4076859D01*
X1141896Y3589222D01*
X877201Y2951767D01*
X876599Y2261541D01*
X821900Y2261541D01*
X821900Y24761541D01*
X876599Y24761541D01*
X1140181Y24123625D01*
X1627818Y23635136D01*
X2265273Y23370441D01*
X2955499Y23369839D01*
X3593415Y23633421D01*
X4081904Y24121058D01*
X4346599Y24758513D01*
X4347201Y25448739D01*
X4083619Y26086655D01*
X3595982Y26575144D01*
X2958527Y26839839D01*
X2268301Y26840441D01*
X1630385Y26576859D01*
X1141896Y26089222D01*
X877201Y25451767D01*
X876599Y24761541D01*
X821900Y24761541D01*
X821900Y37162521D01*
X1876513Y37162521D01*
X2216055Y36340768D01*
X2844221Y35711504D01*
X3665381Y35370529D01*
X4554519Y35369753D01*
X5376272Y35709295D01*
X6005536Y36337461D01*
X6346511Y37158621D01*
X6347287Y38047759D01*
X6007745Y38869512D01*
X5379579Y39498776D01*
X4558419Y39839751D01*
X3669281Y39840527D01*
X2847528Y39500985D01*
X2218264Y38872819D01*
X1877289Y38051659D01*
X1876513Y37162521D01*
X821900Y37162521D01*
X821900Y43920780D01*
X3158380Y43920780D01*
X3158380Y42220780D01*
X3202658Y41985463D01*
X3341730Y41769339D01*
X3553930Y41624349D01*
X3800888Y41574339D01*
X3792880Y41534080D01*
X3856441Y41214539D01*
X4037446Y40943646D01*
X4308339Y40762641D01*
X4627880Y40699080D01*
X5259912Y40699080D01*
X7229500Y38729492D01*
X7229500Y31922720D01*
X7293061Y31603179D01*
X7433539Y31392939D01*
X7474066Y31332286D01*
X10189596Y28616756D01*
X10460490Y28435751D01*
X10780030Y28372190D01*
X11099570Y28435751D01*
X11116690Y28447190D01*
X14022148Y28447190D01*
X7104754Y21529796D01*
X7084559Y21525779D01*
X6813666Y21344774D01*
X6632661Y21073881D01*
X6569100Y20754340D01*
X6569100Y4425781D01*
X6354046Y4282087D01*
X6032139Y3800318D01*
X5919100Y3232033D01*
X5919100Y3173847D01*
X6032139Y2605562D01*
X6354046Y2123793D01*
X6835815Y1801886D01*
X7404100Y1688847D01*
X7972385Y1801886D01*
X8454154Y2123793D01*
X8674100Y2452966D01*
X8894046Y2123793D01*
X9375815Y1801886D01*
X9944100Y1688847D01*
X10512385Y1801886D01*
X10994154Y2123793D01*
X11214100Y2452966D01*
X11434046Y2123793D01*
X11915815Y1801886D01*
X12484100Y1688847D01*
X13052385Y1801886D01*
X13534154Y2123793D01*
X13754100Y2452966D01*
X13974046Y2123793D01*
X14455815Y1801886D01*
X15024100Y1688847D01*
X15592385Y1801886D01*
X16074154Y2123793D01*
X16294100Y2452966D01*
X16514046Y2123793D01*
X16995815Y1801886D01*
X17564100Y1688847D01*
X18132385Y1801886D01*
X18614154Y2123793D01*
X18834100Y2452966D01*
X19054046Y2123793D01*
X19535815Y1801886D01*
X20104100Y1688847D01*
X20672385Y1801886D01*
X21154154Y2123793D01*
X21374100Y2452966D01*
X21594046Y2123793D01*
X22075815Y1801886D01*
X22644100Y1688847D01*
X23212385Y1801886D01*
X23694154Y2123793D01*
X23914100Y2452966D01*
X24134046Y2123793D01*
X24615815Y1801886D01*
X25184100Y1688847D01*
X25752385Y1801886D01*
X26234154Y2123793D01*
X26261950Y2165392D01*
X26270938Y2117623D01*
X26410010Y1901499D01*
X26622210Y1756509D01*
X26874100Y1705500D01*
X28574100Y1705500D01*
X28809417Y1749778D01*
X29025541Y1888850D01*
X29170531Y2101050D01*
X29221540Y2352940D01*
X29221540Y3662521D01*
X33876513Y3662521D01*
X34216055Y2840768D01*
X34844221Y2211504D01*
X35665381Y1870529D01*
X36554519Y1869753D01*
X37376272Y2209295D01*
X38005536Y2837461D01*
X38346511Y3658621D01*
X38347287Y4547759D01*
X38007745Y5369512D01*
X37379579Y5998776D01*
X37025843Y6145660D01*
X47815887Y6145660D01*
X47815887Y1675660D01*
X95943034Y1675660D01*
X95943034Y2100756D01*
X96140181Y1623625D01*
X96627818Y1135136D01*
X97265273Y870441D01*
X97955499Y869839D01*
X98593415Y1133421D01*
X99081904Y1621058D01*
X99346599Y2258513D01*
X99347201Y2948739D01*
X99083619Y3586655D01*
X98595982Y4075144D01*
X97958527Y4339839D01*
X97268301Y4340441D01*
X96630385Y4076859D01*
X96141896Y3589222D01*
X95943034Y3110310D01*
X95943034Y4601740D01*
X95955593Y4601740D01*
X95955593Y9071740D01*
X55733207Y9071740D01*
X55733207Y6145660D01*
X47815887Y6145660D01*
X37025843Y6145660D01*
X36558419Y6339751D01*
X35669281Y6340527D01*
X34847528Y6000985D01*
X34218264Y5372819D01*
X33877289Y4551659D01*
X33876513Y3662521D01*
X29221540Y3662521D01*
X29221540Y4052940D01*
X29177262Y4288257D01*
X29038190Y4504381D01*
X28825990Y4649371D01*
X28574100Y4700380D01*
X28559100Y4700380D01*
X28559100Y6830060D01*
X28495539Y7149601D01*
X28314534Y7420494D01*
X28209548Y7525480D01*
X52878880Y7525480D01*
X52896000Y7514041D01*
X53215540Y7450480D01*
X53535080Y7514041D01*
X53805974Y7695046D01*
X60407434Y14296506D01*
X60446519Y14355001D01*
X60588439Y14567399D01*
X60652000Y14886940D01*
X60652000Y16171079D01*
X60867054Y16314773D01*
X61188961Y16796542D01*
X61302000Y17364827D01*
X61302000Y17423013D01*
X61188961Y17991298D01*
X60867054Y18473067D01*
X60385285Y18794974D01*
X59817000Y18908013D01*
X59248715Y18794974D01*
X58766946Y18473067D01*
X58547000Y18143894D01*
X58327054Y18473067D01*
X57845285Y18794974D01*
X57277000Y18908013D01*
X56708715Y18794974D01*
X56226946Y18473067D01*
X56007000Y18143894D01*
X55787054Y18473067D01*
X55305285Y18794974D01*
X54737000Y18908013D01*
X54168715Y18794974D01*
X53686946Y18473067D01*
X53467000Y18143894D01*
X53247054Y18473067D01*
X52765285Y18794974D01*
X52197000Y18908013D01*
X51628715Y18794974D01*
X51146946Y18473067D01*
X50927000Y18143894D01*
X50707054Y18473067D01*
X50225285Y18794974D01*
X49657000Y18908013D01*
X49088715Y18794974D01*
X48606946Y18473067D01*
X48387000Y18143894D01*
X48167054Y18473067D01*
X47685285Y18794974D01*
X47117000Y18908013D01*
X46548715Y18794974D01*
X46066946Y18473067D01*
X45847000Y18143894D01*
X45627054Y18473067D01*
X45145285Y18794974D01*
X44577000Y18908013D01*
X44008715Y18794974D01*
X43526946Y18473067D01*
X43307000Y18143894D01*
X43087054Y18473067D01*
X42605285Y18794974D01*
X42037000Y18908013D01*
X41468715Y18794974D01*
X40986946Y18473067D01*
X40959150Y18431468D01*
X40950162Y18479237D01*
X40811090Y18695361D01*
X40598890Y18840351D01*
X40347000Y18891360D01*
X38647000Y18891360D01*
X38411683Y18847082D01*
X38195559Y18708010D01*
X38050569Y18495810D01*
X37999560Y18243920D01*
X37999560Y16543920D01*
X38043838Y16308603D01*
X38182910Y16092479D01*
X38395110Y15947489D01*
X38647000Y15896480D01*
X38662000Y15896480D01*
X38662000Y15309008D01*
X37930592Y14577600D01*
X29474002Y14577600D01*
X26650220Y17401382D01*
X26650220Y19426078D01*
X26671332Y19447190D01*
X29607150Y19447190D01*
X29670293Y19459750D01*
X30707150Y19459750D01*
X30942467Y19504028D01*
X31158591Y19643100D01*
X31251500Y19779077D01*
X31251500Y17806131D01*
X31348173Y17572742D01*
X31526801Y17394113D01*
X31760190Y17297440D01*
X31904750Y17297440D01*
X32063500Y17456190D01*
X32063500Y27409440D01*
X32109500Y27409440D01*
X32109500Y17456190D01*
X32268250Y17297440D01*
X32412810Y17297440D01*
X32646199Y17394113D01*
X32824827Y17572742D01*
X32921500Y17806131D01*
X32921500Y27250690D01*
X32762750Y27409440D01*
X32109500Y27409440D01*
X32063500Y27409440D01*
X32043500Y27409440D01*
X32043500Y27455440D01*
X32063500Y27455440D01*
X32063500Y37408690D01*
X32109500Y37408690D01*
X32109500Y27455440D01*
X32762750Y27455440D01*
X32921500Y27614190D01*
X32921500Y37058749D01*
X32824827Y37292138D01*
X32646199Y37470767D01*
X32412810Y37567440D01*
X32268250Y37567440D01*
X32109500Y37408690D01*
X32063500Y37408690D01*
X31904750Y37567440D01*
X31760190Y37567440D01*
X31526801Y37470767D01*
X31348173Y37292138D01*
X31251500Y37058749D01*
X31251500Y35133903D01*
X31171240Y35258631D01*
X30959040Y35403621D01*
X30707150Y35454630D01*
X28507150Y35454630D01*
X28271833Y35410352D01*
X28055709Y35271280D01*
X27910719Y35059080D01*
X27859710Y34807190D01*
X27859710Y34607190D01*
X27888971Y34451683D01*
X27859710Y34307190D01*
X27859710Y34107190D01*
X27886053Y33967190D01*
X27447852Y33967190D01*
X25810820Y35604222D01*
X25810820Y41847939D01*
X26025874Y41991633D01*
X26347781Y42473402D01*
X26460820Y43041687D01*
X26460820Y43099873D01*
X26347781Y43668158D01*
X26025874Y44149927D01*
X25544105Y44471834D01*
X25393506Y44501790D01*
X27873405Y44501790D01*
X27874719Y44498619D01*
X27847010Y44361790D01*
X27847010Y44161790D01*
X27876271Y44006283D01*
X27847010Y43861790D01*
X27847010Y43661790D01*
X27876271Y43506283D01*
X27847010Y43361790D01*
X27847010Y43161790D01*
X27876271Y43006283D01*
X27847010Y42861790D01*
X27847010Y42661790D01*
X27873369Y42521703D01*
X27859450Y42488099D01*
X27859450Y42443540D01*
X27917948Y42385042D01*
X27998209Y42260313D01*
X27908652Y42129242D01*
X27859450Y42080040D01*
X27859450Y42035481D01*
X27874719Y41998619D01*
X27847010Y41861790D01*
X27847010Y41661790D01*
X27876271Y41506283D01*
X27847010Y41361790D01*
X27847010Y41161790D01*
X27876271Y41006283D01*
X27847010Y40861790D01*
X27847010Y40661790D01*
X27876271Y40506283D01*
X27847010Y40361790D01*
X27847010Y40161790D01*
X27891288Y39926473D01*
X28030360Y39710349D01*
X28242560Y39565359D01*
X28494450Y39514350D01*
X30694450Y39514350D01*
X30929767Y39558628D01*
X31145891Y39697700D01*
X31264200Y39870851D01*
X31264200Y38113431D01*
X31360873Y37880042D01*
X31539501Y37701413D01*
X31772890Y37604740D01*
X31917450Y37604740D01*
X32076200Y37763490D01*
X32076200Y47716740D01*
X32122200Y47716740D01*
X32122200Y37763490D01*
X32280950Y37604740D01*
X32425510Y37604740D01*
X32658899Y37701413D01*
X32837527Y37880042D01*
X32934200Y38113431D01*
X32934200Y47557990D01*
X32775450Y47716740D01*
X32122200Y47716740D01*
X32076200Y47716740D01*
X32056200Y47716740D01*
X32056200Y47762740D01*
X32076200Y47762740D01*
X32076200Y47782740D01*
X32122200Y47782740D01*
X32122200Y47762740D01*
X32775450Y47762740D01*
X32934200Y47921490D01*
X32934200Y54861790D01*
X33047010Y54861790D01*
X33047010Y54661790D01*
X33076271Y54506283D01*
X33047010Y54361790D01*
X33047010Y54161790D01*
X33073369Y54021703D01*
X33059450Y53988099D01*
X33059450Y53943540D01*
X33117948Y53885042D01*
X33198209Y53760313D01*
X33108652Y53629242D01*
X33059450Y53580040D01*
X33059450Y53535481D01*
X33074719Y53498619D01*
X33047010Y53361790D01*
X33047010Y53161790D01*
X33076271Y53006283D01*
X33047010Y52861790D01*
X33047010Y52661790D01*
X33076271Y52506283D01*
X33047010Y52361790D01*
X33047010Y52161790D01*
X33076271Y52006283D01*
X33047010Y51861790D01*
X33047010Y51661790D01*
X33076271Y51506283D01*
X33047010Y51361790D01*
X33047010Y51161790D01*
X33076271Y51006283D01*
X33047010Y50861790D01*
X33047010Y50661790D01*
X33076271Y50506283D01*
X33047010Y50361790D01*
X33047010Y50161790D01*
X33073369Y50021703D01*
X33059450Y49988099D01*
X33059450Y49943540D01*
X33117948Y49885042D01*
X33198209Y49760313D01*
X33108652Y49629242D01*
X33059450Y49580040D01*
X33059450Y49535481D01*
X33074719Y49498619D01*
X33047010Y49361790D01*
X33047010Y49161790D01*
X33076271Y49006283D01*
X33047010Y48861790D01*
X33047010Y48661790D01*
X33076271Y48506283D01*
X33047010Y48361790D01*
X33047010Y48161790D01*
X33076271Y48006283D01*
X33047010Y47861790D01*
X33047010Y47661790D01*
X33076271Y47506283D01*
X33047010Y47361790D01*
X33047010Y47161790D01*
X33076271Y47006283D01*
X33047010Y46861790D01*
X33047010Y46661790D01*
X33076271Y46506283D01*
X33047010Y46361790D01*
X33047010Y46161790D01*
X33076271Y46006283D01*
X33047010Y45861790D01*
X33047010Y45661790D01*
X33076271Y45506283D01*
X33047010Y45361790D01*
X33047010Y45161790D01*
X33073369Y45021703D01*
X33059450Y44988099D01*
X33059450Y44943540D01*
X33117948Y44885042D01*
X33198209Y44760313D01*
X33108652Y44629242D01*
X33059450Y44580040D01*
X33059450Y44535481D01*
X33074719Y44498619D01*
X33047010Y44361790D01*
X33047010Y44161790D01*
X33076271Y44006283D01*
X33047010Y43861790D01*
X33047010Y43661790D01*
X33076271Y43506283D01*
X33047010Y43361790D01*
X33047010Y43161790D01*
X33076271Y43006283D01*
X33047010Y42861790D01*
X33047010Y42661790D01*
X33073369Y42521703D01*
X33059450Y42488099D01*
X33059450Y42443540D01*
X33117948Y42385042D01*
X33198209Y42260313D01*
X33108652Y42129242D01*
X33059450Y42080040D01*
X33059450Y42035481D01*
X33074719Y41998619D01*
X33047010Y41861790D01*
X33047010Y41661790D01*
X33076271Y41506283D01*
X33047010Y41361790D01*
X33047010Y41161790D01*
X33076271Y41006283D01*
X33047010Y40861790D01*
X33047010Y40661790D01*
X33076271Y40506283D01*
X33047010Y40361790D01*
X33047010Y40161790D01*
X33091288Y39926473D01*
X33230360Y39710349D01*
X33442560Y39565359D01*
X33694450Y39514350D01*
X35894450Y39514350D01*
X36129767Y39558628D01*
X36345891Y39697700D01*
X36490881Y39909900D01*
X36541890Y40161790D01*
X36541890Y40361790D01*
X36512629Y40517297D01*
X36541890Y40661790D01*
X36541890Y40861790D01*
X36512629Y41017297D01*
X36541890Y41161790D01*
X36541890Y41361790D01*
X36512629Y41517297D01*
X36541890Y41661790D01*
X36541890Y41861790D01*
X36515531Y42001877D01*
X36529450Y42035481D01*
X36529450Y42080040D01*
X36470952Y42138538D01*
X36390691Y42263267D01*
X36480248Y42394338D01*
X36529450Y42443540D01*
X36529450Y42488099D01*
X36514181Y42524961D01*
X36541890Y42661790D01*
X36541890Y42861790D01*
X36515547Y43001790D01*
X38464398Y43001790D01*
X38373583Y42984702D01*
X38157459Y42845630D01*
X38012469Y42633430D01*
X37961460Y42381540D01*
X37961460Y40681540D01*
X38005738Y40446223D01*
X38144810Y40230099D01*
X38357010Y40085109D01*
X38608900Y40034100D01*
X38623900Y40034100D01*
X38623900Y35436582D01*
X37154508Y33967190D01*
X36526239Y33967190D01*
X36554590Y34107190D01*
X36554590Y34307190D01*
X36525329Y34462697D01*
X36554590Y34607190D01*
X36554590Y34807190D01*
X36510312Y35042507D01*
X36371240Y35258631D01*
X36159040Y35403621D01*
X35907150Y35454630D01*
X33707150Y35454630D01*
X33471833Y35410352D01*
X33255709Y35271280D01*
X33110719Y35059080D01*
X33059710Y34807190D01*
X33059710Y34607190D01*
X33088971Y34451683D01*
X33059710Y34307190D01*
X33059710Y34107190D01*
X33088971Y33951683D01*
X33059710Y33807190D01*
X33059710Y33607190D01*
X33088971Y33451683D01*
X33059710Y33307190D01*
X33059710Y33107190D01*
X33088971Y32951683D01*
X33059710Y32807190D01*
X33059710Y32607190D01*
X33088971Y32451683D01*
X33059710Y32307190D01*
X33059710Y32107190D01*
X33088971Y31951683D01*
X33059710Y31807190D01*
X33059710Y31607190D01*
X33088971Y31451683D01*
X33059710Y31307190D01*
X33059710Y31107190D01*
X33088971Y30951683D01*
X33059710Y30807190D01*
X33059710Y30607190D01*
X33088971Y30451683D01*
X33059710Y30307190D01*
X33059710Y30107190D01*
X33088971Y29951683D01*
X33059710Y29807190D01*
X33059710Y29607190D01*
X33088971Y29451683D01*
X33059710Y29307190D01*
X33059710Y29107190D01*
X33088971Y28951683D01*
X33059710Y28807190D01*
X33059710Y28607190D01*
X33088971Y28451683D01*
X33059710Y28307190D01*
X33059710Y28107190D01*
X33088971Y27951683D01*
X33059710Y27807190D01*
X33059710Y27607190D01*
X33088971Y27451683D01*
X33059710Y27307190D01*
X33059710Y27107190D01*
X33088971Y26951683D01*
X33059710Y26807190D01*
X33059710Y26607190D01*
X33088971Y26451683D01*
X33059710Y26307190D01*
X33059710Y26107190D01*
X33088971Y25951683D01*
X33059710Y25807190D01*
X33059710Y25607190D01*
X33088971Y25451683D01*
X33059710Y25307190D01*
X33059710Y25107190D01*
X33088971Y24951683D01*
X33059710Y24807190D01*
X33059710Y24607190D01*
X33088971Y24451683D01*
X33059710Y24307190D01*
X33059710Y24107190D01*
X33088971Y23951683D01*
X33059710Y23807190D01*
X33059710Y23607190D01*
X33088971Y23451683D01*
X33059710Y23307190D01*
X33059710Y23107190D01*
X33088971Y22951683D01*
X33059710Y22807190D01*
X33059710Y22607190D01*
X33088971Y22451683D01*
X33059710Y22307190D01*
X33059710Y22107190D01*
X33088971Y21951683D01*
X33059710Y21807190D01*
X33059710Y21607190D01*
X33088971Y21451683D01*
X33059710Y21307190D01*
X33059710Y21107190D01*
X33088971Y20951683D01*
X33059710Y20807190D01*
X33059710Y20607190D01*
X33088971Y20451683D01*
X33059710Y20307190D01*
X33059710Y20107190D01*
X33103988Y19871873D01*
X33243060Y19655749D01*
X33455260Y19510759D01*
X33707150Y19459750D01*
X34744007Y19459750D01*
X34807150Y19447190D01*
X65055140Y19447190D01*
X65055140Y18604061D01*
X64840086Y18460367D01*
X64518179Y17978598D01*
X64405140Y17410313D01*
X64405140Y17352127D01*
X64518179Y16783842D01*
X64840086Y16302073D01*
X65321855Y15980166D01*
X65890140Y15867127D01*
X66458425Y15980166D01*
X66940194Y16302073D01*
X67160140Y16631246D01*
X67380086Y16302073D01*
X67861855Y15980166D01*
X68430140Y15867127D01*
X68998425Y15980166D01*
X69480194Y16302073D01*
X69700140Y16631246D01*
X69920086Y16302073D01*
X70401855Y15980166D01*
X70970140Y15867127D01*
X71538425Y15980166D01*
X72020194Y16302073D01*
X72240140Y16631246D01*
X72460086Y16302073D01*
X72941855Y15980166D01*
X73510140Y15867127D01*
X74078425Y15980166D01*
X74560194Y16302073D01*
X74780140Y16631246D01*
X75000086Y16302073D01*
X75481855Y15980166D01*
X76050140Y15867127D01*
X76618425Y15980166D01*
X77100194Y16302073D01*
X77320140Y16631246D01*
X77540086Y16302073D01*
X78021855Y15980166D01*
X78590140Y15867127D01*
X79158425Y15980166D01*
X79640194Y16302073D01*
X79860140Y16631246D01*
X80080086Y16302073D01*
X80561855Y15980166D01*
X81130140Y15867127D01*
X81698425Y15980166D01*
X82180194Y16302073D01*
X82400140Y16631246D01*
X82620086Y16302073D01*
X83101855Y15980166D01*
X83670140Y15867127D01*
X84238425Y15980166D01*
X84720194Y16302073D01*
X84747990Y16343672D01*
X84756978Y16295903D01*
X84896050Y16079779D01*
X85108250Y15934789D01*
X85360140Y15883780D01*
X87060140Y15883780D01*
X87295457Y15928058D01*
X87511581Y16067130D01*
X87656571Y16279330D01*
X87707580Y16531220D01*
X87707580Y18231220D01*
X87663302Y18466537D01*
X87524230Y18682661D01*
X87312030Y18827651D01*
X87060140Y18878660D01*
X87045140Y18878660D01*
X87045140Y22491700D01*
X86981579Y22811241D01*
X86800574Y23082134D01*
X85121167Y24761541D01*
X95876599Y24761541D01*
X96140181Y24123625D01*
X96627818Y23635136D01*
X97265273Y23370441D01*
X97955499Y23369839D01*
X98593415Y23633421D01*
X99081904Y24121058D01*
X99346599Y24758513D01*
X99347201Y25448739D01*
X99083619Y26086655D01*
X98595982Y26575144D01*
X97958527Y26839839D01*
X97268301Y26840441D01*
X96630385Y26576859D01*
X96141896Y26089222D01*
X95877201Y25451767D01*
X95876599Y24761541D01*
X85121167Y24761541D01*
X85085084Y24797624D01*
X84814190Y24978629D01*
X84494650Y25042190D01*
X84175110Y24978629D01*
X84157990Y24967190D01*
X76511792Y24967190D01*
X81713966Y30169364D01*
X81734161Y30173381D01*
X82005054Y30354386D01*
X82186059Y30625279D01*
X82249620Y30944820D01*
X82249620Y34662521D01*
X82876513Y34662521D01*
X83216055Y33840768D01*
X83844221Y33211504D01*
X84665381Y32870529D01*
X85554519Y32869753D01*
X86376272Y33209295D01*
X87005536Y33837461D01*
X87346511Y34658621D01*
X87347287Y35547759D01*
X87007745Y36369512D01*
X86379579Y36998776D01*
X85558419Y37339751D01*
X84669281Y37340527D01*
X83847528Y37000985D01*
X83218264Y36372819D01*
X82877289Y35551659D01*
X82876513Y34662521D01*
X82249620Y34662521D01*
X82249620Y37558552D01*
X82964448Y38273380D01*
X85377020Y38273380D01*
X85696561Y38336941D01*
X85967454Y38517946D01*
X86772634Y39323126D01*
X86820592Y39394900D01*
X86953639Y39594019D01*
X87017200Y39913560D01*
X87017200Y40194399D01*
X87232254Y40338093D01*
X87554161Y40819862D01*
X87667200Y41388147D01*
X87667200Y41446333D01*
X87554161Y42014618D01*
X87232254Y42496387D01*
X86750485Y42818294D01*
X86182200Y42931333D01*
X85613915Y42818294D01*
X85132146Y42496387D01*
X84912200Y42167214D01*
X84692254Y42496387D01*
X84210485Y42818294D01*
X83642200Y42931333D01*
X83073915Y42818294D01*
X82592146Y42496387D01*
X82372200Y42167214D01*
X82152254Y42496387D01*
X81670485Y42818294D01*
X81102200Y42931333D01*
X80533915Y42818294D01*
X80052146Y42496387D01*
X79832200Y42167214D01*
X79612254Y42496387D01*
X79130485Y42818294D01*
X78562200Y42931333D01*
X77993915Y42818294D01*
X77512146Y42496387D01*
X77292200Y42167214D01*
X77072254Y42496387D01*
X76590485Y42818294D01*
X76022200Y42931333D01*
X75453915Y42818294D01*
X74972146Y42496387D01*
X74752200Y42167214D01*
X74532254Y42496387D01*
X74050485Y42818294D01*
X73482200Y42931333D01*
X72913915Y42818294D01*
X72432146Y42496387D01*
X72212200Y42167214D01*
X71992254Y42496387D01*
X71510485Y42818294D01*
X70942200Y42931333D01*
X70373915Y42818294D01*
X69892146Y42496387D01*
X69672200Y42167214D01*
X69452254Y42496387D01*
X68970485Y42818294D01*
X68402200Y42931333D01*
X67833915Y42818294D01*
X67352146Y42496387D01*
X67324350Y42454788D01*
X67315362Y42502557D01*
X67176290Y42718681D01*
X66964090Y42863671D01*
X66712200Y42914680D01*
X65012200Y42914680D01*
X64776883Y42870402D01*
X64560759Y42731330D01*
X64415769Y42519130D01*
X64364760Y42267240D01*
X64364760Y40567240D01*
X64409038Y40331923D01*
X64548110Y40115799D01*
X64760310Y39970809D01*
X65012200Y39919800D01*
X65027200Y39919800D01*
X65027200Y33808442D01*
X60685948Y29467190D01*
X56302672Y29467190D01*
X60078246Y33242764D01*
X60098441Y33246781D01*
X60369334Y33427786D01*
X60550339Y33698679D01*
X60613900Y34018220D01*
X60613900Y40308699D01*
X60828954Y40452393D01*
X61150861Y40934162D01*
X61263900Y41502447D01*
X61263900Y41560633D01*
X61150861Y42128918D01*
X60828954Y42610687D01*
X60347185Y42932594D01*
X59999313Y43001790D01*
X87889108Y43001790D01*
X89401040Y41489858D01*
X89401040Y39690040D01*
X89464601Y39370499D01*
X89472939Y39358021D01*
X89645606Y39099606D01*
X90567626Y38177586D01*
X90838519Y37996581D01*
X91158060Y37933020D01*
X95488760Y37933020D01*
X95808301Y37996581D01*
X96079194Y38177586D01*
X97453334Y39551726D01*
X97481594Y39594020D01*
X97634339Y39822619D01*
X97697900Y40142160D01*
X97697900Y44004399D01*
X97912954Y44148093D01*
X98234861Y44629862D01*
X98347900Y45198147D01*
X98347900Y45256333D01*
X98234861Y45824618D01*
X97912954Y46306387D01*
X97431185Y46628294D01*
X96862900Y46741333D01*
X96294615Y46628294D01*
X95812846Y46306387D01*
X95785050Y46264788D01*
X95776062Y46312557D01*
X95636990Y46528681D01*
X95424790Y46673671D01*
X95172900Y46724680D01*
X93472900Y46724680D01*
X93237583Y46680402D01*
X93021459Y46541330D01*
X92876469Y46329130D01*
X92825460Y46077240D01*
X92825460Y44377240D01*
X92869738Y44141923D01*
X93008810Y43925799D01*
X93221010Y43780809D01*
X93472900Y43729800D01*
X93487900Y43729800D01*
X93487900Y41217008D01*
X92684172Y40413280D01*
X91923028Y40413280D01*
X91860980Y40475328D01*
X91860980Y42161460D01*
X91797419Y42481001D01*
X91616414Y42751894D01*
X89516084Y44852224D01*
X89245190Y45033229D01*
X88925650Y45096790D01*
X88606110Y45033229D01*
X88588990Y45021790D01*
X86392462Y45021790D01*
X86616304Y45171356D01*
X97847034Y56402086D01*
X98028040Y56672980D01*
X98091600Y56992520D01*
X98091600Y58512600D01*
X98106600Y58512600D01*
X98341917Y58556878D01*
X98558041Y58695950D01*
X98703031Y58908150D01*
X98754040Y59160040D01*
X98754040Y60860040D01*
X98709762Y61095357D01*
X98570690Y61311481D01*
X98358490Y61456471D01*
X98106600Y61507480D01*
X96406600Y61507480D01*
X96171283Y61463202D01*
X95955159Y61324130D01*
X95810169Y61111930D01*
X95787084Y60997931D01*
X95570750Y61224807D01*
X95040860Y61459207D01*
X94971594Y61472983D01*
X94739600Y61336091D01*
X94739600Y60033040D01*
X94759600Y60033040D01*
X94759600Y59987040D01*
X94739600Y59987040D01*
X94739600Y58683989D01*
X94971594Y58547097D01*
X95040860Y58560873D01*
X95570750Y58795273D01*
X95785432Y59020417D01*
X95803438Y58924723D01*
X95942510Y58708599D01*
X96154710Y58563609D01*
X96406600Y58512600D01*
X96421600Y58512600D01*
X96421600Y57338388D01*
X85605002Y46521790D01*
X70918872Y46521790D01*
X84152128Y59755046D01*
X93253655Y59755046D01*
X93462597Y59214611D01*
X93862450Y58795273D01*
X94392340Y58560873D01*
X94461606Y58547097D01*
X94693600Y58683989D01*
X94693600Y59987040D01*
X93390526Y59987040D01*
X93253655Y59755046D01*
X84152128Y59755046D01*
X84662116Y60265034D01*
X93253655Y60265034D01*
X93390526Y60033040D01*
X94693600Y60033040D01*
X94693600Y61336091D01*
X94461606Y61472983D01*
X94392340Y61459207D01*
X93862450Y61224807D01*
X93462597Y60805469D01*
X93253655Y60265034D01*
X84662116Y60265034D01*
X90469346Y66072264D01*
X90489541Y66076281D01*
X90760434Y66257286D01*
X90941439Y66528179D01*
X91005000Y66847720D01*
X91005000Y70496599D01*
X91220054Y70640293D01*
X91541961Y71122062D01*
X91655000Y71690347D01*
X91655000Y71748533D01*
X91541961Y72316818D01*
X91220054Y72798587D01*
X90738285Y73120494D01*
X90170000Y73233533D01*
X89601715Y73120494D01*
X89119946Y72798587D01*
X88900000Y72469414D01*
X88680054Y72798587D01*
X88198285Y73120494D01*
X87630000Y73233533D01*
X87061715Y73120494D01*
X86579946Y72798587D01*
X86360000Y72469414D01*
X86140054Y72798587D01*
X85658285Y73120494D01*
X85090000Y73233533D01*
X84521715Y73120494D01*
X84039946Y72798587D01*
X83820000Y72469414D01*
X83600054Y72798587D01*
X83118285Y73120494D01*
X82550000Y73233533D01*
X81981715Y73120494D01*
X81499946Y72798587D01*
X81280000Y72469414D01*
X81060054Y72798587D01*
X80578285Y73120494D01*
X80010000Y73233533D01*
X79441715Y73120494D01*
X78959946Y72798587D01*
X78740000Y72469414D01*
X78520054Y72798587D01*
X78038285Y73120494D01*
X77470000Y73233533D01*
X76901715Y73120494D01*
X76419946Y72798587D01*
X76392150Y72756988D01*
X76383162Y72804757D01*
X76244090Y73020881D01*
X76031890Y73165871D01*
X75780000Y73216880D01*
X74080000Y73216880D01*
X73844683Y73172602D01*
X73628559Y73033530D01*
X73483569Y72821330D01*
X73432560Y72569440D01*
X73432560Y70869440D01*
X73476838Y70634123D01*
X73615910Y70417999D01*
X73828110Y70273009D01*
X74080000Y70222000D01*
X74095000Y70222000D01*
X74095000Y66086762D01*
X58030028Y50021790D01*
X53250512Y50021790D01*
X66821946Y63593224D01*
X66842141Y63597241D01*
X67113034Y63778246D01*
X67294039Y64049139D01*
X67357600Y64368680D01*
X67357600Y70585499D01*
X67572654Y70729193D01*
X67894561Y71210962D01*
X68007600Y71779247D01*
X68007600Y71837433D01*
X67894561Y72405718D01*
X67572654Y72887487D01*
X67090885Y73209394D01*
X66522600Y73322433D01*
X65954315Y73209394D01*
X65472546Y72887487D01*
X65252600Y72558314D01*
X65032654Y72887487D01*
X64550885Y73209394D01*
X63982600Y73322433D01*
X63414315Y73209394D01*
X62932546Y72887487D01*
X62712600Y72558314D01*
X62492654Y72887487D01*
X62010885Y73209394D01*
X61442600Y73322433D01*
X60874315Y73209394D01*
X60392546Y72887487D01*
X60172600Y72558314D01*
X59952654Y72887487D01*
X59470885Y73209394D01*
X58902600Y73322433D01*
X58334315Y73209394D01*
X57852546Y72887487D01*
X57632600Y72558314D01*
X57412654Y72887487D01*
X56930885Y73209394D01*
X56362600Y73322433D01*
X55794315Y73209394D01*
X55312546Y72887487D01*
X55092600Y72558314D01*
X54872654Y72887487D01*
X54390885Y73209394D01*
X53822600Y73322433D01*
X53254315Y73209394D01*
X52772546Y72887487D01*
X52744750Y72845888D01*
X52735762Y72893657D01*
X52596690Y73109781D01*
X52384490Y73254771D01*
X52132600Y73305780D01*
X50432600Y73305780D01*
X50197283Y73261502D01*
X49981159Y73122430D01*
X49836169Y72910230D01*
X49785160Y72658340D01*
X49785160Y70958340D01*
X49829438Y70723023D01*
X49968510Y70506899D01*
X50180710Y70361909D01*
X50432600Y70310900D01*
X50447600Y70310900D01*
X50447600Y67120542D01*
X38848848Y55521790D01*
X34794450Y55521790D01*
X34731307Y55509230D01*
X33694450Y55509230D01*
X33459133Y55464952D01*
X33243009Y55325880D01*
X33098019Y55113680D01*
X33047010Y54861790D01*
X32934200Y54861790D01*
X32934200Y56476360D01*
X37204540Y56476360D01*
X37221660Y56464921D01*
X37541200Y56401360D01*
X37860740Y56464921D01*
X38131634Y56645926D01*
X40176334Y58690626D01*
X40188343Y58708599D01*
X40357339Y58961519D01*
X40420900Y59281060D01*
X40420900Y62178099D01*
X40635954Y62321793D01*
X40957861Y62803562D01*
X41070900Y63371847D01*
X41070900Y63430033D01*
X40957861Y63998318D01*
X40635954Y64480087D01*
X40154185Y64801994D01*
X39585900Y64915033D01*
X39017615Y64801994D01*
X38535846Y64480087D01*
X38315900Y64150914D01*
X38095954Y64480087D01*
X37614185Y64801994D01*
X37045900Y64915033D01*
X36477615Y64801994D01*
X35995846Y64480087D01*
X35775900Y64150914D01*
X35555954Y64480087D01*
X35074185Y64801994D01*
X34505900Y64915033D01*
X33937615Y64801994D01*
X33455846Y64480087D01*
X33235900Y64150914D01*
X33015954Y64480087D01*
X32534185Y64801994D01*
X31965900Y64915033D01*
X31397615Y64801994D01*
X30915846Y64480087D01*
X30695900Y64150914D01*
X30475954Y64480087D01*
X29994185Y64801994D01*
X29425900Y64915033D01*
X28857615Y64801994D01*
X28375846Y64480087D01*
X28346497Y64436163D01*
X28274227Y64610638D01*
X28095599Y64789267D01*
X27862210Y64885940D01*
X27067650Y64885940D01*
X26908900Y64727190D01*
X26908900Y63423940D01*
X26928900Y63423940D01*
X26928900Y63377940D01*
X26908900Y63377940D01*
X26908900Y62074690D01*
X27067650Y61915940D01*
X27862210Y61915940D01*
X28035963Y61987911D01*
X24434140Y58386088D01*
X24434140Y63219190D01*
X25400900Y63219190D01*
X25400900Y62424631D01*
X25497573Y62191242D01*
X25676201Y62012613D01*
X25909590Y61915940D01*
X26704150Y61915940D01*
X26862900Y62074690D01*
X26862900Y63377940D01*
X25559650Y63377940D01*
X25400900Y63219190D01*
X24434140Y63219190D01*
X24434140Y64377249D01*
X25400900Y64377249D01*
X25400900Y63582690D01*
X25559650Y63423940D01*
X26862900Y63423940D01*
X26862900Y64727190D01*
X26704150Y64885940D01*
X25909590Y64885940D01*
X25676201Y64789267D01*
X25497573Y64610638D01*
X25400900Y64377249D01*
X24434140Y64377249D01*
X24434140Y65887172D01*
X26069174Y67522206D01*
X26148375Y67640739D01*
X26250179Y67793099D01*
X26313740Y68112640D01*
X26313740Y70662521D01*
X33876513Y70662521D01*
X34216055Y69840768D01*
X34844221Y69211504D01*
X35665381Y68870529D01*
X36554519Y68869753D01*
X37376272Y69209295D01*
X38005536Y69837461D01*
X38346511Y70658621D01*
X38347287Y71547759D01*
X38007745Y72369512D01*
X37379579Y72998776D01*
X36558419Y73339751D01*
X35669281Y73340527D01*
X34847528Y73000985D01*
X34218264Y72372819D01*
X33877289Y71551659D01*
X33876513Y70662521D01*
X26313740Y70662521D01*
X26313740Y70961419D01*
X26528794Y71105113D01*
X26850701Y71586882D01*
X26963740Y72155167D01*
X26963740Y72213353D01*
X26850701Y72781638D01*
X26528794Y73263407D01*
X26047025Y73585314D01*
X25478740Y73698353D01*
X24910455Y73585314D01*
X24428686Y73263407D01*
X24208740Y72934234D01*
X23988794Y73263407D01*
X23507025Y73585314D01*
X22938740Y73698353D01*
X22370455Y73585314D01*
X21888686Y73263407D01*
X21668740Y72934234D01*
X21448794Y73263407D01*
X20967025Y73585314D01*
X20398740Y73698353D01*
X19830455Y73585314D01*
X19348686Y73263407D01*
X19128740Y72934234D01*
X18908794Y73263407D01*
X18427025Y73585314D01*
X17858740Y73698353D01*
X17290455Y73585314D01*
X16808686Y73263407D01*
X16588740Y72934234D01*
X16368794Y73263407D01*
X15887025Y73585314D01*
X15318740Y73698353D01*
X14750455Y73585314D01*
X14268686Y73263407D01*
X14048740Y72934234D01*
X13828794Y73263407D01*
X13347025Y73585314D01*
X12778740Y73698353D01*
X12210455Y73585314D01*
X11728686Y73263407D01*
X11508740Y72934234D01*
X11288794Y73263407D01*
X10807025Y73585314D01*
X10238740Y73698353D01*
X9670455Y73585314D01*
X9188686Y73263407D01*
X8968740Y72934234D01*
X8748794Y73263407D01*
X8267025Y73585314D01*
X7698740Y73698353D01*
X7130455Y73585314D01*
X6648686Y73263407D01*
X6620890Y73221808D01*
X6611902Y73269577D01*
X6472830Y73485701D01*
X6260630Y73630691D01*
X6008740Y73681700D01*
X4308740Y73681700D01*
X4073423Y73637422D01*
X3857299Y73498350D01*
X3712309Y73286150D01*
X3661300Y73034260D01*
X3661300Y71334260D01*
X3705578Y71098943D01*
X3844650Y70882819D01*
X4056850Y70737829D01*
X4308740Y70686820D01*
X4323740Y70686820D01*
X4323740Y56342280D01*
X4387301Y56022739D01*
X4568306Y55751846D01*
X4781403Y55609459D01*
X15684151Y44706711D01*
X15938823Y44536545D01*
X16239230Y44476790D01*
X16364912Y44501790D01*
X16938134Y44501790D01*
X16787535Y44471834D01*
X16305766Y44149927D01*
X16085820Y43820754D01*
X15865874Y44149927D01*
X15384105Y44471834D01*
X14815820Y44584873D01*
X14247535Y44471834D01*
X13765766Y44149927D01*
X13545820Y43820754D01*
X13325874Y44149927D01*
X12844105Y44471834D01*
X12275820Y44584873D01*
X11707535Y44471834D01*
X11225766Y44149927D01*
X11005820Y43820754D01*
X10785874Y44149927D01*
X10304105Y44471834D01*
X9735820Y44584873D01*
X9167535Y44471834D01*
X8685766Y44149927D01*
X8465820Y43820754D01*
X8245874Y44149927D01*
X7764105Y44471834D01*
X7195820Y44584873D01*
X6627535Y44471834D01*
X6145766Y44149927D01*
X6117970Y44108328D01*
X6108982Y44156097D01*
X5969910Y44372221D01*
X5757710Y44517211D01*
X5505820Y44568220D01*
X3805820Y44568220D01*
X3570503Y44523942D01*
X3354379Y44384870D01*
X3209389Y44172670D01*
X3158380Y43920780D01*
X821900Y43920780D01*
X821900Y74395140D01*
X99401900Y74395140D01*
X99401900Y815140D01*
M02*
