G04 #@! TF.FileFunction,Soldermask,Top*
%FSLAX46Y46*%
G04 Gerber Fmt 4.6, Leading zero omitted, Abs format (unit mm)*
G04 Created by KiCad (PCBNEW 4.0.7-e2-6376~60~ubuntu17.10.1) date Tue Mar 20 11:33:17 2018*
%MOMM*%
%LPD*%
G01*
G04 APERTURE LIST*
%ADD10C,0.020000*%
%ADD11C,2.600000*%
%ADD12R,2.100000X2.100000*%
%ADD13O,2.100000X2.100000*%
%ADD14C,3.600000*%
G04 APERTURE END LIST*
D10*
D11*
X97611900Y25105140D03*
X2611900Y25105140D03*
X97611900Y2605140D03*
X2611900Y2605140D03*
D12*
X39497000Y17393920D03*
D13*
X42037000Y17393920D03*
X44577000Y17393920D03*
X47117000Y17393920D03*
X49657000Y17393920D03*
X52197000Y17393920D03*
X54737000Y17393920D03*
X57277000Y17393920D03*
X59817000Y17393920D03*
D12*
X27724100Y3202940D03*
D13*
X25184100Y3202940D03*
X22644100Y3202940D03*
X20104100Y3202940D03*
X17564100Y3202940D03*
X15024100Y3202940D03*
X12484100Y3202940D03*
X9944100Y3202940D03*
X7404100Y3202940D03*
D12*
X4655820Y43070780D03*
D13*
X7195820Y43070780D03*
X9735820Y43070780D03*
X12275820Y43070780D03*
X14815820Y43070780D03*
X17355820Y43070780D03*
X19895820Y43070780D03*
X22435820Y43070780D03*
X24975820Y43070780D03*
D12*
X5158740Y72184260D03*
D13*
X7698740Y72184260D03*
X10238740Y72184260D03*
X12778740Y72184260D03*
X15318740Y72184260D03*
X17858740Y72184260D03*
X20398740Y72184260D03*
X22938740Y72184260D03*
X25478740Y72184260D03*
D12*
X26885900Y63400940D03*
D13*
X29425900Y63400940D03*
X31965900Y63400940D03*
X34505900Y63400940D03*
X37045900Y63400940D03*
X39585900Y63400940D03*
D12*
X74930000Y71719440D03*
D13*
X77470000Y71719440D03*
X80010000Y71719440D03*
X82550000Y71719440D03*
X85090000Y71719440D03*
X87630000Y71719440D03*
X90170000Y71719440D03*
D12*
X97256600Y60010040D03*
D13*
X94716600Y60010040D03*
D12*
X94322900Y45227240D03*
D13*
X96862900Y45227240D03*
D12*
X51282600Y71808340D03*
D13*
X53822600Y71808340D03*
X56362600Y71808340D03*
X58902600Y71808340D03*
X61442600Y71808340D03*
X63982600Y71808340D03*
X66522600Y71808340D03*
D12*
X39458900Y41531540D03*
D13*
X41998900Y41531540D03*
X44538900Y41531540D03*
X47078900Y41531540D03*
X49618900Y41531540D03*
X52158900Y41531540D03*
X54698900Y41531540D03*
X57238900Y41531540D03*
X59778900Y41531540D03*
D12*
X65862200Y41417240D03*
D13*
X68402200Y41417240D03*
X70942200Y41417240D03*
X73482200Y41417240D03*
X76022200Y41417240D03*
X78562200Y41417240D03*
X81102200Y41417240D03*
X83642200Y41417240D03*
X86182200Y41417240D03*
D12*
X86210140Y17381220D03*
D13*
X83670140Y17381220D03*
X81130140Y17381220D03*
X78590140Y17381220D03*
X76050140Y17381220D03*
X73510140Y17381220D03*
X70970140Y17381220D03*
X68430140Y17381220D03*
X65890140Y17381220D03*
D14*
X85111900Y35105140D03*
X4111900Y37605140D03*
X36111900Y4105140D03*
X36111900Y71105140D03*
M02*
