G04 #@! TF.FileFunction,Soldermask,Bot*
%FSLAX46Y46*%
G04 Gerber Fmt 4.6, Leading zero omitted, Abs format (unit mm)*
G04 Created by KiCad (PCBNEW 4.0.7-e2-6376~60~ubuntu17.10.1) date Tue Mar 20 11:33:17 2018*
%MOMM*%
%LPD*%
G01*
G04 APERTURE LIST*
%ADD10C,0.020000*%
%ADD11C,2.600000*%
%ADD12R,2.100000X2.100000*%
%ADD13O,2.100000X2.100000*%
%ADD14C,3.600000*%
%ADD15R,2.600000X0.600000*%
%ADD16R,0.800000X19.400000*%
G04 APERTURE END LIST*
D10*
D11*
X97611900Y25105140D03*
X2611900Y25105140D03*
X97611900Y2605140D03*
X2611900Y2605140D03*
D12*
X39497000Y17393920D03*
D13*
X42037000Y17393920D03*
X44577000Y17393920D03*
X47117000Y17393920D03*
X49657000Y17393920D03*
X52197000Y17393920D03*
X54737000Y17393920D03*
X57277000Y17393920D03*
X59817000Y17393920D03*
D12*
X27724100Y3202940D03*
D13*
X25184100Y3202940D03*
X22644100Y3202940D03*
X20104100Y3202940D03*
X17564100Y3202940D03*
X15024100Y3202940D03*
X12484100Y3202940D03*
X9944100Y3202940D03*
X7404100Y3202940D03*
D12*
X4655820Y43070780D03*
D13*
X7195820Y43070780D03*
X9735820Y43070780D03*
X12275820Y43070780D03*
X14815820Y43070780D03*
X17355820Y43070780D03*
X19895820Y43070780D03*
X22435820Y43070780D03*
X24975820Y43070780D03*
D12*
X5158740Y72184260D03*
D13*
X7698740Y72184260D03*
X10238740Y72184260D03*
X12778740Y72184260D03*
X15318740Y72184260D03*
X17858740Y72184260D03*
X20398740Y72184260D03*
X22938740Y72184260D03*
X25478740Y72184260D03*
D12*
X26885900Y63400940D03*
D13*
X29425900Y63400940D03*
X31965900Y63400940D03*
X34505900Y63400940D03*
X37045900Y63400940D03*
X39585900Y63400940D03*
D12*
X74930000Y71719440D03*
D13*
X77470000Y71719440D03*
X80010000Y71719440D03*
X82550000Y71719440D03*
X85090000Y71719440D03*
X87630000Y71719440D03*
X90170000Y71719440D03*
D12*
X97256600Y60010040D03*
D13*
X94716600Y60010040D03*
D12*
X94322900Y45227240D03*
D13*
X96862900Y45227240D03*
D12*
X51282600Y71808340D03*
D13*
X53822600Y71808340D03*
X56362600Y71808340D03*
X58902600Y71808340D03*
X61442600Y71808340D03*
X63982600Y71808340D03*
X66522600Y71808340D03*
D12*
X39458900Y41531540D03*
D13*
X41998900Y41531540D03*
X44538900Y41531540D03*
X47078900Y41531540D03*
X49618900Y41531540D03*
X52158900Y41531540D03*
X54698900Y41531540D03*
X57238900Y41531540D03*
X59778900Y41531540D03*
D12*
X65862200Y41417240D03*
D13*
X68402200Y41417240D03*
X70942200Y41417240D03*
X73482200Y41417240D03*
X76022200Y41417240D03*
X78562200Y41417240D03*
X81102200Y41417240D03*
X83642200Y41417240D03*
X86182200Y41417240D03*
D12*
X86210140Y17381220D03*
D13*
X83670140Y17381220D03*
X81130140Y17381220D03*
X78590140Y17381220D03*
X76050140Y17381220D03*
X73510140Y17381220D03*
X70970140Y17381220D03*
X68430140Y17381220D03*
X65890140Y17381220D03*
D14*
X85111900Y35105140D03*
X4111900Y37605140D03*
X36111900Y4105140D03*
X36111900Y71105140D03*
D15*
X29607150Y20207190D03*
X34807150Y20207190D03*
X29607150Y20707190D03*
X34807150Y20707190D03*
X29607150Y21207190D03*
X34807150Y21207190D03*
X29607150Y21707190D03*
X34807150Y21707190D03*
X29607150Y22207190D03*
X34807150Y22207190D03*
X29607150Y22707190D03*
X34807150Y22707190D03*
X29607150Y23207190D03*
X34807150Y23207190D03*
X29607150Y23707190D03*
X34807150Y23707190D03*
X29607150Y24207190D03*
X34807150Y24207190D03*
X29607150Y24707190D03*
X34807150Y24707190D03*
X29607150Y25207190D03*
X34807150Y25207190D03*
X29607150Y25707190D03*
X34807150Y25707190D03*
X29607150Y26207190D03*
X34807150Y26207190D03*
X29607150Y26707190D03*
X34807150Y26707190D03*
X29607150Y27207190D03*
X34807150Y27207190D03*
X29607150Y27707190D03*
X34807150Y27707190D03*
X29607150Y28207190D03*
X34807150Y28207190D03*
X29607150Y28707190D03*
X34807150Y28707190D03*
X29607150Y29207190D03*
X34807150Y29207190D03*
X29607150Y29707190D03*
X34807150Y29707190D03*
X29607150Y30207190D03*
X34807150Y30207190D03*
X29607150Y30707190D03*
X34807150Y30707190D03*
X29607150Y31207190D03*
X34807150Y31207190D03*
X29607150Y31707190D03*
X34807150Y31707190D03*
X29607150Y32207190D03*
X34807150Y32207190D03*
X29607150Y32707190D03*
X34807150Y32707190D03*
X29607150Y33207190D03*
X34807150Y33207190D03*
X29607150Y33707190D03*
X34807150Y33707190D03*
X29607150Y34207190D03*
X34807150Y34207190D03*
X29607150Y34707190D03*
X34807150Y34707190D03*
X29594450Y40261790D03*
X34794450Y40261790D03*
X29594450Y40761790D03*
X34794450Y40761790D03*
X29594450Y41261790D03*
X34794450Y41261790D03*
X29594450Y41761790D03*
X34794450Y41761790D03*
X29594450Y42261790D03*
X34794450Y42261790D03*
X29594450Y42761790D03*
X34794450Y42761790D03*
X29594450Y43261790D03*
X34794450Y43261790D03*
X29594450Y43761790D03*
X34794450Y43761790D03*
X29594450Y44261790D03*
X34794450Y44261790D03*
X29594450Y44761790D03*
X34794450Y44761790D03*
X29594450Y45261790D03*
X34794450Y45261790D03*
X29594450Y45761790D03*
X34794450Y45761790D03*
X29594450Y46261790D03*
X34794450Y46261790D03*
X29594450Y46761790D03*
X34794450Y46761790D03*
X29594450Y47261790D03*
X34794450Y47261790D03*
X29594450Y47761790D03*
X34794450Y47761790D03*
X29594450Y48261790D03*
X34794450Y48261790D03*
X29594450Y48761790D03*
X34794450Y48761790D03*
X29594450Y49261790D03*
X34794450Y49261790D03*
X29594450Y49761790D03*
X34794450Y49761790D03*
X29594450Y50261790D03*
X34794450Y50261790D03*
X29594450Y50761790D03*
X34794450Y50761790D03*
X29594450Y51261790D03*
X34794450Y51261790D03*
X29594450Y51761790D03*
X34794450Y51761790D03*
X29594450Y52261790D03*
X34794450Y52261790D03*
X29594450Y52761790D03*
X34794450Y52761790D03*
X29594450Y53261790D03*
X34794450Y53261790D03*
X29594450Y53761790D03*
X34794450Y53761790D03*
X29594450Y54261790D03*
X34794450Y54261790D03*
X29594450Y54761790D03*
X34794450Y54761790D03*
D16*
X32086500Y27432440D03*
X32099200Y47739740D03*
M02*
