%FSLAX45Y45*%
G04 Gerber Fmt 4.5, Leading zero omitted, Abs format (unit mm)*
G04 Created by KiCad (PCBNEW 4.0.7-e2-6376~60~ubuntu17.10.1) date Tue Mar 20 11:33:24 2018*
%MOMM*%
%LPD*%
G01*
G04 APERTURE LIST*
%ADD10C,0.127000*%
%ADD11C,0.150000*%
%ADD12C,0.200000*%
%ADD13C,0.300000*%
G04 APERTURE END LIST*
D10*
D11*
X11190Y10514D02*
X11190Y7510514D01*
X10011190Y10514D02*
X11190Y10514D01*
X10011190Y7510514D02*
X10011190Y10514D01*
X11190Y7510514D02*
X10011190Y7510514D01*
D12*
X415582Y4357078D02*
X515582Y4257078D01*
X515582Y4357078D02*
X415582Y4257078D01*
X465874Y7268426D02*
X565874Y7168426D01*
X565874Y7268426D02*
X465874Y7168426D01*
X669582Y4357078D02*
X769582Y4257078D01*
X769582Y4357078D02*
X669582Y4257078D01*
X690410Y370294D02*
X790410Y270294D01*
X790410Y370294D02*
X690410Y270294D01*
X719874Y7268426D02*
X819874Y7168426D01*
X819874Y7268426D02*
X719874Y7168426D01*
X923582Y4357078D02*
X1023582Y4257078D01*
X1023582Y4357078D02*
X923582Y4257078D01*
X944410Y370294D02*
X1044410Y270294D01*
X1044410Y370294D02*
X944410Y270294D01*
X973874Y7268426D02*
X1073874Y7168426D01*
X1073874Y7268426D02*
X973874Y7168426D01*
X1177582Y4357078D02*
X1277582Y4257078D01*
X1277582Y4357078D02*
X1177582Y4257078D01*
X1198410Y370294D02*
X1298410Y270294D01*
X1298410Y370294D02*
X1198410Y270294D01*
X1227874Y7268426D02*
X1327874Y7168426D01*
X1327874Y7268426D02*
X1227874Y7168426D01*
X1431582Y4357078D02*
X1531582Y4257078D01*
X1531582Y4357078D02*
X1431582Y4257078D01*
X1452410Y370294D02*
X1552410Y270294D01*
X1552410Y370294D02*
X1452410Y270294D01*
X1481874Y7268426D02*
X1581874Y7168426D01*
X1581874Y7268426D02*
X1481874Y7168426D01*
X1685582Y4357078D02*
X1785582Y4257078D01*
X1785582Y4357078D02*
X1685582Y4257078D01*
X1706410Y370294D02*
X1806410Y270294D01*
X1806410Y370294D02*
X1706410Y270294D01*
X1735874Y7268426D02*
X1835874Y7168426D01*
X1835874Y7268426D02*
X1735874Y7168426D01*
X1939582Y4357078D02*
X2039582Y4257078D01*
X2039582Y4357078D02*
X1939582Y4257078D01*
X1960410Y370294D02*
X2060410Y270294D01*
X2060410Y370294D02*
X1960410Y270294D01*
X1989874Y7268426D02*
X2089874Y7168426D01*
X2089874Y7268426D02*
X1989874Y7168426D01*
X2193582Y4357078D02*
X2293582Y4257078D01*
X2293582Y4357078D02*
X2193582Y4257078D01*
X2214410Y370294D02*
X2314410Y270294D01*
X2314410Y370294D02*
X2214410Y270294D01*
X2243874Y7268426D02*
X2343874Y7168426D01*
X2343874Y7268426D02*
X2243874Y7168426D01*
X2447582Y4357078D02*
X2547582Y4257078D01*
X2547582Y4357078D02*
X2447582Y4257078D01*
X2468410Y370294D02*
X2568410Y270294D01*
X2568410Y370294D02*
X2468410Y270294D01*
X2497874Y7268426D02*
X2597874Y7168426D01*
X2597874Y7268426D02*
X2497874Y7168426D01*
X2638590Y6390094D02*
X2738590Y6290094D01*
X2738590Y6390094D02*
X2638590Y6290094D01*
X2722410Y370294D02*
X2822410Y270294D01*
X2822410Y370294D02*
X2722410Y270294D01*
X2892590Y6390094D02*
X2992590Y6290094D01*
X2992590Y6390094D02*
X2892590Y6290094D01*
X3146590Y6390094D02*
X3246590Y6290094D01*
X3246590Y6390094D02*
X3146590Y6290094D01*
X3400590Y6390094D02*
X3500590Y6290094D01*
X3500590Y6390094D02*
X3400590Y6290094D01*
X3654590Y6390094D02*
X3754590Y6290094D01*
X3754590Y6390094D02*
X3654590Y6290094D01*
X3895890Y4203154D02*
X3995890Y4103154D01*
X3995890Y4203154D02*
X3895890Y4103154D01*
X3899700Y1789392D02*
X3999700Y1689392D01*
X3999700Y1789392D02*
X3899700Y1689392D01*
X3908590Y6390094D02*
X4008590Y6290094D01*
X4008590Y6390094D02*
X3908590Y6290094D01*
X4149890Y4203154D02*
X4249890Y4103154D01*
X4249890Y4203154D02*
X4149890Y4103154D01*
X4153700Y1789392D02*
X4253700Y1689392D01*
X4253700Y1789392D02*
X4153700Y1689392D01*
X4403890Y4203154D02*
X4503890Y4103154D01*
X4503890Y4203154D02*
X4403890Y4103154D01*
X4407700Y1789392D02*
X4507700Y1689392D01*
X4507700Y1789392D02*
X4407700Y1689392D01*
X4657890Y4203154D02*
X4757890Y4103154D01*
X4757890Y4203154D02*
X4657890Y4103154D01*
X4661700Y1789392D02*
X4761700Y1689392D01*
X4761700Y1789392D02*
X4661700Y1689392D01*
X4911890Y4203154D02*
X5011890Y4103154D01*
X5011890Y4203154D02*
X4911890Y4103154D01*
X4915700Y1789392D02*
X5015700Y1689392D01*
X5015700Y1789392D02*
X4915700Y1689392D01*
X5078260Y7230834D02*
X5178260Y7130834D01*
X5178260Y7230834D02*
X5078260Y7130834D01*
X5165890Y4203154D02*
X5265890Y4103154D01*
X5265890Y4203154D02*
X5165890Y4103154D01*
X5169700Y1789392D02*
X5269700Y1689392D01*
X5269700Y1789392D02*
X5169700Y1689392D01*
X5332260Y7230834D02*
X5432260Y7130834D01*
X5432260Y7230834D02*
X5332260Y7130834D01*
X5419890Y4203154D02*
X5519890Y4103154D01*
X5519890Y4203154D02*
X5419890Y4103154D01*
X5423700Y1789392D02*
X5523700Y1689392D01*
X5523700Y1789392D02*
X5423700Y1689392D01*
X5586260Y7230834D02*
X5686260Y7130834D01*
X5686260Y7230834D02*
X5586260Y7130834D01*
X5673890Y4203154D02*
X5773890Y4103154D01*
X5773890Y4203154D02*
X5673890Y4103154D01*
X5677700Y1789392D02*
X5777700Y1689392D01*
X5777700Y1789392D02*
X5677700Y1689392D01*
X5840260Y7230834D02*
X5940260Y7130834D01*
X5940260Y7230834D02*
X5840260Y7130834D01*
X5927890Y4203154D02*
X6027890Y4103154D01*
X6027890Y4203154D02*
X5927890Y4103154D01*
X5931700Y1789392D02*
X6031700Y1689392D01*
X6031700Y1789392D02*
X5931700Y1689392D01*
X6094260Y7230834D02*
X6194260Y7130834D01*
X6194260Y7230834D02*
X6094260Y7130834D01*
X6348260Y7230834D02*
X6448260Y7130834D01*
X6448260Y7230834D02*
X6348260Y7130834D01*
X6536220Y4191724D02*
X6636220Y4091724D01*
X6636220Y4191724D02*
X6536220Y4091724D01*
X6539014Y1788122D02*
X6639014Y1688122D01*
X6639014Y1788122D02*
X6539014Y1688122D01*
X6602260Y7230834D02*
X6702260Y7130834D01*
X6702260Y7230834D02*
X6602260Y7130834D01*
X6790220Y4191724D02*
X6890220Y4091724D01*
X6890220Y4191724D02*
X6790220Y4091724D01*
X6793014Y1788122D02*
X6893014Y1688122D01*
X6893014Y1788122D02*
X6793014Y1688122D01*
X7044220Y4191724D02*
X7144220Y4091724D01*
X7144220Y4191724D02*
X7044220Y4091724D01*
X7047014Y1788122D02*
X7147014Y1688122D01*
X7147014Y1788122D02*
X7047014Y1688122D01*
X7298220Y4191724D02*
X7398220Y4091724D01*
X7398220Y4191724D02*
X7298220Y4091724D01*
X7301014Y1788122D02*
X7401014Y1688122D01*
X7401014Y1788122D02*
X7301014Y1688122D01*
X7443000Y7221944D02*
X7543000Y7121944D01*
X7543000Y7221944D02*
X7443000Y7121944D01*
X7552220Y4191724D02*
X7652220Y4091724D01*
X7652220Y4191724D02*
X7552220Y4091724D01*
X7555014Y1788122D02*
X7655014Y1688122D01*
X7655014Y1788122D02*
X7555014Y1688122D01*
X7697000Y7221944D02*
X7797000Y7121944D01*
X7797000Y7221944D02*
X7697000Y7121944D01*
X7806220Y4191724D02*
X7906220Y4091724D01*
X7906220Y4191724D02*
X7806220Y4091724D01*
X7809014Y1788122D02*
X7909014Y1688122D01*
X7909014Y1788122D02*
X7809014Y1688122D01*
X7951000Y7221944D02*
X8051000Y7121944D01*
X8051000Y7221944D02*
X7951000Y7121944D01*
X8060220Y4191724D02*
X8160220Y4091724D01*
X8160220Y4191724D02*
X8060220Y4091724D01*
X8063014Y1788122D02*
X8163014Y1688122D01*
X8163014Y1788122D02*
X8063014Y1688122D01*
X8205000Y7221944D02*
X8305000Y7121944D01*
X8305000Y7221944D02*
X8205000Y7121944D01*
X8314220Y4191724D02*
X8414220Y4091724D01*
X8414220Y4191724D02*
X8314220Y4091724D01*
X8317014Y1788122D02*
X8417014Y1688122D01*
X8417014Y1788122D02*
X8317014Y1688122D01*
X8459000Y7221944D02*
X8559000Y7121944D01*
X8559000Y7221944D02*
X8459000Y7121944D01*
X8568220Y4191724D02*
X8668220Y4091724D01*
X8668220Y4191724D02*
X8568220Y4091724D01*
X8571014Y1788122D02*
X8671014Y1688122D01*
X8671014Y1788122D02*
X8571014Y1688122D01*
X8713000Y7221944D02*
X8813000Y7121944D01*
X8813000Y7221944D02*
X8713000Y7121944D01*
X8967000Y7221944D02*
X9067000Y7121944D01*
X9067000Y7221944D02*
X8967000Y7121944D01*
X9382290Y4572724D02*
X9482290Y4472724D01*
X9482290Y4572724D02*
X9382290Y4472724D01*
X9421660Y6051004D02*
X9521660Y5951004D01*
X9521660Y6051004D02*
X9421660Y5951004D01*
X9636290Y4572724D02*
X9736290Y4472724D01*
X9736290Y4572724D02*
X9636290Y4472724D01*
X9675660Y6051004D02*
X9775660Y5951004D01*
X9775660Y6051004D02*
X9675660Y5951004D01*
D13*
X275119Y-462700D02*
X275119Y-162700D01*
X346547Y-162700D01*
X389404Y-176986D01*
X417976Y-205557D01*
X432261Y-234129D01*
X446547Y-291272D01*
X446547Y-334129D01*
X432261Y-391272D01*
X417976Y-419843D01*
X389404Y-448415D01*
X346547Y-462700D01*
X275119Y-462700D01*
X575119Y-462700D02*
X575119Y-262700D01*
X575119Y-319843D02*
X589404Y-291272D01*
X603690Y-276986D01*
X632261Y-262700D01*
X660833Y-262700D01*
X760833Y-462700D02*
X760833Y-262700D01*
X760833Y-162700D02*
X746547Y-176986D01*
X760833Y-191272D01*
X775118Y-176986D01*
X760833Y-162700D01*
X760833Y-191272D01*
X946547Y-462700D02*
X917976Y-448415D01*
X903690Y-419843D01*
X903690Y-162700D01*
X1103690Y-462700D02*
X1075119Y-448415D01*
X1060833Y-419843D01*
X1060833Y-162700D01*
X1446547Y-462700D02*
X1446547Y-162700D01*
X1546547Y-376986D01*
X1646547Y-162700D01*
X1646547Y-462700D01*
X1917976Y-462700D02*
X1917976Y-305558D01*
X1903690Y-276986D01*
X1875118Y-262700D01*
X1817976Y-262700D01*
X1789404Y-276986D01*
X1917976Y-448415D02*
X1889404Y-462700D01*
X1817976Y-462700D01*
X1789404Y-448415D01*
X1775118Y-419843D01*
X1775118Y-391272D01*
X1789404Y-362700D01*
X1817976Y-348415D01*
X1889404Y-348415D01*
X1917976Y-334129D01*
X2060833Y-262700D02*
X2060833Y-562700D01*
X2060833Y-276986D02*
X2089404Y-262700D01*
X2146547Y-262700D01*
X2175119Y-276986D01*
X2189404Y-291272D01*
X2203690Y-319843D01*
X2203690Y-405557D01*
X2189404Y-434129D01*
X2175119Y-448415D01*
X2146547Y-462700D01*
X2089404Y-462700D01*
X2060833Y-448415D01*
X2332261Y-434129D02*
X2346547Y-448415D01*
X2332261Y-462700D01*
X2317976Y-448415D01*
X2332261Y-434129D01*
X2332261Y-462700D01*
X2332261Y-276986D02*
X2346547Y-291272D01*
X2332261Y-305558D01*
X2317976Y-291272D01*
X2332261Y-276986D01*
X2332261Y-305558D01*
X-96310Y-906986D02*
X3690Y-1006986D01*
X3690Y-906986D02*
X-96310Y-1006986D01*
X432261Y-1092700D02*
X260833Y-1092700D01*
X346547Y-1092700D02*
X346547Y-792700D01*
X317976Y-835557D01*
X289404Y-864129D01*
X260833Y-878415D01*
X560833Y-1064129D02*
X575119Y-1078415D01*
X560833Y-1092700D01*
X546547Y-1078415D01*
X560833Y-1064129D01*
X560833Y-1092700D01*
X760833Y-792700D02*
X789404Y-792700D01*
X817976Y-806986D01*
X832261Y-821272D01*
X846547Y-849843D01*
X860833Y-906986D01*
X860833Y-978415D01*
X846547Y-1035557D01*
X832261Y-1064129D01*
X817976Y-1078415D01*
X789404Y-1092700D01*
X760833Y-1092700D01*
X732261Y-1078415D01*
X717976Y-1064129D01*
X703690Y-1035557D01*
X689404Y-978415D01*
X689404Y-906986D01*
X703690Y-849843D01*
X717976Y-821272D01*
X732261Y-806986D01*
X760833Y-792700D01*
X1046547Y-792700D02*
X1075119Y-792700D01*
X1103690Y-806986D01*
X1117976Y-821272D01*
X1132261Y-849843D01*
X1146547Y-906986D01*
X1146547Y-978415D01*
X1132261Y-1035557D01*
X1117976Y-1064129D01*
X1103690Y-1078415D01*
X1075119Y-1092700D01*
X1046547Y-1092700D01*
X1017976Y-1078415D01*
X1003690Y-1064129D01*
X989404Y-1035557D01*
X975118Y-978415D01*
X975118Y-906986D01*
X989404Y-849843D01*
X1003690Y-821272D01*
X1017976Y-806986D01*
X1046547Y-792700D01*
X1275119Y-1092700D02*
X1275119Y-892700D01*
X1275119Y-921272D02*
X1289404Y-906986D01*
X1317976Y-892700D01*
X1360833Y-892700D01*
X1389404Y-906986D01*
X1403690Y-935557D01*
X1403690Y-1092700D01*
X1403690Y-935557D02*
X1417976Y-906986D01*
X1446547Y-892700D01*
X1489404Y-892700D01*
X1517976Y-906986D01*
X1532261Y-935557D01*
X1532261Y-1092700D01*
X1675118Y-1092700D02*
X1675118Y-892700D01*
X1675118Y-921272D02*
X1689404Y-906986D01*
X1717976Y-892700D01*
X1760833Y-892700D01*
X1789404Y-906986D01*
X1803690Y-935557D01*
X1803690Y-1092700D01*
X1803690Y-935557D02*
X1817976Y-906986D01*
X1846547Y-892700D01*
X1889404Y-892700D01*
X1917976Y-906986D01*
X1932261Y-935557D01*
X1932261Y-1092700D01*
X2517976Y-778415D02*
X2260833Y-1164129D01*
X2903690Y-792700D02*
X2932261Y-792700D01*
X2960833Y-806986D01*
X2975118Y-821272D01*
X2989404Y-849843D01*
X3003690Y-906986D01*
X3003690Y-978415D01*
X2989404Y-1035557D01*
X2975118Y-1064129D01*
X2960833Y-1078415D01*
X2932261Y-1092700D01*
X2903690Y-1092700D01*
X2875118Y-1078415D01*
X2860833Y-1064129D01*
X2846547Y-1035557D01*
X2832261Y-978415D01*
X2832261Y-906986D01*
X2846547Y-849843D01*
X2860833Y-821272D01*
X2875118Y-806986D01*
X2903690Y-792700D01*
X3132261Y-1064129D02*
X3146547Y-1078415D01*
X3132261Y-1092700D01*
X3117976Y-1078415D01*
X3132261Y-1064129D01*
X3132261Y-1092700D01*
X3332261Y-792700D02*
X3360833Y-792700D01*
X3389404Y-806986D01*
X3403690Y-821272D01*
X3417975Y-849843D01*
X3432261Y-906986D01*
X3432261Y-978415D01*
X3417975Y-1035557D01*
X3403690Y-1064129D01*
X3389404Y-1078415D01*
X3360833Y-1092700D01*
X3332261Y-1092700D01*
X3303690Y-1078415D01*
X3289404Y-1064129D01*
X3275118Y-1035557D01*
X3260833Y-978415D01*
X3260833Y-906986D01*
X3275118Y-849843D01*
X3289404Y-821272D01*
X3303690Y-806986D01*
X3332261Y-792700D01*
X3532261Y-792700D02*
X3717975Y-792700D01*
X3617975Y-906986D01*
X3660833Y-906986D01*
X3689404Y-921272D01*
X3703690Y-935557D01*
X3717975Y-964129D01*
X3717975Y-1035557D01*
X3703690Y-1064129D01*
X3689404Y-1078415D01*
X3660833Y-1092700D01*
X3575118Y-1092700D01*
X3546547Y-1078415D01*
X3532261Y-1064129D01*
X3860833Y-1092700D02*
X3917975Y-1092700D01*
X3946547Y-1078415D01*
X3960833Y-1064129D01*
X3989404Y-1021272D01*
X4003690Y-964129D01*
X4003690Y-849843D01*
X3989404Y-821272D01*
X3975118Y-806986D01*
X3946547Y-792700D01*
X3889404Y-792700D01*
X3860833Y-806986D01*
X3846547Y-821272D01*
X3832261Y-849843D01*
X3832261Y-921272D01*
X3846547Y-949843D01*
X3860833Y-964129D01*
X3889404Y-978415D01*
X3946547Y-978415D01*
X3975118Y-964129D01*
X3989404Y-949843D01*
X4003690Y-921272D01*
X4117976Y-792700D02*
X4117976Y-849843D01*
X4232261Y-792700D02*
X4232261Y-849843D01*
X4675118Y-1206986D02*
X4660833Y-1192700D01*
X4632261Y-1149843D01*
X4617976Y-1121272D01*
X4603690Y-1078415D01*
X4589404Y-1006986D01*
X4589404Y-949843D01*
X4603690Y-878415D01*
X4617976Y-835557D01*
X4632261Y-806986D01*
X4660833Y-764129D01*
X4675118Y-749843D01*
X4832261Y-921272D02*
X4803690Y-906986D01*
X4789404Y-892700D01*
X4775118Y-864129D01*
X4775118Y-849843D01*
X4789404Y-821272D01*
X4803690Y-806986D01*
X4832261Y-792700D01*
X4889404Y-792700D01*
X4917976Y-806986D01*
X4932261Y-821272D01*
X4946547Y-849843D01*
X4946547Y-864129D01*
X4932261Y-892700D01*
X4917976Y-906986D01*
X4889404Y-921272D01*
X4832261Y-921272D01*
X4803690Y-935557D01*
X4789404Y-949843D01*
X4775118Y-978415D01*
X4775118Y-1035557D01*
X4789404Y-1064129D01*
X4803690Y-1078415D01*
X4832261Y-1092700D01*
X4889404Y-1092700D01*
X4917976Y-1078415D01*
X4932261Y-1064129D01*
X4946547Y-1035557D01*
X4946547Y-978415D01*
X4932261Y-949843D01*
X4917976Y-935557D01*
X4889404Y-921272D01*
X5046547Y-792700D02*
X5246547Y-792700D01*
X5117976Y-1092700D01*
X5589404Y-1092700D02*
X5589404Y-792700D01*
X5717975Y-1092700D02*
X5717975Y-935557D01*
X5703690Y-906986D01*
X5675118Y-892700D01*
X5632261Y-892700D01*
X5603690Y-906986D01*
X5589404Y-921272D01*
X5903690Y-1092700D02*
X5875118Y-1078415D01*
X5860833Y-1064129D01*
X5846547Y-1035557D01*
X5846547Y-949843D01*
X5860833Y-921272D01*
X5875118Y-906986D01*
X5903690Y-892700D01*
X5946547Y-892700D01*
X5975118Y-906986D01*
X5989404Y-921272D01*
X6003690Y-949843D01*
X6003690Y-1035557D01*
X5989404Y-1064129D01*
X5975118Y-1078415D01*
X5946547Y-1092700D01*
X5903690Y-1092700D01*
X6175118Y-1092700D02*
X6146547Y-1078415D01*
X6132261Y-1049843D01*
X6132261Y-792700D01*
X6403690Y-1078415D02*
X6375118Y-1092700D01*
X6317976Y-1092700D01*
X6289404Y-1078415D01*
X6275118Y-1049843D01*
X6275118Y-935557D01*
X6289404Y-906986D01*
X6317976Y-892700D01*
X6375118Y-892700D01*
X6403690Y-906986D01*
X6417976Y-935557D01*
X6417976Y-964129D01*
X6275118Y-992700D01*
X6532261Y-1078415D02*
X6560833Y-1092700D01*
X6617976Y-1092700D01*
X6646547Y-1078415D01*
X6660833Y-1049843D01*
X6660833Y-1035557D01*
X6646547Y-1006986D01*
X6617976Y-992700D01*
X6575118Y-992700D01*
X6546547Y-978415D01*
X6532261Y-949843D01*
X6532261Y-935557D01*
X6546547Y-906986D01*
X6575118Y-892700D01*
X6617976Y-892700D01*
X6646547Y-906986D01*
X6760833Y-1206986D02*
X6775118Y-1192700D01*
X6803690Y-1149843D01*
X6817976Y-1121272D01*
X6832261Y-1078415D01*
X6846547Y-1006986D01*
X6846547Y-949843D01*
X6832261Y-878415D01*
X6817976Y-835557D01*
X6803690Y-806986D01*
X6775118Y-764129D01*
X6760833Y-749843D01*
M02*
