G04 #@! TF.FileFunction,Legend,Top*
%FSLAX46Y46*%
G04 Gerber Fmt 4.6, Leading zero omitted, Abs format (unit mm)*
G04 Created by KiCad (PCBNEW 4.0.7-e2-6376~60~ubuntu17.10.1) date Tue Mar 20 11:33:17 2018*
%MOMM*%
%LPD*%
G01*
G04 APERTURE LIST*
%ADD10C,0.020000*%
%ADD11C,0.010000*%
%ADD12C,0.120000*%
%ADD13C,0.150000*%
G04 APERTURE END LIST*
D10*
D11*
G36*
X77811466Y4063115D02*
X77864031Y4062580D01*
X78018055Y4058864D01*
X78147049Y4047825D01*
X78255411Y4028278D01*
X78347536Y3999041D01*
X78427821Y3958927D01*
X78500662Y3906755D01*
X78526679Y3884091D01*
X78569837Y3831062D01*
X78608753Y3759103D01*
X78638747Y3679340D01*
X78655139Y3602899D01*
X78656842Y3574652D01*
X78646169Y3496350D01*
X78617567Y3410819D01*
X78576163Y3329861D01*
X78527079Y3265278D01*
X78519107Y3257486D01*
X78451574Y3202716D01*
X78377622Y3159961D01*
X78292986Y3128101D01*
X78193403Y3106016D01*
X78074608Y3092586D01*
X77932340Y3086690D01*
X77867174Y3086190D01*
X77784319Y3086589D01*
X77726051Y3088258D01*
X77686904Y3091902D01*
X77661411Y3098231D01*
X77644106Y3107950D01*
X77634830Y3116250D01*
X77626068Y3126332D01*
X77619195Y3139339D01*
X77613982Y3158755D01*
X77610201Y3188064D01*
X77607623Y3230751D01*
X77606020Y3290299D01*
X77605163Y3370194D01*
X77604823Y3473919D01*
X77604771Y3574652D01*
X77604440Y3709005D01*
X77604512Y3816332D01*
X77605790Y3867729D01*
X77800155Y3867729D01*
X77800155Y3281575D01*
X77924149Y3281689D01*
X77998759Y3283828D01*
X78076902Y3289341D01*
X78142100Y3297052D01*
X78144084Y3297369D01*
X78249457Y3322846D01*
X78331188Y3362524D01*
X78393358Y3418986D01*
X78432860Y3480118D01*
X78457200Y3547931D01*
X78455313Y3611605D01*
X78427065Y3679859D01*
X78371812Y3750468D01*
X78295247Y3802789D01*
X78195725Y3837761D01*
X78129213Y3850138D01*
X78053713Y3858830D01*
X77973695Y3865120D01*
X77905636Y3867736D01*
X77901605Y3867748D01*
X77800155Y3867729D01*
X77605790Y3867729D01*
X77606584Y3899643D01*
X77612259Y3961945D01*
X77623133Y4006249D01*
X77640806Y4035564D01*
X77666877Y4052899D01*
X77702945Y4061263D01*
X77750608Y4063665D01*
X77811466Y4063115D01*
X77811466Y4063115D01*
G37*
X77811466Y4063115D02*
X77864031Y4062580D01*
X78018055Y4058864D01*
X78147049Y4047825D01*
X78255411Y4028278D01*
X78347536Y3999041D01*
X78427821Y3958927D01*
X78500662Y3906755D01*
X78526679Y3884091D01*
X78569837Y3831062D01*
X78608753Y3759103D01*
X78638747Y3679340D01*
X78655139Y3602899D01*
X78656842Y3574652D01*
X78646169Y3496350D01*
X78617567Y3410819D01*
X78576163Y3329861D01*
X78527079Y3265278D01*
X78519107Y3257486D01*
X78451574Y3202716D01*
X78377622Y3159961D01*
X78292986Y3128101D01*
X78193403Y3106016D01*
X78074608Y3092586D01*
X77932340Y3086690D01*
X77867174Y3086190D01*
X77784319Y3086589D01*
X77726051Y3088258D01*
X77686904Y3091902D01*
X77661411Y3098231D01*
X77644106Y3107950D01*
X77634830Y3116250D01*
X77626068Y3126332D01*
X77619195Y3139339D01*
X77613982Y3158755D01*
X77610201Y3188064D01*
X77607623Y3230751D01*
X77606020Y3290299D01*
X77605163Y3370194D01*
X77604823Y3473919D01*
X77604771Y3574652D01*
X77604440Y3709005D01*
X77604512Y3816332D01*
X77605790Y3867729D01*
X77800155Y3867729D01*
X77800155Y3281575D01*
X77924149Y3281689D01*
X77998759Y3283828D01*
X78076902Y3289341D01*
X78142100Y3297052D01*
X78144084Y3297369D01*
X78249457Y3322846D01*
X78331188Y3362524D01*
X78393358Y3418986D01*
X78432860Y3480118D01*
X78457200Y3547931D01*
X78455313Y3611605D01*
X78427065Y3679859D01*
X78371812Y3750468D01*
X78295247Y3802789D01*
X78195725Y3837761D01*
X78129213Y3850138D01*
X78053713Y3858830D01*
X77973695Y3865120D01*
X77905636Y3867736D01*
X77901605Y3867748D01*
X77800155Y3867729D01*
X77605790Y3867729D01*
X77606584Y3899643D01*
X77612259Y3961945D01*
X77623133Y4006249D01*
X77640806Y4035564D01*
X77666877Y4052899D01*
X77702945Y4061263D01*
X77750608Y4063665D01*
X77811466Y4063115D01*
G36*
X79686790Y4063008D02*
X79779198Y4062512D01*
X79848947Y4061359D01*
X79899737Y4059280D01*
X79935269Y4056009D01*
X79959242Y4051277D01*
X79975356Y4044817D01*
X79987311Y4036361D01*
X79991641Y4032469D01*
X80017969Y3991120D01*
X80022709Y3943608D01*
X80005390Y3901429D01*
X79997381Y3892904D01*
X79984428Y3884639D01*
X79963572Y3878263D01*
X79930944Y3873465D01*
X79882678Y3869936D01*
X79814906Y3867366D01*
X79723760Y3865443D01*
X79640429Y3864273D01*
X79310628Y3860214D01*
X79301614Y3687374D01*
X79525478Y3687374D01*
X79622666Y3686535D01*
X79693817Y3683028D01*
X79742929Y3675365D01*
X79774003Y3662057D01*
X79791036Y3641619D01*
X79798028Y3612561D01*
X79799090Y3585593D01*
X79795790Y3552503D01*
X79783337Y3528120D01*
X79757900Y3511171D01*
X79715649Y3500381D01*
X79652754Y3494476D01*
X79565385Y3492183D01*
X79517699Y3491989D01*
X79303114Y3491989D01*
X79303114Y3281575D01*
X79633765Y3281575D01*
X79742150Y3281424D01*
X79824523Y3280746D01*
X79884931Y3279204D01*
X79927421Y3276461D01*
X79956039Y3272179D01*
X79974832Y3266021D01*
X79987846Y3257651D01*
X79994475Y3251516D01*
X80017213Y3215711D01*
X80024534Y3183883D01*
X80014081Y3145006D01*
X79994475Y3116250D01*
X79984015Y3107197D01*
X79970512Y3100167D01*
X79950334Y3094906D01*
X79919849Y3091159D01*
X79875425Y3088670D01*
X79813429Y3087185D01*
X79730229Y3086449D01*
X79622193Y3086206D01*
X79566131Y3086190D01*
X79446076Y3086297D01*
X79352446Y3086785D01*
X79281611Y3087911D01*
X79229939Y3089929D01*
X79193797Y3093094D01*
X79169552Y3097661D01*
X79153573Y3103884D01*
X79142227Y3112020D01*
X79137788Y3116250D01*
X79129003Y3126364D01*
X79122116Y3139412D01*
X79116899Y3158890D01*
X79113121Y3188296D01*
X79110550Y3231126D01*
X79108956Y3290876D01*
X79108109Y3371043D01*
X79107778Y3475123D01*
X79107729Y3572032D01*
X79107774Y3696137D01*
X79108086Y3793694D01*
X79108932Y3868214D01*
X79110578Y3923209D01*
X79113291Y3962190D01*
X79117337Y3988667D01*
X79122983Y4006154D01*
X79130494Y4018160D01*
X79140138Y4028197D01*
X79142514Y4030434D01*
X79154045Y4040341D01*
X79167442Y4048012D01*
X79186424Y4053734D01*
X79214705Y4057792D01*
X79256002Y4060472D01*
X79314032Y4062058D01*
X79392511Y4062836D01*
X79495154Y4063092D01*
X79568024Y4063114D01*
X79686790Y4063008D01*
X79686790Y4063008D01*
G37*
X79686790Y4063008D02*
X79779198Y4062512D01*
X79848947Y4061359D01*
X79899737Y4059280D01*
X79935269Y4056009D01*
X79959242Y4051277D01*
X79975356Y4044817D01*
X79987311Y4036361D01*
X79991641Y4032469D01*
X80017969Y3991120D01*
X80022709Y3943608D01*
X80005390Y3901429D01*
X79997381Y3892904D01*
X79984428Y3884639D01*
X79963572Y3878263D01*
X79930944Y3873465D01*
X79882678Y3869936D01*
X79814906Y3867366D01*
X79723760Y3865443D01*
X79640429Y3864273D01*
X79310628Y3860214D01*
X79301614Y3687374D01*
X79525478Y3687374D01*
X79622666Y3686535D01*
X79693817Y3683028D01*
X79742929Y3675365D01*
X79774003Y3662057D01*
X79791036Y3641619D01*
X79798028Y3612561D01*
X79799090Y3585593D01*
X79795790Y3552503D01*
X79783337Y3528120D01*
X79757900Y3511171D01*
X79715649Y3500381D01*
X79652754Y3494476D01*
X79565385Y3492183D01*
X79517699Y3491989D01*
X79303114Y3491989D01*
X79303114Y3281575D01*
X79633765Y3281575D01*
X79742150Y3281424D01*
X79824523Y3280746D01*
X79884931Y3279204D01*
X79927421Y3276461D01*
X79956039Y3272179D01*
X79974832Y3266021D01*
X79987846Y3257651D01*
X79994475Y3251516D01*
X80017213Y3215711D01*
X80024534Y3183883D01*
X80014081Y3145006D01*
X79994475Y3116250D01*
X79984015Y3107197D01*
X79970512Y3100167D01*
X79950334Y3094906D01*
X79919849Y3091159D01*
X79875425Y3088670D01*
X79813429Y3087185D01*
X79730229Y3086449D01*
X79622193Y3086206D01*
X79566131Y3086190D01*
X79446076Y3086297D01*
X79352446Y3086785D01*
X79281611Y3087911D01*
X79229939Y3089929D01*
X79193797Y3093094D01*
X79169552Y3097661D01*
X79153573Y3103884D01*
X79142227Y3112020D01*
X79137788Y3116250D01*
X79129003Y3126364D01*
X79122116Y3139412D01*
X79116899Y3158890D01*
X79113121Y3188296D01*
X79110550Y3231126D01*
X79108956Y3290876D01*
X79108109Y3371043D01*
X79107778Y3475123D01*
X79107729Y3572032D01*
X79107774Y3696137D01*
X79108086Y3793694D01*
X79108932Y3868214D01*
X79110578Y3923209D01*
X79113291Y3962190D01*
X79117337Y3988667D01*
X79122983Y4006154D01*
X79130494Y4018160D01*
X79140138Y4028197D01*
X79142514Y4030434D01*
X79154045Y4040341D01*
X79167442Y4048012D01*
X79186424Y4053734D01*
X79214705Y4057792D01*
X79256002Y4060472D01*
X79314032Y4062058D01*
X79392511Y4062836D01*
X79495154Y4063092D01*
X79568024Y4063114D01*
X79686790Y4063008D01*
G36*
X81046232Y4061403D02*
X81145837Y4054440D01*
X81238476Y4043565D01*
X81318762Y4029186D01*
X81381312Y4011714D01*
X81420739Y3991558D01*
X81426791Y3985625D01*
X81447836Y3939585D01*
X81441454Y3892320D01*
X81408813Y3851882D01*
X81407256Y3850723D01*
X81388057Y3838263D01*
X81368015Y3831711D01*
X81340060Y3830916D01*
X81297121Y3835724D01*
X81232129Y3845985D01*
X81226901Y3846849D01*
X81130059Y3858746D01*
X81025576Y3864615D01*
X80920785Y3864672D01*
X80823018Y3859133D01*
X80739608Y3848215D01*
X80677887Y3832135D01*
X80673832Y3830519D01*
X80629056Y3805431D01*
X80613324Y3780042D01*
X80625640Y3755073D01*
X80665005Y3731244D01*
X80730422Y3709278D01*
X80820894Y3689894D01*
X80881220Y3680562D01*
X81006620Y3662611D01*
X81106355Y3646201D01*
X81184674Y3629912D01*
X81245827Y3612322D01*
X81294061Y3592011D01*
X81333625Y3567557D01*
X81368768Y3537540D01*
X81397009Y3508064D01*
X81430512Y3466993D01*
X81447001Y3431678D01*
X81452157Y3388167D01*
X81452344Y3372232D01*
X81448472Y3319355D01*
X81432993Y3280017D01*
X81406205Y3245100D01*
X81351761Y3191726D01*
X81291050Y3151022D01*
X81219562Y3121660D01*
X81132784Y3102313D01*
X81026206Y3091654D01*
X80895317Y3088355D01*
X80873705Y3088411D01*
X80786422Y3090220D01*
X80699861Y3094331D01*
X80623458Y3100154D01*
X80566650Y3107099D01*
X80562056Y3107896D01*
X80505575Y3121276D01*
X80457668Y3138178D01*
X80430547Y3153629D01*
X80405309Y3194394D01*
X80403551Y3241862D01*
X80425308Y3284165D01*
X80430176Y3288948D01*
X80450298Y3303161D01*
X80475462Y3309284D01*
X80514407Y3308242D01*
X80561685Y3302826D01*
X80614515Y3297987D01*
X80688572Y3293905D01*
X80775029Y3290942D01*
X80865057Y3289463D01*
X80888735Y3289366D01*
X80979098Y3289730D01*
X81045231Y3291484D01*
X81092953Y3295237D01*
X81128082Y3301597D01*
X81156438Y3311173D01*
X81173479Y3319149D01*
X81210924Y3341295D01*
X81234799Y3361352D01*
X81238288Y3367037D01*
X81230927Y3390515D01*
X81195933Y3413243D01*
X81135732Y3434190D01*
X81052749Y3452324D01*
X81028300Y3456363D01*
X80900598Y3476421D01*
X80798680Y3493186D01*
X80718614Y3507877D01*
X80656466Y3521712D01*
X80608302Y3535909D01*
X80570188Y3551687D01*
X80538190Y3570264D01*
X80508376Y3592858D01*
X80476810Y3620687D01*
X80466188Y3630444D01*
X80428947Y3666858D01*
X80409233Y3695708D01*
X80401521Y3728722D01*
X80400273Y3770325D01*
X80414005Y3851909D01*
X80455042Y3921226D01*
X80523150Y3978052D01*
X80618093Y4022163D01*
X80685836Y4041948D01*
X80759461Y4054727D01*
X80847659Y4061956D01*
X80945044Y4064045D01*
X81046232Y4061403D01*
X81046232Y4061403D01*
G37*
X81046232Y4061403D02*
X81145837Y4054440D01*
X81238476Y4043565D01*
X81318762Y4029186D01*
X81381312Y4011714D01*
X81420739Y3991558D01*
X81426791Y3985625D01*
X81447836Y3939585D01*
X81441454Y3892320D01*
X81408813Y3851882D01*
X81407256Y3850723D01*
X81388057Y3838263D01*
X81368015Y3831711D01*
X81340060Y3830916D01*
X81297121Y3835724D01*
X81232129Y3845985D01*
X81226901Y3846849D01*
X81130059Y3858746D01*
X81025576Y3864615D01*
X80920785Y3864672D01*
X80823018Y3859133D01*
X80739608Y3848215D01*
X80677887Y3832135D01*
X80673832Y3830519D01*
X80629056Y3805431D01*
X80613324Y3780042D01*
X80625640Y3755073D01*
X80665005Y3731244D01*
X80730422Y3709278D01*
X80820894Y3689894D01*
X80881220Y3680562D01*
X81006620Y3662611D01*
X81106355Y3646201D01*
X81184674Y3629912D01*
X81245827Y3612322D01*
X81294061Y3592011D01*
X81333625Y3567557D01*
X81368768Y3537540D01*
X81397009Y3508064D01*
X81430512Y3466993D01*
X81447001Y3431678D01*
X81452157Y3388167D01*
X81452344Y3372232D01*
X81448472Y3319355D01*
X81432993Y3280017D01*
X81406205Y3245100D01*
X81351761Y3191726D01*
X81291050Y3151022D01*
X81219562Y3121660D01*
X81132784Y3102313D01*
X81026206Y3091654D01*
X80895317Y3088355D01*
X80873705Y3088411D01*
X80786422Y3090220D01*
X80699861Y3094331D01*
X80623458Y3100154D01*
X80566650Y3107099D01*
X80562056Y3107896D01*
X80505575Y3121276D01*
X80457668Y3138178D01*
X80430547Y3153629D01*
X80405309Y3194394D01*
X80403551Y3241862D01*
X80425308Y3284165D01*
X80430176Y3288948D01*
X80450298Y3303161D01*
X80475462Y3309284D01*
X80514407Y3308242D01*
X80561685Y3302826D01*
X80614515Y3297987D01*
X80688572Y3293905D01*
X80775029Y3290942D01*
X80865057Y3289463D01*
X80888735Y3289366D01*
X80979098Y3289730D01*
X81045231Y3291484D01*
X81092953Y3295237D01*
X81128082Y3301597D01*
X81156438Y3311173D01*
X81173479Y3319149D01*
X81210924Y3341295D01*
X81234799Y3361352D01*
X81238288Y3367037D01*
X81230927Y3390515D01*
X81195933Y3413243D01*
X81135732Y3434190D01*
X81052749Y3452324D01*
X81028300Y3456363D01*
X80900598Y3476421D01*
X80798680Y3493186D01*
X80718614Y3507877D01*
X80656466Y3521712D01*
X80608302Y3535909D01*
X80570188Y3551687D01*
X80538190Y3570264D01*
X80508376Y3592858D01*
X80476810Y3620687D01*
X80466188Y3630444D01*
X80428947Y3666858D01*
X80409233Y3695708D01*
X80401521Y3728722D01*
X80400273Y3770325D01*
X80414005Y3851909D01*
X80455042Y3921226D01*
X80523150Y3978052D01*
X80618093Y4022163D01*
X80685836Y4041948D01*
X80759461Y4054727D01*
X80847659Y4061956D01*
X80945044Y4064045D01*
X81046232Y4061403D01*
G36*
X82068557Y4033054D02*
X82077319Y4022972D01*
X82084192Y4009965D01*
X82089405Y3990549D01*
X82093186Y3961240D01*
X82095764Y3918553D01*
X82097367Y3859005D01*
X82098225Y3779110D01*
X82098564Y3675384D01*
X82098617Y3574652D01*
X82098524Y3449708D01*
X82098093Y3351339D01*
X82097097Y3276059D01*
X82095305Y3220386D01*
X82092491Y3180834D01*
X82088424Y3153919D01*
X82082878Y3136157D01*
X82075623Y3124063D01*
X82068557Y3116250D01*
X82024618Y3090048D01*
X81977800Y3092399D01*
X81935911Y3120976D01*
X81926286Y3132133D01*
X81918765Y3145077D01*
X81913086Y3163388D01*
X81908993Y3190642D01*
X81906225Y3230420D01*
X81904524Y3286298D01*
X81903631Y3361856D01*
X81903287Y3460672D01*
X81903232Y3572546D01*
X81903232Y3989332D01*
X81940123Y4026223D01*
X81985595Y4057260D01*
X82029704Y4058379D01*
X82068557Y4033054D01*
X82068557Y4033054D01*
G37*
X82068557Y4033054D02*
X82077319Y4022972D01*
X82084192Y4009965D01*
X82089405Y3990549D01*
X82093186Y3961240D01*
X82095764Y3918553D01*
X82097367Y3859005D01*
X82098225Y3779110D01*
X82098564Y3675384D01*
X82098617Y3574652D01*
X82098524Y3449708D01*
X82098093Y3351339D01*
X82097097Y3276059D01*
X82095305Y3220386D01*
X82092491Y3180834D01*
X82088424Y3153919D01*
X82082878Y3136157D01*
X82075623Y3124063D01*
X82068557Y3116250D01*
X82024618Y3090048D01*
X81977800Y3092399D01*
X81935911Y3120976D01*
X81926286Y3132133D01*
X81918765Y3145077D01*
X81913086Y3163388D01*
X81908993Y3190642D01*
X81906225Y3230420D01*
X81904524Y3286298D01*
X81903631Y3361856D01*
X81903287Y3460672D01*
X81903232Y3572546D01*
X81903232Y3989332D01*
X81940123Y4026223D01*
X81985595Y4057260D01*
X82029704Y4058379D01*
X82068557Y4033054D01*
G36*
X83364958Y4055748D02*
X83456179Y4040442D01*
X83526238Y4016649D01*
X83571816Y3985320D01*
X83584236Y3967446D01*
X83596866Y3925875D01*
X83588367Y3888268D01*
X83561535Y3852605D01*
X83519844Y3835921D01*
X83459350Y3837276D01*
X83412561Y3846315D01*
X83308592Y3863537D01*
X83202340Y3865173D01*
X83083411Y3851195D01*
X83050560Y3845272D01*
X82939975Y3814093D01*
X82853461Y3767714D01*
X82791967Y3706925D01*
X82756442Y3632516D01*
X82749095Y3594046D01*
X82753904Y3515997D01*
X82784954Y3446943D01*
X82839414Y3388231D01*
X82914456Y3341207D01*
X83007250Y3307217D01*
X83114968Y3287606D01*
X83234779Y3283719D01*
X83363855Y3296904D01*
X83371143Y3298148D01*
X83422482Y3307710D01*
X83450948Y3316946D01*
X83463286Y3330651D01*
X83466242Y3353618D01*
X83466309Y3365781D01*
X83466309Y3416841D01*
X83375143Y3416841D01*
X83294638Y3422356D01*
X83239699Y3439930D01*
X83207734Y3471107D01*
X83196148Y3517430D01*
X83196007Y3523476D01*
X83202785Y3563071D01*
X83226029Y3591343D01*
X83269290Y3610053D01*
X83336119Y3620960D01*
X83400850Y3624970D01*
X83494933Y3627271D01*
X83563176Y3623760D01*
X83609719Y3610805D01*
X83638702Y3584774D01*
X83654265Y3542033D01*
X83660549Y3478950D01*
X83661694Y3396096D01*
X83659818Y3303614D01*
X83654174Y3240706D01*
X83644738Y3207121D01*
X83642907Y3204491D01*
X83591095Y3162526D01*
X83515130Y3129292D01*
X83419828Y3105501D01*
X83310004Y3091861D01*
X83190474Y3089082D01*
X83066054Y3097875D01*
X82992877Y3108675D01*
X82878100Y3141162D01*
X82771424Y3194274D01*
X82682109Y3263205D01*
X82668534Y3276982D01*
X82624428Y3334902D01*
X82584631Y3406684D01*
X82553793Y3481941D01*
X82536563Y3550283D01*
X82534486Y3576531D01*
X82543327Y3631283D01*
X82566825Y3699405D01*
X82600471Y3771110D01*
X82639756Y3836611D01*
X82674465Y3880362D01*
X82755617Y3945441D01*
X82860522Y3997239D01*
X82985420Y4034586D01*
X83126553Y4056307D01*
X83255895Y4061615D01*
X83364958Y4055748D01*
X83364958Y4055748D01*
G37*
X83364958Y4055748D02*
X83456179Y4040442D01*
X83526238Y4016649D01*
X83571816Y3985320D01*
X83584236Y3967446D01*
X83596866Y3925875D01*
X83588367Y3888268D01*
X83561535Y3852605D01*
X83519844Y3835921D01*
X83459350Y3837276D01*
X83412561Y3846315D01*
X83308592Y3863537D01*
X83202340Y3865173D01*
X83083411Y3851195D01*
X83050560Y3845272D01*
X82939975Y3814093D01*
X82853461Y3767714D01*
X82791967Y3706925D01*
X82756442Y3632516D01*
X82749095Y3594046D01*
X82753904Y3515997D01*
X82784954Y3446943D01*
X82839414Y3388231D01*
X82914456Y3341207D01*
X83007250Y3307217D01*
X83114968Y3287606D01*
X83234779Y3283719D01*
X83363855Y3296904D01*
X83371143Y3298148D01*
X83422482Y3307710D01*
X83450948Y3316946D01*
X83463286Y3330651D01*
X83466242Y3353618D01*
X83466309Y3365781D01*
X83466309Y3416841D01*
X83375143Y3416841D01*
X83294638Y3422356D01*
X83239699Y3439930D01*
X83207734Y3471107D01*
X83196148Y3517430D01*
X83196007Y3523476D01*
X83202785Y3563071D01*
X83226029Y3591343D01*
X83269290Y3610053D01*
X83336119Y3620960D01*
X83400850Y3624970D01*
X83494933Y3627271D01*
X83563176Y3623760D01*
X83609719Y3610805D01*
X83638702Y3584774D01*
X83654265Y3542033D01*
X83660549Y3478950D01*
X83661694Y3396096D01*
X83659818Y3303614D01*
X83654174Y3240706D01*
X83644738Y3207121D01*
X83642907Y3204491D01*
X83591095Y3162526D01*
X83515130Y3129292D01*
X83419828Y3105501D01*
X83310004Y3091861D01*
X83190474Y3089082D01*
X83066054Y3097875D01*
X82992877Y3108675D01*
X82878100Y3141162D01*
X82771424Y3194274D01*
X82682109Y3263205D01*
X82668534Y3276982D01*
X82624428Y3334902D01*
X82584631Y3406684D01*
X82553793Y3481941D01*
X82536563Y3550283D01*
X82534486Y3576531D01*
X82543327Y3631283D01*
X82566825Y3699405D01*
X82600471Y3771110D01*
X82639756Y3836611D01*
X82674465Y3880362D01*
X82755617Y3945441D01*
X82860522Y3997239D01*
X82985420Y4034586D01*
X83126553Y4056307D01*
X83255895Y4061615D01*
X83364958Y4055748D01*
G36*
X84230300Y4057280D02*
X84261675Y4038875D01*
X84302698Y4008775D01*
X84355496Y3965564D01*
X84422195Y3907822D01*
X84504921Y3834132D01*
X84605800Y3743076D01*
X84721279Y3638386D01*
X84961753Y3420317D01*
X84969268Y3713016D01*
X84971981Y3813770D01*
X84974598Y3888802D01*
X84977700Y3942440D01*
X84981864Y3979014D01*
X84987669Y4002853D01*
X84995696Y4018286D01*
X85006523Y4029642D01*
X85012264Y4034414D01*
X85058237Y4059647D01*
X85101983Y4055958D01*
X85136685Y4034401D01*
X85172167Y4005689D01*
X85176580Y3586374D01*
X85177801Y3463053D01*
X85178423Y3366176D01*
X85178230Y3292130D01*
X85177006Y3237303D01*
X85174536Y3198081D01*
X85170606Y3170851D01*
X85165000Y3152001D01*
X85157502Y3137919D01*
X85149187Y3126625D01*
X85131198Y3105678D01*
X85113299Y3091793D01*
X85093008Y3086464D01*
X85067842Y3091184D01*
X85035320Y3107447D01*
X84992957Y3136747D01*
X84938272Y3180578D01*
X84868783Y3240433D01*
X84782005Y3317806D01*
X84683705Y3406710D01*
X84330510Y3727089D01*
X84322995Y3435347D01*
X84320277Y3334777D01*
X84317653Y3259920D01*
X84314541Y3206440D01*
X84310358Y3169998D01*
X84304523Y3146256D01*
X84296454Y3130878D01*
X84285569Y3119524D01*
X84279999Y3114898D01*
X84230764Y3089482D01*
X84184243Y3093315D01*
X84143731Y3125791D01*
X84134464Y3138857D01*
X84127241Y3154115D01*
X84121808Y3175228D01*
X84117912Y3205855D01*
X84115299Y3249658D01*
X84113713Y3310297D01*
X84112902Y3391433D01*
X84112612Y3496727D01*
X84112581Y3574652D01*
X84112679Y3696536D01*
X84113141Y3792021D01*
X84114223Y3864769D01*
X84116177Y3918441D01*
X84119258Y3956697D01*
X84123720Y3983197D01*
X84129817Y4001604D01*
X84137803Y4015576D01*
X84143731Y4023513D01*
X84158758Y4042312D01*
X84172802Y4056507D01*
X84187990Y4064678D01*
X84206447Y4065408D01*
X84230300Y4057280D01*
X84230300Y4057280D01*
G37*
X84230300Y4057280D02*
X84261675Y4038875D01*
X84302698Y4008775D01*
X84355496Y3965564D01*
X84422195Y3907822D01*
X84504921Y3834132D01*
X84605800Y3743076D01*
X84721279Y3638386D01*
X84961753Y3420317D01*
X84969268Y3713016D01*
X84971981Y3813770D01*
X84974598Y3888802D01*
X84977700Y3942440D01*
X84981864Y3979014D01*
X84987669Y4002853D01*
X84995696Y4018286D01*
X85006523Y4029642D01*
X85012264Y4034414D01*
X85058237Y4059647D01*
X85101983Y4055958D01*
X85136685Y4034401D01*
X85172167Y4005689D01*
X85176580Y3586374D01*
X85177801Y3463053D01*
X85178423Y3366176D01*
X85178230Y3292130D01*
X85177006Y3237303D01*
X85174536Y3198081D01*
X85170606Y3170851D01*
X85165000Y3152001D01*
X85157502Y3137919D01*
X85149187Y3126625D01*
X85131198Y3105678D01*
X85113299Y3091793D01*
X85093008Y3086464D01*
X85067842Y3091184D01*
X85035320Y3107447D01*
X84992957Y3136747D01*
X84938272Y3180578D01*
X84868783Y3240433D01*
X84782005Y3317806D01*
X84683705Y3406710D01*
X84330510Y3727089D01*
X84322995Y3435347D01*
X84320277Y3334777D01*
X84317653Y3259920D01*
X84314541Y3206440D01*
X84310358Y3169998D01*
X84304523Y3146256D01*
X84296454Y3130878D01*
X84285569Y3119524D01*
X84279999Y3114898D01*
X84230764Y3089482D01*
X84184243Y3093315D01*
X84143731Y3125791D01*
X84134464Y3138857D01*
X84127241Y3154115D01*
X84121808Y3175228D01*
X84117912Y3205855D01*
X84115299Y3249658D01*
X84113713Y3310297D01*
X84112902Y3391433D01*
X84112612Y3496727D01*
X84112581Y3574652D01*
X84112679Y3696536D01*
X84113141Y3792021D01*
X84114223Y3864769D01*
X84116177Y3918441D01*
X84119258Y3956697D01*
X84123720Y3983197D01*
X84129817Y4001604D01*
X84137803Y4015576D01*
X84143731Y4023513D01*
X84158758Y4042312D01*
X84172802Y4056507D01*
X84187990Y4064678D01*
X84206447Y4065408D01*
X84230300Y4057280D01*
G36*
X86267890Y4062857D02*
X86369551Y4061640D01*
X86447456Y4058794D01*
X86504755Y4053650D01*
X86544601Y4045540D01*
X86570142Y4033793D01*
X86584531Y4017742D01*
X86590919Y3996716D01*
X86592455Y3970048D01*
X86592463Y3966898D01*
X86591129Y3936734D01*
X86584825Y3913421D01*
X86570096Y3896018D01*
X86543489Y3883584D01*
X86501548Y3875179D01*
X86440820Y3869859D01*
X86357850Y3866685D01*
X86249185Y3864715D01*
X86215879Y3864279D01*
X85893587Y3860214D01*
X85889080Y3773794D01*
X85884572Y3687374D01*
X86108437Y3687374D01*
X86195895Y3687051D01*
X86258343Y3685687D01*
X86300828Y3682685D01*
X86328397Y3677451D01*
X86346096Y3669389D01*
X86358971Y3657904D01*
X86359054Y3657813D01*
X86382404Y3613053D01*
X86381560Y3564677D01*
X86357053Y3523438D01*
X86352203Y3519199D01*
X86334989Y3508275D01*
X86311400Y3500675D01*
X86276181Y3495827D01*
X86224074Y3493158D01*
X86149824Y3492096D01*
X86102336Y3491989D01*
X85886072Y3491989D01*
X85886072Y3281575D01*
X86214394Y3281575D01*
X86322792Y3281385D01*
X86405109Y3280610D01*
X86465323Y3278940D01*
X86507409Y3276066D01*
X86535345Y3271677D01*
X86553108Y3265465D01*
X86564674Y3257120D01*
X86567589Y3254090D01*
X86589110Y3212090D01*
X86590684Y3164310D01*
X86573029Y3122882D01*
X86559059Y3109587D01*
X86544528Y3102268D01*
X86522012Y3096605D01*
X86487950Y3092401D01*
X86438781Y3089456D01*
X86370942Y3087573D01*
X86280872Y3086554D01*
X86165011Y3086199D01*
X86138817Y3086190D01*
X86021013Y3086268D01*
X85929570Y3086693D01*
X85860788Y3087758D01*
X85810970Y3089755D01*
X85776414Y3092974D01*
X85753424Y3097708D01*
X85738300Y3104247D01*
X85727343Y3112883D01*
X85721332Y3119084D01*
X85712284Y3130067D01*
X85705216Y3143672D01*
X85699883Y3163468D01*
X85696042Y3193022D01*
X85693449Y3235903D01*
X85691861Y3295679D01*
X85691035Y3375917D01*
X85690726Y3480185D01*
X85690688Y3567944D01*
X85690782Y3690916D01*
X85691231Y3787455D01*
X85692282Y3861185D01*
X85694184Y3915734D01*
X85697183Y3954725D01*
X85701529Y3981785D01*
X85707468Y4000540D01*
X85715249Y4014614D01*
X85721838Y4023513D01*
X85752988Y4063114D01*
X86139322Y4063114D01*
X86267890Y4062857D01*
X86267890Y4062857D01*
G37*
X86267890Y4062857D02*
X86369551Y4061640D01*
X86447456Y4058794D01*
X86504755Y4053650D01*
X86544601Y4045540D01*
X86570142Y4033793D01*
X86584531Y4017742D01*
X86590919Y3996716D01*
X86592455Y3970048D01*
X86592463Y3966898D01*
X86591129Y3936734D01*
X86584825Y3913421D01*
X86570096Y3896018D01*
X86543489Y3883584D01*
X86501548Y3875179D01*
X86440820Y3869859D01*
X86357850Y3866685D01*
X86249185Y3864715D01*
X86215879Y3864279D01*
X85893587Y3860214D01*
X85889080Y3773794D01*
X85884572Y3687374D01*
X86108437Y3687374D01*
X86195895Y3687051D01*
X86258343Y3685687D01*
X86300828Y3682685D01*
X86328397Y3677451D01*
X86346096Y3669389D01*
X86358971Y3657904D01*
X86359054Y3657813D01*
X86382404Y3613053D01*
X86381560Y3564677D01*
X86357053Y3523438D01*
X86352203Y3519199D01*
X86334989Y3508275D01*
X86311400Y3500675D01*
X86276181Y3495827D01*
X86224074Y3493158D01*
X86149824Y3492096D01*
X86102336Y3491989D01*
X85886072Y3491989D01*
X85886072Y3281575D01*
X86214394Y3281575D01*
X86322792Y3281385D01*
X86405109Y3280610D01*
X86465323Y3278940D01*
X86507409Y3276066D01*
X86535345Y3271677D01*
X86553108Y3265465D01*
X86564674Y3257120D01*
X86567589Y3254090D01*
X86589110Y3212090D01*
X86590684Y3164310D01*
X86573029Y3122882D01*
X86559059Y3109587D01*
X86544528Y3102268D01*
X86522012Y3096605D01*
X86487950Y3092401D01*
X86438781Y3089456D01*
X86370942Y3087573D01*
X86280872Y3086554D01*
X86165011Y3086199D01*
X86138817Y3086190D01*
X86021013Y3086268D01*
X85929570Y3086693D01*
X85860788Y3087758D01*
X85810970Y3089755D01*
X85776414Y3092974D01*
X85753424Y3097708D01*
X85738300Y3104247D01*
X85727343Y3112883D01*
X85721332Y3119084D01*
X85712284Y3130067D01*
X85705216Y3143672D01*
X85699883Y3163468D01*
X85696042Y3193022D01*
X85693449Y3235903D01*
X85691861Y3295679D01*
X85691035Y3375917D01*
X85690726Y3480185D01*
X85690688Y3567944D01*
X85690782Y3690916D01*
X85691231Y3787455D01*
X85692282Y3861185D01*
X85694184Y3915734D01*
X85697183Y3954725D01*
X85701529Y3981785D01*
X85707468Y4000540D01*
X85715249Y4014614D01*
X85721838Y4023513D01*
X85752988Y4063114D01*
X86139322Y4063114D01*
X86267890Y4062857D01*
G36*
X87316957Y4062837D02*
X87488675Y4057031D01*
X87634729Y4039423D01*
X87757527Y4008961D01*
X87859477Y3964589D01*
X87942988Y3905253D01*
X88010467Y3829900D01*
X88064323Y3737474D01*
X88065382Y3735220D01*
X88097523Y3652500D01*
X88108975Y3579240D01*
X88099694Y3505512D01*
X88069635Y3421389D01*
X88063935Y3408587D01*
X88025059Y3333662D01*
X87981369Y3275767D01*
X87924980Y3226552D01*
X87848012Y3177667D01*
X87843540Y3175115D01*
X87776537Y3142929D01*
X87700805Y3118892D01*
X87611478Y3102173D01*
X87503689Y3091945D01*
X87372572Y3087378D01*
X87326246Y3086981D01*
X87105650Y3086190D01*
X87074500Y3125791D01*
X87065260Y3138813D01*
X87058052Y3154020D01*
X87052624Y3175058D01*
X87048725Y3205574D01*
X87046103Y3249213D01*
X87045248Y3281575D01*
X87253765Y3281575D01*
X87378756Y3281575D01*
X87451897Y3283714D01*
X87526981Y3289343D01*
X87588604Y3297281D01*
X87592323Y3297949D01*
X87701773Y3327312D01*
X87786668Y3371427D01*
X87849692Y3432341D01*
X87893534Y3512100D01*
X87901157Y3533240D01*
X87908630Y3566162D01*
X87905395Y3598688D01*
X87889653Y3641960D01*
X87880164Y3663217D01*
X87849091Y3719704D01*
X87811653Y3759333D01*
X87770461Y3786930D01*
X87687950Y3822842D01*
X87582353Y3848856D01*
X87459338Y3863836D01*
X87370244Y3867132D01*
X87253765Y3867729D01*
X87253765Y3281575D01*
X87045248Y3281575D01*
X87044506Y3309624D01*
X87043684Y3390452D01*
X87043384Y3495343D01*
X87043350Y3577362D01*
X87043350Y3989332D01*
X87080241Y4026223D01*
X87096614Y4041176D01*
X87114317Y4051416D01*
X87139039Y4057823D01*
X87176468Y4061277D01*
X87232293Y4062657D01*
X87312202Y4062843D01*
X87316957Y4062837D01*
X87316957Y4062837D01*
G37*
X87316957Y4062837D02*
X87488675Y4057031D01*
X87634729Y4039423D01*
X87757527Y4008961D01*
X87859477Y3964589D01*
X87942988Y3905253D01*
X88010467Y3829900D01*
X88064323Y3737474D01*
X88065382Y3735220D01*
X88097523Y3652500D01*
X88108975Y3579240D01*
X88099694Y3505512D01*
X88069635Y3421389D01*
X88063935Y3408587D01*
X88025059Y3333662D01*
X87981369Y3275767D01*
X87924980Y3226552D01*
X87848012Y3177667D01*
X87843540Y3175115D01*
X87776537Y3142929D01*
X87700805Y3118892D01*
X87611478Y3102173D01*
X87503689Y3091945D01*
X87372572Y3087378D01*
X87326246Y3086981D01*
X87105650Y3086190D01*
X87074500Y3125791D01*
X87065260Y3138813D01*
X87058052Y3154020D01*
X87052624Y3175058D01*
X87048725Y3205574D01*
X87046103Y3249213D01*
X87045248Y3281575D01*
X87253765Y3281575D01*
X87378756Y3281575D01*
X87451897Y3283714D01*
X87526981Y3289343D01*
X87588604Y3297281D01*
X87592323Y3297949D01*
X87701773Y3327312D01*
X87786668Y3371427D01*
X87849692Y3432341D01*
X87893534Y3512100D01*
X87901157Y3533240D01*
X87908630Y3566162D01*
X87905395Y3598688D01*
X87889653Y3641960D01*
X87880164Y3663217D01*
X87849091Y3719704D01*
X87811653Y3759333D01*
X87770461Y3786930D01*
X87687950Y3822842D01*
X87582353Y3848856D01*
X87459338Y3863836D01*
X87370244Y3867132D01*
X87253765Y3867729D01*
X87253765Y3281575D01*
X87045248Y3281575D01*
X87044506Y3309624D01*
X87043684Y3390452D01*
X87043384Y3495343D01*
X87043350Y3577362D01*
X87043350Y3989332D01*
X87080241Y4026223D01*
X87096614Y4041176D01*
X87114317Y4051416D01*
X87139039Y4057823D01*
X87176468Y4061277D01*
X87232293Y4062657D01*
X87312202Y4062843D01*
X87316957Y4062837D01*
G36*
X90946721Y4060494D02*
X90972802Y4051174D01*
X90973808Y4050718D01*
X91009226Y4023690D01*
X91028740Y3995888D01*
X91032558Y3982852D01*
X91032369Y3965532D01*
X91026996Y3940857D01*
X91015262Y3905760D01*
X90995987Y3857171D01*
X90967996Y3792022D01*
X90930110Y3707243D01*
X90881152Y3599765D01*
X90854205Y3541021D01*
X90805544Y3436151D01*
X90759864Y3339710D01*
X90718908Y3255226D01*
X90684420Y3186224D01*
X90658143Y3136230D01*
X90641820Y3108770D01*
X90638590Y3104977D01*
X90597263Y3088244D01*
X90550583Y3090485D01*
X90513144Y3110837D01*
X90511618Y3112492D01*
X90496725Y3135038D01*
X90471743Y3178953D01*
X90439753Y3238584D01*
X90403834Y3308278D01*
X90390926Y3333961D01*
X90293488Y3529127D01*
X90187280Y3317117D01*
X90149371Y3243863D01*
X90114201Y3180334D01*
X90084642Y3131393D01*
X90063568Y3101902D01*
X90056426Y3095648D01*
X90000912Y3087179D01*
X89955103Y3104977D01*
X89941628Y3123999D01*
X89918310Y3166275D01*
X89887051Y3227644D01*
X89849754Y3303948D01*
X89808320Y3391025D01*
X89764652Y3484717D01*
X89720652Y3580863D01*
X89678222Y3675303D01*
X89639264Y3763879D01*
X89605681Y3842428D01*
X89579375Y3906793D01*
X89562248Y3952813D01*
X89556203Y3976327D01*
X89556265Y3977179D01*
X89570974Y4006768D01*
X89600376Y4036904D01*
X89602107Y4038216D01*
X89638244Y4058642D01*
X89671668Y4058444D01*
X89684196Y4054593D01*
X89699461Y4046271D01*
X89715672Y4029899D01*
X89734773Y4002082D01*
X89758709Y3959424D01*
X89789425Y3898529D01*
X89828865Y3815999D01*
X89864432Y3739817D01*
X89905351Y3651510D01*
X89942018Y3572098D01*
X89972528Y3505728D01*
X89994976Y3456549D01*
X90007457Y3428711D01*
X90009277Y3424356D01*
X90017464Y3431475D01*
X90036279Y3461283D01*
X90063220Y3509428D01*
X90095782Y3571561D01*
X90108740Y3597196D01*
X90152634Y3683759D01*
X90186485Y3746799D01*
X90213071Y3789982D01*
X90235169Y3816972D01*
X90255558Y3831436D01*
X90277014Y3837037D01*
X90290997Y3837670D01*
X90315662Y3835484D01*
X90337276Y3826445D01*
X90358752Y3806827D01*
X90383004Y3772907D01*
X90412944Y3720962D01*
X90451487Y3647266D01*
X90472752Y3605344D01*
X90507246Y3538530D01*
X90537330Y3483123D01*
X90560351Y3443797D01*
X90573654Y3425228D01*
X90575463Y3424455D01*
X90584054Y3439069D01*
X90603288Y3477017D01*
X90631239Y3534328D01*
X90665981Y3607028D01*
X90705587Y3691148D01*
X90725070Y3732930D01*
X90775754Y3840761D01*
X90816567Y3923734D01*
X90849628Y3984558D01*
X90877055Y4025939D01*
X90900966Y4050584D01*
X90923482Y4061200D01*
X90946721Y4060494D01*
X90946721Y4060494D01*
G37*
X90946721Y4060494D02*
X90972802Y4051174D01*
X90973808Y4050718D01*
X91009226Y4023690D01*
X91028740Y3995888D01*
X91032558Y3982852D01*
X91032369Y3965532D01*
X91026996Y3940857D01*
X91015262Y3905760D01*
X90995987Y3857171D01*
X90967996Y3792022D01*
X90930110Y3707243D01*
X90881152Y3599765D01*
X90854205Y3541021D01*
X90805544Y3436151D01*
X90759864Y3339710D01*
X90718908Y3255226D01*
X90684420Y3186224D01*
X90658143Y3136230D01*
X90641820Y3108770D01*
X90638590Y3104977D01*
X90597263Y3088244D01*
X90550583Y3090485D01*
X90513144Y3110837D01*
X90511618Y3112492D01*
X90496725Y3135038D01*
X90471743Y3178953D01*
X90439753Y3238584D01*
X90403834Y3308278D01*
X90390926Y3333961D01*
X90293488Y3529127D01*
X90187280Y3317117D01*
X90149371Y3243863D01*
X90114201Y3180334D01*
X90084642Y3131393D01*
X90063568Y3101902D01*
X90056426Y3095648D01*
X90000912Y3087179D01*
X89955103Y3104977D01*
X89941628Y3123999D01*
X89918310Y3166275D01*
X89887051Y3227644D01*
X89849754Y3303948D01*
X89808320Y3391025D01*
X89764652Y3484717D01*
X89720652Y3580863D01*
X89678222Y3675303D01*
X89639264Y3763879D01*
X89605681Y3842428D01*
X89579375Y3906793D01*
X89562248Y3952813D01*
X89556203Y3976327D01*
X89556265Y3977179D01*
X89570974Y4006768D01*
X89600376Y4036904D01*
X89602107Y4038216D01*
X89638244Y4058642D01*
X89671668Y4058444D01*
X89684196Y4054593D01*
X89699461Y4046271D01*
X89715672Y4029899D01*
X89734773Y4002082D01*
X89758709Y3959424D01*
X89789425Y3898529D01*
X89828865Y3815999D01*
X89864432Y3739817D01*
X89905351Y3651510D01*
X89942018Y3572098D01*
X89972528Y3505728D01*
X89994976Y3456549D01*
X90007457Y3428711D01*
X90009277Y3424356D01*
X90017464Y3431475D01*
X90036279Y3461283D01*
X90063220Y3509428D01*
X90095782Y3571561D01*
X90108740Y3597196D01*
X90152634Y3683759D01*
X90186485Y3746799D01*
X90213071Y3789982D01*
X90235169Y3816972D01*
X90255558Y3831436D01*
X90277014Y3837037D01*
X90290997Y3837670D01*
X90315662Y3835484D01*
X90337276Y3826445D01*
X90358752Y3806827D01*
X90383004Y3772907D01*
X90412944Y3720962D01*
X90451487Y3647266D01*
X90472752Y3605344D01*
X90507246Y3538530D01*
X90537330Y3483123D01*
X90560351Y3443797D01*
X90573654Y3425228D01*
X90575463Y3424455D01*
X90584054Y3439069D01*
X90603288Y3477017D01*
X90631239Y3534328D01*
X90665981Y3607028D01*
X90705587Y3691148D01*
X90725070Y3732930D01*
X90775754Y3840761D01*
X90816567Y3923734D01*
X90849628Y3984558D01*
X90877055Y4025939D01*
X90900966Y4050584D01*
X90923482Y4061200D01*
X90946721Y4060494D01*
G36*
X91537778Y4054047D02*
X91569348Y4034382D01*
X91604830Y4005651D01*
X91604830Y3577558D01*
X91604717Y3452334D01*
X91604233Y3353677D01*
X91603160Y3278094D01*
X91601282Y3222091D01*
X91598380Y3182177D01*
X91594237Y3154858D01*
X91588636Y3136643D01*
X91581359Y3124038D01*
X91576198Y3117828D01*
X91534342Y3090544D01*
X91486679Y3091657D01*
X91444927Y3114922D01*
X91409445Y3143653D01*
X91409445Y4005651D01*
X91444927Y4034382D01*
X91479172Y4055282D01*
X91507137Y4063114D01*
X91537778Y4054047D01*
X91537778Y4054047D01*
G37*
X91537778Y4054047D02*
X91569348Y4034382D01*
X91604830Y4005651D01*
X91604830Y3577558D01*
X91604717Y3452334D01*
X91604233Y3353677D01*
X91603160Y3278094D01*
X91601282Y3222091D01*
X91598380Y3182177D01*
X91594237Y3154858D01*
X91588636Y3136643D01*
X91581359Y3124038D01*
X91576198Y3117828D01*
X91534342Y3090544D01*
X91486679Y3091657D01*
X91444927Y3114922D01*
X91409445Y3143653D01*
X91409445Y4005651D01*
X91444927Y4034382D01*
X91479172Y4055282D01*
X91507137Y4063114D01*
X91537778Y4054047D01*
G36*
X92568851Y4062985D02*
X92673639Y4062481D01*
X92754973Y4061428D01*
X92816154Y4059648D01*
X92860485Y4056967D01*
X92891268Y4053210D01*
X92911805Y4048199D01*
X92925399Y4041761D01*
X92931977Y4036812D01*
X92966118Y3993495D01*
X92970248Y3948521D01*
X92949150Y3907664D01*
X92935353Y3891338D01*
X92920506Y3880206D01*
X92898989Y3873274D01*
X92865182Y3869547D01*
X92813466Y3868030D01*
X92738221Y3867730D01*
X92723443Y3867729D01*
X92529149Y3867729D01*
X92529149Y3507019D01*
X92529021Y3393323D01*
X92528440Y3305839D01*
X92527110Y3240722D01*
X92524734Y3194126D01*
X92521018Y3162205D01*
X92515666Y3141112D01*
X92508381Y3127001D01*
X92499090Y3116250D01*
X92455245Y3089828D01*
X92409474Y3091910D01*
X92367964Y3122055D01*
X92364915Y3125791D01*
X92354986Y3139914D01*
X92347422Y3156438D01*
X92341903Y3179378D01*
X92338107Y3212751D01*
X92335716Y3260569D01*
X92334408Y3326850D01*
X92333865Y3415606D01*
X92333765Y3516561D01*
X92333765Y3867729D01*
X92148224Y3867729D01*
X92068601Y3868268D01*
X92013478Y3870367D01*
X91977306Y3874753D01*
X91954536Y3882148D01*
X91939621Y3893279D01*
X91937810Y3895214D01*
X91916032Y3939467D01*
X91917958Y3989495D01*
X91942995Y4033054D01*
X91952678Y4041504D01*
X91965162Y4048203D01*
X91983777Y4053355D01*
X92011851Y4057163D01*
X92052715Y4059827D01*
X92109696Y4061552D01*
X92186126Y4062540D01*
X92285331Y4062992D01*
X92410643Y4063112D01*
X92437307Y4063114D01*
X92568851Y4062985D01*
X92568851Y4062985D01*
G37*
X92568851Y4062985D02*
X92673639Y4062481D01*
X92754973Y4061428D01*
X92816154Y4059648D01*
X92860485Y4056967D01*
X92891268Y4053210D01*
X92911805Y4048199D01*
X92925399Y4041761D01*
X92931977Y4036812D01*
X92966118Y3993495D01*
X92970248Y3948521D01*
X92949150Y3907664D01*
X92935353Y3891338D01*
X92920506Y3880206D01*
X92898989Y3873274D01*
X92865182Y3869547D01*
X92813466Y3868030D01*
X92738221Y3867730D01*
X92723443Y3867729D01*
X92529149Y3867729D01*
X92529149Y3507019D01*
X92529021Y3393323D01*
X92528440Y3305839D01*
X92527110Y3240722D01*
X92524734Y3194126D01*
X92521018Y3162205D01*
X92515666Y3141112D01*
X92508381Y3127001D01*
X92499090Y3116250D01*
X92455245Y3089828D01*
X92409474Y3091910D01*
X92367964Y3122055D01*
X92364915Y3125791D01*
X92354986Y3139914D01*
X92347422Y3156438D01*
X92341903Y3179378D01*
X92338107Y3212751D01*
X92335716Y3260569D01*
X92334408Y3326850D01*
X92333865Y3415606D01*
X92333765Y3516561D01*
X92333765Y3867729D01*
X92148224Y3867729D01*
X92068601Y3868268D01*
X92013478Y3870367D01*
X91977306Y3874753D01*
X91954536Y3882148D01*
X91939621Y3893279D01*
X91937810Y3895214D01*
X91916032Y3939467D01*
X91917958Y3989495D01*
X91942995Y4033054D01*
X91952678Y4041504D01*
X91965162Y4048203D01*
X91983777Y4053355D01*
X92011851Y4057163D01*
X92052715Y4059827D01*
X92109696Y4061552D01*
X92186126Y4062540D01*
X92285331Y4062992D01*
X92410643Y4063112D01*
X92437307Y4063114D01*
X92568851Y4062985D01*
G36*
X94254033Y4055836D02*
X94295809Y4026223D01*
X94332699Y3989332D01*
X94332699Y3577362D01*
X94332603Y3455038D01*
X94332146Y3359126D01*
X94331077Y3285980D01*
X94329145Y3231954D01*
X94326097Y3193401D01*
X94321683Y3166676D01*
X94315650Y3148130D01*
X94307748Y3134119D01*
X94301549Y3125791D01*
X94260635Y3093075D01*
X94213656Y3089524D01*
X94170718Y3109587D01*
X94156530Y3121432D01*
X94147046Y3137166D01*
X94141325Y3162502D01*
X94138427Y3203154D01*
X94137412Y3264836D01*
X94137315Y3312486D01*
X94137315Y3491989D01*
X93476013Y3491989D01*
X93476013Y3328691D01*
X93475329Y3254019D01*
X93472593Y3202700D01*
X93466778Y3168047D01*
X93456858Y3143369D01*
X93444863Y3125791D01*
X93403720Y3093167D01*
X93357191Y3089304D01*
X93312647Y3112492D01*
X93300486Y3124648D01*
X93291897Y3140763D01*
X93286232Y3165864D01*
X93282843Y3204980D01*
X93281082Y3263138D01*
X93280302Y3345366D01*
X93280210Y3364238D01*
X93279566Y3519167D01*
X93279234Y3646850D01*
X93279342Y3750097D01*
X93280019Y3831721D01*
X93281392Y3894532D01*
X93283590Y3941343D01*
X93286740Y3974965D01*
X93290972Y3998209D01*
X93296412Y4013888D01*
X93303189Y4024813D01*
X93310688Y4033054D01*
X93353107Y4059417D01*
X93397346Y4055836D01*
X93439122Y4026223D01*
X93456027Y4007117D01*
X93466803Y3986013D01*
X93472815Y3955956D01*
X93475430Y3909991D01*
X93476013Y3841164D01*
X93476013Y3687374D01*
X94137315Y3687374D01*
X94137315Y3845185D01*
X94137990Y3917888D01*
X94140700Y3966979D01*
X94146475Y3998888D01*
X94156343Y4020046D01*
X94167374Y4033054D01*
X94209793Y4059417D01*
X94254033Y4055836D01*
X94254033Y4055836D01*
G37*
X94254033Y4055836D02*
X94295809Y4026223D01*
X94332699Y3989332D01*
X94332699Y3577362D01*
X94332603Y3455038D01*
X94332146Y3359126D01*
X94331077Y3285980D01*
X94329145Y3231954D01*
X94326097Y3193401D01*
X94321683Y3166676D01*
X94315650Y3148130D01*
X94307748Y3134119D01*
X94301549Y3125791D01*
X94260635Y3093075D01*
X94213656Y3089524D01*
X94170718Y3109587D01*
X94156530Y3121432D01*
X94147046Y3137166D01*
X94141325Y3162502D01*
X94138427Y3203154D01*
X94137412Y3264836D01*
X94137315Y3312486D01*
X94137315Y3491989D01*
X93476013Y3491989D01*
X93476013Y3328691D01*
X93475329Y3254019D01*
X93472593Y3202700D01*
X93466778Y3168047D01*
X93456858Y3143369D01*
X93444863Y3125791D01*
X93403720Y3093167D01*
X93357191Y3089304D01*
X93312647Y3112492D01*
X93300486Y3124648D01*
X93291897Y3140763D01*
X93286232Y3165864D01*
X93282843Y3204980D01*
X93281082Y3263138D01*
X93280302Y3345366D01*
X93280210Y3364238D01*
X93279566Y3519167D01*
X93279234Y3646850D01*
X93279342Y3750097D01*
X93280019Y3831721D01*
X93281392Y3894532D01*
X93283590Y3941343D01*
X93286740Y3974965D01*
X93290972Y3998209D01*
X93296412Y4013888D01*
X93303189Y4024813D01*
X93310688Y4033054D01*
X93353107Y4059417D01*
X93397346Y4055836D01*
X93439122Y4026223D01*
X93456027Y4007117D01*
X93466803Y3986013D01*
X93472815Y3955956D01*
X93475430Y3909991D01*
X93476013Y3841164D01*
X93476013Y3687374D01*
X94137315Y3687374D01*
X94137315Y3845185D01*
X94137990Y3917888D01*
X94140700Y3966979D01*
X94146475Y3998888D01*
X94156343Y4020046D01*
X94167374Y4033054D01*
X94209793Y4059417D01*
X94254033Y4055836D01*
G36*
X82038498Y10427036D02*
X82052964Y10275341D01*
X82095057Y10132057D01*
X82162827Y10000253D01*
X82254321Y9883002D01*
X82367585Y9783373D01*
X82496710Y9706331D01*
X82638192Y9653581D01*
X82780666Y9628859D01*
X82921324Y9630376D01*
X83057356Y9656343D01*
X83185953Y9704970D01*
X83304306Y9774467D01*
X83409606Y9863046D01*
X83499043Y9968917D01*
X83569808Y10090290D01*
X83619091Y10225377D01*
X83644085Y10372386D01*
X83646664Y10438816D01*
X83646664Y10555895D01*
X83715800Y10555895D01*
X83764139Y10552107D01*
X83799949Y10536398D01*
X83836037Y10504794D01*
X83887137Y10453693D01*
X83887137Y7535922D01*
X83887125Y7186922D01*
X83887082Y6866728D01*
X83886997Y6574086D01*
X83886859Y6307742D01*
X83886658Y6066443D01*
X83886382Y5848935D01*
X83886020Y5653965D01*
X83885562Y5480280D01*
X83884997Y5326625D01*
X83884314Y5191747D01*
X83883503Y5074392D01*
X83882551Y4973307D01*
X83881449Y4887239D01*
X83880185Y4814933D01*
X83878750Y4755137D01*
X83877131Y4706596D01*
X83875318Y4668057D01*
X83873300Y4638267D01*
X83871066Y4615971D01*
X83868606Y4599917D01*
X83865908Y4588850D01*
X83862962Y4581518D01*
X83861521Y4579055D01*
X83855979Y4569720D01*
X83851273Y4561137D01*
X83846175Y4553276D01*
X83839455Y4546105D01*
X83829884Y4539593D01*
X83816234Y4533707D01*
X83797275Y4528418D01*
X83771778Y4523692D01*
X83738515Y4519500D01*
X83696256Y4515809D01*
X83643772Y4512588D01*
X83579834Y4509806D01*
X83503213Y4507430D01*
X83412680Y4505431D01*
X83307006Y4503776D01*
X83184962Y4502433D01*
X83045319Y4501373D01*
X82886848Y4500562D01*
X82708320Y4499970D01*
X82508505Y4499565D01*
X82286175Y4499316D01*
X82040101Y4499191D01*
X81769054Y4499159D01*
X81471804Y4499189D01*
X81147123Y4499249D01*
X80793782Y4499308D01*
X80742679Y4499314D01*
X80387235Y4499371D01*
X80060626Y4499465D01*
X79761628Y4499605D01*
X79489016Y4499801D01*
X79241567Y4500063D01*
X79018056Y4500400D01*
X78817260Y4500821D01*
X78637954Y4501337D01*
X78478913Y4501956D01*
X78338914Y4502689D01*
X78216733Y4503545D01*
X78111145Y4504534D01*
X78020927Y4505666D01*
X77944854Y4506949D01*
X77881701Y4508394D01*
X77830245Y4510011D01*
X77789262Y4511808D01*
X77757528Y4513795D01*
X77733818Y4515983D01*
X77716908Y4518381D01*
X77705574Y4520997D01*
X77699772Y4523219D01*
X77688506Y4527972D01*
X77678162Y4531482D01*
X77668703Y4534992D01*
X77660088Y4539747D01*
X77652278Y4546991D01*
X77645235Y4557969D01*
X77638918Y4573925D01*
X77633289Y4596105D01*
X77628308Y4625751D01*
X77623936Y4664109D01*
X77620134Y4712423D01*
X77616862Y4771938D01*
X77614081Y4843897D01*
X77611753Y4929547D01*
X77609837Y5030129D01*
X77608295Y5146891D01*
X77607086Y5281075D01*
X77606173Y5433926D01*
X77605515Y5606689D01*
X77605074Y5800608D01*
X77604809Y6016927D01*
X77604684Y6256892D01*
X77604656Y6521746D01*
X77604687Y6812734D01*
X77604739Y7131100D01*
X77604771Y7478090D01*
X77604771Y7534208D01*
X77604753Y7884219D01*
X77604719Y8205424D01*
X77604705Y8499077D01*
X77604744Y8766432D01*
X77604869Y9008743D01*
X77605117Y9227263D01*
X77605520Y9423247D01*
X77606113Y9597947D01*
X77606885Y9744297D01*
X78010071Y9744297D01*
X78063046Y9667285D01*
X78077918Y9646292D01*
X78091325Y9627704D01*
X78103344Y9609940D01*
X78114050Y9591422D01*
X78123517Y9570569D01*
X78131823Y9545803D01*
X78139042Y9515543D01*
X78145251Y9478210D01*
X78150524Y9432225D01*
X78154938Y9376008D01*
X78158568Y9307980D01*
X78161490Y9226560D01*
X78163779Y9130170D01*
X78165511Y9017230D01*
X78166762Y8886161D01*
X78167606Y8735382D01*
X78168121Y8563314D01*
X78168381Y8368379D01*
X78168463Y8148995D01*
X78168441Y7903584D01*
X78168392Y7630566D01*
X78168380Y7467315D01*
X78168412Y7178477D01*
X78168457Y6918117D01*
X78168441Y6684654D01*
X78168289Y6476506D01*
X78167926Y6292091D01*
X78167277Y6129829D01*
X78166267Y5988138D01*
X78164821Y5865436D01*
X78162865Y5760143D01*
X78160324Y5670677D01*
X78157123Y5595457D01*
X78153187Y5532901D01*
X78148440Y5481428D01*
X78142810Y5439457D01*
X78136219Y5405407D01*
X78128594Y5377695D01*
X78119860Y5354742D01*
X78109941Y5334964D01*
X78098764Y5316782D01*
X78086253Y5298614D01*
X78072332Y5278878D01*
X78064223Y5267041D01*
X78012602Y5190332D01*
X78720306Y5190332D01*
X78884394Y5190379D01*
X79020853Y5190579D01*
X79132111Y5191027D01*
X79220599Y5191816D01*
X79288744Y5193040D01*
X79338977Y5194791D01*
X79373727Y5197163D01*
X79395422Y5200250D01*
X79406493Y5204144D01*
X79409369Y5208940D01*
X79406479Y5214730D01*
X79404887Y5216634D01*
X79371403Y5265990D01*
X79336924Y5336287D01*
X79305491Y5418833D01*
X79294482Y5453999D01*
X79288336Y5477885D01*
X79283142Y5505925D01*
X79278790Y5540895D01*
X79275172Y5585571D01*
X79272177Y5642731D01*
X79269697Y5715150D01*
X79267622Y5805605D01*
X79265843Y5916872D01*
X79264250Y6051729D01*
X79262734Y6212951D01*
X79262232Y6272463D01*
X79260878Y6439084D01*
X79259868Y6578034D01*
X79259279Y6691699D01*
X79259189Y6782464D01*
X79259676Y6852716D01*
X79260817Y6904841D01*
X79262690Y6941226D01*
X79265373Y6964256D01*
X79268944Y6976318D01*
X79273481Y6979799D01*
X79279061Y6977084D01*
X79285017Y6971338D01*
X79298803Y6954117D01*
X79328170Y6915409D01*
X79371041Y6858050D01*
X79425338Y6784879D01*
X79488983Y6698734D01*
X79559897Y6602451D01*
X79636004Y6498868D01*
X79715225Y6390823D01*
X79795482Y6281153D01*
X79874698Y6172696D01*
X79950794Y6068290D01*
X80021693Y5970771D01*
X80085317Y5882977D01*
X80139587Y5807746D01*
X80182427Y5747916D01*
X80211758Y5706323D01*
X80217840Y5697493D01*
X80248356Y5648362D01*
X80284048Y5584470D01*
X80317863Y5518518D01*
X80322151Y5509623D01*
X80351012Y5445458D01*
X80367768Y5395450D01*
X80375397Y5347753D01*
X80376886Y5291782D01*
X80376042Y5190332D01*
X81913016Y5190332D01*
X81791645Y5315122D01*
X81729341Y5381550D01*
X81662390Y5456744D01*
X81601088Y5528997D01*
X81573895Y5562750D01*
X81533371Y5615399D01*
X81480044Y5686243D01*
X81415473Y5773113D01*
X81341219Y5873838D01*
X81258839Y5986251D01*
X81169894Y6108181D01*
X81075942Y6237458D01*
X80978542Y6371914D01*
X80879255Y6509379D01*
X80779639Y6647683D01*
X80681253Y6784657D01*
X80585656Y6918131D01*
X80494408Y7045936D01*
X80409068Y7165903D01*
X80331195Y7275861D01*
X80262349Y7373642D01*
X80204088Y7457076D01*
X80157971Y7523994D01*
X80125559Y7572226D01*
X80108410Y7599602D01*
X80106070Y7605064D01*
X80116666Y7620143D01*
X80144352Y7656330D01*
X80187311Y7711359D01*
X80243730Y7782967D01*
X80311794Y7868889D01*
X80389687Y7966862D01*
X80475595Y8074622D01*
X80567703Y8189905D01*
X80664197Y8310446D01*
X80763261Y8433981D01*
X80842782Y8532978D01*
X82188794Y8532978D01*
X82196662Y8515727D01*
X82215740Y8486105D01*
X82217134Y8484132D01*
X82242147Y8443987D01*
X82268304Y8394951D01*
X82273495Y8384119D01*
X82278203Y8372897D01*
X82282363Y8359426D01*
X82286017Y8341850D01*
X82289205Y8318315D01*
X82291965Y8286966D01*
X82294339Y8245948D01*
X82296367Y8193408D01*
X82298088Y8127489D01*
X82299544Y8046337D01*
X82300773Y7948098D01*
X82301816Y7830917D01*
X82302714Y7692939D01*
X82303506Y7532309D01*
X82304232Y7347172D01*
X82304933Y7135674D01*
X82305643Y6897551D01*
X82306360Y6651093D01*
X82306938Y6432831D01*
X82307289Y6240905D01*
X82307322Y6073453D01*
X82306948Y5928611D01*
X82306077Y5804520D01*
X82304619Y5699316D01*
X82302484Y5611138D01*
X82299583Y5538124D01*
X82295826Y5478412D01*
X82291123Y5430140D01*
X82285385Y5391446D01*
X82278521Y5360469D01*
X82270442Y5335346D01*
X82261058Y5314215D01*
X82250280Y5295215D01*
X82238017Y5276484D01*
X82226700Y5259885D01*
X82203886Y5224878D01*
X82190377Y5201467D01*
X82188794Y5197180D01*
X82203315Y5195746D01*
X82244845Y5194414D01*
X82310331Y5193215D01*
X82396725Y5192183D01*
X82500974Y5191348D01*
X82620028Y5190743D01*
X82750836Y5190400D01*
X82842581Y5190332D01*
X82982365Y5190626D01*
X83111296Y5191467D01*
X83226462Y5192797D01*
X83324950Y5194557D01*
X83403844Y5196688D01*
X83460232Y5199132D01*
X83491200Y5201829D01*
X83496368Y5203522D01*
X83486120Y5223363D01*
X83475471Y5234054D01*
X83457934Y5256856D01*
X83434983Y5297131D01*
X83419110Y5329829D01*
X83383646Y5408261D01*
X83379552Y6975096D01*
X83375458Y8541930D01*
X82782126Y8541930D01*
X82651897Y8541711D01*
X82531550Y8541087D01*
X82424288Y8540107D01*
X82333313Y8538817D01*
X82261827Y8537268D01*
X82213034Y8535506D01*
X82190135Y8533581D01*
X82188794Y8532978D01*
X80842782Y8532978D01*
X80863080Y8558247D01*
X80961840Y8680979D01*
X81057727Y8799913D01*
X81148924Y8912786D01*
X81233618Y9017332D01*
X81309993Y9111289D01*
X81376236Y9192392D01*
X81430530Y9258376D01*
X81453382Y9285895D01*
X81568268Y9419911D01*
X81670249Y9530757D01*
X81761865Y9621051D01*
X81845654Y9693409D01*
X81858143Y9703218D01*
X81910747Y9743964D01*
X81157356Y9744130D01*
X80403966Y9744297D01*
X80411007Y9680421D01*
X80406610Y9604076D01*
X80377944Y9513178D01*
X80324724Y9407003D01*
X80264403Y9310768D01*
X80242811Y9280619D01*
X80205462Y9230619D01*
X80154583Y9163618D01*
X80092400Y9082469D01*
X80021139Y8990022D01*
X79943028Y8889127D01*
X79860292Y8782637D01*
X79775157Y8673402D01*
X79689851Y8564273D01*
X79606599Y8458101D01*
X79527628Y8357737D01*
X79455165Y8266033D01*
X79391435Y8185839D01*
X79338665Y8120006D01*
X79299082Y8071386D01*
X79274911Y8042830D01*
X79270839Y8038439D01*
X79267032Y8049098D01*
X79264085Y8089430D01*
X79262003Y8159060D01*
X79260791Y8257613D01*
X79260454Y8384716D01*
X79260997Y8539992D01*
X79262207Y8699741D01*
X79263967Y8875629D01*
X79265997Y9024393D01*
X79268627Y9148968D01*
X79272189Y9252289D01*
X79277014Y9337291D01*
X79283433Y9406908D01*
X79291776Y9464076D01*
X79302376Y9511729D01*
X79315563Y9552803D01*
X79331668Y9590233D01*
X79351023Y9626953D01*
X79370570Y9660289D01*
X79421157Y9744297D01*
X78010071Y9744297D01*
X77606885Y9744297D01*
X77606929Y9752618D01*
X77608002Y9888513D01*
X77609367Y10006886D01*
X77611058Y10108991D01*
X77613108Y10196081D01*
X77615552Y10269410D01*
X77618424Y10330231D01*
X77621758Y10379800D01*
X77625587Y10419368D01*
X77629946Y10450190D01*
X77634869Y10473520D01*
X77640390Y10490612D01*
X77646542Y10502718D01*
X77653361Y10511093D01*
X77660880Y10516990D01*
X77669133Y10521664D01*
X77678153Y10526367D01*
X77686136Y10531118D01*
X77693103Y10534548D01*
X77703988Y10537648D01*
X77720248Y10540435D01*
X77743341Y10542926D01*
X77774723Y10545137D01*
X77815852Y10547084D01*
X77868186Y10548784D01*
X77933181Y10550253D01*
X78012295Y10551508D01*
X78106984Y10552566D01*
X78218708Y10553442D01*
X78348921Y10554153D01*
X78499083Y10554715D01*
X78670650Y10555146D01*
X78865079Y10555461D01*
X79083828Y10555677D01*
X79328354Y10555810D01*
X79600115Y10555877D01*
X79881224Y10555895D01*
X82038498Y10555895D01*
X82038498Y10427036D01*
X82038498Y10427036D01*
G37*
X82038498Y10427036D02*
X82052964Y10275341D01*
X82095057Y10132057D01*
X82162827Y10000253D01*
X82254321Y9883002D01*
X82367585Y9783373D01*
X82496710Y9706331D01*
X82638192Y9653581D01*
X82780666Y9628859D01*
X82921324Y9630376D01*
X83057356Y9656343D01*
X83185953Y9704970D01*
X83304306Y9774467D01*
X83409606Y9863046D01*
X83499043Y9968917D01*
X83569808Y10090290D01*
X83619091Y10225377D01*
X83644085Y10372386D01*
X83646664Y10438816D01*
X83646664Y10555895D01*
X83715800Y10555895D01*
X83764139Y10552107D01*
X83799949Y10536398D01*
X83836037Y10504794D01*
X83887137Y10453693D01*
X83887137Y7535922D01*
X83887125Y7186922D01*
X83887082Y6866728D01*
X83886997Y6574086D01*
X83886859Y6307742D01*
X83886658Y6066443D01*
X83886382Y5848935D01*
X83886020Y5653965D01*
X83885562Y5480280D01*
X83884997Y5326625D01*
X83884314Y5191747D01*
X83883503Y5074392D01*
X83882551Y4973307D01*
X83881449Y4887239D01*
X83880185Y4814933D01*
X83878750Y4755137D01*
X83877131Y4706596D01*
X83875318Y4668057D01*
X83873300Y4638267D01*
X83871066Y4615971D01*
X83868606Y4599917D01*
X83865908Y4588850D01*
X83862962Y4581518D01*
X83861521Y4579055D01*
X83855979Y4569720D01*
X83851273Y4561137D01*
X83846175Y4553276D01*
X83839455Y4546105D01*
X83829884Y4539593D01*
X83816234Y4533707D01*
X83797275Y4528418D01*
X83771778Y4523692D01*
X83738515Y4519500D01*
X83696256Y4515809D01*
X83643772Y4512588D01*
X83579834Y4509806D01*
X83503213Y4507430D01*
X83412680Y4505431D01*
X83307006Y4503776D01*
X83184962Y4502433D01*
X83045319Y4501373D01*
X82886848Y4500562D01*
X82708320Y4499970D01*
X82508505Y4499565D01*
X82286175Y4499316D01*
X82040101Y4499191D01*
X81769054Y4499159D01*
X81471804Y4499189D01*
X81147123Y4499249D01*
X80793782Y4499308D01*
X80742679Y4499314D01*
X80387235Y4499371D01*
X80060626Y4499465D01*
X79761628Y4499605D01*
X79489016Y4499801D01*
X79241567Y4500063D01*
X79018056Y4500400D01*
X78817260Y4500821D01*
X78637954Y4501337D01*
X78478913Y4501956D01*
X78338914Y4502689D01*
X78216733Y4503545D01*
X78111145Y4504534D01*
X78020927Y4505666D01*
X77944854Y4506949D01*
X77881701Y4508394D01*
X77830245Y4510011D01*
X77789262Y4511808D01*
X77757528Y4513795D01*
X77733818Y4515983D01*
X77716908Y4518381D01*
X77705574Y4520997D01*
X77699772Y4523219D01*
X77688506Y4527972D01*
X77678162Y4531482D01*
X77668703Y4534992D01*
X77660088Y4539747D01*
X77652278Y4546991D01*
X77645235Y4557969D01*
X77638918Y4573925D01*
X77633289Y4596105D01*
X77628308Y4625751D01*
X77623936Y4664109D01*
X77620134Y4712423D01*
X77616862Y4771938D01*
X77614081Y4843897D01*
X77611753Y4929547D01*
X77609837Y5030129D01*
X77608295Y5146891D01*
X77607086Y5281075D01*
X77606173Y5433926D01*
X77605515Y5606689D01*
X77605074Y5800608D01*
X77604809Y6016927D01*
X77604684Y6256892D01*
X77604656Y6521746D01*
X77604687Y6812734D01*
X77604739Y7131100D01*
X77604771Y7478090D01*
X77604771Y7534208D01*
X77604753Y7884219D01*
X77604719Y8205424D01*
X77604705Y8499077D01*
X77604744Y8766432D01*
X77604869Y9008743D01*
X77605117Y9227263D01*
X77605520Y9423247D01*
X77606113Y9597947D01*
X77606885Y9744297D01*
X78010071Y9744297D01*
X78063046Y9667285D01*
X78077918Y9646292D01*
X78091325Y9627704D01*
X78103344Y9609940D01*
X78114050Y9591422D01*
X78123517Y9570569D01*
X78131823Y9545803D01*
X78139042Y9515543D01*
X78145251Y9478210D01*
X78150524Y9432225D01*
X78154938Y9376008D01*
X78158568Y9307980D01*
X78161490Y9226560D01*
X78163779Y9130170D01*
X78165511Y9017230D01*
X78166762Y8886161D01*
X78167606Y8735382D01*
X78168121Y8563314D01*
X78168381Y8368379D01*
X78168463Y8148995D01*
X78168441Y7903584D01*
X78168392Y7630566D01*
X78168380Y7467315D01*
X78168412Y7178477D01*
X78168457Y6918117D01*
X78168441Y6684654D01*
X78168289Y6476506D01*
X78167926Y6292091D01*
X78167277Y6129829D01*
X78166267Y5988138D01*
X78164821Y5865436D01*
X78162865Y5760143D01*
X78160324Y5670677D01*
X78157123Y5595457D01*
X78153187Y5532901D01*
X78148440Y5481428D01*
X78142810Y5439457D01*
X78136219Y5405407D01*
X78128594Y5377695D01*
X78119860Y5354742D01*
X78109941Y5334964D01*
X78098764Y5316782D01*
X78086253Y5298614D01*
X78072332Y5278878D01*
X78064223Y5267041D01*
X78012602Y5190332D01*
X78720306Y5190332D01*
X78884394Y5190379D01*
X79020853Y5190579D01*
X79132111Y5191027D01*
X79220599Y5191816D01*
X79288744Y5193040D01*
X79338977Y5194791D01*
X79373727Y5197163D01*
X79395422Y5200250D01*
X79406493Y5204144D01*
X79409369Y5208940D01*
X79406479Y5214730D01*
X79404887Y5216634D01*
X79371403Y5265990D01*
X79336924Y5336287D01*
X79305491Y5418833D01*
X79294482Y5453999D01*
X79288336Y5477885D01*
X79283142Y5505925D01*
X79278790Y5540895D01*
X79275172Y5585571D01*
X79272177Y5642731D01*
X79269697Y5715150D01*
X79267622Y5805605D01*
X79265843Y5916872D01*
X79264250Y6051729D01*
X79262734Y6212951D01*
X79262232Y6272463D01*
X79260878Y6439084D01*
X79259868Y6578034D01*
X79259279Y6691699D01*
X79259189Y6782464D01*
X79259676Y6852716D01*
X79260817Y6904841D01*
X79262690Y6941226D01*
X79265373Y6964256D01*
X79268944Y6976318D01*
X79273481Y6979799D01*
X79279061Y6977084D01*
X79285017Y6971338D01*
X79298803Y6954117D01*
X79328170Y6915409D01*
X79371041Y6858050D01*
X79425338Y6784879D01*
X79488983Y6698734D01*
X79559897Y6602451D01*
X79636004Y6498868D01*
X79715225Y6390823D01*
X79795482Y6281153D01*
X79874698Y6172696D01*
X79950794Y6068290D01*
X80021693Y5970771D01*
X80085317Y5882977D01*
X80139587Y5807746D01*
X80182427Y5747916D01*
X80211758Y5706323D01*
X80217840Y5697493D01*
X80248356Y5648362D01*
X80284048Y5584470D01*
X80317863Y5518518D01*
X80322151Y5509623D01*
X80351012Y5445458D01*
X80367768Y5395450D01*
X80375397Y5347753D01*
X80376886Y5291782D01*
X80376042Y5190332D01*
X81913016Y5190332D01*
X81791645Y5315122D01*
X81729341Y5381550D01*
X81662390Y5456744D01*
X81601088Y5528997D01*
X81573895Y5562750D01*
X81533371Y5615399D01*
X81480044Y5686243D01*
X81415473Y5773113D01*
X81341219Y5873838D01*
X81258839Y5986251D01*
X81169894Y6108181D01*
X81075942Y6237458D01*
X80978542Y6371914D01*
X80879255Y6509379D01*
X80779639Y6647683D01*
X80681253Y6784657D01*
X80585656Y6918131D01*
X80494408Y7045936D01*
X80409068Y7165903D01*
X80331195Y7275861D01*
X80262349Y7373642D01*
X80204088Y7457076D01*
X80157971Y7523994D01*
X80125559Y7572226D01*
X80108410Y7599602D01*
X80106070Y7605064D01*
X80116666Y7620143D01*
X80144352Y7656330D01*
X80187311Y7711359D01*
X80243730Y7782967D01*
X80311794Y7868889D01*
X80389687Y7966862D01*
X80475595Y8074622D01*
X80567703Y8189905D01*
X80664197Y8310446D01*
X80763261Y8433981D01*
X80842782Y8532978D01*
X82188794Y8532978D01*
X82196662Y8515727D01*
X82215740Y8486105D01*
X82217134Y8484132D01*
X82242147Y8443987D01*
X82268304Y8394951D01*
X82273495Y8384119D01*
X82278203Y8372897D01*
X82282363Y8359426D01*
X82286017Y8341850D01*
X82289205Y8318315D01*
X82291965Y8286966D01*
X82294339Y8245948D01*
X82296367Y8193408D01*
X82298088Y8127489D01*
X82299544Y8046337D01*
X82300773Y7948098D01*
X82301816Y7830917D01*
X82302714Y7692939D01*
X82303506Y7532309D01*
X82304232Y7347172D01*
X82304933Y7135674D01*
X82305643Y6897551D01*
X82306360Y6651093D01*
X82306938Y6432831D01*
X82307289Y6240905D01*
X82307322Y6073453D01*
X82306948Y5928611D01*
X82306077Y5804520D01*
X82304619Y5699316D01*
X82302484Y5611138D01*
X82299583Y5538124D01*
X82295826Y5478412D01*
X82291123Y5430140D01*
X82285385Y5391446D01*
X82278521Y5360469D01*
X82270442Y5335346D01*
X82261058Y5314215D01*
X82250280Y5295215D01*
X82238017Y5276484D01*
X82226700Y5259885D01*
X82203886Y5224878D01*
X82190377Y5201467D01*
X82188794Y5197180D01*
X82203315Y5195746D01*
X82244845Y5194414D01*
X82310331Y5193215D01*
X82396725Y5192183D01*
X82500974Y5191348D01*
X82620028Y5190743D01*
X82750836Y5190400D01*
X82842581Y5190332D01*
X82982365Y5190626D01*
X83111296Y5191467D01*
X83226462Y5192797D01*
X83324950Y5194557D01*
X83403844Y5196688D01*
X83460232Y5199132D01*
X83491200Y5201829D01*
X83496368Y5203522D01*
X83486120Y5223363D01*
X83475471Y5234054D01*
X83457934Y5256856D01*
X83434983Y5297131D01*
X83419110Y5329829D01*
X83383646Y5408261D01*
X83379552Y6975096D01*
X83375458Y8541930D01*
X82782126Y8541930D01*
X82651897Y8541711D01*
X82531550Y8541087D01*
X82424288Y8540107D01*
X82333313Y8538817D01*
X82261827Y8537268D01*
X82213034Y8535506D01*
X82190135Y8533581D01*
X82188794Y8532978D01*
X80842782Y8532978D01*
X80863080Y8558247D01*
X80961840Y8680979D01*
X81057727Y8799913D01*
X81148924Y8912786D01*
X81233618Y9017332D01*
X81309993Y9111289D01*
X81376236Y9192392D01*
X81430530Y9258376D01*
X81453382Y9285895D01*
X81568268Y9419911D01*
X81670249Y9530757D01*
X81761865Y9621051D01*
X81845654Y9693409D01*
X81858143Y9703218D01*
X81910747Y9743964D01*
X81157356Y9744130D01*
X80403966Y9744297D01*
X80411007Y9680421D01*
X80406610Y9604076D01*
X80377944Y9513178D01*
X80324724Y9407003D01*
X80264403Y9310768D01*
X80242811Y9280619D01*
X80205462Y9230619D01*
X80154583Y9163618D01*
X80092400Y9082469D01*
X80021139Y8990022D01*
X79943028Y8889127D01*
X79860292Y8782637D01*
X79775157Y8673402D01*
X79689851Y8564273D01*
X79606599Y8458101D01*
X79527628Y8357737D01*
X79455165Y8266033D01*
X79391435Y8185839D01*
X79338665Y8120006D01*
X79299082Y8071386D01*
X79274911Y8042830D01*
X79270839Y8038439D01*
X79267032Y8049098D01*
X79264085Y8089430D01*
X79262003Y8159060D01*
X79260791Y8257613D01*
X79260454Y8384716D01*
X79260997Y8539992D01*
X79262207Y8699741D01*
X79263967Y8875629D01*
X79265997Y9024393D01*
X79268627Y9148968D01*
X79272189Y9252289D01*
X79277014Y9337291D01*
X79283433Y9406908D01*
X79291776Y9464076D01*
X79302376Y9511729D01*
X79315563Y9552803D01*
X79331668Y9590233D01*
X79351023Y9626953D01*
X79370570Y9660289D01*
X79421157Y9744297D01*
X78010071Y9744297D01*
X77606885Y9744297D01*
X77606929Y9752618D01*
X77608002Y9888513D01*
X77609367Y10006886D01*
X77611058Y10108991D01*
X77613108Y10196081D01*
X77615552Y10269410D01*
X77618424Y10330231D01*
X77621758Y10379800D01*
X77625587Y10419368D01*
X77629946Y10450190D01*
X77634869Y10473520D01*
X77640390Y10490612D01*
X77646542Y10502718D01*
X77653361Y10511093D01*
X77660880Y10516990D01*
X77669133Y10521664D01*
X77678153Y10526367D01*
X77686136Y10531118D01*
X77693103Y10534548D01*
X77703988Y10537648D01*
X77720248Y10540435D01*
X77743341Y10542926D01*
X77774723Y10545137D01*
X77815852Y10547084D01*
X77868186Y10548784D01*
X77933181Y10550253D01*
X78012295Y10551508D01*
X78106984Y10552566D01*
X78218708Y10553442D01*
X78348921Y10554153D01*
X78499083Y10554715D01*
X78670650Y10555146D01*
X78865079Y10555461D01*
X79083828Y10555677D01*
X79328354Y10555810D01*
X79600115Y10555877D01*
X79881224Y10555895D01*
X82038498Y10555895D01*
X82038498Y10427036D01*
G36*
X86398478Y9814587D02*
X86611684Y9786397D01*
X86829947Y9732957D01*
X87056016Y9653735D01*
X87292638Y9548204D01*
X87307640Y9540822D01*
X87384452Y9503510D01*
X87453080Y9471455D01*
X87508517Y9446894D01*
X87545756Y9432068D01*
X87558498Y9428676D01*
X87584083Y9422009D01*
X87590223Y9416409D01*
X87583428Y9402519D01*
X87562073Y9367520D01*
X87528616Y9315080D01*
X87485514Y9248866D01*
X87435228Y9172546D01*
X87380215Y9089787D01*
X87322934Y9004259D01*
X87265843Y8919627D01*
X87211403Y8839560D01*
X87162070Y8767726D01*
X87120303Y8707792D01*
X87088562Y8663425D01*
X87069305Y8638295D01*
X87066662Y8635380D01*
X87053191Y8641569D01*
X87023447Y8664437D01*
X86982747Y8699746D01*
X86961786Y8719020D01*
X86833324Y8819246D01*
X86691254Y8893058D01*
X86537476Y8939790D01*
X86373892Y8958776D01*
X86281495Y8957217D01*
X86120215Y8934370D01*
X85974807Y8886598D01*
X85844836Y8813552D01*
X85729867Y8714884D01*
X85629466Y8590245D01*
X85543198Y8439284D01*
X85493381Y8324001D01*
X85434998Y8143336D01*
X85391968Y7946982D01*
X85364180Y7740003D01*
X85351525Y7527462D01*
X85353890Y7314422D01*
X85371165Y7105947D01*
X85403239Y6907099D01*
X85450002Y6722942D01*
X85511343Y6558540D01*
X85533020Y6512936D01*
X85623880Y6361046D01*
X85731001Y6232579D01*
X85852808Y6128582D01*
X85987730Y6050102D01*
X86134191Y5998186D01*
X86290620Y5973881D01*
X86345828Y5972093D01*
X86507666Y5986632D01*
X86668011Y6030323D01*
X86824830Y6102262D01*
X86976087Y6201548D01*
X87097784Y6305828D01*
X87159732Y6365115D01*
X87401065Y5969351D01*
X87461106Y5870614D01*
X87516009Y5779798D01*
X87563826Y5700165D01*
X87602611Y5634980D01*
X87630414Y5587506D01*
X87645290Y5561005D01*
X87647223Y5556885D01*
X87636267Y5544051D01*
X87602213Y5521044D01*
X87549365Y5490045D01*
X87482031Y5453231D01*
X87404514Y5412782D01*
X87321122Y5370878D01*
X87236160Y5329697D01*
X87153934Y5291418D01*
X87078749Y5258222D01*
X87014911Y5232285D01*
X86983687Y5221063D01*
X86805597Y5170718D01*
X86622011Y5137430D01*
X86425362Y5120117D01*
X86256561Y5117017D01*
X86166087Y5118475D01*
X86078749Y5121268D01*
X86002288Y5125051D01*
X85944450Y5129482D01*
X85925671Y5131723D01*
X85740592Y5170113D01*
X85552169Y5230183D01*
X85369130Y5308358D01*
X85200207Y5401060D01*
X85097019Y5471196D01*
X84927394Y5615251D01*
X84769890Y5783758D01*
X84627425Y5972552D01*
X84502917Y6177469D01*
X84399282Y6394345D01*
X84340896Y6550510D01*
X84273998Y6794984D01*
X84229399Y7053996D01*
X84207085Y7321941D01*
X84207041Y7593215D01*
X84229254Y7862213D01*
X84273711Y8123331D01*
X84340396Y8370965D01*
X84345477Y8386394D01*
X84429198Y8602145D01*
X84531376Y8799077D01*
X84655478Y8982761D01*
X84804970Y9158772D01*
X84863370Y9219033D01*
X85044624Y9384044D01*
X85230957Y9520565D01*
X85425229Y9630081D01*
X85630299Y9714079D01*
X85849030Y9774045D01*
X85976250Y9797330D01*
X86187583Y9818055D01*
X86398478Y9814587D01*
X86398478Y9814587D01*
G37*
X86398478Y9814587D02*
X86611684Y9786397D01*
X86829947Y9732957D01*
X87056016Y9653735D01*
X87292638Y9548204D01*
X87307640Y9540822D01*
X87384452Y9503510D01*
X87453080Y9471455D01*
X87508517Y9446894D01*
X87545756Y9432068D01*
X87558498Y9428676D01*
X87584083Y9422009D01*
X87590223Y9416409D01*
X87583428Y9402519D01*
X87562073Y9367520D01*
X87528616Y9315080D01*
X87485514Y9248866D01*
X87435228Y9172546D01*
X87380215Y9089787D01*
X87322934Y9004259D01*
X87265843Y8919627D01*
X87211403Y8839560D01*
X87162070Y8767726D01*
X87120303Y8707792D01*
X87088562Y8663425D01*
X87069305Y8638295D01*
X87066662Y8635380D01*
X87053191Y8641569D01*
X87023447Y8664437D01*
X86982747Y8699746D01*
X86961786Y8719020D01*
X86833324Y8819246D01*
X86691254Y8893058D01*
X86537476Y8939790D01*
X86373892Y8958776D01*
X86281495Y8957217D01*
X86120215Y8934370D01*
X85974807Y8886598D01*
X85844836Y8813552D01*
X85729867Y8714884D01*
X85629466Y8590245D01*
X85543198Y8439284D01*
X85493381Y8324001D01*
X85434998Y8143336D01*
X85391968Y7946982D01*
X85364180Y7740003D01*
X85351525Y7527462D01*
X85353890Y7314422D01*
X85371165Y7105947D01*
X85403239Y6907099D01*
X85450002Y6722942D01*
X85511343Y6558540D01*
X85533020Y6512936D01*
X85623880Y6361046D01*
X85731001Y6232579D01*
X85852808Y6128582D01*
X85987730Y6050102D01*
X86134191Y5998186D01*
X86290620Y5973881D01*
X86345828Y5972093D01*
X86507666Y5986632D01*
X86668011Y6030323D01*
X86824830Y6102262D01*
X86976087Y6201548D01*
X87097784Y6305828D01*
X87159732Y6365115D01*
X87401065Y5969351D01*
X87461106Y5870614D01*
X87516009Y5779798D01*
X87563826Y5700165D01*
X87602611Y5634980D01*
X87630414Y5587506D01*
X87645290Y5561005D01*
X87647223Y5556885D01*
X87636267Y5544051D01*
X87602213Y5521044D01*
X87549365Y5490045D01*
X87482031Y5453231D01*
X87404514Y5412782D01*
X87321122Y5370878D01*
X87236160Y5329697D01*
X87153934Y5291418D01*
X87078749Y5258222D01*
X87014911Y5232285D01*
X86983687Y5221063D01*
X86805597Y5170718D01*
X86622011Y5137430D01*
X86425362Y5120117D01*
X86256561Y5117017D01*
X86166087Y5118475D01*
X86078749Y5121268D01*
X86002288Y5125051D01*
X85944450Y5129482D01*
X85925671Y5131723D01*
X85740592Y5170113D01*
X85552169Y5230183D01*
X85369130Y5308358D01*
X85200207Y5401060D01*
X85097019Y5471196D01*
X84927394Y5615251D01*
X84769890Y5783758D01*
X84627425Y5972552D01*
X84502917Y6177469D01*
X84399282Y6394345D01*
X84340896Y6550510D01*
X84273998Y6794984D01*
X84229399Y7053996D01*
X84207085Y7321941D01*
X84207041Y7593215D01*
X84229254Y7862213D01*
X84273711Y8123331D01*
X84340396Y8370965D01*
X84345477Y8386394D01*
X84429198Y8602145D01*
X84531376Y8799077D01*
X84655478Y8982761D01*
X84804970Y9158772D01*
X84863370Y9219033D01*
X85044624Y9384044D01*
X85230957Y9520565D01*
X85425229Y9630081D01*
X85630299Y9714079D01*
X85849030Y9774045D01*
X85976250Y9797330D01*
X86187583Y9818055D01*
X86398478Y9814587D01*
G36*
X89520712Y8593089D02*
X89722970Y8566442D01*
X89903056Y8521662D01*
X90062131Y8458391D01*
X90201358Y8376273D01*
X90304685Y8291651D01*
X90396336Y8192952D01*
X90467886Y8086747D01*
X90525006Y7963968D01*
X90545608Y7906627D01*
X90562728Y7854729D01*
X90577642Y7806605D01*
X90590522Y7759814D01*
X90601540Y7711916D01*
X90610870Y7660473D01*
X90618683Y7603044D01*
X90625152Y7537190D01*
X90630450Y7460471D01*
X90634750Y7370448D01*
X90638223Y7264680D01*
X90641043Y7140729D01*
X90643382Y6996154D01*
X90645413Y6828516D01*
X90647308Y6635375D01*
X90648975Y6445303D01*
X90650741Y6237357D01*
X90652346Y6057263D01*
X90653957Y5902816D01*
X90655740Y5771811D01*
X90657863Y5662043D01*
X90660492Y5571307D01*
X90663796Y5497398D01*
X90667939Y5438110D01*
X90673090Y5391238D01*
X90679416Y5354577D01*
X90687083Y5325923D01*
X90696258Y5303070D01*
X90707108Y5283812D01*
X90719801Y5265945D01*
X90734503Y5247264D01*
X90740229Y5240031D01*
X90761290Y5209624D01*
X90770658Y5188918D01*
X90770688Y5188306D01*
X90756206Y5185378D01*
X90714953Y5182682D01*
X90650217Y5180291D01*
X90565284Y5178282D01*
X90463443Y5176731D01*
X90347980Y5175714D01*
X90222184Y5175307D01*
X90207663Y5175303D01*
X89644639Y5175303D01*
X89640296Y5303202D01*
X89635954Y5431102D01*
X89553291Y5363219D01*
X89423710Y5273334D01*
X89277392Y5200519D01*
X89162276Y5160273D01*
X89070318Y5140718D01*
X88959346Y5127413D01*
X88839835Y5120775D01*
X88722257Y5121217D01*
X88617087Y5129155D01*
X88568853Y5136762D01*
X88382438Y5187170D01*
X88214120Y5260186D01*
X88065116Y5354723D01*
X87936644Y5469695D01*
X87829919Y5604014D01*
X87746160Y5756593D01*
X87687080Y5924466D01*
X87670658Y5999799D01*
X87660527Y6082609D01*
X87655696Y6182245D01*
X87655037Y6227374D01*
X87655124Y6231614D01*
X88666876Y6231614D01*
X88679249Y6131693D01*
X88716776Y6046717D01*
X88781305Y5972643D01*
X88788038Y5966768D01*
X88852335Y5920401D01*
X88921178Y5890336D01*
X89002034Y5874465D01*
X89102369Y5870680D01*
X89126477Y5871220D01*
X89198129Y5874751D01*
X89251423Y5881962D01*
X89298043Y5895494D01*
X89349672Y5917988D01*
X89363840Y5924882D01*
X89444588Y5972582D01*
X89506921Y6029341D01*
X89523879Y6049629D01*
X89583350Y6124866D01*
X89583350Y6385647D01*
X89582637Y6490354D01*
X89580387Y6567508D01*
X89576435Y6619582D01*
X89570616Y6649051D01*
X89565178Y6657660D01*
X89543975Y6661872D01*
X89498998Y6665363D01*
X89436525Y6667804D01*
X89362839Y6668866D01*
X89351006Y6668886D01*
X89190210Y6661891D01*
X89053519Y6640367D01*
X88938285Y6603491D01*
X88841861Y6550440D01*
X88768729Y6487933D01*
X88709421Y6410865D01*
X88676505Y6326925D01*
X88666876Y6231614D01*
X87655124Y6231614D01*
X87657611Y6352196D01*
X87668721Y6457239D01*
X87690349Y6552062D01*
X87724481Y6646223D01*
X87756429Y6715949D01*
X87834472Y6842824D01*
X87938447Y6960018D01*
X88065190Y7065398D01*
X88211538Y7156832D01*
X88374326Y7232186D01*
X88550391Y7289328D01*
X88636486Y7309218D01*
X88817794Y7338647D01*
X89015428Y7358063D01*
X89217070Y7366558D01*
X89385566Y7364385D01*
X89601095Y7355360D01*
X89591217Y7433882D01*
X89565531Y7565890D01*
X89524081Y7673358D01*
X89465721Y7757108D01*
X89389303Y7817965D01*
X89293681Y7856752D01*
X89177710Y7874294D01*
X89040241Y7871413D01*
X88989682Y7866086D01*
X88801706Y7832578D01*
X88619558Y7777947D01*
X88493705Y7727354D01*
X88433581Y7701559D01*
X88382414Y7680829D01*
X88347331Y7667989D01*
X88337095Y7665263D01*
X88324122Y7677350D01*
X88301863Y7715918D01*
X88270110Y7781405D01*
X88228652Y7874244D01*
X88177281Y7994873D01*
X88168497Y8015895D01*
X88128481Y8112175D01*
X88092561Y8199175D01*
X88062289Y8273091D01*
X88039216Y8330119D01*
X88024894Y8366453D01*
X88020758Y8378221D01*
X88034070Y8384551D01*
X88069053Y8391577D01*
X88106694Y8396475D01*
X88146843Y8402808D01*
X88210466Y8415383D01*
X88291917Y8432968D01*
X88385556Y8454330D01*
X88485740Y8478235D01*
X88523765Y8487585D01*
X88663639Y8521652D01*
X88780351Y8548362D01*
X88879655Y8568569D01*
X88967305Y8583126D01*
X89049056Y8592887D01*
X89130661Y8598704D01*
X89217876Y8601430D01*
X89295118Y8601960D01*
X89520712Y8593089D01*
X89520712Y8593089D01*
G37*
X89520712Y8593089D02*
X89722970Y8566442D01*
X89903056Y8521662D01*
X90062131Y8458391D01*
X90201358Y8376273D01*
X90304685Y8291651D01*
X90396336Y8192952D01*
X90467886Y8086747D01*
X90525006Y7963968D01*
X90545608Y7906627D01*
X90562728Y7854729D01*
X90577642Y7806605D01*
X90590522Y7759814D01*
X90601540Y7711916D01*
X90610870Y7660473D01*
X90618683Y7603044D01*
X90625152Y7537190D01*
X90630450Y7460471D01*
X90634750Y7370448D01*
X90638223Y7264680D01*
X90641043Y7140729D01*
X90643382Y6996154D01*
X90645413Y6828516D01*
X90647308Y6635375D01*
X90648975Y6445303D01*
X90650741Y6237357D01*
X90652346Y6057263D01*
X90653957Y5902816D01*
X90655740Y5771811D01*
X90657863Y5662043D01*
X90660492Y5571307D01*
X90663796Y5497398D01*
X90667939Y5438110D01*
X90673090Y5391238D01*
X90679416Y5354577D01*
X90687083Y5325923D01*
X90696258Y5303070D01*
X90707108Y5283812D01*
X90719801Y5265945D01*
X90734503Y5247264D01*
X90740229Y5240031D01*
X90761290Y5209624D01*
X90770658Y5188918D01*
X90770688Y5188306D01*
X90756206Y5185378D01*
X90714953Y5182682D01*
X90650217Y5180291D01*
X90565284Y5178282D01*
X90463443Y5176731D01*
X90347980Y5175714D01*
X90222184Y5175307D01*
X90207663Y5175303D01*
X89644639Y5175303D01*
X89640296Y5303202D01*
X89635954Y5431102D01*
X89553291Y5363219D01*
X89423710Y5273334D01*
X89277392Y5200519D01*
X89162276Y5160273D01*
X89070318Y5140718D01*
X88959346Y5127413D01*
X88839835Y5120775D01*
X88722257Y5121217D01*
X88617087Y5129155D01*
X88568853Y5136762D01*
X88382438Y5187170D01*
X88214120Y5260186D01*
X88065116Y5354723D01*
X87936644Y5469695D01*
X87829919Y5604014D01*
X87746160Y5756593D01*
X87687080Y5924466D01*
X87670658Y5999799D01*
X87660527Y6082609D01*
X87655696Y6182245D01*
X87655037Y6227374D01*
X87655124Y6231614D01*
X88666876Y6231614D01*
X88679249Y6131693D01*
X88716776Y6046717D01*
X88781305Y5972643D01*
X88788038Y5966768D01*
X88852335Y5920401D01*
X88921178Y5890336D01*
X89002034Y5874465D01*
X89102369Y5870680D01*
X89126477Y5871220D01*
X89198129Y5874751D01*
X89251423Y5881962D01*
X89298043Y5895494D01*
X89349672Y5917988D01*
X89363840Y5924882D01*
X89444588Y5972582D01*
X89506921Y6029341D01*
X89523879Y6049629D01*
X89583350Y6124866D01*
X89583350Y6385647D01*
X89582637Y6490354D01*
X89580387Y6567508D01*
X89576435Y6619582D01*
X89570616Y6649051D01*
X89565178Y6657660D01*
X89543975Y6661872D01*
X89498998Y6665363D01*
X89436525Y6667804D01*
X89362839Y6668866D01*
X89351006Y6668886D01*
X89190210Y6661891D01*
X89053519Y6640367D01*
X88938285Y6603491D01*
X88841861Y6550440D01*
X88768729Y6487933D01*
X88709421Y6410865D01*
X88676505Y6326925D01*
X88666876Y6231614D01*
X87655124Y6231614D01*
X87657611Y6352196D01*
X87668721Y6457239D01*
X87690349Y6552062D01*
X87724481Y6646223D01*
X87756429Y6715949D01*
X87834472Y6842824D01*
X87938447Y6960018D01*
X88065190Y7065398D01*
X88211538Y7156832D01*
X88374326Y7232186D01*
X88550391Y7289328D01*
X88636486Y7309218D01*
X88817794Y7338647D01*
X89015428Y7358063D01*
X89217070Y7366558D01*
X89385566Y7364385D01*
X89601095Y7355360D01*
X89591217Y7433882D01*
X89565531Y7565890D01*
X89524081Y7673358D01*
X89465721Y7757108D01*
X89389303Y7817965D01*
X89293681Y7856752D01*
X89177710Y7874294D01*
X89040241Y7871413D01*
X88989682Y7866086D01*
X88801706Y7832578D01*
X88619558Y7777947D01*
X88493705Y7727354D01*
X88433581Y7701559D01*
X88382414Y7680829D01*
X88347331Y7667989D01*
X88337095Y7665263D01*
X88324122Y7677350D01*
X88301863Y7715918D01*
X88270110Y7781405D01*
X88228652Y7874244D01*
X88177281Y7994873D01*
X88168497Y8015895D01*
X88128481Y8112175D01*
X88092561Y8199175D01*
X88062289Y8273091D01*
X88039216Y8330119D01*
X88024894Y8366453D01*
X88020758Y8378221D01*
X88034070Y8384551D01*
X88069053Y8391577D01*
X88106694Y8396475D01*
X88146843Y8402808D01*
X88210466Y8415383D01*
X88291917Y8432968D01*
X88385556Y8454330D01*
X88485740Y8478235D01*
X88523765Y8487585D01*
X88663639Y8521652D01*
X88780351Y8548362D01*
X88879655Y8568569D01*
X88967305Y8583126D01*
X89049056Y8592887D01*
X89130661Y8598704D01*
X89217876Y8601430D01*
X89295118Y8601960D01*
X89520712Y8593089D01*
G36*
X94197694Y7786693D02*
X94197720Y7474599D01*
X94197755Y7191098D01*
X94197851Y6934724D01*
X94198061Y6704012D01*
X94198436Y6497495D01*
X94199029Y6313709D01*
X94199890Y6151186D01*
X94201073Y6008462D01*
X94202628Y5884070D01*
X94204609Y5776545D01*
X94207066Y5684420D01*
X94210053Y5606230D01*
X94213620Y5540509D01*
X94217819Y5485791D01*
X94222704Y5440611D01*
X94228324Y5403502D01*
X94234733Y5372998D01*
X94241983Y5347634D01*
X94250125Y5325945D01*
X94259210Y5306463D01*
X94269293Y5287723D01*
X94280423Y5268260D01*
X94287337Y5256136D01*
X94332956Y5175303D01*
X93190451Y5175303D01*
X93190451Y5303054D01*
X93189477Y5360787D01*
X93186878Y5404941D01*
X93183138Y5428614D01*
X93181485Y5430806D01*
X93166278Y5421641D01*
X93136037Y5397885D01*
X93105815Y5372091D01*
X93033144Y5317859D01*
X92940643Y5263268D01*
X92838059Y5213335D01*
X92735139Y5173073D01*
X92694063Y5160227D01*
X92602869Y5140835D01*
X92492563Y5127573D01*
X92373549Y5120858D01*
X92256225Y5121107D01*
X92150993Y5128736D01*
X92100806Y5136468D01*
X91916950Y5187142D01*
X91747465Y5263993D01*
X91593266Y5366323D01*
X91455264Y5493432D01*
X91334371Y5644620D01*
X91245434Y5792133D01*
X91172385Y5947577D01*
X91116468Y6106474D01*
X91076531Y6274217D01*
X91051427Y6456199D01*
X91040006Y6657815D01*
X91039039Y6760924D01*
X91041827Y6836515D01*
X92145680Y6836515D01*
X92145957Y6712608D01*
X92149835Y6595861D01*
X92157374Y6493240D01*
X92168631Y6411711D01*
X92172071Y6395281D01*
X92214409Y6252448D01*
X92269872Y6136587D01*
X92338923Y6047406D01*
X92422024Y5984616D01*
X92519638Y5947923D01*
X92632230Y5937039D01*
X92760261Y5951670D01*
X92844771Y5972602D01*
X92910198Y5996819D01*
X92982263Y6031232D01*
X93036398Y6062788D01*
X93130333Y6124520D01*
X93130333Y7655840D01*
X93040589Y7713844D01*
X92936043Y7768327D01*
X92823962Y7803809D01*
X92710631Y7819684D01*
X92602337Y7815348D01*
X92505365Y7790195D01*
X92462823Y7769467D01*
X92385705Y7712222D01*
X92320525Y7636638D01*
X92265733Y7539952D01*
X92219781Y7419402D01*
X92181117Y7272227D01*
X92179411Y7264415D01*
X92165870Y7181533D01*
X92155696Y7077944D01*
X92148946Y6960616D01*
X92145680Y6836515D01*
X91041827Y6836515D01*
X91049492Y7044259D01*
X91078708Y7304987D01*
X91126616Y7542937D01*
X91193148Y7757936D01*
X91278235Y7949810D01*
X91381807Y8118386D01*
X91503795Y8263492D01*
X91644131Y8384955D01*
X91704261Y8426162D01*
X91838661Y8500915D01*
X91976177Y8553651D01*
X92122744Y8585817D01*
X92284293Y8598857D01*
X92407451Y8597465D01*
X92580068Y8582865D01*
X92729971Y8553821D01*
X92861498Y8508997D01*
X92978985Y8447060D01*
X93044043Y8401511D01*
X93083140Y8372335D01*
X93112018Y8352404D01*
X93122948Y8346545D01*
X93125098Y8360963D01*
X93126816Y8401773D01*
X93128120Y8465313D01*
X93129025Y8547920D01*
X93129548Y8645930D01*
X93129707Y8755681D01*
X93129518Y8873509D01*
X93128998Y8995753D01*
X93128164Y9118747D01*
X93127032Y9238830D01*
X93125619Y9352339D01*
X93123943Y9455610D01*
X93122020Y9544980D01*
X93119866Y9616787D01*
X93117500Y9667367D01*
X93116845Y9676664D01*
X93106757Y9770413D01*
X93091365Y9843836D01*
X93067748Y9906571D01*
X93032987Y9968258D01*
X93024643Y9981013D01*
X92992115Y10029859D01*
X94197433Y10029859D01*
X94197694Y7786693D01*
X94197694Y7786693D01*
G37*
X94197694Y7786693D02*
X94197720Y7474599D01*
X94197755Y7191098D01*
X94197851Y6934724D01*
X94198061Y6704012D01*
X94198436Y6497495D01*
X94199029Y6313709D01*
X94199890Y6151186D01*
X94201073Y6008462D01*
X94202628Y5884070D01*
X94204609Y5776545D01*
X94207066Y5684420D01*
X94210053Y5606230D01*
X94213620Y5540509D01*
X94217819Y5485791D01*
X94222704Y5440611D01*
X94228324Y5403502D01*
X94234733Y5372998D01*
X94241983Y5347634D01*
X94250125Y5325945D01*
X94259210Y5306463D01*
X94269293Y5287723D01*
X94280423Y5268260D01*
X94287337Y5256136D01*
X94332956Y5175303D01*
X93190451Y5175303D01*
X93190451Y5303054D01*
X93189477Y5360787D01*
X93186878Y5404941D01*
X93183138Y5428614D01*
X93181485Y5430806D01*
X93166278Y5421641D01*
X93136037Y5397885D01*
X93105815Y5372091D01*
X93033144Y5317859D01*
X92940643Y5263268D01*
X92838059Y5213335D01*
X92735139Y5173073D01*
X92694063Y5160227D01*
X92602869Y5140835D01*
X92492563Y5127573D01*
X92373549Y5120858D01*
X92256225Y5121107D01*
X92150993Y5128736D01*
X92100806Y5136468D01*
X91916950Y5187142D01*
X91747465Y5263993D01*
X91593266Y5366323D01*
X91455264Y5493432D01*
X91334371Y5644620D01*
X91245434Y5792133D01*
X91172385Y5947577D01*
X91116468Y6106474D01*
X91076531Y6274217D01*
X91051427Y6456199D01*
X91040006Y6657815D01*
X91039039Y6760924D01*
X91041827Y6836515D01*
X92145680Y6836515D01*
X92145957Y6712608D01*
X92149835Y6595861D01*
X92157374Y6493240D01*
X92168631Y6411711D01*
X92172071Y6395281D01*
X92214409Y6252448D01*
X92269872Y6136587D01*
X92338923Y6047406D01*
X92422024Y5984616D01*
X92519638Y5947923D01*
X92632230Y5937039D01*
X92760261Y5951670D01*
X92844771Y5972602D01*
X92910198Y5996819D01*
X92982263Y6031232D01*
X93036398Y6062788D01*
X93130333Y6124520D01*
X93130333Y7655840D01*
X93040589Y7713844D01*
X92936043Y7768327D01*
X92823962Y7803809D01*
X92710631Y7819684D01*
X92602337Y7815348D01*
X92505365Y7790195D01*
X92462823Y7769467D01*
X92385705Y7712222D01*
X92320525Y7636638D01*
X92265733Y7539952D01*
X92219781Y7419402D01*
X92181117Y7272227D01*
X92179411Y7264415D01*
X92165870Y7181533D01*
X92155696Y7077944D01*
X92148946Y6960616D01*
X92145680Y6836515D01*
X91041827Y6836515D01*
X91049492Y7044259D01*
X91078708Y7304987D01*
X91126616Y7542937D01*
X91193148Y7757936D01*
X91278235Y7949810D01*
X91381807Y8118386D01*
X91503795Y8263492D01*
X91644131Y8384955D01*
X91704261Y8426162D01*
X91838661Y8500915D01*
X91976177Y8553651D01*
X92122744Y8585817D01*
X92284293Y8598857D01*
X92407451Y8597465D01*
X92580068Y8582865D01*
X92729971Y8553821D01*
X92861498Y8508997D01*
X92978985Y8447060D01*
X93044043Y8401511D01*
X93083140Y8372335D01*
X93112018Y8352404D01*
X93122948Y8346545D01*
X93125098Y8360963D01*
X93126816Y8401773D01*
X93128120Y8465313D01*
X93129025Y8547920D01*
X93129548Y8645930D01*
X93129707Y8755681D01*
X93129518Y8873509D01*
X93128998Y8995753D01*
X93128164Y9118747D01*
X93127032Y9238830D01*
X93125619Y9352339D01*
X93123943Y9455610D01*
X93122020Y9544980D01*
X93119866Y9616787D01*
X93117500Y9667367D01*
X93116845Y9676664D01*
X93106757Y9770413D01*
X93091365Y9843836D01*
X93067748Y9906571D01*
X93032987Y9968258D01*
X93024643Y9981013D01*
X92992115Y10029859D01*
X94197433Y10029859D01*
X94197694Y7786693D01*
G36*
X82934980Y11042767D02*
X83063157Y11010498D01*
X83178431Y10953473D01*
X83278031Y10873888D01*
X83359185Y10773935D01*
X83419122Y10655809D01*
X83454086Y10527585D01*
X83461876Y10398091D01*
X83442100Y10273131D01*
X83397232Y10156161D01*
X83329748Y10050638D01*
X83242122Y9960018D01*
X83136827Y9887757D01*
X83016338Y9837312D01*
X82948085Y9820772D01*
X82888842Y9810758D01*
X82843174Y9806801D01*
X82799292Y9809230D01*
X82745406Y9818376D01*
X82701343Y9827662D01*
X82576972Y9869613D01*
X82465573Y9937677D01*
X82369655Y10029791D01*
X82291724Y10143890D01*
X82273153Y10180155D01*
X82251269Y10228573D01*
X82237545Y10269232D01*
X82230135Y10312011D01*
X82227193Y10366788D01*
X82226823Y10428143D01*
X82232263Y10540454D01*
X82250124Y10632689D01*
X82283661Y10713402D01*
X82336130Y10791146D01*
X82387451Y10850078D01*
X82483166Y10937705D01*
X82583142Y10998192D01*
X82693313Y11034407D01*
X82796671Y11048087D01*
X82934980Y11042767D01*
X82934980Y11042767D01*
G37*
X82934980Y11042767D02*
X83063157Y11010498D01*
X83178431Y10953473D01*
X83278031Y10873888D01*
X83359185Y10773935D01*
X83419122Y10655809D01*
X83454086Y10527585D01*
X83461876Y10398091D01*
X83442100Y10273131D01*
X83397232Y10156161D01*
X83329748Y10050638D01*
X83242122Y9960018D01*
X83136827Y9887757D01*
X83016338Y9837312D01*
X82948085Y9820772D01*
X82888842Y9810758D01*
X82843174Y9806801D01*
X82799292Y9809230D01*
X82745406Y9818376D01*
X82701343Y9827662D01*
X82576972Y9869613D01*
X82465573Y9937677D01*
X82369655Y10029791D01*
X82291724Y10143890D01*
X82273153Y10180155D01*
X82251269Y10228573D01*
X82237545Y10269232D01*
X82230135Y10312011D01*
X82227193Y10366788D01*
X82226823Y10428143D01*
X82232263Y10540454D01*
X82250124Y10632689D01*
X82283661Y10713402D01*
X82336130Y10791146D01*
X82387451Y10850078D01*
X82483166Y10937705D01*
X82583142Y10998192D01*
X82693313Y11034407D01*
X82796671Y11048087D01*
X82934980Y11042767D01*
D12*
X61147000Y16063920D02*
X61147000Y18723920D01*
X40767000Y16063920D02*
X61147000Y16063920D01*
X40767000Y18723920D02*
X61147000Y18723920D01*
X40767000Y16063920D02*
X40767000Y18723920D01*
X39497000Y16063920D02*
X38167000Y16063920D01*
X38167000Y16063920D02*
X38167000Y17393920D01*
X6074100Y4532940D02*
X6074100Y1872940D01*
X26454100Y4532940D02*
X6074100Y4532940D01*
X26454100Y1872940D02*
X6074100Y1872940D01*
X26454100Y4532940D02*
X26454100Y1872940D01*
X27724100Y4532940D02*
X29054100Y4532940D01*
X29054100Y4532940D02*
X29054100Y3202940D01*
X26305820Y41740780D02*
X26305820Y44400780D01*
X5925820Y41740780D02*
X26305820Y41740780D01*
X5925820Y44400780D02*
X26305820Y44400780D01*
X5925820Y41740780D02*
X5925820Y44400780D01*
X4655820Y41740780D02*
X3325820Y41740780D01*
X3325820Y41740780D02*
X3325820Y43070780D01*
X26808740Y70854260D02*
X26808740Y73514260D01*
X6428740Y70854260D02*
X26808740Y70854260D01*
X6428740Y73514260D02*
X26808740Y73514260D01*
X6428740Y70854260D02*
X6428740Y73514260D01*
X5158740Y70854260D02*
X3828740Y70854260D01*
X3828740Y70854260D02*
X3828740Y72184260D01*
X40915900Y62070940D02*
X40915900Y64730940D01*
X28155900Y62070940D02*
X40915900Y62070940D01*
X28155900Y64730940D02*
X40915900Y64730940D01*
X28155900Y62070940D02*
X28155900Y64730940D01*
X26885900Y62070940D02*
X25555900Y62070940D01*
X25555900Y62070940D02*
X25555900Y63400940D01*
X91500000Y70389440D02*
X91500000Y73049440D01*
X76200000Y70389440D02*
X91500000Y70389440D01*
X76200000Y73049440D02*
X91500000Y73049440D01*
X76200000Y70389440D02*
X76200000Y73049440D01*
X74930000Y70389440D02*
X73600000Y70389440D01*
X73600000Y70389440D02*
X73600000Y71719440D01*
X93386600Y61340040D02*
X93386600Y58680040D01*
X95986600Y61340040D02*
X93386600Y61340040D01*
X95986600Y58680040D02*
X93386600Y58680040D01*
X95986600Y61340040D02*
X95986600Y58680040D01*
X97256600Y61340040D02*
X98586600Y61340040D01*
X98586600Y61340040D02*
X98586600Y60010040D01*
X98192900Y43897240D02*
X98192900Y46557240D01*
X95592900Y43897240D02*
X98192900Y43897240D01*
X95592900Y46557240D02*
X98192900Y46557240D01*
X95592900Y43897240D02*
X95592900Y46557240D01*
X94322900Y43897240D02*
X92992900Y43897240D01*
X92992900Y43897240D02*
X92992900Y45227240D01*
X67852600Y70478340D02*
X67852600Y73138340D01*
X52552600Y70478340D02*
X67852600Y70478340D01*
X52552600Y73138340D02*
X67852600Y73138340D01*
X52552600Y70478340D02*
X52552600Y73138340D01*
X51282600Y70478340D02*
X49952600Y70478340D01*
X49952600Y70478340D02*
X49952600Y71808340D01*
X61108900Y40201540D02*
X61108900Y42861540D01*
X40728900Y40201540D02*
X61108900Y40201540D01*
X40728900Y42861540D02*
X61108900Y42861540D01*
X40728900Y40201540D02*
X40728900Y42861540D01*
X39458900Y40201540D02*
X38128900Y40201540D01*
X38128900Y40201540D02*
X38128900Y41531540D01*
X87512200Y40087240D02*
X87512200Y42747240D01*
X67132200Y40087240D02*
X87512200Y40087240D01*
X67132200Y42747240D02*
X87512200Y42747240D01*
X67132200Y40087240D02*
X67132200Y42747240D01*
X65862200Y40087240D02*
X64532200Y40087240D01*
X64532200Y40087240D02*
X64532200Y41417240D01*
X64560140Y18711220D02*
X64560140Y16051220D01*
X84940140Y18711220D02*
X64560140Y18711220D01*
X84940140Y16051220D02*
X64560140Y16051220D01*
X84940140Y18711220D02*
X84940140Y16051220D01*
X86210140Y18711220D02*
X87540140Y18711220D01*
X87540140Y18711220D02*
X87540140Y17381220D01*
D13*
X96278567Y27852759D02*
X95945233Y28328950D01*
X95707138Y27852759D02*
X95707138Y28852759D01*
X96088091Y28852759D01*
X96183329Y28805140D01*
X96230948Y28757521D01*
X96278567Y28662283D01*
X96278567Y28519426D01*
X96230948Y28424188D01*
X96183329Y28376569D01*
X96088091Y28328950D01*
X95707138Y28328950D01*
X96707138Y28376569D02*
X97040472Y28376569D01*
X97183329Y27852759D02*
X96707138Y27852759D01*
X96707138Y28852759D01*
X97183329Y28852759D01*
X97945234Y28376569D02*
X97611900Y28376569D01*
X97611900Y27852759D02*
X97611900Y28852759D01*
X98088091Y28852759D01*
X98611900Y28852759D02*
X98611900Y28614664D01*
X98373805Y28709902D02*
X98611900Y28614664D01*
X98849996Y28709902D01*
X98469043Y28424188D02*
X98611900Y28614664D01*
X98754758Y28424188D01*
X99373805Y28852759D02*
X99373805Y28614664D01*
X99135710Y28709902D02*
X99373805Y28614664D01*
X99611901Y28709902D01*
X99230948Y28424188D02*
X99373805Y28614664D01*
X99516663Y28424188D01*
X1278567Y27852759D02*
X945233Y28328950D01*
X707138Y27852759D02*
X707138Y28852759D01*
X1088091Y28852759D01*
X1183329Y28805140D01*
X1230948Y28757521D01*
X1278567Y28662283D01*
X1278567Y28519426D01*
X1230948Y28424188D01*
X1183329Y28376569D01*
X1088091Y28328950D01*
X707138Y28328950D01*
X1707138Y28376569D02*
X2040472Y28376569D01*
X2183329Y27852759D02*
X1707138Y27852759D01*
X1707138Y28852759D01*
X2183329Y28852759D01*
X2945234Y28376569D02*
X2611900Y28376569D01*
X2611900Y27852759D02*
X2611900Y28852759D01*
X3088091Y28852759D01*
X3611900Y28852759D02*
X3611900Y28614664D01*
X3373805Y28709902D02*
X3611900Y28614664D01*
X3849996Y28709902D01*
X3469043Y28424188D02*
X3611900Y28614664D01*
X3754758Y28424188D01*
X4373805Y28852759D02*
X4373805Y28614664D01*
X4135710Y28709902D02*
X4373805Y28614664D01*
X4611901Y28709902D01*
X4230948Y28424188D02*
X4373805Y28614664D01*
X4516663Y28424188D01*
X96278567Y5352759D02*
X95945233Y5828950D01*
X95707138Y5352759D02*
X95707138Y6352759D01*
X96088091Y6352759D01*
X96183329Y6305140D01*
X96230948Y6257521D01*
X96278567Y6162283D01*
X96278567Y6019426D01*
X96230948Y5924188D01*
X96183329Y5876569D01*
X96088091Y5828950D01*
X95707138Y5828950D01*
X96707138Y5876569D02*
X97040472Y5876569D01*
X97183329Y5352759D02*
X96707138Y5352759D01*
X96707138Y6352759D01*
X97183329Y6352759D01*
X97945234Y5876569D02*
X97611900Y5876569D01*
X97611900Y5352759D02*
X97611900Y6352759D01*
X98088091Y6352759D01*
X98611900Y6352759D02*
X98611900Y6114664D01*
X98373805Y6209902D02*
X98611900Y6114664D01*
X98849996Y6209902D01*
X98469043Y5924188D02*
X98611900Y6114664D01*
X98754758Y5924188D01*
X99373805Y6352759D02*
X99373805Y6114664D01*
X99135710Y6209902D02*
X99373805Y6114664D01*
X99611901Y6209902D01*
X99230948Y5924188D02*
X99373805Y6114664D01*
X99516663Y5924188D01*
X1278567Y5352759D02*
X945233Y5828950D01*
X707138Y5352759D02*
X707138Y6352759D01*
X1088091Y6352759D01*
X1183329Y6305140D01*
X1230948Y6257521D01*
X1278567Y6162283D01*
X1278567Y6019426D01*
X1230948Y5924188D01*
X1183329Y5876569D01*
X1088091Y5828950D01*
X707138Y5828950D01*
X1707138Y5876569D02*
X2040472Y5876569D01*
X2183329Y5352759D02*
X1707138Y5352759D01*
X1707138Y6352759D01*
X2183329Y6352759D01*
X2945234Y5876569D02*
X2611900Y5876569D01*
X2611900Y5352759D02*
X2611900Y6352759D01*
X3088091Y6352759D01*
X3611900Y6352759D02*
X3611900Y6114664D01*
X3373805Y6209902D02*
X3611900Y6114664D01*
X3849996Y6209902D01*
X3469043Y5924188D02*
X3611900Y6114664D01*
X3754758Y5924188D01*
X4373805Y6352759D02*
X4373805Y6114664D01*
X4135710Y6209902D02*
X4373805Y6114664D01*
X4611901Y6209902D01*
X4230948Y5924188D02*
X4373805Y6114664D01*
X4516663Y5924188D01*
X36619381Y16584397D02*
X37333667Y16584397D01*
X37476524Y16536777D01*
X37571762Y16441539D01*
X37619381Y16298682D01*
X37619381Y16203444D01*
X37619381Y17584397D02*
X37619381Y17012968D01*
X37619381Y17298682D02*
X36619381Y17298682D01*
X36762238Y17203444D01*
X36857476Y17108206D01*
X36905095Y17012968D01*
X36714619Y17965349D02*
X36667000Y18012968D01*
X36619381Y18108206D01*
X36619381Y18346302D01*
X36667000Y18441540D01*
X36714619Y18489159D01*
X36809857Y18536778D01*
X36905095Y18536778D01*
X37047952Y18489159D01*
X37619381Y17917730D01*
X37619381Y18536778D01*
X29506481Y2393417D02*
X30220767Y2393417D01*
X30363624Y2345797D01*
X30458862Y2250559D01*
X30506481Y2107702D01*
X30506481Y2012464D01*
X30506481Y3393417D02*
X30506481Y2821988D01*
X30506481Y3107702D02*
X29506481Y3107702D01*
X29649338Y3012464D01*
X29744576Y2917226D01*
X29792195Y2821988D01*
X30506481Y4345798D02*
X30506481Y3774369D01*
X30506481Y4060083D02*
X29506481Y4060083D01*
X29649338Y3964845D01*
X29744576Y3869607D01*
X29792195Y3774369D01*
X1778201Y42261257D02*
X2492487Y42261257D01*
X2635344Y42213637D01*
X2730582Y42118399D01*
X2778201Y41975542D01*
X2778201Y41880304D01*
X2778201Y43261257D02*
X2778201Y42689828D01*
X2778201Y42975542D02*
X1778201Y42975542D01*
X1921058Y42880304D01*
X2016296Y42785066D01*
X2063915Y42689828D01*
X1778201Y43880304D02*
X1778201Y43975543D01*
X1825820Y44070781D01*
X1873439Y44118400D01*
X1968677Y44166019D01*
X2159153Y44213638D01*
X2397249Y44213638D01*
X2587725Y44166019D01*
X2682963Y44118400D01*
X2730582Y44070781D01*
X2778201Y43975543D01*
X2778201Y43880304D01*
X2730582Y43785066D01*
X2682963Y43737447D01*
X2587725Y43689828D01*
X2397249Y43642209D01*
X2159153Y43642209D01*
X1968677Y43689828D01*
X1873439Y43737447D01*
X1825820Y43785066D01*
X1778201Y43880304D01*
X2281121Y71850927D02*
X2995407Y71850927D01*
X3138264Y71803307D01*
X3233502Y71708069D01*
X3281121Y71565212D01*
X3281121Y71469974D01*
X3281121Y72374736D02*
X3281121Y72565212D01*
X3233502Y72660451D01*
X3185883Y72708070D01*
X3043026Y72803308D01*
X2852550Y72850927D01*
X2471597Y72850927D01*
X2376359Y72803308D01*
X2328740Y72755689D01*
X2281121Y72660451D01*
X2281121Y72469974D01*
X2328740Y72374736D01*
X2376359Y72327117D01*
X2471597Y72279498D01*
X2709692Y72279498D01*
X2804930Y72327117D01*
X2852550Y72374736D01*
X2900169Y72469974D01*
X2900169Y72660451D01*
X2852550Y72755689D01*
X2804930Y72803308D01*
X2709692Y72850927D01*
X24008281Y63067607D02*
X24722567Y63067607D01*
X24865424Y63019987D01*
X24960662Y62924749D01*
X25008281Y62781892D01*
X25008281Y62686654D01*
X24436852Y63686654D02*
X24389233Y63591416D01*
X24341614Y63543797D01*
X24246376Y63496178D01*
X24198757Y63496178D01*
X24103519Y63543797D01*
X24055900Y63591416D01*
X24008281Y63686654D01*
X24008281Y63877131D01*
X24055900Y63972369D01*
X24103519Y64019988D01*
X24198757Y64067607D01*
X24246376Y64067607D01*
X24341614Y64019988D01*
X24389233Y63972369D01*
X24436852Y63877131D01*
X24436852Y63686654D01*
X24484471Y63591416D01*
X24532090Y63543797D01*
X24627329Y63496178D01*
X24817805Y63496178D01*
X24913043Y63543797D01*
X24960662Y63591416D01*
X25008281Y63686654D01*
X25008281Y63877131D01*
X24960662Y63972369D01*
X24913043Y64019988D01*
X24817805Y64067607D01*
X24627329Y64067607D01*
X24532090Y64019988D01*
X24484471Y63972369D01*
X24436852Y63877131D01*
X72052381Y71386107D02*
X72766667Y71386107D01*
X72909524Y71338487D01*
X73004762Y71243249D01*
X73052381Y71100392D01*
X73052381Y71005154D01*
X72052381Y71767059D02*
X72052381Y72433726D01*
X73052381Y72005154D01*
X99038981Y59676707D02*
X99753267Y59676707D01*
X99896124Y59629087D01*
X99991362Y59533849D01*
X100038981Y59390992D01*
X100038981Y59295754D01*
X99038981Y60581469D02*
X99038981Y60390992D01*
X99086600Y60295754D01*
X99134219Y60248135D01*
X99277076Y60152897D01*
X99467552Y60105278D01*
X99848505Y60105278D01*
X99943743Y60152897D01*
X99991362Y60200516D01*
X100038981Y60295754D01*
X100038981Y60486231D01*
X99991362Y60581469D01*
X99943743Y60629088D01*
X99848505Y60676707D01*
X99610410Y60676707D01*
X99515171Y60629088D01*
X99467552Y60581469D01*
X99419933Y60486231D01*
X99419933Y60295754D01*
X99467552Y60200516D01*
X99515171Y60152897D01*
X99610410Y60105278D01*
X91445281Y44893907D02*
X92159567Y44893907D01*
X92302424Y44846287D01*
X92397662Y44751049D01*
X92445281Y44608192D01*
X92445281Y44512954D01*
X91445281Y45846288D02*
X91445281Y45370097D01*
X91921471Y45322478D01*
X91873852Y45370097D01*
X91826233Y45465335D01*
X91826233Y45703431D01*
X91873852Y45798669D01*
X91921471Y45846288D01*
X92016710Y45893907D01*
X92254805Y45893907D01*
X92350043Y45846288D01*
X92397662Y45798669D01*
X92445281Y45703431D01*
X92445281Y45465335D01*
X92397662Y45370097D01*
X92350043Y45322478D01*
X48404981Y71475007D02*
X49119267Y71475007D01*
X49262124Y71427387D01*
X49357362Y71332149D01*
X49404981Y71189292D01*
X49404981Y71094054D01*
X48738314Y72379769D02*
X49404981Y72379769D01*
X48357362Y72141673D02*
X49071648Y71903578D01*
X49071648Y72522626D01*
X36581281Y41198207D02*
X37295567Y41198207D01*
X37438424Y41150587D01*
X37533662Y41055349D01*
X37581281Y40912492D01*
X37581281Y40817254D01*
X36581281Y41579159D02*
X36581281Y42198207D01*
X36962233Y41864873D01*
X36962233Y42007731D01*
X37009852Y42102969D01*
X37057471Y42150588D01*
X37152710Y42198207D01*
X37390805Y42198207D01*
X37486043Y42150588D01*
X37533662Y42102969D01*
X37581281Y42007731D01*
X37581281Y41722016D01*
X37533662Y41626778D01*
X37486043Y41579159D01*
X62984581Y41083907D02*
X63698867Y41083907D01*
X63841724Y41036287D01*
X63936962Y40941049D01*
X63984581Y40798192D01*
X63984581Y40702954D01*
X63079819Y41512478D02*
X63032200Y41560097D01*
X62984581Y41655335D01*
X62984581Y41893431D01*
X63032200Y41988669D01*
X63079819Y42036288D01*
X63175057Y42083907D01*
X63270295Y42083907D01*
X63413152Y42036288D01*
X63984581Y41464859D01*
X63984581Y42083907D01*
X87992521Y17047887D02*
X88706807Y17047887D01*
X88849664Y17000267D01*
X88944902Y16905029D01*
X88992521Y16762172D01*
X88992521Y16666934D01*
X88992521Y18047887D02*
X88992521Y17476458D01*
X88992521Y17762172D02*
X87992521Y17762172D01*
X88135378Y17666934D01*
X88230616Y17571696D01*
X88278235Y17476458D01*
X83778567Y38852759D02*
X83445233Y39328950D01*
X83207138Y38852759D02*
X83207138Y39852759D01*
X83588091Y39852759D01*
X83683329Y39805140D01*
X83730948Y39757521D01*
X83778567Y39662283D01*
X83778567Y39519426D01*
X83730948Y39424188D01*
X83683329Y39376569D01*
X83588091Y39328950D01*
X83207138Y39328950D01*
X84207138Y39376569D02*
X84540472Y39376569D01*
X84683329Y38852759D02*
X84207138Y38852759D01*
X84207138Y39852759D01*
X84683329Y39852759D01*
X85445234Y39376569D02*
X85111900Y39376569D01*
X85111900Y38852759D02*
X85111900Y39852759D01*
X85588091Y39852759D01*
X86111900Y39852759D02*
X86111900Y39614664D01*
X85873805Y39709902D02*
X86111900Y39614664D01*
X86349996Y39709902D01*
X85969043Y39424188D02*
X86111900Y39614664D01*
X86254758Y39424188D01*
X86873805Y39852759D02*
X86873805Y39614664D01*
X86635710Y39709902D02*
X86873805Y39614664D01*
X87111901Y39709902D01*
X86730948Y39424188D02*
X86873805Y39614664D01*
X87016663Y39424188D01*
X2778567Y41352759D02*
X2445233Y41828950D01*
X2207138Y41352759D02*
X2207138Y42352759D01*
X2588091Y42352759D01*
X2683329Y42305140D01*
X2730948Y42257521D01*
X2778567Y42162283D01*
X2778567Y42019426D01*
X2730948Y41924188D01*
X2683329Y41876569D01*
X2588091Y41828950D01*
X2207138Y41828950D01*
X3207138Y41876569D02*
X3540472Y41876569D01*
X3683329Y41352759D02*
X3207138Y41352759D01*
X3207138Y42352759D01*
X3683329Y42352759D01*
X4445234Y41876569D02*
X4111900Y41876569D01*
X4111900Y41352759D02*
X4111900Y42352759D01*
X4588091Y42352759D01*
X5111900Y42352759D02*
X5111900Y42114664D01*
X4873805Y42209902D02*
X5111900Y42114664D01*
X5349996Y42209902D01*
X4969043Y41924188D02*
X5111900Y42114664D01*
X5254758Y41924188D01*
X5873805Y42352759D02*
X5873805Y42114664D01*
X5635710Y42209902D02*
X5873805Y42114664D01*
X6111901Y42209902D01*
X5730948Y41924188D02*
X5873805Y42114664D01*
X6016663Y41924188D01*
X34778567Y7852759D02*
X34445233Y8328950D01*
X34207138Y7852759D02*
X34207138Y8852759D01*
X34588091Y8852759D01*
X34683329Y8805140D01*
X34730948Y8757521D01*
X34778567Y8662283D01*
X34778567Y8519426D01*
X34730948Y8424188D01*
X34683329Y8376569D01*
X34588091Y8328950D01*
X34207138Y8328950D01*
X35207138Y8376569D02*
X35540472Y8376569D01*
X35683329Y7852759D02*
X35207138Y7852759D01*
X35207138Y8852759D01*
X35683329Y8852759D01*
X36445234Y8376569D02*
X36111900Y8376569D01*
X36111900Y7852759D02*
X36111900Y8852759D01*
X36588091Y8852759D01*
X37111900Y8852759D02*
X37111900Y8614664D01*
X36873805Y8709902D02*
X37111900Y8614664D01*
X37349996Y8709902D01*
X36969043Y8424188D02*
X37111900Y8614664D01*
X37254758Y8424188D01*
X37873805Y8852759D02*
X37873805Y8614664D01*
X37635710Y8709902D02*
X37873805Y8614664D01*
X38111901Y8709902D01*
X37730948Y8424188D02*
X37873805Y8614664D01*
X38016663Y8424188D01*
X34778567Y74852759D02*
X34445233Y75328950D01*
X34207138Y74852759D02*
X34207138Y75852759D01*
X34588091Y75852759D01*
X34683329Y75805140D01*
X34730948Y75757521D01*
X34778567Y75662283D01*
X34778567Y75519426D01*
X34730948Y75424188D01*
X34683329Y75376569D01*
X34588091Y75328950D01*
X34207138Y75328950D01*
X35207138Y75376569D02*
X35540472Y75376569D01*
X35683329Y74852759D02*
X35207138Y74852759D01*
X35207138Y75852759D01*
X35683329Y75852759D01*
X36445234Y75376569D02*
X36111900Y75376569D01*
X36111900Y74852759D02*
X36111900Y75852759D01*
X36588091Y75852759D01*
X37111900Y75852759D02*
X37111900Y75614664D01*
X36873805Y75709902D02*
X37111900Y75614664D01*
X37349996Y75709902D01*
X36969043Y75424188D02*
X37111900Y75614664D01*
X37254758Y75424188D01*
X37873805Y75852759D02*
X37873805Y75614664D01*
X37635710Y75709902D02*
X37873805Y75614664D01*
X38111901Y75709902D01*
X37730948Y75424188D02*
X37873805Y75614664D01*
X38016663Y75424188D01*
M02*
