M48
METRIC,TZ
T1C1.000
%
G90
G05
T1
X4656Y43071
X5159Y72184
X7196Y43071
X7404Y3203
X7699Y72184
X9736Y43071
X9944Y3203
X10239Y72184
X12276Y43071
X12484Y3203
X12779Y72184
X14816Y43071
X15024Y3203
X15319Y72184
X17356Y43071
X17564Y3203
X17859Y72184
X19896Y43071
X20104Y3203
X20399Y72184
X22436Y43071
X22644Y3203
X22939Y72184
X24976Y43071
X25184Y3203
X25479Y72184
X26886Y63401
X27724Y3203
X29426Y63401
X31966Y63401
X34506Y63401
X37046Y63401
X39459Y41532
X39497Y17394
X39586Y63401
X41999Y41532
X42037Y17394
X44539Y41532
X44577Y17394
X47079Y41532
X47117Y17394
X49619Y41532
X49657Y17394
X51283Y71808
X52159Y41532
X52197Y17394
X53823Y71808
X54699Y41532
X54737Y17394
X56363Y71808
X57239Y41532
X57277Y17394
X58903Y71808
X59779Y41532
X59817Y17394
X61443Y71808
X63983Y71808
X65862Y41417
X65890Y17381
X66523Y71808
X68402Y41417
X68430Y17381
X70942Y41417
X70970Y17381
X73482Y41417
X73510Y17381
X74930Y71719
X76022Y41417
X76050Y17381
X77470Y71719
X78562Y41417
X78590Y17381
X80010Y71719
X81102Y41417
X81130Y17381
X82550Y71719
X83642Y41417
X83670Y17381
X85090Y71719
X86182Y41417
X86210Y17381
X87630Y71719
X90170Y71719
X94323Y45227
X94717Y60010
X96863Y45227
X97257Y60010
T0
M30
