G04 #@! TF.FileFunction,Copper,L1,Top,Signal*
%FSLAX46Y46*%
G04 Gerber Fmt 4.6, Leading zero omitted, Abs format (unit mm)*
G04 Created by KiCad (PCBNEW 4.0.7-e2-6376~60~ubuntu17.10.1) date Wed Apr  4 15:54:22 2018*
%MOMM*%
%LPD*%
G01*
G04 APERTURE LIST*
%ADD10C,0.100000*%
%ADD11C,0.150000*%
%ADD12C,0.010000*%
%ADD13R,1.550000X0.600000*%
%ADD14R,2.000000X1.700000*%
%ADD15R,2.032000X1.727200*%
%ADD16O,2.032000X1.727200*%
%ADD17C,0.500000*%
%ADD18C,0.400000*%
%ADD19C,0.300000*%
%ADD20C,0.250000*%
%ADD21C,0.200000*%
G04 APERTURE END LIST*
D10*
D11*
X33920771Y2423561D02*
X34025532Y2423561D01*
X34130294Y2371180D01*
X34182675Y2318799D01*
X34235056Y2214037D01*
X34287437Y2004513D01*
X34287437Y1742609D01*
X34235056Y1533085D01*
X34182675Y1428323D01*
X34130294Y1375942D01*
X34025532Y1323561D01*
X33920771Y1323561D01*
X33816009Y1375942D01*
X33763628Y1428323D01*
X33711247Y1533085D01*
X33658866Y1742609D01*
X33658866Y2004513D01*
X33711247Y2214037D01*
X33763628Y2318799D01*
X33816009Y2371180D01*
X33920771Y2423561D01*
X34758866Y1428323D02*
X34811247Y1375942D01*
X34758866Y1323561D01*
X34706485Y1375942D01*
X34758866Y1428323D01*
X34758866Y1323561D01*
X35806485Y2423561D02*
X35282676Y2423561D01*
X35230295Y1899751D01*
X35282676Y1952132D01*
X35387438Y2004513D01*
X35649342Y2004513D01*
X35754104Y1952132D01*
X35806485Y1899751D01*
X35858866Y1794990D01*
X35858866Y1533085D01*
X35806485Y1428323D01*
X35754104Y1375942D01*
X35649342Y1323561D01*
X35387438Y1323561D01*
X35282676Y1375942D01*
X35230295Y1428323D01*
X37168390Y1323561D02*
X37168390Y2056894D01*
X37168390Y1952132D02*
X37220771Y2004513D01*
X37325533Y2056894D01*
X37482675Y2056894D01*
X37587437Y2004513D01*
X37639818Y1899751D01*
X37639818Y1323561D01*
X37639818Y1899751D02*
X37692199Y2004513D01*
X37796961Y2056894D01*
X37954104Y2056894D01*
X38058866Y2004513D01*
X38111247Y1899751D01*
X38111247Y1323561D01*
X38635057Y1323561D02*
X38635057Y2056894D01*
X38635057Y1952132D02*
X38687438Y2004513D01*
X38792200Y2056894D01*
X38949342Y2056894D01*
X39054104Y2004513D01*
X39106485Y1899751D01*
X39106485Y1323561D01*
X39106485Y1899751D02*
X39158866Y2004513D01*
X39263628Y2056894D01*
X39420771Y2056894D01*
X39525533Y2004513D01*
X39577914Y1899751D01*
X39577914Y1323561D01*
X34002051Y5552841D02*
X34106812Y5552841D01*
X34211574Y5500460D01*
X34263955Y5448079D01*
X34316336Y5343317D01*
X34368717Y5133793D01*
X34368717Y4871889D01*
X34316336Y4662365D01*
X34263955Y4557603D01*
X34211574Y4505222D01*
X34106812Y4452841D01*
X34002051Y4452841D01*
X33897289Y4505222D01*
X33844908Y4557603D01*
X33792527Y4662365D01*
X33740146Y4871889D01*
X33740146Y5133793D01*
X33792527Y5343317D01*
X33844908Y5448079D01*
X33897289Y5500460D01*
X34002051Y5552841D01*
X34840146Y4557603D02*
X34892527Y4505222D01*
X34840146Y4452841D01*
X34787765Y4505222D01*
X34840146Y4557603D01*
X34840146Y4452841D01*
X35835384Y5186174D02*
X35835384Y4452841D01*
X35573480Y5605222D02*
X35311575Y4819508D01*
X35992527Y4819508D01*
X37249670Y4452841D02*
X37249670Y5186174D01*
X37249670Y5081412D02*
X37302051Y5133793D01*
X37406813Y5186174D01*
X37563955Y5186174D01*
X37668717Y5133793D01*
X37721098Y5029031D01*
X37721098Y4452841D01*
X37721098Y5029031D02*
X37773479Y5133793D01*
X37878241Y5186174D01*
X38035384Y5186174D01*
X38140146Y5133793D01*
X38192527Y5029031D01*
X38192527Y4452841D01*
X38716337Y4452841D02*
X38716337Y5186174D01*
X38716337Y5081412D02*
X38768718Y5133793D01*
X38873480Y5186174D01*
X39030622Y5186174D01*
X39135384Y5133793D01*
X39187765Y5029031D01*
X39187765Y4452841D01*
X39187765Y5029031D02*
X39240146Y5133793D01*
X39344908Y5186174D01*
X39502051Y5186174D01*
X39606813Y5133793D01*
X39659194Y5029031D01*
X39659194Y4452841D01*
X33890291Y8588141D02*
X33995052Y8588141D01*
X34099814Y8535760D01*
X34152195Y8483379D01*
X34204576Y8378617D01*
X34256957Y8169093D01*
X34256957Y7907189D01*
X34204576Y7697665D01*
X34152195Y7592903D01*
X34099814Y7540522D01*
X33995052Y7488141D01*
X33890291Y7488141D01*
X33785529Y7540522D01*
X33733148Y7592903D01*
X33680767Y7697665D01*
X33628386Y7907189D01*
X33628386Y8169093D01*
X33680767Y8378617D01*
X33733148Y8483379D01*
X33785529Y8535760D01*
X33890291Y8588141D01*
X34728386Y7592903D02*
X34780767Y7540522D01*
X34728386Y7488141D01*
X34676005Y7540522D01*
X34728386Y7592903D01*
X34728386Y7488141D01*
X35147434Y8588141D02*
X35828386Y8588141D01*
X35461720Y8169093D01*
X35618862Y8169093D01*
X35723624Y8116712D01*
X35776005Y8064331D01*
X35828386Y7959570D01*
X35828386Y7697665D01*
X35776005Y7592903D01*
X35723624Y7540522D01*
X35618862Y7488141D01*
X35304577Y7488141D01*
X35199815Y7540522D01*
X35147434Y7592903D01*
X37137910Y7488141D02*
X37137910Y8221474D01*
X37137910Y8116712D02*
X37190291Y8169093D01*
X37295053Y8221474D01*
X37452195Y8221474D01*
X37556957Y8169093D01*
X37609338Y8064331D01*
X37609338Y7488141D01*
X37609338Y8064331D02*
X37661719Y8169093D01*
X37766481Y8221474D01*
X37923624Y8221474D01*
X38028386Y8169093D01*
X38080767Y8064331D01*
X38080767Y7488141D01*
X38604577Y7488141D02*
X38604577Y8221474D01*
X38604577Y8116712D02*
X38656958Y8169093D01*
X38761720Y8221474D01*
X38918862Y8221474D01*
X39023624Y8169093D01*
X39076005Y8064331D01*
X39076005Y7488141D01*
X39076005Y8064331D02*
X39128386Y8169093D01*
X39233148Y8221474D01*
X39390291Y8221474D01*
X39495053Y8169093D01*
X39547434Y8064331D01*
X39547434Y7488141D01*
X32784821Y11539621D02*
X32889582Y11539621D01*
X32994344Y11487240D01*
X33046725Y11434859D01*
X33099106Y11330097D01*
X33151487Y11120573D01*
X33151487Y10858669D01*
X33099106Y10649145D01*
X33046725Y10544383D01*
X32994344Y10492002D01*
X32889582Y10439621D01*
X32784821Y10439621D01*
X32680059Y10492002D01*
X32627678Y10544383D01*
X32575297Y10649145D01*
X32522916Y10858669D01*
X32522916Y11120573D01*
X32575297Y11330097D01*
X32627678Y11434859D01*
X32680059Y11487240D01*
X32784821Y11539621D01*
X33622916Y10544383D02*
X33675297Y10492002D01*
X33622916Y10439621D01*
X33570535Y10492002D01*
X33622916Y10544383D01*
X33622916Y10439621D01*
X34094345Y11434859D02*
X34146726Y11487240D01*
X34251488Y11539621D01*
X34513392Y11539621D01*
X34618154Y11487240D01*
X34670535Y11434859D01*
X34722916Y11330097D01*
X34722916Y11225335D01*
X34670535Y11068192D01*
X34041964Y10439621D01*
X34722916Y10439621D01*
X35718154Y11539621D02*
X35194345Y11539621D01*
X35141964Y11015811D01*
X35194345Y11068192D01*
X35299107Y11120573D01*
X35561011Y11120573D01*
X35665773Y11068192D01*
X35718154Y11015811D01*
X35770535Y10911050D01*
X35770535Y10649145D01*
X35718154Y10544383D01*
X35665773Y10492002D01*
X35561011Y10439621D01*
X35299107Y10439621D01*
X35194345Y10492002D01*
X35141964Y10544383D01*
X37080059Y10439621D02*
X37080059Y11172954D01*
X37080059Y11068192D02*
X37132440Y11120573D01*
X37237202Y11172954D01*
X37394344Y11172954D01*
X37499106Y11120573D01*
X37551487Y11015811D01*
X37551487Y10439621D01*
X37551487Y11015811D02*
X37603868Y11120573D01*
X37708630Y11172954D01*
X37865773Y11172954D01*
X37970535Y11120573D01*
X38022916Y11015811D01*
X38022916Y10439621D01*
X38546726Y10439621D02*
X38546726Y11172954D01*
X38546726Y11068192D02*
X38599107Y11120573D01*
X38703869Y11172954D01*
X38861011Y11172954D01*
X38965773Y11120573D01*
X39018154Y11015811D01*
X39018154Y10439621D01*
X39018154Y11015811D02*
X39070535Y11120573D01*
X39175297Y11172954D01*
X39332440Y11172954D01*
X39437202Y11120573D01*
X39489583Y11015811D01*
X39489583Y10439621D01*
X32864131Y13884041D02*
X32968892Y13884041D01*
X33073654Y13831660D01*
X33126035Y13779279D01*
X33178416Y13674517D01*
X33230797Y13464993D01*
X33230797Y13203089D01*
X33178416Y12993565D01*
X33126035Y12888803D01*
X33073654Y12836422D01*
X32968892Y12784041D01*
X32864131Y12784041D01*
X32759369Y12836422D01*
X32706988Y12888803D01*
X32654607Y12993565D01*
X32602226Y13203089D01*
X32602226Y13464993D01*
X32654607Y13674517D01*
X32706988Y13779279D01*
X32759369Y13831660D01*
X32864131Y13884041D01*
X33702226Y12888803D02*
X33754607Y12836422D01*
X33702226Y12784041D01*
X33649845Y12836422D01*
X33702226Y12888803D01*
X33702226Y12784041D01*
X34173655Y13779279D02*
X34226036Y13831660D01*
X34330798Y13884041D01*
X34592702Y13884041D01*
X34697464Y13831660D01*
X34749845Y13779279D01*
X34802226Y13674517D01*
X34802226Y13569755D01*
X34749845Y13412612D01*
X34121274Y12784041D01*
X34802226Y12784041D01*
X36111750Y12784041D02*
X36111750Y13517374D01*
X36111750Y13412612D02*
X36164131Y13464993D01*
X36268893Y13517374D01*
X36426035Y13517374D01*
X36530797Y13464993D01*
X36583178Y13360231D01*
X36583178Y12784041D01*
X36583178Y13360231D02*
X36635559Y13464993D01*
X36740321Y13517374D01*
X36897464Y13517374D01*
X37002226Y13464993D01*
X37054607Y13360231D01*
X37054607Y12784041D01*
X37578417Y12784041D02*
X37578417Y13517374D01*
X37578417Y13412612D02*
X37630798Y13464993D01*
X37735560Y13517374D01*
X37892702Y13517374D01*
X37997464Y13464993D01*
X38049845Y13360231D01*
X38049845Y12784041D01*
X38049845Y13360231D02*
X38102226Y13464993D01*
X38206988Y13517374D01*
X38364131Y13517374D01*
X38468893Y13464993D01*
X38521274Y13360231D01*
X38521274Y12784041D01*
X32563841Y16200521D02*
X32668602Y16200521D01*
X32773364Y16148140D01*
X32825745Y16095759D01*
X32878126Y15990997D01*
X32930507Y15781473D01*
X32930507Y15519569D01*
X32878126Y15310045D01*
X32825745Y15205283D01*
X32773364Y15152902D01*
X32668602Y15100521D01*
X32563841Y15100521D01*
X32459079Y15152902D01*
X32406698Y15205283D01*
X32354317Y15310045D01*
X32301936Y15519569D01*
X32301936Y15781473D01*
X32354317Y15990997D01*
X32406698Y16095759D01*
X32459079Y16148140D01*
X32563841Y16200521D01*
X33401936Y15205283D02*
X33454317Y15152902D01*
X33401936Y15100521D01*
X33349555Y15152902D01*
X33401936Y15205283D01*
X33401936Y15100521D01*
X34501936Y15100521D02*
X33873365Y15100521D01*
X34187651Y15100521D02*
X34187651Y16200521D01*
X34082889Y16043378D01*
X33978127Y15938616D01*
X33873365Y15886235D01*
X35497174Y16200521D02*
X34973365Y16200521D01*
X34920984Y15676711D01*
X34973365Y15729092D01*
X35078127Y15781473D01*
X35340031Y15781473D01*
X35444793Y15729092D01*
X35497174Y15676711D01*
X35549555Y15571950D01*
X35549555Y15310045D01*
X35497174Y15205283D01*
X35444793Y15152902D01*
X35340031Y15100521D01*
X35078127Y15100521D01*
X34973365Y15152902D01*
X34920984Y15205283D01*
X36859079Y15100521D02*
X36859079Y15833854D01*
X36859079Y15729092D02*
X36911460Y15781473D01*
X37016222Y15833854D01*
X37173364Y15833854D01*
X37278126Y15781473D01*
X37330507Y15676711D01*
X37330507Y15100521D01*
X37330507Y15676711D02*
X37382888Y15781473D01*
X37487650Y15833854D01*
X37644793Y15833854D01*
X37749555Y15781473D01*
X37801936Y15676711D01*
X37801936Y15100521D01*
X38325746Y15100521D02*
X38325746Y15833854D01*
X38325746Y15729092D02*
X38378127Y15781473D01*
X38482889Y15833854D01*
X38640031Y15833854D01*
X38744793Y15781473D01*
X38797174Y15676711D01*
X38797174Y15100521D01*
X38797174Y15676711D02*
X38849555Y15781473D01*
X38954317Y15833854D01*
X39111460Y15833854D01*
X39216222Y15781473D01*
X39268603Y15676711D01*
X39268603Y15100521D01*
X32620291Y18476361D02*
X32725052Y18476361D01*
X32829814Y18423980D01*
X32882195Y18371599D01*
X32934576Y18266837D01*
X32986957Y18057313D01*
X32986957Y17795409D01*
X32934576Y17585885D01*
X32882195Y17481123D01*
X32829814Y17428742D01*
X32725052Y17376361D01*
X32620291Y17376361D01*
X32515529Y17428742D01*
X32463148Y17481123D01*
X32410767Y17585885D01*
X32358386Y17795409D01*
X32358386Y18057313D01*
X32410767Y18266837D01*
X32463148Y18371599D01*
X32515529Y18423980D01*
X32620291Y18476361D01*
X33458386Y17481123D02*
X33510767Y17428742D01*
X33458386Y17376361D01*
X33406005Y17428742D01*
X33458386Y17481123D01*
X33458386Y17376361D01*
X34558386Y17376361D02*
X33929815Y17376361D01*
X34244101Y17376361D02*
X34244101Y18476361D01*
X34139339Y18319218D01*
X34034577Y18214456D01*
X33929815Y18162075D01*
X35867910Y17376361D02*
X35867910Y18109694D01*
X35867910Y18004932D02*
X35920291Y18057313D01*
X36025053Y18109694D01*
X36182195Y18109694D01*
X36286957Y18057313D01*
X36339338Y17952551D01*
X36339338Y17376361D01*
X36339338Y17952551D02*
X36391719Y18057313D01*
X36496481Y18109694D01*
X36653624Y18109694D01*
X36758386Y18057313D01*
X36810767Y17952551D01*
X36810767Y17376361D01*
X37334577Y17376361D02*
X37334577Y18109694D01*
X37334577Y18004932D02*
X37386958Y18057313D01*
X37491720Y18109694D01*
X37648862Y18109694D01*
X37753624Y18057313D01*
X37806005Y17952551D01*
X37806005Y17376361D01*
X37806005Y17952551D02*
X37858386Y18057313D01*
X37963148Y18109694D01*
X38120291Y18109694D01*
X38225053Y18057313D01*
X38277434Y17952551D01*
X38277434Y17376361D01*
D12*
G36*
X2342700Y2810032D02*
X2377932Y2792626D01*
X2421380Y2762294D01*
X2453046Y2729217D01*
X2474734Y2687683D01*
X2488243Y2631978D01*
X2495378Y2556389D01*
X2497940Y2455204D01*
X2498090Y2411703D01*
X2497652Y2316365D01*
X2495836Y2248229D01*
X2491885Y2201082D01*
X2485042Y2168710D01*
X2474551Y2144900D01*
X2463636Y2128657D01*
X2393959Y2059548D01*
X2311906Y2017979D01*
X2223390Y2005477D01*
X2134321Y2023566D01*
X2106103Y2036358D01*
X2038550Y2071569D01*
X2038550Y1519800D01*
X2087852Y1545295D01*
X2152813Y1565020D01*
X2232660Y1570073D01*
X2312392Y1560744D01*
X2372605Y1539786D01*
X2422548Y1499873D01*
X2465221Y1442759D01*
X2468430Y1436895D01*
X2481962Y1409273D01*
X2491845Y1381432D01*
X2498649Y1347706D01*
X2502941Y1302429D01*
X2505291Y1239938D01*
X2506268Y1154565D01*
X2506445Y1058490D01*
X2506445Y751974D01*
X2322629Y751974D01*
X2322629Y1317161D01*
X2271215Y1360423D01*
X2217806Y1395028D01*
X2167228Y1401320D01*
X2116370Y1385128D01*
X2089265Y1369273D01*
X2069091Y1346690D01*
X2054743Y1312560D01*
X2045116Y1262066D01*
X2039103Y1190389D01*
X2035600Y1092712D01*
X2034366Y1027698D01*
X2030195Y760329D01*
X1942465Y755278D01*
X1854734Y750227D01*
X1854734Y2409399D01*
X2038550Y2409399D01*
X2043236Y2316900D01*
X2059028Y2252691D01*
X2088523Y2212741D01*
X2134320Y2193020D01*
X2180590Y2189079D01*
X2232968Y2193608D01*
X2267730Y2211431D01*
X2289468Y2234981D01*
X2306580Y2260311D01*
X2316767Y2288531D01*
X2321300Y2328069D01*
X2321449Y2387358D01*
X2319924Y2437002D01*
X2316421Y2511790D01*
X2311207Y2560889D01*
X2302427Y2592033D01*
X2288226Y2612955D01*
X2274824Y2625048D01*
X2218827Y2651419D01*
X2152551Y2655678D01*
X2114496Y2646594D01*
X2076817Y2614304D01*
X2051859Y2551494D01*
X2039762Y2458606D01*
X2038550Y2409399D01*
X1854734Y2409399D01*
X1854734Y2824079D01*
X1946642Y2824079D01*
X2001823Y2821897D01*
X2030292Y2814149D01*
X2038546Y2799032D01*
X2038550Y2798584D01*
X2042380Y2783780D01*
X2059273Y2785461D01*
X2092859Y2801728D01*
X2171118Y2826613D01*
X2259167Y2829229D01*
X2342700Y2810032D01*
X2342700Y2810032D01*
G37*
X2342700Y2810032D02*
X2377932Y2792626D01*
X2421380Y2762294D01*
X2453046Y2729217D01*
X2474734Y2687683D01*
X2488243Y2631978D01*
X2495378Y2556389D01*
X2497940Y2455204D01*
X2498090Y2411703D01*
X2497652Y2316365D01*
X2495836Y2248229D01*
X2491885Y2201082D01*
X2485042Y2168710D01*
X2474551Y2144900D01*
X2463636Y2128657D01*
X2393959Y2059548D01*
X2311906Y2017979D01*
X2223390Y2005477D01*
X2134321Y2023566D01*
X2106103Y2036358D01*
X2038550Y2071569D01*
X2038550Y1519800D01*
X2087852Y1545295D01*
X2152813Y1565020D01*
X2232660Y1570073D01*
X2312392Y1560744D01*
X2372605Y1539786D01*
X2422548Y1499873D01*
X2465221Y1442759D01*
X2468430Y1436895D01*
X2481962Y1409273D01*
X2491845Y1381432D01*
X2498649Y1347706D01*
X2502941Y1302429D01*
X2505291Y1239938D01*
X2506268Y1154565D01*
X2506445Y1058490D01*
X2506445Y751974D01*
X2322629Y751974D01*
X2322629Y1317161D01*
X2271215Y1360423D01*
X2217806Y1395028D01*
X2167228Y1401320D01*
X2116370Y1385128D01*
X2089265Y1369273D01*
X2069091Y1346690D01*
X2054743Y1312560D01*
X2045116Y1262066D01*
X2039103Y1190389D01*
X2035600Y1092712D01*
X2034366Y1027698D01*
X2030195Y760329D01*
X1942465Y755278D01*
X1854734Y750227D01*
X1854734Y2409399D01*
X2038550Y2409399D01*
X2043236Y2316900D01*
X2059028Y2252691D01*
X2088523Y2212741D01*
X2134320Y2193020D01*
X2180590Y2189079D01*
X2232968Y2193608D01*
X2267730Y2211431D01*
X2289468Y2234981D01*
X2306580Y2260311D01*
X2316767Y2288531D01*
X2321300Y2328069D01*
X2321449Y2387358D01*
X2319924Y2437002D01*
X2316421Y2511790D01*
X2311207Y2560889D01*
X2302427Y2592033D01*
X2288226Y2612955D01*
X2274824Y2625048D01*
X2218827Y2651419D01*
X2152551Y2655678D01*
X2114496Y2646594D01*
X2076817Y2614304D01*
X2051859Y2551494D01*
X2039762Y2458606D01*
X2038550Y2409399D01*
X1854734Y2409399D01*
X1854734Y2824079D01*
X1946642Y2824079D01*
X2001823Y2821897D01*
X2030292Y2814149D01*
X2038546Y2799032D01*
X2038550Y2798584D01*
X2042380Y2783780D01*
X2059273Y2785461D01*
X2092859Y2801728D01*
X2171118Y2826613D01*
X2259167Y2829229D01*
X2342700Y2810032D01*
G36*
X3039797Y1564316D02*
X3118410Y1543340D01*
X3178256Y1505320D01*
X3220487Y1455522D01*
X3233615Y1434270D01*
X3243308Y1412008D01*
X3250084Y1383530D01*
X3254463Y1343629D01*
X3256964Y1287099D01*
X3258108Y1208733D01*
X3258412Y1103324D01*
X3258418Y1075358D01*
X3258418Y751974D01*
X3178208Y751974D01*
X3127046Y755557D01*
X3089217Y764634D01*
X3079739Y770232D01*
X3053828Y779894D01*
X3027364Y770232D01*
X2983792Y758170D01*
X2920500Y753315D01*
X2850350Y755422D01*
X2786200Y764244D01*
X2748747Y775563D01*
X2676273Y822088D01*
X2630980Y886654D01*
X2610618Y972500D01*
X2610428Y974704D01*
X2612215Y1012787D01*
X2773813Y1012787D01*
X2787941Y969470D01*
X2810952Y945092D01*
X2857144Y926655D01*
X2918115Y919295D01*
X2980289Y922917D01*
X3030091Y937426D01*
X3044043Y946735D01*
X3068425Y989747D01*
X3074603Y1038643D01*
X3074603Y1102895D01*
X2982158Y1102895D01*
X2894335Y1096134D01*
X2827758Y1076980D01*
X2786342Y1047124D01*
X2773813Y1012787D01*
X2612215Y1012787D01*
X2614830Y1068496D01*
X2645764Y1142653D01*
X2703921Y1198733D01*
X2711960Y1203835D01*
X2746503Y1220445D01*
X2789258Y1230504D01*
X2849026Y1235393D01*
X2920030Y1236517D01*
X3074603Y1236579D01*
X3074603Y1301375D01*
X3068046Y1351650D01*
X3051315Y1385331D01*
X3049356Y1387124D01*
X3012123Y1401858D01*
X2955920Y1407569D01*
X2893807Y1404763D01*
X2838850Y1393944D01*
X2806239Y1377718D01*
X2788568Y1364720D01*
X2769909Y1362238D01*
X2744159Y1372887D01*
X2705213Y1399282D01*
X2646970Y1444035D01*
X2641624Y1448227D01*
X2644363Y1463740D01*
X2667216Y1489540D01*
X2701949Y1518211D01*
X2740330Y1542334D01*
X2752388Y1548030D01*
X2796374Y1559397D01*
X2860827Y1567505D01*
X2932837Y1570757D01*
X2936204Y1570764D01*
X3039797Y1564316D01*
X3039797Y1564316D01*
G37*
X3039797Y1564316D02*
X3118410Y1543340D01*
X3178256Y1505320D01*
X3220487Y1455522D01*
X3233615Y1434270D01*
X3243308Y1412008D01*
X3250084Y1383530D01*
X3254463Y1343629D01*
X3256964Y1287099D01*
X3258108Y1208733D01*
X3258412Y1103324D01*
X3258418Y1075358D01*
X3258418Y751974D01*
X3178208Y751974D01*
X3127046Y755557D01*
X3089217Y764634D01*
X3079739Y770232D01*
X3053828Y779894D01*
X3027364Y770232D01*
X2983792Y758170D01*
X2920500Y753315D01*
X2850350Y755422D01*
X2786200Y764244D01*
X2748747Y775563D01*
X2676273Y822088D01*
X2630980Y886654D01*
X2610618Y972500D01*
X2610428Y974704D01*
X2612215Y1012787D01*
X2773813Y1012787D01*
X2787941Y969470D01*
X2810952Y945092D01*
X2857144Y926655D01*
X2918115Y919295D01*
X2980289Y922917D01*
X3030091Y937426D01*
X3044043Y946735D01*
X3068425Y989747D01*
X3074603Y1038643D01*
X3074603Y1102895D01*
X2982158Y1102895D01*
X2894335Y1096134D01*
X2827758Y1076980D01*
X2786342Y1047124D01*
X2773813Y1012787D01*
X2612215Y1012787D01*
X2614830Y1068496D01*
X2645764Y1142653D01*
X2703921Y1198733D01*
X2711960Y1203835D01*
X2746503Y1220445D01*
X2789258Y1230504D01*
X2849026Y1235393D01*
X2920030Y1236517D01*
X3074603Y1236579D01*
X3074603Y1301375D01*
X3068046Y1351650D01*
X3051315Y1385331D01*
X3049356Y1387124D01*
X3012123Y1401858D01*
X2955920Y1407569D01*
X2893807Y1404763D01*
X2838850Y1393944D01*
X2806239Y1377718D01*
X2788568Y1364720D01*
X2769909Y1362238D01*
X2744159Y1372887D01*
X2705213Y1399282D01*
X2646970Y1444035D01*
X2641624Y1448227D01*
X2644363Y1463740D01*
X2667216Y1489540D01*
X2701949Y1518211D01*
X2740330Y1542334D01*
X2752388Y1548030D01*
X2796374Y1559397D01*
X2860827Y1567505D01*
X2932837Y1570757D01*
X2936204Y1570764D01*
X3039797Y1564316D01*
G36*
X3559221Y1569014D02*
X3584228Y1561518D01*
X3592290Y1545049D01*
X3592629Y1537614D01*
X3594076Y1516906D01*
X3604038Y1513655D01*
X3630952Y1527852D01*
X3646938Y1537552D01*
X3697373Y1558325D01*
X3757612Y1568596D01*
X3820774Y1569386D01*
X3879977Y1561714D01*
X3928342Y1546602D01*
X3958986Y1525068D01*
X3965029Y1498134D01*
X3961979Y1490840D01*
X3939746Y1460563D01*
X3905270Y1423325D01*
X3899034Y1417305D01*
X3866173Y1389625D01*
X3837820Y1380682D01*
X3798167Y1386924D01*
X3782282Y1391071D01*
X3732849Y1401033D01*
X3698092Y1396553D01*
X3668740Y1380754D01*
X3641853Y1359551D01*
X3622050Y1332886D01*
X3608288Y1295673D01*
X3599524Y1242827D01*
X3594714Y1169263D01*
X3592814Y1069895D01*
X3592629Y1009899D01*
X3592629Y751974D01*
X3425524Y751974D01*
X3425524Y1570790D01*
X3509076Y1570790D01*
X3559221Y1569014D01*
X3559221Y1569014D01*
G37*
X3559221Y1569014D02*
X3584228Y1561518D01*
X3592290Y1545049D01*
X3592629Y1537614D01*
X3594076Y1516906D01*
X3604038Y1513655D01*
X3630952Y1527852D01*
X3646938Y1537552D01*
X3697373Y1558325D01*
X3757612Y1568596D01*
X3820774Y1569386D01*
X3879977Y1561714D01*
X3928342Y1546602D01*
X3958986Y1525068D01*
X3965029Y1498134D01*
X3961979Y1490840D01*
X3939746Y1460563D01*
X3905270Y1423325D01*
X3899034Y1417305D01*
X3866173Y1389625D01*
X3837820Y1380682D01*
X3798167Y1386924D01*
X3782282Y1391071D01*
X3732849Y1401033D01*
X3698092Y1396553D01*
X3668740Y1380754D01*
X3641853Y1359551D01*
X3622050Y1332886D01*
X3608288Y1295673D01*
X3599524Y1242827D01*
X3594714Y1169263D01*
X3592814Y1069895D01*
X3592629Y1009899D01*
X3592629Y751974D01*
X3425524Y751974D01*
X3425524Y1570790D01*
X3509076Y1570790D01*
X3559221Y1569014D01*
G36*
X4611971Y751974D02*
X4520063Y751974D01*
X4466717Y753538D01*
X4438933Y760015D01*
X4428930Y774082D01*
X4428155Y783594D01*
X4426468Y802668D01*
X4415830Y806326D01*
X4387875Y794568D01*
X4366135Y783594D01*
X4282672Y757589D01*
X4191944Y756084D01*
X4118182Y775479D01*
X4049494Y822335D01*
X3997134Y891496D01*
X3968462Y973073D01*
X3967732Y977634D01*
X3963472Y1027399D01*
X3961354Y1098841D01*
X3961524Y1152874D01*
X4144060Y1152874D01*
X4148289Y1081059D01*
X4157908Y1021866D01*
X4170930Y988440D01*
X4220196Y942760D01*
X4278690Y926385D01*
X4339011Y939627D01*
X4390557Y979127D01*
X4410078Y1005693D01*
X4421492Y1037394D01*
X4426838Y1083668D01*
X4428155Y1153172D01*
X4425798Y1222001D01*
X4419573Y1282474D01*
X4410748Y1322944D01*
X4409277Y1326571D01*
X4373687Y1369698D01*
X4321740Y1393376D01*
X4263618Y1397199D01*
X4209500Y1380762D01*
X4169566Y1343660D01*
X4165423Y1336278D01*
X4152456Y1291261D01*
X4145392Y1226533D01*
X4144060Y1152874D01*
X3961524Y1152874D01*
X3961611Y1180270D01*
X3962812Y1224095D01*
X3970985Y1332512D01*
X3987970Y1413912D01*
X4016227Y1474088D01*
X4058212Y1518834D01*
X4098972Y1545100D01*
X4155921Y1563565D01*
X4226751Y1569898D01*
X4299281Y1564740D01*
X4361326Y1548731D01*
X4394108Y1529580D01*
X4428155Y1498768D01*
X4428155Y1888290D01*
X4611971Y1888290D01*
X4611971Y751974D01*
X4611971Y751974D01*
G37*
X4611971Y751974D02*
X4520063Y751974D01*
X4466717Y753538D01*
X4438933Y760015D01*
X4428930Y774082D01*
X4428155Y783594D01*
X4426468Y802668D01*
X4415830Y806326D01*
X4387875Y794568D01*
X4366135Y783594D01*
X4282672Y757589D01*
X4191944Y756084D01*
X4118182Y775479D01*
X4049494Y822335D01*
X3997134Y891496D01*
X3968462Y973073D01*
X3967732Y977634D01*
X3963472Y1027399D01*
X3961354Y1098841D01*
X3961524Y1152874D01*
X4144060Y1152874D01*
X4148289Y1081059D01*
X4157908Y1021866D01*
X4170930Y988440D01*
X4220196Y942760D01*
X4278690Y926385D01*
X4339011Y939627D01*
X4390557Y979127D01*
X4410078Y1005693D01*
X4421492Y1037394D01*
X4426838Y1083668D01*
X4428155Y1153172D01*
X4425798Y1222001D01*
X4419573Y1282474D01*
X4410748Y1322944D01*
X4409277Y1326571D01*
X4373687Y1369698D01*
X4321740Y1393376D01*
X4263618Y1397199D01*
X4209500Y1380762D01*
X4169566Y1343660D01*
X4165423Y1336278D01*
X4152456Y1291261D01*
X4145392Y1226533D01*
X4144060Y1152874D01*
X3961524Y1152874D01*
X3961611Y1180270D01*
X3962812Y1224095D01*
X3970985Y1332512D01*
X3987970Y1413912D01*
X4016227Y1474088D01*
X4058212Y1518834D01*
X4098972Y1545100D01*
X4155921Y1563565D01*
X4226751Y1569898D01*
X4299281Y1564740D01*
X4361326Y1548731D01*
X4394108Y1529580D01*
X4428155Y1498768D01*
X4428155Y1888290D01*
X4611971Y1888290D01*
X4611971Y751974D01*
G36*
X5253470Y1567396D02*
X5319560Y1562434D01*
X5405966Y1303421D01*
X5492371Y1044408D01*
X5519464Y1136316D01*
X5535768Y1193116D01*
X5557215Y1269875D01*
X5580375Y1354249D01*
X5592620Y1399507D01*
X5638684Y1570790D01*
X5828727Y1570790D01*
X5771922Y1391151D01*
X5743947Y1302796D01*
X5710153Y1196219D01*
X5674860Y1085046D01*
X5643353Y985921D01*
X5571590Y760329D01*
X5416626Y750247D01*
X5374610Y888972D01*
X5348699Y975149D01*
X5320423Y1070153D01*
X5295709Y1154059D01*
X5294734Y1157398D01*
X5276275Y1214252D01*
X5259989Y1253044D01*
X5248582Y1267713D01*
X5246238Y1266017D01*
X5238011Y1243275D01*
X5222378Y1194560D01*
X5201244Y1125998D01*
X5176510Y1043715D01*
X5163127Y998454D01*
X5090651Y751974D01*
X4936835Y751974D01*
X4813871Y1140494D01*
X4779328Y1249478D01*
X4747861Y1348452D01*
X4720956Y1432764D01*
X4700099Y1497766D01*
X4686778Y1538808D01*
X4682728Y1550799D01*
X4685934Y1563077D01*
X4711105Y1568454D01*
X4763486Y1567916D01*
X4771685Y1567510D01*
X4868822Y1562434D01*
X4932440Y1328487D01*
X4955824Y1243167D01*
X4976721Y1168165D01*
X4993291Y1109993D01*
X5003694Y1075163D01*
X5005616Y1069484D01*
X5013581Y1076014D01*
X5029644Y1109846D01*
X5051961Y1166373D01*
X5078685Y1240990D01*
X5101277Y1308393D01*
X5187381Y1572357D01*
X5253470Y1567396D01*
X5253470Y1567396D01*
G37*
X5253470Y1567396D02*
X5319560Y1562434D01*
X5405966Y1303421D01*
X5492371Y1044408D01*
X5519464Y1136316D01*
X5535768Y1193116D01*
X5557215Y1269875D01*
X5580375Y1354249D01*
X5592620Y1399507D01*
X5638684Y1570790D01*
X5828727Y1570790D01*
X5771922Y1391151D01*
X5743947Y1302796D01*
X5710153Y1196219D01*
X5674860Y1085046D01*
X5643353Y985921D01*
X5571590Y760329D01*
X5416626Y750247D01*
X5374610Y888972D01*
X5348699Y975149D01*
X5320423Y1070153D01*
X5295709Y1154059D01*
X5294734Y1157398D01*
X5276275Y1214252D01*
X5259989Y1253044D01*
X5248582Y1267713D01*
X5246238Y1266017D01*
X5238011Y1243275D01*
X5222378Y1194560D01*
X5201244Y1125998D01*
X5176510Y1043715D01*
X5163127Y998454D01*
X5090651Y751974D01*
X4936835Y751974D01*
X4813871Y1140494D01*
X4779328Y1249478D01*
X4747861Y1348452D01*
X4720956Y1432764D01*
X4700099Y1497766D01*
X4686778Y1538808D01*
X4682728Y1550799D01*
X4685934Y1563077D01*
X4711105Y1568454D01*
X4763486Y1567916D01*
X4771685Y1567510D01*
X4868822Y1562434D01*
X4932440Y1328487D01*
X4955824Y1243167D01*
X4976721Y1168165D01*
X4993291Y1109993D01*
X5003694Y1075163D01*
X5005616Y1069484D01*
X5013581Y1076014D01*
X5029644Y1109846D01*
X5051961Y1166373D01*
X5078685Y1240990D01*
X5101277Y1308393D01*
X5187381Y1572357D01*
X5253470Y1567396D01*
G36*
X6259332Y1565827D02*
X6329767Y1548720D01*
X6350127Y1539656D01*
X6389593Y1515917D01*
X6419881Y1489179D01*
X6442292Y1454801D01*
X6458126Y1408140D01*
X6468683Y1344554D01*
X6475264Y1259401D01*
X6479168Y1148038D01*
X6480650Y1073651D01*
X6486105Y751974D01*
X6392920Y751974D01*
X6336387Y754344D01*
X6307262Y762445D01*
X6299734Y776049D01*
X6295760Y790759D01*
X6277992Y787946D01*
X6253780Y776152D01*
X6193168Y758073D01*
X6115269Y753201D01*
X6033335Y761170D01*
X5960621Y781611D01*
X5954099Y784449D01*
X5887642Y831135D01*
X5843831Y896036D01*
X5823672Y971900D01*
X5825212Y999156D01*
X5989685Y999156D01*
X6004177Y962476D01*
X6047145Y936191D01*
X6116469Y922083D01*
X6153517Y920210D01*
X6215259Y925006D01*
X6256300Y943642D01*
X6266313Y952500D01*
X6293440Y1000694D01*
X6299734Y1044408D01*
X6299734Y1102895D01*
X6218270Y1102895D01*
X6123574Y1098068D01*
X6057153Y1082887D01*
X6015186Y1056300D01*
X6005789Y1044448D01*
X5989685Y999156D01*
X5825212Y999156D01*
X5828169Y1051474D01*
X5858325Y1127505D01*
X5899471Y1178888D01*
X5924392Y1201103D01*
X5948788Y1215702D01*
X5980531Y1224603D01*
X6027492Y1229725D01*
X6097544Y1232985D01*
X6125330Y1233923D01*
X6299734Y1239621D01*
X6299478Y1292409D01*
X6292724Y1347897D01*
X6268304Y1381448D01*
X6218970Y1402882D01*
X6217646Y1403264D01*
X6147700Y1411692D01*
X6079254Y1400684D01*
X6028387Y1373915D01*
X6007977Y1360697D01*
X5985994Y1362526D01*
X5952166Y1381676D01*
X5932301Y1395192D01*
X5893446Y1424068D01*
X5869378Y1445714D01*
X5865516Y1451911D01*
X5881419Y1483981D01*
X5928405Y1522281D01*
X5948813Y1535203D01*
X6007483Y1557459D01*
X6086552Y1570068D01*
X6174381Y1572900D01*
X6259332Y1565827D01*
X6259332Y1565827D01*
G37*
X6259332Y1565827D02*
X6329767Y1548720D01*
X6350127Y1539656D01*
X6389593Y1515917D01*
X6419881Y1489179D01*
X6442292Y1454801D01*
X6458126Y1408140D01*
X6468683Y1344554D01*
X6475264Y1259401D01*
X6479168Y1148038D01*
X6480650Y1073651D01*
X6486105Y751974D01*
X6392920Y751974D01*
X6336387Y754344D01*
X6307262Y762445D01*
X6299734Y776049D01*
X6295760Y790759D01*
X6277992Y787946D01*
X6253780Y776152D01*
X6193168Y758073D01*
X6115269Y753201D01*
X6033335Y761170D01*
X5960621Y781611D01*
X5954099Y784449D01*
X5887642Y831135D01*
X5843831Y896036D01*
X5823672Y971900D01*
X5825212Y999156D01*
X5989685Y999156D01*
X6004177Y962476D01*
X6047145Y936191D01*
X6116469Y922083D01*
X6153517Y920210D01*
X6215259Y925006D01*
X6256300Y943642D01*
X6266313Y952500D01*
X6293440Y1000694D01*
X6299734Y1044408D01*
X6299734Y1102895D01*
X6218270Y1102895D01*
X6123574Y1098068D01*
X6057153Y1082887D01*
X6015186Y1056300D01*
X6005789Y1044448D01*
X5989685Y999156D01*
X5825212Y999156D01*
X5828169Y1051474D01*
X5858325Y1127505D01*
X5899471Y1178888D01*
X5924392Y1201103D01*
X5948788Y1215702D01*
X5980531Y1224603D01*
X6027492Y1229725D01*
X6097544Y1232985D01*
X6125330Y1233923D01*
X6299734Y1239621D01*
X6299478Y1292409D01*
X6292724Y1347897D01*
X6268304Y1381448D01*
X6218970Y1402882D01*
X6217646Y1403264D01*
X6147700Y1411692D01*
X6079254Y1400684D01*
X6028387Y1373915D01*
X6007977Y1360697D01*
X5985994Y1362526D01*
X5952166Y1381676D01*
X5932301Y1395192D01*
X5893446Y1424068D01*
X5869378Y1445714D01*
X5865516Y1451911D01*
X5881419Y1483981D01*
X5928405Y1522281D01*
X5948813Y1535203D01*
X6007483Y1557459D01*
X6086552Y1570068D01*
X6174381Y1572900D01*
X6259332Y1565827D01*
G36*
X7052507Y1571053D02*
X7116748Y1558388D01*
X7153320Y1539636D01*
X7191793Y1508483D01*
X7137057Y1439373D01*
X7103309Y1397521D01*
X7080393Y1377102D01*
X7057619Y1373983D01*
X7024296Y1384028D01*
X7008654Y1389711D01*
X6944882Y1398096D01*
X6886480Y1380122D01*
X6843604Y1339518D01*
X6836639Y1326571D01*
X6829053Y1292276D01*
X6823199Y1229073D01*
X6819351Y1141440D01*
X6817783Y1033860D01*
X6817761Y1018556D01*
X6817761Y751974D01*
X6633945Y751974D01*
X6633945Y1570790D01*
X6725853Y1570790D01*
X6778847Y1569406D01*
X6806455Y1563248D01*
X6816664Y1549306D01*
X6817761Y1536156D01*
X6817761Y1501522D01*
X6861790Y1536156D01*
X6912277Y1559784D01*
X6980100Y1571467D01*
X7052507Y1571053D01*
X7052507Y1571053D01*
G37*
X7052507Y1571053D02*
X7116748Y1558388D01*
X7153320Y1539636D01*
X7191793Y1508483D01*
X7137057Y1439373D01*
X7103309Y1397521D01*
X7080393Y1377102D01*
X7057619Y1373983D01*
X7024296Y1384028D01*
X7008654Y1389711D01*
X6944882Y1398096D01*
X6886480Y1380122D01*
X6843604Y1339518D01*
X6836639Y1326571D01*
X6829053Y1292276D01*
X6823199Y1229073D01*
X6819351Y1141440D01*
X6817783Y1033860D01*
X6817761Y1018556D01*
X6817761Y751974D01*
X6633945Y751974D01*
X6633945Y1570790D01*
X6725853Y1570790D01*
X6778847Y1569406D01*
X6806455Y1563248D01*
X6816664Y1549306D01*
X6817761Y1536156D01*
X6817761Y1501522D01*
X6861790Y1536156D01*
X6912277Y1559784D01*
X6980100Y1571467D01*
X7052507Y1571053D01*
G36*
X7580533Y1566422D02*
X7660408Y1545655D01*
X7727302Y1502795D01*
X7759691Y1470777D01*
X7812785Y1395087D01*
X7843213Y1307284D01*
X7853667Y1199350D01*
X7853720Y1190625D01*
X7853813Y1102895D01*
X7348874Y1102895D01*
X7359638Y1056941D01*
X7379072Y1015322D01*
X7413085Y971956D01*
X7420200Y965033D01*
X7481343Y927565D01*
X7551069Y921211D01*
X7631327Y945862D01*
X7644932Y952500D01*
X7686659Y972681D01*
X7714608Y984179D01*
X7719485Y985242D01*
X7736508Y974917D01*
X7768973Y949655D01*
X7785454Y935850D01*
X7819604Y904139D01*
X7830818Y883201D01*
X7823035Y863940D01*
X7818875Y858673D01*
X7790697Y835622D01*
X7744202Y807608D01*
X7711774Y791254D01*
X7619725Y762441D01*
X7517816Y753105D01*
X7421303Y764168D01*
X7394274Y772088D01*
X7310616Y816919D01*
X7248606Y885902D01*
X7207885Y979706D01*
X7188095Y1099002D01*
X7185922Y1161382D01*
X7192266Y1252202D01*
X7352497Y1252202D01*
X7367995Y1245488D01*
X7409652Y1240220D01*
X7470216Y1237111D01*
X7511247Y1236579D01*
X7585051Y1237092D01*
X7631633Y1239494D01*
X7657188Y1245078D01*
X7667909Y1255139D01*
X7669997Y1269737D01*
X7655671Y1314704D01*
X7619602Y1359147D01*
X7572155Y1393258D01*
X7524689Y1407212D01*
X7460219Y1394834D01*
X7404410Y1359048D01*
X7365714Y1307467D01*
X7352497Y1252202D01*
X7192266Y1252202D01*
X7195161Y1293634D01*
X7223676Y1399002D01*
X7272069Y1478322D01*
X7340944Y1532429D01*
X7430905Y1562157D01*
X7479640Y1567882D01*
X7580533Y1566422D01*
X7580533Y1566422D01*
G37*
X7580533Y1566422D02*
X7660408Y1545655D01*
X7727302Y1502795D01*
X7759691Y1470777D01*
X7812785Y1395087D01*
X7843213Y1307284D01*
X7853667Y1199350D01*
X7853720Y1190625D01*
X7853813Y1102895D01*
X7348874Y1102895D01*
X7359638Y1056941D01*
X7379072Y1015322D01*
X7413085Y971956D01*
X7420200Y965033D01*
X7481343Y927565D01*
X7551069Y921211D01*
X7631327Y945862D01*
X7644932Y952500D01*
X7686659Y972681D01*
X7714608Y984179D01*
X7719485Y985242D01*
X7736508Y974917D01*
X7768973Y949655D01*
X7785454Y935850D01*
X7819604Y904139D01*
X7830818Y883201D01*
X7823035Y863940D01*
X7818875Y858673D01*
X7790697Y835622D01*
X7744202Y807608D01*
X7711774Y791254D01*
X7619725Y762441D01*
X7517816Y753105D01*
X7421303Y764168D01*
X7394274Y772088D01*
X7310616Y816919D01*
X7248606Y885902D01*
X7207885Y979706D01*
X7188095Y1099002D01*
X7185922Y1161382D01*
X7192266Y1252202D01*
X7352497Y1252202D01*
X7367995Y1245488D01*
X7409652Y1240220D01*
X7470216Y1237111D01*
X7511247Y1236579D01*
X7585051Y1237092D01*
X7631633Y1239494D01*
X7657188Y1245078D01*
X7667909Y1255139D01*
X7669997Y1269737D01*
X7655671Y1314704D01*
X7619602Y1359147D01*
X7572155Y1393258D01*
X7524689Y1407212D01*
X7460219Y1394834D01*
X7404410Y1359048D01*
X7365714Y1307467D01*
X7352497Y1252202D01*
X7192266Y1252202D01*
X7195161Y1293634D01*
X7223676Y1399002D01*
X7272069Y1478322D01*
X7340944Y1532429D01*
X7430905Y1562157D01*
X7479640Y1567882D01*
X7580533Y1566422D01*
G36*
X1506124Y2815396D02*
X1593545Y2776746D01*
X1659910Y2712210D01*
X1705316Y2621688D01*
X1729858Y2505082D01*
X1731617Y2486876D01*
X1732996Y2358516D01*
X1715124Y2246004D01*
X1679090Y2154812D01*
X1659795Y2125478D01*
X1592585Y2063394D01*
X1506990Y2023184D01*
X1411230Y2006497D01*
X1313527Y2014983D01*
X1239257Y2041120D01*
X1175387Y2085165D01*
X1123186Y2142913D01*
X1122283Y2144264D01*
X1101084Y2179907D01*
X1087307Y2215748D01*
X1078964Y2260981D01*
X1074067Y2324799D01*
X1071909Y2377132D01*
X1071011Y2424590D01*
X1238083Y2424590D01*
X1239716Y2377346D01*
X1245644Y2314454D01*
X1256101Y2274093D01*
X1274959Y2245378D01*
X1292621Y2228604D01*
X1355234Y2193484D01*
X1420748Y2188790D01*
X1481761Y2214060D01*
X1512268Y2242376D01*
X1534251Y2270911D01*
X1547109Y2298216D01*
X1552752Y2333750D01*
X1553091Y2386976D01*
X1551352Y2435994D01*
X1547611Y2506018D01*
X1541681Y2551436D01*
X1530993Y2581060D01*
X1512979Y2603703D01*
X1498703Y2616645D01*
X1438991Y2650640D01*
X1374574Y2652335D01*
X1320559Y2632199D01*
X1274480Y2590148D01*
X1247029Y2521072D01*
X1238083Y2424590D01*
X1071011Y2424590D01*
X1069939Y2481201D01*
X1073304Y2559032D01*
X1083385Y2617570D01*
X1101566Y2663763D01*
X1129230Y2704558D01*
X1139486Y2716672D01*
X1203618Y2777026D01*
X1272406Y2812280D01*
X1356529Y2827050D01*
X1397549Y2828257D01*
X1506124Y2815396D01*
X1506124Y2815396D01*
G37*
X1506124Y2815396D02*
X1593545Y2776746D01*
X1659910Y2712210D01*
X1705316Y2621688D01*
X1729858Y2505082D01*
X1731617Y2486876D01*
X1732996Y2358516D01*
X1715124Y2246004D01*
X1679090Y2154812D01*
X1659795Y2125478D01*
X1592585Y2063394D01*
X1506990Y2023184D01*
X1411230Y2006497D01*
X1313527Y2014983D01*
X1239257Y2041120D01*
X1175387Y2085165D01*
X1123186Y2142913D01*
X1122283Y2144264D01*
X1101084Y2179907D01*
X1087307Y2215748D01*
X1078964Y2260981D01*
X1074067Y2324799D01*
X1071909Y2377132D01*
X1071011Y2424590D01*
X1238083Y2424590D01*
X1239716Y2377346D01*
X1245644Y2314454D01*
X1256101Y2274093D01*
X1274959Y2245378D01*
X1292621Y2228604D01*
X1355234Y2193484D01*
X1420748Y2188790D01*
X1481761Y2214060D01*
X1512268Y2242376D01*
X1534251Y2270911D01*
X1547109Y2298216D01*
X1552752Y2333750D01*
X1553091Y2386976D01*
X1551352Y2435994D01*
X1547611Y2506018D01*
X1541681Y2551436D01*
X1530993Y2581060D01*
X1512979Y2603703D01*
X1498703Y2616645D01*
X1438991Y2650640D01*
X1374574Y2652335D01*
X1320559Y2632199D01*
X1274480Y2590148D01*
X1247029Y2521072D01*
X1238083Y2424590D01*
X1071011Y2424590D01*
X1069939Y2481201D01*
X1073304Y2559032D01*
X1083385Y2617570D01*
X1101566Y2663763D01*
X1129230Y2704558D01*
X1139486Y2716672D01*
X1203618Y2777026D01*
X1272406Y2812280D01*
X1356529Y2827050D01*
X1397549Y2828257D01*
X1506124Y2815396D01*
G36*
X3076358Y2805473D02*
X3093010Y2797634D01*
X3150645Y2755414D01*
X3205145Y2693800D01*
X3245839Y2625957D01*
X3257414Y2594766D01*
X3267974Y2539051D01*
X3274271Y2471719D01*
X3275036Y2443915D01*
X3275129Y2356184D01*
X2770190Y2356184D01*
X2780953Y2310230D01*
X2807373Y2255880D01*
X2853562Y2208909D01*
X2908512Y2178652D01*
X2943529Y2172369D01*
X2991017Y2179994D01*
X3047675Y2199117D01*
X3066922Y2207916D01*
X3138099Y2243464D01*
X3198842Y2197133D01*
X3233892Y2165797D01*
X3252542Y2139933D01*
X3253487Y2132342D01*
X3236825Y2113944D01*
X3200310Y2085985D01*
X3167168Y2064173D01*
X3077733Y2024963D01*
X2977469Y2007215D01*
X2878094Y2011830D01*
X2798879Y2035949D01*
X2717220Y2087616D01*
X2659189Y2155644D01*
X2622886Y2243657D01*
X2606412Y2355284D01*
X2604951Y2406362D01*
X2610797Y2523409D01*
X2611515Y2526814D01*
X2778829Y2526814D01*
X2783437Y2515838D01*
X2802376Y2509785D01*
X2841438Y2507190D01*
X2906417Y2506590D01*
X2931437Y2506579D01*
X3007561Y2507486D01*
X3055836Y2510780D01*
X3081800Y2517319D01*
X3090988Y2527963D01*
X3091313Y2531381D01*
X3080827Y2558544D01*
X3054582Y2596597D01*
X3043299Y2609921D01*
X3001412Y2647604D01*
X2957749Y2662420D01*
X2934225Y2663658D01*
X2870583Y2648171D01*
X2817213Y2606570D01*
X2783359Y2546147D01*
X2782759Y2544178D01*
X2778829Y2526814D01*
X2611515Y2526814D01*
X2630239Y2615572D01*
X2665262Y2689310D01*
X2708096Y2741652D01*
X2787288Y2798408D01*
X2880380Y2828738D01*
X2979395Y2831479D01*
X3076358Y2805473D01*
X3076358Y2805473D01*
G37*
X3076358Y2805473D02*
X3093010Y2797634D01*
X3150645Y2755414D01*
X3205145Y2693800D01*
X3245839Y2625957D01*
X3257414Y2594766D01*
X3267974Y2539051D01*
X3274271Y2471719D01*
X3275036Y2443915D01*
X3275129Y2356184D01*
X2770190Y2356184D01*
X2780953Y2310230D01*
X2807373Y2255880D01*
X2853562Y2208909D01*
X2908512Y2178652D01*
X2943529Y2172369D01*
X2991017Y2179994D01*
X3047675Y2199117D01*
X3066922Y2207916D01*
X3138099Y2243464D01*
X3198842Y2197133D01*
X3233892Y2165797D01*
X3252542Y2139933D01*
X3253487Y2132342D01*
X3236825Y2113944D01*
X3200310Y2085985D01*
X3167168Y2064173D01*
X3077733Y2024963D01*
X2977469Y2007215D01*
X2878094Y2011830D01*
X2798879Y2035949D01*
X2717220Y2087616D01*
X2659189Y2155644D01*
X2622886Y2243657D01*
X2606412Y2355284D01*
X2604951Y2406362D01*
X2610797Y2523409D01*
X2611515Y2526814D01*
X2778829Y2526814D01*
X2783437Y2515838D01*
X2802376Y2509785D01*
X2841438Y2507190D01*
X2906417Y2506590D01*
X2931437Y2506579D01*
X3007561Y2507486D01*
X3055836Y2510780D01*
X3081800Y2517319D01*
X3090988Y2527963D01*
X3091313Y2531381D01*
X3080827Y2558544D01*
X3054582Y2596597D01*
X3043299Y2609921D01*
X3001412Y2647604D01*
X2957749Y2662420D01*
X2934225Y2663658D01*
X2870583Y2648171D01*
X2817213Y2606570D01*
X2783359Y2546147D01*
X2782759Y2544178D01*
X2778829Y2526814D01*
X2611515Y2526814D01*
X2630239Y2615572D01*
X2665262Y2689310D01*
X2708096Y2741652D01*
X2787288Y2798408D01*
X2880380Y2828738D01*
X2979395Y2831479D01*
X3076358Y2805473D01*
G36*
X4897968Y2826953D02*
X4961248Y2814952D01*
X5026897Y2789852D01*
X5033912Y2786652D01*
X5083696Y2760474D01*
X5118174Y2736147D01*
X5129318Y2720563D01*
X5118706Y2695147D01*
X5092928Y2657647D01*
X5081486Y2643648D01*
X5034332Y2588546D01*
X4973541Y2624414D01*
X4915687Y2648308D01*
X4848840Y2661080D01*
X4784734Y2661887D01*
X4735104Y2649885D01*
X4723194Y2642395D01*
X4700512Y2608050D01*
X4697756Y2568487D01*
X4714728Y2537580D01*
X4724767Y2531587D01*
X4754850Y2524143D01*
X4807729Y2515394D01*
X4872915Y2507033D01*
X4884940Y2505722D01*
X4989637Y2487612D01*
X5065572Y2456849D01*
X5115932Y2410593D01*
X5143904Y2346003D01*
X5152618Y2267113D01*
X5140580Y2177435D01*
X5101491Y2107014D01*
X5035195Y2055723D01*
X4941534Y2023433D01*
X4837563Y2010693D01*
X4752778Y2010846D01*
X4684005Y2022417D01*
X4637037Y2038391D01*
X4577690Y2066225D01*
X4522846Y2098527D01*
X4503353Y2112745D01*
X4453221Y2153665D01*
X4574143Y2276023D01*
X4642883Y2230533D01*
X4711828Y2196367D01*
X4785451Y2178496D01*
X4856223Y2176611D01*
X4916614Y2190399D01*
X4959097Y2219551D01*
X4972814Y2244148D01*
X4970757Y2283596D01*
X4936670Y2313763D01*
X4870648Y2334594D01*
X4798314Y2344221D01*
X4686992Y2362590D01*
X4604292Y2397246D01*
X4549105Y2449203D01*
X4520328Y2519477D01*
X4516341Y2602793D01*
X4536033Y2689819D01*
X4580929Y2755598D01*
X4651431Y2800432D01*
X4747941Y2824621D01*
X4819440Y2829363D01*
X4897968Y2826953D01*
X4897968Y2826953D01*
G37*
X4897968Y2826953D02*
X4961248Y2814952D01*
X5026897Y2789852D01*
X5033912Y2786652D01*
X5083696Y2760474D01*
X5118174Y2736147D01*
X5129318Y2720563D01*
X5118706Y2695147D01*
X5092928Y2657647D01*
X5081486Y2643648D01*
X5034332Y2588546D01*
X4973541Y2624414D01*
X4915687Y2648308D01*
X4848840Y2661080D01*
X4784734Y2661887D01*
X4735104Y2649885D01*
X4723194Y2642395D01*
X4700512Y2608050D01*
X4697756Y2568487D01*
X4714728Y2537580D01*
X4724767Y2531587D01*
X4754850Y2524143D01*
X4807729Y2515394D01*
X4872915Y2507033D01*
X4884940Y2505722D01*
X4989637Y2487612D01*
X5065572Y2456849D01*
X5115932Y2410593D01*
X5143904Y2346003D01*
X5152618Y2267113D01*
X5140580Y2177435D01*
X5101491Y2107014D01*
X5035195Y2055723D01*
X4941534Y2023433D01*
X4837563Y2010693D01*
X4752778Y2010846D01*
X4684005Y2022417D01*
X4637037Y2038391D01*
X4577690Y2066225D01*
X4522846Y2098527D01*
X4503353Y2112745D01*
X4453221Y2153665D01*
X4574143Y2276023D01*
X4642883Y2230533D01*
X4711828Y2196367D01*
X4785451Y2178496D01*
X4856223Y2176611D01*
X4916614Y2190399D01*
X4959097Y2219551D01*
X4972814Y2244148D01*
X4970757Y2283596D01*
X4936670Y2313763D01*
X4870648Y2334594D01*
X4798314Y2344221D01*
X4686992Y2362590D01*
X4604292Y2397246D01*
X4549105Y2449203D01*
X4520328Y2519477D01*
X4516341Y2602793D01*
X4536033Y2689819D01*
X4580929Y2755598D01*
X4651431Y2800432D01*
X4747941Y2824621D01*
X4819440Y2829363D01*
X4897968Y2826953D01*
G36*
X5691009Y2814190D02*
X5775532Y2768160D01*
X5841661Y2695494D01*
X5872818Y2636394D01*
X5886195Y2584195D01*
X5894862Y2509781D01*
X5898577Y2424058D01*
X5897094Y2337931D01*
X5890171Y2262307D01*
X5882085Y2221916D01*
X5854805Y2166660D01*
X5807560Y2107970D01*
X5750622Y2056648D01*
X5694264Y2023495D01*
X5692890Y2022969D01*
X5622956Y2008482D01*
X5540077Y2008123D01*
X5461317Y2021312D01*
X5430906Y2031883D01*
X5352579Y2076299D01*
X5296483Y2134493D01*
X5259626Y2211535D01*
X5239020Y2312499D01*
X5234358Y2365384D01*
X5234953Y2431837D01*
X5414076Y2431837D01*
X5420110Y2334870D01*
X5437478Y2260977D01*
X5465080Y2213764D01*
X5484744Y2200263D01*
X5535127Y2190849D01*
X5595013Y2193636D01*
X5646789Y2207184D01*
X5660367Y2214638D01*
X5696189Y2258049D01*
X5719833Y2324486D01*
X5729898Y2405339D01*
X5724982Y2491998D01*
X5713995Y2544151D01*
X5682449Y2604549D01*
X5632651Y2642303D01*
X5572677Y2655357D01*
X5510604Y2641651D01*
X5462922Y2608128D01*
X5437865Y2580469D01*
X5423240Y2553206D01*
X5416269Y2516310D01*
X5414173Y2459750D01*
X5414076Y2431837D01*
X5234953Y2431837D01*
X5235622Y2506506D01*
X5258605Y2622229D01*
X5303312Y2712559D01*
X5369745Y2777500D01*
X5457905Y2817055D01*
X5476835Y2821642D01*
X5590606Y2832410D01*
X5691009Y2814190D01*
X5691009Y2814190D01*
G37*
X5691009Y2814190D02*
X5775532Y2768160D01*
X5841661Y2695494D01*
X5872818Y2636394D01*
X5886195Y2584195D01*
X5894862Y2509781D01*
X5898577Y2424058D01*
X5897094Y2337931D01*
X5890171Y2262307D01*
X5882085Y2221916D01*
X5854805Y2166660D01*
X5807560Y2107970D01*
X5750622Y2056648D01*
X5694264Y2023495D01*
X5692890Y2022969D01*
X5622956Y2008482D01*
X5540077Y2008123D01*
X5461317Y2021312D01*
X5430906Y2031883D01*
X5352579Y2076299D01*
X5296483Y2134493D01*
X5259626Y2211535D01*
X5239020Y2312499D01*
X5234358Y2365384D01*
X5234953Y2431837D01*
X5414076Y2431837D01*
X5420110Y2334870D01*
X5437478Y2260977D01*
X5465080Y2213764D01*
X5484744Y2200263D01*
X5535127Y2190849D01*
X5595013Y2193636D01*
X5646789Y2207184D01*
X5660367Y2214638D01*
X5696189Y2258049D01*
X5719833Y2324486D01*
X5729898Y2405339D01*
X5724982Y2491998D01*
X5713995Y2544151D01*
X5682449Y2604549D01*
X5632651Y2642303D01*
X5572677Y2655357D01*
X5510604Y2641651D01*
X5462922Y2608128D01*
X5437865Y2580469D01*
X5423240Y2553206D01*
X5416269Y2516310D01*
X5414173Y2459750D01*
X5414076Y2431837D01*
X5234953Y2431837D01*
X5235622Y2506506D01*
X5258605Y2622229D01*
X5303312Y2712559D01*
X5369745Y2777500D01*
X5457905Y2817055D01*
X5476835Y2821642D01*
X5590606Y2832410D01*
X5691009Y2814190D01*
G36*
X6199471Y2563967D02*
X6201050Y2441411D01*
X6206821Y2348321D01*
X6218331Y2280849D01*
X6237130Y2235145D01*
X6264766Y2207361D01*
X6302788Y2193646D01*
X6349866Y2190142D01*
X6399172Y2194068D01*
X6436623Y2208411D01*
X6463768Y2237022D01*
X6482155Y2283749D01*
X6493333Y2352442D01*
X6498851Y2446950D01*
X6500261Y2563967D01*
X6500261Y2824079D01*
X6684076Y2824079D01*
X6684076Y2021974D01*
X6592168Y2021974D01*
X6536762Y2024219D01*
X6508231Y2032104D01*
X6500261Y2047072D01*
X6495460Y2060403D01*
X6476354Y2057583D01*
X6437844Y2038717D01*
X6349579Y2009613D01*
X6255963Y2011675D01*
X6166261Y2043279D01*
X6123544Y2068243D01*
X6090961Y2095274D01*
X6067157Y2129095D01*
X6050779Y2174432D01*
X6040471Y2236011D01*
X6034881Y2318557D01*
X6032652Y2426795D01*
X6032366Y2510496D01*
X6032366Y2824079D01*
X6199471Y2824079D01*
X6199471Y2563967D01*
X6199471Y2563967D01*
G37*
X6199471Y2563967D02*
X6201050Y2441411D01*
X6206821Y2348321D01*
X6218331Y2280849D01*
X6237130Y2235145D01*
X6264766Y2207361D01*
X6302788Y2193646D01*
X6349866Y2190142D01*
X6399172Y2194068D01*
X6436623Y2208411D01*
X6463768Y2237022D01*
X6482155Y2283749D01*
X6493333Y2352442D01*
X6498851Y2446950D01*
X6500261Y2563967D01*
X6500261Y2824079D01*
X6684076Y2824079D01*
X6684076Y2021974D01*
X6592168Y2021974D01*
X6536762Y2024219D01*
X6508231Y2032104D01*
X6500261Y2047072D01*
X6495460Y2060403D01*
X6476354Y2057583D01*
X6437844Y2038717D01*
X6349579Y2009613D01*
X6255963Y2011675D01*
X6166261Y2043279D01*
X6123544Y2068243D01*
X6090961Y2095274D01*
X6067157Y2129095D01*
X6050779Y2174432D01*
X6040471Y2236011D01*
X6034881Y2318557D01*
X6032652Y2426795D01*
X6032366Y2510496D01*
X6032366Y2824079D01*
X6199471Y2824079D01*
X6199471Y2563967D01*
G36*
X7825916Y2817081D02*
X7922735Y2775951D01*
X7953230Y2755929D01*
X7992205Y2725160D01*
X8016671Y2700967D01*
X8020918Y2693087D01*
X8008924Y2675601D01*
X7978227Y2645930D01*
X7953652Y2625221D01*
X7886386Y2571164D01*
X7833270Y2615858D01*
X7792224Y2644711D01*
X7752203Y2654671D01*
X7706399Y2652239D01*
X7633664Y2634155D01*
X7583596Y2596619D01*
X7553169Y2535938D01*
X7539357Y2448419D01*
X7539353Y2448364D01*
X7540548Y2350542D01*
X7559112Y2278770D01*
X7596144Y2229905D01*
X7621390Y2213357D01*
X7688437Y2192751D01*
X7760049Y2192738D01*
X7822355Y2212732D01*
X7837103Y2222500D01*
X7874090Y2247453D01*
X7903008Y2251542D01*
X7934196Y2232970D01*
X7968676Y2199613D01*
X8023252Y2143304D01*
X7962658Y2093358D01*
X7869038Y2036987D01*
X7763465Y2009207D01*
X7653138Y2011218D01*
X7580683Y2029638D01*
X7495996Y2075190D01*
X7428267Y2146850D01*
X7397497Y2197434D01*
X7372576Y2270012D01*
X7360106Y2361931D01*
X7360010Y2461552D01*
X7372210Y2557233D01*
X7396630Y2637331D01*
X7400476Y2645544D01*
X7457433Y2726087D01*
X7534549Y2784729D01*
X7625730Y2820253D01*
X7724883Y2831443D01*
X7825916Y2817081D01*
X7825916Y2817081D01*
G37*
X7825916Y2817081D02*
X7922735Y2775951D01*
X7953230Y2755929D01*
X7992205Y2725160D01*
X8016671Y2700967D01*
X8020918Y2693087D01*
X8008924Y2675601D01*
X7978227Y2645930D01*
X7953652Y2625221D01*
X7886386Y2571164D01*
X7833270Y2615858D01*
X7792224Y2644711D01*
X7752203Y2654671D01*
X7706399Y2652239D01*
X7633664Y2634155D01*
X7583596Y2596619D01*
X7553169Y2535938D01*
X7539357Y2448419D01*
X7539353Y2448364D01*
X7540548Y2350542D01*
X7559112Y2278770D01*
X7596144Y2229905D01*
X7621390Y2213357D01*
X7688437Y2192751D01*
X7760049Y2192738D01*
X7822355Y2212732D01*
X7837103Y2222500D01*
X7874090Y2247453D01*
X7903008Y2251542D01*
X7934196Y2232970D01*
X7968676Y2199613D01*
X8023252Y2143304D01*
X7962658Y2093358D01*
X7869038Y2036987D01*
X7763465Y2009207D01*
X7653138Y2011218D01*
X7580683Y2029638D01*
X7495996Y2075190D01*
X7428267Y2146850D01*
X7397497Y2197434D01*
X7372576Y2270012D01*
X7360106Y2361931D01*
X7360010Y2461552D01*
X7372210Y2557233D01*
X7396630Y2637331D01*
X7400476Y2645544D01*
X7457433Y2726087D01*
X7534549Y2784729D01*
X7625730Y2820253D01*
X7724883Y2831443D01*
X7825916Y2817081D01*
G36*
X8438124Y2826946D02*
X8480914Y2816551D01*
X8562949Y2778487D01*
X8633097Y2720351D01*
X8681645Y2650648D01*
X8688315Y2634998D01*
X8697464Y2594004D01*
X8703869Y2533362D01*
X8706050Y2472070D01*
X8706050Y2356184D01*
X8463747Y2356184D01*
X8363811Y2355807D01*
X8293409Y2353513D01*
X8248653Y2347562D01*
X8225655Y2336215D01*
X8220529Y2317729D01*
X8229388Y2290364D01*
X8245257Y2258345D01*
X8289524Y2204908D01*
X8351039Y2178285D01*
X8426225Y2179153D01*
X8511393Y2208129D01*
X8584999Y2243889D01*
X8646074Y2195596D01*
X8707150Y2147303D01*
X8649691Y2094215D01*
X8572981Y2044055D01*
X8478642Y2013812D01*
X8377167Y2005349D01*
X8279051Y2020526D01*
X8263221Y2025676D01*
X8176987Y2070709D01*
X8112841Y2137848D01*
X8069431Y2229095D01*
X8045404Y2346456D01*
X8045124Y2348971D01*
X8042973Y2476873D01*
X8051669Y2522503D01*
X8221445Y2522503D01*
X8237037Y2515487D01*
X8279369Y2510112D01*
X8341774Y2507043D01*
X8381321Y2506579D01*
X8455068Y2506870D01*
X8501180Y2508717D01*
X8525440Y2513588D01*
X8533634Y2522945D01*
X8531546Y2538255D01*
X8529795Y2544178D01*
X8499900Y2599832D01*
X8452882Y2644685D01*
X8411389Y2664395D01*
X8356266Y2663205D01*
X8300408Y2638625D01*
X8253552Y2597930D01*
X8225434Y2548392D01*
X8221445Y2522503D01*
X8051669Y2522503D01*
X8064414Y2589367D01*
X8106951Y2683773D01*
X8168087Y2757412D01*
X8245325Y2807607D01*
X8336170Y2831678D01*
X8438124Y2826946D01*
X8438124Y2826946D01*
G37*
X8438124Y2826946D02*
X8480914Y2816551D01*
X8562949Y2778487D01*
X8633097Y2720351D01*
X8681645Y2650648D01*
X8688315Y2634998D01*
X8697464Y2594004D01*
X8703869Y2533362D01*
X8706050Y2472070D01*
X8706050Y2356184D01*
X8463747Y2356184D01*
X8363811Y2355807D01*
X8293409Y2353513D01*
X8248653Y2347562D01*
X8225655Y2336215D01*
X8220529Y2317729D01*
X8229388Y2290364D01*
X8245257Y2258345D01*
X8289524Y2204908D01*
X8351039Y2178285D01*
X8426225Y2179153D01*
X8511393Y2208129D01*
X8584999Y2243889D01*
X8646074Y2195596D01*
X8707150Y2147303D01*
X8649691Y2094215D01*
X8572981Y2044055D01*
X8478642Y2013812D01*
X8377167Y2005349D01*
X8279051Y2020526D01*
X8263221Y2025676D01*
X8176987Y2070709D01*
X8112841Y2137848D01*
X8069431Y2229095D01*
X8045404Y2346456D01*
X8045124Y2348971D01*
X8042973Y2476873D01*
X8051669Y2522503D01*
X8221445Y2522503D01*
X8237037Y2515487D01*
X8279369Y2510112D01*
X8341774Y2507043D01*
X8381321Y2506579D01*
X8455068Y2506870D01*
X8501180Y2508717D01*
X8525440Y2513588D01*
X8533634Y2522945D01*
X8531546Y2538255D01*
X8529795Y2544178D01*
X8499900Y2599832D01*
X8452882Y2644685D01*
X8411389Y2664395D01*
X8356266Y2663205D01*
X8300408Y2638625D01*
X8253552Y2597930D01*
X8225434Y2548392D01*
X8221445Y2522503D01*
X8051669Y2522503D01*
X8064414Y2589367D01*
X8106951Y2683773D01*
X8168087Y2757412D01*
X8245325Y2807607D01*
X8336170Y2831678D01*
X8438124Y2826946D01*
G36*
X3877297Y2810274D02*
X3918886Y2790410D01*
X3959165Y2761716D01*
X3989850Y2728691D01*
X4012201Y2686569D01*
X4027476Y2630585D01*
X4036932Y2555972D01*
X4041827Y2457965D01*
X4043421Y2331798D01*
X4043446Y2318586D01*
X4043813Y2021974D01*
X3859997Y2021974D01*
X3859997Y2295419D01*
X3859867Y2396723D01*
X3858961Y2470147D01*
X3856513Y2521229D01*
X3851754Y2555510D01*
X3843914Y2578529D01*
X3832225Y2595827D01*
X3815942Y2612919D01*
X3758974Y2649643D01*
X3696785Y2656458D01*
X3637539Y2633239D01*
X3616935Y2615957D01*
X3601810Y2599709D01*
X3590950Y2582309D01*
X3583650Y2558288D01*
X3579203Y2522178D01*
X3576904Y2468512D01*
X3576044Y2391820D01*
X3575918Y2298457D01*
X3575918Y2021974D01*
X3392103Y2021974D01*
X3392103Y2824079D01*
X3484011Y2824079D01*
X3539191Y2821897D01*
X3567660Y2814149D01*
X3575915Y2799032D01*
X3575918Y2798584D01*
X3579748Y2783780D01*
X3596641Y2785460D01*
X3630228Y2801727D01*
X3706403Y2825660D01*
X3793540Y2828322D01*
X3877297Y2810274D01*
X3877297Y2810274D01*
G37*
X3877297Y2810274D02*
X3918886Y2790410D01*
X3959165Y2761716D01*
X3989850Y2728691D01*
X4012201Y2686569D01*
X4027476Y2630585D01*
X4036932Y2555972D01*
X4041827Y2457965D01*
X4043421Y2331798D01*
X4043446Y2318586D01*
X4043813Y2021974D01*
X3859997Y2021974D01*
X3859997Y2295419D01*
X3859867Y2396723D01*
X3858961Y2470147D01*
X3856513Y2521229D01*
X3851754Y2555510D01*
X3843914Y2578529D01*
X3832225Y2595827D01*
X3815942Y2612919D01*
X3758974Y2649643D01*
X3696785Y2656458D01*
X3637539Y2633239D01*
X3616935Y2615957D01*
X3601810Y2599709D01*
X3590950Y2582309D01*
X3583650Y2558288D01*
X3579203Y2522178D01*
X3576904Y2468512D01*
X3576044Y2391820D01*
X3575918Y2298457D01*
X3575918Y2021974D01*
X3392103Y2021974D01*
X3392103Y2824079D01*
X3484011Y2824079D01*
X3539191Y2821897D01*
X3567660Y2814149D01*
X3575915Y2799032D01*
X3575918Y2798584D01*
X3579748Y2783780D01*
X3596641Y2785460D01*
X3630228Y2801727D01*
X3706403Y2825660D01*
X3793540Y2828322D01*
X3877297Y2810274D01*
G36*
X7270728Y2824855D02*
X7328205Y2807294D01*
X7365212Y2785105D01*
X7377267Y2767558D01*
X7373949Y2746758D01*
X7352419Y2714081D01*
X7334214Y2690938D01*
X7296684Y2649098D01*
X7268488Y2631495D01*
X7244451Y2632644D01*
X7173148Y2650790D01*
X7120782Y2649966D01*
X7078258Y2629402D01*
X7063982Y2617366D01*
X7018287Y2575017D01*
X7018287Y2021974D01*
X6834471Y2021974D01*
X6834471Y2824079D01*
X6926379Y2824079D01*
X6981559Y2821897D01*
X7010028Y2814149D01*
X7018283Y2799032D01*
X7018287Y2798584D01*
X7022185Y2782751D01*
X7039814Y2784816D01*
X7064241Y2796239D01*
X7114690Y2817495D01*
X7155656Y2830284D01*
X7208368Y2833562D01*
X7270728Y2824855D01*
X7270728Y2824855D01*
G37*
X7270728Y2824855D02*
X7328205Y2807294D01*
X7365212Y2785105D01*
X7377267Y2767558D01*
X7373949Y2746758D01*
X7352419Y2714081D01*
X7334214Y2690938D01*
X7296684Y2649098D01*
X7268488Y2631495D01*
X7244451Y2632644D01*
X7173148Y2650790D01*
X7120782Y2649966D01*
X7078258Y2629402D01*
X7063982Y2617366D01*
X7018287Y2575017D01*
X7018287Y2021974D01*
X6834471Y2021974D01*
X6834471Y2824079D01*
X6926379Y2824079D01*
X6981559Y2821897D01*
X7010028Y2814149D01*
X7018283Y2799032D01*
X7018287Y2798584D01*
X7022185Y2782751D01*
X7039814Y2784816D01*
X7064241Y2796239D01*
X7114690Y2817495D01*
X7155656Y2830284D01*
X7208368Y2833562D01*
X7270728Y2824855D01*
G36*
X5380304Y8363924D02*
X5455853Y7963178D01*
X6013381Y7733346D01*
X6347805Y7960752D01*
X6441462Y8024069D01*
X6526122Y8080604D01*
X6597835Y8127773D01*
X6652651Y8162998D01*
X6686620Y8183695D01*
X6695870Y8188158D01*
X6712535Y8176680D01*
X6748146Y8144949D01*
X6798711Y8097017D01*
X6860240Y8036938D01*
X6928739Y7968767D01*
X7000219Y7896555D01*
X7070687Y7824358D01*
X7136151Y7756227D01*
X7192620Y7696217D01*
X7236103Y7648381D01*
X7262608Y7616773D01*
X7268945Y7606195D01*
X7259826Y7586694D01*
X7234260Y7543969D01*
X7194937Y7482202D01*
X7144543Y7405569D01*
X7085767Y7318252D01*
X7051708Y7268448D01*
X6989629Y7177507D01*
X6934466Y7095441D01*
X6888894Y7026337D01*
X6855590Y6974278D01*
X6837230Y6943350D01*
X6834471Y6936850D01*
X6840725Y6918379D01*
X6857774Y6875328D01*
X6883043Y6813751D01*
X6913962Y6739701D01*
X6947958Y6659230D01*
X6982458Y6578393D01*
X7014891Y6503242D01*
X7042683Y6439829D01*
X7063263Y6394207D01*
X7074059Y6372431D01*
X7074696Y6371574D01*
X7091647Y6367416D01*
X7136791Y6358139D01*
X7205450Y6344656D01*
X7292942Y6327879D01*
X7394590Y6308719D01*
X7453896Y6297670D01*
X7562512Y6276990D01*
X7660617Y6257311D01*
X7743249Y6239711D01*
X7805444Y6225267D01*
X7842239Y6215054D01*
X7849636Y6211814D01*
X7856880Y6189883D01*
X7862725Y6140353D01*
X7867175Y6069015D01*
X7870233Y5981661D01*
X7871905Y5884083D01*
X7872193Y5782074D01*
X7871101Y5681425D01*
X7868634Y5587928D01*
X7864796Y5507375D01*
X7859590Y5445558D01*
X7853021Y5408270D01*
X7849081Y5400507D01*
X7825528Y5391202D01*
X7775622Y5377900D01*
X7705963Y5362163D01*
X7623153Y5345554D01*
X7594245Y5340181D01*
X7454871Y5314652D01*
X7344776Y5294092D01*
X7260322Y5277685D01*
X7197870Y5264613D01*
X7153784Y5254059D01*
X7124425Y5245206D01*
X7106155Y5237237D01*
X7095338Y5229335D01*
X7093825Y5227773D01*
X7078717Y5202614D01*
X7055669Y5153650D01*
X7026984Y5086879D01*
X6994962Y5008295D01*
X6961905Y4923893D01*
X6930113Y4839670D01*
X6901889Y4761621D01*
X6879533Y4695741D01*
X6865347Y4648027D01*
X6861633Y4624473D01*
X6861942Y4623648D01*
X6874529Y4604396D01*
X6903084Y4562037D01*
X6944607Y4500979D01*
X6996096Y4425632D01*
X7054551Y4340404D01*
X7071198Y4316185D01*
X7130555Y4228377D01*
X7182787Y4148262D01*
X7225048Y4080438D01*
X7254493Y4029507D01*
X7268277Y4000069D01*
X7268945Y3996452D01*
X7257364Y3977443D01*
X7225364Y3939786D01*
X7177058Y3887527D01*
X7116560Y3824714D01*
X7047984Y3755394D01*
X6975444Y3683615D01*
X6903052Y3613423D01*
X6834924Y3548865D01*
X6775172Y3493990D01*
X6727911Y3452844D01*
X6697253Y3429474D01*
X6688772Y3425658D01*
X6669031Y3434645D01*
X6628614Y3458884D01*
X6574103Y3494291D01*
X6532163Y3522789D01*
X6456169Y3575082D01*
X6366174Y3636655D01*
X6275904Y3698130D01*
X6227372Y3731031D01*
X6063102Y3842141D01*
X5925209Y3767584D01*
X5862389Y3734922D01*
X5808969Y3709534D01*
X5772824Y3695054D01*
X5763624Y3693040D01*
X5752561Y3707916D01*
X5730734Y3749953D01*
X5699774Y3815273D01*
X5661310Y3900000D01*
X5616972Y4000255D01*
X5568387Y4112161D01*
X5517186Y4231841D01*
X5464999Y4355416D01*
X5413453Y4479009D01*
X5364180Y4598743D01*
X5318807Y4710741D01*
X5278965Y4811123D01*
X5246282Y4896014D01*
X5222389Y4961535D01*
X5208914Y5003810D01*
X5206746Y5018328D01*
X5223923Y5036847D01*
X5261530Y5066910D01*
X5311706Y5102268D01*
X5315918Y5105066D01*
X5445604Y5208875D01*
X5550174Y5329985D01*
X5628721Y5464524D01*
X5680339Y5608618D01*
X5704122Y5758395D01*
X5699163Y5909983D01*
X5664557Y6059508D01*
X5599397Y6203100D01*
X5580226Y6234516D01*
X5480514Y6361375D01*
X5362717Y6463245D01*
X5230911Y6539596D01*
X5089173Y6589898D01*
X4941582Y6613621D01*
X4792213Y6610235D01*
X4645143Y6579212D01*
X4504451Y6520020D01*
X4374213Y6432131D01*
X4333926Y6396458D01*
X4231395Y6284794D01*
X4156681Y6167243D01*
X4105430Y6035480D01*
X4076886Y5904993D01*
X4069840Y5758284D01*
X4093336Y5610847D01*
X4144989Y5467666D01*
X4222411Y5333723D01*
X4323215Y5214002D01*
X4445016Y5113486D01*
X4461024Y5102891D01*
X4511738Y5068194D01*
X4550290Y5038130D01*
X4568721Y5018935D01*
X4568989Y5018328D01*
X4565032Y4997564D01*
X4549347Y4950438D01*
X4523562Y4880827D01*
X4489309Y4792607D01*
X4448217Y4689656D01*
X4401916Y4575850D01*
X4352036Y4455065D01*
X4300207Y4331179D01*
X4248059Y4208068D01*
X4197222Y4089609D01*
X4149327Y3979677D01*
X4106002Y3882151D01*
X4068878Y3800907D01*
X4039584Y3739821D01*
X4019752Y3702770D01*
X4011766Y3693040D01*
X3987361Y3700617D01*
X3941698Y3720940D01*
X3882650Y3750375D01*
X3850180Y3767584D01*
X3712287Y3842141D01*
X3548017Y3731031D01*
X3464161Y3674110D01*
X3372353Y3611470D01*
X3286320Y3552489D01*
X3243227Y3522789D01*
X3182617Y3482090D01*
X3131295Y3449837D01*
X3095955Y3430116D01*
X3084477Y3425946D01*
X3067770Y3437193D01*
X3030794Y3468589D01*
X2977135Y3516876D01*
X2910378Y3578792D01*
X2834106Y3651079D01*
X2785867Y3697492D01*
X2701473Y3780413D01*
X2628537Y3854580D01*
X2570009Y3916820D01*
X2528837Y3963959D01*
X2507968Y3992827D01*
X2505966Y3998685D01*
X2515257Y4020968D01*
X2540931Y4066023D01*
X2580140Y4129289D01*
X2630037Y4206205D01*
X2687773Y4292208D01*
X2704191Y4316185D01*
X2764017Y4403330D01*
X2817690Y4481790D01*
X2862210Y4547155D01*
X2894575Y4595016D01*
X2911785Y4620965D01*
X2913447Y4623648D01*
X2910961Y4644328D01*
X2897763Y4689796D01*
X2876154Y4754056D01*
X2848436Y4831113D01*
X2816910Y4914971D01*
X2783877Y4999634D01*
X2751639Y5079108D01*
X2722497Y5147396D01*
X2698752Y5198503D01*
X2682705Y5226433D01*
X2681565Y5227773D01*
X2671752Y5235755D01*
X2655179Y5243649D01*
X2628208Y5252271D01*
X2587201Y5262438D01*
X2528520Y5274969D01*
X2448527Y5290679D01*
X2343585Y5310387D01*
X2210055Y5334908D01*
X2181144Y5340181D01*
X2095458Y5356736D01*
X2020758Y5372931D01*
X1963646Y5387204D01*
X1930723Y5397992D01*
X1926309Y5400507D01*
X1919034Y5422804D01*
X1913121Y5472631D01*
X1908574Y5544196D01*
X1905395Y5631707D01*
X1903591Y5729372D01*
X1903163Y5831399D01*
X1904117Y5931997D01*
X1906456Y6025373D01*
X1910184Y6105735D01*
X1915306Y6167291D01*
X1921824Y6204250D01*
X1925754Y6211814D01*
X1947632Y6219444D01*
X1997449Y6231858D01*
X2070243Y6247978D01*
X2161051Y6266727D01*
X2264909Y6287029D01*
X2321494Y6297670D01*
X2428854Y6317740D01*
X2524594Y6335920D01*
X2604034Y6351301D01*
X2662494Y6362969D01*
X2695295Y6370012D01*
X2700694Y6371574D01*
X2709818Y6389178D01*
X2729105Y6431582D01*
X2755985Y6492728D01*
X2787886Y6566557D01*
X2822238Y6647011D01*
X2856469Y6728032D01*
X2888009Y6803563D01*
X2914286Y6867545D01*
X2932729Y6913920D01*
X2940769Y6936631D01*
X2940918Y6937624D01*
X2931805Y6955539D01*
X2906254Y6996767D01*
X2866952Y7057209D01*
X2816583Y7132769D01*
X2757834Y7219348D01*
X2723682Y7269079D01*
X2661450Y7360264D01*
X2606176Y7443051D01*
X2560558Y7513251D01*
X2527292Y7566676D01*
X2509076Y7599139D01*
X2506445Y7606417D01*
X2517754Y7623355D01*
X2549021Y7659522D01*
X2596250Y7710865D01*
X2655448Y7773333D01*
X2722621Y7842874D01*
X2793774Y7915435D01*
X2864914Y7986965D01*
X2932047Y8053413D01*
X2991179Y8110726D01*
X3038315Y8154853D01*
X3069463Y8181741D01*
X3079883Y8188158D01*
X3096849Y8179135D01*
X3137429Y8153785D01*
X3197677Y8114690D01*
X3273647Y8064429D01*
X3361394Y8005583D01*
X3427584Y7960752D01*
X3762008Y7733346D01*
X4040773Y7848262D01*
X4319537Y7963178D01*
X4395086Y8363924D01*
X4470634Y8764671D01*
X5304755Y8764671D01*
X5380304Y8363924D01*
X5380304Y8363924D01*
G37*
X5380304Y8363924D02*
X5455853Y7963178D01*
X6013381Y7733346D01*
X6347805Y7960752D01*
X6441462Y8024069D01*
X6526122Y8080604D01*
X6597835Y8127773D01*
X6652651Y8162998D01*
X6686620Y8183695D01*
X6695870Y8188158D01*
X6712535Y8176680D01*
X6748146Y8144949D01*
X6798711Y8097017D01*
X6860240Y8036938D01*
X6928739Y7968767D01*
X7000219Y7896555D01*
X7070687Y7824358D01*
X7136151Y7756227D01*
X7192620Y7696217D01*
X7236103Y7648381D01*
X7262608Y7616773D01*
X7268945Y7606195D01*
X7259826Y7586694D01*
X7234260Y7543969D01*
X7194937Y7482202D01*
X7144543Y7405569D01*
X7085767Y7318252D01*
X7051708Y7268448D01*
X6989629Y7177507D01*
X6934466Y7095441D01*
X6888894Y7026337D01*
X6855590Y6974278D01*
X6837230Y6943350D01*
X6834471Y6936850D01*
X6840725Y6918379D01*
X6857774Y6875328D01*
X6883043Y6813751D01*
X6913962Y6739701D01*
X6947958Y6659230D01*
X6982458Y6578393D01*
X7014891Y6503242D01*
X7042683Y6439829D01*
X7063263Y6394207D01*
X7074059Y6372431D01*
X7074696Y6371574D01*
X7091647Y6367416D01*
X7136791Y6358139D01*
X7205450Y6344656D01*
X7292942Y6327879D01*
X7394590Y6308719D01*
X7453896Y6297670D01*
X7562512Y6276990D01*
X7660617Y6257311D01*
X7743249Y6239711D01*
X7805444Y6225267D01*
X7842239Y6215054D01*
X7849636Y6211814D01*
X7856880Y6189883D01*
X7862725Y6140353D01*
X7867175Y6069015D01*
X7870233Y5981661D01*
X7871905Y5884083D01*
X7872193Y5782074D01*
X7871101Y5681425D01*
X7868634Y5587928D01*
X7864796Y5507375D01*
X7859590Y5445558D01*
X7853021Y5408270D01*
X7849081Y5400507D01*
X7825528Y5391202D01*
X7775622Y5377900D01*
X7705963Y5362163D01*
X7623153Y5345554D01*
X7594245Y5340181D01*
X7454871Y5314652D01*
X7344776Y5294092D01*
X7260322Y5277685D01*
X7197870Y5264613D01*
X7153784Y5254059D01*
X7124425Y5245206D01*
X7106155Y5237237D01*
X7095338Y5229335D01*
X7093825Y5227773D01*
X7078717Y5202614D01*
X7055669Y5153650D01*
X7026984Y5086879D01*
X6994962Y5008295D01*
X6961905Y4923893D01*
X6930113Y4839670D01*
X6901889Y4761621D01*
X6879533Y4695741D01*
X6865347Y4648027D01*
X6861633Y4624473D01*
X6861942Y4623648D01*
X6874529Y4604396D01*
X6903084Y4562037D01*
X6944607Y4500979D01*
X6996096Y4425632D01*
X7054551Y4340404D01*
X7071198Y4316185D01*
X7130555Y4228377D01*
X7182787Y4148262D01*
X7225048Y4080438D01*
X7254493Y4029507D01*
X7268277Y4000069D01*
X7268945Y3996452D01*
X7257364Y3977443D01*
X7225364Y3939786D01*
X7177058Y3887527D01*
X7116560Y3824714D01*
X7047984Y3755394D01*
X6975444Y3683615D01*
X6903052Y3613423D01*
X6834924Y3548865D01*
X6775172Y3493990D01*
X6727911Y3452844D01*
X6697253Y3429474D01*
X6688772Y3425658D01*
X6669031Y3434645D01*
X6628614Y3458884D01*
X6574103Y3494291D01*
X6532163Y3522789D01*
X6456169Y3575082D01*
X6366174Y3636655D01*
X6275904Y3698130D01*
X6227372Y3731031D01*
X6063102Y3842141D01*
X5925209Y3767584D01*
X5862389Y3734922D01*
X5808969Y3709534D01*
X5772824Y3695054D01*
X5763624Y3693040D01*
X5752561Y3707916D01*
X5730734Y3749953D01*
X5699774Y3815273D01*
X5661310Y3900000D01*
X5616972Y4000255D01*
X5568387Y4112161D01*
X5517186Y4231841D01*
X5464999Y4355416D01*
X5413453Y4479009D01*
X5364180Y4598743D01*
X5318807Y4710741D01*
X5278965Y4811123D01*
X5246282Y4896014D01*
X5222389Y4961535D01*
X5208914Y5003810D01*
X5206746Y5018328D01*
X5223923Y5036847D01*
X5261530Y5066910D01*
X5311706Y5102268D01*
X5315918Y5105066D01*
X5445604Y5208875D01*
X5550174Y5329985D01*
X5628721Y5464524D01*
X5680339Y5608618D01*
X5704122Y5758395D01*
X5699163Y5909983D01*
X5664557Y6059508D01*
X5599397Y6203100D01*
X5580226Y6234516D01*
X5480514Y6361375D01*
X5362717Y6463245D01*
X5230911Y6539596D01*
X5089173Y6589898D01*
X4941582Y6613621D01*
X4792213Y6610235D01*
X4645143Y6579212D01*
X4504451Y6520020D01*
X4374213Y6432131D01*
X4333926Y6396458D01*
X4231395Y6284794D01*
X4156681Y6167243D01*
X4105430Y6035480D01*
X4076886Y5904993D01*
X4069840Y5758284D01*
X4093336Y5610847D01*
X4144989Y5467666D01*
X4222411Y5333723D01*
X4323215Y5214002D01*
X4445016Y5113486D01*
X4461024Y5102891D01*
X4511738Y5068194D01*
X4550290Y5038130D01*
X4568721Y5018935D01*
X4568989Y5018328D01*
X4565032Y4997564D01*
X4549347Y4950438D01*
X4523562Y4880827D01*
X4489309Y4792607D01*
X4448217Y4689656D01*
X4401916Y4575850D01*
X4352036Y4455065D01*
X4300207Y4331179D01*
X4248059Y4208068D01*
X4197222Y4089609D01*
X4149327Y3979677D01*
X4106002Y3882151D01*
X4068878Y3800907D01*
X4039584Y3739821D01*
X4019752Y3702770D01*
X4011766Y3693040D01*
X3987361Y3700617D01*
X3941698Y3720940D01*
X3882650Y3750375D01*
X3850180Y3767584D01*
X3712287Y3842141D01*
X3548017Y3731031D01*
X3464161Y3674110D01*
X3372353Y3611470D01*
X3286320Y3552489D01*
X3243227Y3522789D01*
X3182617Y3482090D01*
X3131295Y3449837D01*
X3095955Y3430116D01*
X3084477Y3425946D01*
X3067770Y3437193D01*
X3030794Y3468589D01*
X2977135Y3516876D01*
X2910378Y3578792D01*
X2834106Y3651079D01*
X2785867Y3697492D01*
X2701473Y3780413D01*
X2628537Y3854580D01*
X2570009Y3916820D01*
X2528837Y3963959D01*
X2507968Y3992827D01*
X2505966Y3998685D01*
X2515257Y4020968D01*
X2540931Y4066023D01*
X2580140Y4129289D01*
X2630037Y4206205D01*
X2687773Y4292208D01*
X2704191Y4316185D01*
X2764017Y4403330D01*
X2817690Y4481790D01*
X2862210Y4547155D01*
X2894575Y4595016D01*
X2911785Y4620965D01*
X2913447Y4623648D01*
X2910961Y4644328D01*
X2897763Y4689796D01*
X2876154Y4754056D01*
X2848436Y4831113D01*
X2816910Y4914971D01*
X2783877Y4999634D01*
X2751639Y5079108D01*
X2722497Y5147396D01*
X2698752Y5198503D01*
X2682705Y5226433D01*
X2681565Y5227773D01*
X2671752Y5235755D01*
X2655179Y5243649D01*
X2628208Y5252271D01*
X2587201Y5262438D01*
X2528520Y5274969D01*
X2448527Y5290679D01*
X2343585Y5310387D01*
X2210055Y5334908D01*
X2181144Y5340181D01*
X2095458Y5356736D01*
X2020758Y5372931D01*
X1963646Y5387204D01*
X1930723Y5397992D01*
X1926309Y5400507D01*
X1919034Y5422804D01*
X1913121Y5472631D01*
X1908574Y5544196D01*
X1905395Y5631707D01*
X1903591Y5729372D01*
X1903163Y5831399D01*
X1904117Y5931997D01*
X1906456Y6025373D01*
X1910184Y6105735D01*
X1915306Y6167291D01*
X1921824Y6204250D01*
X1925754Y6211814D01*
X1947632Y6219444D01*
X1997449Y6231858D01*
X2070243Y6247978D01*
X2161051Y6266727D01*
X2264909Y6287029D01*
X2321494Y6297670D01*
X2428854Y6317740D01*
X2524594Y6335920D01*
X2604034Y6351301D01*
X2662494Y6362969D01*
X2695295Y6370012D01*
X2700694Y6371574D01*
X2709818Y6389178D01*
X2729105Y6431582D01*
X2755985Y6492728D01*
X2787886Y6566557D01*
X2822238Y6647011D01*
X2856469Y6728032D01*
X2888009Y6803563D01*
X2914286Y6867545D01*
X2932729Y6913920D01*
X2940769Y6936631D01*
X2940918Y6937624D01*
X2931805Y6955539D01*
X2906254Y6996767D01*
X2866952Y7057209D01*
X2816583Y7132769D01*
X2757834Y7219348D01*
X2723682Y7269079D01*
X2661450Y7360264D01*
X2606176Y7443051D01*
X2560558Y7513251D01*
X2527292Y7566676D01*
X2509076Y7599139D01*
X2506445Y7606417D01*
X2517754Y7623355D01*
X2549021Y7659522D01*
X2596250Y7710865D01*
X2655448Y7773333D01*
X2722621Y7842874D01*
X2793774Y7915435D01*
X2864914Y7986965D01*
X2932047Y8053413D01*
X2991179Y8110726D01*
X3038315Y8154853D01*
X3069463Y8181741D01*
X3079883Y8188158D01*
X3096849Y8179135D01*
X3137429Y8153785D01*
X3197677Y8114690D01*
X3273647Y8064429D01*
X3361394Y8005583D01*
X3427584Y7960752D01*
X3762008Y7733346D01*
X4040773Y7848262D01*
X4319537Y7963178D01*
X4395086Y8363924D01*
X4470634Y8764671D01*
X5304755Y8764671D01*
X5380304Y8363924D01*
D13*
X7616100Y18221460D03*
X7616100Y16951460D03*
X7616100Y15681460D03*
X7616100Y14411460D03*
X13016100Y14411460D03*
X13016100Y15681460D03*
X13016100Y16951460D03*
X13016100Y18221460D03*
D14*
X8325100Y11109960D03*
X12325100Y11109960D03*
D15*
X3166100Y17666460D03*
D16*
X3166100Y15126460D03*
X3166100Y12586460D03*
D17*
X15666100Y2466460D02*
X32499300Y2461260D01*
X32499300Y2461260D02*
X33413700Y3375660D01*
D18*
X15616100Y4716460D02*
X31970980Y4706620D01*
X31970980Y4706620D02*
X32946340Y5681980D01*
D19*
X15516100Y7166460D02*
X31059120Y7165340D01*
X31059120Y7165340D02*
X32176720Y8282940D01*
D20*
X15366100Y9916460D02*
X30708600Y9852660D01*
X30708600Y9852660D02*
X31889700Y11033760D01*
D21*
X15366100Y12616460D02*
X30650180Y12595860D01*
X30650180Y12595860D02*
X31478220Y13423900D01*
D11*
X15366100Y14716460D02*
X30137100Y14709140D01*
X30137100Y14709140D02*
X31031180Y15603220D01*
D10*
X15316100Y16816460D02*
X29801820Y16832580D01*
X29801820Y16832580D02*
X30746700Y17777460D01*
D19*
G36*
X860311Y1628271D02*
X924181Y1584226D01*
X991726Y1555080D01*
X1055018Y1517593D01*
X1129288Y1491456D01*
X1198431Y1481569D01*
X1265503Y1462065D01*
X1299734Y1459092D01*
X1299734Y891460D01*
X841100Y891460D01*
X841100Y1648054D01*
X860311Y1628271D01*
X860311Y1628271D01*
G37*
X860311Y1628271D02*
X924181Y1584226D01*
X991726Y1555080D01*
X1055018Y1517593D01*
X1129288Y1491456D01*
X1198431Y1481569D01*
X1265503Y1462065D01*
X1299734Y1459092D01*
X1299734Y891460D01*
X841100Y891460D01*
X841100Y1648054D01*
X860311Y1628271D01*
G36*
X39591100Y16993140D02*
X39089339Y16993140D01*
X39089339Y19268980D01*
X31598862Y19268980D01*
X31598862Y16993140D01*
X31542412Y16993140D01*
X31542412Y15941462D01*
X31473122Y16045162D01*
X31270357Y16180645D01*
X31031180Y16228220D01*
X30792003Y16180645D01*
X30589238Y16045162D01*
X29878344Y15334268D01*
X15366410Y15341460D01*
X15127209Y15294003D01*
X14924377Y15158621D01*
X14788794Y14955923D01*
X14741100Y14716770D01*
X14788557Y14477569D01*
X14923939Y14274737D01*
X15126637Y14139154D01*
X15365790Y14091460D01*
X30136790Y14084140D01*
X30136945Y14084171D01*
X30137100Y14084140D01*
X30256927Y14107975D01*
X30375991Y14131597D01*
X30376121Y14131684D01*
X30376277Y14131715D01*
X30477706Y14199488D01*
X30578823Y14266979D01*
X30578911Y14267110D01*
X30579042Y14267198D01*
X31473122Y15161278D01*
X31542412Y15264978D01*
X31542412Y14093140D01*
X31842702Y14093140D01*
X31842702Y13947087D01*
X31726964Y14024421D01*
X31478220Y14073899D01*
X31229475Y14024421D01*
X31018600Y13883519D01*
X30381304Y13246223D01*
X15366976Y13266459D01*
X15118166Y13217317D01*
X14907101Y13076698D01*
X14765914Y12866013D01*
X14716101Y12617336D01*
X14765243Y12368526D01*
X14905862Y12157461D01*
X15116547Y12016274D01*
X15365224Y11966461D01*
X30649304Y11945861D01*
X30649744Y11945948D01*
X30650180Y11945861D01*
X30773837Y11970457D01*
X30898115Y11995003D01*
X30898487Y11995251D01*
X30898925Y11995338D01*
X31004034Y12065570D01*
X31109179Y12135622D01*
X31109427Y12135993D01*
X31109799Y12136241D01*
X31842702Y12869143D01*
X31842702Y12332240D01*
X31763392Y12332240D01*
X31763392Y11683636D01*
X31631388Y11657379D01*
X31412403Y11511057D01*
X30430169Y10528823D01*
X15368907Y10591454D01*
X15110384Y10541148D01*
X14890792Y10395738D01*
X14743561Y10177362D01*
X14691106Y9919267D01*
X14741412Y9660744D01*
X14886822Y9441152D01*
X15105198Y9293921D01*
X15363293Y9241466D01*
X30705793Y9177666D01*
X30707197Y9177939D01*
X30708600Y9177660D01*
X30836410Y9203083D01*
X30964316Y9227972D01*
X30965509Y9228762D01*
X30966912Y9229041D01*
X31075247Y9301428D01*
X31183908Y9373382D01*
X31184708Y9374569D01*
X31185897Y9375363D01*
X31763392Y9952858D01*
X31763392Y9432240D01*
X39591100Y9432240D01*
X39591100Y9380760D01*
X32868862Y9380760D01*
X32868862Y8322445D01*
X32823436Y8550819D01*
X32671695Y8777915D01*
X32444599Y8929656D01*
X32176720Y8982940D01*
X31908841Y8929656D01*
X31681745Y8777915D01*
X30769191Y7865361D01*
X15516150Y7866460D01*
X15248269Y7813195D01*
X15021161Y7661471D01*
X14869403Y7434385D01*
X14816100Y7166510D01*
X14869365Y6898629D01*
X15021089Y6671521D01*
X15248175Y6519763D01*
X15516050Y6466460D01*
X31059070Y6465340D01*
X31059095Y6465345D01*
X31059120Y6465340D01*
X31196810Y6492728D01*
X31326951Y6518605D01*
X31326971Y6518618D01*
X31326999Y6518624D01*
X31448302Y6599676D01*
X31554059Y6670329D01*
X31554073Y6670351D01*
X31554095Y6670365D01*
X32671695Y7787965D01*
X32823436Y8015061D01*
X32868862Y8243435D01*
X32868862Y6480760D01*
X39591100Y6480760D01*
X39591100Y6345460D01*
X33277397Y6345460D01*
X33233352Y6374890D01*
X32946340Y6431980D01*
X32659327Y6374890D01*
X32416010Y6212310D01*
X31660507Y5456807D01*
X15616551Y5466460D01*
X15329504Y5409543D01*
X15086089Y5247109D01*
X14923363Y5003890D01*
X14866100Y4716911D01*
X14923017Y4429864D01*
X15085451Y4186449D01*
X15328670Y4023723D01*
X15615649Y3966460D01*
X31970529Y3956620D01*
X31970755Y3956665D01*
X31970980Y3956620D01*
X32113777Y3985024D01*
X32257576Y4013537D01*
X32257768Y4013665D01*
X32257993Y4013710D01*
X32379830Y4095119D01*
X32500991Y4175971D01*
X32501119Y4176162D01*
X32501310Y4176290D01*
X32980622Y4655602D01*
X32980622Y4029951D01*
X32848015Y3941346D01*
X32168032Y3261362D01*
X15666347Y3266460D01*
X15360181Y3205659D01*
X15100590Y3032320D01*
X14927091Y2772835D01*
X14866100Y2466707D01*
X14926901Y2160541D01*
X15100240Y1900950D01*
X15359725Y1727451D01*
X15665853Y1666460D01*
X32499053Y1661260D01*
X32499179Y1661285D01*
X32499300Y1661261D01*
X32649832Y1691203D01*
X32805219Y1722061D01*
X32805325Y1722132D01*
X32805447Y1722156D01*
X32899342Y1784895D01*
X32899342Y891460D01*
X8385081Y891460D01*
X8380637Y912834D01*
X8383100Y938060D01*
X8378852Y952022D01*
X8387798Y997248D01*
X8408813Y1102895D01*
X8408755Y1103188D01*
X8408813Y1103483D01*
X8408720Y1191213D01*
X8408442Y1192604D01*
X8408710Y1193996D01*
X8408657Y1202721D01*
X8403553Y1227592D01*
X8406082Y1252854D01*
X8395628Y1360788D01*
X8376622Y1423811D01*
X8371884Y1458111D01*
X8423294Y1452269D01*
X8524768Y1460732D01*
X8585397Y1478137D01*
X8648070Y1485305D01*
X8742408Y1515548D01*
X8807578Y1551709D01*
X8876719Y1579546D01*
X8953429Y1629706D01*
X8986651Y1662274D01*
X9026324Y1686572D01*
X9083783Y1739660D01*
X9109370Y1774860D01*
X9142499Y1803071D01*
X9172441Y1861623D01*
X9211111Y1914821D01*
X9221280Y1957132D01*
X9241092Y1995875D01*
X9246347Y2061427D01*
X9261717Y2125376D01*
X9254920Y2168360D01*
X9258397Y2211733D01*
X9242251Y2261674D01*
X9261050Y2356184D01*
X9261050Y2472070D01*
X9259093Y2481906D01*
X9260699Y2491806D01*
X9258518Y2553098D01*
X9254017Y2572156D01*
X9255799Y2591657D01*
X9249394Y2652299D01*
X9239882Y2682878D01*
X9239138Y2714894D01*
X9229989Y2755888D01*
X9209352Y2802610D01*
X9198878Y2852599D01*
X9192208Y2868249D01*
X9159962Y2915460D01*
X9137067Y2967848D01*
X9088519Y3037551D01*
X9034510Y3089512D01*
X8987245Y3147673D01*
X8917097Y3205809D01*
X8854248Y3239792D01*
X8796547Y3281932D01*
X8714511Y3319996D01*
X8661454Y3332872D01*
X8611930Y3355865D01*
X8569140Y3366260D01*
X8515739Y3368502D01*
X8463856Y3381349D01*
X8361902Y3386081D01*
X8278354Y3373457D01*
X8194018Y3368165D01*
X8103173Y3344094D01*
X8057474Y3321715D01*
X8042918Y3327899D01*
X7972194Y3342631D01*
X7904025Y3366557D01*
X7802992Y3380919D01*
X7732747Y3377042D01*
X7662643Y3382942D01*
X7563490Y3371752D01*
X7495024Y3349916D01*
X7467534Y3345051D01*
X7433010Y3355599D01*
X7438353Y3360886D01*
X7440041Y3363384D01*
X7442540Y3365073D01*
X7511116Y3434393D01*
X7513199Y3437547D01*
X7516301Y3439705D01*
X7576799Y3502518D01*
X7579926Y3507394D01*
X7584614Y3510800D01*
X7632920Y3563059D01*
X7639067Y3573090D01*
X7648287Y3580396D01*
X7680287Y3618053D01*
X7701630Y3656388D01*
X7715405Y3671368D01*
X7726135Y3681807D01*
X7727129Y3684117D01*
X7731330Y3688685D01*
X7742911Y3707694D01*
X7766393Y3771857D01*
X7790106Y3811075D01*
X7794671Y3841050D01*
X7811743Y3880717D01*
X7811958Y3896360D01*
X7817335Y3911053D01*
X7814746Y3972867D01*
X7822709Y4025157D01*
X7814200Y4059695D01*
X7814715Y4097247D01*
X7814047Y4100864D01*
X7808836Y4113950D01*
X7808272Y4127414D01*
X7785346Y4176808D01*
X7770905Y4235419D01*
X7757122Y4264857D01*
X7742771Y4284364D01*
X7734974Y4307290D01*
X7705529Y4358221D01*
X7699379Y4365225D01*
X7696089Y4373943D01*
X7653828Y4441767D01*
X7649864Y4445992D01*
X7647706Y4451372D01*
X7595474Y4531487D01*
X7592182Y4534855D01*
X7590356Y4539196D01*
X7530999Y4627004D01*
X7529437Y4628549D01*
X7528572Y4630563D01*
X7511926Y4654782D01*
X7511924Y4654784D01*
X7474270Y4709684D01*
X7479926Y4724666D01*
X7492632Y4757109D01*
X7555587Y4768866D01*
X7694240Y4794263D01*
X7694927Y4794535D01*
X7695663Y4794526D01*
X7724571Y4799899D01*
X7728289Y4801385D01*
X7732294Y4801391D01*
X7815104Y4818000D01*
X7821423Y4820629D01*
X7828264Y4820806D01*
X7897922Y4836543D01*
X7907787Y4840931D01*
X7918562Y4841623D01*
X7968468Y4854925D01*
X7997559Y4869224D01*
X8011402Y4871741D01*
X8021420Y4872943D01*
X8023051Y4873860D01*
X8029453Y4875024D01*
X8053005Y4884329D01*
X8130165Y4934069D01*
X8134869Y4936713D01*
X8152115Y4945190D01*
X8171425Y4953690D01*
X8178822Y4961419D01*
X8210191Y4979052D01*
X8220708Y4992436D01*
X8235015Y5001659D01*
X8281251Y5068451D01*
X8321149Y5110141D01*
X8328932Y5130165D01*
X8343987Y5149324D01*
X8347928Y5157088D01*
X8351547Y5169998D01*
X8358270Y5179710D01*
X8370886Y5238096D01*
X8399604Y5311979D01*
X8406173Y5349267D01*
X8405855Y5363735D01*
X8406378Y5365600D01*
X8405688Y5371354D01*
X8405616Y5374618D01*
X8412632Y5398983D01*
X8417838Y5460800D01*
X8416687Y5471000D01*
X8419167Y5480962D01*
X8423005Y5561514D01*
X8422117Y5567442D01*
X8423441Y5573289D01*
X8425908Y5666786D01*
X8425166Y5671111D01*
X8426068Y5675404D01*
X8427160Y5776053D01*
X8426448Y5779848D01*
X8427191Y5783641D01*
X8426903Y5885650D01*
X8426103Y5889613D01*
X8426824Y5893592D01*
X8425152Y5991170D01*
X8424083Y5996101D01*
X8424893Y6001077D01*
X8421835Y6088432D01*
X8420068Y6095932D01*
X8421098Y6103568D01*
X8416648Y6174906D01*
X8412676Y6189917D01*
X8413900Y6205397D01*
X8408055Y6254927D01*
X8390739Y6308281D01*
X8383875Y6363955D01*
X8376631Y6385885D01*
X8369203Y6398998D01*
X8366562Y6413832D01*
X8346096Y6445839D01*
X8341208Y6460901D01*
X8330047Y6473978D01*
X8325347Y6488241D01*
X8305792Y6510946D01*
X8269902Y6574307D01*
X8258023Y6583578D01*
X8249905Y6596274D01*
X8205796Y6627050D01*
X8184028Y6652324D01*
X8144216Y6672402D01*
X8099191Y6707543D01*
X8084668Y6711563D01*
X8072310Y6720185D01*
X8064913Y6723425D01*
X8026133Y6731954D01*
X7990676Y6749836D01*
X7953881Y6760049D01*
X7941921Y6760940D01*
X7930994Y6765880D01*
X7868799Y6780324D01*
X7863624Y6780489D01*
X7858867Y6782535D01*
X7776234Y6800135D01*
X7772873Y6800180D01*
X7769771Y6801471D01*
X7671666Y6821150D01*
X7668891Y6821154D01*
X7666317Y6822196D01*
X7557701Y6842876D01*
X7556584Y6842867D01*
X7555546Y6843282D01*
X7496935Y6854201D01*
X7465663Y6860096D01*
X7458807Y6876161D01*
X7457697Y6878789D01*
X7510091Y6955542D01*
X7510092Y6955544D01*
X7543887Y7004961D01*
X7544703Y7006872D01*
X7546176Y7008335D01*
X7604952Y7095652D01*
X7606126Y7098460D01*
X7608262Y7100627D01*
X7658656Y7177260D01*
X7660225Y7181129D01*
X7663112Y7184146D01*
X7702435Y7245913D01*
X7705265Y7253197D01*
X7710508Y7258990D01*
X7736074Y7301715D01*
X7745671Y7328600D01*
X7762574Y7351600D01*
X7771693Y7371101D01*
X7784441Y7422955D01*
X7807282Y7471221D01*
X7810039Y7527081D01*
X7823390Y7581390D01*
X7815324Y7634174D01*
X7817956Y7687508D01*
X7799126Y7740171D01*
X7790678Y7795456D01*
X7763026Y7841137D01*
X7745048Y7891416D01*
X7738711Y7901994D01*
X7709087Y7934694D01*
X7687877Y7973384D01*
X7661372Y8004992D01*
X7652591Y8012044D01*
X7646788Y8021694D01*
X7603305Y8069530D01*
X7599390Y8072425D01*
X7596808Y8076555D01*
X7540339Y8136565D01*
X7537939Y8138277D01*
X7536350Y8140760D01*
X7470886Y8208891D01*
X7469068Y8210159D01*
X7467858Y8212018D01*
X7397390Y8284215D01*
X7395752Y8285339D01*
X7394657Y8286995D01*
X7323177Y8359207D01*
X7321423Y8360392D01*
X7320241Y8362152D01*
X7251741Y8430323D01*
X7249499Y8431814D01*
X7247977Y8434033D01*
X7186448Y8494112D01*
X7182944Y8496393D01*
X7180528Y8499808D01*
X7129963Y8547740D01*
X7122606Y8552376D01*
X7117367Y8559317D01*
X7081756Y8591048D01*
X7067538Y8599407D01*
X7065386Y8602262D01*
X7048028Y8612484D01*
X7027346Y8633757D01*
X7010681Y8645235D01*
X6942627Y8674553D01*
X6878787Y8712148D01*
X6844034Y8717028D01*
X6811802Y8730914D01*
X6737712Y8731958D01*
X6664340Y8742261D01*
X6630366Y8733471D01*
X6595273Y8733965D01*
X6526424Y8706576D01*
X6454694Y8688017D01*
X6445445Y8683554D01*
X6423570Y8667066D01*
X6397844Y8657650D01*
X6363875Y8636953D01*
X6358902Y8632380D01*
X6352614Y8629906D01*
X6297798Y8594681D01*
X6295632Y8592592D01*
X6292846Y8591461D01*
X6221133Y8544292D01*
X6219729Y8542908D01*
X6217905Y8542153D01*
X6133245Y8485618D01*
X6132106Y8484480D01*
X6130623Y8483856D01*
X6036965Y8420539D01*
X6036428Y8419996D01*
X6035725Y8419698D01*
X5948514Y8360395D01*
X5945512Y8361632D01*
X5925697Y8466742D01*
X5850148Y8867489D01*
X5828709Y8920751D01*
X5817508Y8977060D01*
X5788670Y9020219D01*
X5769286Y9068375D01*
X5729095Y9109379D01*
X5697199Y9157115D01*
X5654040Y9185953D01*
X5617703Y9223025D01*
X5564882Y9245527D01*
X5517144Y9277424D01*
X5466232Y9287551D01*
X5418476Y9307895D01*
X5361066Y9308470D01*
X5304755Y9319671D01*
X4470634Y9319671D01*
X4414323Y9308470D01*
X4356911Y9307895D01*
X4309155Y9287551D01*
X4258245Y9277424D01*
X4210507Y9245526D01*
X4157685Y9223024D01*
X4121350Y9185954D01*
X4078190Y9157115D01*
X4046292Y9109377D01*
X4006103Y9068374D01*
X3986720Y9020220D01*
X3957881Y8977060D01*
X3946680Y8920749D01*
X3925241Y8867488D01*
X3849694Y8466744D01*
X3849693Y8466742D01*
X3829878Y8361632D01*
X3829251Y8361374D01*
X3826876Y8360395D01*
X3739664Y8419698D01*
X3739184Y8419901D01*
X3738819Y8420271D01*
X3672630Y8465102D01*
X3671433Y8465606D01*
X3670517Y8466526D01*
X3582770Y8525371D01*
X3581137Y8526051D01*
X3579877Y8527299D01*
X3503907Y8577560D01*
X3501584Y8578510D01*
X3499786Y8580260D01*
X3439538Y8619355D01*
X3435017Y8621157D01*
X3431474Y8624489D01*
X3390894Y8649839D01*
X3372600Y8656767D01*
X3357451Y8669147D01*
X3340485Y8678170D01*
X3272648Y8698593D01*
X3208256Y8728107D01*
X3169893Y8729530D01*
X3133129Y8740598D01*
X3062642Y8733507D01*
X2991854Y8736132D01*
X2955865Y8722765D01*
X2917666Y8718922D01*
X2899590Y8709212D01*
X2895180Y8708666D01*
X2852013Y8684192D01*
X2788854Y8660733D01*
X2778435Y8654316D01*
X2752395Y8630138D01*
X2726899Y8616442D01*
X2722048Y8610505D01*
X2706801Y8601861D01*
X2675653Y8574973D01*
X2668666Y8566014D01*
X2659016Y8560016D01*
X2611880Y8515889D01*
X2609027Y8511909D01*
X2604912Y8509252D01*
X2545780Y8451939D01*
X2544094Y8449499D01*
X2541620Y8447864D01*
X2474487Y8381417D01*
X2473242Y8379575D01*
X2471398Y8378335D01*
X2400258Y8306805D01*
X2399153Y8305141D01*
X2397504Y8304016D01*
X2326351Y8231455D01*
X2325187Y8229675D01*
X2323439Y8228463D01*
X2256266Y8158922D01*
X2254805Y8156651D01*
X2252602Y8155092D01*
X2193404Y8092624D01*
X2191168Y8089075D01*
X2187783Y8086603D01*
X2140553Y8035260D01*
X2136028Y8027835D01*
X2129167Y8022493D01*
X2097900Y7986326D01*
X2080740Y7956111D01*
X2056180Y7931534D01*
X2044871Y7914596D01*
X2028832Y7875836D01*
X2003958Y7842067D01*
X1994712Y7804637D01*
X1990957Y7798025D01*
X1988802Y7780712D01*
X1987815Y7776714D01*
X1983919Y7767298D01*
X1974787Y7749339D01*
X1974393Y7744278D01*
X1962071Y7714501D01*
X1962086Y7672554D01*
X1952028Y7631836D01*
X1961022Y7572540D01*
X1957978Y7533442D01*
X1962140Y7520670D01*
X1962148Y7497951D01*
X1978213Y7459205D01*
X1984503Y7417735D01*
X1987134Y7410457D01*
X2010852Y7371178D01*
X2025069Y7327547D01*
X2043285Y7295084D01*
X2051631Y7285329D01*
X2056160Y7273317D01*
X2089425Y7219893D01*
X2093160Y7215910D01*
X2095185Y7210838D01*
X2140803Y7140638D01*
X2143257Y7138120D01*
X2144601Y7134873D01*
X2199875Y7052087D01*
X2201908Y7050053D01*
X2203035Y7047405D01*
X2265267Y6956220D01*
X2265851Y6955647D01*
X2266175Y6954893D01*
X2299357Y6906576D01*
X2317873Y6879289D01*
X2311496Y6864195D01*
X2309742Y6860087D01*
X2219508Y6843219D01*
X2219226Y6843106D01*
X2218922Y6843109D01*
X2162337Y6832468D01*
X2160460Y6831713D01*
X2158434Y6831720D01*
X2054576Y6811418D01*
X2051814Y6810285D01*
X2048828Y6810263D01*
X1958020Y6791514D01*
X1954293Y6789938D01*
X1950248Y6789851D01*
X1877453Y6773731D01*
X1870660Y6770744D01*
X1863251Y6770389D01*
X1813434Y6757975D01*
X1790253Y6747046D01*
X1764870Y6743489D01*
X1742992Y6735859D01*
X1656551Y6684989D01*
X1644010Y6678096D01*
X1617563Y6665627D01*
X1616726Y6664706D01*
X1603503Y6658888D01*
X1597327Y6652437D01*
X1568672Y6636687D01*
X1563495Y6630226D01*
X1556361Y6626028D01*
X1498136Y6548827D01*
X1453751Y6502465D01*
X1446801Y6484594D01*
X1433261Y6467697D01*
X1429331Y6460133D01*
X1428133Y6456010D01*
X1425966Y6453137D01*
X1415034Y6410938D01*
X1405809Y6379194D01*
X1375258Y6300641D01*
X1368741Y6263682D01*
X1368985Y6252485D01*
X1368898Y6252186D01*
X1369014Y6251130D01*
X1369300Y6238005D01*
X1362217Y6213313D01*
X1357095Y6151757D01*
X1358264Y6141486D01*
X1355780Y6131453D01*
X1352052Y6051092D01*
X1352951Y6045141D01*
X1351630Y6039271D01*
X1349291Y5945895D01*
X1350040Y5941563D01*
X1349142Y5937260D01*
X1348188Y5836662D01*
X1348906Y5832864D01*
X1348168Y5829071D01*
X1348596Y5727044D01*
X1349400Y5723091D01*
X1348686Y5719122D01*
X1350490Y5621457D01*
X1351564Y5616534D01*
X1350761Y5611559D01*
X1353940Y5524048D01*
X1355706Y5516595D01*
X1354691Y5509004D01*
X1359238Y5437439D01*
X1363191Y5422569D01*
X1361988Y5407228D01*
X1367901Y5357400D01*
X1384888Y5305176D01*
X1391409Y5250652D01*
X1398684Y5228355D01*
X1425275Y5181010D01*
X1431552Y5161712D01*
X1435589Y5147259D01*
X1459778Y5116418D01*
X1487930Y5060141D01*
X1498121Y5051306D01*
X1504726Y5039546D01*
X1544758Y5008067D01*
X1569230Y4976865D01*
X1611364Y4953131D01*
X1651552Y4918290D01*
X1655966Y4915775D01*
X1666655Y4912214D01*
X1674952Y4905690D01*
X1716076Y4894146D01*
X1757905Y4870584D01*
X1790828Y4859796D01*
X1810849Y4857376D01*
X1829083Y4848764D01*
X1886195Y4834491D01*
X1895043Y4834061D01*
X1903166Y4830532D01*
X1977865Y4814337D01*
X1984255Y4814227D01*
X1990176Y4811813D01*
X2075862Y4795258D01*
X2078817Y4795274D01*
X2081562Y4794188D01*
X2110313Y4788944D01*
X2242044Y4764753D01*
X2282755Y4757108D01*
X2298609Y4716475D01*
X2301152Y4709711D01*
X2246637Y4630301D01*
X2246503Y4629988D01*
X2246258Y4629749D01*
X2229840Y4605773D01*
X2228818Y4603383D01*
X2226979Y4601552D01*
X2169242Y4515548D01*
X2167531Y4511442D01*
X2164429Y4508255D01*
X2114532Y4431339D01*
X2112373Y4425919D01*
X2108391Y4421655D01*
X2069182Y4358389D01*
X2065535Y4348656D01*
X2058726Y4340802D01*
X2033052Y4295746D01*
X2022179Y4263111D01*
X2016473Y4254614D01*
X2007697Y4243128D01*
X2007001Y4240510D01*
X2003002Y4234555D01*
X1993711Y4212272D01*
X1976098Y4124796D01*
X1974324Y4119472D01*
X1960010Y4080953D01*
X1960570Y4065786D01*
X1952081Y4033842D01*
X1954358Y4016818D01*
X1950968Y3999982D01*
X1965780Y3924596D01*
X1967996Y3864550D01*
X1977498Y3843809D01*
X1980789Y3819203D01*
X1982791Y3813345D01*
X1990122Y3800708D01*
X1992718Y3787495D01*
X2026744Y3736313D01*
X2058188Y3667676D01*
X2079057Y3638808D01*
X2089862Y3628772D01*
X2091452Y3626031D01*
X2098164Y3620902D01*
X2110829Y3598864D01*
X2152001Y3551725D01*
X2160206Y3545403D01*
X2165693Y3536618D01*
X2224221Y3474378D01*
X2229360Y3470711D01*
X2232823Y3465433D01*
X2305758Y3391267D01*
X2309769Y3388538D01*
X2312499Y3384529D01*
X2325409Y3371845D01*
X2312603Y3372223D01*
X2242685Y3383984D01*
X2154636Y3381368D01*
X2079528Y3364094D01*
X2076588Y3363765D01*
X2023752Y3376464D01*
X1968571Y3378646D01*
X1957567Y3376906D01*
X1946642Y3379079D01*
X1854734Y3379079D01*
X1656272Y3339602D01*
X1649950Y3341015D01*
X1571409Y3366543D01*
X1462834Y3379404D01*
X1421807Y3376179D01*
X1381226Y3383017D01*
X1340205Y3381810D01*
X1300885Y3372779D01*
X1260553Y3373688D01*
X1176429Y3358918D01*
X1099084Y3328905D01*
X1019275Y3306193D01*
X950487Y3270939D01*
X889367Y3222521D01*
X841100Y3192347D01*
X841100Y15126460D01*
X1569420Y15126460D01*
X1677024Y14585499D01*
X1983454Y14126894D01*
X2388187Y13856460D01*
X1983454Y13586026D01*
X1677024Y13127421D01*
X1569420Y12586460D01*
X1677024Y12045499D01*
X1983454Y11586894D01*
X2442059Y11280464D01*
X2859921Y11197346D01*
X2963700Y11172860D01*
X3368500Y11172860D01*
X3472279Y11197346D01*
X3890141Y11280464D01*
X4348746Y11586894D01*
X4598020Y11959960D01*
X6764325Y11959960D01*
X6764325Y10259960D01*
X6775100Y10202696D01*
X6775100Y10150558D01*
X6793077Y10107158D01*
X6802676Y10056142D01*
X6835043Y10005843D01*
X6858832Y9948410D01*
X6895766Y9911477D01*
X6923132Y9868948D01*
X6971005Y9836238D01*
X7013550Y9793693D01*
X7063632Y9772948D01*
X7106927Y9743366D01*
X7161949Y9732224D01*
X7215698Y9709960D01*
X7271891Y9709960D01*
X7325100Y9699185D01*
X9325100Y9699185D01*
X9382364Y9709960D01*
X9434502Y9709960D01*
X9477901Y9727936D01*
X9528918Y9737536D01*
X9579221Y9769905D01*
X9636650Y9793693D01*
X9673582Y9830625D01*
X9716112Y9857992D01*
X9748821Y9905864D01*
X9791368Y9948410D01*
X9812114Y9998495D01*
X9841694Y10041787D01*
X9852836Y10096807D01*
X9875100Y10150558D01*
X9875100Y10206751D01*
X9885875Y10259960D01*
X9885875Y11959960D01*
X10764325Y11959960D01*
X10764325Y10259960D01*
X10775100Y10202696D01*
X10775100Y10150558D01*
X10793077Y10107158D01*
X10802676Y10056142D01*
X10835043Y10005843D01*
X10858832Y9948410D01*
X10895766Y9911477D01*
X10923132Y9868948D01*
X10971005Y9836238D01*
X11013550Y9793693D01*
X11063632Y9772948D01*
X11106927Y9743366D01*
X11161949Y9732224D01*
X11215698Y9709960D01*
X11271891Y9709960D01*
X11325100Y9699185D01*
X13325100Y9699185D01*
X13382364Y9709960D01*
X13434502Y9709960D01*
X13477901Y9727936D01*
X13528918Y9737536D01*
X13579221Y9769905D01*
X13636650Y9793693D01*
X13673582Y9830625D01*
X13716112Y9857992D01*
X13748821Y9905864D01*
X13791368Y9948410D01*
X13812114Y9998495D01*
X13841694Y10041787D01*
X13852836Y10096807D01*
X13875100Y10150558D01*
X13875100Y10206751D01*
X13885875Y10259960D01*
X13885875Y11959960D01*
X13875100Y12017224D01*
X13875100Y12069362D01*
X13857123Y12112762D01*
X13847524Y12163778D01*
X13815157Y12214077D01*
X13791368Y12271510D01*
X13754434Y12308443D01*
X13727068Y12350972D01*
X13679195Y12383682D01*
X13636650Y12426227D01*
X13586568Y12446972D01*
X13543273Y12476554D01*
X13488251Y12487696D01*
X13434502Y12509960D01*
X13378309Y12509960D01*
X13325100Y12520735D01*
X11325100Y12520735D01*
X11267836Y12509960D01*
X11215698Y12509960D01*
X11172299Y12491984D01*
X11121282Y12482384D01*
X11070979Y12450015D01*
X11013550Y12426227D01*
X10976618Y12389295D01*
X10934088Y12361928D01*
X10901379Y12314056D01*
X10858832Y12271510D01*
X10838086Y12221425D01*
X10808506Y12178133D01*
X10797364Y12123113D01*
X10775100Y12069362D01*
X10775100Y12013169D01*
X10764325Y11959960D01*
X9885875Y11959960D01*
X9875100Y12017224D01*
X9875100Y12069362D01*
X9857123Y12112762D01*
X9847524Y12163778D01*
X9815157Y12214077D01*
X9791368Y12271510D01*
X9754434Y12308443D01*
X9727068Y12350972D01*
X9679195Y12383682D01*
X9636650Y12426227D01*
X9586568Y12446972D01*
X9543273Y12476554D01*
X9488251Y12487696D01*
X9434502Y12509960D01*
X9378309Y12509960D01*
X9325100Y12520735D01*
X7325100Y12520735D01*
X7267836Y12509960D01*
X7215698Y12509960D01*
X7172299Y12491984D01*
X7121282Y12482384D01*
X7070979Y12450015D01*
X7013550Y12426227D01*
X6976618Y12389295D01*
X6934088Y12361928D01*
X6901379Y12314056D01*
X6858832Y12271510D01*
X6838086Y12221425D01*
X6808506Y12178133D01*
X6797364Y12123113D01*
X6775100Y12069362D01*
X6775100Y12013169D01*
X6764325Y11959960D01*
X4598020Y11959960D01*
X4655176Y12045499D01*
X4762780Y12586460D01*
X4655176Y13127421D01*
X4348746Y13586026D01*
X3944013Y13856460D01*
X4348746Y14126894D01*
X4655176Y14585499D01*
X4762780Y15126460D01*
X4655176Y15667421D01*
X4348746Y16126026D01*
X4175051Y16242085D01*
X4182100Y16242085D01*
X4239364Y16252860D01*
X4291502Y16252860D01*
X4334901Y16270836D01*
X4385918Y16280436D01*
X4436221Y16312805D01*
X4493650Y16336593D01*
X4530582Y16373525D01*
X4573112Y16400892D01*
X4605821Y16448764D01*
X4648368Y16491310D01*
X4669114Y16541395D01*
X4698694Y16584687D01*
X4709836Y16639707D01*
X4732100Y16693458D01*
X4732100Y16749651D01*
X4742875Y16802860D01*
X4742875Y18521460D01*
X6280325Y18521460D01*
X6280325Y17921460D01*
X6291100Y17864196D01*
X6291100Y17812058D01*
X6309077Y17768658D01*
X6318676Y17717642D01*
X6351043Y17667343D01*
X6374832Y17609910D01*
X6398282Y17586460D01*
X6374832Y17563010D01*
X6354086Y17512925D01*
X6324506Y17469633D01*
X6313364Y17414613D01*
X6291100Y17360862D01*
X6291100Y17304669D01*
X6280325Y17251460D01*
X6280325Y16651460D01*
X6291100Y16594196D01*
X6291100Y16542058D01*
X6309077Y16498658D01*
X6318676Y16447642D01*
X6351043Y16397343D01*
X6374832Y16339910D01*
X6398282Y16316460D01*
X6374832Y16293010D01*
X6354086Y16242925D01*
X6324506Y16199633D01*
X6313364Y16144613D01*
X6291100Y16090862D01*
X6291100Y16034669D01*
X6280325Y15981460D01*
X6280325Y15381460D01*
X6291100Y15324196D01*
X6291100Y15272058D01*
X6309077Y15228658D01*
X6318676Y15177642D01*
X6351043Y15127343D01*
X6374832Y15069910D01*
X6398282Y15046460D01*
X6374832Y15023010D01*
X6354086Y14972925D01*
X6324506Y14929633D01*
X6313364Y14874613D01*
X6291100Y14820862D01*
X6291100Y14764669D01*
X6280325Y14711460D01*
X6280325Y14111460D01*
X6291100Y14054196D01*
X6291100Y14002058D01*
X6309077Y13958658D01*
X6318676Y13907642D01*
X6351043Y13857343D01*
X6374832Y13799910D01*
X6411766Y13762977D01*
X6439132Y13720448D01*
X6487005Y13687738D01*
X6529550Y13645193D01*
X6579632Y13624448D01*
X6622927Y13594866D01*
X6677949Y13583724D01*
X6731698Y13561460D01*
X6787891Y13561460D01*
X6841100Y13550685D01*
X8391100Y13550685D01*
X8448364Y13561460D01*
X8500502Y13561460D01*
X8543901Y13579436D01*
X8594918Y13589036D01*
X8645221Y13621405D01*
X8702650Y13645193D01*
X8739582Y13682125D01*
X8782112Y13709492D01*
X8814821Y13757364D01*
X8857368Y13799910D01*
X8878114Y13849995D01*
X8907694Y13893287D01*
X8918836Y13948307D01*
X8941100Y14002058D01*
X8941100Y14058251D01*
X8951875Y14111460D01*
X8951875Y14711460D01*
X8941100Y14768724D01*
X8941100Y14820862D01*
X8923123Y14864262D01*
X8913524Y14915278D01*
X8881157Y14965577D01*
X8857368Y15023010D01*
X8833918Y15046460D01*
X8857368Y15069910D01*
X8878114Y15119995D01*
X8907694Y15163287D01*
X8918836Y15218307D01*
X8941100Y15272058D01*
X8941100Y15328251D01*
X8951875Y15381460D01*
X8951875Y15981460D01*
X8941100Y16038724D01*
X8941100Y16090862D01*
X8923123Y16134262D01*
X8913524Y16185278D01*
X8881157Y16235577D01*
X8857368Y16293010D01*
X8833918Y16316460D01*
X8857368Y16339910D01*
X8878114Y16389995D01*
X8907694Y16433287D01*
X8918836Y16488307D01*
X8941100Y16542058D01*
X8941100Y16598251D01*
X8951875Y16651460D01*
X8951875Y17251460D01*
X8941100Y17308724D01*
X8941100Y17360862D01*
X8923123Y17404262D01*
X8913524Y17455278D01*
X8881157Y17505577D01*
X8857368Y17563010D01*
X8833918Y17586460D01*
X8857368Y17609910D01*
X8878114Y17659995D01*
X8907694Y17703287D01*
X8918836Y17758307D01*
X8941100Y17812058D01*
X8941100Y17868251D01*
X8951875Y17921460D01*
X8951875Y18521460D01*
X11680325Y18521460D01*
X11680325Y17921460D01*
X11691100Y17864196D01*
X11691100Y17812058D01*
X11709077Y17768658D01*
X11718676Y17717642D01*
X11751043Y17667343D01*
X11774832Y17609910D01*
X11798282Y17586460D01*
X11774832Y17563010D01*
X11754086Y17512925D01*
X11724506Y17469633D01*
X11713364Y17414613D01*
X11691100Y17360862D01*
X11691100Y17304669D01*
X11680325Y17251460D01*
X11680325Y16651460D01*
X11691100Y16594196D01*
X11691100Y16542058D01*
X11709077Y16498658D01*
X11718676Y16447642D01*
X11751043Y16397343D01*
X11774832Y16339910D01*
X11798282Y16316460D01*
X11774832Y16293010D01*
X11754086Y16242925D01*
X11724506Y16199633D01*
X11713364Y16144613D01*
X11691100Y16090862D01*
X11691100Y16034669D01*
X11680325Y15981460D01*
X11680325Y15381460D01*
X11691100Y15324196D01*
X11691100Y15272058D01*
X11709077Y15228658D01*
X11718676Y15177642D01*
X11751043Y15127343D01*
X11774832Y15069910D01*
X11798282Y15046460D01*
X11774832Y15023010D01*
X11754086Y14972925D01*
X11724506Y14929633D01*
X11713364Y14874613D01*
X11691100Y14820862D01*
X11691100Y14764669D01*
X11680325Y14711460D01*
X11680325Y14111460D01*
X11691100Y14054196D01*
X11691100Y14002058D01*
X11709077Y13958658D01*
X11718676Y13907642D01*
X11751043Y13857343D01*
X11774832Y13799910D01*
X11811766Y13762977D01*
X11839132Y13720448D01*
X11887005Y13687738D01*
X11929550Y13645193D01*
X11979632Y13624448D01*
X12022927Y13594866D01*
X12077949Y13583724D01*
X12131698Y13561460D01*
X12187891Y13561460D01*
X12241100Y13550685D01*
X13791100Y13550685D01*
X13848364Y13561460D01*
X13900502Y13561460D01*
X13943901Y13579436D01*
X13994918Y13589036D01*
X14045221Y13621405D01*
X14102650Y13645193D01*
X14139582Y13682125D01*
X14182112Y13709492D01*
X14214821Y13757364D01*
X14257368Y13799910D01*
X14278114Y13849995D01*
X14307694Y13893287D01*
X14318836Y13948307D01*
X14341100Y14002058D01*
X14341100Y14058251D01*
X14351875Y14111460D01*
X14351875Y14711460D01*
X14341100Y14768724D01*
X14341100Y14820862D01*
X14323123Y14864262D01*
X14313524Y14915278D01*
X14281157Y14965577D01*
X14257368Y15023010D01*
X14233918Y15046460D01*
X14257368Y15069910D01*
X14278114Y15119995D01*
X14307694Y15163287D01*
X14318836Y15218307D01*
X14341100Y15272058D01*
X14341100Y15328251D01*
X14351875Y15381460D01*
X14351875Y15981460D01*
X14341100Y16038724D01*
X14341100Y16090862D01*
X14323123Y16134262D01*
X14313524Y16185278D01*
X14281157Y16235577D01*
X14257368Y16293010D01*
X14233918Y16316460D01*
X14257368Y16339910D01*
X14278114Y16389995D01*
X14307694Y16433287D01*
X14318836Y16488307D01*
X14341100Y16542058D01*
X14341100Y16598251D01*
X14351875Y16651460D01*
X14351875Y16815792D01*
X14716100Y16815792D01*
X14762028Y16586233D01*
X14892308Y16391724D01*
X15087107Y16261877D01*
X15316768Y16216460D01*
X29802488Y16232580D01*
X29917095Y16255510D01*
X30031430Y16278252D01*
X30031713Y16278441D01*
X30032047Y16278508D01*
X30129192Y16343575D01*
X30226084Y16408316D01*
X31170964Y17353196D01*
X31301028Y17547850D01*
X31346700Y17777460D01*
X31301028Y18007070D01*
X31170964Y18201724D01*
X30976310Y18331788D01*
X30746700Y18377460D01*
X30517090Y18331788D01*
X30322436Y18201724D01*
X29553016Y17432304D01*
X15315432Y17416460D01*
X15085873Y17370532D01*
X14891364Y17240252D01*
X14761517Y17045453D01*
X14716100Y16815792D01*
X14351875Y16815792D01*
X14351875Y17251460D01*
X14341100Y17308724D01*
X14341100Y17360862D01*
X14323123Y17404262D01*
X14313524Y17455278D01*
X14281157Y17505577D01*
X14257368Y17563010D01*
X14233918Y17586460D01*
X14257368Y17609910D01*
X14278114Y17659995D01*
X14307694Y17703287D01*
X14318836Y17758307D01*
X14341100Y17812058D01*
X14341100Y17868251D01*
X14351875Y17921460D01*
X14351875Y18521460D01*
X14341100Y18578724D01*
X14341100Y18630862D01*
X14323123Y18674262D01*
X14313524Y18725278D01*
X14281157Y18775577D01*
X14257368Y18833010D01*
X14220434Y18869943D01*
X14193068Y18912472D01*
X14145195Y18945182D01*
X14102650Y18987727D01*
X14052568Y19008472D01*
X14009273Y19038054D01*
X13954251Y19049196D01*
X13900502Y19071460D01*
X13844309Y19071460D01*
X13791100Y19082235D01*
X12241100Y19082235D01*
X12183836Y19071460D01*
X12131698Y19071460D01*
X12088299Y19053484D01*
X12037282Y19043884D01*
X11986979Y19011515D01*
X11929550Y18987727D01*
X11892618Y18950795D01*
X11850088Y18923428D01*
X11817379Y18875556D01*
X11774832Y18833010D01*
X11754086Y18782925D01*
X11724506Y18739633D01*
X11713364Y18684613D01*
X11691100Y18630862D01*
X11691100Y18574669D01*
X11680325Y18521460D01*
X8951875Y18521460D01*
X8941100Y18578724D01*
X8941100Y18630862D01*
X8923123Y18674262D01*
X8913524Y18725278D01*
X8881157Y18775577D01*
X8857368Y18833010D01*
X8820434Y18869943D01*
X8793068Y18912472D01*
X8745195Y18945182D01*
X8702650Y18987727D01*
X8652568Y19008472D01*
X8609273Y19038054D01*
X8554251Y19049196D01*
X8500502Y19071460D01*
X8444309Y19071460D01*
X8391100Y19082235D01*
X6841100Y19082235D01*
X6783836Y19071460D01*
X6731698Y19071460D01*
X6688299Y19053484D01*
X6637282Y19043884D01*
X6586979Y19011515D01*
X6529550Y18987727D01*
X6492618Y18950795D01*
X6450088Y18923428D01*
X6417379Y18875556D01*
X6374832Y18833010D01*
X6354086Y18782925D01*
X6324506Y18739633D01*
X6313364Y18684613D01*
X6291100Y18630862D01*
X6291100Y18574669D01*
X6280325Y18521460D01*
X4742875Y18521460D01*
X4742875Y18530060D01*
X4732100Y18587324D01*
X4732100Y18639462D01*
X4714123Y18682862D01*
X4704524Y18733878D01*
X4672157Y18784177D01*
X4648368Y18841610D01*
X4611434Y18878543D01*
X4584068Y18921072D01*
X4536195Y18953782D01*
X4493650Y18996327D01*
X4443568Y19017072D01*
X4400273Y19046654D01*
X4345251Y19057796D01*
X4291502Y19080060D01*
X4235309Y19080060D01*
X4182100Y19090835D01*
X2150100Y19090835D01*
X2092836Y19080060D01*
X2040698Y19080060D01*
X1997299Y19062084D01*
X1946282Y19052484D01*
X1895979Y19020115D01*
X1838550Y18996327D01*
X1801618Y18959395D01*
X1759088Y18932028D01*
X1726379Y18884156D01*
X1683832Y18841610D01*
X1663086Y18791525D01*
X1633506Y18748233D01*
X1622364Y18693213D01*
X1600100Y18639462D01*
X1600100Y18583269D01*
X1589325Y18530060D01*
X1589325Y16802860D01*
X1600100Y16745596D01*
X1600100Y16693458D01*
X1618077Y16650058D01*
X1627676Y16599042D01*
X1660043Y16548743D01*
X1683832Y16491310D01*
X1720766Y16454377D01*
X1748132Y16411848D01*
X1796005Y16379138D01*
X1838550Y16336593D01*
X1888632Y16315848D01*
X1931927Y16286266D01*
X1986949Y16275124D01*
X2040698Y16252860D01*
X2096891Y16252860D01*
X2150100Y16242085D01*
X2157149Y16242085D01*
X1983454Y16126026D01*
X1677024Y15667421D01*
X1569420Y15126460D01*
X841100Y15126460D01*
X841100Y19641460D01*
X39591100Y19641460D01*
X39591100Y16993140D01*
X39591100Y16993140D01*
G37*
X39591100Y16993140D02*
X39089339Y16993140D01*
X39089339Y19268980D01*
X31598862Y19268980D01*
X31598862Y16993140D01*
X31542412Y16993140D01*
X31542412Y15941462D01*
X31473122Y16045162D01*
X31270357Y16180645D01*
X31031180Y16228220D01*
X30792003Y16180645D01*
X30589238Y16045162D01*
X29878344Y15334268D01*
X15366410Y15341460D01*
X15127209Y15294003D01*
X14924377Y15158621D01*
X14788794Y14955923D01*
X14741100Y14716770D01*
X14788557Y14477569D01*
X14923939Y14274737D01*
X15126637Y14139154D01*
X15365790Y14091460D01*
X30136790Y14084140D01*
X30136945Y14084171D01*
X30137100Y14084140D01*
X30256927Y14107975D01*
X30375991Y14131597D01*
X30376121Y14131684D01*
X30376277Y14131715D01*
X30477706Y14199488D01*
X30578823Y14266979D01*
X30578911Y14267110D01*
X30579042Y14267198D01*
X31473122Y15161278D01*
X31542412Y15264978D01*
X31542412Y14093140D01*
X31842702Y14093140D01*
X31842702Y13947087D01*
X31726964Y14024421D01*
X31478220Y14073899D01*
X31229475Y14024421D01*
X31018600Y13883519D01*
X30381304Y13246223D01*
X15366976Y13266459D01*
X15118166Y13217317D01*
X14907101Y13076698D01*
X14765914Y12866013D01*
X14716101Y12617336D01*
X14765243Y12368526D01*
X14905862Y12157461D01*
X15116547Y12016274D01*
X15365224Y11966461D01*
X30649304Y11945861D01*
X30649744Y11945948D01*
X30650180Y11945861D01*
X30773837Y11970457D01*
X30898115Y11995003D01*
X30898487Y11995251D01*
X30898925Y11995338D01*
X31004034Y12065570D01*
X31109179Y12135622D01*
X31109427Y12135993D01*
X31109799Y12136241D01*
X31842702Y12869143D01*
X31842702Y12332240D01*
X31763392Y12332240D01*
X31763392Y11683636D01*
X31631388Y11657379D01*
X31412403Y11511057D01*
X30430169Y10528823D01*
X15368907Y10591454D01*
X15110384Y10541148D01*
X14890792Y10395738D01*
X14743561Y10177362D01*
X14691106Y9919267D01*
X14741412Y9660744D01*
X14886822Y9441152D01*
X15105198Y9293921D01*
X15363293Y9241466D01*
X30705793Y9177666D01*
X30707197Y9177939D01*
X30708600Y9177660D01*
X30836410Y9203083D01*
X30964316Y9227972D01*
X30965509Y9228762D01*
X30966912Y9229041D01*
X31075247Y9301428D01*
X31183908Y9373382D01*
X31184708Y9374569D01*
X31185897Y9375363D01*
X31763392Y9952858D01*
X31763392Y9432240D01*
X39591100Y9432240D01*
X39591100Y9380760D01*
X32868862Y9380760D01*
X32868862Y8322445D01*
X32823436Y8550819D01*
X32671695Y8777915D01*
X32444599Y8929656D01*
X32176720Y8982940D01*
X31908841Y8929656D01*
X31681745Y8777915D01*
X30769191Y7865361D01*
X15516150Y7866460D01*
X15248269Y7813195D01*
X15021161Y7661471D01*
X14869403Y7434385D01*
X14816100Y7166510D01*
X14869365Y6898629D01*
X15021089Y6671521D01*
X15248175Y6519763D01*
X15516050Y6466460D01*
X31059070Y6465340D01*
X31059095Y6465345D01*
X31059120Y6465340D01*
X31196810Y6492728D01*
X31326951Y6518605D01*
X31326971Y6518618D01*
X31326999Y6518624D01*
X31448302Y6599676D01*
X31554059Y6670329D01*
X31554073Y6670351D01*
X31554095Y6670365D01*
X32671695Y7787965D01*
X32823436Y8015061D01*
X32868862Y8243435D01*
X32868862Y6480760D01*
X39591100Y6480760D01*
X39591100Y6345460D01*
X33277397Y6345460D01*
X33233352Y6374890D01*
X32946340Y6431980D01*
X32659327Y6374890D01*
X32416010Y6212310D01*
X31660507Y5456807D01*
X15616551Y5466460D01*
X15329504Y5409543D01*
X15086089Y5247109D01*
X14923363Y5003890D01*
X14866100Y4716911D01*
X14923017Y4429864D01*
X15085451Y4186449D01*
X15328670Y4023723D01*
X15615649Y3966460D01*
X31970529Y3956620D01*
X31970755Y3956665D01*
X31970980Y3956620D01*
X32113777Y3985024D01*
X32257576Y4013537D01*
X32257768Y4013665D01*
X32257993Y4013710D01*
X32379830Y4095119D01*
X32500991Y4175971D01*
X32501119Y4176162D01*
X32501310Y4176290D01*
X32980622Y4655602D01*
X32980622Y4029951D01*
X32848015Y3941346D01*
X32168032Y3261362D01*
X15666347Y3266460D01*
X15360181Y3205659D01*
X15100590Y3032320D01*
X14927091Y2772835D01*
X14866100Y2466707D01*
X14926901Y2160541D01*
X15100240Y1900950D01*
X15359725Y1727451D01*
X15665853Y1666460D01*
X32499053Y1661260D01*
X32499179Y1661285D01*
X32499300Y1661261D01*
X32649832Y1691203D01*
X32805219Y1722061D01*
X32805325Y1722132D01*
X32805447Y1722156D01*
X32899342Y1784895D01*
X32899342Y891460D01*
X8385081Y891460D01*
X8380637Y912834D01*
X8383100Y938060D01*
X8378852Y952022D01*
X8387798Y997248D01*
X8408813Y1102895D01*
X8408755Y1103188D01*
X8408813Y1103483D01*
X8408720Y1191213D01*
X8408442Y1192604D01*
X8408710Y1193996D01*
X8408657Y1202721D01*
X8403553Y1227592D01*
X8406082Y1252854D01*
X8395628Y1360788D01*
X8376622Y1423811D01*
X8371884Y1458111D01*
X8423294Y1452269D01*
X8524768Y1460732D01*
X8585397Y1478137D01*
X8648070Y1485305D01*
X8742408Y1515548D01*
X8807578Y1551709D01*
X8876719Y1579546D01*
X8953429Y1629706D01*
X8986651Y1662274D01*
X9026324Y1686572D01*
X9083783Y1739660D01*
X9109370Y1774860D01*
X9142499Y1803071D01*
X9172441Y1861623D01*
X9211111Y1914821D01*
X9221280Y1957132D01*
X9241092Y1995875D01*
X9246347Y2061427D01*
X9261717Y2125376D01*
X9254920Y2168360D01*
X9258397Y2211733D01*
X9242251Y2261674D01*
X9261050Y2356184D01*
X9261050Y2472070D01*
X9259093Y2481906D01*
X9260699Y2491806D01*
X9258518Y2553098D01*
X9254017Y2572156D01*
X9255799Y2591657D01*
X9249394Y2652299D01*
X9239882Y2682878D01*
X9239138Y2714894D01*
X9229989Y2755888D01*
X9209352Y2802610D01*
X9198878Y2852599D01*
X9192208Y2868249D01*
X9159962Y2915460D01*
X9137067Y2967848D01*
X9088519Y3037551D01*
X9034510Y3089512D01*
X8987245Y3147673D01*
X8917097Y3205809D01*
X8854248Y3239792D01*
X8796547Y3281932D01*
X8714511Y3319996D01*
X8661454Y3332872D01*
X8611930Y3355865D01*
X8569140Y3366260D01*
X8515739Y3368502D01*
X8463856Y3381349D01*
X8361902Y3386081D01*
X8278354Y3373457D01*
X8194018Y3368165D01*
X8103173Y3344094D01*
X8057474Y3321715D01*
X8042918Y3327899D01*
X7972194Y3342631D01*
X7904025Y3366557D01*
X7802992Y3380919D01*
X7732747Y3377042D01*
X7662643Y3382942D01*
X7563490Y3371752D01*
X7495024Y3349916D01*
X7467534Y3345051D01*
X7433010Y3355599D01*
X7438353Y3360886D01*
X7440041Y3363384D01*
X7442540Y3365073D01*
X7511116Y3434393D01*
X7513199Y3437547D01*
X7516301Y3439705D01*
X7576799Y3502518D01*
X7579926Y3507394D01*
X7584614Y3510800D01*
X7632920Y3563059D01*
X7639067Y3573090D01*
X7648287Y3580396D01*
X7680287Y3618053D01*
X7701630Y3656388D01*
X7715405Y3671368D01*
X7726135Y3681807D01*
X7727129Y3684117D01*
X7731330Y3688685D01*
X7742911Y3707694D01*
X7766393Y3771857D01*
X7790106Y3811075D01*
X7794671Y3841050D01*
X7811743Y3880717D01*
X7811958Y3896360D01*
X7817335Y3911053D01*
X7814746Y3972867D01*
X7822709Y4025157D01*
X7814200Y4059695D01*
X7814715Y4097247D01*
X7814047Y4100864D01*
X7808836Y4113950D01*
X7808272Y4127414D01*
X7785346Y4176808D01*
X7770905Y4235419D01*
X7757122Y4264857D01*
X7742771Y4284364D01*
X7734974Y4307290D01*
X7705529Y4358221D01*
X7699379Y4365225D01*
X7696089Y4373943D01*
X7653828Y4441767D01*
X7649864Y4445992D01*
X7647706Y4451372D01*
X7595474Y4531487D01*
X7592182Y4534855D01*
X7590356Y4539196D01*
X7530999Y4627004D01*
X7529437Y4628549D01*
X7528572Y4630563D01*
X7511926Y4654782D01*
X7511924Y4654784D01*
X7474270Y4709684D01*
X7479926Y4724666D01*
X7492632Y4757109D01*
X7555587Y4768866D01*
X7694240Y4794263D01*
X7694927Y4794535D01*
X7695663Y4794526D01*
X7724571Y4799899D01*
X7728289Y4801385D01*
X7732294Y4801391D01*
X7815104Y4818000D01*
X7821423Y4820629D01*
X7828264Y4820806D01*
X7897922Y4836543D01*
X7907787Y4840931D01*
X7918562Y4841623D01*
X7968468Y4854925D01*
X7997559Y4869224D01*
X8011402Y4871741D01*
X8021420Y4872943D01*
X8023051Y4873860D01*
X8029453Y4875024D01*
X8053005Y4884329D01*
X8130165Y4934069D01*
X8134869Y4936713D01*
X8152115Y4945190D01*
X8171425Y4953690D01*
X8178822Y4961419D01*
X8210191Y4979052D01*
X8220708Y4992436D01*
X8235015Y5001659D01*
X8281251Y5068451D01*
X8321149Y5110141D01*
X8328932Y5130165D01*
X8343987Y5149324D01*
X8347928Y5157088D01*
X8351547Y5169998D01*
X8358270Y5179710D01*
X8370886Y5238096D01*
X8399604Y5311979D01*
X8406173Y5349267D01*
X8405855Y5363735D01*
X8406378Y5365600D01*
X8405688Y5371354D01*
X8405616Y5374618D01*
X8412632Y5398983D01*
X8417838Y5460800D01*
X8416687Y5471000D01*
X8419167Y5480962D01*
X8423005Y5561514D01*
X8422117Y5567442D01*
X8423441Y5573289D01*
X8425908Y5666786D01*
X8425166Y5671111D01*
X8426068Y5675404D01*
X8427160Y5776053D01*
X8426448Y5779848D01*
X8427191Y5783641D01*
X8426903Y5885650D01*
X8426103Y5889613D01*
X8426824Y5893592D01*
X8425152Y5991170D01*
X8424083Y5996101D01*
X8424893Y6001077D01*
X8421835Y6088432D01*
X8420068Y6095932D01*
X8421098Y6103568D01*
X8416648Y6174906D01*
X8412676Y6189917D01*
X8413900Y6205397D01*
X8408055Y6254927D01*
X8390739Y6308281D01*
X8383875Y6363955D01*
X8376631Y6385885D01*
X8369203Y6398998D01*
X8366562Y6413832D01*
X8346096Y6445839D01*
X8341208Y6460901D01*
X8330047Y6473978D01*
X8325347Y6488241D01*
X8305792Y6510946D01*
X8269902Y6574307D01*
X8258023Y6583578D01*
X8249905Y6596274D01*
X8205796Y6627050D01*
X8184028Y6652324D01*
X8144216Y6672402D01*
X8099191Y6707543D01*
X8084668Y6711563D01*
X8072310Y6720185D01*
X8064913Y6723425D01*
X8026133Y6731954D01*
X7990676Y6749836D01*
X7953881Y6760049D01*
X7941921Y6760940D01*
X7930994Y6765880D01*
X7868799Y6780324D01*
X7863624Y6780489D01*
X7858867Y6782535D01*
X7776234Y6800135D01*
X7772873Y6800180D01*
X7769771Y6801471D01*
X7671666Y6821150D01*
X7668891Y6821154D01*
X7666317Y6822196D01*
X7557701Y6842876D01*
X7556584Y6842867D01*
X7555546Y6843282D01*
X7496935Y6854201D01*
X7465663Y6860096D01*
X7458807Y6876161D01*
X7457697Y6878789D01*
X7510091Y6955542D01*
X7510092Y6955544D01*
X7543887Y7004961D01*
X7544703Y7006872D01*
X7546176Y7008335D01*
X7604952Y7095652D01*
X7606126Y7098460D01*
X7608262Y7100627D01*
X7658656Y7177260D01*
X7660225Y7181129D01*
X7663112Y7184146D01*
X7702435Y7245913D01*
X7705265Y7253197D01*
X7710508Y7258990D01*
X7736074Y7301715D01*
X7745671Y7328600D01*
X7762574Y7351600D01*
X7771693Y7371101D01*
X7784441Y7422955D01*
X7807282Y7471221D01*
X7810039Y7527081D01*
X7823390Y7581390D01*
X7815324Y7634174D01*
X7817956Y7687508D01*
X7799126Y7740171D01*
X7790678Y7795456D01*
X7763026Y7841137D01*
X7745048Y7891416D01*
X7738711Y7901994D01*
X7709087Y7934694D01*
X7687877Y7973384D01*
X7661372Y8004992D01*
X7652591Y8012044D01*
X7646788Y8021694D01*
X7603305Y8069530D01*
X7599390Y8072425D01*
X7596808Y8076555D01*
X7540339Y8136565D01*
X7537939Y8138277D01*
X7536350Y8140760D01*
X7470886Y8208891D01*
X7469068Y8210159D01*
X7467858Y8212018D01*
X7397390Y8284215D01*
X7395752Y8285339D01*
X7394657Y8286995D01*
X7323177Y8359207D01*
X7321423Y8360392D01*
X7320241Y8362152D01*
X7251741Y8430323D01*
X7249499Y8431814D01*
X7247977Y8434033D01*
X7186448Y8494112D01*
X7182944Y8496393D01*
X7180528Y8499808D01*
X7129963Y8547740D01*
X7122606Y8552376D01*
X7117367Y8559317D01*
X7081756Y8591048D01*
X7067538Y8599407D01*
X7065386Y8602262D01*
X7048028Y8612484D01*
X7027346Y8633757D01*
X7010681Y8645235D01*
X6942627Y8674553D01*
X6878787Y8712148D01*
X6844034Y8717028D01*
X6811802Y8730914D01*
X6737712Y8731958D01*
X6664340Y8742261D01*
X6630366Y8733471D01*
X6595273Y8733965D01*
X6526424Y8706576D01*
X6454694Y8688017D01*
X6445445Y8683554D01*
X6423570Y8667066D01*
X6397844Y8657650D01*
X6363875Y8636953D01*
X6358902Y8632380D01*
X6352614Y8629906D01*
X6297798Y8594681D01*
X6295632Y8592592D01*
X6292846Y8591461D01*
X6221133Y8544292D01*
X6219729Y8542908D01*
X6217905Y8542153D01*
X6133245Y8485618D01*
X6132106Y8484480D01*
X6130623Y8483856D01*
X6036965Y8420539D01*
X6036428Y8419996D01*
X6035725Y8419698D01*
X5948514Y8360395D01*
X5945512Y8361632D01*
X5925697Y8466742D01*
X5850148Y8867489D01*
X5828709Y8920751D01*
X5817508Y8977060D01*
X5788670Y9020219D01*
X5769286Y9068375D01*
X5729095Y9109379D01*
X5697199Y9157115D01*
X5654040Y9185953D01*
X5617703Y9223025D01*
X5564882Y9245527D01*
X5517144Y9277424D01*
X5466232Y9287551D01*
X5418476Y9307895D01*
X5361066Y9308470D01*
X5304755Y9319671D01*
X4470634Y9319671D01*
X4414323Y9308470D01*
X4356911Y9307895D01*
X4309155Y9287551D01*
X4258245Y9277424D01*
X4210507Y9245526D01*
X4157685Y9223024D01*
X4121350Y9185954D01*
X4078190Y9157115D01*
X4046292Y9109377D01*
X4006103Y9068374D01*
X3986720Y9020220D01*
X3957881Y8977060D01*
X3946680Y8920749D01*
X3925241Y8867488D01*
X3849694Y8466744D01*
X3849693Y8466742D01*
X3829878Y8361632D01*
X3829251Y8361374D01*
X3826876Y8360395D01*
X3739664Y8419698D01*
X3739184Y8419901D01*
X3738819Y8420271D01*
X3672630Y8465102D01*
X3671433Y8465606D01*
X3670517Y8466526D01*
X3582770Y8525371D01*
X3581137Y8526051D01*
X3579877Y8527299D01*
X3503907Y8577560D01*
X3501584Y8578510D01*
X3499786Y8580260D01*
X3439538Y8619355D01*
X3435017Y8621157D01*
X3431474Y8624489D01*
X3390894Y8649839D01*
X3372600Y8656767D01*
X3357451Y8669147D01*
X3340485Y8678170D01*
X3272648Y8698593D01*
X3208256Y8728107D01*
X3169893Y8729530D01*
X3133129Y8740598D01*
X3062642Y8733507D01*
X2991854Y8736132D01*
X2955865Y8722765D01*
X2917666Y8718922D01*
X2899590Y8709212D01*
X2895180Y8708666D01*
X2852013Y8684192D01*
X2788854Y8660733D01*
X2778435Y8654316D01*
X2752395Y8630138D01*
X2726899Y8616442D01*
X2722048Y8610505D01*
X2706801Y8601861D01*
X2675653Y8574973D01*
X2668666Y8566014D01*
X2659016Y8560016D01*
X2611880Y8515889D01*
X2609027Y8511909D01*
X2604912Y8509252D01*
X2545780Y8451939D01*
X2544094Y8449499D01*
X2541620Y8447864D01*
X2474487Y8381417D01*
X2473242Y8379575D01*
X2471398Y8378335D01*
X2400258Y8306805D01*
X2399153Y8305141D01*
X2397504Y8304016D01*
X2326351Y8231455D01*
X2325187Y8229675D01*
X2323439Y8228463D01*
X2256266Y8158922D01*
X2254805Y8156651D01*
X2252602Y8155092D01*
X2193404Y8092624D01*
X2191168Y8089075D01*
X2187783Y8086603D01*
X2140553Y8035260D01*
X2136028Y8027835D01*
X2129167Y8022493D01*
X2097900Y7986326D01*
X2080740Y7956111D01*
X2056180Y7931534D01*
X2044871Y7914596D01*
X2028832Y7875836D01*
X2003958Y7842067D01*
X1994712Y7804637D01*
X1990957Y7798025D01*
X1988802Y7780712D01*
X1987815Y7776714D01*
X1983919Y7767298D01*
X1974787Y7749339D01*
X1974393Y7744278D01*
X1962071Y7714501D01*
X1962086Y7672554D01*
X1952028Y7631836D01*
X1961022Y7572540D01*
X1957978Y7533442D01*
X1962140Y7520670D01*
X1962148Y7497951D01*
X1978213Y7459205D01*
X1984503Y7417735D01*
X1987134Y7410457D01*
X2010852Y7371178D01*
X2025069Y7327547D01*
X2043285Y7295084D01*
X2051631Y7285329D01*
X2056160Y7273317D01*
X2089425Y7219893D01*
X2093160Y7215910D01*
X2095185Y7210838D01*
X2140803Y7140638D01*
X2143257Y7138120D01*
X2144601Y7134873D01*
X2199875Y7052087D01*
X2201908Y7050053D01*
X2203035Y7047405D01*
X2265267Y6956220D01*
X2265851Y6955647D01*
X2266175Y6954893D01*
X2299357Y6906576D01*
X2317873Y6879289D01*
X2311496Y6864195D01*
X2309742Y6860087D01*
X2219508Y6843219D01*
X2219226Y6843106D01*
X2218922Y6843109D01*
X2162337Y6832468D01*
X2160460Y6831713D01*
X2158434Y6831720D01*
X2054576Y6811418D01*
X2051814Y6810285D01*
X2048828Y6810263D01*
X1958020Y6791514D01*
X1954293Y6789938D01*
X1950248Y6789851D01*
X1877453Y6773731D01*
X1870660Y6770744D01*
X1863251Y6770389D01*
X1813434Y6757975D01*
X1790253Y6747046D01*
X1764870Y6743489D01*
X1742992Y6735859D01*
X1656551Y6684989D01*
X1644010Y6678096D01*
X1617563Y6665627D01*
X1616726Y6664706D01*
X1603503Y6658888D01*
X1597327Y6652437D01*
X1568672Y6636687D01*
X1563495Y6630226D01*
X1556361Y6626028D01*
X1498136Y6548827D01*
X1453751Y6502465D01*
X1446801Y6484594D01*
X1433261Y6467697D01*
X1429331Y6460133D01*
X1428133Y6456010D01*
X1425966Y6453137D01*
X1415034Y6410938D01*
X1405809Y6379194D01*
X1375258Y6300641D01*
X1368741Y6263682D01*
X1368985Y6252485D01*
X1368898Y6252186D01*
X1369014Y6251130D01*
X1369300Y6238005D01*
X1362217Y6213313D01*
X1357095Y6151757D01*
X1358264Y6141486D01*
X1355780Y6131453D01*
X1352052Y6051092D01*
X1352951Y6045141D01*
X1351630Y6039271D01*
X1349291Y5945895D01*
X1350040Y5941563D01*
X1349142Y5937260D01*
X1348188Y5836662D01*
X1348906Y5832864D01*
X1348168Y5829071D01*
X1348596Y5727044D01*
X1349400Y5723091D01*
X1348686Y5719122D01*
X1350490Y5621457D01*
X1351564Y5616534D01*
X1350761Y5611559D01*
X1353940Y5524048D01*
X1355706Y5516595D01*
X1354691Y5509004D01*
X1359238Y5437439D01*
X1363191Y5422569D01*
X1361988Y5407228D01*
X1367901Y5357400D01*
X1384888Y5305176D01*
X1391409Y5250652D01*
X1398684Y5228355D01*
X1425275Y5181010D01*
X1431552Y5161712D01*
X1435589Y5147259D01*
X1459778Y5116418D01*
X1487930Y5060141D01*
X1498121Y5051306D01*
X1504726Y5039546D01*
X1544758Y5008067D01*
X1569230Y4976865D01*
X1611364Y4953131D01*
X1651552Y4918290D01*
X1655966Y4915775D01*
X1666655Y4912214D01*
X1674952Y4905690D01*
X1716076Y4894146D01*
X1757905Y4870584D01*
X1790828Y4859796D01*
X1810849Y4857376D01*
X1829083Y4848764D01*
X1886195Y4834491D01*
X1895043Y4834061D01*
X1903166Y4830532D01*
X1977865Y4814337D01*
X1984255Y4814227D01*
X1990176Y4811813D01*
X2075862Y4795258D01*
X2078817Y4795274D01*
X2081562Y4794188D01*
X2110313Y4788944D01*
X2242044Y4764753D01*
X2282755Y4757108D01*
X2298609Y4716475D01*
X2301152Y4709711D01*
X2246637Y4630301D01*
X2246503Y4629988D01*
X2246258Y4629749D01*
X2229840Y4605773D01*
X2228818Y4603383D01*
X2226979Y4601552D01*
X2169242Y4515548D01*
X2167531Y4511442D01*
X2164429Y4508255D01*
X2114532Y4431339D01*
X2112373Y4425919D01*
X2108391Y4421655D01*
X2069182Y4358389D01*
X2065535Y4348656D01*
X2058726Y4340802D01*
X2033052Y4295746D01*
X2022179Y4263111D01*
X2016473Y4254614D01*
X2007697Y4243128D01*
X2007001Y4240510D01*
X2003002Y4234555D01*
X1993711Y4212272D01*
X1976098Y4124796D01*
X1974324Y4119472D01*
X1960010Y4080953D01*
X1960570Y4065786D01*
X1952081Y4033842D01*
X1954358Y4016818D01*
X1950968Y3999982D01*
X1965780Y3924596D01*
X1967996Y3864550D01*
X1977498Y3843809D01*
X1980789Y3819203D01*
X1982791Y3813345D01*
X1990122Y3800708D01*
X1992718Y3787495D01*
X2026744Y3736313D01*
X2058188Y3667676D01*
X2079057Y3638808D01*
X2089862Y3628772D01*
X2091452Y3626031D01*
X2098164Y3620902D01*
X2110829Y3598864D01*
X2152001Y3551725D01*
X2160206Y3545403D01*
X2165693Y3536618D01*
X2224221Y3474378D01*
X2229360Y3470711D01*
X2232823Y3465433D01*
X2305758Y3391267D01*
X2309769Y3388538D01*
X2312499Y3384529D01*
X2325409Y3371845D01*
X2312603Y3372223D01*
X2242685Y3383984D01*
X2154636Y3381368D01*
X2079528Y3364094D01*
X2076588Y3363765D01*
X2023752Y3376464D01*
X1968571Y3378646D01*
X1957567Y3376906D01*
X1946642Y3379079D01*
X1854734Y3379079D01*
X1656272Y3339602D01*
X1649950Y3341015D01*
X1571409Y3366543D01*
X1462834Y3379404D01*
X1421807Y3376179D01*
X1381226Y3383017D01*
X1340205Y3381810D01*
X1300885Y3372779D01*
X1260553Y3373688D01*
X1176429Y3358918D01*
X1099084Y3328905D01*
X1019275Y3306193D01*
X950487Y3270939D01*
X889367Y3222521D01*
X841100Y3192347D01*
X841100Y15126460D01*
X1569420Y15126460D01*
X1677024Y14585499D01*
X1983454Y14126894D01*
X2388187Y13856460D01*
X1983454Y13586026D01*
X1677024Y13127421D01*
X1569420Y12586460D01*
X1677024Y12045499D01*
X1983454Y11586894D01*
X2442059Y11280464D01*
X2859921Y11197346D01*
X2963700Y11172860D01*
X3368500Y11172860D01*
X3472279Y11197346D01*
X3890141Y11280464D01*
X4348746Y11586894D01*
X4598020Y11959960D01*
X6764325Y11959960D01*
X6764325Y10259960D01*
X6775100Y10202696D01*
X6775100Y10150558D01*
X6793077Y10107158D01*
X6802676Y10056142D01*
X6835043Y10005843D01*
X6858832Y9948410D01*
X6895766Y9911477D01*
X6923132Y9868948D01*
X6971005Y9836238D01*
X7013550Y9793693D01*
X7063632Y9772948D01*
X7106927Y9743366D01*
X7161949Y9732224D01*
X7215698Y9709960D01*
X7271891Y9709960D01*
X7325100Y9699185D01*
X9325100Y9699185D01*
X9382364Y9709960D01*
X9434502Y9709960D01*
X9477901Y9727936D01*
X9528918Y9737536D01*
X9579221Y9769905D01*
X9636650Y9793693D01*
X9673582Y9830625D01*
X9716112Y9857992D01*
X9748821Y9905864D01*
X9791368Y9948410D01*
X9812114Y9998495D01*
X9841694Y10041787D01*
X9852836Y10096807D01*
X9875100Y10150558D01*
X9875100Y10206751D01*
X9885875Y10259960D01*
X9885875Y11959960D01*
X10764325Y11959960D01*
X10764325Y10259960D01*
X10775100Y10202696D01*
X10775100Y10150558D01*
X10793077Y10107158D01*
X10802676Y10056142D01*
X10835043Y10005843D01*
X10858832Y9948410D01*
X10895766Y9911477D01*
X10923132Y9868948D01*
X10971005Y9836238D01*
X11013550Y9793693D01*
X11063632Y9772948D01*
X11106927Y9743366D01*
X11161949Y9732224D01*
X11215698Y9709960D01*
X11271891Y9709960D01*
X11325100Y9699185D01*
X13325100Y9699185D01*
X13382364Y9709960D01*
X13434502Y9709960D01*
X13477901Y9727936D01*
X13528918Y9737536D01*
X13579221Y9769905D01*
X13636650Y9793693D01*
X13673582Y9830625D01*
X13716112Y9857992D01*
X13748821Y9905864D01*
X13791368Y9948410D01*
X13812114Y9998495D01*
X13841694Y10041787D01*
X13852836Y10096807D01*
X13875100Y10150558D01*
X13875100Y10206751D01*
X13885875Y10259960D01*
X13885875Y11959960D01*
X13875100Y12017224D01*
X13875100Y12069362D01*
X13857123Y12112762D01*
X13847524Y12163778D01*
X13815157Y12214077D01*
X13791368Y12271510D01*
X13754434Y12308443D01*
X13727068Y12350972D01*
X13679195Y12383682D01*
X13636650Y12426227D01*
X13586568Y12446972D01*
X13543273Y12476554D01*
X13488251Y12487696D01*
X13434502Y12509960D01*
X13378309Y12509960D01*
X13325100Y12520735D01*
X11325100Y12520735D01*
X11267836Y12509960D01*
X11215698Y12509960D01*
X11172299Y12491984D01*
X11121282Y12482384D01*
X11070979Y12450015D01*
X11013550Y12426227D01*
X10976618Y12389295D01*
X10934088Y12361928D01*
X10901379Y12314056D01*
X10858832Y12271510D01*
X10838086Y12221425D01*
X10808506Y12178133D01*
X10797364Y12123113D01*
X10775100Y12069362D01*
X10775100Y12013169D01*
X10764325Y11959960D01*
X9885875Y11959960D01*
X9875100Y12017224D01*
X9875100Y12069362D01*
X9857123Y12112762D01*
X9847524Y12163778D01*
X9815157Y12214077D01*
X9791368Y12271510D01*
X9754434Y12308443D01*
X9727068Y12350972D01*
X9679195Y12383682D01*
X9636650Y12426227D01*
X9586568Y12446972D01*
X9543273Y12476554D01*
X9488251Y12487696D01*
X9434502Y12509960D01*
X9378309Y12509960D01*
X9325100Y12520735D01*
X7325100Y12520735D01*
X7267836Y12509960D01*
X7215698Y12509960D01*
X7172299Y12491984D01*
X7121282Y12482384D01*
X7070979Y12450015D01*
X7013550Y12426227D01*
X6976618Y12389295D01*
X6934088Y12361928D01*
X6901379Y12314056D01*
X6858832Y12271510D01*
X6838086Y12221425D01*
X6808506Y12178133D01*
X6797364Y12123113D01*
X6775100Y12069362D01*
X6775100Y12013169D01*
X6764325Y11959960D01*
X4598020Y11959960D01*
X4655176Y12045499D01*
X4762780Y12586460D01*
X4655176Y13127421D01*
X4348746Y13586026D01*
X3944013Y13856460D01*
X4348746Y14126894D01*
X4655176Y14585499D01*
X4762780Y15126460D01*
X4655176Y15667421D01*
X4348746Y16126026D01*
X4175051Y16242085D01*
X4182100Y16242085D01*
X4239364Y16252860D01*
X4291502Y16252860D01*
X4334901Y16270836D01*
X4385918Y16280436D01*
X4436221Y16312805D01*
X4493650Y16336593D01*
X4530582Y16373525D01*
X4573112Y16400892D01*
X4605821Y16448764D01*
X4648368Y16491310D01*
X4669114Y16541395D01*
X4698694Y16584687D01*
X4709836Y16639707D01*
X4732100Y16693458D01*
X4732100Y16749651D01*
X4742875Y16802860D01*
X4742875Y18521460D01*
X6280325Y18521460D01*
X6280325Y17921460D01*
X6291100Y17864196D01*
X6291100Y17812058D01*
X6309077Y17768658D01*
X6318676Y17717642D01*
X6351043Y17667343D01*
X6374832Y17609910D01*
X6398282Y17586460D01*
X6374832Y17563010D01*
X6354086Y17512925D01*
X6324506Y17469633D01*
X6313364Y17414613D01*
X6291100Y17360862D01*
X6291100Y17304669D01*
X6280325Y17251460D01*
X6280325Y16651460D01*
X6291100Y16594196D01*
X6291100Y16542058D01*
X6309077Y16498658D01*
X6318676Y16447642D01*
X6351043Y16397343D01*
X6374832Y16339910D01*
X6398282Y16316460D01*
X6374832Y16293010D01*
X6354086Y16242925D01*
X6324506Y16199633D01*
X6313364Y16144613D01*
X6291100Y16090862D01*
X6291100Y16034669D01*
X6280325Y15981460D01*
X6280325Y15381460D01*
X6291100Y15324196D01*
X6291100Y15272058D01*
X6309077Y15228658D01*
X6318676Y15177642D01*
X6351043Y15127343D01*
X6374832Y15069910D01*
X6398282Y15046460D01*
X6374832Y15023010D01*
X6354086Y14972925D01*
X6324506Y14929633D01*
X6313364Y14874613D01*
X6291100Y14820862D01*
X6291100Y14764669D01*
X6280325Y14711460D01*
X6280325Y14111460D01*
X6291100Y14054196D01*
X6291100Y14002058D01*
X6309077Y13958658D01*
X6318676Y13907642D01*
X6351043Y13857343D01*
X6374832Y13799910D01*
X6411766Y13762977D01*
X6439132Y13720448D01*
X6487005Y13687738D01*
X6529550Y13645193D01*
X6579632Y13624448D01*
X6622927Y13594866D01*
X6677949Y13583724D01*
X6731698Y13561460D01*
X6787891Y13561460D01*
X6841100Y13550685D01*
X8391100Y13550685D01*
X8448364Y13561460D01*
X8500502Y13561460D01*
X8543901Y13579436D01*
X8594918Y13589036D01*
X8645221Y13621405D01*
X8702650Y13645193D01*
X8739582Y13682125D01*
X8782112Y13709492D01*
X8814821Y13757364D01*
X8857368Y13799910D01*
X8878114Y13849995D01*
X8907694Y13893287D01*
X8918836Y13948307D01*
X8941100Y14002058D01*
X8941100Y14058251D01*
X8951875Y14111460D01*
X8951875Y14711460D01*
X8941100Y14768724D01*
X8941100Y14820862D01*
X8923123Y14864262D01*
X8913524Y14915278D01*
X8881157Y14965577D01*
X8857368Y15023010D01*
X8833918Y15046460D01*
X8857368Y15069910D01*
X8878114Y15119995D01*
X8907694Y15163287D01*
X8918836Y15218307D01*
X8941100Y15272058D01*
X8941100Y15328251D01*
X8951875Y15381460D01*
X8951875Y15981460D01*
X8941100Y16038724D01*
X8941100Y16090862D01*
X8923123Y16134262D01*
X8913524Y16185278D01*
X8881157Y16235577D01*
X8857368Y16293010D01*
X8833918Y16316460D01*
X8857368Y16339910D01*
X8878114Y16389995D01*
X8907694Y16433287D01*
X8918836Y16488307D01*
X8941100Y16542058D01*
X8941100Y16598251D01*
X8951875Y16651460D01*
X8951875Y17251460D01*
X8941100Y17308724D01*
X8941100Y17360862D01*
X8923123Y17404262D01*
X8913524Y17455278D01*
X8881157Y17505577D01*
X8857368Y17563010D01*
X8833918Y17586460D01*
X8857368Y17609910D01*
X8878114Y17659995D01*
X8907694Y17703287D01*
X8918836Y17758307D01*
X8941100Y17812058D01*
X8941100Y17868251D01*
X8951875Y17921460D01*
X8951875Y18521460D01*
X11680325Y18521460D01*
X11680325Y17921460D01*
X11691100Y17864196D01*
X11691100Y17812058D01*
X11709077Y17768658D01*
X11718676Y17717642D01*
X11751043Y17667343D01*
X11774832Y17609910D01*
X11798282Y17586460D01*
X11774832Y17563010D01*
X11754086Y17512925D01*
X11724506Y17469633D01*
X11713364Y17414613D01*
X11691100Y17360862D01*
X11691100Y17304669D01*
X11680325Y17251460D01*
X11680325Y16651460D01*
X11691100Y16594196D01*
X11691100Y16542058D01*
X11709077Y16498658D01*
X11718676Y16447642D01*
X11751043Y16397343D01*
X11774832Y16339910D01*
X11798282Y16316460D01*
X11774832Y16293010D01*
X11754086Y16242925D01*
X11724506Y16199633D01*
X11713364Y16144613D01*
X11691100Y16090862D01*
X11691100Y16034669D01*
X11680325Y15981460D01*
X11680325Y15381460D01*
X11691100Y15324196D01*
X11691100Y15272058D01*
X11709077Y15228658D01*
X11718676Y15177642D01*
X11751043Y15127343D01*
X11774832Y15069910D01*
X11798282Y15046460D01*
X11774832Y15023010D01*
X11754086Y14972925D01*
X11724506Y14929633D01*
X11713364Y14874613D01*
X11691100Y14820862D01*
X11691100Y14764669D01*
X11680325Y14711460D01*
X11680325Y14111460D01*
X11691100Y14054196D01*
X11691100Y14002058D01*
X11709077Y13958658D01*
X11718676Y13907642D01*
X11751043Y13857343D01*
X11774832Y13799910D01*
X11811766Y13762977D01*
X11839132Y13720448D01*
X11887005Y13687738D01*
X11929550Y13645193D01*
X11979632Y13624448D01*
X12022927Y13594866D01*
X12077949Y13583724D01*
X12131698Y13561460D01*
X12187891Y13561460D01*
X12241100Y13550685D01*
X13791100Y13550685D01*
X13848364Y13561460D01*
X13900502Y13561460D01*
X13943901Y13579436D01*
X13994918Y13589036D01*
X14045221Y13621405D01*
X14102650Y13645193D01*
X14139582Y13682125D01*
X14182112Y13709492D01*
X14214821Y13757364D01*
X14257368Y13799910D01*
X14278114Y13849995D01*
X14307694Y13893287D01*
X14318836Y13948307D01*
X14341100Y14002058D01*
X14341100Y14058251D01*
X14351875Y14111460D01*
X14351875Y14711460D01*
X14341100Y14768724D01*
X14341100Y14820862D01*
X14323123Y14864262D01*
X14313524Y14915278D01*
X14281157Y14965577D01*
X14257368Y15023010D01*
X14233918Y15046460D01*
X14257368Y15069910D01*
X14278114Y15119995D01*
X14307694Y15163287D01*
X14318836Y15218307D01*
X14341100Y15272058D01*
X14341100Y15328251D01*
X14351875Y15381460D01*
X14351875Y15981460D01*
X14341100Y16038724D01*
X14341100Y16090862D01*
X14323123Y16134262D01*
X14313524Y16185278D01*
X14281157Y16235577D01*
X14257368Y16293010D01*
X14233918Y16316460D01*
X14257368Y16339910D01*
X14278114Y16389995D01*
X14307694Y16433287D01*
X14318836Y16488307D01*
X14341100Y16542058D01*
X14341100Y16598251D01*
X14351875Y16651460D01*
X14351875Y16815792D01*
X14716100Y16815792D01*
X14762028Y16586233D01*
X14892308Y16391724D01*
X15087107Y16261877D01*
X15316768Y16216460D01*
X29802488Y16232580D01*
X29917095Y16255510D01*
X30031430Y16278252D01*
X30031713Y16278441D01*
X30032047Y16278508D01*
X30129192Y16343575D01*
X30226084Y16408316D01*
X31170964Y17353196D01*
X31301028Y17547850D01*
X31346700Y17777460D01*
X31301028Y18007070D01*
X31170964Y18201724D01*
X30976310Y18331788D01*
X30746700Y18377460D01*
X30517090Y18331788D01*
X30322436Y18201724D01*
X29553016Y17432304D01*
X15315432Y17416460D01*
X15085873Y17370532D01*
X14891364Y17240252D01*
X14761517Y17045453D01*
X14716100Y16815792D01*
X14351875Y16815792D01*
X14351875Y17251460D01*
X14341100Y17308724D01*
X14341100Y17360862D01*
X14323123Y17404262D01*
X14313524Y17455278D01*
X14281157Y17505577D01*
X14257368Y17563010D01*
X14233918Y17586460D01*
X14257368Y17609910D01*
X14278114Y17659995D01*
X14307694Y17703287D01*
X14318836Y17758307D01*
X14341100Y17812058D01*
X14341100Y17868251D01*
X14351875Y17921460D01*
X14351875Y18521460D01*
X14341100Y18578724D01*
X14341100Y18630862D01*
X14323123Y18674262D01*
X14313524Y18725278D01*
X14281157Y18775577D01*
X14257368Y18833010D01*
X14220434Y18869943D01*
X14193068Y18912472D01*
X14145195Y18945182D01*
X14102650Y18987727D01*
X14052568Y19008472D01*
X14009273Y19038054D01*
X13954251Y19049196D01*
X13900502Y19071460D01*
X13844309Y19071460D01*
X13791100Y19082235D01*
X12241100Y19082235D01*
X12183836Y19071460D01*
X12131698Y19071460D01*
X12088299Y19053484D01*
X12037282Y19043884D01*
X11986979Y19011515D01*
X11929550Y18987727D01*
X11892618Y18950795D01*
X11850088Y18923428D01*
X11817379Y18875556D01*
X11774832Y18833010D01*
X11754086Y18782925D01*
X11724506Y18739633D01*
X11713364Y18684613D01*
X11691100Y18630862D01*
X11691100Y18574669D01*
X11680325Y18521460D01*
X8951875Y18521460D01*
X8941100Y18578724D01*
X8941100Y18630862D01*
X8923123Y18674262D01*
X8913524Y18725278D01*
X8881157Y18775577D01*
X8857368Y18833010D01*
X8820434Y18869943D01*
X8793068Y18912472D01*
X8745195Y18945182D01*
X8702650Y18987727D01*
X8652568Y19008472D01*
X8609273Y19038054D01*
X8554251Y19049196D01*
X8500502Y19071460D01*
X8444309Y19071460D01*
X8391100Y19082235D01*
X6841100Y19082235D01*
X6783836Y19071460D01*
X6731698Y19071460D01*
X6688299Y19053484D01*
X6637282Y19043884D01*
X6586979Y19011515D01*
X6529550Y18987727D01*
X6492618Y18950795D01*
X6450088Y18923428D01*
X6417379Y18875556D01*
X6374832Y18833010D01*
X6354086Y18782925D01*
X6324506Y18739633D01*
X6313364Y18684613D01*
X6291100Y18630862D01*
X6291100Y18574669D01*
X6280325Y18521460D01*
X4742875Y18521460D01*
X4742875Y18530060D01*
X4732100Y18587324D01*
X4732100Y18639462D01*
X4714123Y18682862D01*
X4704524Y18733878D01*
X4672157Y18784177D01*
X4648368Y18841610D01*
X4611434Y18878543D01*
X4584068Y18921072D01*
X4536195Y18953782D01*
X4493650Y18996327D01*
X4443568Y19017072D01*
X4400273Y19046654D01*
X4345251Y19057796D01*
X4291502Y19080060D01*
X4235309Y19080060D01*
X4182100Y19090835D01*
X2150100Y19090835D01*
X2092836Y19080060D01*
X2040698Y19080060D01*
X1997299Y19062084D01*
X1946282Y19052484D01*
X1895979Y19020115D01*
X1838550Y18996327D01*
X1801618Y18959395D01*
X1759088Y18932028D01*
X1726379Y18884156D01*
X1683832Y18841610D01*
X1663086Y18791525D01*
X1633506Y18748233D01*
X1622364Y18693213D01*
X1600100Y18639462D01*
X1600100Y18583269D01*
X1589325Y18530060D01*
X1589325Y16802860D01*
X1600100Y16745596D01*
X1600100Y16693458D01*
X1618077Y16650058D01*
X1627676Y16599042D01*
X1660043Y16548743D01*
X1683832Y16491310D01*
X1720766Y16454377D01*
X1748132Y16411848D01*
X1796005Y16379138D01*
X1838550Y16336593D01*
X1888632Y16315848D01*
X1931927Y16286266D01*
X1986949Y16275124D01*
X2040698Y16252860D01*
X2096891Y16252860D01*
X2150100Y16242085D01*
X2157149Y16242085D01*
X1983454Y16126026D01*
X1677024Y15667421D01*
X1569420Y15126460D01*
X841100Y15126460D01*
X841100Y19641460D01*
X39591100Y19641460D01*
X39591100Y16993140D01*
G36*
X39591100Y3216180D02*
X34181977Y3216180D01*
X34213699Y3375660D01*
X34199815Y3445460D01*
X39591100Y3445460D01*
X39591100Y3216180D01*
X39591100Y3216180D01*
G37*
X39591100Y3216180D02*
X34181977Y3216180D01*
X34213699Y3375660D01*
X34199815Y3445460D01*
X39591100Y3445460D01*
X39591100Y3216180D01*
G36*
X4900213Y4267800D02*
X4900953Y4266688D01*
X4901217Y4265375D01*
X4952763Y4141782D01*
X4953467Y4140733D01*
X4953722Y4139498D01*
X5005909Y4015923D01*
X5006649Y4014832D01*
X5006921Y4013542D01*
X5058122Y3893862D01*
X5058977Y3892614D01*
X5059297Y3891135D01*
X5107882Y3779229D01*
X5108975Y3777652D01*
X5109394Y3775778D01*
X5153733Y3675522D01*
X5155319Y3673266D01*
X5155948Y3670578D01*
X5194412Y3585851D01*
X5197123Y3582074D01*
X5198256Y3577566D01*
X5229216Y3512246D01*
X5235320Y3504030D01*
X5238174Y3494200D01*
X5260001Y3452163D01*
X5288006Y3417194D01*
X5307214Y3376720D01*
X5318277Y3361844D01*
X5325251Y3355540D01*
X5280689Y3334883D01*
X5230712Y3323423D01*
X5209877Y3314075D01*
X5159452Y3333354D01*
X5110605Y3341680D01*
X5064660Y3360233D01*
X5001380Y3372234D01*
X4957626Y3371843D01*
X4914993Y3381692D01*
X4836465Y3384102D01*
X4809658Y3379620D01*
X4782712Y3383146D01*
X4711213Y3378404D01*
X4662938Y3365429D01*
X4613011Y3362969D01*
X4516501Y3338780D01*
X4436317Y3300842D01*
X4374229Y3276755D01*
X4397247Y3304770D01*
X4438486Y3338167D01*
X4439357Y3339772D01*
X4440770Y3340931D01*
X4448756Y3350661D01*
X4474458Y3398740D01*
X4509065Y3440859D01*
X4528898Y3477910D01*
X4532529Y3489854D01*
X4540016Y3499837D01*
X4569311Y3560923D01*
X4570611Y3565997D01*
X4573674Y3570243D01*
X4610798Y3651487D01*
X4611485Y3654392D01*
X4613206Y3656831D01*
X4656531Y3754356D01*
X4656977Y3756336D01*
X4658134Y3758001D01*
X4706029Y3867932D01*
X4706360Y3869452D01*
X4707240Y3870733D01*
X4758077Y3989193D01*
X4758353Y3990495D01*
X4759103Y3991598D01*
X4811251Y4114708D01*
X4811506Y4115940D01*
X4812206Y4116979D01*
X4864035Y4240865D01*
X4864293Y4242139D01*
X4865015Y4243222D01*
X4887711Y4298180D01*
X4900213Y4267800D01*
X4900213Y4267800D01*
G37*
X4900213Y4267800D02*
X4900953Y4266688D01*
X4901217Y4265375D01*
X4952763Y4141782D01*
X4953467Y4140733D01*
X4953722Y4139498D01*
X5005909Y4015923D01*
X5006649Y4014832D01*
X5006921Y4013542D01*
X5058122Y3893862D01*
X5058977Y3892614D01*
X5059297Y3891135D01*
X5107882Y3779229D01*
X5108975Y3777652D01*
X5109394Y3775778D01*
X5153733Y3675522D01*
X5155319Y3673266D01*
X5155948Y3670578D01*
X5194412Y3585851D01*
X5197123Y3582074D01*
X5198256Y3577566D01*
X5229216Y3512246D01*
X5235320Y3504030D01*
X5238174Y3494200D01*
X5260001Y3452163D01*
X5288006Y3417194D01*
X5307214Y3376720D01*
X5318277Y3361844D01*
X5325251Y3355540D01*
X5280689Y3334883D01*
X5230712Y3323423D01*
X5209877Y3314075D01*
X5159452Y3333354D01*
X5110605Y3341680D01*
X5064660Y3360233D01*
X5001380Y3372234D01*
X4957626Y3371843D01*
X4914993Y3381692D01*
X4836465Y3384102D01*
X4809658Y3379620D01*
X4782712Y3383146D01*
X4711213Y3378404D01*
X4662938Y3365429D01*
X4613011Y3362969D01*
X4516501Y3338780D01*
X4436317Y3300842D01*
X4374229Y3276755D01*
X4397247Y3304770D01*
X4438486Y3338167D01*
X4439357Y3339772D01*
X4440770Y3340931D01*
X4448756Y3350661D01*
X4474458Y3398740D01*
X4509065Y3440859D01*
X4528898Y3477910D01*
X4532529Y3489854D01*
X4540016Y3499837D01*
X4569311Y3560923D01*
X4570611Y3565997D01*
X4573674Y3570243D01*
X4610798Y3651487D01*
X4611485Y3654392D01*
X4613206Y3656831D01*
X4656531Y3754356D01*
X4656977Y3756336D01*
X4658134Y3758001D01*
X4706029Y3867932D01*
X4706360Y3869452D01*
X4707240Y3870733D01*
X4758077Y3989193D01*
X4758353Y3990495D01*
X4759103Y3991598D01*
X4811251Y4114708D01*
X4811506Y4115940D01*
X4812206Y4116979D01*
X4864035Y4240865D01*
X4864293Y4242139D01*
X4865015Y4243222D01*
X4887711Y4298180D01*
X4900213Y4267800D01*
G36*
X4951191Y6049952D02*
X4997030Y6033684D01*
X5039252Y6009226D01*
X5077131Y5976469D01*
X5114128Y5929399D01*
X5136314Y5880509D01*
X5146233Y5837652D01*
X5147688Y5793157D01*
X5140346Y5746920D01*
X5123544Y5700016D01*
X5096667Y5653980D01*
X5058902Y5610241D01*
X4984124Y5550384D01*
X4941835Y5520584D01*
X4930099Y5508251D01*
X4914983Y5500419D01*
X4887831Y5478714D01*
X4853034Y5505849D01*
X4837379Y5513722D01*
X4825125Y5526248D01*
X4776482Y5559528D01*
X4715320Y5610002D01*
X4678448Y5653794D01*
X4650261Y5702558D01*
X4633177Y5749914D01*
X4626953Y5788969D01*
X4629014Y5831866D01*
X4638364Y5874613D01*
X4654229Y5915402D01*
X4673434Y5945618D01*
X4719027Y5995271D01*
X4769819Y6029547D01*
X4811533Y6047097D01*
X4856329Y6056546D01*
X4903513Y6057616D01*
X4951191Y6049952D01*
X4951191Y6049952D01*
G37*
X4951191Y6049952D02*
X4997030Y6033684D01*
X5039252Y6009226D01*
X5077131Y5976469D01*
X5114128Y5929399D01*
X5136314Y5880509D01*
X5146233Y5837652D01*
X5147688Y5793157D01*
X5140346Y5746920D01*
X5123544Y5700016D01*
X5096667Y5653980D01*
X5058902Y5610241D01*
X4984124Y5550384D01*
X4941835Y5520584D01*
X4930099Y5508251D01*
X4914983Y5500419D01*
X4887831Y5478714D01*
X4853034Y5505849D01*
X4837379Y5513722D01*
X4825125Y5526248D01*
X4776482Y5559528D01*
X4715320Y5610002D01*
X4678448Y5653794D01*
X4650261Y5702558D01*
X4633177Y5749914D01*
X4626953Y5788969D01*
X4629014Y5831866D01*
X4638364Y5874613D01*
X4654229Y5915402D01*
X4673434Y5945618D01*
X4719027Y5995271D01*
X4769819Y6029547D01*
X4811533Y6047097D01*
X4856329Y6056546D01*
X4903513Y6057616D01*
X4951191Y6049952D01*
G36*
X39591100Y12332240D02*
X39333179Y12332240D01*
X39333179Y14093140D01*
X39591100Y14093140D01*
X39591100Y12332240D01*
X39591100Y12332240D01*
G37*
X39591100Y12332240D02*
X39333179Y12332240D01*
X39333179Y14093140D01*
X39591100Y14093140D01*
X39591100Y12332240D01*
M02*
