<?xml version="1.0" standalone="no"?>
<!DOCTYPE svg PUBLIC "-//W3C//DTD SVG 1.1//EN"
"http://www.w3.org/Graphics/SVG/1.1/DTD/svg11.dtd">
<svg width="7741" height="5344" viewBox="0 0 7741 5344" version="1.1"
xmlns="http://www.w3.org/2000/svg"
xmlns:xlink="http://www.w3.org/1999/xlink">
<g fill-rule="evenodd"><path d="M 4621.53,5168.87 L 4621.53,5011.4 L 4621.79,5008.94 L 4622.55,5006.6 L 4623.79,5004.46 L 4625.44,5002.62 L 4627.44,5001.17 L 4629.69,5000.17 L 4632.11,4999.65 L 4634.58,4999.65 L 4636.99,5000.17 L 4639.25,5001.17 L 4641.24,5002.62 L 4642.9,5004.46 L 4644.13,5006.6 L 4644.89,5008.94 L 4645.15,5011.4 L 4645.15,5168.87 L 4644.89,5171.32 L 4644.13,5173.67 L 4642.9,5175.81 L 4641.24,5177.64 L 4639.25,5179.09 L 4636.99,5180.1 L 4634.58,5180.61 L 4632.11,5180.61 L 4629.69,5180.1 L 4627.44,5179.09 L 4625.44,5177.64 L 4623.79,5175.81 L 4622.55,5173.67 L 4621.79,5171.32 L 4621.53,5168.87 z " style="fill-opacity:1.000000;fill:rgb(103,198,105);stroke:rgb(0,0,0);stroke-width:2"/></g>
<g fill-rule="evenodd"><path d="M 3789.2,5168.87 L 3789.2,5011.4 L 3789.46,5008.94 L 3790.22,5006.6 L 3791.46,5004.46 L 3793.11,5002.62 L 3795.11,5001.17 L 3797.36,5000.17 L 3799.78,4999.65 L 3802.25,4999.65 L 3804.66,5000.17 L 3806.91,5001.17 L 3808.91,5002.62 L 3810.56,5004.46 L 3811.8,5006.6 L 3812.56,5008.94 L 3812.82,5011.4 L 3812.82,5168.87 L 3812.56,5171.32 L 3811.8,5173.67 L 3810.56,5175.81 L 3808.91,5177.64 L 3806.91,5179.09 L 3804.66,5180.1 L 3802.25,5180.61 L 3799.78,5180.61 L 3797.36,5180.1 L 3795.11,5179.09 L 3793.11,5177.64 L 3791.46,5175.81 L 3790.22,5173.67 L 3789.46,5171.32 L 3789.2,5168.87 z " style="fill-opacity:1.000000;fill:rgb(115,81,255);stroke:rgb(0,0,0);stroke-width:2"/></g>
<g fill-rule="evenodd"><path d="M 4090.67,5023.21 L 4070.96,5023.21 L 4068.5,5022.95 L 4066.15,5022.19 L 4064.02,5020.95 L 4062.18,5019.3 L 4060.73,5017.3 L 4059.73,5015.05 L 4059.21,5012.63 L 4059.21,5010.16 L 4059.73,5007.75 L 4060.73,5005.49 L 4062.18,5003.5 L 4064.02,5001.84 L 4066.15,5000.61 L 4068.5,4999.85 L 4070.96,4999.59 L 4095.27,4999.73 L 4098.73,5000.84 L 4121.23,5012.08 L 4122.85,5013.06 L 4126.63,5016.63 L 4126.63,5011.4 L 4126.89,5008.94 L 4127.65,5006.6 L 4128.89,5004.46 L 4130.54,5002.62 L 4132.54,5001.17 L 4134.79,5000.17 L 4137.21,4999.65 L 4139.68,4999.65 L 4142.09,5000.17 L 4144.35,5001.17 L 4146.34,5002.62 L 4148,5004.46 L 4149.23,5006.6 L 4149.99,5008.94 L 4150.25,5011.4 L 4150.25,5168.87 L 4149.99,5171.32 L 4149.23,5173.67 L 4148,5175.81 L 4146.34,5177.64 L 4144.35,5179.09 L 4142.09,5180.1 L 4139.68,5180.61 L 4137.21,5180.61 L 4134.79,5180.1 L 4132.54,5179.09 L 4130.54,5177.64 L 4128.89,5175.81 L 4127.65,5173.67 L 4126.89,5171.32 L 4126.63,5168.87 L 4126.63,5059.18 L 4117.49,5040.89 L 4108.95,5032.35 L 4090.67,5023.21 z " style="fill-opacity:1.000000;fill:rgb(74,236,41);stroke:rgb(0,0,0);stroke-width:2"/></g>
<g fill-rule="evenodd"><path d="M 1471.13,5175.64 L 1469.39,5177.64 L 1467.39,5179.09 L 1465.13,5180.1 L 1462.72,5180.61 L 1460.25,5180.61 L 1457.84,5180.1 L 1455.58,5179.09 L 1453.58,5177.64 L 1451.93,5175.81 L 1450.7,5173.67 L 1449.93,5171.32 L 1449.68,5168.87 L 1449.82,5043.32 L 1450.92,5039.86 L 1462.17,5017.36 L 1464.38,5014.29 L 1467.45,5012.08 L 1489.95,5000.84 L 1491.63,5000.15 L 1495.23,4999.59 L 1542.03,4999.73 L 1545.5,5000.84 L 1567.99,5012.08 L 1570.07,5013.41 L 1571.83,5015.14 L 1573.19,5017.2 L 1574.09,5019.5 L 1574.5,5021.94 L 1574.39,5024.4 L 1573.77,5026.79 L 1572.67,5029 L 1571.13,5030.93 L 1569.22,5032.5 L 1567.03,5033.64 L 1564.65,5034.29 L 1562.18,5034.44 L 1559.74,5034.07 L 1557.43,5033.21 L 1537.43,5023.21 L 1498.01,5023.21 L 1481.53,5031.45 L 1473.29,5047.92 L 1473.29,5060.34 L 1486.77,5067.08 L 1542.03,5067.22 L 1545.5,5068.32 L 1567.99,5079.57 L 1571.06,5081.78 L 1573.27,5084.85 L 1584.52,5107.35 L 1585.21,5109.04 L 1585.77,5112.63 L 1585.77,5135.12 L 1585.21,5138.71 L 1573.27,5162.9 L 1571.06,5165.97 L 1567.99,5168.18 L 1545.5,5179.43 L 1542.03,5180.53 L 1483.98,5180.68 L 1480.39,5180.12 L 1471.13,5175.64M 1473.29,5150.32 L 1486.77,5157.06 L 1537.43,5157.06 L 1553.91,5148.82 L 1562.15,5132.33 L 1562.15,5115.42 L 1553.91,5098.93 L 1537.43,5090.69 L 1483.98,5090.69 L 1480.39,5090.13 L 1473.29,5086.74 L 1473.29,5150.32 z " style="fill-opacity:1.000000;fill:rgb(205,186,171);stroke:rgb(0,0,0);stroke-width:2"/></g>
<g fill-rule="evenodd"><path d="M 618.466,5047.93 L 618.466,5060.34 L 631.939,5067.08 L 687.207,5067.22 L 690.67,5068.32 L 713.167,5079.57 L 714.791,5080.55 L 717.466,5083.23 L 730.383,5109.04 L 730.943,5112.63 L 730.943,5135.12 L 730.383,5138.71 L 729.695,5140.4 L 718.448,5162.9 L 716.236,5165.97 L 714.791,5167.2 L 690.67,5179.43 L 687.207,5180.53 L 629.153,5180.68 L 625.56,5180.12 L 616.304,5175.64 L 614.558,5177.64 L 612.561,5179.09 L 610.305,5180.1 L 607.891,5180.61 L 605.421,5180.61 L 603.007,5180.1 L 600.751,5179.09 L 598.754,5177.64 L 597.102,5175.81 L 595.868,5173.67 L 595.106,5171.32 L 594.848,5168.87 L 594.848,5045.14 L 595.406,5041.55 L 596.094,5039.86 L 607.343,5017.36 L 609.555,5014.29 L 612.625,5012.08 L 636.807,5000.15 L 640.4,4999.59 L 687.207,4999.73 L 690.67,5000.84 L 713.167,5012.08 L 715.247,5013.41 L 717.006,5015.14 L 718.366,5017.2 L 719.268,5019.5 L 719.674,5021.94 L 719.564,5024.4 L 718.944,5026.79 L 717.84,5029 L 716.3,5030.93 L 714.395,5032.5 L 712.203,5033.64 L 709.823,5034.29 L 707.359,5034.44 L 704.917,5034.07 L 702.606,5033.21 L 682.607,5023.21 L 643.184,5023.21 L 626.707,5031.45 L 618.466,5047.93M 618.466,5150.32 L 631.939,5157.06 L 682.601,5157.06 L 699.084,5148.82 L 707.325,5132.34 L 707.325,5115.42 L 699.086,5098.93 L 682.607,5090.69 L 629.153,5090.69 L 625.56,5090.13 L 618.466,5086.74 L 618.466,5150.32 z " style="fill-opacity:1.000000;fill:rgb(242,251,227);stroke:rgb(0,0,0);stroke-width:2"/></g>
<g fill-rule="evenodd"><path d="M 909.785,5038.79 L 903.348,5032.35 L 885.065,5023.21 L 856.892,5023.21 L 840.413,5031.45 L 832.173,5047.92 L 832.173,5168.87 L 831.914,5171.32 L 831.152,5173.67 L 829.918,5175.81 L 828.266,5177.64 L 826.268,5179.09 L 824.012,5180.1 L 821.598,5180.61 L 819.129,5180.61 L 816.715,5180.1 L 814.459,5179.09 L 812.461,5177.64 L 810.809,5175.81 L 809.575,5173.67 L 808.813,5171.32 L 808.555,5168.87 L 808.695,5043.32 L 809.801,5039.86 L 821.048,5017.36 L 823.26,5014.29 L 826.33,5012.08 L 848.826,5000.84 L 850.514,5000.15 L 854.108,4999.59 L 889.667,4999.73 L 893.131,5000.84 L 910.007,5009.27 L 910.805,5006.6 L 912.039,5004.46 L 913.691,5002.62 L 915.689,5001.17 L 917.945,5000.17 L 920.359,4999.65 L 922.828,4999.65 L 925.242,5000.17 L 927.498,5001.17 L 929.496,5002.62 L 931.148,5004.46 L 932.382,5006.6 L 933.144,5008.94 L 933.404,5011.4 L 933.404,5168.87 L 933.144,5171.32 L 932.382,5173.67 L 931.148,5175.81 L 929.496,5177.64 L 927.498,5179.09 L 925.242,5180.1 L 922.828,5180.61 L 920.359,5180.61 L 917.945,5180.1 L 915.689,5179.09 L 913.691,5177.64 L 912.039,5175.81 L 910.805,5173.67 L 910.043,5171.32 L 909.785,5168.87 L 909.785,5038.79 z " style="fill-opacity:1.000000;fill:rgb(70,124,194);stroke:rgb(0,0,0);stroke-width:2"/></g>
<g fill-rule="evenodd"><path d="M 1257.42,5004.62 L 1266.68,5000.15 L 1270.27,4999.59 L 1315.26,4999.59 L 1318.85,5000.15 L 1320.54,5000.84 L 1344.66,5013.06 L 1357.36,5025.54 L 1359.57,5028.61 L 1371.5,5052.8 L 1372.06,5056.39 L 1371.92,5125.69 L 1370.82,5129.16 L 1359.57,5151.65 L 1357.36,5154.72 L 1344.66,5167.2 L 1320.54,5179.43 L 1317.08,5180.53 L 1270.27,5180.68 L 1266.68,5180.12 L 1259.59,5176.73 L 1259.59,5199.82 L 1268.73,5218.11 L 1277.27,5226.65 L 1295.56,5235.79 L 1323.72,5235.79 L 1343.73,5225.79 L 1346.04,5224.92 L 1348.48,5224.55 L 1350.94,5224.7 L 1353.32,5225.36 L 1355.51,5226.5 L 1357.42,5228.07 L 1358.96,5230 L 1360.06,5232.2 L 1360.68,5234.59 L 1360.79,5237.06 L 1360.39,5239.49 L 1359.49,5241.79 L 1358.13,5243.85 L 1356.37,5245.59 L 1354.29,5246.91 L 1330.1,5258.85 L 1326.51,5259.41 L 1290.95,5259.27 L 1287.49,5258.16 L 1264.99,5246.91 L 1261.92,5244.7 L 1249.44,5232.01 L 1236.53,5206.2 L 1235.97,5202.61 L 1235.97,5011.4 L 1236.23,5008.94 L 1236.99,5006.6 L 1238.22,5004.46 L 1239.87,5002.62 L 1241.87,5001.17 L 1244.13,5000.17 L 1246.54,4999.65 L 1249.01,4999.65 L 1251.43,5000.17 L 1253.68,5001.17 L 1255.68,5002.62 L 1257.42,5004.62M 1259.59,5150.32 L 1273.06,5157.06 L 1312.47,5157.06 L 1330.76,5147.91 L 1339.3,5139.38 L 1348.45,5121.09 L 1348.45,5059.18 L 1339.3,5040.89 L 1330.76,5032.35 L 1312.48,5023.21 L 1273.06,5023.21 L 1259.59,5029.94 L 1259.59,5150.32 z " style="fill-opacity:1.000000;fill:rgb(84,248,27);stroke:rgb(0,0,0);stroke-width:2"/></g>
<g fill-rule="evenodd"><path d="M 1045.88,5141.48 L 1052.31,5147.91 L 1070.6,5157.06 L 1098.77,5157.06 L 1115.25,5148.82 L 1123.49,5132.34 L 1123.49,5011.4 L 1123.75,5008.94 L 1124.51,5006.6 L 1125.74,5004.46 L 1127.4,5002.62 L 1129.39,5001.17 L 1131.65,5000.17 L 1134.06,4999.65 L 1136.53,4999.65 L 1138.95,5000.17 L 1141.2,5001.17 L 1143.2,5002.62 L 1144.85,5004.46 L 1146.09,5006.6 L 1146.85,5008.94 L 1147.11,5011.4 L 1146.97,5136.94 L 1145.86,5140.4 L 1134.61,5162.9 L 1132.4,5165.97 L 1129.33,5168.18 L 1106.84,5179.43 L 1105.15,5180.12 L 1101.56,5180.68 L 1065.99,5180.53 L 1062.53,5179.43 L 1045.66,5170.99 L 1044.86,5173.67 L 1043.63,5175.81 L 1041.97,5177.64 L 1039.98,5179.09 L 1037.72,5180.1 L 1035.31,5180.61 L 1032.84,5180.61 L 1030.42,5180.1 L 1028.17,5179.09 L 1026.17,5177.64 L 1024.52,5175.81 L 1023.28,5173.67 L 1022.52,5171.32 L 1022.26,5168.87 L 1022.26,5011.4 L 1022.52,5008.94 L 1023.28,5006.6 L 1024.52,5004.46 L 1026.17,5002.62 L 1028.17,5001.17 L 1030.42,5000.17 L 1032.84,4999.65 L 1035.31,4999.65 L 1037.72,5000.17 L 1039.98,5001.17 L 1041.97,5002.62 L 1043.63,5004.46 L 1044.86,5006.6 L 1045.62,5008.94 L 1045.88,5011.4 L 1045.88,5141.48 z " style="fill-opacity:1.000000;fill:rgb(232,231,141);stroke:rgb(0,0,0);stroke-width:2"/></g>
<g fill-rule="evenodd"><path d="M 1742.12,5157.06 L 1742.12,4932.66 L 1742.37,4930.21 L 1743.14,4927.86 L 1744.37,4925.72 L 1746.02,4923.89 L 1748.02,4922.44 L 1750.28,4921.43 L 1752.69,4920.92 L 1755.16,4920.92 L 1757.57,4921.43 L 1759.83,4922.44 L 1761.83,4923.89 L 1763.48,4925.72 L 1764.71,4927.86 L 1765.48,4930.21 L 1765.74,4932.66 L 1765.74,5168.87 L 1765.51,5171.17 L 1764.84,5173.38 L 1763.74,5175.43 L 1762.28,5177.22 L 1760.49,5178.68 L 1758.44,5179.78 L 1756.23,5180.45 L 1753.93,5180.68 L 1641.45,5180.68 L 1638.99,5180.42 L 1636.65,5179.65 L 1634.51,5178.42 L 1632.67,5176.77 L 1631.22,5174.77 L 1630.22,5172.51 L 1629.7,5170.1 L 1629.7,5167.63 L 1630.22,5165.22 L 1631.22,5162.96 L 1632.67,5160.96 L 1634.51,5159.31 L 1636.65,5158.08 L 1638.99,5157.32 L 1641.45,5157.06 L 1742.12,5157.06 z " style="fill-opacity:1.000000;fill:rgb(118,90,46);stroke:rgb(0,0,0);stroke-width:2"/></g>
<g fill-rule="evenodd"><path d="M 2259.51,5132.34 L 2259.51,4932.66 L 2259.77,4930.21 L 2260.53,4927.86 L 2261.76,4925.72 L 2263.42,4923.89 L 2265.41,4922.44 L 2267.67,4921.43 L 2270.08,4920.92 L 2272.55,4920.92 L 2274.97,4921.43 L 2277.22,4922.44 L 2279.22,4923.89 L 2280.87,4925.72 L 2282.11,4927.86 L 2282.87,4930.21 L 2283.13,4932.66 L 2282.99,5136.94 L 2281.88,5140.4 L 2270.63,5162.9 L 2268.42,5165.97 L 2266.98,5167.2 L 2242.86,5179.43 L 2240.54,5180.3 L 2238.1,5180.66 L 2235.64,5180.52 L 2233.26,5179.86 L 2231.07,5178.72 L 2229.16,5177.15 L 2227.62,5175.22 L 2226.52,5173.01 L 2225.9,5170.62 L 2225.79,5168.16 L 2226.19,5165.72 L 2227.1,5163.42 L 2228.46,5161.36 L 2230.22,5159.63 L 2232.29,5158.3 L 2251.27,5148.82 L 2259.51,5132.34 z " style="fill-opacity:1.000000;fill:rgb(99,51,159);stroke:rgb(0,0,0);stroke-width:2"/></g>
<g fill-rule="evenodd"><path d="M 2122.32,5023.21 L 2082.89,5023.21 L 2066.42,5031.45 L 2058.17,5047.93 L 2058.17,5060.34 L 2071.65,5067.08 L 2126.92,5067.22 L 2130.38,5068.32 L 2152.88,5079.57 L 2155.94,5081.78 L 2158.16,5084.85 L 2169.4,5107.35 L 2170.09,5109.04 L 2170.65,5112.63 L 2170.65,5135.12 L 2170.09,5138.71 L 2158.16,5162.9 L 2155.94,5165.97 L 2152.88,5168.18 L 2130.38,5179.43 L 2126.92,5180.53 L 2068.86,5180.68 L 2065.27,5180.12 L 2056.01,5175.64 L 2054.27,5177.64 L 2052.27,5179.09 L 2050.01,5180.1 L 2047.6,5180.61 L 2045.13,5180.61 L 2042.72,5180.1 L 2040.46,5179.09 L 2038.46,5177.64 L 2036.81,5175.81 L 2035.58,5173.67 L 2034.81,5171.32 L 2034.56,5168.87 L 2034.56,5045.14 L 2035.11,5041.55 L 2035.8,5039.86 L 2047.05,5017.36 L 2049.26,5014.29 L 2052.33,5012.08 L 2074.83,5000.84 L 2078.29,4999.73 L 2125.1,4999.59 L 2128.69,5000.15 L 2130.38,5000.84 L 2152.88,5012.08 L 2154.95,5013.41 L 2156.71,5015.14 L 2158.07,5017.2 L 2158.98,5019.5 L 2159.38,5021.94 L 2159.27,5024.4 L 2158.65,5026.79 L 2157.55,5029 L 2156.01,5030.93 L 2154.1,5032.5 L 2151.91,5033.64 L 2149.53,5034.29 L 2147.07,5034.44 L 2144.63,5034.07 L 2142.31,5033.21 L 2122.32,5023.21M 2122.31,5157.06 L 2138.79,5148.82 L 2147.03,5132.34 L 2147.03,5115.42 L 2138.79,5098.93 L 2122.32,5090.69 L 2068.86,5090.69 L 2065.27,5090.13 L 2058.17,5086.74 L 2058.17,5150.32 L 2071.65,5157.06 L 2122.31,5157.06 z " style="fill-opacity:1.000000;fill:rgb(201,154,102);stroke:rgb(0,0,0);stroke-width:2"/></g>
<g fill-rule="evenodd"><path d="M 2778.03,5003.54 L 2785.12,5000.15 L 2788.72,4999.59 L 2833.71,4999.59 L 2837.3,5000.15 L 2838.99,5000.84 L 2863.11,5013.06 L 2875.8,5025.54 L 2878.01,5028.61 L 2889.95,5052.8 L 2890.51,5056.39 L 2890.51,5123.88 L 2889.95,5127.47 L 2889.26,5129.16 L 2877.03,5153.28 L 2864.55,5165.97 L 2861.48,5168.18 L 2837.3,5180.12 L 2833.71,5180.68 L 2788.72,5180.68 L 2785.12,5180.12 L 2775.87,5175.64 L 2774.12,5177.64 L 2772.12,5179.09 L 2769.87,5180.1 L 2767.45,5180.61 L 2764.98,5180.61 L 2762.57,5180.1 L 2760.31,5179.09 L 2758.32,5177.64 L 2756.66,5175.81 L 2755.43,5173.67 L 2754.67,5171.32 L 2754.41,5168.87 L 2754.41,4932.66 L 2754.67,4930.21 L 2755.43,4927.86 L 2756.66,4925.72 L 2758.32,4923.89 L 2760.31,4922.44 L 2762.57,4921.43 L 2764.98,4920.92 L 2767.45,4920.92 L 2769.87,4921.43 L 2772.12,4922.44 L 2774.12,4923.89 L 2775.77,4925.72 L 2777.01,4927.86 L 2777.77,4930.21 L 2778.03,4932.66 L 2778.03,5003.54M 2778.03,5150.32 L 2791.5,5157.06 L 2830.92,5157.06 L 2849.21,5147.91 L 2857.74,5139.38 L 2866.89,5121.09 L 2866.89,5059.18 L 2857.74,5040.89 L 2849.21,5032.35 L 2830.92,5023.21 L 2791.5,5023.21 L 2778.03,5029.94 L 2778.03,5150.32 z " style="fill-opacity:1.000000;fill:rgb(50,13,183);stroke:rgb(0,0,0);stroke-width:2"/></g>
<g fill-rule="evenodd"><path d="M 2653.18,5099.81 L 2550.2,5079.22 L 2547.98,5078.54 L 2545.94,5077.45 L 2544.16,5075.98 L 2542.69,5074.19 L 2541.6,5072.15 L 2540.93,5069.94 L 2540.71,5067.64 L 2540.85,5043.32 L 2541.95,5039.86 L 2553.2,5017.36 L 2555.41,5014.29 L 2558.48,5012.08 L 2580.98,5000.84 L 2584.44,4999.73 L 2631.25,4999.59 L 2634.84,5000.15 L 2659.02,5012.08 L 2662.09,5014.29 L 2664.3,5017.36 L 2675.55,5039.86 L 2676.24,5041.55 L 2676.8,5045.14 L 2676.66,5136.94 L 2675.55,5140.4 L 2664.3,5162.9 L 2662.09,5165.97 L 2659.02,5168.18 L 2636.53,5179.43 L 2634.84,5180.12 L 2631.25,5180.68 L 2584.44,5180.53 L 2580.98,5179.43 L 2558.48,5168.18 L 2556.4,5166.85 L 2554.64,5165.12 L 2553.28,5163.06 L 2552.38,5160.76 L 2551.97,5158.33 L 2552.08,5155.86 L 2552.7,5153.47 L 2553.81,5151.26 L 2555.35,5149.33 L 2557.25,5147.76 L 2559.45,5146.63 L 2561.83,5145.97 L 2564.29,5145.82 L 2566.73,5146.19 L 2569.04,5147.06 L 2589.04,5157.06 L 2628.46,5157.06 L 2644.94,5148.82 L 2653.18,5132.33 L 2653.18,5099.81M 2564.32,5047.92 L 2564.32,5057.96 L 2653.18,5075.73 L 2653.18,5047.93 L 2644.94,5031.45 L 2628.46,5023.21 L 2589.04,5023.21 L 2572.56,5031.45 L 2564.32,5047.92 z " style="fill-opacity:1.000000;fill:rgb(49,88,163);stroke:rgb(0,0,0);stroke-width:2"/></g>
<g fill-rule="evenodd"><path d="M 3171.7,5003.54 L 3178.79,5000.15 L 3182.39,4999.59 L 3227.38,4999.59 L 3230.97,5000.15 L 3232.66,5000.84 L 3256.78,5013.06 L 3269.47,5025.54 L 3271.68,5028.61 L 3283.62,5052.79 L 3284.18,5056.39 L 3284.18,5123.88 L 3283.62,5127.47 L 3282.93,5129.16 L 3270.7,5153.28 L 3258.22,5165.97 L 3255.15,5168.18 L 3230.97,5180.12 L 3227.38,5180.68 L 3182.39,5180.68 L 3178.79,5180.12 L 3169.54,5175.64 L 3167.79,5177.64 L 3165.79,5179.09 L 3163.54,5180.1 L 3161.12,5180.61 L 3158.66,5180.61 L 3156.24,5180.1 L 3153.99,5179.09 L 3151.99,5177.64 L 3150.34,5175.81 L 3149.1,5173.67 L 3148.34,5171.32 L 3148.08,5168.87 L 3148.08,4932.66 L 3148.34,4930.21 L 3149.1,4927.86 L 3150.34,4925.72 L 3151.99,4923.89 L 3153.99,4922.44 L 3156.24,4921.43 L 3158.66,4920.92 L 3161.12,4920.92 L 3163.54,4921.43 L 3165.79,4922.44 L 3167.79,4923.89 L 3169.44,4925.72 L 3170.68,4927.86 L 3171.44,4930.21 L 3171.7,4932.66 L 3171.7,5003.54M 3224.59,5157.06 L 3242.87,5147.91 L 3251.41,5139.37 L 3260.56,5121.09 L 3260.56,5059.18 L 3251.41,5040.89 L 3242.87,5032.35 L 3224.59,5023.21 L 3185.17,5023.21 L 3171.7,5029.94 L 3171.7,5150.32 L 3185.17,5157.06 L 3224.59,5157.06 z " style="fill-opacity:1.000000;fill:rgb(90,37,93);stroke:rgb(0,0,0);stroke-width:2"/></g>
<g fill-rule="evenodd"><path d="M 3599.11,5003.54 L 3606.21,5000.15 L 3609.8,4999.59 L 3654.79,4999.59 L 3658.38,5000.15 L 3660.07,5000.84 L 3684.19,5013.06 L 3696.88,5025.54 L 3699.1,5028.61 L 3711.03,5052.8 L 3711.59,5056.39 L 3711.59,5123.88 L 3711.03,5127.47 L 3710.34,5129.16 L 3698.11,5153.28 L 3685.63,5165.97 L 3682.56,5168.18 L 3658.38,5180.12 L 3654.79,5180.68 L 3609.8,5180.68 L 3606.21,5180.12 L 3596.95,5175.64 L 3595.21,5177.64 L 3593.21,5179.09 L 3590.95,5180.1 L 3588.54,5180.61 L 3586.07,5180.61 L 3583.65,5180.1 L 3581.4,5179.09 L 3579.4,5177.64 L 3577.75,5175.81 L 3576.51,5173.67 L 3575.75,5171.32 L 3575.49,5168.87 L 3575.49,4932.66 L 3575.75,4930.21 L 3576.51,4927.86 L 3577.75,4925.72 L 3579.4,4923.89 L 3581.4,4922.44 L 3583.65,4921.43 L 3586.07,4920.92 L 3588.54,4920.92 L 3590.95,4921.43 L 3593.21,4922.44 L 3595.21,4923.89 L 3596.86,4925.72 L 3598.09,4927.86 L 3598.85,4930.21 L 3599.11,4932.66 L 3599.11,5003.54M 3652,5157.06 L 3670.29,5147.91 L 3678.83,5139.37 L 3687.97,5121.09 L 3687.97,5059.18 L 3678.83,5040.89 L 3670.29,5032.35 L 3652,5023.21 L 3612.58,5023.21 L 3599.11,5029.94 L 3599.11,5150.32 L 3612.59,5157.06 L 3652,5157.06 z " style="fill-opacity:1.000000;fill:rgb(5,23,88);stroke:rgb(0,0,0);stroke-width:2"/></g>
<g fill-rule="evenodd"><path d="M 3410.12,5023.21 L 3393.65,5031.45 L 3385.41,5047.93 L 3385.41,5060.34 L 3398.88,5067.08 L 3452.33,5067.08 L 3455.92,5067.63 L 3457.61,5068.32 L 3480.11,5079.57 L 3483.17,5081.78 L 3485.39,5084.85 L 3497.32,5109.04 L 3497.88,5112.63 L 3497.74,5136.94 L 3496.63,5140.4 L 3485.39,5162.9 L 3483.18,5165.97 L 3480.11,5168.18 L 3455.92,5180.12 L 3452.33,5180.68 L 3396.09,5180.68 L 3392.5,5180.12 L 3383.24,5175.64 L 3381.5,5177.64 L 3379.5,5179.09 L 3377.24,5180.1 L 3374.83,5180.61 L 3372.36,5180.61 L 3369.95,5180.1 L 3367.69,5179.09 L 3365.69,5177.64 L 3364.04,5175.81 L 3362.81,5173.67 L 3362.05,5171.32 L 3361.79,5168.87 L 3361.93,5043.32 L 3363.03,5039.86 L 3375.26,5015.74 L 3376.49,5014.29 L 3379.56,5012.08 L 3402.06,5000.84 L 3405.52,4999.73 L 3452.33,4999.59 L 3455.92,5000.15 L 3457.61,5000.84 L 3480.11,5012.08 L 3482.19,5013.41 L 3483.95,5015.14 L 3485.31,5017.2 L 3486.21,5019.5 L 3486.61,5021.94 L 3486.5,5024.4 L 3485.88,5026.79 L 3484.78,5029 L 3483.24,5030.93 L 3481.33,5032.5 L 3479.14,5033.64 L 3476.76,5034.29 L 3474.3,5034.44 L 3471.86,5034.07 L 3469.55,5033.21 L 3449.55,5023.21 L 3410.12,5023.21M 3398.88,5157.06 L 3449.54,5157.06 L 3466.02,5148.82 L 3474.26,5132.34 L 3474.26,5115.42 L 3466.03,5098.93 L 3449.55,5090.69 L 3396.09,5090.69 L 3392.5,5090.13 L 3385.41,5086.74 L 3385.41,5150.32 L 3398.88,5157.06 z " style="fill-opacity:1.000000;fill:rgb(233,94,212);stroke:rgb(0,0,0);stroke-width:2"/></g>
<g fill-rule="evenodd"><path d="M 3809.11,4963.71 L 3807.57,4964.98 L 3805.53,4966.07 L 3802.25,4966.9 L 3798.71,4966.74 L 3795.11,4965.39 L 3792.66,4963.51 L 3781.41,4952.26 L 3779.94,4950.47 L 3778.85,4948.43 L 3778.18,4946.21 L 3777.95,4943.91 L 3778.18,4941.61 L 3778.85,4939.39 L 3779.94,4937.35 L 3781.41,4935.56 L 3793.58,4923.49 L 3795.65,4922.14 L 3797.96,4921.26 L 3800.39,4920.87 L 3802.86,4921 L 3805.24,4921.64 L 3807.57,4922.85 L 3820.61,4935.56 L 3822.08,4937.35 L 3823.17,4939.39 L 3823.84,4941.61 L 3824.07,4943.91 L 3823.84,4946.21 L 3823.17,4948.43 L 3822.08,4950.47 L 3820.61,4952.26 L 3809.11,4963.71 z " style="fill-opacity:1.000000;fill:rgb(171,178,205);stroke:rgb(0,0,0);stroke-width:2"/></g>
<g fill-rule="evenodd"><path d="M 3922.29,5110.18 L 3914.05,5126.66 L 3914.05,5132.34 L 3922.29,5148.82 L 3938.77,5157.06 L 3978.18,5157.06 L 3998.19,5147.06 L 4000.5,5146.19 L 4002.94,5145.82 L 4005.4,5145.97 L 4007.78,5146.63 L 4009.98,5147.76 L 4011.88,5149.33 L 4013.42,5151.26 L 4014.52,5153.47 L 4015.15,5155.86 L 4015.26,5158.33 L 4014.85,5160.76 L 4013.95,5163.06 L 4012.59,5165.12 L 4010.83,5166.85 L 4008.75,5168.18 L 3986.25,5179.43 L 3982.79,5180.53 L 3934.16,5180.53 L 3930.7,5179.43 L 3908.21,5168.18 L 3905.14,5165.97 L 3902.93,5162.9 L 3891.68,5140.4 L 3890.57,5136.94 L 3890.43,5123.88 L 3890.99,5120.28 L 3902.93,5096.1 L 3903.91,5094.47 L 3906.58,5091.8 L 3930.7,5079.57 L 3934.16,5078.46 L 3966.94,5078.32 L 3983.42,5070.08 L 3991.66,5053.6 L 3991.66,5047.93 L 3983.42,5031.45 L 3966.94,5023.21 L 3938.77,5023.21 L 3918.77,5033.21 L 3916.46,5034.07 L 3914.01,5034.44 L 3911.55,5034.29 L 3909.17,5033.64 L 3906.98,5032.5 L 3905.07,5030.93 L 3903.54,5029 L 3902.43,5026.79 L 3901.81,5024.4 L 3901.7,5021.94 L 3902.11,5019.5 L 3903.01,5017.2 L 3904.37,5015.14 L 3906.13,5013.41 L 3908.21,5012.08 L 3930.7,5000.84 L 3932.39,5000.15 L 3935.98,4999.59 L 3971.54,4999.73 L 3975.01,5000.84 L 3999.13,5013.06 L 4001.8,5015.74 L 4002.78,5017.36 L 4014.03,5039.86 L 4014.72,5041.55 L 4015.28,5045.14 L 4015.28,5056.39 L 4014.72,5059.98 L 4001.8,5085.79 L 4000.57,5087.23 L 3997.5,5089.45 L 3973.32,5101.38 L 3969.73,5101.94 L 3938.77,5101.94 L 3922.29,5110.18 z " style="fill-opacity:1.000000;fill:rgb(198,155,180);stroke:rgb(0,0,0);stroke-width:2"/></g>
<g fill-rule="evenodd"><path d="M 4971.33,5121.09 L 4980.48,5139.37 L 4989.02,5147.91 L 5007.3,5157.06 L 5046.72,5157.06 L 5065.01,5147.91 L 5073.54,5139.37 L 5082.69,5121.09 L 5082.69,4932.66 L 5082.95,4930.21 L 5083.71,4927.86 L 5084.94,4925.72 L 5086.6,4923.89 L 5088.59,4922.44 L 5090.85,4921.43 L 5093.26,4920.92 L 5095.73,4920.92 L 5098.15,4921.43 L 5100.4,4922.44 L 5102.4,4923.89 L 5104.05,4925.72 L 5105.29,4927.86 L 5106.05,4930.21 L 5106.31,4932.66 L 5106.17,5125.69 L 5105.06,5129.16 L 5092.83,5153.28 L 5080.35,5165.97 L 5077.28,5168.18 L 5054.79,5179.43 L 5053.1,5180.12 L 5049.51,5180.68 L 5002.7,5180.53 L 4999.23,5179.43 L 4976.74,5168.18 L 4973.67,5165.97 L 4961.19,5153.28 L 4948.27,5127.47 L 4947.72,5123.88 L 4947.72,4932.66 L 4947.97,4930.21 L 4948.74,4927.86 L 4949.97,4925.72 L 4951.62,4923.89 L 4953.62,4922.44 L 4955.88,4921.43 L 4958.29,4920.92 L 4960.76,4920.92 L 4963.17,4921.43 L 4965.43,4922.44 L 4967.43,4923.89 L 4969.08,4925.72 L 4970.31,4927.86 L 4971.07,4930.21 L 4971.33,4932.66 L 4971.33,5121.09 z " style="fill-opacity:1.000000;fill:rgb(84,17,14);stroke:rgb(0,0,0);stroke-width:2"/></g>
<g fill-rule="evenodd"><path d="M 4315.62,5157.06 L 4332.1,5148.82 L 4340.34,5132.34 L 4340.34,5099.81 L 4237.35,5079.22 L 4235.14,5078.54 L 4233.1,5077.45 L 4231.31,5075.98 L 4229.85,5074.19 L 4228.76,5072.15 L 4228.09,5069.94 L 4227.86,5067.64 L 4228,5043.32 L 4229.11,5039.86 L 4240.36,5017.36 L 4242.57,5014.29 L 4245.64,5012.08 L 4269.82,5000.15 L 4273.41,4999.59 L 4318.41,4999.59 L 4322,5000.15 L 4323.68,5000.84 L 4346.18,5012.08 L 4349.25,5014.29 L 4351.46,5017.36 L 4363.4,5041.55 L 4363.96,5045.14 L 4363.82,5136.94 L 4362.71,5140.4 L 4351.46,5162.9 L 4349.25,5165.97 L 4346.18,5168.18 L 4323.68,5179.43 L 4320.22,5180.53 L 4273.41,5180.68 L 4269.82,5180.12 L 4268.13,5179.43 L 4245.64,5168.18 L 4243.56,5166.85 L 4241.8,5165.12 L 4240.44,5163.06 L 4239.54,5160.76 L 4239.13,5158.33 L 4239.24,5155.86 L 4239.86,5153.47 L 4240.97,5151.26 L 4242.51,5149.33 L 4244.41,5147.76 L 4246.6,5146.63 L 4248.98,5145.97 L 4251.45,5145.82 L 4253.89,5146.19 L 4256.2,5147.06 L 4276.2,5157.06 L 4315.62,5157.06M 4315.62,5023.21 L 4276.2,5023.21 L 4259.72,5031.45 L 4251.48,5047.93 L 4251.48,5057.96 L 4340.34,5075.73 L 4340.34,5047.93 L 4332.1,5031.45 L 4315.62,5023.21 z " style="fill-opacity:1.000000;fill:rgb(130,116,65);stroke:rgb(0,0,0);stroke-width:2"/></g>
<g fill-rule="evenodd"><path d="M 4487.12,5133.76 L 4532.24,5007.42 L 4533.31,5005.2 L 4534.82,5003.25 L 4536.7,5001.65 L 4538.87,5000.48 L 4541.24,4999.78 L 4543.7,4999.59 L 4546.15,4999.92 L 4548.47,5000.75 L 4550.57,5002.05 L 4552.36,5003.75 L 4553.75,5005.79 L 4554.69,5008.07 L 4555.13,5010.5 L 4555.06,5012.97 L 4554.48,5015.37 L 4498.24,5172.84 L 4497.2,5175.01 L 4495.74,5176.94 L 4493.92,5178.52 L 4491.82,5179.7 L 4489.52,5180.43 L 4487.12,5180.67 L 4484.72,5180.43 L 4482.42,5179.7 L 4480.32,5178.52 L 4478.5,5176.93 L 4477.04,5175.01 L 4476,5172.84 L 4419.76,5015.37 L 4419.18,5012.97 L 4419.11,5010.5 L 4419.55,5008.07 L 4420.49,5005.79 L 4421.88,5003.75 L 4423.67,5002.05 L 4425.77,5000.75 L 4428.09,4999.92 L 4430.54,4999.59 L 4433,4999.78 L 4435.37,5000.48 L 4437.54,5001.65 L 4439.43,5003.25 L 4440.93,5005.2 L 4442,5007.42 L 4487.12,5133.76 z " style="fill-opacity:1.000000;fill:rgb(33,61,220);stroke:rgb(0,0,0);stroke-width:2"/></g>
<g fill-rule="evenodd"><path d="M 4757.63,5047.92 L 4757.63,5168.87 L 4757.37,5171.32 L 4756.61,5173.67 L 4755.37,5175.81 L 4753.72,5177.64 L 4751.72,5179.09 L 4749.47,5180.1 L 4747.05,5180.61 L 4744.58,5180.61 L 4742.17,5180.1 L 4739.91,5179.09 L 4737.92,5177.64 L 4736.26,5175.81 L 4735.03,5173.67 L 4734.27,5171.32 L 4734.01,5168.87 L 4734.01,5045.14 L 4734.57,5041.55 L 4735.26,5039.86 L 4747.49,5015.74 L 4748.72,5014.29 L 4751.79,5012.08 L 4774.28,5000.84 L 4777.74,4999.73 L 4815.12,4999.73 L 4818.58,5000.84 L 4835.46,5009.27 L 4836.26,5006.6 L 4837.49,5004.46 L 4839.14,5002.62 L 4841.14,5001.17 L 4843.4,5000.17 L 4845.81,4999.65 L 4848.28,4999.65 L 4850.7,5000.17 L 4852.95,5001.17 L 4854.95,5002.62 L 4856.6,5004.46 L 4857.84,5006.6 L 4858.6,5008.94 L 4858.86,5011.4 L 4858.86,5168.87 L 4858.6,5171.32 L 4857.84,5173.67 L 4856.6,5175.81 L 4854.95,5177.64 L 4852.95,5179.09 L 4850.7,5180.1 L 4848.28,5180.61 L 4845.81,5180.61 L 4843.4,5180.1 L 4841.14,5179.09 L 4839.14,5177.64 L 4837.49,5175.81 L 4836.26,5173.67 L 4835.5,5171.32 L 4835.24,5168.87 L 4835.24,5038.79 L 4828.8,5032.35 L 4810.52,5023.21 L 4782.35,5023.21 L 4765.87,5031.45 L 4757.63,5047.92 z " style="fill-opacity:1.000000;fill:rgb(135,112,233);stroke:rgb(0,0,0);stroke-width:2"/></g>
<g fill-rule="evenodd"><path d="M 4641.45,4963.71 L 4639.9,4964.98 L 4637.86,4966.07 L 4634.58,4966.9 L 4631.04,4966.74 L 4627.44,4965.39 L 4624.99,4963.51 L 4613.74,4952.26 L 4612.27,4950.47 L 4611.18,4948.43 L 4610.51,4946.21 L 4610.28,4943.91 L 4610.51,4941.61 L 4611.18,4939.39 L 4612.27,4937.35 L 4613.74,4935.56 L 4625.91,4923.49 L 4627.98,4922.14 L 4630.29,4921.26 L 4632.72,4920.87 L 4635.19,4921 L 4637.57,4921.64 L 4639.9,4922.85 L 4652.94,4935.56 L 4654.41,4937.35 L 4655.5,4939.39 L 4656.17,4941.61 L 4656.4,4943.91 L 4656.17,4946.21 L 4655.5,4948.43 L 4654.41,4950.47 L 4652.94,4952.26 L 4641.45,4963.71 z " style="fill-opacity:1.000000;fill:rgb(62,161,65);stroke:rgb(0,0,0);stroke-width:2"/></g>
<g fill-rule="evenodd"><path d="M 621.256,2288.09 L 621.256,2272.34 L 684.243,2272.34 L 684.243,2288.09 L 621.256,2288.09 z " style="fill-opacity:1.000000;fill:rgb(225,252,103);stroke:rgb(0,0,0);stroke-width:2"/></g>
<g fill-rule="evenodd"><path d="M 621.256,2248.72 L 621.256,2232.97 L 684.243,2232.97 L 684.243,2248.72 L 621.256,2248.72 z " style="fill-opacity:1.000000;fill:rgb(62,1,126);stroke:rgb(0,0,0);stroke-width:2"/></g>
<g fill-rule="evenodd"><path d="M 621.256,2209.35 L 621.256,2193.61 L 684.243,2193.61 L 684.243,2209.35 L 621.256,2209.35 z " style="fill-opacity:1.000000;fill:rgb(151,234,220);stroke:rgb(0,0,0);stroke-width:2"/></g>
<g fill-rule="evenodd"><path d="M 621.256,2169.99 L 621.256,2154.24 L 684.243,2154.24 L 684.243,2169.99 L 621.256,2169.99 z " style="fill-opacity:1.000000;fill:rgb(107,150,143);stroke:rgb(0,0,0);stroke-width:2"/></g>
<g fill-rule="evenodd"><path d="M 621.256,2130.62 L 621.256,2114.87 L 684.243,2114.87 L 684.243,2130.62 L 621.256,2130.62 z " style="fill-opacity:1.000000;fill:rgb(56,92,42);stroke:rgb(0,0,0);stroke-width:2"/></g>
<g fill-rule="evenodd"><path d="M 621.256,2091.25 L 621.256,2075.5 L 684.243,2075.5 L 684.243,2091.25 L 621.256,2091.25 z " style="fill-opacity:1.000000;fill:rgb(236,176,59);stroke:rgb(0,0,0);stroke-width:2"/></g>
<g fill-rule="evenodd"><path d="M 81.8977,4995.26 L 68.1907,4981.55 L 45.9824,4999.98 L 36.8751,5020.19 L 35.4273,5022.17 L 33.2994,5023.39 L 30.8616,5023.64 L 28.5318,5022.88 L 27.5359,5022.15 L 26.098,5020.16 L 25.59,5017.77 L 25.59,338.377 L 26.048,336.093 L 27.3539,334.165 L 29.3037,332.893 L 31.5956,332.473 L 32.7575,332.609 L 34.8893,333.547 L 36.4912,335.235 L 38.737,340.835 L 45.5885,351.092 L 68.1887,369.844 L 81.8957,356.14 L 66.5408,339.085 L 45.9664,303.45 L 33.2494,264.313 L 28.9478,223.39 L 33.2494,182.467 L 45.9664,143.33 L 66.5408,107.695 L 81.8977,90.6381 L 68.1907,76.9291 L 45.9824,95.3577 L 36.8751,115.572 L 35.4273,117.548 L 33.2994,118.768 L 30.8616,119.018 L 28.5318,118.256 L 26.7139,116.612 L 26.098,115.544 L 25.59,113.148 L 25.59,31.5007 L 26.038,29.2408 L 26.5839,28.2189 L 28.2118,26.591 L 30.3416,25.7091 L 31.4936,25.5971 L 104.96,25.5971 L 106.11,25.7091 L 108.24,26.591 L 109.867,28.2209 L 110.749,30.3488 L 110.749,32.6526 L 109.867,34.7804 L 108.238,36.4083 L 98.0764,43.1958 L 79.3239,65.796 L 92.4468,78.921 L 94.0747,77.1131 L 127.366,52.927 L 164.959,36.1903 L 205.208,27.635 L 246.357,27.635 L 286.606,36.1903 L 324.199,52.927 L 357.49,77.1131 L 359.116,78.919 L 372.239,65.798 L 353.811,43.5897 L 338.922,36.8822 L 336.944,35.4324 L 335.726,33.3065 L 335.476,30.8687 L 335.736,29.6628 L 336.966,27.543 L 337.882,26.719 L 340.122,25.7251 L 341.348,25.5971 L 7395.54,25.7091 L 7397.67,26.591 L 7398.57,27.325 L 7399.85,29.2408 L 7400.18,30.3488 L 7400.18,32.6526 L 7399.3,34.7804 L 7397.67,36.4083 L 7387.51,43.1958 L 7368.76,65.796 L 7381.88,78.921 L 7383.51,77.1131 L 7416.8,52.927 L 7454.39,36.1903 L 7494.64,27.635 L 7535.79,27.635 L 7576.04,36.1903 L 7613.63,52.927 L 7646.93,77.1131 L 7648.55,78.919 L 7661.67,65.798 L 7643.25,43.5897 L 7628.36,36.8822 L 7626.38,35.4324 L 7625.16,33.3065 L 7624.91,30.8687 L 7625.67,28.5389 L 7627.32,26.719 L 7629.56,25.7251 L 7630.78,25.5971 L 7709.5,25.5971 L 7711.76,26.0451 L 7712.78,26.591 L 7714.41,28.2189 L 7714.96,29.2408 L 7715.41,31.5007 L 7715.41,108.401 L 7714.95,110.683 L 7713.64,112.61 L 7711.69,113.884 L 7709.4,114.302 L 7707.12,113.802 L 7705.22,112.462 L 7703.98,110.491 L 7702.26,105.941 L 7695.41,95.6837 L 7672.81,76.9311 L 7659.1,90.6361 L 7674.46,107.695 L 7695.03,143.33 L 7707.75,182.467 L 7712.05,223.39 L 7707.75,264.313 L 7695.03,303.45 L 7674.46,339.085 L 7659.1,356.142 L 7672.81,369.846 L 7695.01,351.418 L 7704.12,331.203 L 7705.57,329.226 L 7707.7,328.008 L 7710.13,327.758 L 7711.34,328.018 L 7713.46,329.246 L 7714.28,330.164 L 7714.9,331.231 L 7715.41,333.629 L 7715.41,5008.02 L 7714.95,5010.3 L 7713.64,5012.23 L 7711.69,5013.5 L 7709.4,5013.92 L 7708.24,5013.79 L 7706.1,5012.85 L 7704.5,5011.16 L 7702.26,5005.56 L 7695.41,4995.3 L 7672.81,4976.55 L 7659.1,4990.26 L 7674.46,5007.31 L 7695.03,5042.95 L 7707.75,5082.09 L 7712.05,5123.01 L 7707.75,5163.93 L 7695.03,5203.07 L 7674.46,5238.71 L 7659.1,5255.76 L 7672.81,5269.47 L 7695.01,5251.04 L 7704.12,5230.82 L 7705.57,5228.85 L 7707.7,5227.63 L 7710.13,5227.38 L 7712.46,5228.14 L 7714.28,5229.78 L 7714.9,5230.85 L 7715.41,5233.25 L 7715.41,5312.5 L 7714.96,5314.76 L 7714.41,5315.78 L 7712.78,5317.4 L 7711.76,5317.95 L 7709.5,5318.4 L 7639.63,5318.4 L 7637.37,5317.95 L 7636.35,5317.4 L 7634.72,5315.78 L 7633.84,5313.65 L 7633.84,5311.34 L 7634.72,5309.22 L 7636.35,5307.59 L 7642.92,5303.2 L 7661.67,5280.6 L 7648.55,5267.48 L 7646.93,5269.29 L 7613.63,5293.47 L 7576.04,5310.21 L 7535.79,5318.76 L 7494.64,5318.76 L 7454.39,5310.21 L 7416.8,5293.47 L 7383.51,5269.29 L 7381.88,5267.48 L 7368.76,5280.6 L 7387.19,5302.81 L 7396.75,5307.11 L 7397.81,5307.73 L 7399.44,5309.56 L 7399.94,5310.69 L 7400.19,5313.13 L 7399.43,5315.46 L 7397.79,5317.27 L 7395.55,5318.27 L 357.59,5318.4 L 355.228,5317.91 L 354.173,5317.31 L 352.531,5315.54 L 351.737,5313.26 L 351.703,5312.05 L 352.373,5309.73 L 372.237,5285.6 L 359.118,5272.48 L 357.49,5274.29 L 324.199,5298.47 L 286.606,5315.21 L 246.357,5323.76 L 205.208,5323.76 L 164.959,5315.21 L 127.366,5298.47 L 94.0747,5274.29 L 92.4448,5272.48 L 79.3219,5285.6 L 99.1883,5309.73 L 99.8583,5312.05 L 99.8263,5313.26 L 99.0303,5315.54 L 97.3885,5317.31 L 96.3345,5317.91 L 93.9727,5318.4 L 30.3416,5318.29 L 28.2118,5317.4 L 26.5839,5315.78 L 25.702,5313.65 L 25.59,5312.5 L 25.59,5243 L 26.048,5240.71 L 27.3539,5238.79 L 29.3037,5237.51 L 31.5956,5237.09 L 33.8694,5237.59 L 35.7752,5238.93 L 37.0131,5240.9 L 38.737,5245.45 L 45.5885,5255.71 L 68.1887,5274.46 L 81.8957,5260.76 L 66.5408,5243.7 L 45.9664,5208.07 L 33.2494,5168.93 L 28.9478,5128.01 L 33.2494,5087.09 L 45.9664,5047.95 L 66.5408,5012.31 L 81.8977,4995.26M 530.733,5282.47 L 5170.42,5282.47 L 5170.42,4865.18 L 530.733,4865.18 L 530.733,5282.47M 1676.25,336.883 L 1663.66,339.385 L 1652.99,346.516 L 1272.84,726.665 L 1265.71,737.338 L 1263.2,749.925 L 1263.2,2208.03 L 1263.09,2209.19 L 1262.21,2211.32 L 1258.01,2215.67 L 1251.4,2231.58 L 1251.38,2248.8 L 1257.96,2264.73 L 1270.13,2276.92 L 1286.05,2283.53 L 1303.27,2283.55 L 1319.2,2276.97 L 1331.39,2264.8 L 1338,2248.88 L 1338.01,2231.66 L 1331.43,2215.73 L 1327.19,2211.32 L 1326.31,2209.19 L 1326.19,2208.04 L 1326.31,763.688 L 1327.19,761.558 L 1327.92,760.664 L 1686.99,401.6 L 1688.9,400.32 L 1691.16,399.872 L 6524.4,399.872 L 6526.66,400.32 L 6528.57,401.6 L 7561.79,1434.81 L 7563.07,1436.73 L 7563.52,1438.99 L 7563.52,2588.4 L 7563.4,2589.56 L 7562.52,2591.69 L 7558.32,2596.04 L 7551.71,2611.95 L 7551.69,2629.17 L 7558.27,2645.1 L 7570.45,2657.29 L 7586.36,2663.9 L 7603.58,2663.92 L 7619.51,2657.34 L 7631.7,2645.17 L 7638.31,2629.25 L 7638.32,2612.03 L 7631.74,2596.1 L 7627.5,2591.69 L 7626.62,2589.56 L 7626.5,2588.41 L 7626.5,1424.08 L 7624,1411.49 L 7616.87,1400.81 L 6562.57,346.518 L 6551.9,339.387 L 6539.32,336.883 L 1676.25,336.883M 6011.55,1598.75 L 2786.75,1598.75 L 2785.59,1598.64 L 2783.46,1597.76 L 2777.15,1591.59 L 2761.23,1584.98 L 2744.01,1584.96 L 2728.09,1591.54 L 2715.9,1603.71 L 2709.29,1619.63 L 2709.27,1636.85 L 2715.85,1652.78 L 2728.02,1664.97 L 2743.94,1671.58 L 2761.16,1671.59 L 2777.08,1665.01 L 2783.47,1658.8 L 2785.59,1657.92 L 2786.75,1657.81 L 5998.61,1657.92 L 5999.71,1658.25 L 6001.63,1659.53 L 7295.99,2953.9 L 7297.27,2955.81 L 7297.61,2956.92 L 7297.72,2965.75 L 7304.29,2981.67 L 7316.46,2993.87 L 7332.38,3000.47 L 7349.6,3000.49 L 7365.53,2993.91 L 7377.72,2981.74 L 7384.33,2965.82 L 7384.34,2948.6 L 7377.76,2932.68 L 7365.59,2920.49 L 7349.68,2913.88 L 7340.77,2913.76 L 7339.67,2913.42 L 7337.75,2912.14 L 6033.42,1607.81 L 6023.39,1601.11 L 6011.55,1598.75M 369.665,4995.26 L 385.024,5012.31 L 405.599,5047.95 L 418.316,5087.09 L 422.617,5128.01 L 418.316,5168.93 L 405.599,5208.07 L 385.024,5243.7 L 369.667,5260.76 L 383.37,5274.47 L 405.579,5256.04 L 440.88,5177.68 L 443.52,5091.58 L 412.824,5010.56 L 405.973,5000.3 L 383.372,4981.55 L 369.665,4995.26M 359.116,4983.54 L 372.239,4970.42 L 353.811,4948.21 L 275.453,4912.91 L 189.355,4910.27 L 108.334,4940.96 L 98.0764,4947.82 L 79.3239,4970.42 L 92.4468,4983.54 L 94.0747,4981.73 L 127.366,4957.55 L 164.959,4940.81 L 205.208,4932.25 L 246.357,4932.25 L 286.606,4940.81 L 324.199,4957.55 L 357.49,4981.73 L 359.116,4983.54M 448.041,3315.57 L 448.041,3298.82 L 445.102,3295.88 L 373.261,3295.88 L 366.028,3298.88 L 360.492,3304.41 L 357.494,3311.65 L 357.494,3363.8 L 360.432,3366.74 L 377.179,3366.74 L 377.179,3315.57 L 448.041,3315.57M 463.786,3315.57 L 534.647,3315.57 L 534.647,3366.74 L 551.391,3366.74 L 554.333,3363.8 L 554.333,3311.65 L 551.335,3304.42 L 545.798,3298.88 L 538.566,3295.88 L 466.724,3295.88 L 463.786,3298.82 L 463.786,3315.57M 534.647,3382.49 L 534.647,3433.67 L 463.786,3433.67 L 463.786,3450.41 L 466.724,3453.35 L 538.558,3453.35 L 545.796,3450.36 L 551.333,3444.82 L 554.333,3437.58 L 554.333,3385.43 L 551.393,3382.49 L 534.647,3382.49M 377.179,3382.49 L 360.432,3382.49 L 357.494,3385.43 L 357.494,3437.58 L 360.49,3444.82 L 366.028,3450.35 L 373.265,3453.35 L 445.1,3453.35 L 448.041,3450.41 L 448.041,3433.67 L 377.179,3433.67 L 377.179,3382.49M 646.79,3217.15 L 648.52,3216.02 L 650.78,3215.58 L 655.867,3215.69 L 656.975,3216.02 L 658.703,3217.15 L 700.986,3217.15 L 703.141,3215.63 L 705.401,3215.18 L 2260.59,3215.29 L 2261.7,3215.63 L 2263.62,3216.91 L 2767.9,3721.19 L 2777.92,3727.89 L 2789.77,3730.25 L 5861.35,3730.25 L 5873.2,3727.89 L 5883.23,3721.19 L 6142.44,3461.97 L 6144.36,3460.69 L 6145.47,3460.36 L 6154.29,3460.25 L 6170.22,3453.68 L 6182.41,3441.5 L 6189.02,3425.59 L 6189.04,3408.37 L 6182.46,3392.44 L 6170.29,3380.25 L 6154.37,3373.64 L 6137.15,3373.63 L 6121.22,3380.21 L 6109.03,3392.38 L 6102.42,3408.29 L 6102.31,3417.19 L 6101.97,3418.3 L 6100.69,3420.22 L 5851.44,3669.46 L 5849.53,3670.74 L 5847.27,3671.19 L 5826.49,3671.19 L 5824.23,3670.74 L 5823.21,3670.2 L 5821.58,3668.57 L 5820.7,3666.44 L 5820.7,3664.14 L 5821.58,3662.01 L 5822.31,3661.11 L 6175.44,3307.99 L 6177.36,3306.71 L 6178.47,3306.37 L 6187.29,3306.26 L 6203.22,3299.69 L 6215.41,3287.52 L 6222.02,3271.6 L 6222.03,3254.38 L 6216.8,3241.71 L 6216.35,3239.45 L 6216.8,3237.19 L 6217.35,3236.17 L 6218.97,3234.54 L 6219.99,3234 L 6222.25,3233.55 L 6941.37,3233.55 L 6942.52,3233.66 L 6944.65,3234.54 L 6954.89,3244.65 L 6970.81,3251.26 L 6988.03,3251.27 L 7003.96,3244.69 L 7016.15,3232.52 L 7022.76,3216.6 L 7022.77,3199.39 L 7016.19,3183.46 L 7004.02,3171.27 L 6988.1,3164.66 L 6970.89,3164.64 L 6954.96,3171.22 L 6945.52,3180.64 L 6943.61,3181.92 L 6941.35,3182.37 L 5507.62,3182.37 L 5505.36,3181.92 L 5503.44,3180.64 L 5461.87,3138.91 L 5461.33,3137.88 L 5460.88,3135.62 L 5460.89,3122.39 L 5453.39,3104.13 L 5453.39,3101.83 L 5453.73,3100.72 L 5455.01,3098.81 L 5455.9,3098.07 L 5458.03,3097.19 L 5459.18,3097.08 L 6347.53,3097.08 L 6359.38,3094.73 L 6369.4,3088.03 L 6573.79,2883.64 L 6575.71,2882.36 L 6577.97,2881.91 L 6580.23,2882.36 L 6582.15,2883.64 L 6583.43,2885.56 L 6583.76,2886.66 L 6583.76,2888.97 L 6581.99,2893.53 L 6581.97,2910.75 L 6588.55,2926.68 L 6594.03,2932.17 L 6595.31,2934.08 L 6595.76,2936.34 L 6595.76,2961 L 6598.11,2972.83 L 6604.81,2982.86 L 6755.79,3133.83 L 6765.81,3140.53 L 6777.66,3142.89 L 7368.24,3142.89 L 7380.08,3140.54 L 7390.11,3133.84 L 7446.49,3077.45 L 7453.19,3067.43 L 7455.55,3055.58 L 7455.55,2790.51 L 7456,2788.25 L 7457.28,2786.33 L 7458.17,2785.6 L 7460.3,2784.72 L 7462.61,2784.72 L 7464.74,2785.6 L 7466.36,2787.23 L 7471.88,2800.29 L 7484.05,2812.48 L 7499.97,2819.09 L 7517.19,2819.1 L 7533.12,2812.52 L 7536.58,2809.06 L 7538.5,2807.78 L 7539.61,2807.45 L 7541.91,2807.45 L 7543.01,2807.78 L 7544.93,2809.06 L 7562.95,2827.09 L 7564.23,2829 L 7564.68,2831.26 L 7564.68,4126.41 L 7564.23,4128.67 L 7562.95,4130.58 L 7338.73,4354.81 L 7336.81,4356.09 L 7334.55,4356.54 L 3024.24,4356.54 L 3021.98,4356.09 L 3020.07,4354.81 L 2997.87,4332.45 L 2997.32,4331.43 L 2996.88,4329.17 L 2996.88,4321.5 L 2990.3,4305.57 L 2978.13,4293.38 L 2962.22,4286.77 L 2945,4286.75 L 2929.07,4293.33 L 2916.88,4305.51 L 2910.27,4321.42 L 2910.25,4338.64 L 2916.83,4354.57 L 2929,4366.76 L 2944.92,4373.37 L 2952.67,4373.37 L 2953.82,4373.49 L 2955.95,4374.37 L 2988.28,4406.54 L 2998.31,4413.24 L 3010.15,4415.59 L 7348.64,4415.59 L 7360.49,4413.24 L 7370.51,4406.54 L 7614.68,4162.37 L 7621.38,4152.34 L 7623.74,4140.5 L 7623.74,2817.18 L 7621.38,2805.33 L 7614.68,2795.3 L 7574.7,2755.32 L 7564.67,2748.62 L 7552.83,2746.26 L 7542.78,2746.26 L 7540.52,2745.81 L 7538.6,2744.53 L 7533.18,2739.1 L 7517.26,2732.49 L 7500.04,2732.48 L 7484.12,2739.05 L 7471.92,2751.23 L 7466.91,2763.32 L 7465.63,2765.23 L 7464.73,2765.96 L 7462.6,2766.84 L 7460.3,2766.84 L 7458.17,2765.96 L 7456.54,2764.33 L 7455.66,2762.21 L 7455.55,2761.06 L 7455.55,2540.6 L 7453.19,2528.75 L 7449.52,2523.26 L 7448.64,2521.13 L 7448.54,2510.64 L 7441.96,2494.71 L 7429.79,2482.52 L 7413.87,2475.91 L 7396.65,2475.9 L 7380.73,2482.47 L 7368.53,2494.65 L 7361.93,2510.56 L 7361.91,2527.78 L 7368.49,2543.71 L 7380.66,2555.9 L 7393.87,2561.51 L 7395.5,2563.14 L 7396.38,2565.27 L 7396.5,2566.42 L 7396.5,3041.49 L 7396.05,3043.75 L 7394.77,3045.67 L 7358.33,3082.11 L 7356.41,3083.39 L 7354.15,3083.84 L 6911.3,3083.84 L 6909.04,3083.39 L 6908.02,3082.84 L 6906.39,3081.21 L 6905.51,3079.08 L 6905.51,3076.78 L 6906.39,3074.65 L 6910.95,3069.93 L 6917.56,3054.02 L 6917.58,3036.8 L 6911,3020.87 L 6898.83,3008.68 L 6893.83,3006.6 L 6891.92,3005.32 L 6890.64,3003.41 L 6890.19,3001.15 L 6890.19,2617.19 L 6887.84,2605.35 L 6881.14,2595.32 L 6058.27,1772.45 L 6056.99,1770.53 L 6050.07,1753.77 L 6037.9,1741.58 L 6021.98,1734.97 L 6004.76,1734.95 L 5988.83,1741.53 L 5976.64,1753.7 L 5970.03,1769.62 L 5970.02,1786.84 L 5976.6,1802.77 L 5988.77,1814.96 L 6004.68,1821.57 L 6021.45,1821.58 L 6023.7,1822.03 L 6025.61,1823.31 L 6719.51,2517.2 L 6720.79,2519.12 L 6721.13,2520.22 L 6721.13,2522.53 L 6720.79,2523.64 L 6719.51,2525.55 L 6718.62,2526.29 L 6716.49,2527.17 L 6689.96,2527.28 L 6687.7,2526.83 L 6685.78,2525.55 L 6582.53,2422.3 L 6581.24,2420.38 L 6580.91,2419.27 L 6580.8,2410.44 L 6574.23,2394.52 L 6562.06,2382.33 L 6546.14,2375.72 L 6528.92,2375.7 L 6512.99,2382.28 L 6500.8,2394.45 L 6494.19,2410.37 L 6494.18,2427.59 L 6500.76,2443.52 L 6512.93,2455.71 L 6528.84,2462.32 L 6537.75,2462.43 L 6538.85,2462.77 L 6540.77,2464.05 L 6653.99,2577.28 L 6664.02,2583.98 L 6675.87,2586.33 L 6718.4,2586.33 L 6719.55,2586.45 L 6721.68,2587.33 L 6772.95,2638.6 L 6773.49,2639.62 L 6773.94,2641.88 L 6773.94,2658.38 L 6773.49,2660.64 L 6772.21,2662.55 L 6771.32,2663.29 L 6769.19,2664.17 L 6768.04,2664.28 L 6765.78,2663.83 L 6764.76,2663.28 L 6752.44,2651.11 L 6736.52,2644.5 L 6719.31,2644.48 L 6703.38,2651.06 L 6691.19,2663.23 L 6684.58,2679.15 L 6684.57,2686.9 L 6684.46,2688.05 L 6683.58,2690.18 L 6654.94,2718.98 L 6653.02,2720.26 L 6651.91,2720.6 L 6649.61,2720.59 L 6648.5,2720.26 L 6646.58,2718.98 L 6645.3,2717.06 L 6643.42,2712.49 L 6631.25,2700.3 L 6615.33,2693.69 L 6598.11,2693.68 L 6582.19,2700.26 L 6570,2712.43 L 6563.39,2728.35 L 6563.38,2736.1 L 6563.27,2737.25 L 6562.39,2739.37 L 6534.95,2766.98 L 6533.03,2768.26 L 6531.92,2768.59 L 6529.62,2768.59 L 6528.51,2768.25 L 6526.59,2766.97 L 6525.31,2765.05 L 6523.43,2760.49 L 6511.26,2748.3 L 6495.34,2741.69 L 6478.12,2741.67 L 6462.2,2748.25 L 6450.01,2760.43 L 6443.4,2776.34 L 6443.39,2784.09 L 6443.28,2785.24 L 6442.4,2787.37 L 6415.96,2813.97 L 6414.04,2815.25 L 6412.93,2815.58 L 6410.63,2815.58 L 6409.52,2815.25 L 6407.61,2813.96 L 6406.33,2812.05 L 6403.04,2804.09 L 6390.87,2791.9 L 6374.95,2785.29 L 6357.73,2785.27 L 6341.81,2791.85 L 6329.62,2804.02 L 6323.01,2819.94 L 6323,2827.69 L 6322.89,2828.84 L 6322.01,2830.97 L 6274.3,2878.83 L 6272.39,2880.11 L 6270.13,2880.56 L 1473.4,2880.56 L 1471.14,2880.11 L 1470.12,2879.56 L 1468.49,2877.93 L 1467.61,2875.8 L 1467.61,2873.5 L 1468.49,2871.37 L 1469.23,2870.48 L 1481.78,2857.95 L 1488.38,2842.03 L 1488.4,2824.81 L 1481.82,2808.89 L 1469.65,2796.69 L 1461.95,2793.5 L 1460.93,2792.95 L 1459.31,2791.32 L 1458.43,2789.2 L 1458.43,2786.89 L 1458.76,2785.79 L 1459.31,2784.77 L 1460.94,2783.14 L 1463.07,2782.26 L 2799.17,2782.15 L 2811.01,2779.79 L 2821.04,2773.09 L 3013.29,2580.84 L 3015.21,2579.56 L 3016.31,2579.23 L 3027.34,2579.12 L 3043.26,2572.54 L 3055.45,2560.37 L 3062.06,2544.46 L 3062.18,2533.35 L 3063.06,2531.22 L 3063.8,2530.33 L 3166.65,2427.47 L 3168.57,2426.2 L 3170.83,2425.75 L 3847.94,2425.75 L 3849.09,2425.86 L 3851.22,2426.74 L 3857.53,2432.91 L 3873.45,2439.52 L 3890.67,2439.53 L 3906.6,2432.95 L 3918.79,2420.78 L 3925.4,2404.87 L 3925.41,2387.65 L 3918.83,2371.72 L 3906.66,2359.53 L 3890.74,2352.92 L 3873.53,2352.9 L 3857.6,2359.48 L 3851.21,2365.7 L 3849.09,2366.58 L 3847.94,2366.69 L 3156.74,2366.69 L 3144.9,2369.05 L 3134.87,2375.75 L 3018.95,2491.51 L 3016.82,2492.39 L 3010.19,2492.5 L 3000.41,2496.41 L 2998.11,2496.41 L 2997,2496.07 L 2995.09,2494.79 L 2994.36,2493.9 L 2993.48,2491.77 L 2993.48,2489.47 L 2993.81,2488.36 L 2995.09,2486.45 L 3143.63,2337.91 L 3150.33,2327.88 L 3152.68,2316.04 L 3152.8,2248.84 L 3153.68,2246.71 L 3154.42,2245.82 L 3159.85,2240.4 L 3166.45,2224.48 L 3166.47,2207.26 L 3159.89,2191.34 L 3147.72,2179.14 L 3131.8,2172.53 L 3114.58,2172.52 L 3098.66,2179.1 L 3086.47,2191.27 L 3079.86,2207.19 L 3079.84,2224.4 L 3086.42,2240.33 L 3091.9,2245.82 L 3092.64,2246.72 L 3093.52,2248.84 L 3093.63,2301.95 L 3093.18,2304.21 L 3092.63,2305.23 L 2715.14,2682.73 L 2714.12,2683.28 L 2711.86,2683.73 L 2357.9,2683.73 L 2355.64,2683.28 L 2354.62,2682.73 L 2352.99,2681.1 L 2352.45,2680.08 L 2352.11,2678.97 L 2352.11,2676.67 L 2352.99,2674.54 L 2353.73,2673.65 L 2364.14,2663.24 L 2366.05,2661.96 L 2368.32,2661.51 L 2377.19,2661.51 L 2393.11,2654.94 L 2405.3,2642.77 L 2411.91,2626.85 L 2411.93,2609.63 L 2405.35,2593.7 L 2393.18,2581.51 L 2378.05,2575.1 L 2376.42,2573.47 L 2375.87,2572.45 L 2375.43,2570.19 L 2375.88,2567.93 L 2376.42,2566.91 L 2378.05,2565.29 L 2393.11,2558.94 L 2405.3,2546.77 L 2411.91,2530.86 L 2411.93,2513.64 L 2405.35,2497.71 L 2393.18,2485.52 L 2377.26,2478.91 L 2360.04,2478.89 L 2344.12,2485.47 L 2331.93,2497.65 L 2325.32,2513.56 L 2325.2,2522.46 L 2324.86,2523.57 L 2323.58,2525.49 L 2245.81,2603.26 L 2243.89,2604.54 L 2241.63,2604.99 L 780.815,2604.88 L 778.686,2603.99 L 777.058,2602.37 L 776.176,2600.24 L 776.176,2597.93 L 776.512,2596.83 L 777.058,2595.8 L 779.21,2593.49 L 785.909,2583.46 L 787.299,2576.49 L 788.181,2574.36 L 788.915,2573.46 L 790.831,2572.18 L 793.091,2571.74 L 1603.88,2571.74 L 1615.73,2569.38 L 1625.76,2562.68 L 1639.39,2549.05 L 1641.31,2547.77 L 1643.57,2547.32 L 1651.24,2547.32 L 1667.17,2540.75 L 1679.36,2528.58 L 1685.97,2512.66 L 1685.99,2495.44 L 1679.41,2479.51 L 1667.23,2467.32 L 1651.32,2460.71 L 1634.1,2460.7 L 1618.17,2467.28 L 1605.98,2479.45 L 1599.37,2495.36 L 1599.37,2503.12 L 1598.92,2505.37 L 1597.64,2507.29 L 1593.08,2511.69 L 1592.06,2512.23 L 1589.8,2512.68 L 1570.93,2512.68 L 1568.67,2512.23 L 1566.75,2510.95 L 1566.02,2510.05 L 1565.47,2509.03 L 1565.03,2506.77 L 1565.48,2504.51 L 1571.98,2488.86 L 1571.99,2471.64 L 1565.41,2455.71 L 1553.24,2443.52 L 1537.33,2436.91 L 1520.11,2436.9 L 1504.18,2443.48 L 1500.97,2446.53 L 1498.84,2447.41 L 1497.69,2447.52 L 1299,2447.52 L 1296.74,2447.07 L 1294.82,2445.79 L 1294.09,2444.89 L 1293.54,2443.87 L 1293.1,2441.61 L 1293.55,2439.35 L 1298.4,2427.66 L 1298.42,2410.45 L 1292.71,2396.63 L 1292.26,2394.37 L 1292.71,2392.11 L 1293.99,2390.2 L 1294.88,2389.47 L 1297.01,2388.59 L 1631.47,2388.59 L 1632.58,2388.92 L 1634.49,2390.2 L 1745.22,2500.93 L 1746.5,2502.85 L 1746.84,2503.96 L 1746.95,2512.78 L 1753.52,2528.71 L 1765.7,2540.9 L 1781.61,2547.51 L 1798.83,2547.53 L 1814.76,2540.95 L 1826.95,2528.78 L 1833.56,2512.86 L 1833.57,2495.64 L 1826.99,2479.71 L 1814.82,2467.52 L 1798.91,2460.91 L 1791.16,2460.91 L 1788.9,2460.46 L 1787.88,2459.91 L 1666.28,2338.48 L 1656.25,2331.78 L 1644.42,2329.42 L 705.401,2329.42 L 703.14,2328.97 L 700.988,2327.45 L 658.699,2327.45 L 656.975,2328.58 L 654.717,2329.03 L 649.628,2328.91 L 648.52,2328.58 L 646.8,2327.45 L 604.507,2327.45 L 601.569,2330.39 L 601.569,2331.37 L 603.867,2336.92 L 604.315,2339.2 L 603.847,2341.48 L 602.769,2343.27 L 601.069,2351.66 L 601.069,2366.27 L 602.537,2374.08 L 603.933,2376.45 L 604.351,2378.67 L 603.903,2380.89 L 601.569,2386.53 L 601.569,2387.5 L 604.507,2390.44 L 646.79,2390.44 L 648.52,2389.32 L 650.78,2388.87 L 655.867,2388.98 L 656.975,2389.32 L 658.703,2390.44 L 700.986,2390.44 L 703.141,2388.92 L 705.401,2388.47 L 1212.05,2388.47 L 1214.31,2388.92 L 1216.22,2390.2 L 1217.5,2392.12 L 1217.95,2394.38 L 1217.5,2396.64 L 1213.69,2405.53 L 1212.95,2406.43 L 1211.04,2407.7 L 1208.78,2408.15 L 705.401,2408.15 L 703.14,2407.7 L 700.988,2406.19 L 658.699,2406.19 L 656.975,2407.31 L 654.717,2407.76 L 649.628,2407.65 L 648.52,2407.31 L 646.8,2406.19 L 604.507,2406.19 L 601.569,2409.12 L 601.569,2410.1 L 603.867,2415.65 L 604.315,2417.94 L 603.847,2420.22 L 602.769,2422 L 601.069,2430.39 L 601.069,2445.01 L 602.537,2452.81 L 603.891,2455.12 L 604.303,2457.37 L 603.829,2459.61 L 602.769,2461.37 L 601.069,2469.76 L 601.069,2484.37 L 602.537,2492.18 L 603.891,2494.49 L 604.303,2496.75 L 603.827,2498.99 L 602.769,2500.73 L 601.069,2509.13 L 601.069,2523.74 L 602.537,2531.55 L 603.933,2533.92 L 604.351,2536.14 L 603.903,2538.36 L 601.569,2543.99 L 601.569,2544.97 L 604.509,2547.91 L 646.79,2547.91 L 648.52,2546.78 L 650.78,2546.34 L 655.867,2546.45 L 656.975,2546.78 L 658.701,2547.91 L 700.984,2547.91 L 702.12,2546.94 L 704.247,2546.05 L 718.27,2545.94 L 720.528,2546.39 L 722.444,2547.67 L 728.218,2553.6 L 728.764,2554.62 L 729.213,2556.88 L 728.764,2559.79 L 727.484,2561.7 L 724.402,2564.63 L 723.38,2565.17 L 721.122,2565.62 L 705.401,2565.62 L 703.14,2565.17 L 700.988,2563.65 L 658.703,2563.66 L 656.975,2564.78 L 654.717,2565.23 L 649.628,2565.12 L 648.52,2564.78 L 646.796,2563.66 L 604.507,2563.65 L 601.569,2566.59 L 601.569,2567.57 L 603.867,2573.12 L 604.315,2575.4 L 603.847,2577.69 L 602.769,2579.47 L 601.069,2587.86 L 601.069,2602.47 L 602.537,2610.28 L 603.891,2612.59 L 604.303,2614.85 L 603.827,2617.09 L 602.769,2618.83 L 601.069,2627.23 L 601.069,2641.84 L 602.537,2649.65 L 603.891,2651.96 L 604.303,2654.21 L 603.827,2656.46 L 602.769,2658.2 L 601.069,2666.6 L 601.069,2681.21 L 602.537,2689.02 L 603.891,2691.33 L 604.303,2693.58 L 603.827,2695.82 L 602.769,2697.57 L 601.069,2705.96 L 601.069,2720.57 L 602.537,2728.39 L 603.891,2730.69 L 604.303,2732.95 L 603.829,2735.19 L 602.769,2736.94 L 601.069,2745.33 L 601.069,2759.94 L 602.537,2767.75 L 603.933,2770.12 L 604.351,2772.34 L 603.903,2774.56 L 601.569,2780.2 L 601.569,2781.17 L 604.509,2784.11 L 646.79,2784.11 L 648.52,2782.99 L 650.78,2782.54 L 655.867,2782.65 L 656.975,2782.99 L 658.701,2784.11 L 700.986,2784.11 L 703.141,2782.59 L 705.401,2782.15 L 1425.95,2782.15 L 1428.21,2782.59 L 1430.13,2783.88 L 1431.41,2785.79 L 1431.86,2788.05 L 1431.41,2790.31 L 1430.12,2792.23 L 1429.23,2792.96 L 1420.59,2796.65 L 1416.24,2800.83 L 1414.11,2801.71 L 1412.96,2801.83 L 705.401,2801.83 L 703.14,2801.37 L 700.988,2799.86 L 658.703,2799.86 L 656.975,2800.98 L 654.717,2801.43 L 649.628,2801.32 L 648.52,2800.98 L 646.796,2799.86 L 604.507,2799.86 L 601.569,2802.79 L 601.569,2803.77 L 603.867,2809.32 L 604.315,2811.6 L 603.847,2813.89 L 602.769,2815.67 L 601.069,2824.06 L 601.069,2838.68 L 602.537,2846.48 L 603.933,2848.85 L 604.351,2851.08 L 603.903,2853.3 L 601.569,2858.93 L 601.569,2859.91 L 604.509,2862.85 L 646.792,2862.85 L 648.52,2861.72 L 650.78,2861.27 L 655.867,2861.39 L 656.975,2861.72 L 658.699,2862.85 L 700.986,2862.85 L 703.141,2861.33 L 705.401,2860.88 L 1408.89,2860.88 L 1411.15,2861.33 L 1413.07,2862.61 L 1421.66,2871.38 L 1422.54,2873.51 L 1422.66,2874.66 L 1422.21,2876.92 L 1420.93,2878.83 L 1419.01,2880.11 L 1416.75,2880.56 L 705.401,2880.56 L 703.14,2880.11 L 700.988,2878.59 L 658.703,2878.59 L 656.975,2879.72 L 654.717,2880.17 L 649.628,2880.05 L 648.52,2879.72 L 646.796,2878.59 L 604.507,2878.59 L 601.569,2881.53 L 601.569,2882.51 L 603.867,2888.06 L 604.315,2890.34 L 603.847,2892.62 L 602.769,2894.4 L 601.069,2902.8 L 601.069,2917.41 L 602.537,2925.22 L 603.891,2927.53 L 604.303,2929.78 L 603.829,2932.02 L 602.769,2933.77 L 601.069,2942.17 L 601.069,2956.78 L 602.537,2964.58 L 603.933,2966.95 L 604.351,2969.18 L 603.903,2971.4 L 601.569,2977.03 L 601.569,2978.01 L 604.509,2980.95 L 646.792,2980.95 L 648.52,2979.82 L 650.78,2979.37 L 655.867,2979.49 L 656.975,2979.82 L 658.699,2980.95 L 700.986,2980.95 L 703.141,2979.43 L 705.401,2978.98 L 6308.69,2978.98 L 6310.95,2979.43 L 6312.86,2980.71 L 6314.14,2982.62 L 6314.59,2984.88 L 6314.14,2987.14 L 6313.6,2988.16 L 6304.99,2996.93 L 6303.08,2998.21 L 6300.82,2998.66 L 705.401,2998.66 L 703.14,2998.21 L 700.988,2996.69 L 658.701,2996.69 L 656.975,2997.82 L 654.717,2998.27 L 649.628,2998.15 L 648.52,2997.82 L 646.796,2996.69 L 604.507,2996.69 L 601.569,2999.63 L 601.569,3000.61 L 603.867,3006.16 L 604.315,3008.44 L 603.847,3010.72 L 602.769,3012.51 L 601.069,3020.9 L 601.069,3035.51 L 602.537,3043.32 L 603.891,3045.63 L 604.303,3047.88 L 603.829,3050.12 L 602.769,3051.87 L 601.069,3060.27 L 601.069,3074.88 L 602.537,3082.68 L 603.933,3085.05 L 604.351,3087.28 L 603.903,3089.5 L 601.569,3095.13 L 601.569,3096.11 L 604.509,3099.05 L 646.792,3099.05 L 648.52,3097.92 L 650.78,3097.48 L 655.867,3097.59 L 656.975,3097.92 L 658.699,3099.05 L 700.986,3099.05 L 703.141,3097.53 L 705.401,3097.08 L 2553.35,3097.19 L 2555.47,3098.07 L 2557.1,3099.7 L 2557.98,3101.83 L 2557.98,3104.14 L 2557.65,3105.25 L 2556.36,3107.16 L 2544.91,3118.6 L 2538.3,3134.51 L 2538.28,3151.73 L 2544.86,3167.66 L 2557.03,3179.85 L 2572.95,3186.46 L 2581.85,3186.58 L 2582.96,3186.91 L 2584.87,3188.19 L 2823.09,3426.41 L 2833.12,3433.11 L 2844.97,3435.47 L 3902.93,3435.47 L 3904.08,3435.58 L 3906.21,3436.46 L 3912.53,3442.63 L 3928.45,3449.24 L 3945.66,3449.26 L 3961.59,3442.68 L 3973.78,3430.51 L 3980.39,3414.59 L 3980.41,3397.37 L 3973.83,3381.44 L 3961.66,3369.25 L 3945.74,3362.64 L 3928.52,3362.63 L 3912.59,3369.21 L 3906.21,3375.42 L 3904.08,3376.3 L 3902.93,3376.42 L 2857.9,3376.3 L 2856.79,3375.97 L 2854.88,3374.69 L 2626.63,3146.44 L 2625.35,3144.52 L 2625.02,3143.41 L 2624.91,3134.59 L 2618.33,3118.66 L 2606.84,3107.15 L 2605.56,3105.24 L 2605.12,3102.98 L 2605.57,3100.72 L 2606.85,3098.81 L 2607.74,3098.07 L 2609.87,3097.19 L 2611.02,3097.08 L 2987.5,3097.19 L 2988.61,3097.53 L 2990.52,3098.81 L 2991.8,3100.73 L 2992.25,3102.99 L 2991.8,3105.25 L 2988.86,3112.32 L 2988.85,3129.53 L 2995.43,3145.46 L 3007.6,3157.65 L 3023.52,3164.26 L 3038.68,3164.28 L 3040.55,3164.58 L 3042.22,3165.46 L 3047.76,3169.62 L 3051.25,3171.3 L 3054.71,3173.53 L 3056.74,3173.99 L 3058.63,3174.85 L 3062.74,3175.13 L 3066.55,3175.89 L 3914.77,3176 L 3915.88,3176.34 L 3917.79,3177.62 L 4009.23,3269.05 L 4010.51,3270.97 L 4010.96,3273.23 L 4010.96,3468.57 L 4010.85,3469.72 L 4009.96,3471.85 L 4003.8,3478.17 L 3997.19,3494.09 L 3997.17,3511.3 L 4003.75,3527.23 L 4015.92,3539.42 L 4031.84,3546.03 L 4049.06,3546.05 L 4064.98,3539.47 L 4077.17,3527.3 L 4083.78,3511.38 L 4083.8,3494.16 L 4077.22,3478.24 L 4071,3471.85 L 4070.12,3469.72 L 4070.01,3468.57 L 4070.01,3259.14 L 4067.66,3247.3 L 4060.96,3237.27 L 3949.58,3125.89 L 3939.55,3119.19 L 3927.72,3116.84 L 3081.26,3116.84 L 3080.11,3116.72 L 3077.98,3115.84 L 3076.35,3114.21 L 3072.19,3104.13 L 3072.19,3101.83 L 3072.53,3100.72 L 3073.07,3099.7 L 3074.7,3098.07 L 3076.83,3097.19 L 3077.98,3097.08 L 5375.96,3097.08 L 5378.23,3097.54 L 5380.15,3098.83 L 5381.42,3100.76 L 5381.86,3103.04 L 5381.38,3105.31 L 5374.28,3122.32 L 5374.26,3139.53 L 5380.84,3155.46 L 5393.01,3167.65 L 5408.93,3174.26 L 5422.26,3174.27 L 5423.41,3174.39 L 5425.53,3175.27 L 5476.07,3225.64 L 5484.82,3231.49 L 5495.16,3233.55 L 6135.2,3233.55 L 6137.46,3234 L 6139.37,3235.28 L 6140.11,3236.17 L 6140.99,3238.3 L 6140.98,3240.61 L 6135.42,3254.3 L 6135.3,3263.21 L 6134.97,3264.31 L 6133.69,3266.23 L 5781.05,3618.87 L 5780.15,3619.6 L 5778.02,3620.48 L 2835.3,3620.48 L 2834.19,3620.15 L 2832.28,3618.87 L 2339.23,3125.82 L 2329.2,3119.12 L 2317.36,3116.76 L 705.401,3116.76 L 703.14,3116.31 L 700.988,3114.79 L 658.701,3114.79 L 656.975,3115.92 L 654.717,3116.37 L 649.628,3116.25 L 648.52,3115.92 L 646.796,3114.79 L 604.507,3114.79 L 601.569,3117.73 L 601.569,3118.71 L 603.867,3124.26 L 604.315,3126.54 L 603.847,3128.82 L 602.769,3130.61 L 601.069,3139 L 601.069,3153.61 L 602.537,3161.42 L 603.891,3163.73 L 604.303,3165.98 L 603.829,3168.22 L 602.769,3169.97 L 601.069,3178.37 L 601.069,3192.98 L 602.537,3200.79 L 603.933,3203.15 L 604.351,3205.38 L 603.903,3207.6 L 601.569,3213.23 L 601.569,3214.21 L 604.507,3217.15 L 646.79,3217.15M 621.256,3232.89 L 604.507,3232.89 L 601.569,3235.83 L 601.569,3236.81 L 604.565,3244.04 L 610.103,3249.58 L 617.34,3252.58 L 641.934,3252.58 L 644.876,3249.64 L 644.876,3232.9 L 621.256,3232.89M 660.621,3232.9 L 660.621,3249.64 L 663.561,3252.58 L 688.153,3252.58 L 695.39,3249.58 L 700.928,3244.05 L 703.927,3236.81 L 703.927,3235.83 L 700.988,3232.89 L 660.621,3232.9M 646.79,2311.71 L 648.52,2310.58 L 650.78,2310.13 L 655.867,2310.25 L 656.975,2310.58 L 658.703,2311.71 L 700.986,2311.71 L 703.927,2308.77 L 703.927,2307.8 L 701.628,2302.24 L 701.18,2299.96 L 701.648,2297.68 L 702.726,2295.89 L 704.427,2287.49 L 704.427,2272.9 L 702.958,2265.08 L 701.604,2262.77 L 701.192,2260.52 L 701.668,2258.28 L 702.726,2256.53 L 704.427,2248.13 L 704.427,2233.53 L 702.958,2225.71 L 701.604,2223.4 L 701.192,2221.15 L 701.668,2218.91 L 702.726,2217.16 L 704.427,2208.76 L 704.427,2194.17 L 702.958,2186.34 L 701.604,2184.03 L 701.192,2181.78 L 701.668,2179.54 L 702.726,2177.79 L 704.427,2169.39 L 704.427,2154.8 L 702.958,2146.98 L 701.604,2144.67 L 701.192,2142.42 L 701.668,2140.18 L 702.726,2138.43 L 704.427,2130.02 L 704.427,2115.43 L 702.958,2107.61 L 701.604,2105.3 L 701.192,2103.05 L 701.668,2100.81 L 702.726,2099.06 L 704.427,2090.65 L 704.427,2076.06 L 702.958,2068.25 L 698.626,2061.51 L 692.048,2057.02 L 683.653,2055.32 L 621.794,2055.32 L 614,2056.79 L 607.263,2061.12 L 602.769,2067.7 L 601.069,2076.09 L 601.069,2090.7 L 602.537,2098.51 L 603.891,2100.82 L 604.303,2103.07 L 603.829,2105.31 L 602.769,2107.06 L 601.069,2115.46 L 601.069,2130.07 L 602.537,2137.88 L 603.891,2140.19 L 604.303,2142.44 L 603.829,2144.68 L 602.769,2146.43 L 601.069,2154.83 L 601.069,2169.44 L 602.537,2177.25 L 603.891,2179.55 L 604.303,2181.81 L 603.829,2184.05 L 602.769,2185.8 L 601.069,2194.19 L 601.069,2208.8 L 602.537,2216.61 L 603.891,2218.92 L 604.303,2221.17 L 603.829,2223.41 L 602.769,2225.16 L 601.069,2233.56 L 601.069,2248.17 L 602.537,2255.98 L 603.891,2258.29 L 604.303,2260.54 L 603.829,2262.78 L 602.769,2264.53 L 601.069,2272.93 L 601.069,2287.54 L 602.537,2295.35 L 603.933,2297.72 L 604.351,2299.94 L 603.903,2302.16 L 601.569,2307.79 L 601.569,2308.77 L 604.507,2311.71 L 646.79,2311.71M 534.647,1941.66 L 534.647,1992.83 L 463.786,1992.83 L 463.786,2009.58 L 466.724,2012.52 L 538.558,2012.52 L 545.796,2009.52 L 551.333,2003.98 L 554.333,1996.75 L 554.333,1944.6 L 551.395,1941.66 L 534.647,1941.66M 534.647,1925.91 L 551.391,1925.91 L 554.333,1922.97 L 554.333,1870.82 L 551.335,1863.58 L 545.798,1858.05 L 538.566,1855.05 L 466.724,1855.05 L 463.786,1857.98 L 463.786,1874.73 L 534.647,1874.73 L 534.647,1925.91M 377.179,1941.66 L 360.432,1941.66 L 357.494,1944.59 L 357.494,1996.75 L 360.49,2003.98 L 366.026,2009.52 L 373.265,2012.52 L 445.1,2012.52 L 448.041,2009.58 L 448.041,1992.83 L 377.179,1992.83 L 377.179,1941.66M 377.179,1925.91 L 377.179,1874.73 L 448.041,1874.73 L 448.041,1857.99 L 445.102,1855.05 L 373.261,1855.05 L 366.03,1858.04 L 360.492,1863.58 L 357.494,1870.81 L 357.494,1922.97 L 360.434,1925.91 L 377.179,1925.91M 369.667,356.142 L 383.37,369.846 L 405.579,351.418 L 440.88,273.06 L 443.518,186.963 L 412.824,105.941 L 405.973,95.6837 L 383.372,76.9311 L 369.665,90.6361 L 385.024,107.695 L 405.599,143.33 L 418.316,182.467 L 422.617,223.39 L 418.316,264.313 L 405.599,303.45 L 385.024,339.085 L 369.667,356.142M 92.4448,367.857 L 79.3219,380.978 L 97.7504,403.186 L 176.108,438.487 L 262.206,441.127 L 343.227,410.431 L 353.485,403.58 L 372.237,380.98 L 359.118,367.859 L 357.49,369.666 L 324.199,393.853 L 286.606,410.589 L 246.357,419.145 L 205.208,419.145 L 164.959,410.589 L 127.366,393.853 L 94.0747,369.666 L 92.4448,367.857M 7371.33,4990.26 L 7357.63,4976.55 L 7335.42,4994.98 L 7300.12,5073.34 L 7297.48,5159.43 L 7328.17,5240.45 L 7335.02,5250.71 L 7357.62,5269.46 L 7371.33,5255.76 L 7355.98,5238.71 L 7335.4,5203.07 L 7322.68,5163.93 L 7318.38,5123.01 L 7322.68,5082.09 L 7335.4,5042.95 L 7355.98,5007.31 L 7371.33,4990.26M 7648.55,4978.54 L 7661.67,4965.42 L 7643.25,4943.21 L 7564.89,4907.91 L 7478.79,4905.27 L 7397.77,4935.96 L 7387.51,4942.82 L 7368.76,4965.42 L 7381.88,4978.54 L 7383.51,4976.73 L 7416.8,4952.55 L 7454.39,4935.81 L 7494.64,4927.26 L 7535.79,4927.26 L 7576.04,4935.81 L 7613.63,4952.55 L 7646.93,4976.73 L 7648.55,4978.54M 7371.33,356.14 L 7355.98,339.085 L 7335.4,303.45 L 7322.68,264.313 L 7318.38,223.39 L 7322.68,182.467 L 7335.4,143.33 L 7355.98,107.695 L 7371.33,90.6381 L 7357.63,76.9291 L 7335.42,95.3577 L 7300.12,173.716 L 7297.48,259.813 L 7328.17,340.835 L 7335.02,351.092 L 7357.62,369.844 L 7371.33,356.14M 7381.88,367.857 L 7368.76,380.978 L 7387.19,403.186 L 7465.54,438.487 L 7551.64,441.127 L 7632.66,410.431 L 7642.92,403.58 L 7661.67,380.98 L 7648.55,367.859 L 7646.93,369.666 L 7613.63,393.853 L 7576.04,410.589 L 7535.79,419.145 L 7494.64,419.145 L 7454.39,410.589 L 7416.8,393.853 L 7383.51,369.666 L 7381.88,367.857 z " style="fill-opacity:1.000000;fill:rgb(251,50,175);stroke:rgb(0,0,0);stroke-width:2"/></g>
<g fill-rule="evenodd"><path d="M 6956.68,3202.05 L 6957.88,3198.35 L 6960.35,3194.08 L 6963.65,3190.41 L 6967.65,3187.5 L 6972.16,3185.5 L 6976.99,3184.47 L 6981.93,3184.47 L 6986.76,3185.5 L 6991.27,3187.5 L 6995.26,3190.41 L 6998.57,3194.08 L 7001.04,3198.35 L 7002.56,3203.05 L 7003.08,3207.96 L 7002.56,3212.87 L 7001.04,3217.56 L 6998.57,3221.84 L 6995.26,3225.51 L 6991.27,3228.41 L 6986.76,3230.42 L 6981.93,3231.45 L 6976.99,3231.45 L 6972.16,3230.42 L 6967.65,3228.41 L 6963.65,3225.51 L 6960.35,3221.84 L 6957.88,3217.56 L 6956.68,3213.86 L 5494.57,3213.86 L 5492.31,3213.41 L 5490.4,3212.13 L 5429.56,3151.29 L 5424.88,3153.43 L 5420.05,3154.45 L 5415.11,3154.45 L 5410.28,3153.43 L 5405.77,3151.42 L 5401.78,3148.52 L 5398.47,3144.85 L 5396,3140.57 L 5394.48,3135.87 L 5393.96,3130.96 L 5394.48,3126.05 L 5396,3121.36 L 5398.47,3117.08 L 5401.78,3113.41 L 5405.77,3110.51 L 5410.28,3108.5 L 5415.11,3107.47 L 5420.05,3107.47 L 5424.88,3108.5 L 5429.39,3110.51 L 5433.38,3113.41 L 5436.69,3117.08 L 5439.16,3121.36 L 5440.68,3126.05 L 5441.2,3130.96 L 5440.68,3135.87 L 5439.16,3140.57 L 5437.83,3142.87 L 5497.02,3202.05 L 6956.68,3202.05 z " style="fill-opacity:1.000000;fill:rgb(60,84,236);stroke:rgb(0,0,0);stroke-width:2"/></g>
<g fill-rule="evenodd"><path d="M 3860.66,2386.38 L 3862.99,2382.34 L 3866.29,2378.67 L 3870.29,2375.77 L 3874.8,2373.76 L 3879.63,2372.73 L 3884.57,2372.73 L 3889.4,2373.76 L 3893.91,2375.77 L 3897.9,2378.67 L 3901.21,2382.34 L 3903.68,2386.62 L 3905.2,2391.31 L 3905.72,2396.22 L 3905.2,2401.13 L 3903.68,2405.83 L 3901.21,2410.1 L 3897.9,2413.77 L 3893.91,2416.68 L 3889.4,2418.68 L 3884.57,2419.71 L 3879.63,2419.71 L 3874.8,2418.68 L 3870.29,2416.68 L 3866.29,2413.77 L 3862.99,2410.1 L 3860.66,2406.06 L 3160.23,2406.06 L 3040.25,2526.04 L 3041.87,2530.9 L 3042.39,2535.81 L 3041.87,2540.72 L 3040.34,2545.42 L 3037.87,2549.69 L 3034.57,2553.36 L 3030.58,2556.26 L 3026.06,2558.27 L 3021.23,2559.3 L 3016.3,2559.3 L 3011.47,2558.27 L 3009.08,2557.21 L 2806.71,2759.58 L 2803.52,2761.71 L 2801.68,2762.27 L 652.749,2762.46 L 650.702,2762.24 L 648.746,2761.61 L 646.868,2760.49 L 621.256,2760.49 L 621.256,2744.74 L 646.864,2744.74 L 648.746,2743.63 L 650.702,2742.99 L 652.749,2742.78 L 2795.68,2742.78 L 2996.17,2542.28 L 2995.66,2540.72 L 2995.15,2535.81 L 2995.66,2530.9 L 2997.19,2526.21 L 2999.66,2521.93 L 3002.96,2518.26 L 3006.96,2515.36 L 3011.47,2513.35 L 3016.3,2512.32 L 3021.23,2512.32 L 3025.27,2513.18 L 3149.2,2389.26 L 3152.39,2387.13 L 3156.16,2386.38 L 3860.66,2386.38 z " style="fill-opacity:1.000000;fill:rgb(24,219,92);stroke:rgb(0,0,0);stroke-width:2"/></g>
<g fill-rule="evenodd"><path d="M 2774.03,1638.12 L 2771.7,1642.16 L 2768.39,1645.83 L 2764.4,1648.74 L 2759.88,1650.74 L 2755.05,1651.77 L 2750.12,1651.77 L 2745.29,1650.74 L 2740.78,1648.74 L 2736.78,1645.83 L 2733.48,1642.16 L 2731.01,1637.89 L 2729.48,1633.19 L 2728.97,1628.28 L 2729.48,1623.37 L 2731.01,1618.68 L 2733.48,1614.4 L 2736.78,1610.73 L 2740.78,1607.83 L 2745.29,1605.82 L 2750.12,1604.79 L 2755.05,1604.79 L 2759.88,1605.82 L 2764.4,1607.83 L 2768.39,1610.73 L 2771.7,1614.4 L 2774.02,1618.44 L 6014.05,1618.63 L 6015.9,1619.19 L 6019.09,1621.32 L 7332.87,2935.1 L 7338.56,2933.69 L 7343.5,2933.69 L 7348.33,2934.72 L 7352.84,2936.72 L 7356.84,2939.63 L 7360.14,2943.29 L 7362.61,2947.57 L 7364.13,2952.27 L 7364.65,2957.18 L 7364.13,2962.09 L 7362.61,2966.78 L 7360.14,2971.06 L 7356.84,2974.73 L 7352.84,2977.63 L 7348.33,2979.64 L 7343.5,2980.67 L 7338.56,2980.67 L 7333.73,2979.64 L 7329.22,2977.63 L 7325.23,2974.73 L 7321.92,2971.06 L 7319.45,2966.78 L 7317.93,2962.09 L 7317.41,2957.18 L 7317.93,2952.27 L 7318.98,2949.04 L 6008.06,1638.12 L 2774.03,1638.12 z " style="fill-opacity:1.000000;fill:rgb(2,26,254);stroke:rgb(0,0,0);stroke-width:2"/></g>
<g fill-rule="evenodd"><path d="M 3915.65,3396.1 L 3917.99,3392.06 L 3921.29,3388.39 L 3925.29,3385.49 L 3929.8,3383.48 L 3934.63,3382.45 L 3939.56,3382.45 L 3944.39,3383.48 L 3948.9,3385.49 L 3952.9,3388.39 L 3956.2,3392.06 L 3958.67,3396.34 L 3960.2,3401.03 L 3960.72,3405.94 L 3960.2,3410.85 L 3958.67,3415.55 L 3956.2,3419.83 L 3952.9,3423.5 L 3948.9,3426.4 L 3944.39,3428.41 L 3939.56,3429.43 L 3934.63,3429.43 L 3929.8,3428.41 L 3925.29,3426.4 L 3921.29,3423.5 L 3917.99,3419.83 L 3915.66,3415.78 L 2842.46,3415.59 L 2838.91,3414.12 L 2837.42,3412.9 L 2589.76,3165.24 L 2584.07,3166.65 L 2579.13,3166.65 L 2574.3,3165.63 L 2569.79,3163.62 L 2565.8,3160.72 L 2562.49,3157.05 L 2560.02,3152.77 L 2558.5,3148.07 L 2557.98,3143.16 L 2558.5,3138.25 L 2560.02,3133.56 L 2562.49,3129.28 L 2565.8,3125.61 L 2569.79,3122.71 L 2574.3,3120.7 L 2579.13,3119.67 L 2584.07,3119.67 L 2588.9,3120.7 L 2593.41,3122.71 L 2597.4,3125.61 L 2600.71,3129.28 L 2603.18,3133.56 L 2604.7,3138.25 L 2605.22,3143.16 L 2604.7,3148.07 L 2603.65,3151.3 L 2848.46,3396.1 L 3915.65,3396.1 z " style="fill-opacity:1.000000;fill:rgb(67,251,250);stroke:rgb(0,0,0);stroke-width:2"/></g>
<g fill-rule="evenodd"><path d="M 2359.63,2639.91 L 2318.69,2680.84 L 2315.5,2682.98 L 2311.73,2683.73 L 652.749,2683.73 L 650.702,2683.51 L 648.746,2682.87 L 646.868,2681.76 L 621.256,2681.76 L 621.256,2666.01 L 646.864,2666.01 L 648.746,2664.89 L 650.702,2664.26 L 652.749,2664.04 L 2307.66,2664.04 L 2346.27,2625.43 L 2345.51,2623.11 L 2345,2618.2 L 2345.51,2613.29 L 2347.04,2608.6 L 2349.51,2604.32 L 2352.81,2600.65 L 2356.81,2597.75 L 2361.32,2595.74 L 2366.15,2594.71 L 2371.08,2594.71 L 2375.91,2595.74 L 2380.43,2597.75 L 2384.42,2600.65 L 2387.72,2604.32 L 2390.19,2608.6 L 2391.72,2613.29 L 2392.24,2618.2 L 2391.72,2623.11 L 2390.19,2627.81 L 2387.72,2632.09 L 2384.42,2635.76 L 2380.43,2638.66 L 2375.91,2640.67 L 2371.08,2641.69 L 2366.15,2641.69 L 2361.32,2640.67 L 2359.63,2639.91 z " style="fill-opacity:1.000000;fill:rgb(170,58,251);stroke:rgb(0,0,0);stroke-width:2"/></g>
<g fill-rule="evenodd"><path d="M 1422.93,2841.19 L 652.749,2841.19 L 650.702,2840.98 L 648.746,2840.34 L 646.868,2839.23 L 621.256,2839.23 L 621.256,2823.48 L 646.864,2823.48 L 648.746,2822.36 L 650.702,2821.72 L 652.749,2821.51 L 1424.82,2821.51 L 1425.98,2819.5 L 1429.28,2815.83 L 1433.28,2812.93 L 1437.79,2810.93 L 1442.62,2809.9 L 1447.56,2809.9 L 1452.39,2810.93 L 1456.9,2812.93 L 1460.89,2815.83 L 1464.2,2819.5 L 1466.66,2823.78 L 1468.19,2828.48 L 1468.71,2833.39 L 1468.19,2838.3 L 1466.66,2842.99 L 1464.2,2847.27 L 1460.89,2850.94 L 1456.9,2853.84 L 1452.39,2855.85 L 1447.56,2856.88 L 1442.62,2856.88 L 1437.79,2855.85 L 1433.28,2853.84 L 1429.28,2850.94 L 1425.98,2847.27 L 1423.51,2842.99 L 1422.93,2841.19 z " style="fill-opacity:1.000000;fill:rgb(41,209,230);stroke:rgb(0,0,0);stroke-width:2"/></g>
<g fill-rule="evenodd"><path d="M 646.868,3193.53 L 621.256,3193.53 L 621.256,3177.78 L 646.864,3177.78 L 648.746,3176.66 L 650.702,3176.03 L 652.749,3175.81 L 2276.04,3176 L 2277.88,3176.56 L 2281.08,3178.7 L 2793.26,3690.88 L 5857.87,3690.88 L 6123.67,3425.08 L 6122.62,3421.85 L 6122.1,3416.94 L 6122.62,3412.03 L 6124.15,3407.34 L 6126.62,3403.06 L 6129.92,3399.39 L 6133.91,3396.49 L 6138.43,3394.48 L 6143.26,3393.45 L 6148.19,3393.45 L 6153.02,3394.48 L 6157.53,3396.49 L 6161.53,3399.39 L 6164.83,3403.06 L 6167.3,3407.34 L 6168.83,3412.03 L 6169.34,3416.94 L 6168.83,3421.85 L 6167.3,3426.55 L 6164.83,3430.83 L 6161.53,3434.49 L 6157.53,3437.4 L 6153.02,3439.4 L 6148.19,3440.43 L 6143.26,3440.43 L 6137.56,3439.02 L 5868.9,3707.68 L 5865.71,3709.81 L 5861.95,3710.56 L 2789.18,3710.56 L 2785.42,3709.81 L 2782.22,3707.68 L 2270.04,3195.5 L 652.749,3195.5 L 650.702,3195.28 L 648.746,3194.65 L 646.868,3193.53 z " style="fill-opacity:1.000000;fill:rgb(5,60,124);stroke:rgb(0,0,0);stroke-width:2"/></g>
<g fill-rule="evenodd"><path d="M 646.868,3154.16 L 621.256,3154.16 L 621.256,3138.41 L 646.864,3138.41 L 648.746,3137.3 L 650.702,3136.66 L 652.749,3136.45 L 2319.86,3136.63 L 2321.71,3137.19 L 2324.9,3139.33 L 2825.86,3640.28 L 5787.47,3640.28 L 6156.67,3271.09 L 6155.62,3267.86 L 6155.1,3262.95 L 6155.62,3258.04 L 6157.14,3253.35 L 6159.61,3249.07 L 6162.92,3245.4 L 6166.91,3242.5 L 6171.42,3240.49 L 6176.25,3239.46 L 6181.19,3239.46 L 6186.02,3240.49 L 6190.53,3242.5 L 6194.53,3245.4 L 6197.83,3249.07 L 6200.3,3253.35 L 6201.82,3258.04 L 6202.34,3262.95 L 6201.82,3267.86 L 6200.3,3272.56 L 6197.83,3276.84 L 6194.53,3280.51 L 6190.53,3283.41 L 6186.02,3285.42 L 6181.19,3286.44 L 6176.25,3286.44 L 6170.56,3285.03 L 5798.51,3657.08 L 5795.32,3659.22 L 5793.47,3659.78 L 2821.78,3659.97 L 2818.01,3659.22 L 2814.82,3657.08 L 2313.87,3156.13 L 652.749,3156.13 L 650.702,3155.91 L 648.746,3155.28 L 646.868,3154.16 z " style="fill-opacity:1.000000;fill:rgb(148,117,216);stroke:rgb(0,0,0);stroke-width:2"/></g>
<g fill-rule="evenodd"><path d="M 646.868,3075.43 L 621.256,3075.43 L 621.256,3059.68 L 646.864,3059.68 L 648.746,3058.56 L 650.702,3057.93 L 652.749,3057.71 L 6344.04,3057.71 L 6705.83,2695.93 L 6704.78,2692.71 L 6704.26,2687.8 L 6704.78,2682.89 L 6706.3,2678.19 L 6708.77,2673.92 L 6712.07,2670.25 L 6716.07,2667.34 L 6720.58,2665.34 L 6725.41,2664.31 L 6730.35,2664.31 L 6735.18,2665.34 L 6739.69,2667.34 L 6743.68,2670.25 L 6746.99,2673.92 L 6749.45,2678.19 L 6750.98,2682.89 L 6751.5,2687.8 L 6750.98,2692.71 L 6749.45,2697.4 L 6746.99,2701.68 L 6743.68,2705.35 L 6739.69,2708.25 L 6735.18,2710.26 L 6730.35,2711.29 L 6725.41,2711.29 L 6719.72,2709.88 L 6355.08,3074.51 L 6351.89,3076.64 L 6348.12,3077.39 L 652.749,3077.39 L 650.702,3077.18 L 648.746,3076.54 L 646.868,3075.43 z " style="fill-opacity:1.000000;fill:rgb(190,97,137);stroke:rgb(0,0,0);stroke-width:2"/></g>
<g fill-rule="evenodd"><path d="M 646.868,3036.06 L 621.256,3036.06 L 621.256,3020.31 L 646.864,3020.31 L 648.746,3019.2 L 650.702,3018.56 L 652.749,3018.35 L 6311.42,3018.35 L 6584.64,2745.13 L 6583.59,2741.9 L 6583.07,2736.99 L 6583.59,2732.09 L 6585.11,2727.39 L 6587.58,2723.11 L 6590.88,2719.44 L 6594.88,2716.54 L 6599.39,2714.53 L 6604.22,2713.5 L 6609.16,2713.5 L 6613.99,2714.53 L 6618.5,2716.54 L 6622.49,2719.44 L 6625.8,2723.11 L 6628.26,2727.39 L 6629.79,2732.09 L 6630.31,2736.99 L 6629.79,2741.9 L 6628.26,2746.6 L 6625.8,2750.88 L 6622.49,2754.55 L 6618.5,2757.45 L 6613.99,2759.46 L 6609.16,2760.49 L 6604.22,2760.49 L 6598.53,2759.07 L 6322.45,3035.14 L 6319.26,3037.28 L 6315.49,3038.03 L 652.749,3038.03 L 650.702,3037.81 L 648.746,3037.18 L 646.868,3036.06 z " style="fill-opacity:1.000000;fill:rgb(249,92,187);stroke:rgb(0,0,0);stroke-width:2"/></g>
<g fill-rule="evenodd"><path d="M 646.868,2957.33 L 621.256,2957.33 L 621.256,2941.58 L 646.864,2941.58 L 648.746,2940.46 L 650.702,2939.83 L 652.749,2939.61 L 6318.16,2939.61 L 6464.64,2793.13 L 6463.6,2789.9 L 6463.08,2784.99 L 6463.6,2780.08 L 6465.12,2775.39 L 6467.59,2771.11 L 6470.89,2767.44 L 6474.89,2764.54 L 6479.4,2762.53 L 6484.23,2761.5 L 6489.17,2761.5 L 6493.99,2762.53 L 6498.51,2764.54 L 6502.5,2767.44 L 6505.81,2771.11 L 6508.27,2775.39 L 6509.8,2780.08 L 6510.32,2784.99 L 6509.8,2789.9 L 6508.27,2794.6 L 6505.81,2798.87 L 6502.5,2802.54 L 6498.51,2805.45 L 6493.99,2807.45 L 6489.17,2808.48 L 6484.23,2808.48 L 6478.54,2807.07 L 6329.19,2956.41 L 6326,2958.54 L 6322.23,2959.29 L 652.749,2959.29 L 650.702,2959.08 L 648.746,2958.44 L 646.868,2957.33 z " style="fill-opacity:1.000000;fill:rgb(168,153,15);stroke:rgb(0,0,0);stroke-width:2"/></g>
<g fill-rule="evenodd"><path d="M 646.868,2917.96 L 621.256,2917.96 L 621.256,2902.21 L 646.864,2902.21 L 648.746,2901.09 L 650.702,2900.46 L 652.749,2900.24 L 6280.73,2900.24 L 6344.25,2836.72 L 6343.2,2833.5 L 6342.69,2828.59 L 6343.2,2823.68 L 6344.73,2818.98 L 6347.2,2814.7 L 6350.5,2811.04 L 6354.5,2808.13 L 6359.01,2806.13 L 6363.84,2805.1 L 6368.77,2805.1 L 6373.6,2806.13 L 6378.12,2808.13 L 6382.11,2811.04 L 6385.42,2814.7 L 6387.88,2818.98 L 6389.41,2823.68 L 6389.93,2828.59 L 6389.41,2833.5 L 6387.88,2838.19 L 6385.42,2842.47 L 6382.11,2846.14 L 6378.12,2849.04 L 6373.6,2851.05 L 6368.77,2852.08 L 6363.84,2852.08 L 6358.15,2850.67 L 6291.76,2917.04 L 6288.57,2919.18 L 6284.81,2919.93 L 652.749,2919.93 L 650.702,2919.71 L 648.746,2919.07 L 646.868,2917.96 z " style="fill-opacity:1.000000;fill:rgb(149,177,235);stroke:rgb(0,0,0);stroke-width:2"/></g>
<g fill-rule="evenodd"><path d="M 646.868,2721.12 L 621.256,2721.12 L 621.256,2705.38 L 646.864,2705.38 L 648.746,2704.26 L 650.702,2703.62 L 652.749,2703.41 L 2722.45,2703.41 L 3113.32,2312.55 L 3113.32,2237.17 L 3111.35,2236.29 L 3107.35,2233.39 L 3104.05,2229.72 L 3101.58,2225.44 L 3100.06,2220.74 L 3099.54,2215.84 L 3100.06,2210.93 L 3101.58,2206.23 L 3104.05,2201.95 L 3107.35,2198.28 L 3111.35,2195.38 L 3115.86,2193.37 L 3120.69,2192.35 L 3125.63,2192.35 L 3130.46,2193.37 L 3134.97,2195.38 L 3138.96,2198.28 L 3142.27,2201.95 L 3144.73,2206.23 L 3146.26,2210.93 L 3146.78,2215.84 L 3146.26,2220.74 L 3144.73,2225.44 L 3142.27,2229.72 L 3138.96,2233.39 L 3134.97,2236.29 L 3133,2237.16 L 3133,2316.63 L 3132.25,2320.39 L 3131.34,2322.09 L 2733.49,2720.21 L 2730.3,2722.34 L 2728.45,2722.9 L 652.749,2723.09 L 650.702,2722.88 L 648.746,2722.24 L 646.868,2721.12 z " style="fill-opacity:1.000000;fill:rgb(241,179,5);stroke:rgb(0,0,0);stroke-width:2"/></g>
<g fill-rule="evenodd"><path d="M 2961.73,4352.15 L 2956.04,4353.56 L 2951.1,4353.56 L 2946.27,4352.53 L 2941.76,4350.53 L 2937.76,4347.62 L 2934.46,4343.95 L 2931.99,4339.68 L 2930.47,4334.98 L 2929.95,4330.07 L 2930.47,4325.16 L 2931.99,4320.47 L 2934.46,4316.19 L 2937.76,4312.52 L 2941.76,4309.62 L 2946.27,4307.61 L 2951.1,4306.58 L 2956.04,4306.58 L 2960.87,4307.61 L 2965.38,4309.62 L 2969.37,4312.52 L 2972.68,4316.19 L 2975.15,4320.47 L 2976.67,4325.16 L 2977.19,4330.07 L 2976.67,4334.98 L 2975.62,4338.21 L 3013.64,4376.23 L 7345.15,4376.23 L 7584.37,4137.01 L 7584.37,2820.66 L 7549.34,2785.63 L 7530.06,2785.63 L 7527.73,2789.67 L 7524.42,2793.34 L 7520.43,2796.25 L 7515.92,2798.25 L 7511.09,2799.28 L 7506.15,2799.28 L 7501.32,2798.25 L 7496.81,2796.25 L 7492.81,2793.34 L 7489.51,2789.67 L 7487.04,2785.4 L 7485.52,2780.7 L 7485,2775.79 L 7485.52,2770.88 L 7487.04,2766.19 L 7489.51,2761.91 L 7492.81,2758.24 L 7496.81,2755.34 L 7501.32,2753.33 L 7506.15,2752.3 L 7511.09,2752.3 L 7515.92,2753.33 L 7520.43,2755.34 L 7524.42,2758.24 L 7527.73,2761.91 L 7530.06,2765.95 L 7553.41,2765.95 L 7557.18,2766.7 L 7560.37,2768.83 L 7601.17,2809.63 L 7603.3,2812.82 L 7604.05,2816.59 L 7603.86,4143.01 L 7603.3,4144.85 L 7601.17,4148.04 L 7356.19,4393.02 L 7353,4395.16 L 7349.23,4395.91 L 3009.57,4395.91 L 3005.8,4395.16 L 3002.61,4393.02 L 2961.73,4352.15 z " style="fill-opacity:1.000000;fill:rgb(239,247,0);stroke:rgb(0,0,0);stroke-width:2"/></g>
<g fill-rule="evenodd"><path d="M 3043.36,3141.69 L 3039.46,3143.43 L 3034.63,3144.46 L 3029.7,3144.46 L 3024.87,3143.43 L 3020.36,3141.42 L 3016.36,3138.52 L 3013.06,3134.85 L 3010.59,3130.57 L 3009.06,3125.87 L 3008.54,3120.97 L 3009.06,3116.06 L 3010.59,3111.36 L 3013.06,3107.08 L 3016.36,3103.41 L 3020.36,3100.51 L 3024.87,3098.5 L 3029.7,3097.48 L 3034.63,3097.48 L 3039.46,3098.5 L 3043.97,3100.51 L 3047.97,3103.41 L 3051.27,3107.08 L 3053.74,3111.36 L 3055.27,3116.06 L 3055.79,3120.97 L 3055.23,3125.99 L 3069.25,3136.52 L 3928.3,3136.52 L 3932.06,3137.27 L 3935.25,3139.4 L 4047.44,3251.6 L 4049.58,3254.79 L 4050.33,3258.55 L 4050.33,3481.41 L 4052.3,3482.28 L 4056.29,3485.18 L 4059.6,3488.85 L 4062.06,3493.13 L 4063.59,3497.83 L 4064.11,3502.74 L 4063.59,3507.65 L 4062.06,3512.34 L 4059.6,3516.62 L 4056.29,3520.29 L 4052.3,3523.19 L 4047.78,3525.2 L 4042.95,3526.23 L 4038.02,3526.23 L 4033.19,3525.2 L 4028.68,3523.19 L 4024.68,3520.29 L 4021.38,3516.62 L 4018.91,3512.34 L 4017.38,3507.65 L 4016.87,3502.74 L 4017.38,3497.83 L 4018.91,3493.13 L 4021.38,3488.85 L 4024.68,3485.18 L 4028.68,3482.28 L 4030.65,3481.41 L 4030.65,3262.63 L 3924.22,3156.2 L 3065.96,3156.2 L 3062.84,3155.7 L 3060.05,3154.23 L 3043.36,3141.69 z " style="fill-opacity:1.000000;fill:rgb(233,161,58);stroke:rgb(0,0,0);stroke-width:2"/></g>
<g fill-rule="evenodd"><path d="M 1506.15,2486.89 L 652.749,2486.89 L 650.702,2486.67 L 648.746,2486.04 L 646.868,2484.92 L 621.256,2484.92 L 621.256,2469.18 L 646.864,2469.18 L 648.746,2468.06 L 650.702,2467.42 L 652.749,2467.21 L 1509.07,2467.21 L 1512.88,2462.66 L 1516.87,2459.76 L 1521.38,2457.75 L 1526.21,2456.72 L 1531.15,2456.72 L 1535.98,2457.75 L 1540.49,2459.76 L 1544.49,2462.66 L 1547.79,2466.33 L 1550.26,2470.61 L 1551.78,2475.31 L 1552.3,2480.21 L 1551.78,2485.12 L 1550.26,2489.82 L 1547.79,2494.1 L 1544.49,2497.77 L 1540.49,2500.67 L 1535.98,2502.68 L 1531.15,2503.71 L 1526.21,2503.71 L 1521.38,2502.68 L 1516.87,2500.67 L 1512.88,2497.77 L 1509.57,2494.1 L 1507.11,2489.82 L 1506.15,2486.89 z " style="fill-opacity:1.000000;fill:rgb(229,202,11);stroke:rgb(0,0,0);stroke-width:2"/></g>
<g fill-rule="evenodd"><path d="M 646.864,2508.54 L 648.746,2507.42 L 650.702,2506.79 L 652.749,2506.57 L 734.865,2506.76 L 736.711,2507.32 L 739.905,2509.46 L 762.815,2532.37 L 1600.4,2532.37 L 1620.62,2512.15 L 1619.57,2508.92 L 1619.05,2504.01 L 1619.57,2499.1 L 1621.1,2494.41 L 1623.56,2490.13 L 1626.87,2486.46 L 1630.86,2483.56 L 1635.38,2481.55 L 1640.2,2480.52 L 1645.14,2480.52 L 1649.97,2481.55 L 1654.48,2483.56 L 1658.48,2486.46 L 1661.78,2490.13 L 1664.25,2494.41 L 1665.77,2499.1 L 1666.29,2504.01 L 1665.77,2508.92 L 1664.25,2513.62 L 1661.78,2517.9 L 1658.48,2521.57 L 1654.48,2524.47 L 1649.97,2526.48 L 1645.14,2527.5 L 1640.2,2527.5 L 1634.51,2526.09 L 1611.43,2549.17 L 1608.24,2551.3 L 1604.48,2552.05 L 768.582,2552.05 L 768.582,2572.21 L 767.832,2575.97 L 766.923,2577.67 L 742.754,2602.11 L 739.563,2604.24 L 735.797,2604.99 L 652.749,2604.99 L 650.702,2604.78 L 648.746,2604.14 L 646.868,2603.02 L 621.256,2603.02 L 621.256,2587.28 L 646.864,2587.28 L 648.746,2586.16 L 650.702,2585.52 L 652.749,2585.31 L 731.719,2585.31 L 748.9,2568.13 L 748.9,2546.29 L 728.874,2526.26 L 652.749,2526.26 L 650.702,2526.04 L 648.746,2525.41 L 646.868,2524.29 L 621.256,2524.29 L 621.256,2508.54 L 646.864,2508.54 z " style="fill-opacity:1.000000;fill:rgb(203,208,72);stroke:rgb(0,0,0);stroke-width:2"/></g>
<g fill-rule="evenodd"><path d="M 646.868,2642.39 L 621.256,2642.39 L 621.256,2626.64 L 646.864,2626.64 L 648.746,2625.53 L 650.702,2624.89 L 652.749,2624.68 L 2252.23,2624.68 L 2346.56,2530.35 L 2345.51,2527.12 L 2345,2522.21 L 2345.51,2517.3 L 2347.04,2512.61 L 2349.51,2508.33 L 2352.81,2504.66 L 2356.81,2501.76 L 2361.32,2499.75 L 2366.15,2498.72 L 2371.08,2498.72 L 2375.91,2499.75 L 2380.43,2501.76 L 2384.42,2504.66 L 2387.72,2508.33 L 2390.19,2512.61 L 2391.72,2517.3 L 2392.24,2522.21 L 2391.72,2527.12 L 2390.19,2531.82 L 2387.72,2536.09 L 2384.42,2539.76 L 2380.43,2542.67 L 2375.91,2544.67 L 2371.08,2545.7 L 2366.15,2545.7 L 2360.46,2544.29 L 2263.27,2641.47 L 2260.07,2643.61 L 2256.31,2644.36 L 652.749,2644.36 L 650.702,2644.14 L 648.746,2643.51 L 646.868,2642.39 z " style="fill-opacity:1.000000;fill:rgb(71,100,189);stroke:rgb(0,0,0);stroke-width:2"/></g>
<g fill-rule="evenodd"><path d="M 646.868,2366.82 L 621.256,2366.82 L 621.256,2351.07 L 646.864,2351.07 L 648.746,2349.96 L 650.702,2349.32 L 652.749,2349.11 L 1646.91,2349.3 L 1648.76,2349.85 L 1651.95,2351.99 L 1782.1,2482.14 L 1787.79,2480.72 L 1792.73,2480.72 L 1797.56,2481.75 L 1802.07,2483.76 L 1806.07,2486.66 L 1809.37,2490.33 L 1811.84,2494.61 L 1813.36,2499.3 L 1813.88,2504.21 L 1813.36,2509.12 L 1811.84,2513.82 L 1809.37,2518.1 L 1806.07,2521.77 L 1802.07,2524.67 L 1797.56,2526.68 L 1792.73,2527.7 L 1787.79,2527.7 L 1782.96,2526.68 L 1778.45,2524.67 L 1774.46,2521.77 L 1771.15,2518.1 L 1768.68,2513.82 L 1767.16,2509.12 L 1766.64,2504.21 L 1767.16,2499.3 L 1768.21,2496.08 L 1640.92,2368.79 L 652.749,2368.79 L 650.702,2368.57 L 648.746,2367.94 L 646.868,2366.82 z " style="fill-opacity:1.000000;fill:rgb(31,35,30);stroke:rgb(0,0,0);stroke-width:2"/></g>
<g fill-rule="evenodd"><path d="M 646.868,2445.56 L 621.256,2445.56 L 621.256,2429.81 L 646.864,2429.81 L 648.746,2428.69 L 650.702,2428.05 L 652.749,2427.84 L 1232.36,2427.84 L 1233.05,2427.15 L 1232,2423.93 L 1231.48,2419.02 L 1232,2414.11 L 1233.53,2409.41 L 1235.99,2405.14 L 1239.3,2401.47 L 1243.29,2398.57 L 1247.81,2396.56 L 1252.63,2395.53 L 1257.57,2395.53 L 1262.4,2396.56 L 1266.91,2398.57 L 1270.91,2401.47 L 1274.21,2405.14 L 1276.68,2409.41 L 1278.2,2414.11 L 1278.72,2419.02 L 1278.2,2423.93 L 1276.68,2428.62 L 1274.21,2432.9 L 1270.91,2436.57 L 1266.91,2439.47 L 1262.4,2441.48 L 1257.57,2442.51 L 1252.63,2442.51 L 1246.94,2441.1 L 1241.9,2445.86 L 1240.2,2446.77 L 1236.44,2447.52 L 652.749,2447.52 L 650.702,2447.31 L 648.746,2446.67 L 646.868,2445.56 z " style="fill-opacity:1.000000;fill:rgb(168,28,123);stroke:rgb(0,0,0);stroke-width:2"/></g>
<g fill-rule="evenodd"><path d="M 6870.51,3022.16 L 6871.8,3021.88 L 6876.73,3021.88 L 6881.56,3022.91 L 6886.08,3024.92 L 6890.07,3027.82 L 6893.38,3031.49 L 6895.84,3035.77 L 6897.37,3040.46 L 6897.89,3045.37 L 6897.37,3050.28 L 6895.84,3054.98 L 6893.38,3059.25 L 6890.07,3062.92 L 6886.08,3065.83 L 6881.56,3067.83 L 6876.73,3068.86 L 6871.8,3068.86 L 6866.97,3067.83 L 6862.46,3065.83 L 6858.46,3062.92 L 6855.16,3059.25 L 6852.69,3054.98 L 6851.16,3050.28 L 6850.65,3045.37 L 6851.16,3040.46 L 6852.32,3036.9 L 6851.04,3033.82 L 6850.83,3031.77 L 6850.83,2620.68 L 6027.3,1797.15 L 6025.14,1798.72 L 6020.63,1800.73 L 6015.8,1801.76 L 6010.87,1801.76 L 6006.04,1800.73 L 6001.52,1798.72 L 5997.53,1795.82 L 5994.23,1792.15 L 5991.76,1787.87 L 5990.23,1783.18 L 5989.71,1778.27 L 5990.23,1773.36 L 5991.76,1768.66 L 5994.23,1764.39 L 5997.53,1760.72 L 6001.52,1757.81 L 6006.04,1755.81 L 6010.87,1754.78 L 6015.8,1754.78 L 6020.63,1755.81 L 6025.14,1757.81 L 6029.14,1760.72 L 6032.44,1764.39 L 6034.91,1768.66 L 6036.44,1773.36 L 6036.89,1778.91 L 6868.85,2611.13 L 6869.76,2612.84 L 6870.51,2616.6 L 6870.51,3022.16 z " style="fill-opacity:1.000000;fill:rgb(100,197,20);stroke:rgb(0,0,0);stroke-width:2"/></g>
<g fill-rule="evenodd"><path d="M 6813.31,2938.05 L 6815.28,2938.92 L 6819.28,2941.83 L 6822.58,2945.49 L 6825.05,2949.77 L 6826.57,2954.47 L 6827.09,2959.38 L 6826.57,2964.29 L 6825.05,2968.98 L 6822.58,2973.26 L 6819.28,2976.93 L 6815.28,2979.83 L 6810.77,2981.84 L 6805.94,2982.87 L 6801,2982.87 L 6796.18,2981.84 L 6791.66,2979.83 L 6787.67,2976.93 L 6784.36,2973.26 L 6781.9,2968.98 L 6780.37,2964.29 L 6779.85,2959.38 L 6780.37,2954.47 L 6781.9,2949.77 L 6784.36,2945.49 L 6787.67,2941.83 L 6791.66,2938.92 L 6793.63,2938.05 L 6793.63,2631.28 L 6729,2566.65 L 6675.28,2566.65 L 6671.51,2565.9 L 6669.81,2564.99 L 6545.65,2441.1 L 6539.96,2442.51 L 6535.03,2442.51 L 6530.2,2441.48 L 6525.68,2439.47 L 6521.69,2436.57 L 6518.38,2432.9 L 6515.92,2428.62 L 6514.39,2423.93 L 6513.87,2419.02 L 6514.39,2414.11 L 6515.92,2409.41 L 6518.38,2405.14 L 6521.69,2401.47 L 6525.68,2398.57 L 6530.2,2396.56 L 6535.03,2395.53 L 6539.96,2395.53 L 6544.79,2396.56 L 6549.3,2398.57 L 6553.3,2401.47 L 6556.6,2405.14 L 6559.07,2409.41 L 6560.6,2414.11 L 6561.11,2419.02 L 6560.6,2423.93 L 6559.55,2427.15 L 6679.36,2546.97 L 6733.08,2546.97 L 6735,2547.16 L 6738.54,2548.63 L 6810.43,2620.24 L 6812.56,2623.44 L 6813.31,2627.2 L 6813.31,2938.05 z " style="fill-opacity:1.000000;fill:rgb(115,90,197);stroke:rgb(0,0,0);stroke-width:2"/></g>
<g fill-rule="evenodd"><path d="M 6615.45,2923.51 L 6613.48,2922.64 L 6609.48,2919.73 L 6606.18,2916.07 L 6603.71,2911.79 L 6602.18,2907.09 L 6601.67,2902.18 L 6602.18,2897.27 L 6603.71,2892.58 L 6606.18,2888.3 L 6609.48,2884.63 L 6613.48,2881.73 L 6617.99,2879.72 L 6622.82,2878.69 L 6627.75,2878.69 L 6632.58,2879.72 L 6637.1,2881.73 L 6641.09,2884.63 L 6644.39,2888.3 L 6646.86,2892.58 L 6648.39,2897.27 L 6648.91,2902.18 L 6648.39,2907.09 L 6646.86,2911.79 L 6644.39,2916.07 L 6641.09,2919.73 L 6637.1,2922.64 L 6635.13,2923.51 L 6635.13,2957.5 L 6781.15,3103.52 L 7364.75,3103.52 L 7416.18,3052.09 L 7416.18,2544.09 L 7413.39,2541.29 L 7407.69,2542.7 L 7402.76,2542.7 L 7397.93,2541.67 L 7393.42,2539.67 L 7389.42,2536.76 L 7386.12,2533.09 L 7383.65,2528.82 L 7382.12,2524.12 L 7381.61,2519.21 L 7382.12,2514.3 L 7383.65,2509.61 L 7386.12,2505.33 L 7389.42,2501.66 L 7393.42,2498.76 L 7397.93,2496.75 L 7402.76,2495.72 L 7407.69,2495.72 L 7412.52,2496.75 L 7417.04,2498.76 L 7421.03,2501.66 L 7424.33,2505.33 L 7426.8,2509.61 L 7428.33,2514.3 L 7428.85,2519.21 L 7428.33,2524.12 L 7427.28,2527.35 L 7434.21,2534.54 L 7435.12,2536.24 L 7435.87,2540.01 L 7435.87,3056.17 L 7435.12,3059.94 L 7432.98,3063.13 L 7375.79,3120.32 L 7372.59,3122.46 L 7368.83,3123.21 L 6775.15,3123.02 L 6771.61,3121.55 L 6770.12,3120.32 L 6617.1,2967.04 L 6615.63,2963.5 L 6615.45,2961.58 L 6615.45,2923.51 z " style="fill-opacity:1.000000;fill:rgb(94,75,121);stroke:rgb(0,0,0);stroke-width:2"/></g>
<g fill-rule="evenodd"><path d="M 1306.51,2219.78 L 1310.5,2222.68 L 1313.81,2226.35 L 1316.28,2230.63 L 1317.8,2235.32 L 1318.32,2240.23 L 1317.8,2245.14 L 1316.28,2249.84 L 1313.81,2254.12 L 1310.5,2257.79 L 1306.51,2260.69 L 1302,2262.7 L 1297.17,2263.72 L 1292.23,2263.72 L 1287.4,2262.7 L 1282.89,2260.69 L 1278.89,2257.79 L 1275.59,2254.12 L 1273.12,2249.84 L 1271.6,2245.14 L 1271.08,2240.23 L 1271.6,2235.32 L 1273.12,2230.63 L 1275.59,2226.35 L 1278.89,2222.68 L 1282.89,2219.78 L 1282.89,749.349 L 1283.12,747.043 L 1283.79,744.829 L 1284.88,742.788 L 1286.35,740.998 L 1667.32,360.027 L 1669.11,358.559 L 1671.15,357.467 L 1673.36,356.795 L 1675.67,356.569 L 6539.89,356.569 L 6542.19,356.795 L 6544.41,357.467 L 6546.45,358.557 L 6548.24,360.027 L 7603.36,1415.15 L 7604.83,1416.93 L 7605.92,1418.98 L 7606.59,1421.19 L 7606.82,1423.5 L 7606.82,2600.15 L 7610.82,2603.05 L 7614.12,2606.72 L 7616.59,2611 L 7618.11,2615.69 L 7618.63,2620.6 L 7618.11,2625.51 L 7616.59,2630.21 L 7614.12,2634.49 L 7610.82,2638.16 L 7606.82,2641.06 L 7602.31,2643.07 L 7597.48,2644.09 L 7592.54,2644.09 L 7587.71,2643.07 L 7583.2,2641.06 L 7579.21,2638.16 L 7575.9,2634.49 L 7573.43,2630.21 L 7571.91,2625.51 L 7571.39,2620.6 L 7571.91,2615.69 L 7573.43,2611 L 7575.9,2606.72 L 7579.21,2603.05 L 7583.2,2600.15 L 7583.2,1428.39 L 6535,380.188 L 1680.56,380.188 L 1306.51,754.239 L 1306.51,2219.78 z " style="fill-opacity:1.000000;fill:rgb(99,59,112);stroke:rgb(0,0,0);stroke-width:2"/></g>
</svg>
