<?xml version="1.0" standalone="no"?>
<!DOCTYPE svg PUBLIC "-//W3C//DTD SVG 1.1//EN"
"http://www.w3.org/Graphics/SVG/1.1/DTD/svg11.dtd">
<svg width="7690" height="5298" viewBox="0 0 7690 5298" version="1.1"
xmlns="http://www.w3.org/2000/svg"
xmlns:xlink="http://www.w3.org/1999/xlink">
<g fill-rule="evenodd"><path d="M 4596.01,5143.11 L 4596.01,4985.65 L 4596.27,4983.19 L 4597.03,4980.84 L 4598.27,4978.7 L 4599.92,4976.87 L 4601.92,4975.42 L 4604.17,4974.41 L 4606.58,4973.9 L 4609.05,4973.9 L 4611.47,4974.41 L 4613.72,4975.42 L 4615.72,4976.87 L 4617.37,4978.7 L 4618.61,4980.84 L 4619.37,4983.19 L 4619.63,4985.65 L 4619.63,5143.11 L 4619.37,5145.56 L 4618.61,5147.91 L 4617.37,5150.05 L 4615.72,5151.88 L 4613.72,5153.33 L 4611.47,5154.34 L 4609.05,5154.85 L 4606.58,5154.85 L 4604.17,5154.34 L 4601.92,5153.33 L 4599.92,5151.88 L 4598.27,5150.05 L 4597.03,5147.91 L 4596.27,5145.56 L 4596.01,5143.11 z " style="fill-opacity:1.000000;fill:rgb(103,198,105);stroke:rgb(0,0,0);stroke-width:2"/></g>
<g fill-rule="evenodd"><path d="M 3763.71,5143.11 L 3763.71,4985.65 L 3763.96,4983.19 L 3764.73,4980.84 L 3765.96,4978.7 L 3767.61,4976.87 L 3769.61,4975.42 L 3771.87,4974.41 L 3774.28,4973.9 L 3776.75,4973.9 L 3779.16,4974.41 L 3781.42,4975.42 L 3783.42,4976.87 L 3785.07,4978.7 L 3786.3,4980.84 L 3787.06,4983.19 L 3787.32,4985.65 L 3787.32,5143.11 L 3787.06,5145.56 L 3786.3,5147.91 L 3785.07,5150.05 L 3783.42,5151.88 L 3781.42,5153.33 L 3779.16,5154.34 L 3776.75,5154.85 L 3774.28,5154.85 L 3771.87,5154.34 L 3769.61,5153.33 L 3767.61,5151.88 L 3765.96,5150.05 L 3764.73,5147.91 L 3763.96,5145.56 L 3763.71,5143.11 z " style="fill-opacity:1.000000;fill:rgb(115,81,255);stroke:rgb(0,0,0);stroke-width:2"/></g>
<g fill-rule="evenodd"><path d="M 4065.16,4997.45 L 4045.45,4997.45 L 4043,4997.19 L 4040.65,4996.43 L 4038.51,4995.2 L 4036.68,4993.55 L 4035.23,4991.55 L 4034.22,4989.29 L 4033.71,4986.88 L 4033.71,4984.41 L 4034.22,4982 L 4035.23,4979.74 L 4036.68,4977.74 L 4038.51,4976.09 L 4040.65,4974.86 L 4043,4974.09 L 4045.45,4973.84 L 4069.76,4973.98 L 4073.23,4975.08 L 4095.72,4986.33 L 4097.34,4987.31 L 4101.13,4990.88 L 4101.13,4985.65 L 4101.39,4983.19 L 4102.15,4980.84 L 4103.38,4978.7 L 4105.03,4976.87 L 4107.03,4975.42 L 4109.29,4974.41 L 4111.7,4973.9 L 4114.17,4973.9 L 4116.58,4974.41 L 4118.84,4975.42 L 4120.84,4976.87 L 4122.49,4978.7 L 4123.72,4980.84 L 4124.49,4983.19 L 4124.75,4985.65 L 4124.75,5143.11 L 4124.49,5145.56 L 4123.72,5147.91 L 4122.49,5150.05 L 4120.84,5151.88 L 4118.84,5153.33 L 4116.58,5154.34 L 4114.17,5154.85 L 4111.7,5154.85 L 4109.29,5154.34 L 4107.03,5153.33 L 4105.03,5151.88 L 4103.38,5150.05 L 4102.15,5147.91 L 4101.39,5145.56 L 4101.13,5143.11 L 4101.13,5033.43 L 4091.98,5015.13 L 4083.44,5006.59 L 4065.16,4997.45 z " style="fill-opacity:1.000000;fill:rgb(74,236,41);stroke:rgb(0,0,0);stroke-width:2"/></g>
<g fill-rule="evenodd"><path d="M 1445.71,5149.89 L 1443.96,5151.88 L 1441.97,5153.33 L 1439.71,5154.34 L 1437.3,5154.85 L 1434.83,5154.85 L 1432.41,5154.34 L 1430.16,5153.33 L 1428.16,5151.88 L 1426.51,5150.05 L 1425.27,5147.91 L 1424.51,5145.56 L 1424.25,5143.11 L 1424.39,5017.57 L 1425.5,5014.11 L 1436.75,4991.61 L 1438.96,4988.54 L 1442.03,4986.33 L 1464.52,4975.08 L 1466.21,4974.39 L 1469.81,4973.84 L 1516.61,4973.98 L 1520.07,4975.08 L 1542.57,4986.33 L 1544.65,4987.66 L 1546.41,4989.39 L 1547.77,4991.45 L 1548.67,4993.75 L 1549.07,4996.18 L 1548.96,4998.65 L 1548.34,5001.04 L 1547.24,5003.25 L 1545.7,5005.18 L 1543.8,5006.74 L 1541.6,5007.88 L 1539.22,5008.54 L 1536.76,5008.69 L 1534.32,5008.32 L 1532.01,5007.45 L 1512.01,4997.45 L 1472.59,4997.45 L 1456.11,5005.69 L 1447.87,5022.17 L 1447.87,5034.58 L 1461.34,5041.32 L 1516.61,5041.46 L 1520.07,5042.57 L 1542.57,5053.81 L 1545.63,5056.03 L 1547.85,5059.1 L 1559.1,5081.59 L 1559.79,5083.28 L 1560.35,5086.87 L 1560.35,5109.37 L 1559.79,5112.96 L 1547.85,5137.14 L 1545.64,5140.21 L 1542.57,5142.42 L 1520.07,5153.67 L 1516.61,5154.77 L 1458.56,5154.92 L 1454.96,5154.36 L 1445.71,5149.89M 1447.87,5124.56 L 1461.34,5131.3 L 1512,5131.3 L 1528.48,5123.06 L 1536.73,5106.58 L 1536.73,5089.66 L 1528.49,5073.18 L 1512.01,5064.94 L 1458.56,5064.94 L 1454.96,5064.38 L 1447.87,5060.99 L 1447.87,5124.56 z " style="fill-opacity:1.000000;fill:rgb(205,186,171);stroke:rgb(0,0,0);stroke-width:2"/></g>
<g fill-rule="evenodd"><path d="M 593.071,5022.17 L 593.071,5034.58 L 606.543,5041.32 L 661.809,5041.46 L 665.273,5042.57 L 687.768,5053.81 L 689.392,5054.8 L 692.068,5057.47 L 704.985,5083.28 L 705.545,5086.87 L 705.545,5109.37 L 704.985,5112.96 L 704.297,5114.65 L 693.05,5137.14 L 690.838,5140.21 L 689.392,5141.44 L 665.273,5153.67 L 661.809,5154.77 L 603.758,5154.92 L 600.164,5154.36 L 590.909,5149.89 L 589.163,5151.88 L 587.165,5153.33 L 584.91,5154.34 L 582.496,5154.85 L 580.026,5154.85 L 577.612,5154.34 L 575.357,5153.33 L 573.359,5151.88 L 571.707,5150.05 L 570.473,5147.91 L 569.711,5145.56 L 569.453,5143.11 L 569.453,5019.39 L 570.011,5015.79 L 570.699,5014.11 L 581.948,4991.61 L 584.16,4988.54 L 587.229,4986.33 L 611.411,4974.39 L 615.004,4973.84 L 661.809,4973.98 L 665.273,4975.08 L 687.768,4986.33 L 689.848,4987.66 L 691.608,4989.39 L 692.968,4991.45 L 693.87,4993.75 L 694.276,4996.18 L 694.166,4998.65 L 693.546,5001.04 L 692.442,5003.25 L 690.902,5005.18 L 688.996,5006.74 L 686.805,5007.88 L 684.425,5008.54 L 681.961,5008.69 L 679.519,5008.32 L 677.208,5007.45 L 657.21,4997.45 L 617.788,4997.45 L 601.312,5005.69 L 593.071,5022.17M 593.071,5124.56 L 606.543,5131.3 L 657.204,5131.3 L 673.686,5123.06 L 681.927,5106.58 L 681.927,5089.66 L 673.688,5073.18 L 657.21,5064.94 L 603.758,5064.94 L 600.164,5064.38 L 593.071,5060.99 L 593.071,5124.56 z " style="fill-opacity:1.000000;fill:rgb(242,251,227);stroke:rgb(0,0,0);stroke-width:2"/></g>
<g fill-rule="evenodd"><path d="M 884.381,5013.03 L 877.944,5006.59 L 859.662,4997.45 L 831.489,4997.45 L 815.011,5005.69 L 806.771,5022.17 L 806.771,5143.11 L 806.511,5145.56 L 805.75,5147.91 L 804.516,5150.05 L 802.864,5151.88 L 800.866,5153.33 L 798.61,5154.34 L 796.197,5154.85 L 793.727,5154.85 L 791.313,5154.34 L 789.057,5153.33 L 787.06,5151.88 L 785.408,5150.05 L 784.174,5147.91 L 783.412,5145.56 L 783.154,5143.11 L 783.294,5017.57 L 784.4,5014.11 L 795.647,4991.61 L 797.858,4988.54 L 800.928,4986.33 L 823.424,4975.08 L 825.111,4974.39 L 828.705,4973.84 L 864.263,4973.98 L 867.727,4975.08 L 884.603,4983.52 L 885.401,4980.84 L 886.635,4978.7 L 888.287,4976.87 L 890.284,4975.42 L 892.54,4974.41 L 894.954,4973.9 L 897.424,4973.9 L 899.837,4974.41 L 902.093,4975.42 L 904.091,4976.87 L 905.743,4978.7 L 906.977,4980.84 L 907.738,4983.19 L 907.998,4985.65 L 907.998,5143.11 L 907.738,5145.56 L 906.977,5147.91 L 905.743,5150.05 L 904.091,5151.88 L 902.093,5153.33 L 899.837,5154.34 L 897.424,5154.85 L 894.954,5154.85 L 892.54,5154.34 L 890.284,5153.33 L 888.287,5151.88 L 886.635,5150.05 L 885.401,5147.91 L 884.639,5145.56 L 884.381,5143.11 L 884.381,5013.03 z " style="fill-opacity:1.000000;fill:rgb(70,124,194);stroke:rgb(0,0,0);stroke-width:2"/></g>
<g fill-rule="evenodd"><path d="M 1232.01,4978.86 L 1241.26,4974.39 L 1244.86,4973.84 L 1289.85,4973.84 L 1293.44,4974.39 L 1295.13,4975.08 L 1319.25,4987.31 L 1331.94,4999.79 L 1334.15,5002.86 L 1346.08,5027.04 L 1346.64,5030.63 L 1346.5,5099.93 L 1345.4,5103.4 L 1334.15,5125.89 L 1331.94,5128.96 L 1319.25,5141.44 L 1295.13,5153.67 L 1291.66,5154.77 L 1244.86,5154.92 L 1241.26,5154.36 L 1234.17,5150.97 L 1234.17,5174.06 L 1243.31,5192.35 L 1251.85,5200.89 L 1270.14,5210.03 L 1298.3,5210.03 L 1318.31,5200.03 L 1320.62,5199.16 L 1323.06,5198.79 L 1325.52,5198.94 L 1327.9,5199.6 L 1330.09,5200.74 L 1332,5202.31 L 1333.54,5204.24 L 1334.64,5206.44 L 1335.27,5208.83 L 1335.38,5211.3 L 1334.97,5213.73 L 1334.07,5216.03 L 1332.71,5218.09 L 1330.95,5219.83 L 1328.87,5221.15 L 1304.69,5233.09 L 1301.09,5233.65 L 1265.53,5233.51 L 1262.07,5232.4 L 1239.58,5221.15 L 1236.51,5218.94 L 1224.03,5206.25 L 1211.11,5180.44 L 1210.55,5176.85 L 1210.55,4985.65 L 1210.81,4983.19 L 1211.57,4980.84 L 1212.81,4978.7 L 1214.46,4976.87 L 1216.46,4975.42 L 1218.71,4974.41 L 1221.13,4973.9 L 1223.6,4973.9 L 1226.01,4974.41 L 1228.27,4975.42 L 1230.26,4976.87 L 1232.01,4978.86M 1234.17,5124.56 L 1247.64,5131.3 L 1287.06,5131.3 L 1305.35,5122.16 L 1313.88,5113.62 L 1323.03,5095.33 L 1323.03,5033.42 L 1313.88,5015.14 L 1305.35,5006.59 L 1287.06,4997.45 L 1247.64,4997.45 L 1234.17,5004.19 L 1234.17,5124.56 z " style="fill-opacity:1.000000;fill:rgb(84,248,27);stroke:rgb(0,0,0);stroke-width:2"/></g>
<g fill-rule="evenodd"><path d="M 1020.47,5115.72 L 1026.91,5122.16 L 1045.19,5131.3 L 1073.36,5131.3 L 1089.84,5123.06 L 1098.08,5106.58 L 1098.08,4985.65 L 1098.34,4983.19 L 1099.1,4980.84 L 1100.33,4978.7 L 1101.99,4976.87 L 1103.98,4975.42 L 1106.24,4974.41 L 1108.65,4973.9 L 1111.12,4973.9 L 1113.54,4974.41 L 1115.79,4975.42 L 1117.79,4976.87 L 1119.44,4978.7 L 1120.68,4980.84 L 1121.44,4983.19 L 1121.7,4985.65 L 1121.56,5111.18 L 1120.45,5114.65 L 1109.2,5137.14 L 1106.99,5140.21 L 1103.92,5142.42 L 1081.43,5153.67 L 1079.74,5154.36 L 1076.15,5154.92 L 1040.58,5154.77 L 1037.12,5153.67 L 1020.25,5145.23 L 1019.45,5147.91 L 1018.22,5150.05 L 1016.56,5151.88 L 1014.57,5153.33 L 1012.31,5154.34 L 1009.9,5154.85 L 1007.43,5154.85 L 1005.01,5154.34 L 1002.76,5153.33 L 1000.76,5151.88 L 999.108,5150.05 L 997.875,5147.91 L 997.113,5145.56 L 996.855,5143.11 L 996.855,4985.65 L 997.113,4983.19 L 997.875,4980.84 L 999.108,4978.7 L 1000.76,4976.87 L 1002.76,4975.42 L 1005.01,4974.41 L 1007.43,4973.9 L 1009.9,4973.9 L 1012.31,4974.41 L 1014.57,4975.42 L 1016.56,4976.87 L 1018.22,4978.7 L 1019.45,4980.84 L 1020.21,4983.19 L 1020.47,4985.65 L 1020.47,5115.72 z " style="fill-opacity:1.000000;fill:rgb(232,231,141);stroke:rgb(0,0,0);stroke-width:2"/></g>
<g fill-rule="evenodd"><path d="M 1716.69,5131.3 L 1716.69,4906.91 L 1716.94,4904.46 L 1717.71,4902.11 L 1718.94,4899.97 L 1720.59,4898.14 L 1722.59,4896.69 L 1724.85,4895.68 L 1727.26,4895.17 L 1729.73,4895.17 L 1732.14,4895.68 L 1734.4,4896.69 L 1736.4,4898.14 L 1738.05,4899.97 L 1739.28,4902.11 L 1740.04,4904.46 L 1740.3,4906.91 L 1740.3,5143.11 L 1740.08,5145.41 L 1739.4,5147.63 L 1738.31,5149.67 L 1736.84,5151.46 L 1735.05,5152.92 L 1733.01,5154.02 L 1730.8,5154.69 L 1728.49,5154.92 L 1616.02,5154.92 L 1613.57,5154.66 L 1611.22,5153.89 L 1609.08,5152.66 L 1607.24,5151.01 L 1605.79,5149.01 L 1604.79,5146.76 L 1604.28,5144.34 L 1604.28,5141.87 L 1604.79,5139.46 L 1605.79,5137.2 L 1607.24,5135.2 L 1609.08,5133.55 L 1611.22,5132.32 L 1613.57,5131.56 L 1616.02,5131.3 L 1716.69,5131.3 z " style="fill-opacity:1.000000;fill:rgb(118,90,46);stroke:rgb(0,0,0);stroke-width:2"/></g>
<g fill-rule="evenodd"><path d="M 2234.06,5106.58 L 2234.06,4906.91 L 2234.32,4904.46 L 2235.08,4902.11 L 2236.32,4899.97 L 2237.97,4898.14 L 2239.97,4896.69 L 2242.22,4895.68 L 2244.64,4895.17 L 2247.11,4895.17 L 2249.52,4895.68 L 2251.78,4896.69 L 2253.77,4898.14 L 2255.43,4899.97 L 2256.66,4902.11 L 2257.42,4904.46 L 2257.68,4906.91 L 2257.54,5111.18 L 2256.43,5114.65 L 2245.19,5137.14 L 2242.97,5140.21 L 2241.53,5141.44 L 2217.41,5153.67 L 2215.1,5154.54 L 2212.66,5154.9 L 2210.19,5154.76 L 2207.81,5154.1 L 2205.62,5152.96 L 2203.72,5151.39 L 2202.18,5149.46 L 2201.07,5147.25 L 2200.45,5144.87 L 2200.34,5142.4 L 2200.75,5139.96 L 2201.65,5137.66 L 2203.01,5135.6 L 2204.77,5133.87 L 2206.85,5132.55 L 2225.82,5123.06 L 2234.06,5106.58 z " style="fill-opacity:1.000000;fill:rgb(99,51,159);stroke:rgb(0,0,0);stroke-width:2"/></g>
<g fill-rule="evenodd"><path d="M 2096.87,4997.45 L 2057.45,4997.45 L 2040.97,5005.69 L 2032.73,5022.17 L 2032.73,5034.58 L 2046.21,5041.32 L 2101.47,5041.46 L 2104.94,5042.57 L 2127.43,5053.81 L 2130.5,5056.03 L 2132.71,5059.1 L 2143.96,5081.59 L 2144.65,5083.28 L 2145.21,5086.87 L 2145.21,5109.37 L 2144.65,5112.96 L 2132.71,5137.14 L 2130.5,5140.21 L 2127.43,5142.42 L 2104.94,5153.67 L 2101.47,5154.77 L 2043.42,5154.92 L 2039.83,5154.36 L 2030.57,5149.89 L 2028.83,5151.88 L 2026.83,5153.33 L 2024.57,5154.34 L 2022.16,5154.85 L 2019.69,5154.85 L 2017.28,5154.34 L 2015.02,5153.33 L 2013.02,5151.88 L 2011.37,5150.05 L 2010.14,5147.91 L 2009.37,5145.56 L 2009.12,5143.11 L 2009.12,5019.39 L 2009.67,5015.79 L 2010.36,5014.11 L 2021.61,4991.61 L 2023.82,4988.54 L 2026.89,4986.33 L 2049.39,4975.08 L 2052.85,4973.98 L 2099.66,4973.84 L 2103.25,4974.39 L 2104.94,4975.08 L 2127.43,4986.33 L 2129.51,4987.66 L 2131.27,4989.39 L 2132.63,4991.45 L 2133.53,4993.75 L 2133.94,4996.18 L 2133.83,4998.65 L 2133.21,5001.04 L 2132.1,5003.25 L 2130.57,5005.18 L 2128.66,5006.74 L 2126.47,5007.88 L 2124.09,5008.54 L 2121.62,5008.69 L 2119.18,5008.32 L 2116.87,5007.45 L 2096.87,4997.45M 2096.87,5131.3 L 2113.35,5123.06 L 2121.59,5106.58 L 2121.59,5089.66 L 2113.35,5073.18 L 2096.87,5064.94 L 2043.42,5064.94 L 2039.83,5064.38 L 2032.73,5060.99 L 2032.73,5124.56 L 2046.21,5131.3 L 2096.87,5131.3 z " style="fill-opacity:1.000000;fill:rgb(201,154,102);stroke:rgb(0,0,0);stroke-width:2"/></g>
<g fill-rule="evenodd"><path d="M 2752.57,4977.79 L 2759.66,4974.39 L 2763.25,4973.84 L 2808.24,4973.84 L 2811.83,4974.39 L 2813.52,4975.08 L 2837.64,4987.31 L 2850.33,4999.79 L 2852.54,5002.86 L 2864.48,5027.04 L 2865.04,5030.63 L 2865.04,5098.12 L 2864.48,5101.71 L 2863.79,5103.4 L 2851.56,5127.52 L 2839.09,5140.21 L 2836.02,5142.42 L 2811.83,5154.36 L 2808.24,5154.92 L 2763.25,5154.92 L 2759.66,5154.36 L 2750.4,5149.89 L 2748.66,5151.88 L 2746.66,5153.33 L 2744.4,5154.34 L 2741.99,5154.85 L 2739.52,5154.85 L 2737.11,5154.34 L 2734.85,5153.33 L 2732.85,5151.88 L 2731.2,5150.05 L 2729.97,5147.91 L 2729.21,5145.56 L 2728.95,5143.11 L 2728.95,4906.91 L 2729.21,4904.46 L 2729.97,4902.11 L 2731.2,4899.97 L 2732.85,4898.14 L 2734.85,4896.69 L 2737.11,4895.68 L 2739.52,4895.17 L 2741.99,4895.17 L 2744.4,4895.68 L 2746.66,4896.69 L 2748.66,4898.14 L 2750.31,4899.97 L 2751.54,4902.11 L 2752.31,4904.46 L 2752.57,4906.91 L 2752.57,4977.79M 2752.57,5124.56 L 2766.04,5131.3 L 2805.45,5131.3 L 2823.74,5122.16 L 2832.28,5113.62 L 2841.42,5095.33 L 2841.42,5033.42 L 2832.28,5015.14 L 2823.74,5006.59 L 2805.46,4997.45 L 2766.04,4997.45 L 2752.57,5004.19 L 2752.57,5124.56 z " style="fill-opacity:1.000000;fill:rgb(50,13,183);stroke:rgb(0,0,0);stroke-width:2"/></g>
<g fill-rule="evenodd"><path d="M 2627.72,5074.06 L 2524.74,5053.46 L 2522.53,5052.79 L 2520.49,5051.69 L 2518.7,5050.23 L 2517.23,5048.44 L 2516.14,5046.4 L 2515.48,5044.18 L 2515.25,5041.88 L 2515.39,5017.57 L 2516.49,5014.11 L 2527.74,4991.61 L 2529.95,4988.54 L 2533.02,4986.33 L 2555.52,4975.08 L 2558.98,4973.98 L 2605.79,4973.84 L 2609.38,4974.39 L 2633.56,4986.33 L 2636.63,4988.54 L 2638.84,4991.61 L 2650.09,5014.11 L 2650.78,5015.79 L 2651.34,5019.39 L 2651.2,5111.18 L 2650.09,5114.65 L 2638.84,5137.14 L 2636.63,5140.21 L 2633.56,5142.42 L 2611.07,5153.67 L 2609.38,5154.36 L 2605.79,5154.92 L 2558.98,5154.77 L 2555.52,5153.67 L 2533.02,5142.42 L 2530.94,5141.09 L 2529.18,5139.36 L 2527.82,5137.3 L 2526.92,5135 L 2526.52,5132.57 L 2526.63,5130.1 L 2527.25,5127.71 L 2528.35,5125.5 L 2529.89,5123.57 L 2531.8,5122 L 2533.99,5120.87 L 2536.37,5120.21 L 2538.83,5120.06 L 2541.27,5120.43 L 2543.58,5121.3 L 2563.59,5131.3 L 2603,5131.3 L 2619.48,5123.06 L 2627.72,5106.58 L 2627.72,5074.06M 2538.87,5022.17 L 2538.87,5032.2 L 2627.72,5049.97 L 2627.72,5022.18 L 2619.48,5005.69 L 2603,4997.45 L 2563.58,4997.45 L 2547.11,5005.69 L 2538.87,5022.17 z " style="fill-opacity:1.000000;fill:rgb(49,88,163);stroke:rgb(0,0,0);stroke-width:2"/></g>
<g fill-rule="evenodd"><path d="M 3146.22,4977.78 L 3153.32,4974.39 L 3156.91,4973.84 L 3201.9,4973.84 L 3205.49,4974.39 L 3207.18,4975.08 L 3231.3,4987.31 L 3243.99,4999.79 L 3246.2,5002.86 L 3258.14,5027.04 L 3258.7,5030.63 L 3258.7,5098.12 L 3258.14,5101.71 L 3257.45,5103.4 L 3245.22,5127.52 L 3232.74,5140.21 L 3229.67,5142.42 L 3205.49,5154.36 L 3201.9,5154.92 L 3156.91,5154.92 L 3153.32,5154.36 L 3144.06,5149.89 L 3142.32,5151.88 L 3140.32,5153.33 L 3138.06,5154.34 L 3135.65,5154.85 L 3133.18,5154.85 L 3130.77,5154.34 L 3128.51,5153.33 L 3126.51,5151.88 L 3124.86,5150.05 L 3123.63,5147.91 L 3122.86,5145.56 L 3122.61,5143.11 L 3122.61,4906.91 L 3122.86,4904.46 L 3123.63,4902.11 L 3124.86,4899.97 L 3126.51,4898.14 L 3128.51,4896.69 L 3130.77,4895.68 L 3133.18,4895.17 L 3135.65,4895.17 L 3138.06,4895.68 L 3140.32,4896.69 L 3142.32,4898.14 L 3143.97,4899.97 L 3145.2,4902.11 L 3145.96,4904.46 L 3146.22,4906.91 L 3146.22,4977.78M 3199.11,5131.3 L 3217.4,5122.16 L 3225.94,5113.62 L 3235.08,5095.33 L 3235.08,5033.43 L 3225.94,5015.13 L 3217.4,5006.59 L 3199.11,4997.45 L 3159.69,4997.45 L 3146.22,5004.19 L 3146.22,5124.56 L 3159.7,5131.3 L 3199.11,5131.3 z " style="fill-opacity:1.000000;fill:rgb(90,37,93);stroke:rgb(0,0,0);stroke-width:2"/></g>
<g fill-rule="evenodd"><path d="M 3573.62,4977.79 L 3580.72,4974.39 L 3584.31,4973.84 L 3629.3,4973.84 L 3632.89,4974.39 L 3634.58,4975.08 L 3658.7,4987.31 L 3671.39,4999.79 L 3673.6,5002.86 L 3685.54,5027.04 L 3686.1,5030.63 L 3686.1,5098.12 L 3685.54,5101.71 L 3684.85,5103.4 L 3672.62,5127.52 L 3660.14,5140.21 L 3657.07,5142.42 L 3632.89,5154.36 L 3629.3,5154.92 L 3584.31,5154.92 L 3580.72,5154.36 L 3571.46,5149.89 L 3569.72,5151.88 L 3567.72,5153.33 L 3565.46,5154.34 L 3563.05,5154.85 L 3560.58,5154.85 L 3558.17,5154.34 L 3555.91,5153.33 L 3553.91,5151.88 L 3552.26,5150.05 L 3551.03,5147.91 L 3550.26,5145.56 L 3550.01,5143.11 L 3550.01,4906.91 L 3550.26,4904.46 L 3551.03,4902.11 L 3552.26,4899.97 L 3553.91,4898.14 L 3555.91,4896.69 L 3558.17,4895.68 L 3560.58,4895.17 L 3563.05,4895.17 L 3565.46,4895.68 L 3567.72,4896.69 L 3569.72,4898.14 L 3571.37,4899.97 L 3572.6,4902.11 L 3573.36,4904.46 L 3573.62,4906.91 L 3573.62,4977.79M 3626.51,5131.3 L 3644.8,5122.16 L 3653.34,5113.62 L 3662.48,5095.33 L 3662.48,5033.42 L 3653.34,5015.14 L 3644.8,5006.59 L 3626.51,4997.45 L 3587.09,4997.45 L 3573.62,5004.19 L 3573.62,5124.56 L 3587.1,5131.3 L 3626.51,5131.3 z " style="fill-opacity:1.000000;fill:rgb(5,23,88);stroke:rgb(0,0,0);stroke-width:2"/></g>
<g fill-rule="evenodd"><path d="M 3384.64,4997.45 L 3368.16,5005.69 L 3359.92,5022.17 L 3359.92,5034.58 L 3373.4,5041.32 L 3426.85,5041.32 L 3430.44,5041.88 L 3432.13,5042.57 L 3454.62,5053.81 L 3457.69,5056.03 L 3459.9,5059.1 L 3471.84,5083.28 L 3472.4,5086.87 L 3472.25,5111.18 L 3471.15,5114.65 L 3459.9,5137.14 L 3457.69,5140.21 L 3454.62,5142.42 L 3430.44,5154.36 L 3426.85,5154.92 L 3370.61,5154.92 L 3367.02,5154.36 L 3357.76,5149.89 L 3356.02,5151.88 L 3354.02,5153.33 L 3351.76,5154.34 L 3349.35,5154.85 L 3346.88,5154.85 L 3344.46,5154.34 L 3342.21,5153.33 L 3340.21,5151.88 L 3338.56,5150.05 L 3337.33,5147.91 L 3336.56,5145.56 L 3336.31,5143.11 L 3336.45,5017.57 L 3337.55,5014.11 L 3349.78,4989.99 L 3351.01,4988.54 L 3354.08,4986.33 L 3376.58,4975.08 L 3380.04,4973.98 L 3426.85,4973.84 L 3430.44,4974.39 L 3432.13,4975.08 L 3454.62,4986.33 L 3456.7,4987.66 L 3458.46,4989.39 L 3459.82,4991.45 L 3460.72,4993.75 L 3461.13,4996.18 L 3461.02,4998.65 L 3460.4,5001.04 L 3459.29,5003.25 L 3457.75,5005.18 L 3455.85,5006.74 L 3453.66,5007.88 L 3451.28,5008.54 L 3448.81,5008.69 L 3446.37,5008.32 L 3444.06,5007.45 L 3424.06,4997.45 L 3384.64,4997.45M 3373.4,5131.3 L 3424.06,5131.3 L 3440.54,5123.06 L 3448.78,5106.58 L 3448.78,5089.66 L 3440.54,5073.18 L 3424.06,5064.94 L 3370.61,5064.94 L 3367.02,5064.38 L 3359.92,5060.99 L 3359.92,5124.56 L 3373.4,5131.3 z " style="fill-opacity:1.000000;fill:rgb(233,94,212);stroke:rgb(0,0,0);stroke-width:2"/></g>
<g fill-rule="evenodd"><path d="M 3783.62,4937.96 L 3782.07,4939.23 L 3780.03,4940.32 L 3776.75,4941.15 L 3773.21,4940.99 L 3769.61,4939.63 L 3767.16,4937.76 L 3755.92,4926.51 L 3754.45,4924.72 L 3753.36,4922.68 L 3752.68,4920.46 L 3752.46,4918.16 L 3752.68,4915.85 L 3753.36,4913.64 L 3754.45,4911.6 L 3755.92,4909.81 L 3768.08,4897.73 L 3770.15,4896.39 L 3772.46,4895.51 L 3774.9,4895.12 L 3777.36,4895.25 L 3779.75,4895.89 L 3782.07,4897.09 L 3795.11,4909.81 L 3796.58,4911.6 L 3797.67,4913.64 L 3798.34,4915.85 L 3798.57,4918.16 L 3798.34,4920.46 L 3797.67,4922.68 L 3796.58,4924.72 L 3795.11,4926.51 L 3783.62,4937.96 z " style="fill-opacity:1.000000;fill:rgb(171,178,205);stroke:rgb(0,0,0);stroke-width:2"/></g>
<g fill-rule="evenodd"><path d="M 3896.79,5084.42 L 3888.55,5100.9 L 3888.55,5106.58 L 3896.79,5123.06 L 3913.27,5131.3 L 3952.68,5131.3 L 3972.69,5121.3 L 3975,5120.43 L 3977.44,5120.06 L 3979.9,5120.21 L 3982.28,5120.87 L 3984.47,5122.01 L 3986.38,5123.57 L 3987.92,5125.5 L 3989.02,5127.71 L 3989.64,5130.1 L 3989.75,5132.57 L 3989.35,5135 L 3988.45,5137.3 L 3987.09,5139.36 L 3985.33,5141.09 L 3983.25,5142.42 L 3960.75,5153.67 L 3957.29,5154.77 L 3908.66,5154.77 L 3905.2,5153.67 L 3882.71,5142.42 L 3879.64,5140.21 L 3877.43,5137.14 L 3866.18,5114.65 L 3865.07,5111.18 L 3864.93,5098.12 L 3865.49,5094.53 L 3877.43,5070.34 L 3878.41,5068.72 L 3881.08,5066.04 L 3905.2,5053.81 L 3908.66,5052.71 L 3941.44,5052.57 L 3957.92,5044.33 L 3966.16,5027.85 L 3966.16,5022.18 L 3957.92,5005.69 L 3941.44,4997.45 L 3913.27,4997.45 L 3893.27,5007.45 L 3890.96,5008.32 L 3888.52,5008.69 L 3886.05,5008.54 L 3883.67,5007.88 L 3881.48,5006.74 L 3879.57,5005.18 L 3878.04,5003.25 L 3876.93,5001.04 L 3876.31,4998.65 L 3876.2,4996.18 L 3876.61,4993.75 L 3877.51,4991.45 L 3878.87,4989.39 L 3880.63,4987.66 L 3882.71,4986.33 L 3905.2,4975.08 L 3906.89,4974.39 L 3910.48,4973.84 L 3946.04,4973.98 L 3949.5,4975.08 L 3973.62,4987.31 L 3976.3,4989.98 L 3977.28,4991.61 L 3988.53,5014.11 L 3989.22,5015.79 L 3989.78,5019.39 L 3989.78,5030.63 L 3989.22,5034.23 L 3976.3,5060.03 L 3975.07,5061.48 L 3972,5063.69 L 3947.82,5075.63 L 3944.23,5076.19 L 3913.27,5076.19 L 3896.79,5084.42 z " style="fill-opacity:1.000000;fill:rgb(198,155,180);stroke:rgb(0,0,0);stroke-width:2"/></g>
<g fill-rule="evenodd"><path d="M 4945.8,5095.33 L 4954.94,5113.62 L 4963.48,5122.16 L 4981.77,5131.3 L 5021.18,5131.3 L 5039.47,5122.16 L 5048.01,5113.62 L 5057.15,5095.33 L 5057.15,4906.91 L 5057.41,4904.46 L 5058.17,4902.11 L 5059.41,4899.97 L 5061.06,4898.14 L 5063.06,4896.69 L 5065.31,4895.68 L 5067.73,4895.17 L 5070.2,4895.17 L 5072.61,4895.68 L 5074.87,4896.69 L 5076.86,4898.14 L 5078.52,4899.97 L 5079.75,4902.11 L 5080.51,4904.46 L 5080.77,4906.91 L 5080.63,5099.93 L 5079.52,5103.4 L 5067.29,5127.52 L 5054.82,5140.21 L 5051.75,5142.42 L 5029.25,5153.67 L 5027.56,5154.36 L 5023.97,5154.92 L 4977.16,5154.77 L 4973.7,5153.67 L 4951.21,5142.42 L 4948.14,5140.21 L 4935.66,5127.52 L 4922.74,5101.71 L 4922.18,5098.12 L 4922.18,4906.91 L 4922.44,4904.46 L 4923.2,4902.11 L 4924.44,4899.97 L 4926.09,4898.14 L 4928.09,4896.69 L 4930.34,4895.68 L 4932.76,4895.17 L 4935.23,4895.17 L 4937.64,4895.68 L 4939.9,4896.69 L 4941.89,4898.14 L 4943.55,4899.97 L 4944.78,4902.11 L 4945.54,4904.46 L 4945.8,4906.91 L 4945.8,5095.33 z " style="fill-opacity:1.000000;fill:rgb(84,17,14);stroke:rgb(0,0,0);stroke-width:2"/></g>
<g fill-rule="evenodd"><path d="M 4290.1,5131.3 L 4306.59,5123.06 L 4314.83,5106.58 L 4314.83,5074.06 L 4211.84,5053.46 L 4209.63,5052.79 L 4207.59,5051.69 L 4205.8,5050.23 L 4204.34,5048.44 L 4203.25,5046.4 L 4202.58,5044.18 L 4202.35,5041.88 L 4202.49,5017.57 L 4203.6,5014.11 L 4214.85,4991.61 L 4217.06,4988.54 L 4220.13,4986.33 L 4244.31,4974.39 L 4247.9,4973.84 L 4292.89,4973.84 L 4296.48,4974.39 L 4298.17,4975.08 L 4320.67,4986.33 L 4323.74,4988.54 L 4325.95,4991.61 L 4337.88,5015.79 L 4338.44,5019.39 L 4338.3,5111.18 L 4337.2,5114.65 L 4325.95,5137.14 L 4323.74,5140.21 L 4320.67,5142.42 L 4298.17,5153.67 L 4294.71,5154.77 L 4247.9,5154.92 L 4244.31,5154.36 L 4242.62,5153.67 L 4220.13,5142.42 L 4218.05,5141.09 L 4216.29,5139.36 L 4214.93,5137.3 L 4214.03,5135 L 4213.62,5132.57 L 4213.73,5130.1 L 4214.35,5127.71 L 4215.46,5125.5 L 4217,5123.57 L 4218.9,5122 L 4221.09,5120.87 L 4223.47,5120.21 L 4225.94,5120.06 L 4228.38,5120.43 L 4230.69,5121.3 L 4250.69,5131.3 L 4290.1,5131.3M 4290.11,4997.45 L 4250.69,4997.45 L 4234.21,5005.69 L 4225.97,5022.17 L 4225.97,5032.2 L 4314.83,5049.97 L 4314.83,5022.18 L 4306.59,5005.69 L 4290.11,4997.45 z " style="fill-opacity:1.000000;fill:rgb(130,116,65);stroke:rgb(0,0,0);stroke-width:2"/></g>
<g fill-rule="evenodd"><path d="M 4461.6,5108 L 4506.72,4981.67 L 4507.79,4979.45 L 4509.3,4977.49 L 4511.18,4975.89 L 4513.35,4974.72 L 4515.72,4974.03 L 4518.18,4973.84 L 4520.63,4974.17 L 4522.95,4975 L 4525.05,4976.3 L 4526.84,4978 L 4528.23,4980.04 L 4529.17,4982.32 L 4529.62,4984.75 L 4529.54,4987.22 L 4528.96,4989.62 L 4472.72,5147.08 L 4471.69,5149.26 L 4470.23,5151.18 L 4468.41,5152.76 L 4466.3,5153.94 L 4464,5154.67 L 4461.6,5154.91 L 4459.2,5154.67 L 4456.91,5153.94 L 4454.8,5152.76 L 4452.98,5151.18 L 4451.52,5149.26 L 4450.48,5147.08 L 4394.25,4989.62 L 4393.66,4987.22 L 4393.59,4984.75 L 4394.03,4982.32 L 4394.97,4980.04 L 4396.37,4978 L 4398.15,4976.29 L 4400.25,4975 L 4402.58,4974.17 L 4405.02,4973.84 L 4407.49,4974.03 L 4409.86,4974.72 L 4412.03,4975.89 L 4413.91,4977.49 L 4415.42,4979.45 L 4416.49,4981.67 L 4461.6,5108 z " style="fill-opacity:1.000000;fill:rgb(33,61,220);stroke:rgb(0,0,0);stroke-width:2"/></g>
<g fill-rule="evenodd"><path d="M 4732.1,5022.17 L 4732.1,5143.11 L 4731.84,5145.56 L 4731.08,5147.91 L 4729.85,5150.05 L 4728.2,5151.88 L 4726.2,5153.33 L 4723.94,5154.34 L 4721.53,5154.85 L 4719.06,5154.85 L 4716.64,5154.34 L 4714.39,5153.33 L 4712.39,5151.88 L 4710.74,5150.05 L 4709.51,5147.91 L 4708.74,5145.56 L 4708.49,5143.11 L 4708.49,5019.39 L 4709.04,5015.79 L 4709.73,5014.11 L 4721.96,4989.99 L 4723.19,4988.54 L 4726.26,4986.33 L 4748.75,4975.08 L 4752.22,4973.98 L 4789.59,4973.98 L 4793.06,4975.08 L 4809.93,4983.52 L 4810.73,4980.84 L 4811.96,4978.7 L 4813.62,4976.87 L 4815.61,4975.42 L 4817.87,4974.41 L 4820.28,4973.9 L 4822.75,4973.9 L 4825.17,4974.41 L 4827.42,4975.42 L 4829.42,4976.87 L 4831.07,4978.7 L 4832.31,4980.84 L 4833.07,4983.19 L 4833.33,4985.65 L 4833.33,5143.11 L 4833.07,5145.56 L 4832.31,5147.91 L 4831.07,5150.05 L 4829.42,5151.88 L 4827.42,5153.33 L 4825.17,5154.34 L 4822.75,5154.85 L 4820.28,5154.85 L 4817.87,5154.34 L 4815.61,5153.33 L 4813.62,5151.88 L 4811.96,5150.05 L 4810.73,5147.91 L 4809.97,5145.56 L 4809.71,5143.11 L 4809.71,5013.03 L 4803.28,5006.59 L 4784.99,4997.45 L 4756.82,4997.45 L 4740.34,5005.69 L 4732.1,5022.17 z " style="fill-opacity:1.000000;fill:rgb(135,112,233);stroke:rgb(0,0,0);stroke-width:2"/></g>
<g fill-rule="evenodd"><path d="M 4615.92,4937.96 L 4614.38,4939.23 L 4612.34,4940.32 L 4609.05,4941.15 L 4605.52,4940.99 L 4601.92,4939.63 L 4599.47,4937.76 L 4588.22,4926.51 L 4586.75,4924.72 L 4585.66,4922.68 L 4584.99,4920.46 L 4584.76,4918.16 L 4584.99,4915.85 L 4585.66,4913.64 L 4586.75,4911.6 L 4588.22,4909.81 L 4600.39,4897.73 L 4602.46,4896.39 L 4604.77,4895.51 L 4607.2,4895.12 L 4609.67,4895.25 L 4612.05,4895.89 L 4614.38,4897.09 L 4627.42,4909.81 L 4628.88,4911.6 L 4629.98,4913.64 L 4630.65,4915.85 L 4630.87,4918.16 L 4630.65,4920.46 L 4629.98,4922.68 L 4628.88,4924.72 L 4627.42,4926.51 L 4615.92,4937.96 z " style="fill-opacity:1.000000;fill:rgb(62,161,65);stroke:rgb(0,0,0);stroke-width:2"/></g>
<g fill-rule="evenodd"><path d="M 595.86,2262.42 L 595.86,2246.67 L 658.846,2246.67 L 658.846,2262.42 L 595.86,2262.42 z " style="fill-opacity:1.000000;fill:rgb(225,252,103);stroke:rgb(0,0,0);stroke-width:2"/></g>
<g fill-rule="evenodd"><path d="M 595.86,2223.05 L 595.86,2207.31 L 658.846,2207.31 L 658.846,2223.05 L 595.86,2223.05 z " style="fill-opacity:1.000000;fill:rgb(62,1,126);stroke:rgb(0,0,0);stroke-width:2"/></g>
<g fill-rule="evenodd"><path d="M 595.86,2183.69 L 595.86,2167.94 L 658.846,2167.94 L 658.846,2183.69 L 595.86,2183.69 z " style="fill-opacity:1.000000;fill:rgb(151,234,220);stroke:rgb(0,0,0);stroke-width:2"/></g>
<g fill-rule="evenodd"><path d="M 595.86,2144.32 L 595.86,2128.58 L 658.846,2128.58 L 658.846,2144.32 L 595.86,2144.32 z " style="fill-opacity:1.000000;fill:rgb(107,150,143);stroke:rgb(0,0,0);stroke-width:2"/></g>
<g fill-rule="evenodd"><path d="M 595.86,2104.96 L 595.86,2089.21 L 658.846,2089.21 L 658.846,2104.96 L 595.86,2104.96 z " style="fill-opacity:1.000000;fill:rgb(56,92,42);stroke:rgb(0,0,0);stroke-width:2"/></g>
<g fill-rule="evenodd"><path d="M 595.86,2065.59 L 595.86,2049.84 L 658.846,2049.84 L 658.846,2065.59 L 595.86,2065.59 z " style="fill-opacity:1.000000;fill:rgb(236,176,59);stroke:rgb(0,0,0);stroke-width:2"/></g>
<g fill-rule="evenodd"><path d="M 0.213458,4992.01 L 0.213458,312.771 L 0.671408,310.487 L 1.97727,308.559 L 3.92705,307.287 L 6.2188,306.868 L 7.38068,307.004 L 9.51244,307.941 L 11.1143,309.629 L 13.36,315.229 L 20.2113,325.485 L 42.8108,344.237 L 56.5173,330.533 L 41.163,313.479 L 20.5892,277.845 L 7.87262,238.709 L 3.57109,197.787 L 7.87262,156.866 L 20.5892,117.73 L 41.163,82.096 L 56.5193,65.0399 L 42.8128,51.3314 L 20.6052,69.7594 L 11.4982,89.9732 L 10.0504,91.949 L 7.92262,93.1688 L 5.48488,93.4188 L 3.15514,92.6569 L 1.33734,91.0131 L 0.721402,89.9452 L 0.213458,87.5494 L 0.213458,5.90436 L 0.661409,3.6446 L 1.20735,2.62271 L 2.83517,0.994891 L 4.96494,0.112988 L 6.11681,0.000999891 L 79.5808,0.000999891 L 80.7307,0.112988 L 82.8604,0.994891 L 84.4883,2.62471 L 85.3702,4.75248 L 85.3702,7.05623 L 84.4883,9.184 L 82.8584,10.8118 L 72.6975,17.5991 L 53.9456,40.1986 L 67.0682,53.3232 L 68.696,51.5154 L 101.986,27.33 L 139.578,10.5938 L 179.826,2.03878 L 220.973,2.03878 L 261.221,10.5938 L 298.813,27.33 L 332.103,51.5154 L 333.729,53.3212 L 346.852,40.2006 L 328.424,17.993 L 313.535,11.2858 L 311.557,9.83593 L 310.34,7.71016 L 310.09,5.27242 L 310.35,4.06656 L 311.579,1.94679 L 312.495,1.12288 L 314.735,0.128986 L 315.961,0.000999891 L 7369.94,0.112988 L 7372.07,0.994891 L 7372.96,1.72881 L 7374.24,3.6446 L 7374.57,4.75248 L 7374.57,7.05623 L 7373.69,9.184 L 7372.06,10.8118 L 7361.9,17.5991 L 7343.15,40.1986 L 7356.27,53.3232 L 7357.9,51.5154 L 7391.19,27.33 L 7428.78,10.5938 L 7469.03,2.03878 L 7510.18,2.03878 L 7550.43,10.5938 L 7588.02,27.33 L 7621.31,51.5154 L 7622.93,53.3212 L 7636.06,40.2006 L 7617.63,17.993 L 7602.74,11.2858 L 7600.76,9.83593 L 7599.54,7.71016 L 7599.29,5.27242 L 7600.06,2.94268 L 7601.7,1.12288 L 7603.94,0.128986 L 7605.17,0.000999891 L 7683.89,0.000999891 L 7686.14,0.448951 L 7687.16,0.994891 L 7688.79,2.62271 L 7689.34,3.6446 L 7689.79,5.90436 L 7689.79,82.802 L 7689.33,85.0837 L 7688.02,87.0115 L 7686.07,88.2854 L 7683.78,88.7033 L 7681.51,88.2034 L 7679.6,86.8635 L 7678.36,84.8917 L 7676.64,80.3422 L 7669.79,70.0854 L 7647.19,51.3334 L 7633.48,65.0379 L 7648.84,82.096 L 7669.41,117.73 L 7682.13,156.866 L 7686.43,197.787 L 7682.13,238.709 L 7669.41,277.845 L 7648.84,313.479 L 7633.48,330.535 L 7647.19,344.239 L 7669.39,325.811 L 7678.5,305.598 L 7679.95,303.62 L 7682.08,302.402 L 7684.52,302.152 L 7685.72,302.412 L 7687.84,303.64 L 7688.66,304.558 L 7689.28,305.626 L 7689.79,308.023 L 7689.79,4982.27 L 7689.33,4984.55 L 7688.02,4986.48 L 7686.07,4987.75 L 7683.78,4988.17 L 7682.62,4988.03 L 7680.49,4987.09 L 7678.88,4985.41 L 7676.64,4979.81 L 7669.79,4969.55 L 7647.19,4950.8 L 7633.48,4964.5 L 7648.84,4981.56 L 7669.41,5017.2 L 7682.13,5056.33 L 7686.43,5097.25 L 7682.13,5138.17 L 7669.41,5177.31 L 7648.84,5212.94 L 7633.48,5230 L 7647.19,5243.7 L 7669.39,5225.28 L 7678.5,5205.06 L 7679.95,5203.09 L 7682.08,5201.87 L 7684.52,5201.62 L 7686.84,5202.38 L 7688.66,5204.02 L 7689.28,5205.09 L 7689.79,5207.49 L 7689.79,5286.73 L 7689.34,5288.99 L 7688.79,5290.01 L 7687.16,5291.64 L 7686.14,5292.19 L 7683.89,5292.64 L 7614.01,5292.64 L 7611.75,5292.19 L 7610.73,5291.64 L 7609.1,5290.01 L 7608.22,5287.88 L 7608.22,5285.58 L 7609.1,5283.45 L 7610.73,5281.82 L 7617.3,5277.44 L 7636.05,5254.84 L 7622.94,5241.72 L 7621.31,5243.52 L 7588.02,5267.71 L 7550.43,5284.45 L 7510.18,5293 L 7469.03,5293 L 7428.78,5284.45 L 7391.19,5267.71 L 7357.9,5243.52 L 7356.27,5241.72 L 7343.15,5254.84 L 7361.58,5277.04 L 7371.14,5281.35 L 7372.2,5281.97 L 7373.84,5283.8 L 7374.33,5284.92 L 7374.58,5287.36 L 7373.82,5289.69 L 7372.18,5291.51 L 7369.94,5292.51 L 332.203,5292.64 L 329.841,5292.14 L 328.786,5291.55 L 327.144,5289.78 L 326.35,5287.5 L 326.316,5286.29 L 326.986,5283.97 L 346.85,5259.84 L 333.731,5246.72 L 332.103,5248.52 L 298.813,5272.71 L 261.221,5289.45 L 220.973,5298 L 179.826,5298 L 139.578,5289.45 L 101.986,5272.71 L 68.696,5248.52 L 67.0662,5246.71 L 53.9436,5259.84 L 73.8094,5283.97 L 74.4794,5286.29 L 74.4474,5287.5 L 73.6514,5289.78 L 72.0096,5291.55 L 70.9557,5292.14 L 68.594,5292.64 L 4.96494,5292.52 L 2.83517,5291.64 L 1.20735,5290.01 L 0.325445,5287.88 L 0.213458,5286.73 L 0.213458,5217.24 L 0.671408,5214.95 L 1.97727,5213.02 L 3.92705,5211.75 L 6.2188,5211.33 L 8.49255,5211.83 L 10.3983,5213.17 L 11.6362,5215.14 L 13.36,5219.69 L 20.2113,5229.95 L 42.8108,5248.7 L 56.5173,5235 L 41.163,5217.94 L 20.5892,5182.31 L 7.87262,5143.17 L 3.57109,5102.25 L 7.87262,5061.33 L 20.5892,5022.2 L 41.163,4986.56 L 56.5193,4969.5 L 42.8128,4955.8 L 20.6052,4974.22 L 11.4982,4994.44 L 10.0504,4996.41 L 7.92262,4997.63 L 5.48488,4997.88 L 3.15514,4997.12 L 2.15925,4996.4 L 0.721402,4994.41 L 0.213458,4992.01M 505.34,5256.71 L 5144.88,5256.71 L 5144.88,4839.43 L 505.34,4839.43 L 505.34,5256.71M 1650.82,311.277 L 1638.23,313.779 L 1627.56,320.91 L 1247.42,701.047 L 1240.29,711.719 L 1237.79,724.306 L 1237.79,2182.37 L 1237.67,2183.52 L 1236.79,2185.65 L 1232.59,2190 L 1225.98,2205.92 L 1225.97,2223.14 L 1232.55,2239.06 L 1244.72,2251.25 L 1260.63,2257.86 L 1277.85,2257.88 L 1293.78,2251.3 L 1305.97,2239.13 L 1312.58,2223.21 L 1312.59,2205.99 L 1306.01,2190.06 L 1301.77,2185.65 L 1300.89,2183.53 L 1300.78,2182.38 L 1300.89,738.068 L 1301.77,735.939 L 1302.5,735.045 L 1661.56,375.992 L 1663.47,374.712 L 1665.73,374.264 L 6498.82,374.264 L 6501.08,374.712 L 6502.99,375.992 L 7536.17,1409.17 L 7537.45,1411.09 L 7537.9,1413.35 L 7537.9,2562.73 L 7537.79,2563.88 L 7536.9,2566.01 L 7532.71,2570.36 L 7526.1,2586.28 L 7526.08,2603.49 L 7532.66,2619.42 L 7544.83,2631.61 L 7560.75,2638.22 L 7577.96,2638.24 L 7593.89,2631.66 L 7606.08,2619.49 L 7612.69,2603.57 L 7612.71,2586.35 L 7606.13,2570.42 L 7601.88,2566.01 L 7601,2563.89 L 7600.89,2562.74 L 7600.89,1398.44 L 7598.38,1385.85 L 7591.25,1375.17 L 6536.99,320.912 L 6526.32,313.781 L 6513.73,311.277 L 1650.82,311.277M 5985.99,1573.11 L 2761.28,1573.11 L 2760.13,1572.99 L 2758,1572.11 L 2751.69,1565.94 L 2735.77,1559.33 L 2718.55,1559.32 L 2702.62,1565.9 L 2690.43,1578.07 L 2683.82,1593.99 L 2683.81,1611.2 L 2690.39,1627.13 L 2702.56,1639.32 L 2718.47,1645.93 L 2735.69,1645.95 L 2751.62,1639.37 L 2758,1633.15 L 2760.13,1632.27 L 2761.28,1632.16 L 5973.04,1632.27 L 5974.15,1632.61 L 5976.07,1633.89 L 7270.39,2928.21 L 7271.67,2930.13 L 7272,2931.24 L 7272.11,2940.06 L 7278.69,2955.98 L 7290.86,2968.18 L 7306.77,2974.78 L 7323.99,2974.8 L 7339.92,2968.22 L 7352.11,2956.05 L 7358.72,2940.13 L 7358.73,2922.92 L 7352.16,2906.99 L 7339.98,2894.8 L 7324.07,2888.19 L 7315.17,2888.07 L 7314.06,2887.73 L 7312.15,2886.46 L 6007.85,1582.16 L 5997.83,1575.46 L 5985.99,1573.11M 344.278,4969.5 L 359.636,4986.56 L 380.21,5022.2 L 392.927,5061.33 L 397.228,5102.25 L 392.927,5143.17 L 380.21,5182.31 L 359.636,5217.94 L 344.28,5235 L 357.982,5248.7 L 380.19,5230.28 L 415.49,5151.92 L 418.13,5065.83 L 387.435,4984.81 L 380.584,4974.55 L 357.984,4955.8 L 344.278,4969.5M 333.729,4957.79 L 346.852,4944.67 L 328.424,4922.46 L 250.068,4887.16 L 163.974,4884.52 L 82.9544,4915.21 L 72.6975,4922.06 L 53.9456,4944.66 L 67.0682,4957.79 L 68.696,4955.98 L 101.986,4931.79 L 139.578,4915.06 L 179.826,4906.5 L 220.973,4906.5 L 261.221,4915.06 L 298.813,4931.79 L 332.103,4955.98 L 333.729,4957.79M 422.651,3289.87 L 422.651,3273.12 L 419.712,3270.18 L 347.874,3270.18 L 340.64,3273.18 L 335.105,3278.71 L 332.107,3285.95 L 332.107,3338.1 L 335.045,3341.04 L 351.791,3341.04 L 351.791,3289.87 L 422.651,3289.87M 438.396,3289.87 L 509.254,3289.87 L 509.254,3341.04 L 525.998,3341.04 L 528.94,3338.1 L 528.94,3285.95 L 525.942,3278.72 L 520.405,3273.18 L 513.173,3270.18 L 441.333,3270.18 L 438.396,3273.12 L 438.396,3289.87M 509.254,3356.79 L 509.254,3407.96 L 438.396,3407.96 L 438.396,3424.71 L 441.333,3427.65 L 513.165,3427.65 L 520.403,3424.65 L 525.94,3419.11 L 528.94,3411.87 L 528.94,3359.73 L 526,3356.79 L 509.254,3356.79M 351.791,3356.79 L 335.045,3356.79 L 332.107,3359.72 L 332.107,3411.88 L 335.103,3419.11 L 340.64,3424.65 L 347.878,3427.65 L 419.71,3427.65 L 422.651,3424.71 L 422.651,3407.96 L 351.791,3407.96 L 351.791,3356.79M 621.394,3191.45 L 623.123,3190.33 L 625.383,3189.88 L 630.471,3189.99 L 631.579,3190.33 L 633.306,3191.45 L 675.588,3191.45 L 677.744,3189.93 L 680.003,3189.49 L 2235.15,3189.6 L 2236.25,3189.93 L 2238.17,3191.21 L 2742.43,3695.48 L 2752.46,3702.18 L 2764.31,3704.53 L 5835.79,3704.53 L 5847.64,3702.18 L 5857.67,3695.48 L 6116.87,3436.27 L 6118.79,3434.99 L 6119.9,3434.65 L 6128.72,3434.55 L 6144.65,3427.97 L 6156.84,3415.8 L 6163.45,3399.88 L 6163.47,3382.67 L 6156.89,3366.74 L 6144.72,3354.55 L 6128.8,3347.94 L 6111.58,3347.92 L 6095.65,3354.5 L 6083.46,3366.67 L 6076.85,3382.59 L 6076.74,3391.49 L 6076.4,3392.6 L 6075.12,3394.51 L 5825.88,3643.75 L 5823.97,3645.03 L 5821.71,3645.48 L 5800.93,3645.48 L 5798.67,3645.03 L 5797.65,3644.49 L 5796.02,3642.86 L 5795.14,3640.73 L 5795.14,3638.43 L 5796.02,3636.3 L 5796.76,3635.4 L 6149.87,3282.29 L 6151.79,3281.01 L 6152.9,3280.67 L 6161.72,3280.57 L 6177.65,3273.99 L 6189.84,3261.82 L 6196.45,3245.9 L 6196.46,3228.68 L 6191.22,3216.01 L 6190.78,3213.75 L 6191.23,3211.49 L 6191.77,3210.47 L 6193.4,3208.84 L 6194.42,3208.3 L 6196.68,3207.85 L 6915.77,3207.85 L 6916.92,3207.96 L 6919.05,3208.85 L 6929.3,3218.95 L 6945.21,3225.56 L 6962.43,3225.57 L 6978.36,3218.99 L 6990.55,3206.82 L 6997.16,3190.91 L 6997.17,3173.69 L 6990.59,3157.76 L 6978.42,3145.57 L 6962.51,3138.96 L 6945.29,3138.95 L 6929.36,3145.53 L 6919.93,3154.94 L 6918.01,3156.22 L 6915.76,3156.67 L 5482.07,3156.67 L 5479.81,3156.22 L 5477.89,3154.94 L 5436.32,3113.21 L 5435.78,3112.19 L 5435.33,3109.93 L 5435.34,3096.7 L 5427.84,3078.44 L 5427.84,3076.14 L 5428.18,3075.03 L 5429.46,3073.12 L 5430.35,3072.38 L 5432.48,3071.5 L 5433.63,3071.39 L 6321.95,3071.39 L 6333.8,3069.03 L 6343.83,3062.33 L 6548.21,2857.95 L 6550.13,2856.67 L 6552.39,2856.22 L 6554.65,2856.67 L 6556.56,2857.95 L 6557.84,2859.87 L 6558.18,2860.98 L 6558.17,2863.28 L 6556.4,2867.85 L 6556.39,2885.06 L 6562.97,2900.99 L 6568.45,2906.48 L 6569.72,2908.4 L 6570.17,2910.65 L 6570.17,2935.31 L 6572.53,2947.14 L 6579.23,2957.17 L 6730.2,3108.14 L 6740.22,3114.84 L 6752.07,3117.2 L 7342.63,3117.2 L 7354.48,3114.84 L 7364.5,3108.14 L 7420.88,3051.76 L 7427.58,3041.74 L 7429.94,3029.89 L 7429.94,2764.82 L 7430.39,2762.56 L 7431.67,2760.65 L 7432.56,2759.91 L 7434.69,2759.03 L 7437,2759.03 L 7439.12,2759.92 L 7440.75,2761.55 L 7446.27,2774.6 L 7458.44,2786.79 L 7474.36,2793.4 L 7491.57,2793.42 L 7507.5,2786.84 L 7510.97,2783.38 L 7512.88,2782.1 L 7513.99,2781.76 L 7516.29,2781.76 L 7517.4,2782.1 L 7519.32,2783.38 L 7537.34,2801.4 L 7538.62,2803.32 L 7539.07,2805.58 L 7539.07,4100.68 L 7538.62,4102.94 L 7537.34,4104.86 L 7313.12,4329.08 L 7311.2,4330.36 L 7308.95,4330.81 L 2998.77,4330.81 L 2996.51,4330.36 L 2994.59,4329.08 L 2972.4,4306.72 L 2971.85,4305.7 L 2971.41,4303.44 L 2971.41,4295.76 L 2964.83,4279.84 L 2952.66,4267.65 L 2936.75,4261.04 L 2919.53,4261.02 L 2903.6,4267.6 L 2891.41,4279.77 L 2884.8,4295.69 L 2884.79,4312.91 L 2891.37,4328.83 L 2903.54,4341.03 L 2919.45,4347.63 L 2927.2,4347.64 L 2928.35,4347.75 L 2930.48,4348.63 L 2962.81,4380.8 L 2972.84,4387.5 L 2984.68,4389.86 L 7323.03,4389.86 L 7334.88,4387.5 L 7344.9,4380.8 L 7589.06,4136.64 L 7595.76,4126.62 L 7598.12,4114.77 L 7598.12,2791.49 L 7595.76,2779.65 L 7589.07,2769.62 L 7549.08,2729.64 L 7539.06,2722.94 L 7527.22,2720.58 L 7517.17,2720.58 L 7514.9,2720.13 L 7512.99,2718.85 L 7507.57,2713.42 L 7491.65,2706.81 L 7474.43,2706.79 L 7458.51,2713.37 L 7446.31,2725.55 L 7441.29,2737.63 L 7440.01,2739.55 L 7439.12,2740.28 L 7436.99,2741.16 L 7434.69,2741.16 L 7432.56,2740.28 L 7430.93,2738.65 L 7430.05,2736.52 L 7429.94,2735.37 L 7429.94,2514.92 L 7427.58,2503.08 L 7423.91,2497.58 L 7423.03,2495.45 L 7422.93,2484.96 L 7416.35,2469.04 L 7404.18,2456.85 L 7388.26,2450.24 L 7371.04,2450.22 L 7355.12,2456.8 L 7342.93,2468.97 L 7336.32,2484.89 L 7336.3,2502.11 L 7342.88,2518.03 L 7355.05,2530.22 L 7368.27,2535.83 L 7369.89,2537.46 L 7370.77,2539.59 L 7370.89,2540.74 L 7370.89,3015.8 L 7370.44,3018.06 L 7369.16,3019.98 L 7332.72,3056.42 L 7330.8,3057.7 L 7328.54,3058.15 L 6885.7,3058.15 L 6883.44,3057.7 L 6882.42,3057.15 L 6880.79,3055.52 L 6879.91,3053.39 L 6879.91,3051.09 L 6880.8,3048.96 L 6885.36,3044.24 L 6891.97,3028.32 L 6891.99,3011.11 L 6885.41,2995.18 L 6873.23,2982.99 L 6868.24,2980.91 L 6866.33,2979.63 L 6865.05,2977.72 L 6864.6,2975.46 L 6864.6,2591.52 L 6862.24,2579.67 L 6855.55,2569.64 L 6032.71,1746.8 L 6031.43,1744.88 L 6024.5,1728.12 L 6012.33,1715.93 L 5996.41,1709.32 L 5979.2,1709.3 L 5963.27,1715.88 L 5951.08,1728.05 L 5944.47,1743.97 L 5944.45,1761.19 L 5951.03,1777.11 L 5963.2,1789.3 L 5979.12,1795.91 L 5995.88,1795.93 L 5998.14,1796.38 L 6000.05,1797.65 L 6693.92,2491.53 L 6695.2,2493.44 L 6695.54,2494.55 L 6695.54,2496.85 L 6695.2,2497.96 L 6693.92,2499.88 L 6693.03,2500.61 L 6690.9,2501.49 L 6664.37,2501.61 L 6662.11,2501.16 L 6660.19,2499.88 L 6556.94,2396.62 L 6555.66,2394.7 L 6555.33,2393.6 L 6555.22,2384.77 L 6548.64,2368.85 L 6536.47,2356.66 L 6520.56,2350.05 L 6503.34,2350.03 L 6487.41,2356.61 L 6475.22,2368.78 L 6468.61,2384.7 L 6468.6,2401.92 L 6475.18,2417.84 L 6487.35,2430.03 L 6503.26,2436.64 L 6512.16,2436.76 L 6513.27,2437.1 L 6515.18,2438.38 L 6628.41,2551.6 L 6638.44,2558.3 L 6650.28,2560.66 L 6692.81,2560.66 L 6693.96,2560.77 L 6696.09,2561.65 L 6747.36,2612.92 L 6747.91,2613.94 L 6748.36,2616.2 L 6748.36,2632.7 L 6747.91,2634.96 L 6746.62,2636.88 L 6745.73,2637.61 L 6743.6,2638.49 L 6742.45,2638.6 L 6740.19,2638.15 L 6739.17,2637.6 L 6726.85,2625.43 L 6710.94,2618.82 L 6693.72,2618.8 L 6677.79,2625.38 L 6665.6,2637.55 L 6658.99,2653.47 L 6658.99,2661.22 L 6658.87,2662.37 L 6657.99,2664.5 L 6629.35,2693.3 L 6627.43,2694.58 L 6626.32,2694.91 L 6624.02,2694.91 L 6622.91,2694.58 L 6621,2693.3 L 6619.72,2691.38 L 6617.84,2686.81 L 6605.66,2674.62 L 6589.75,2668.01 L 6572.53,2668 L 6556.6,2674.58 L 6544.41,2686.75 L 6537.8,2702.66 L 6537.8,2710.42 L 6537.69,2711.57 L 6536.8,2713.69 L 6509.36,2741.29 L 6507.45,2742.57 L 6506.34,2742.91 L 6504.03,2742.91 L 6502.93,2742.57 L 6501.01,2741.29 L 6499.73,2739.37 L 6497.85,2734.81 L 6485.68,2722.62 L 6469.76,2716.01 L 6452.54,2715.99 L 6436.62,2722.57 L 6424.43,2734.74 L 6417.82,2750.66 L 6417.81,2758.41 L 6417.7,2759.56 L 6416.82,2761.69 L 6390.38,2788.28 L 6388.46,2789.56 L 6387.35,2789.9 L 6385.05,2789.9 L 6383.94,2789.56 L 6382.03,2788.28 L 6380.75,2786.37 L 6377.46,2778.4 L 6365.29,2766.21 L 6349.37,2759.6 L 6332.16,2759.59 L 6316.23,2766.17 L 6304.04,2778.34 L 6297.43,2794.25 L 6297.42,2802.01 L 6297.31,2803.16 L 6296.43,2805.28 L 6248.73,2853.14 L 6246.81,2854.42 L 6244.56,2854.87 L 1447.98,2854.87 L 1445.71,2854.42 L 1444.69,2853.88 L 1443.06,2852.25 L 1442.18,2850.12 L 1442.19,2847.81 L 1443.07,2845.68 L 1443.8,2844.79 L 1456.35,2832.26 L 1462.96,2816.35 L 1462.98,2799.13 L 1456.4,2783.2 L 1444.23,2771.01 L 1436.53,2767.82 L 1435.51,2767.27 L 1433.89,2765.64 L 1433.01,2763.51 L 1433.01,2761.21 L 1433.34,2760.1 L 1433.89,2759.08 L 1435.52,2757.46 L 1437.64,2756.57 L 2773.7,2756.46 L 2785.55,2754.11 L 2795.58,2747.4 L 2987.82,2555.16 L 2989.74,2553.88 L 2990.84,2553.55 L 3001.87,2553.44 L 3017.79,2546.87 L 3029.98,2534.7 L 3036.59,2518.78 L 3036.71,2507.67 L 3037.59,2505.55 L 3038.33,2504.66 L 3141.18,2401.8 L 3143.09,2400.52 L 3145.35,2400.08 L 3822.44,2400.08 L 3823.59,2400.19 L 3825.72,2401.07 L 3832.04,2407.24 L 3847.95,2413.85 L 3865.17,2413.86 L 3881.1,2407.28 L 3893.29,2395.11 L 3899.9,2379.2 L 3899.91,2361.98 L 3893.33,2346.05 L 3881.16,2333.86 L 3865.25,2327.25 L 3848.03,2327.24 L 3832.1,2333.81 L 3825.72,2340.03 L 3823.59,2340.91 L 3822.44,2341.02 L 3131.26,2341.02 L 3119.42,2343.38 L 3109.39,2350.08 L 2993.48,2465.83 L 2991.35,2466.71 L 2984.72,2466.82 L 2974.94,2470.74 L 2972.64,2470.74 L 2971.53,2470.4 L 2969.62,2469.12 L 2968.89,2468.22 L 2968.01,2466.1 L 2968.01,2463.79 L 2968.34,2462.69 L 2969.62,2460.77 L 3118.15,2312.24 L 3124.85,2302.22 L 3127.21,2290.37 L 3127.32,2223.18 L 3128.2,2221.05 L 3128.94,2220.15 L 3134.37,2214.73 L 3140.98,2198.82 L 3140.99,2181.6 L 3134.42,2165.67 L 3122.24,2153.48 L 3106.33,2146.87 L 3089.11,2146.85 L 3073.18,2153.43 L 3060.99,2165.6 L 3054.38,2181.52 L 3054.37,2198.74 L 3060.95,2214.67 L 3066.43,2220.16 L 3067.16,2221.05 L 3068.04,2223.18 L 3068.16,2276.28 L 3067.71,2278.54 L 3067.16,2279.56 L 2689.68,2657.05 L 2688.65,2657.6 L 2686.4,2658.05 L 2332.45,2658.05 L 2330.19,2657.6 L 2329.17,2657.05 L 2327.54,2655.42 L 2327,2654.4 L 2326.66,2653.29 L 2326.66,2650.99 L 2327.54,2648.86 L 2328.28,2647.97 L 2338.69,2637.56 L 2340.6,2636.28 L 2342.87,2635.83 L 2351.73,2635.84 L 2367.66,2629.26 L 2379.85,2617.09 L 2386.46,2601.17 L 2386.48,2583.95 L 2379.9,2568.03 L 2367.73,2555.84 L 2352.59,2549.43 L 2350.97,2547.8 L 2350.42,2546.78 L 2349.98,2544.52 L 2350.43,2542.26 L 2350.97,2541.24 L 2352.6,2539.61 L 2367.66,2533.27 L 2379.85,2521.1 L 2386.46,2505.18 L 2386.48,2487.96 L 2379.9,2472.04 L 2367.73,2459.85 L 2351.81,2453.24 L 2334.59,2453.22 L 2318.67,2459.8 L 2306.48,2471.97 L 2299.87,2487.89 L 2299.75,2496.79 L 2299.41,2497.9 L 2298.13,2499.81 L 2220.36,2577.58 L 2218.45,2578.86 L 2216.19,2579.31 L 755.415,2579.2 L 753.285,2578.32 L 751.657,2576.69 L 750.776,2574.56 L 750.776,2572.26 L 751.112,2571.15 L 751.657,2570.13 L 753.809,2567.81 L 760.509,2557.79 L 761.898,2550.81 L 762.78,2548.68 L 763.514,2547.79 L 765.43,2546.51 L 767.69,2546.06 L 1578.46,2546.06 L 1590.3,2543.7 L 1600.33,2537 L 1613.97,2523.37 L 1615.88,2522.09 L 1618.14,2521.64 L 1625.82,2521.65 L 1641.74,2515.07 L 1653.93,2502.9 L 1660.54,2486.98 L 1660.56,2469.77 L 1653.98,2453.84 L 1641.81,2441.65 L 1625.89,2435.04 L 1608.67,2435.02 L 1592.75,2441.6 L 1580.56,2453.77 L 1573.95,2469.69 L 1573.94,2477.44 L 1573.49,2479.7 L 1572.21,2481.61 L 1567.65,2486.01 L 1566.63,2486.56 L 1564.37,2487.01 L 1545.51,2487.01 L 1543.25,2486.56 L 1541.33,2485.28 L 1540.6,2484.38 L 1540.05,2483.36 L 1539.6,2481.1 L 1540.05,2478.84 L 1546.55,2463.19 L 1546.57,2445.97 L 1539.99,2430.04 L 1527.82,2417.85 L 1511.9,2411.24 L 1494.68,2411.23 L 1478.76,2417.81 L 1475.54,2420.85 L 1473.42,2421.73 L 1472.27,2421.85 L 1273.58,2421.85 L 1271.32,2421.4 L 1269.4,2420.12 L 1268.67,2419.22 L 1268.13,2418.2 L 1267.68,2415.94 L 1268.13,2413.68 L 1272.98,2401.99 L 1273,2384.77 L 1267.29,2370.96 L 1266.84,2368.7 L 1267.29,2366.44 L 1268.57,2364.53 L 1269.47,2363.8 L 1271.59,2362.92 L 1606.04,2362.92 L 1607.15,2363.25 L 1609.07,2364.53 L 1719.79,2475.26 L 1721.07,2477.17 L 1721.41,2478.28 L 1721.52,2487.11 L 1728.09,2503.03 L 1740.26,2515.22 L 1756.18,2521.83 L 1773.4,2521.85 L 1789.32,2515.27 L 1801.51,2503.1 L 1808.12,2487.18 L 1808.14,2469.97 L 1801.56,2454.04 L 1789.39,2441.85 L 1773.47,2435.24 L 1765.72,2435.23 L 1763.47,2434.78 L 1762.45,2434.24 L 1640.86,2312.81 L 1630.82,2306.11 L 1618.99,2303.75 L 680.003,2303.75 L 677.742,2303.3 L 675.59,2301.78 L 633.302,2301.79 L 631.579,2302.91 L 629.321,2303.36 L 624.231,2303.24 L 623.123,2302.91 L 621.404,2301.79 L 579.112,2301.78 L 576.175,2304.72 L 576.175,2305.7 L 578.472,2311.25 L 578.92,2313.53 L 578.452,2315.81 L 577.374,2317.6 L 575.675,2325.99 L 575.675,2340.6 L 577.143,2348.41 L 578.538,2350.78 L 578.956,2353 L 578.508,2355.22 L 576.175,2360.86 L 576.175,2361.83 L 579.112,2364.77 L 621.394,2364.77 L 623.123,2363.65 L 625.383,2363.2 L 630.471,2363.31 L 631.579,2363.65 L 633.306,2364.77 L 675.588,2364.77 L 677.744,2363.25 L 680.003,2362.8 L 1186.64,2362.8 L 1188.89,2363.25 L 1190.81,2364.53 L 1192.09,2366.45 L 1192.54,2368.71 L 1192.09,2370.97 L 1188.27,2379.86 L 1187.54,2380.76 L 1185.63,2382.03 L 1183.37,2382.48 L 680.003,2382.48 L 677.742,2382.03 L 675.59,2380.52 L 633.302,2380.52 L 631.579,2381.64 L 629.321,2382.09 L 624.231,2381.98 L 623.123,2381.64 L 621.404,2380.52 L 579.112,2380.52 L 576.175,2383.45 L 576.175,2384.43 L 578.472,2389.98 L 578.92,2392.26 L 578.452,2394.55 L 577.374,2396.33 L 575.675,2404.72 L 575.675,2419.33 L 577.143,2427.14 L 578.496,2429.45 L 578.908,2431.7 L 578.434,2433.94 L 577.374,2435.69 L 575.675,2444.09 L 575.675,2458.7 L 577.143,2466.51 L 578.496,2468.82 L 578.908,2471.07 L 578.432,2473.31 L 577.374,2475.06 L 575.675,2483.45 L 575.675,2498.06 L 577.143,2505.87 L 578.538,2508.24 L 578.956,2510.47 L 578.508,2512.69 L 576.175,2518.32 L 576.175,2519.3 L 579.114,2522.24 L 621.394,2522.23 L 623.123,2521.11 L 625.383,2520.66 L 630.471,2520.77 L 631.579,2521.11 L 633.304,2522.23 L 675.586,2522.24 L 676.722,2521.26 L 678.849,2520.38 L 692.872,2520.27 L 695.13,2520.71 L 697.045,2521.99 L 702.819,2527.93 L 703.365,2528.95 L 703.815,2531.21 L 703.365,2534.11 L 702.085,2536.03 L 699.003,2538.95 L 697.981,2539.5 L 695.724,2539.95 L 680.003,2539.95 L 677.742,2539.5 L 675.59,2537.98 L 633.306,2537.98 L 631.579,2539.1 L 629.321,2539.55 L 624.231,2539.44 L 623.123,2539.1 L 621.4,2537.98 L 579.112,2537.98 L 576.175,2540.92 L 576.175,2541.9 L 578.472,2547.44 L 578.92,2549.73 L 578.452,2552.01 L 577.374,2553.79 L 575.675,2562.19 L 575.675,2576.8 L 577.143,2584.61 L 578.496,2586.91 L 578.908,2589.17 L 578.432,2591.41 L 577.374,2593.16 L 575.675,2601.55 L 575.675,2616.16 L 577.143,2623.97 L 578.496,2626.28 L 578.908,2628.53 L 578.432,2630.78 L 577.374,2632.52 L 575.675,2640.92 L 575.675,2655.53 L 577.143,2663.34 L 578.496,2665.65 L 578.908,2667.9 L 578.432,2670.14 L 577.374,2671.89 L 575.675,2680.28 L 575.675,2694.89 L 577.143,2702.7 L 578.496,2705.01 L 578.908,2707.26 L 578.434,2709.5 L 577.374,2711.26 L 575.675,2719.65 L 575.675,2734.26 L 577.143,2742.07 L 578.538,2744.44 L 578.956,2746.66 L 578.508,2748.88 L 576.175,2754.51 L 576.175,2755.49 L 579.114,2758.43 L 621.394,2758.43 L 623.123,2757.3 L 625.383,2756.85 L 630.471,2756.97 L 631.579,2757.3 L 633.304,2758.43 L 675.588,2758.43 L 677.744,2756.91 L 680.003,2756.46 L 1400.53,2756.46 L 1402.79,2756.91 L 1404.71,2758.19 L 1405.99,2760.11 L 1406.43,2762.37 L 1405.98,2764.63 L 1404.7,2766.54 L 1403.81,2767.28 L 1395.17,2770.97 L 1390.82,2775.15 L 1388.69,2776.03 L 1387.54,2776.14 L 680.003,2776.14 L 677.742,2775.69 L 675.59,2774.17 L 633.306,2774.17 L 631.579,2775.3 L 629.321,2775.75 L 624.231,2775.63 L 623.123,2775.3 L 621.4,2774.17 L 579.112,2774.17 L 576.175,2777.11 L 576.175,2778.09 L 578.472,2783.64 L 578.92,2785.92 L 578.452,2788.2 L 577.374,2789.99 L 575.675,2798.38 L 575.675,2812.99 L 577.143,2820.8 L 578.538,2823.17 L 578.956,2825.39 L 578.508,2827.61 L 576.175,2833.24 L 576.175,2834.22 L 579.114,2837.16 L 621.396,2837.16 L 623.123,2836.04 L 625.383,2835.59 L 630.471,2835.7 L 631.579,2836.04 L 633.302,2837.16 L 675.588,2837.16 L 677.744,2835.64 L 680.003,2835.19 L 1383.47,2835.19 L 1385.73,2835.64 L 1387.65,2836.93 L 1396.24,2845.69 L 1397.12,2847.82 L 1397.24,2848.97 L 1396.79,2851.23 L 1395.51,2853.14 L 1393.59,2854.42 L 1391.33,2854.87 L 680.003,2854.87 L 677.742,2854.42 L 675.59,2852.9 L 633.306,2852.91 L 631.579,2854.03 L 629.321,2854.48 L 624.231,2854.37 L 623.123,2854.03 L 621.4,2852.91 L 579.112,2852.9 L 576.175,2855.84 L 576.175,2856.82 L 578.472,2862.37 L 578.92,2864.65 L 578.452,2866.93 L 577.374,2868.72 L 575.675,2877.11 L 575.675,2891.72 L 577.143,2899.53 L 578.496,2901.84 L 578.908,2904.09 L 578.434,2906.33 L 577.374,2908.08 L 575.675,2916.48 L 575.675,2931.09 L 577.143,2938.89 L 578.538,2941.26 L 578.956,2943.49 L 578.508,2945.71 L 576.175,2951.34 L 576.175,2952.32 L 579.114,2955.26 L 621.396,2955.26 L 623.123,2954.13 L 625.383,2953.68 L 630.471,2953.8 L 631.579,2954.13 L 633.302,2955.26 L 675.588,2955.26 L 677.744,2953.74 L 680.003,2953.29 L 6283.12,2953.29 L 6285.37,2953.74 L 6287.29,2955.02 L 6288.57,2956.93 L 6289.02,2959.19 L 6288.57,2961.45 L 6288.02,2962.47 L 6279.42,2971.24 L 6277.5,2972.52 L 6275.24,2972.97 L 680.003,2972.97 L 677.742,2972.52 L 675.59,2971 L 633.304,2971 L 631.579,2972.13 L 629.321,2972.58 L 624.231,2972.46 L 623.123,2972.13 L 621.4,2971 L 579.112,2971 L 576.175,2973.94 L 576.175,2974.92 L 578.472,2980.47 L 578.92,2982.75 L 578.452,2985.03 L 577.374,2986.82 L 575.675,2995.21 L 575.675,3009.82 L 577.143,3017.63 L 578.496,3019.94 L 578.908,3022.19 L 578.434,3024.43 L 577.374,3026.18 L 575.675,3034.57 L 575.675,3049.18 L 577.143,3056.99 L 578.538,3059.36 L 578.956,3061.59 L 578.508,3063.81 L 576.175,3069.44 L 576.175,3070.42 L 579.114,3073.36 L 621.396,3073.35 L 623.123,3072.23 L 625.383,3071.78 L 630.471,3071.89 L 631.579,3072.23 L 633.302,3073.35 L 675.588,3073.36 L 677.744,3071.84 L 680.003,3071.39 L 2527.89,3071.5 L 2530.02,3072.38 L 2531.65,3074.01 L 2532.53,3076.14 L 2532.53,3078.45 L 2532.19,3079.55 L 2530.91,3081.47 L 2519.45,3092.9 L 2512.84,3108.82 L 2512.83,3126.04 L 2519.41,3141.96 L 2531.58,3154.15 L 2547.49,3160.76 L 2556.39,3160.88 L 2557.5,3161.22 L 2559.42,3162.5 L 2797.63,3400.71 L 2807.65,3407.41 L 2819.5,3409.77 L 3877.43,3409.77 L 3878.58,3409.88 L 3880.71,3410.76 L 3887.03,3416.93 L 3902.95,3423.54 L 3920.16,3423.55 L 3936.09,3416.97 L 3948.28,3404.8 L 3954.89,3388.89 L 3954.91,3371.67 L 3948.33,3355.74 L 3936.16,3343.55 L 3920.24,3336.94 L 3903.02,3336.92 L 3887.1,3343.5 L 3880.71,3349.72 L 3878.58,3350.6 L 3877.43,3350.71 L 2832.43,3350.6 L 2831.33,3350.26 L 2829.41,3348.98 L 2601.17,3120.74 L 2599.89,3118.82 L 2599.56,3117.72 L 2599.45,3108.89 L 2592.87,3092.97 L 2581.38,3081.46 L 2580.11,3079.54 L 2579.66,3077.29 L 2580.11,3075.03 L 2581.39,3073.11 L 2582.28,3072.38 L 2584.41,3071.5 L 2585.56,3071.39 L 2962.03,3071.5 L 2963.14,3071.84 L 2965.05,3073.12 L 2966.33,3075.03 L 2966.78,3077.3 L 2966.33,3079.56 L 2963.39,3086.62 L 2963.38,3103.84 L 2969.96,3119.77 L 2982.13,3131.96 L 2998.04,3138.57 L 3013.21,3138.58 L 3015.08,3138.88 L 3016.75,3139.76 L 3022.28,3143.92 L 3025.78,3145.6 L 3029.23,3147.84 L 3031.27,3148.29 L 3033.16,3149.15 L 3037.27,3149.44 L 3041.08,3150.19 L 3889.27,3150.31 L 3890.38,3150.64 L 3892.29,3151.92 L 3983.73,3243.36 L 3985.01,3245.27 L 3985.46,3247.53 L 3985.46,3442.87 L 3985.34,3444.02 L 3984.46,3446.15 L 3978.29,3452.46 L 3971.68,3468.38 L 3971.67,3485.6 L 3978.25,3501.52 L 3990.42,3513.72 L 4006.33,3520.32 L 4023.55,3520.34 L 4039.48,3513.76 L 4051.67,3501.59 L 4058.28,3485.67 L 4058.29,3468.46 L 4051.72,3452.53 L 4045.5,3446.14 L 4044.62,3444.02 L 4044.51,3442.87 L 4044.51,3233.45 L 4042.15,3221.6 L 4035.45,3211.57 L 3924.08,3100.2 L 3914.05,3093.5 L 3902.22,3091.14 L 3055.79,3091.14 L 3054.64,3091.03 L 3052.51,3090.14 L 3050.88,3088.51 L 3046.72,3078.44 L 3046.72,3076.13 L 3047.05,3075.03 L 3047.6,3074.01 L 3049.23,3072.38 L 3051.35,3071.5 L 3052.51,3071.39 L 5350.41,3071.39 L 5352.68,3071.84 L 5354.6,3073.14 L 5355.88,3075.07 L 5356.31,3077.35 L 5355.84,3079.62 L 5348.73,3096.62 L 5348.72,3113.84 L 5355.3,3129.77 L 5367.47,3141.96 L 5383.38,3148.57 L 5396.71,3148.58 L 5397.86,3148.69 L 5399.99,3149.57 L 5450.52,3199.94 L 5459.27,3205.79 L 5469.61,3207.85 L 6109.63,3207.85 L 6111.89,3208.3 L 6113.8,3209.58 L 6114.54,3210.48 L 6115.42,3212.6 L 6115.41,3214.91 L 6109.85,3228.61 L 6109.73,3237.51 L 6109.4,3238.62 L 6108.12,3240.53 L 5755.49,3593.16 L 5754.6,3593.89 L 5752.47,3594.77 L 2809.84,3594.77 L 2808.73,3594.44 L 2806.82,3593.16 L 2313.78,3100.12 L 2303.75,3093.42 L 2291.92,3091.07 L 680.003,3091.07 L 677.742,3090.62 L 675.59,3089.1 L 633.304,3089.1 L 631.579,3090.22 L 629.321,3090.67 L 624.231,3090.56 L 623.123,3090.22 L 621.4,3089.1 L 579.112,3089.1 L 576.175,3092.04 L 576.175,3093.02 L 578.472,3098.56 L 578.92,3100.85 L 578.452,3103.13 L 577.374,3104.91 L 575.675,3113.31 L 575.675,3127.92 L 577.143,3135.73 L 578.496,3138.03 L 578.908,3140.29 L 578.434,3142.53 L 577.374,3144.28 L 575.675,3152.67 L 575.675,3167.28 L 577.143,3175.09 L 578.538,3177.46 L 578.956,3179.68 L 578.508,3181.9 L 576.175,3187.54 L 576.175,3188.51 L 579.112,3191.45 L 621.394,3191.45M 595.86,3207.2 L 579.112,3207.2 L 576.175,3210.13 L 576.175,3211.11 L 579.17,3218.35 L 584.708,3223.88 L 591.945,3226.88 L 616.538,3226.88 L 619.48,3223.94 L 619.48,3207.2 L 595.86,3207.2M 635.224,3207.2 L 635.224,3223.94 L 638.164,3226.88 L 662.755,3226.88 L 669.992,3223.89 L 675.53,3218.35 L 678.529,3211.11 L 678.529,3210.14 L 675.59,3207.2 L 635.224,3207.2M 621.394,2286.04 L 623.123,2284.91 L 625.383,2284.47 L 630.471,2284.58 L 631.579,2284.91 L 633.306,2286.04 L 675.588,2286.04 L 678.529,2283.1 L 678.529,2282.13 L 676.23,2276.57 L 675.782,2274.29 L 676.25,2272.01 L 677.328,2270.23 L 679.029,2261.82 L 679.029,2247.23 L 677.56,2239.41 L 676.206,2237.1 L 675.794,2234.85 L 676.27,2232.61 L 677.328,2230.86 L 679.029,2222.46 L 679.029,2207.87 L 677.56,2200.04 L 676.206,2197.74 L 675.794,2195.48 L 676.27,2193.24 L 677.328,2191.49 L 679.029,2183.09 L 679.029,2168.5 L 677.56,2160.68 L 676.206,2158.37 L 675.794,2156.12 L 676.27,2153.88 L 677.328,2152.13 L 679.029,2143.73 L 679.029,2129.14 L 677.56,2121.31 L 676.206,2119 L 675.794,2116.75 L 676.27,2114.51 L 677.328,2112.76 L 679.029,2104.36 L 679.029,2089.77 L 677.56,2081.95 L 676.206,2079.64 L 675.794,2077.39 L 676.27,2075.15 L 677.328,2073.4 L 679.029,2064.99 L 679.029,2050.4 L 677.56,2042.59 L 673.228,2035.85 L 666.651,2031.36 L 658.256,2029.66 L 596.398,2029.66 L 588.605,2031.13 L 581.868,2035.46 L 577.374,2042.04 L 575.675,2050.43 L 575.675,2065.04 L 577.143,2072.85 L 578.496,2075.16 L 578.908,2077.41 L 578.434,2079.65 L 577.374,2081.4 L 575.675,2089.8 L 575.675,2104.41 L 577.143,2112.22 L 578.496,2114.52 L 578.908,2116.78 L 578.434,2119.02 L 577.374,2120.77 L 575.675,2129.16 L 575.675,2143.77 L 577.143,2151.58 L 578.496,2153.89 L 578.908,2156.14 L 578.434,2158.38 L 577.374,2160.13 L 575.675,2168.53 L 575.675,2183.14 L 577.143,2190.95 L 578.496,2193.26 L 578.908,2195.51 L 578.434,2197.75 L 577.374,2199.5 L 575.675,2207.89 L 575.675,2222.5 L 577.143,2230.31 L 578.496,2232.62 L 578.908,2234.87 L 578.434,2237.11 L 577.374,2238.86 L 575.675,2247.26 L 575.675,2261.87 L 577.143,2269.68 L 578.538,2272.05 L 578.956,2274.27 L 578.508,2276.49 L 576.175,2282.12 L 576.175,2283.1 L 579.112,2286.04 L 621.394,2286.04M 509.254,1916 L 509.254,1967.17 L 438.396,1967.17 L 438.396,1983.92 L 441.333,1986.86 L 513.165,1986.86 L 520.403,1983.86 L 525.94,1978.33 L 528.94,1971.09 L 528.94,1918.94 L 526.002,1916 L 509.254,1916M 509.254,1900.26 L 525.998,1900.26 L 528.94,1897.31 L 528.94,1845.17 L 525.942,1837.93 L 520.405,1832.39 L 513.173,1829.39 L 441.333,1829.39 L 438.396,1832.33 L 438.396,1849.08 L 509.254,1849.08 L 509.254,1900.26M 351.791,1916 L 335.045,1916 L 332.107,1918.94 L 332.107,1971.09 L 335.103,1978.33 L 340.638,1983.86 L 347.878,1986.86 L 419.71,1986.86 L 422.651,1983.92 L 422.651,1967.17 L 351.791,1967.17 L 351.791,1916M 351.791,1900.26 L 351.791,1849.08 L 422.651,1849.08 L 422.651,1832.33 L 419.712,1829.39 L 347.874,1829.39 L 340.642,1832.39 L 335.105,1837.93 L 332.107,1845.16 L 332.107,1897.32 L 335.047,1900.26 L 351.791,1900.26M 344.28,330.535 L 357.982,344.239 L 380.19,325.811 L 415.49,247.456 L 418.128,161.361 L 387.435,80.3422 L 380.584,70.0854 L 357.984,51.3334 L 344.278,65.0379 L 359.636,82.096 L 380.21,117.73 L 392.927,156.866 L 397.228,197.787 L 392.927,238.709 L 380.21,277.845 L 359.636,313.479 L 344.28,330.535M 67.0662,342.25 L 53.9436,355.37 L 72.3716,377.578 L 150.727,412.878 L 236.822,415.518 L 317.841,384.823 L 328.098,377.972 L 346.85,355.372 L 333.731,342.252 L 332.103,344.059 L 298.813,368.245 L 261.221,384.981 L 220.973,393.536 L 179.826,393.536 L 139.578,384.981 L 101.986,368.245 L 68.696,344.059 L 67.0662,342.25M 7345.72,4964.51 L 7332.02,4950.8 L 7309.81,4969.22 L 7274.51,5047.58 L 7271.87,5133.67 L 7302.56,5214.69 L 7309.42,5224.95 L 7332.02,5243.7 L 7345.72,5230 L 7330.37,5212.94 L 7309.79,5177.31 L 7297.08,5138.17 L 7292.78,5097.25 L 7297.08,5056.33 L 7309.79,5017.2 L 7330.37,4981.56 L 7345.72,4964.51M 7622.93,4952.79 L 7636.06,4939.67 L 7617.63,4917.46 L 7539.27,4882.16 L 7453.18,4879.52 L 7372.16,4910.21 L 7361.9,4917.06 L 7343.15,4939.66 L 7356.27,4952.79 L 7357.9,4950.98 L 7391.19,4926.8 L 7428.78,4910.06 L 7469.03,4901.5 L 7510.18,4901.5 L 7550.43,4910.06 L 7588.02,4926.8 L 7621.31,4950.98 L 7622.93,4952.79M 7345.72,330.533 L 7330.37,313.479 L 7309.79,277.845 L 7297.08,238.709 L 7292.78,197.787 L 7297.08,156.866 L 7309.79,117.73 L 7330.37,82.096 L 7345.72,65.0399 L 7332.02,51.3314 L 7309.81,69.7594 L 7274.51,148.115 L 7271.87,234.209 L 7302.56,315.229 L 7309.42,325.485 L 7332.02,344.237 L 7345.72,330.533M 7356.27,342.25 L 7343.15,355.37 L 7361.58,377.578 L 7439.93,412.878 L 7526.03,415.518 L 7607.05,384.823 L 7617.3,377.972 L 7636.05,355.372 L 7622.94,342.252 L 7621.31,344.059 L 7588.02,368.245 L 7550.43,384.981 L 7510.18,393.536 L 7469.03,393.536 L 7428.78,384.981 L 7391.19,368.245 L 7357.9,344.059 L 7356.27,342.25 z " style="fill-opacity:1.000000;fill:rgb(251,50,175);stroke:rgb(0,0,0);stroke-width:2"/></g>
<g fill-rule="evenodd"><path d="M 6931.08,3176.36 L 6932.29,3172.66 L 6934.75,3168.38 L 6938.06,3164.71 L 6942.05,3161.81 L 6946.57,3159.8 L 6951.4,3158.77 L 6956.33,3158.77 L 6961.16,3159.8 L 6965.67,3161.81 L 6969.67,3164.71 L 6972.97,3168.38 L 6975.44,3172.66 L 6976.96,3177.35 L 6977.48,3182.26 L 6976.96,3187.17 L 6975.44,3191.87 L 6972.97,3196.14 L 6969.67,3199.81 L 6965.67,3202.72 L 6961.16,3204.72 L 6956.33,3205.75 L 6951.4,3205.75 L 6946.57,3204.72 L 6942.05,3202.72 L 6938.06,3199.81 L 6934.75,3196.14 L 6932.29,3191.87 L 6931.09,3188.17 L 5469.02,3188.17 L 5466.76,3187.72 L 5464.85,3186.44 L 5404.01,3125.6 L 5399.33,3127.73 L 5394.5,3128.76 L 5389.57,3128.76 L 5384.74,3127.73 L 5380.22,3125.72 L 5376.23,3122.82 L 5372.93,3119.15 L 5370.46,3114.88 L 5368.93,3110.18 L 5368.41,3105.27 L 5368.93,3100.36 L 5370.46,3095.67 L 5372.93,3091.39 L 5376.23,3087.72 L 5380.22,3084.82 L 5384.74,3082.81 L 5389.57,3081.78 L 5394.5,3081.78 L 5399.33,3082.81 L 5403.84,3084.82 L 5407.84,3087.72 L 5411.14,3091.39 L 5413.61,3095.67 L 5415.13,3100.36 L 5415.65,3105.27 L 5415.13,3110.18 L 5413.61,3114.88 L 5412.29,3117.17 L 5471.47,3176.36 L 6931.08,3176.36 z " style="fill-opacity:1.000000;fill:rgb(60,84,236);stroke:rgb(0,0,0);stroke-width:2"/></g>
<g fill-rule="evenodd"><path d="M 3835.16,2360.71 L 3837.49,2356.67 L 3840.8,2353 L 3844.79,2350.1 L 3849.3,2348.09 L 3854.13,2347.06 L 3859.07,2347.06 L 3863.9,2348.09 L 3868.41,2350.1 L 3872.41,2353 L 3875.71,2356.67 L 3878.18,2360.95 L 3879.7,2365.64 L 3880.22,2370.55 L 3879.7,2375.46 L 3878.18,2380.16 L 3875.71,2384.43 L 3872.41,2388.1 L 3868.41,2391 L 3863.9,2393.01 L 3859.07,2394.04 L 3854.13,2394.04 L 3849.3,2393.01 L 3844.79,2391 L 3840.8,2388.1 L 3837.49,2384.43 L 3835.16,2380.39 L 3134.75,2380.39 L 3014.77,2500.37 L 3016.4,2505.23 L 3016.91,2510.14 L 3016.4,2515.04 L 3014.87,2519.74 L 3012.4,2524.02 L 3009.1,2527.69 L 3005.1,2530.59 L 3000.59,2532.6 L 2995.76,2533.62 L 2990.83,2533.62 L 2986,2532.6 L 2983.61,2531.53 L 2781.25,2733.89 L 2778.06,2736.03 L 2776.21,2736.59 L 627.353,2736.78 L 625.305,2736.56 L 623.349,2735.92 L 621.472,2734.81 L 595.86,2734.81 L 595.86,2719.06 L 621.468,2719.06 L 623.349,2717.94 L 625.305,2717.31 L 627.353,2717.09 L 2770.22,2717.09 L 2970.7,2516.61 L 2970.19,2515.04 L 2969.68,2510.14 L 2970.19,2505.23 L 2971.72,2500.53 L 2974.19,2496.25 L 2977.49,2492.58 L 2981.49,2489.68 L 2986,2487.67 L 2990.83,2486.65 L 2995.76,2486.65 L 2999.8,2487.51 L 3123.72,2363.59 L 3126.91,2361.46 L 3130.68,2360.71 L 3835.16,2360.71 z " style="fill-opacity:1.000000;fill:rgb(24,219,92);stroke:rgb(0,0,0);stroke-width:2"/></g>
<g fill-rule="evenodd"><path d="M 2748.56,1612.48 L 2746.23,1616.52 L 2742.93,1620.19 L 2738.93,1623.09 L 2734.42,1625.1 L 2729.59,1626.12 L 2724.66,1626.12 L 2719.83,1625.1 L 2715.32,1623.09 L 2711.32,1620.19 L 2708.02,1616.52 L 2705.55,1612.24 L 2704.02,1607.54 L 2703.5,1602.63 L 2704.02,1597.72 L 2705.55,1593.03 L 2708.02,1588.75 L 2711.32,1585.08 L 2715.32,1582.18 L 2719.83,1580.17 L 2724.66,1579.14 L 2729.59,1579.14 L 2734.42,1580.17 L 2738.93,1582.18 L 2742.93,1585.08 L 2746.23,1588.75 L 2748.56,1592.79 L 5988.49,1592.98 L 5990.33,1593.54 L 5993.53,1595.67 L 7307.26,2909.41 L 7312.96,2908 L 7317.89,2908 L 7322.72,2909.03 L 7327.23,2911.04 L 7331.23,2913.94 L 7334.53,2917.61 L 7337,2921.88 L 7338.52,2926.58 L 7339.04,2931.49 L 7338.52,2936.4 L 7337,2941.09 L 7334.53,2945.37 L 7331.23,2949.04 L 7327.23,2951.94 L 7322.72,2953.95 L 7317.89,2954.98 L 7312.96,2954.98 L 7308.13,2953.95 L 7303.61,2951.94 L 7299.62,2949.04 L 7296.32,2945.37 L 7293.85,2941.09 L 7292.32,2936.4 L 7291.8,2931.49 L 7292.32,2926.58 L 7293.37,2923.35 L 5982.49,1612.48 L 2748.56,1612.48 z " style="fill-opacity:1.000000;fill:rgb(2,26,254);stroke:rgb(0,0,0);stroke-width:2"/></g>
<g fill-rule="evenodd"><path d="M 3890.16,3370.4 L 3892.49,3366.36 L 3895.79,3362.69 L 3899.79,3359.79 L 3904.3,3357.78 L 3909.13,3356.75 L 3914.06,3356.75 L 3918.89,3357.78 L 3923.4,3359.79 L 3927.4,3362.69 L 3930.7,3366.36 L 3933.17,3370.64 L 3934.7,3375.33 L 3935.21,3380.24 L 3934.7,3385.15 L 3933.17,3389.85 L 3930.7,3394.12 L 3927.4,3397.79 L 3923.4,3400.69 L 3918.89,3402.7 L 3914.06,3403.73 L 3909.13,3403.73 L 3904.3,3402.7 L 3899.79,3400.69 L 3895.79,3397.79 L 3892.49,3394.12 L 3890.16,3390.08 L 2816.99,3389.89 L 2813.44,3388.42 L 2811.95,3387.2 L 2564.3,3139.54 L 2558.61,3140.96 L 2553.67,3140.96 L 2548.85,3139.93 L 2544.33,3137.92 L 2540.34,3135.02 L 2537.03,3131.35 L 2534.57,3127.07 L 2533.04,3122.38 L 2532.52,3117.47 L 2533.04,3112.56 L 2534.57,3107.86 L 2537.03,3103.59 L 2540.34,3099.92 L 2544.33,3097.02 L 2548.85,3095.01 L 2553.67,3093.98 L 2558.61,3093.98 L 2563.44,3095.01 L 2567.95,3097.02 L 2571.95,3099.92 L 2575.25,3103.59 L 2577.72,3107.86 L 2579.24,3112.56 L 2579.76,3117.47 L 2579.24,3122.38 L 2578.2,3125.6 L 2822.99,3370.4 L 3890.16,3370.4 z " style="fill-opacity:1.000000;fill:rgb(67,251,250);stroke:rgb(0,0,0);stroke-width:2"/></g>
<g fill-rule="evenodd"><path d="M 2334.17,2614.23 L 2293.24,2655.16 L 2290.05,2657.3 L 2286.29,2658.05 L 627.353,2658.05 L 625.305,2657.83 L 623.349,2657.19 L 621.472,2656.08 L 595.86,2656.08 L 595.86,2640.33 L 621.468,2640.33 L 623.349,2639.21 L 625.305,2638.58 L 627.353,2638.36 L 2282.21,2638.36 L 2320.82,2599.76 L 2320.06,2597.44 L 2319.55,2592.53 L 2320.06,2587.62 L 2321.59,2582.92 L 2324.06,2578.64 L 2327.36,2574.97 L 2331.36,2572.07 L 2335.87,2570.06 L 2340.7,2569.04 L 2345.63,2569.04 L 2350.46,2570.06 L 2354.97,2572.07 L 2358.97,2574.97 L 2362.27,2578.64 L 2364.74,2582.92 L 2366.27,2587.62 L 2366.79,2592.53 L 2366.27,2597.44 L 2364.74,2602.13 L 2362.27,2606.41 L 2358.97,2610.08 L 2354.97,2612.98 L 2350.46,2614.99 L 2345.63,2616.02 L 2340.7,2616.02 L 2335.87,2614.99 L 2334.17,2614.23 z " style="fill-opacity:1.000000;fill:rgb(170,58,251);stroke:rgb(0,0,0);stroke-width:2"/></g>
<g fill-rule="evenodd"><path d="M 1397.51,2815.51 L 627.353,2815.51 L 625.305,2815.29 L 623.349,2814.66 L 621.472,2813.54 L 595.86,2813.54 L 595.86,2797.79 L 621.468,2797.79 L 623.349,2796.68 L 625.305,2796.04 L 627.353,2795.83 L 1399.4,2795.83 L 1400.56,2793.82 L 1403.86,2790.15 L 1407.86,2787.25 L 1412.37,2785.24 L 1417.2,2784.21 L 1422.13,2784.21 L 1426.96,2785.24 L 1431.48,2787.25 L 1435.47,2790.15 L 1438.77,2793.82 L 1441.24,2798.1 L 1442.77,2802.79 L 1443.29,2807.7 L 1442.77,2812.61 L 1441.24,2817.31 L 1438.77,2821.59 L 1435.47,2825.25 L 1431.48,2828.16 L 1426.96,2830.16 L 1422.13,2831.19 L 1417.2,2831.19 L 1412.37,2830.16 L 1407.86,2828.16 L 1403.86,2825.25 L 1400.56,2821.59 L 1398.09,2817.31 L 1397.51,2815.51 z " style="fill-opacity:1.000000;fill:rgb(41,209,230);stroke:rgb(0,0,0);stroke-width:2"/></g>
<g fill-rule="evenodd"><path d="M 621.472,3167.83 L 595.86,3167.83 L 595.86,3152.09 L 621.468,3152.09 L 623.349,3150.97 L 625.305,3150.33 L 627.353,3150.12 L 2250.59,3150.31 L 2252.44,3150.87 L 2255.63,3153 L 2767.8,3665.17 L 5832.31,3665.17 L 6098.1,3399.37 L 6097.05,3396.15 L 6096.53,3391.24 L 6097.05,3386.33 L 6098.58,3381.63 L 6101.05,3377.36 L 6104.35,3373.69 L 6108.35,3370.79 L 6112.86,3368.78 L 6117.69,3367.75 L 6122.62,3367.75 L 6127.45,3368.78 L 6131.96,3370.79 L 6135.96,3373.69 L 6139.26,3377.36 L 6141.73,3381.63 L 6143.26,3386.33 L 6143.77,3391.24 L 6143.26,3396.15 L 6141.73,3400.84 L 6139.26,3405.12 L 6135.96,3408.79 L 6131.96,3411.69 L 6127.45,3413.7 L 6122.62,3414.73 L 6117.69,3414.73 L 6111.99,3413.32 L 5843.34,3681.97 L 5840.15,3684.1 L 5836.38,3684.85 L 2763.72,3684.85 L 2759.95,3684.1 L 2756.76,3681.97 L 2244.6,3169.8 L 627.353,3169.8 L 625.305,3169.59 L 623.349,3168.95 L 621.472,3167.83 z " style="fill-opacity:1.000000;fill:rgb(5,60,124);stroke:rgb(0,0,0);stroke-width:2"/></g>
<g fill-rule="evenodd"><path d="M 621.472,3128.47 L 595.86,3128.47 L 595.86,3112.72 L 621.468,3112.72 L 623.349,3111.6 L 625.305,3110.97 L 627.353,3110.75 L 2294.41,3110.94 L 2296.26,3111.5 L 2299.45,3113.63 L 2800.39,3614.57 L 5761.91,3614.57 L 6131.1,3245.39 L 6130.05,3242.17 L 6129.53,3237.26 L 6130.05,3232.35 L 6131.57,3227.65 L 6134.04,3223.37 L 6137.35,3219.7 L 6141.34,3216.8 L 6145.85,3214.79 L 6150.68,3213.77 L 6155.62,3213.77 L 6160.45,3214.79 L 6164.96,3216.8 L 6168.95,3219.7 L 6172.26,3223.37 L 6174.73,3227.65 L 6176.25,3232.35 L 6176.77,3237.26 L 6176.25,3242.17 L 6174.73,3246.86 L 6172.26,3251.14 L 6168.95,3254.81 L 6164.96,3257.71 L 6160.45,3259.72 L 6155.62,3260.75 L 6150.68,3260.75 L 6144.99,3259.33 L 5772.95,3631.37 L 5769.76,3633.5 L 5767.91,3634.06 L 2796.32,3634.25 L 2792.55,3633.5 L 2789.36,3631.37 L 2288.42,3130.43 L 627.353,3130.43 L 625.305,3130.22 L 623.349,3129.58 L 621.472,3128.47 z " style="fill-opacity:1.000000;fill:rgb(148,117,216);stroke:rgb(0,0,0);stroke-width:2"/></g>
<g fill-rule="evenodd"><path d="M 621.472,3049.73 L 595.86,3049.73 L 595.86,3033.99 L 621.468,3033.99 L 623.349,3032.87 L 625.305,3032.23 L 627.353,3032.02 L 6318.47,3032.02 L 6680.24,2670.25 L 6679.19,2667.03 L 6678.67,2662.12 L 6679.19,2657.21 L 6680.71,2652.51 L 6683.18,2648.24 L 6686.49,2644.57 L 6690.48,2641.66 L 6694.99,2639.66 L 6699.82,2638.63 L 6704.76,2638.63 L 6709.59,2639.66 L 6714.1,2641.66 L 6718.09,2644.57 L 6721.4,2648.24 L 6723.87,2652.51 L 6725.39,2657.21 L 6725.91,2662.12 L 6725.39,2667.03 L 6723.87,2671.72 L 6721.4,2676 L 6718.09,2679.67 L 6714.1,2682.57 L 6709.59,2684.58 L 6704.76,2685.61 L 6699.82,2685.61 L 6694.13,2684.2 L 6329.5,3048.82 L 6326.31,3050.95 L 6322.55,3051.7 L 627.353,3051.7 L 625.305,3051.49 L 623.349,3050.85 L 621.472,3049.73 z " style="fill-opacity:1.000000;fill:rgb(190,97,137);stroke:rgb(0,0,0);stroke-width:2"/></g>
<g fill-rule="evenodd"><path d="M 621.472,3010.37 L 595.86,3010.37 L 595.86,2994.62 L 621.468,2994.62 L 623.349,2993.5 L 625.305,2992.87 L 627.353,2992.65 L 6285.84,2992.65 L 6559.05,2719.45 L 6558,2716.22 L 6557.48,2711.31 L 6558,2706.4 L 6559.53,2701.71 L 6562,2697.43 L 6565.3,2693.76 L 6569.29,2690.86 L 6573.81,2688.85 L 6578.64,2687.82 L 6583.57,2687.82 L 6588.4,2688.85 L 6592.91,2690.86 L 6596.91,2693.76 L 6600.21,2697.43 L 6602.68,2701.71 L 6604.2,2706.4 L 6604.72,2711.31 L 6604.2,2716.22 L 6602.68,2720.92 L 6600.21,2725.2 L 6596.91,2728.87 L 6592.91,2731.77 L 6588.4,2733.77 L 6583.57,2734.8 L 6578.64,2734.8 L 6572.94,2733.39 L 6296.88,3009.45 L 6293.68,3011.59 L 6289.92,3012.34 L 627.353,3012.34 L 625.305,3012.12 L 623.349,3011.48 L 621.472,3010.37 z " style="fill-opacity:1.000000;fill:rgb(249,92,187);stroke:rgb(0,0,0);stroke-width:2"/></g>
<g fill-rule="evenodd"><path d="M 621.472,2931.64 L 595.86,2931.64 L 595.86,2915.89 L 621.468,2915.89 L 623.349,2914.77 L 625.305,2914.14 L 627.353,2913.92 L 6292.58,2913.92 L 6439.06,2767.44 L 6438.02,2764.22 L 6437.5,2759.31 L 6438.02,2754.4 L 6439.54,2749.7 L 6442.01,2745.43 L 6445.31,2741.76 L 6449.31,2738.85 L 6453.82,2736.85 L 6458.65,2735.82 L 6463.58,2735.82 L 6468.41,2736.85 L 6472.93,2738.85 L 6476.92,2741.76 L 6480.22,2745.43 L 6482.69,2749.7 L 6484.22,2754.4 L 6484.74,2759.31 L 6484.22,2764.22 L 6482.69,2768.91 L 6480.22,2773.19 L 6476.92,2776.86 L 6472.93,2779.76 L 6468.41,2781.77 L 6463.58,2782.8 L 6458.65,2782.8 L 6452.96,2781.39 L 6303.62,2930.72 L 6300.42,2932.86 L 6296.66,2933.6 L 627.353,2933.6 L 625.305,2933.39 L 623.349,2932.75 L 621.472,2931.64 z " style="fill-opacity:1.000000;fill:rgb(168,153,15);stroke:rgb(0,0,0);stroke-width:2"/></g>
<g fill-rule="evenodd"><path d="M 621.472,2892.27 L 595.86,2892.27 L 595.86,2876.53 L 621.468,2876.53 L 623.349,2875.41 L 625.305,2874.77 L 627.353,2874.56 L 6255.16,2874.56 L 6318.68,2811.04 L 6317.63,2807.81 L 6317.11,2802.9 L 6317.63,2797.99 L 6319.15,2793.3 L 6321.62,2789.02 L 6324.93,2785.35 L 6328.92,2782.45 L 6333.43,2780.44 L 6338.26,2779.41 L 6343.2,2779.41 L 6348.03,2780.44 L 6352.54,2782.45 L 6356.53,2785.35 L 6359.84,2789.02 L 6362.31,2793.3 L 6363.83,2797.99 L 6364.35,2802.9 L 6363.83,2807.81 L 6362.31,2812.51 L 6359.84,2816.79 L 6356.53,2820.46 L 6352.54,2823.36 L 6348.03,2825.36 L 6343.2,2826.39 L 6338.26,2826.39 L 6332.57,2824.98 L 6266.19,2891.36 L 6263,2893.49 L 6259.23,2894.24 L 627.353,2894.24 L 625.305,2894.02 L 623.349,2893.39 L 621.472,2892.27 z " style="fill-opacity:1.000000;fill:rgb(149,177,235);stroke:rgb(0,0,0);stroke-width:2"/></g>
<g fill-rule="evenodd"><path d="M 621.472,2695.44 L 595.86,2695.44 L 595.86,2679.7 L 621.468,2679.7 L 623.349,2678.58 L 625.305,2677.94 L 627.353,2677.73 L 2696.99,2677.73 L 3087.84,2286.88 L 3087.84,2211.5 L 3085.87,2210.62 L 3081.88,2207.72 L 3078.58,2204.05 L 3076.11,2199.78 L 3074.58,2195.08 L 3074.06,2190.17 L 3074.58,2185.26 L 3076.11,2180.57 L 3078.58,2176.29 L 3081.88,2172.62 L 3085.87,2169.72 L 3090.39,2167.71 L 3095.22,2166.68 L 3100.15,2166.68 L 3104.98,2167.71 L 3109.49,2169.72 L 3113.49,2172.62 L 3116.79,2176.29 L 3119.26,2180.57 L 3120.79,2185.26 L 3121.3,2190.17 L 3120.79,2195.08 L 3119.26,2199.78 L 3116.79,2204.05 L 3113.49,2207.72 L 3109.49,2210.62 L 3107.52,2211.5 L 3107.52,2290.96 L 3106.77,2294.72 L 3105.86,2296.42 L 2708.03,2694.53 L 2704.84,2696.66 L 2702.99,2697.22 L 627.353,2697.41 L 625.305,2697.19 L 623.349,2696.56 L 621.472,2695.44 z " style="fill-opacity:1.000000;fill:rgb(241,179,5);stroke:rgb(0,0,0);stroke-width:2"/></g>
<g fill-rule="evenodd"><path d="M 2936.26,4326.41 L 2930.57,4327.83 L 2925.63,4327.83 L 2920.8,4326.8 L 2916.29,4324.79 L 2912.3,4321.89 L 2908.99,4318.22 L 2906.52,4313.94 L 2905,4309.25 L 2904.48,4304.34 L 2905,4299.43 L 2906.52,4294.73 L 2908.99,4290.46 L 2912.3,4286.79 L 2916.29,4283.89 L 2920.8,4281.88 L 2925.63,4280.85 L 2930.57,4280.85 L 2935.4,4281.88 L 2939.91,4283.89 L 2943.9,4286.79 L 2947.21,4290.46 L 2949.68,4294.73 L 2951.2,4299.43 L 2951.72,4304.34 L 2951.2,4309.25 L 2950.15,4312.47 L 2988.17,4350.49 L 7319.54,4350.49 L 7558.75,4111.28 L 7558.75,2794.98 L 7523.72,2759.95 L 7504.44,2759.95 L 7502.11,2763.99 L 7498.81,2767.66 L 7494.81,2770.56 L 7490.3,2772.57 L 7485.47,2773.6 L 7480.54,2773.6 L 7475.71,2772.57 L 7471.2,2770.56 L 7467.2,2767.66 L 7463.9,2763.99 L 7461.43,2759.71 L 7459.9,2755.02 L 7459.39,2750.11 L 7459.9,2745.2 L 7461.43,2740.5 L 7463.9,2736.23 L 7467.2,2732.56 L 7471.2,2729.66 L 7475.71,2727.65 L 7480.54,2726.62 L 7485.47,2726.62 L 7490.3,2727.65 L 7494.81,2729.66 L 7498.81,2732.56 L 7502.11,2736.23 L 7504.44,2740.27 L 7527.8,2740.27 L 7531.56,2741.02 L 7534.76,2743.15 L 7575.55,2783.95 L 7577.69,2787.14 L 7578.44,2790.9 L 7578.25,4117.28 L 7577.69,4119.13 L 7575.55,4122.32 L 7330.58,4367.29 L 7327.39,4369.42 L 7323.62,4370.17 L 2984.1,4370.17 L 2980.33,4369.42 L 2977.14,4367.29 L 2936.26,4326.41 z " style="fill-opacity:1.000000;fill:rgb(239,247,0);stroke:rgb(0,0,0);stroke-width:2"/></g>
<g fill-rule="evenodd"><path d="M 3017.89,3116 L 3013.99,3117.73 L 3009.16,3118.76 L 3004.23,3118.76 L 2999.4,3117.73 L 2994.88,3115.73 L 2990.89,3112.82 L 2987.59,3109.15 L 2985.12,3104.88 L 2983.59,3100.18 L 2983.07,3095.27 L 2983.59,3090.36 L 2985.12,3085.67 L 2987.59,3081.39 L 2990.89,3077.72 L 2994.88,3074.82 L 2999.4,3072.81 L 3004.23,3071.78 L 3009.16,3071.78 L 3013.99,3072.81 L 3018.5,3074.82 L 3022.5,3077.72 L 3025.8,3081.39 L 3028.27,3085.67 L 3029.79,3090.36 L 3030.31,3095.27 L 3029.76,3100.29 L 3043.78,3110.83 L 3902.8,3110.83 L 3906.56,3111.58 L 3909.75,3113.71 L 4021.94,3225.9 L 4024.07,3229.09 L 4024.82,3232.86 L 4024.82,3455.7 L 4026.79,3456.58 L 4030.79,3459.48 L 4034.09,3463.15 L 4036.56,3467.42 L 4038.08,3472.12 L 4038.6,3477.03 L 4038.08,3481.94 L 4036.56,3486.63 L 4034.09,3490.91 L 4030.79,3494.58 L 4026.79,3497.48 L 4022.28,3499.49 L 4017.45,3500.52 L 4012.52,3500.52 L 4007.69,3499.49 L 4003.17,3497.48 L 3999.18,3494.58 L 3995.88,3490.91 L 3993.41,3486.63 L 3991.88,3481.94 L 3991.36,3477.03 L 3991.88,3472.12 L 3993.41,3467.42 L 3995.88,3463.15 L 3999.18,3459.48 L 4003.17,3456.58 L 4005.14,3455.7 L 4005.14,3236.93 L 3898.72,3130.51 L 3040.49,3130.51 L 3037.37,3130 L 3034.58,3128.54 L 3017.89,3116 z " style="fill-opacity:1.000000;fill:rgb(233,161,58);stroke:rgb(0,0,0);stroke-width:2"/></g>
<g fill-rule="evenodd"><path d="M 1480.73,2461.22 L 627.353,2461.22 L 625.305,2461 L 623.349,2460.36 L 621.472,2459.25 L 595.86,2459.25 L 595.86,2443.5 L 621.468,2443.5 L 623.349,2442.38 L 625.305,2441.75 L 627.353,2441.53 L 1483.64,2441.53 L 1487.45,2436.99 L 1491.45,2434.09 L 1495.96,2432.08 L 1500.79,2431.05 L 1505.73,2431.05 L 1510.55,2432.08 L 1515.07,2434.09 L 1519.06,2436.99 L 1522.37,2440.66 L 1524.83,2444.94 L 1526.36,2449.63 L 1526.88,2454.54 L 1526.36,2459.45 L 1524.83,2464.15 L 1522.37,2468.42 L 1519.06,2472.09 L 1515.07,2474.99 L 1510.55,2477 L 1505.73,2478.03 L 1500.79,2478.03 L 1495.96,2477 L 1491.45,2474.99 L 1487.45,2472.09 L 1484.15,2468.42 L 1481.68,2464.15 L 1480.73,2461.22 z " style="fill-opacity:1.000000;fill:rgb(229,202,11);stroke:rgb(0,0,0);stroke-width:2"/></g>
<g fill-rule="evenodd"><path d="M 621.468,2482.87 L 623.349,2481.75 L 625.305,2481.11 L 627.353,2480.9 L 709.466,2481.09 L 711.312,2481.65 L 714.506,2483.78 L 737.415,2506.69 L 1574.97,2506.69 L 1595.19,2486.47 L 1594.14,2483.25 L 1593.63,2478.34 L 1594.14,2473.43 L 1595.67,2468.73 L 1598.14,2464.46 L 1601.44,2460.79 L 1605.44,2457.88 L 1609.95,2455.88 L 1614.78,2454.85 L 1619.71,2454.85 L 1624.54,2455.88 L 1629.05,2457.88 L 1633.05,2460.79 L 1636.35,2464.46 L 1638.82,2468.73 L 1640.35,2473.43 L 1640.86,2478.34 L 1640.35,2483.25 L 1638.82,2487.94 L 1636.35,2492.22 L 1633.05,2495.89 L 1629.05,2498.79 L 1624.54,2500.8 L 1619.71,2501.83 L 1614.78,2501.83 L 1609.08,2500.42 L 1586.01,2523.49 L 1582.81,2525.62 L 1579.05,2526.37 L 743.182,2526.37 L 743.182,2546.53 L 742.432,2550.3 L 741.523,2552 L 717.355,2576.43 L 714.164,2578.56 L 710.398,2579.31 L 627.353,2579.31 L 625.305,2579.1 L 623.349,2578.46 L 621.472,2577.35 L 595.86,2577.35 L 595.86,2561.6 L 621.468,2561.6 L 623.349,2560.48 L 625.305,2559.85 L 627.353,2559.63 L 706.32,2559.63 L 723.501,2542.45 L 723.501,2520.61 L 703.475,2500.58 L 627.353,2500.58 L 625.305,2500.37 L 623.349,2499.73 L 621.472,2498.61 L 595.86,2498.61 L 595.86,2482.87 L 621.468,2482.87 z " style="fill-opacity:1.000000;fill:rgb(203,208,72);stroke:rgb(0,0,0);stroke-width:2"/></g>
<g fill-rule="evenodd"><path d="M 621.472,2616.71 L 595.86,2616.71 L 595.86,2600.97 L 621.468,2600.97 L 623.349,2599.85 L 625.305,2599.21 L 627.353,2599 L 2226.78,2599 L 2321.11,2504.67 L 2320.06,2501.45 L 2319.55,2496.54 L 2320.06,2491.63 L 2321.59,2486.93 L 2324.06,2482.65 L 2327.36,2478.98 L 2331.36,2476.08 L 2335.87,2474.08 L 2340.7,2473.05 L 2345.63,2473.05 L 2350.46,2474.08 L 2354.97,2476.08 L 2358.97,2478.98 L 2362.27,2482.65 L 2364.74,2486.93 L 2366.27,2491.63 L 2366.79,2496.54 L 2366.27,2501.45 L 2364.74,2506.14 L 2362.27,2510.42 L 2358.97,2514.09 L 2354.97,2516.99 L 2350.46,2519 L 2345.63,2520.03 L 2340.7,2520.03 L 2335,2518.61 L 2237.82,2615.8 L 2234.63,2617.93 L 2230.86,2618.68 L 627.353,2618.68 L 625.305,2618.46 L 623.349,2617.83 L 621.472,2616.71 z " style="fill-opacity:1.000000;fill:rgb(71,100,189);stroke:rgb(0,0,0);stroke-width:2"/></g>
<g fill-rule="evenodd"><path d="M 621.472,2341.15 L 595.86,2341.15 L 595.86,2325.41 L 621.468,2325.41 L 623.349,2324.29 L 625.305,2323.65 L 627.353,2323.44 L 1621.49,2323.63 L 1623.33,2324.19 L 1626.53,2326.32 L 1756.67,2456.46 L 1762.36,2455.05 L 1767.3,2455.05 L 1772.13,2456.08 L 1776.64,2458.08 L 1780.63,2460.99 L 1783.94,2464.66 L 1786.4,2468.93 L 1787.93,2473.63 L 1788.45,2478.54 L 1787.93,2483.45 L 1786.4,2488.14 L 1783.94,2492.42 L 1780.63,2496.09 L 1776.64,2498.99 L 1772.13,2501 L 1767.3,2502.03 L 1762.36,2502.03 L 1757.53,2501 L 1753.02,2498.99 L 1749.02,2496.09 L 1745.72,2492.42 L 1743.25,2488.14 L 1741.73,2483.45 L 1741.21,2478.54 L 1741.73,2473.63 L 1742.78,2470.4 L 1615.49,2343.12 L 627.353,2343.12 L 625.305,2342.9 L 623.349,2342.27 L 621.472,2341.15 z " style="fill-opacity:1.000000;fill:rgb(31,35,30);stroke:rgb(0,0,0);stroke-width:2"/></g>
<g fill-rule="evenodd"><path d="M 621.472,2419.88 L 595.86,2419.88 L 595.86,2404.14 L 621.468,2404.14 L 623.349,2403.02 L 625.305,2402.38 L 627.353,2402.17 L 1206.95,2402.17 L 1207.63,2401.48 L 1206.59,2398.26 L 1206.07,2393.35 L 1206.59,2388.44 L 1208.11,2383.74 L 1210.58,2379.47 L 1213.88,2375.8 L 1217.88,2372.89 L 1222.39,2370.89 L 1227.22,2369.86 L 1232.16,2369.86 L 1236.98,2370.89 L 1241.5,2372.89 L 1245.49,2375.8 L 1248.8,2379.47 L 1251.26,2383.74 L 1252.79,2388.44 L 1253.31,2393.35 L 1252.79,2398.26 L 1251.26,2402.95 L 1248.8,2407.23 L 1245.49,2410.9 L 1241.5,2413.8 L 1236.98,2415.81 L 1232.16,2416.84 L 1227.22,2416.84 L 1221.52,2415.43 L 1216.49,2420.19 L 1214.79,2421.1 L 1211.02,2421.85 L 627.353,2421.85 L 625.305,2421.63 L 623.349,2421 L 621.472,2419.88 z " style="fill-opacity:1.000000;fill:rgb(168,28,123);stroke:rgb(0,0,0);stroke-width:2"/></g>
<g fill-rule="evenodd"><path d="M 6844.92,2996.47 L 6846.21,2996.19 L 6851.14,2996.19 L 6855.97,2997.22 L 6860.48,2999.23 L 6864.48,3002.13 L 6867.78,3005.8 L 6870.25,3010.07 L 6871.78,3014.77 L 6872.29,3019.68 L 6871.78,3024.59 L 6870.25,3029.28 L 6867.78,3033.56 L 6864.48,3037.23 L 6860.48,3040.13 L 6855.97,3042.14 L 6851.14,3043.17 L 6846.21,3043.17 L 6841.38,3042.14 L 6836.87,3040.13 L 6832.87,3037.23 L 6829.57,3033.56 L 6827.1,3029.28 L 6825.57,3024.59 L 6825.05,3019.68 L 6825.57,3014.77 L 6826.73,3011.2 L 6825.45,3008.13 L 6825.23,3006.08 L 6825.23,2595 L 6001.74,1771.5 L 5999.58,1773.07 L 5995.07,1775.08 L 5990.24,1776.11 L 5985.3,1776.11 L 5980.47,1775.08 L 5975.96,1773.07 L 5971.96,1770.17 L 5968.66,1766.5 L 5966.19,1762.22 L 5964.67,1757.53 L 5964.15,1752.62 L 5964.67,1747.71 L 5966.19,1743.01 L 5968.66,1738.74 L 5971.96,1735.07 L 5975.96,1732.16 L 5980.47,1730.16 L 5985.3,1729.13 L 5990.24,1729.13 L 5995.07,1730.16 L 5999.58,1732.16 L 6003.57,1735.07 L 6006.88,1738.74 L 6009.34,1743.01 L 6010.87,1747.71 L 6011.32,1753.25 L 6843.26,2585.46 L 6844.17,2587.16 L 6844.92,2590.93 L 6844.92,2996.47 z " style="fill-opacity:1.000000;fill:rgb(100,197,20);stroke:rgb(0,0,0);stroke-width:2"/></g>
<g fill-rule="evenodd"><path d="M 6787.72,2912.36 L 6789.69,2913.24 L 6793.69,2916.14 L 6796.99,2919.81 L 6799.46,2924.08 L 6800.98,2928.78 L 6801.5,2933.69 L 6800.98,2938.6 L 6799.46,2943.29 L 6796.99,2947.57 L 6793.69,2951.24 L 6789.69,2954.14 L 6785.18,2956.15 L 6780.35,2957.18 L 6775.41,2957.18 L 6770.58,2956.15 L 6766.07,2954.14 L 6762.08,2951.24 L 6758.77,2947.57 L 6756.31,2943.29 L 6754.78,2938.6 L 6754.26,2933.69 L 6754.78,2928.78 L 6756.31,2924.08 L 6758.77,2919.81 L 6762.08,2916.14 L 6766.07,2913.24 L 6768.04,2912.36 L 6768.04,2605.6 L 6703.41,2540.97 L 6649.7,2540.97 L 6645.93,2540.22 L 6644.23,2539.31 L 6520.07,2415.42 L 6514.38,2416.84 L 6509.44,2416.84 L 6504.61,2415.81 L 6500.1,2413.8 L 6496.11,2410.9 L 6492.8,2407.23 L 6490.34,2402.95 L 6488.81,2398.26 L 6488.29,2393.35 L 6488.81,2388.44 L 6490.34,2383.74 L 6492.8,2379.47 L 6496.11,2375.8 L 6500.1,2372.89 L 6504.61,2370.89 L 6509.44,2369.86 L 6514.38,2369.86 L 6519.21,2370.89 L 6523.72,2372.89 L 6527.72,2375.8 L 6531.02,2379.47 L 6533.49,2383.74 L 6535.01,2388.44 L 6535.53,2393.35 L 6535.01,2398.26 L 6533.96,2401.48 L 6653.77,2521.29 L 6707.49,2521.29 L 6709.41,2521.48 L 6712.96,2522.95 L 6784.84,2594.57 L 6786.97,2597.76 L 6787.72,2601.53 L 6787.72,2912.36 z " style="fill-opacity:1.000000;fill:rgb(115,90,197);stroke:rgb(0,0,0);stroke-width:2"/></g>
<g fill-rule="evenodd"><path d="M 6589.86,2897.82 L 6587.89,2896.95 L 6583.9,2894.05 L 6580.59,2890.38 L 6578.13,2886.1 L 6576.6,2881.4 L 6576.08,2876.5 L 6576.6,2871.59 L 6578.13,2866.89 L 6580.59,2862.61 L 6583.9,2858.94 L 6587.89,2856.04 L 6592.4,2854.03 L 6597.23,2853.01 L 6602.17,2853.01 L 6607,2854.03 L 6611.51,2856.04 L 6615.51,2858.94 L 6618.81,2862.61 L 6621.28,2866.89 L 6622.8,2871.59 L 6623.32,2876.5 L 6622.8,2881.4 L 6621.28,2886.1 L 6618.81,2890.38 L 6615.51,2894.05 L 6611.51,2896.95 L 6609.54,2897.82 L 6609.54,2931.81 L 6755.56,3077.83 L 7339.14,3077.83 L 7390.57,3026.4 L 7390.57,2518.41 L 7387.78,2515.61 L 7382.08,2517.03 L 7377.15,2517.03 L 7372.32,2516 L 7367.81,2513.99 L 7363.81,2511.09 L 7360.51,2507.42 L 7358.04,2503.14 L 7356.51,2498.45 L 7356,2493.54 L 7356.51,2488.63 L 7358.04,2483.93 L 7360.51,2479.65 L 7363.81,2475.98 L 7367.81,2473.08 L 7372.32,2471.08 L 7377.15,2470.05 L 7382.08,2470.05 L 7386.91,2471.08 L 7391.43,2473.08 L 7395.42,2475.98 L 7398.72,2479.65 L 7401.19,2483.93 L 7402.72,2488.63 L 7403.24,2493.54 L 7402.72,2498.45 L 7401.67,2501.67 L 7408.6,2508.86 L 7409.51,2510.57 L 7410.26,2514.33 L 7410.26,3030.48 L 7409.51,3034.24 L 7407.37,3037.44 L 7350.18,3094.63 L 7346.99,3096.76 L 7343.22,3097.51 L 6749.56,3097.32 L 6746.02,3095.85 L 6744.53,3094.63 L 6591.52,2941.35 L 6590.05,2937.81 L 6589.86,2935.89 L 6589.86,2897.82 z " style="fill-opacity:1.000000;fill:rgb(94,75,121);stroke:rgb(0,0,0);stroke-width:2"/></g>
<g fill-rule="evenodd"><path d="M 1281.09,2194.11 L 1285.09,2197.02 L 1288.39,2200.68 L 1290.86,2204.96 L 1292.38,2209.66 L 1292.9,2214.57 L 1292.38,2219.48 L 1290.86,2224.17 L 1288.39,2228.45 L 1285.09,2232.12 L 1281.09,2235.02 L 1276.58,2237.03 L 1271.75,2238.06 L 1266.82,2238.06 L 1261.99,2237.03 L 1257.47,2235.02 L 1253.48,2232.12 L 1250.18,2228.45 L 1247.71,2224.17 L 1246.18,2219.48 L 1245.66,2214.57 L 1246.18,2209.66 L 1247.71,2204.96 L 1250.18,2200.68 L 1253.48,2197.02 L 1257.47,2194.11 L 1257.47,723.73 L 1257.7,721.424 L 1258.37,719.211 L 1259.46,717.169 L 1260.93,715.379 L 1641.89,334.421 L 1643.68,332.953 L 1645.72,331.861 L 1647.94,331.189 L 1650.24,330.963 L 6514.31,330.963 L 6516.61,331.189 L 6518.83,331.861 L 6520.87,332.951 L 6522.66,334.421 L 7577.74,1389.51 L 7579.21,1391.29 L 7580.3,1393.33 L 7580.98,1395.55 L 7581.2,1397.86 L 7581.2,2574.47 L 7585.2,2577.37 L 7588.5,2581.04 L 7590.97,2585.32 L 7592.5,2590.02 L 7593.02,2594.93 L 7592.5,2599.84 L 7590.97,2604.53 L 7588.5,2608.81 L 7585.2,2612.48 L 7581.2,2615.38 L 7576.69,2617.39 L 7571.86,2618.42 L 7566.93,2618.42 L 7562.1,2617.39 L 7557.59,2615.38 L 7553.59,2612.48 L 7550.29,2608.81 L 7547.82,2604.53 L 7546.29,2599.84 L 7545.78,2594.93 L 7546.29,2590.02 L 7547.82,2585.32 L 7550.29,2581.04 L 7553.59,2577.37 L 7557.59,2574.47 L 7557.59,1402.75 L 6509.42,354.58 L 1655.13,354.58 L 1281.09,728.62 L 1281.09,2194.11 z " style="fill-opacity:1.000000;fill:rgb(99,59,112);stroke:rgb(0,0,0);stroke-width:2"/></g>
</svg>
